<svg xmlns="http://www.w3.org/2000/svg" xmlns:xlink="http://www.w3.org/1999/xlink" width="273" height="204" fill="none" xmlns:v="https://vecta.io/nano"><style><![CDATA[.B{fill:#4264a8}.C{fill:#000714}.D{fill:#fff}.E{opacity:.75}.F{fill-opacity:.75}]]></style><mask id="A" maskUnits="userSpaceOnUse" x="226" y="13" width="47" height="161"><path d="M226.569 173.84V13.25l46.19 2.02v156.55l-46.19 2.02z" class="D"/></mask><g mask="url(#A)"><path d="M249.96 15.03c-3.1-.13-6.06.43-8.77 1.57s-5.16 2.87-7.22 5.04-3.74 4.81-4.9 7.76-1.8 6.22-1.8 9.68v108.93c0 3.46.64 6.73 1.8 9.68s2.84 5.58 4.9 7.76 4.51 3.9 7.22 5.04a20.16 20.16 0 0 0 8.77 1.57c3.1-.14 6.02-.95 8.68-2.31s5.03-3.25 7.03-5.55 3.6-4.99 4.71-7.96 1.72-6.19 1.72-9.57V40.41c0-3.37-.61-6.6-1.72-9.57a26.16 26.16 0 0 0-4.71-7.96c-1.99-2.3-4.38-4.19-7.03-5.55a20.9 20.9 0 0 0-8.68-2.31" fill="url(#N)"/><path d="M249.959 172.06c-3.1.13-6.06-.43-8.77-1.57s-5.16-2.87-7.22-5.04-3.74-4.81-4.9-7.76-1.8-6.22-1.8-9.68V39.08c0-3.46.64-6.73 1.8-9.68s2.84-5.58 4.9-7.76 4.51-3.9 7.22-5.04a20.16 20.16 0 0 1 8.77-1.57c3.1.14 6.02.95 8.68 2.31s5.03 3.25 7.03 5.55 3.6 4.99 4.71 7.96 1.72 6.19 1.72 9.57v106.27c0 3.37-.61 6.6-1.72 9.57a26.16 26.16 0 0 1-4.71 7.96c-1.99 2.3-4.38 4.19-7.03 5.55a20.9 20.9 0 0 1-8.68 2.31m0-157.79c-3.19-.14-6.24.44-9.02 1.62s-5.32 2.96-7.44 5.2-3.86 4.96-5.06 8-1.86 6.41-1.86 9.97v108.98c0 3.56.66 6.93 1.86 9.97s2.93 5.75 5.06 8 4.65 4.02 7.44 5.2 5.84 1.76 9.02 1.62 6.2-.98 8.94-2.39 5.18-3.36 7.24-5.73 3.71-5.14 4.85-8.2 1.77-6.38 1.77-9.85V40.43c0-3.47-.63-6.8-1.77-9.85s-2.8-5.83-4.85-8.2-4.51-4.33-7.24-5.73-5.76-2.25-8.94-2.39" fill="url(#O)" class="F"/></g><g filter="url(#M)"><path d="M117.659 172.88l-3.21-.61 43.06-1.65 3.5.58-43.35 1.68z" class="B"/><mask id="B" maskUnits="userSpaceOnUse" x="112" y="172" width="6" height="1"><path d="M115.51 172.72l-3.2-.61.52.08.53.06c.18.02.36.02.54.03s.36 0 .55 0l3.22.61h-.55c-.18 0-.36-.01-.54-.03l-.53-.06-.53-.09-.01.01z" class="D"/></mask><g mask="url(#B)" class="B"><path d="M115.51 172.72l-3.2-.61.52.08.53.06c.18.02.36.02.54.03s.36 0 .55 0l3.22.61h-.55c-.18 0-.36-.01-.54-.03l-.53-.06-.53-.09"/></g><mask id="C" maskUnits="userSpaceOnUse" x="112" y="30" width="6" height="2"><path d="M112.31 31.44l3.2-.61.53-.09c.18-.03.36-.04.53-.06s.36-.02.54-.03.37 0 .55 0l-3.22.61h-.55c-.18 0-.36.01-.54.03l-.53.06-.52.08.01.01z" class="D"/></mask><g mask="url(#C)" class="B"><path d="M117.66 30.67l-3.22.61h-.55c-.18 0-.36.01-.54.03l-.53.06-.52.08 3.2-.61.53-.09c.18-.03.36-.04.53-.06s.36-.02.54-.03.37 0 .55 0"/></g><mask id="D" maskUnits="userSpaceOnUse" x="104" y="161" width="12" height="12"><path d="M115.51 172.72l-3.2-.61c-1.17-.22-2.27-.67-3.26-1.29s-1.87-1.43-2.61-2.37a10.79 10.79 0 0 1-1.73-3.23 12.09 12.09 0 0 1-.63-3.85l3.14.52a12 12 0 0 0 .63 3.88c.41 1.2 1 2.3 1.74 3.25s1.63 1.76 2.63 2.39a9.55 9.55 0 0 0 3.28 1.3l.01.01z" class="D"/></mask><g mask="url(#D)" class="C"><path d="M115.51 172.72l-3.2-.61c-.48-.09-.95-.22-1.4-.38s-.89-.36-1.32-.59-.83-.49-1.21-.78-.75-.61-1.09-.95l3.17.59a9.95 9.95 0 0 0 1.1.96c.39.29.8.56 1.22.79s.87.43 1.33.59.93.29 1.41.39"/><path d="M110.45 170l-3.17-.59-.36-.38-.34-.4-.32-.41-.3-.43 3.16.58.3.44c.1.15.21.28.32.42l.34.4.36.38"/><path d="M109.12 168.36l-3.16-.58-.24-.38-.23-.4-.21-.41-.2-.42 3.15.56.2.42.21.41.23.4.24.39"/><path d="M108.24 166.75l-3.15-.56-.18-.42-.16-.43-.14-.44-.13-.45 3.15.55.13.45.15.44.16.43c.05.14.12.28.18.42"/><path d="M107.62 165l-3.15-.55-.12-.51-.1-.52-.08-.52-.05-.53 3.14.53c.01.18.03.36.06.54l.08.53.1.52.12.51z"/><path d="M107.26 162.9l-3.14-.53c0-.08-.01-.16-.02-.25s0-.16-.01-.25 0-.17 0-.25v-.25l3.14.52v.25.25l.01.25.02.25"/></g><path d="M107.23 161.9l-3.15-.52V42.18l3.15-.52V161.9z" class="C"/><mask id="E" maskUnits="userSpaceOnUse" x="104" y="30" width="12" height="13"><path d="M112.31 31.44l3.2-.61c-1.18.23-2.29.67-3.28 1.3a10.47 10.47 0 0 0-2.63 2.39 10.92 10.92 0 0 0-1.74 3.25c-.4 1.2-.63 2.51-.63 3.88l-3.14.52c0-1.36.22-2.65.63-3.85s1-2.28 1.73-3.23 1.62-1.75 2.61-2.37 2.09-1.06 3.26-1.29l-.01.01z" class="D"/></mask><g mask="url(#E)" class="C"><path d="M107.23 41.66l-3.14.52.02-.67.05-.66.09-.65.12-.63 3.15-.54-.12.64-.09.65c-.03.22-.04.44-.05.66l-.02.68"/><path d="M107.509 39.03l-3.15.54.16-.63.19-.61.22-.59.25-.57 3.15-.56-.25.58-.22.6-.19.61-.16.63z"/><path d="M108.33 36.61l-3.15.56.41-.78.46-.74a8.89 8.89 0 0 1 .52-.69l.57-.64 3.17-.59-.57.65-.52.7c-.17.24-.32.49-.47.75l-.41.79"/><path d="M110.29 33.72l-3.17.59.36-.36.37-.34c.12-.11.26-.21.39-.32s.27-.2.4-.3l3.18-.6-.4.3-.39.32-.37.34-.36.36"/><path d="M111.82 32.4l-3.18.6.36-.24.37-.23c.12-.08.25-.14.38-.21l.39-.19 3.19-.61-.39.19c-.13.06-.26.14-.38.21l-.38.23-.36.24"/><path d="M113.339 31.53l-3.19.61.39-.17.4-.15c.13-.05.27-.09.41-.13l.42-.12 3.2-.61-.42.12-.41.14-.41.15c-.14.05-.27.11-.4.17"/><path d="M114.97 30.95l-3.2.61.13-.03.13-.03.13-.03.13-.03 3.2-.61-.14.03-.39.09"/></g><path d="M161.01 32.36c1.37.05 2.66.41 3.84 1.02s2.24 1.45 3.13 2.48 1.61 2.24 2.1 3.58.77 2.79.77 4.31v116.09c0 1.52-.27 2.97-.77 4.31s-1.21 2.55-2.1 3.58-1.95 1.88-3.13 2.48-2.48.96-3.84 1.02l-43.35 1.68c-1.43.06-2.8-.21-4.05-.73s-2.37-1.32-3.32-2.31-1.71-2.19-2.25-3.54-.82-2.83-.82-4.4V41.66c0-1.57.29-3.06.82-4.4s1.3-2.54 2.25-3.54a9.89 9.89 0 0 1 3.32-2.31 9.3 9.3 0 0 1 4.05-.73l43.35 1.68z" fill="url(#P)"/><mask id="F" maskUnits="userSpaceOnUse" x="102" y="161" width="14" height="14"><path d="M115.18 174.22l-3.2-.62a10.73 10.73 0 0 1-3.68-1.47 11.6 11.6 0 0 1-2.95-2.69 12.62 12.62 0 0 1-1.96-3.66 13.51 13.51 0 0 1-.71-4.36l3.13.52c0 1.55.25 3.03.71 4.39a12.7 12.7 0 0 0 1.97 3.69 11.62 11.62 0 0 0 2.97 2.72 10.7 10.7 0 0 0 3.71 1.48h.01z" class="D"/></mask><g mask="url(#F)" class="B"><path d="M115.179 174.22l-3.2-.62a10.55 10.55 0 0 1-1.58-.44c-.51-.19-1.01-.41-1.48-.67a11.78 11.78 0 0 1-1.37-.88c-.44-.33-.85-.69-1.23-1.08l3.16.6c.39.39.81.75 1.24 1.08s.9.63 1.38.89a10.45 10.45 0 0 0 1.49.67c.51.18 1.05.33 1.59.44"/><path d="M109.479 171.13l-3.16-.6-.41-.43-.39-.45c-.13-.15-.25-.31-.36-.47l-.34-.49 3.15.58.35.49.37.47.39.45.41.43"/><path d="M107.969 169.27l-3.15-.58-.28-.44-.26-.45-.24-.46c-.08-.15-.15-.31-.22-.48l3.14.57.23.48.24.47c.08.16.17.3.26.45l.28.44z"/><path d="M106.96 167.43l-3.14-.57-.2-.48-.18-.49-.16-.5-.15-.51 3.14.55.15.51.17.5.18.49.2.48"/><path d="M106.26 165.45l-3.14-.55-.14-.57-.11-.58-.09-.59c-.03-.2-.05-.4-.06-.6l3.13.53.06.61.09.6.11.59.14.58"/><path d="M105.86 163.07l-3.13-.53c0-.09-.01-.18-.02-.28s-.01-.19-.01-.28v-.28c0-.09-.02-.18-.02-.28l3.13.52v.28.28l.01.28.02.28"/></g><path d="M105.81 161.94l-3.13-.52V42.13l3.13-.52v120.33z" class="B"/><mask id="G" maskUnits="userSpaceOnUse" x="102" y="29" width="14" height="14"><path d="M111.979 29.96l3.2-.62a10.9 10.9 0 0 0-3.71 1.48c-1.13.71-2.13 1.63-2.97 2.72a12.7 12.7 0 0 0-1.97 3.69c-.46 1.36-.71 2.84-.71 4.39l-3.13.52a13.45 13.45 0 0 1 .71-4.35 12.75 12.75 0 0 1 1.96-3.66 11.42 11.42 0 0 1 2.95-2.69 10.73 10.73 0 0 1 3.68-1.47l-.01-.01z" class="D"/></mask><g mask="url(#G)" class="B"><path d="M105.81 41.609l-3.13.52.02-.76.06-.74.1-.73.14-.72 3.14-.55-.14.72-.1.74-.06.75-.02.76"/><path d="M106.14 38.639l-3.14.55.18-.71.21-.69c.07-.23.16-.45.25-.67l.28-.65 3.14-.57-.29.66-.25.68-.22.7-.18.72"/><path d="M107.07 35.889l-3.14.57a12.42 12.42 0 0 1 .46-.89 9.13 9.13 0 0 1 .53-.84l.59-.79.64-.73 3.16-.6-.65.74-.59.8-.53.85-.47.9"/><path d="M109.3 32.61l-3.16.6.41-.4.42-.38.44-.36.46-.34 3.17-.61-.46.34-.44.36-.43.39-.41.41"/><path d="M111.04 31.109l-3.17.61.41-.27.42-.26c.14-.09.29-.16.43-.24s.29-.15.44-.22l3.18-.62-.45.22-.44.24a6.13 6.13 0 0 0-.43.26l-.41.28"/><path d="M112.76 30.12l-3.18.62.45-.19.46-.17.47-.15.47-.13 3.2-.62-.48.13-.47.15c-.16.05-.31.11-.46.17l-.45.19"/><path d="M114.62 29.47l-3.2.62.14-.03.14-.03.14-.03.14-.03 3.2-.62-.14.03-.14.03-.14.03-.14.03z"/></g><path d="M161.01 30.87c1.55.06 3.02.47 4.35 1.16a11.86 11.86 0 0 1 3.54 2.82c1 1.17 1.82 2.54 2.38 4.05s.87 3.16.87 4.88v116c0 1.72-.31 3.37-.87 4.88s-1.38 2.89-2.38 4.05-2.21 2.13-3.54 2.82-2.81 1.1-4.35 1.16l-43.35 1.72c-1.62.06-3.18-.23-4.59-.83s-2.69-1.49-3.77-2.62-1.95-2.49-2.55-4.01a13.59 13.59 0 0 1-.94-4.99V41.61c0-1.78.33-3.47.94-4.99a12.71 12.71 0 0 1 2.55-4.01c1.07-1.13 2.35-2.02 3.77-2.62s2.97-.9 4.59-.83l43.35 1.72v-.01zm9.84 128.95V43.73c0-1.52-.27-2.97-.77-4.31s-1.21-2.55-2.1-3.58-1.95-1.88-3.13-2.48-2.48-.96-3.84-1.02l-43.35-1.68c-1.43-.06-2.8.21-4.05.73s-2.37 1.32-3.32 2.31-1.71 2.19-2.25 3.54-.82 2.83-.82 4.4v120.24c0 1.57.29 3.06.82 4.4s1.3 2.54 2.25 3.54a9.89 9.89 0 0 0 3.32 2.31 9.3 9.3 0 0 0 4.05.73l43.35-1.68c1.37-.05 2.66-.41 3.84-1.02s2.24-1.45 3.13-2.48 1.61-2.24 2.1-3.58.77-2.79.77-4.31" class="B"/></g><mask id="H" maskUnits="userSpaceOnUse" x="138" y="12" width="66" height="146"><path d="M138.22 157.52V12.85l65.07 2.55v139.57l-65.07 2.55z" class="D"/></mask><g mask="url(#H)"><path d="M163.39 24.82c-.27 0-.55-.08-.82-.19a2.95 2.95 0 0 1-.77-.47 3.08 3.08 0 0 1-.62-.68c-.17-.26-.3-.53-.37-.83a3.19 3.19 0 0 1-.1-.8c0-.26.03-.51.1-.75s.15-.46.26-.67a2.31 2.31 0 0 1 .41-.56 2.5 2.5 0 0 1 .39-.34c.14-.1.29-.18.44-.25s.32-.12.49-.15.34-.05.52-.04l15.91.58c.26 0 .52.06.76.15s.48.21.69.36a2.52 2.52 0 0 1 .57.56c.16.22.3.46.4.73.11.3.17.6.19.89s0 .57-.05.84-.14.52-.26.75a2.49 2.49 0 0 1-.44.62c-.12.12-.24.24-.38.33s-.28.18-.44.25-.31.12-.48.15-.34.05-.51.04l-15.9-.53m29.39-9.08l-43.42-1.69a9.42 9.42 0 0 0-4.05.73c-1.24.52-2.38 1.32-3.32 2.31s-1.71 2.19-2.25 3.53-.82 2.83-.82 4.41v120.32c0 1.57.29 3.06.82 4.4s1.3 2.54 2.25 3.53 2.07 1.78 3.32 2.31a9.33 9.33 0 0 0 4.05.73l43.42-1.69c1.37-.05 2.67-.41 3.85-1.02s2.24-1.45 3.13-2.48 1.61-2.24 2.1-3.58.77-2.79.77-4.31V27.12c0-1.52-.27-2.98-.77-4.31s-1.22-2.55-2.1-3.58-1.95-1.88-3.13-2.48-2.48-.96-3.85-1.02z" fill="url(#Q)"/><path d="M163.39 24.06c-.2 0-.41-.06-.61-.14a2.49 2.49 0 0 1-.58-.35c-.18-.14-.34-.31-.46-.5s-.22-.38-.27-.58c-.05-.19-.07-.38-.07-.57s.02-.37.06-.55a2.23 2.23 0 0 1 .19-.51c.08-.16.19-.3.31-.44.09-.1.19-.18.29-.26a1.06 1.06 0 0 1 .33-.18c.12-.04.24-.09.36-.11a2.31 2.31 0 0 1 .37-.03l15.91.57c.2 0 .4.05.59.11s.36.16.52.27.3.25.42.41.22.33.28.52c.09.25.14.49.15.71a2.25 2.25 0 0 1-.05.64c-.05.2-.12.38-.2.54s-.19.3-.29.41c-.09.1-.19.18-.29.25a1.74 1.74 0 0 1-.33.18c-.12.05-.23.08-.35.11s-.24.03-.37.03l-15.9-.53m15.82-4.39l-15.91-.58c-.18 0-.35 0-.52.04s-.33.08-.49.15a2.38 2.38 0 0 0-.44.25 2.5 2.5 0 0 0-.39.34 3.22 3.22 0 0 0-.41.56c-.12.2-.2.43-.26.67s-.09.49-.1.75.03.53.1.8c.07.29.2.57.37.83a3.08 3.08 0 0 0 .62.68c.24.2.5.35.77.47s.55.18.82.19l15.9.53c.18 0 .35 0 .51-.04s.33-.08.48-.15.3-.15.44-.25.26-.21.38-.33c.17-.18.32-.39.44-.62s.21-.48.26-.75.07-.55.05-.84-.09-.59-.19-.89a2.72 2.72 0 0 0-.4-.73c-.17-.22-.36-.4-.57-.56s-.45-.28-.69-.36a2.77 2.77 0 0 0-.76-.15m-29.85 136.66a9.42 9.42 0 0 1-4.05-.73 9.75 9.75 0 0 1-3.32-2.31c-.94-1-1.71-2.19-2.25-3.53s-.82-2.83-.82-4.4V25.03a12.05 12.05 0 0 1 .82-4.41c.53-1.35 1.3-2.54 2.25-3.53s2.07-1.78 3.32-2.31a9.33 9.33 0 0 1 4.05-.73l43.42 1.69c1.37.05 2.67.41 3.85 1.02s2.24 1.45 3.13 2.48 1.61 2.24 2.1 3.58.77 2.79.77 4.31v116.14c0 1.52-.27 2.98-.77 4.31s-1.22 2.55-2.1 3.58-1.95 1.88-3.13 2.48-2.48.96-3.85 1.02l-43.42 1.69m43.41-141.36l-43.43-1.7c-1.53-.06-2.99.22-4.32.78s-2.53 1.41-3.55 2.47-1.83 2.34-2.4 3.77-.88 3.02-.88 4.7v120.37c0 1.67.31 3.26.88 4.69s1.39 2.71 2.4 3.77 2.21 1.9 3.55 2.46 2.79.84 4.32.78l43.42-1.7c1.46-.06 2.84-.44 4.1-1.09s2.39-1.55 3.34-2.65 1.72-2.39 2.25-3.82.82-2.97.82-4.59V27.14c0-1.62-.29-3.17-.82-4.59s-1.3-2.72-2.25-3.82-2.08-2.01-3.34-2.65a9.96 9.96 0 0 0-4.1-1.09" fill="url(#R)" class="F"/></g><mask id="I" maskUnits="userSpaceOnUse" x="165" y="113" width="54" height="21"><path d="M165.75 133.33v-19.37l53.19.28v18.81l-53.19.28z" class="D"/></mask><g mask="url(#I)"><path d="M213.4 114.7l-41.81-.21a5.06 5.06 0 0 0-2.09.45 5.35 5.35 0 0 0-1.71 1.25c-.49.53-.88 1.16-1.15 1.86s-.42 1.47-.42 2.28v6.63c0 .81.15 1.58.42 2.28s.67 1.33 1.15 1.86 1.07.95 1.71 1.25 1.35.45 2.09.45l41.81-.21c.71 0 1.38-.17 1.99-.46s1.16-.71 1.62-1.23a5.91 5.91 0 0 0 1.09-1.81c.26-.68.4-1.43.4-2.21v-6.44a6.25 6.25 0 0 0-.4-2.22 5.84 5.84 0 0 0-1.09-1.82c-.46-.52-1.01-.94-1.62-1.23s-1.28-.46-1.99-.46" fill="url(#S)"/><path d="M171.59 132.78a5.06 5.06 0 0 1-2.09-.45 5.35 5.35 0 0 1-1.71-1.25c-.49-.53-.88-1.16-1.15-1.86s-.42-1.47-.42-2.28v-6.63c0-.81.15-1.58.42-2.28s.67-1.33 1.15-1.86 1.07-.95 1.71-1.25 1.35-.45 2.09-.45l41.81.21c.71 0 1.38.17 1.99.46s1.16.71 1.62 1.23a5.84 5.84 0 0 1 1.09 1.82 6.25 6.25 0 0 1 .4 2.22v6.44c0 .79-.14 1.53-.4 2.21s-.63 1.3-1.09 1.81-1.01.94-1.62 1.23-1.28.45-1.99.46l-41.81.21m41.81-18.57l-41.81-.22c-.8 0-1.57.17-2.27.49s-1.33.78-1.86 1.36a6.35 6.35 0 0 0-1.25 2.02 6.95 6.95 0 0 0-.46 2.47v6.63c0 .88.16 1.71.46 2.47s.72 1.44 1.25 2.02 1.16 1.04 1.86 1.36a5.41 5.41 0 0 0 2.27.49l41.81-.22c.76 0 1.49-.18 2.16-.5a5.46 5.46 0 0 0 1.76-1.34c.5-.57.91-1.23 1.19-1.97s.44-1.55.44-2.4v-6.44a6.56 6.56 0 0 0-.44-2.4c-.29-.74-.69-1.41-1.19-1.97a5.72 5.72 0 0 0-1.76-1.34 4.93 4.93 0 0 0-2.16-.5" fill="url(#T)" class="F"/></g><g opacity=".3"><mask id="J" maskUnits="userSpaceOnUse" x="164" y="32" width="53" height="60"><path d="M164.29 91.35V32.83l52.28.83v56.86l-52.28.83z" class="D"/></mask><g mask="url(#J)" class="B"><path d="M207.44 33.51l-33.58-.53a8.71 8.71 0 0 0-3.71.76c-1.14.51-2.18 1.26-3.04 2.2a10.64 10.64 0 0 0-2.06 3.3c-.49 1.25-.76 2.62-.76 4.07V80.9c0 1.45.27 2.82.76 4.06s1.19 2.36 2.06 3.3a9.33 9.33 0 0 0 3.04 2.19 8.74 8.74 0 0 0 3.71.76l33.58-.53c1.27-.02 2.47-.32 3.57-.86s2.08-1.29 2.9-2.23a10.71 10.71 0 0 0 1.95-3.26c.46-1.22.71-2.56.71-3.97V43.83a11.32 11.32 0 0 0-.71-3.97c-.46-1.23-1.13-2.33-1.95-3.26s-1.81-1.7-2.9-2.23-2.3-.84-3.57-.86z"/></g></g><mask id="K" maskUnits="userSpaceOnUse" x="172" y="119" width="41" height="10"><path d="M172.029 128.18v-9.07l40.95.1v8.87l-40.95.1z" class="D"/></mask><g mask="url(#K)" class="B"><path opacity=".3" d="M177.409 119.12h-2.46c-.4 0-.78.08-1.13.24s-.66.39-.93.68a3.19 3.19 0 0 0-.63 1.01c-.15.38-.23.8-.23 1.24v2.69c0 .44.08.86.23 1.24a3.19 3.19 0 0 0 .63 1.01c.27.29.58.52.93.68s.73.25 1.13.25h2.46c.4 0 .78-.1 1.13-.26a2.79 2.79 0 0 0 .92-.68 3.35 3.35 0 0 0 .62-1.01 3.36 3.36 0 0 0 .23-1.23v-2.68a3.32 3.32 0 0 0-.23-1.23 3.35 3.35 0 0 0-.62-1.01 2.79 2.79 0 0 0-.92-.68c-.35-.16-.73-.25-1.13-.25m11.051.019h-2.43a2.65 2.65 0 0 0-1.12.24c-.35.16-.65.39-.92.68s-.47.63-.62 1.01a3.32 3.32 0 0 0-.23 1.23v2.68a3.32 3.32 0 0 0 .23 1.23 3.35 3.35 0 0 0 .62 1.01 2.79 2.79 0 0 0 .92.68 2.66 2.66 0 0 0 1.12.25h2.43c.4 0 .77-.1 1.11-.26a2.86 2.86 0 0 0 .91-.68 3.2 3.2 0 0 0 .61-1c.14-.37.23-.79.23-1.23v-2.67a3.36 3.36 0 0 0-.23-1.23 3.16 3.16 0 0 0-.61-1c-.26-.28-.57-.52-.91-.68s-.72-.25-1.11-.25m10.929.021h-2.4c-.39 0-.77.08-1.11.24s-.65.39-.9.67a3.16 3.16 0 0 0-.61 1 3.52 3.52 0 0 0-.22 1.22v2.66a3.48 3.48 0 0 0 .22 1.22 3.2 3.2 0 0 0 .61 1 2.79 2.79 0 0 0 .9.67c.34.16.71.25 1.11.24h2.4c.39 0 .76-.1 1.1-.26a2.94 2.94 0 0 0 .9-.67 3.16 3.16 0 0 0 .61-1c.15-.38.22-.79.22-1.22v-2.65a3.52 3.52 0 0 0-.22-1.22 3.09 3.09 0 0 0-.61-1 2.79 2.79 0 0 0-.9-.67 2.57 2.57 0 0 0-1.1-.25m10.79.04h-2.37a2.56 2.56 0 0 0-1.1.24c-.34.16-.64.39-.89.67a3.2 3.2 0 0 0-.6.99 3.48 3.48 0 0 0-.22 1.22v2.65a3.52 3.52 0 0 0 .22 1.22 3.09 3.09 0 0 0 .6.99 2.9 2.9 0 0 0 .89.67 2.53 2.53 0 0 0 1.1.24h2.37c.39 0 .75-.1 1.09-.25s.64-.39.89-.67a3.2 3.2 0 0 0 .6-.99 3.42 3.42 0 0 0 .22-1.21v-2.63a3.42 3.42 0 0 0-.22-1.21 3.2 3.2 0 0 0-.6-.99c-.25-.28-.55-.51-.89-.67s-.7-.25-1.09-.25"/></g><mask id="L" maskUnits="userSpaceOnUse" x="237" y="31" width="23" height="128"><path d="M237.91 158.38V31.11l21.75.76v125.75l-21.75.76z" class="D"/></mask><g mask="url(#L)"><path d="M257.5 42.69l-6.56-.19-5.8 6.24 5.8 6.53 6.57.14-5.75-6.51 5.75-6.21m-6.58-11.12l-10.81 11.54 3.35 3.77 14.02-15.06-6.55-.23v-.02" fill="#02569b" class="E"/><path d="M247.22 88.56l-4.48-4.95a1.42 1.42 0 0 1-.25-.37c-.06-.13-.11-.25-.13-.37l-.05-.38c-.01-.13 0-.26 0-.4V70.26l12.65 14.07v4.25l-7.71-.03m-3.51-18.97l5.28-2.83.08-.03c.05-.02.12-.04.19-.06s.17-.05.26-.06.18-.03.26-.03c.11 0 .21.02.31.04s.17.06.25.1a.8.8 0 0 1 .21.15l.2.19.63.66.62.67.62.67.61.67-9.51-.13m6.1-4.02l-.32.01c-.11.01-.21.03-.31.05s-.21.06-.31.09-.2.08-.3.13l-2.04 1.1-2.26 1.21-1.84.98-.76.4-3.47 7.9-.1.25c-.04.09-.07.19-.09.29l-.07.3a1.39 1.39 0 0 0-.03.27 3.05 3.05 0 0 0 .05.52 2.46 2.46 0 0 0 .15.51c.07.17.14.32.23.47a3.19 3.19 0 0 0 .3.42l8.21 9.07 8.99.03v-4.25l3.83.02v-9.72l-8.23-9.24s-.05-.05-.14-.12l-.36-.27c-.15-.1-.32-.2-.49-.28s-.36-.14-.53-.15h-.02-.06" fill="#0175c2" class="E"/><path d="M243.83 115.18c-.13 0-.24-.03-.35-.08s-.21-.12-.29-.21-.15-.2-.2-.32a1 1 0 0 1-.07-.39c0-.14.03-.27.07-.39s.11-.23.2-.32.18-.17.29-.22.23-.08.35-.08.24.03.35.08.21.12.29.21.15.2.2.32a1 1 0 0 1 .07.39c0 .14-.03.27-.07.39s-.11.23-.2.32-.18.17-.29.22-.23.08-.35.08zm10.01-.11a1.04 1.04 0 0 1-.35-.07c-.11-.04-.2-.12-.29-.21a.84.84 0 0 1-.19-.31 1.18 1.18 0 0 1-.07-.39c0-.14.03-.27.07-.39a.94.94 0 0 1 .19-.32c.08-.09.18-.17.29-.22s.23-.08.35-.08.25.03.35.08.21.12.29.21.15.2.19.31a1.18 1.18 0 0 1 .07.39c0 .14-.03.27-.07.39a.94.94 0 0 1-.19.32c-.08.09-.18.17-.29.22s-.23.08-.35.08m1.79-10.08h-.02-.02-.02-.02c-.02 0-.04.02-.07.03s-.04.03-.06.04-.04.04-.05.06-.03.04-.04.07l-1.82 3.5-1.08-.46-1.14-.34c-.39-.09-.79-.16-1.19-.2a10.1 10.1 0 0 0-1.24-.06l-1.24.08a11.56 11.56 0 0 0-1.2.22 9.5 9.5 0 0 0-1.15.35 9.72 9.72 0 0 0-1.09.48l-1.85-3.5-.04-.07c-.01-.02-.03-.04-.05-.06s-.04-.03-.06-.04-.05-.02-.07-.03h-.02-.02-.02-.02-.05c-.02 0-.03 0-.05.01s-.03.01-.05.02-.03.02-.05.03-.04.03-.06.05-.04.04-.05.06-.03.04-.04.07l-.03.08c0 .03 0 .05-.01.08s0 .05 0 .08 0 .05.02.08.02.05.03.08l1.82 3.46c-.78.48-1.5 1.05-2.15 1.71s-1.22 1.41-1.7 2.22a12.86 12.86 0 0 0-1.18 2.64 13.02 13.02 0 0 0-.57 2.97l21.75-.29a13.72 13.72 0 0 0-.55-2.92 12.08 12.08 0 0 0-1.15-2.59 11.18 11.18 0 0 0-1.67-2.17 10.64 10.64 0 0 0-2.12-1.66l1.8-3.46.03-.08c.01-.03.01-.05.02-.08s0-.05 0-.08 0-.05-.01-.08c0-.03-.01-.05-.03-.08s-.02-.05-.04-.07-.03-.04-.05-.06-.04-.03-.06-.05c-.01 0-.03-.02-.04-.02s-.03-.01-.05-.02-.03 0-.05-.01-.03 0-.05 0" fill="#34a853" class="E"/><path d="M252.85 139.69c-.42.01-.82.09-1.19.2s-.73.26-1.06.4l-.9.4c-.27.11-.5.18-.7.19-.21 0-.45-.05-.71-.14l-.85-.34c-.3-.13-.62-.24-.95-.33a3.47 3.47 0 0 0-1.01-.14h-.04-.02c-.48.02-.94.11-1.37.26s-.85.37-1.24.64-.75.6-1.08.97-.61.8-.85 1.26c-.48.94-.76 1.98-.87 3.06s-.05 2.2.13 3.3a16.45 16.45 0 0 0 .84 3.14c.37.98.81 1.87 1.29 2.6l.72 1.06c.25.34.51.67.79.95s.57.52.88.68.64.25.99.24h.04.02a3.36 3.36 0 0 0 .93-.21c.27-.1.52-.24.77-.36s.52-.26.83-.35a4.04 4.04 0 0 1 1.07-.18c.42-.01.74.03 1.04.11s.55.19.8.3l.76.3c.27.08.56.13.91.12h.02.02.04a2.33 2.33 0 0 0 1.01-.3c.31-.17.59-.41.86-.7s.51-.61.75-.96l.69-1.1c.26-.43.48-.86.67-1.25a12.48 12.48 0 0 0 .46-1.09l.27-.78.1-.34s-.19-.07-.46-.23a4.8 4.8 0 0 1-.99-.78 4.98 4.98 0 0 1-.99-1.46c-.27-.61-.45-1.36-.46-2.27 0-.76.13-1.42.34-1.99s.49-1.04.78-1.43a5.97 5.97 0 0 1 .8-.87c.22-.2.39-.3.41-.32-.32-.51-.69-.91-1.06-1.21s-.77-.52-1.14-.67-.72-.24-1.03-.3-.56-.07-.73-.08h-.08-.08-.08-.08m.32-5.79c-.27.02-.56.08-.85.18s-.58.24-.86.4a4.93 4.93 0 0 0-.8.58c-.25.22-.48.46-.68.72a5.37 5.37 0 0 0-.5.77 6.38 6.38 0 0 0-.4.92c-.11.32-.19.67-.24 1.01a4.02 4.02 0 0 0-.01 1.04h.05.05.05.05c.29 0 .57-.06.85-.15a3.35 3.35 0 0 0 .81-.39c.26-.17.51-.35.73-.56s.43-.44.61-.69c.19-.26.37-.54.52-.84s.28-.62.38-.95a5.77 5.77 0 0 0 .21-1.02 4.61 4.61 0 0 0 0-1.05" class="D E"/></g><defs><filter id="M" x=".68" y=".15" width="176.47" height="203.268" filterUnits="userSpaceOnUse" color-interpolation-filters="sRGB"><feFlood flood-opacity="0" result="A"/><feColorMatrix in="SourceAlpha" values="0 0 0 0 0 0 0 0 0 0 0 0 0 0 0 0 0 0 127 0"/><feOffset dx="-5"/><feGaussianBlur stdDeviation="5"/><feColorMatrix values="0 0 0 0 0.258824 0 0 0 0 0.392157 0 0 0 0 0.658824 0 0 0 0.1 0"/><feBlend in2="A" result="C"/><feColorMatrix in="SourceAlpha" values="0 0 0 0 0 0 0 0 0 0 0 0 0 0 0 0 0 0 127 0"/><feOffset dx="-18"/><feGaussianBlur stdDeviation="9"/><feColorMatrix values="0 0 0 0 0.258824 0 0 0 0 0.392157 0 0 0 0 0.658824 0 0 0 0.09 0"/><feBlend in2="C" result="D"/><feColorMatrix in="SourceAlpha" values="0 0 0 0 0 0 0 0 0 0 0 0 0 0 0 0 0 0 127 0"/><feOffset dx="-41"/><feGaussianBlur stdDeviation="12.5"/><feColorMatrix values="0 0 0 0 0.258824 0 0 0 0 0.392157 0 0 0 0 0.658824 0 0 0 0.05 0"/><feBlend in2="D" result="E"/><feColorMatrix in="SourceAlpha" values="0 0 0 0 0 0 0 0 0 0 0 0 0 0 0 0 0 0 127 0"/><feOffset dx="-73"/><feGaussianBlur stdDeviation="14.5"/><feColorMatrix values="0 0 0 0 0.258824 0 0 0 0 0.392157 0 0 0 0 0.658824 0 0 0 0.01 0"/><feBlend in2="E"/><feBlend in="SourceGraphic"/></filter><linearGradient id="N" x1="227.27" y1="15.011" x2="310.089" y2="38.549" xlink:href="#U"><stop stop-color="#000714"/><stop offset="1" stop-color="#000714" stop-opacity=".25"/></linearGradient><linearGradient id="O" x1="226.579" y1="14.26" x2="311.634" y2="38.919" xlink:href="#U"><stop stop-color="#4264a8" stop-opacity=".1"/><stop offset="1" stop-color="#4264a8"/></linearGradient><linearGradient id="P" x1="107.22" y1="30.671" x2="213.231" y2="77.893" xlink:href="#U"><stop stop-color="#000714"/><stop offset="1" stop-color="#000714" stop-opacity=".25"/></linearGradient><linearGradient id="Q" x1="138.91" y1="14.032" x2="245.021" y2="61.343" xlink:href="#U"><stop stop-color="#000714"/><stop offset="1" stop-color="#000714" stop-opacity=".25"/></linearGradient><linearGradient id="R" x1="138.21" y1="13.282" x2="246.216" y2="61.955" xlink:href="#U"><stop stop-color="#4264a8" stop-opacity=".1"/><stop offset="1" stop-color="#4264a8"/></linearGradient><linearGradient id="S" x1="166.22" y1="114.49" x2="177.711" y2="147.161" xlink:href="#U"><stop stop-color="#000714"/><stop offset="1" stop-color="#000714" stop-opacity=".25"/></linearGradient><linearGradient id="T" x1="165.75" y1="113.98" x2="178.208" y2="148.157" xlink:href="#U"><stop stop-color="#4264a8" stop-opacity=".1"/><stop offset="1" stop-color="#4264a8"/></linearGradient><linearGradient id="U" gradientUnits="userSpaceOnUse"/></defs></svg>