<svg xmlns="http://www.w3.org/2000/svg" xmlns:xlink="http://www.w3.org/1999/xlink" width="304" height="228" fill="none" xmlns:v="https://vecta.io/nano"><style><![CDATA[.B{fill:#4264a8}.C{fill:#fff}.D{fill:#000714}.E{stroke:#4264a8}.F{stroke-width:.75}.G{stroke-miterlimit:10}.H{opacity:.15}.I{fill-opacity:.75}]]></style><g filter="url(#j)"><mask id="A" maskUnits="userSpaceOnUse" x="178" y="22" width="14" height="13"><path d="M178.635 23.021l.82-.52c5.86 0 11.18 5.06 11.88 11.3l-.82.52c-.71-6.24-6.03-11.3-11.88-11.3z" class="C"/></mask><g mask="url(#A)" class="B"><path d="M178.635 23.021l.82-.52c2.11 0 4.15.66 5.93 1.79l-.82.52c-1.78-1.13-3.82-1.79-5.93-1.79z"/><path d="M184.555 24.811l.82-.52a12.77 12.77 0 0 1 1.89 1.47l-.82.52c-.59-.55-1.22-1.05-1.89-1.47z"/><path d="M186.455 26.28l.82-.52a13.1 13.1 0 0 1 1.45 1.61l-.82.52c-.44-.58-.93-1.11-1.45-1.61z"/><path d="M187.904 27.891l.82-.52c.45.59.86 1.22 1.21 1.89l-.82.52c-.35-.67-.76-1.3-1.21-1.89z"/><path d="M189.115 29.78l.82-.52c.44.84.8 1.73 1.05 2.66l-.82.52c-.25-.93-.61-1.82-1.05-2.66z"/><path d="M190.154 32.44l.82-.52a11.78 11.78 0 0 1 .36 1.88l-.82.52a11.78 11.78 0 0 0-.36-1.88z"/></g><path d="M190.516 34.32l.82-.52 11.29 99.73-.81.52-11.3-99.73z" class="B"/><mask id="B" maskUnits="userSpaceOnUse" x="197" y="133" width="6" height="11"><path d="M198.285 143.42l-.82.52c3.04-1.93 4.83-5.63 4.35-9.89l.82-.52c.48 4.25-1.3 7.96-4.35 9.89z" class="C"/></mask><g mask="url(#B)" class="B"><path d="M201.815 134.05l.82-.52a11.31 11.31 0 0 1-.41 4.65l-.82.52a11.31 11.31 0 0 0 .41-4.65z"/><path d="M201.405 138.7l.82-.52a10.28 10.28 0 0 1-1.1 2.4l-.82.52c.46-.73.84-1.53 1.1-2.4z"/><path d="M200.295 141.09l.82-.52c-.36.57-.78 1.1-1.25 1.57l-.82.52c.47-.47.89-1 1.25-1.57z"/><path d="M199.045 142.66l.82-.52c-.45.45-.94.85-1.47 1.2l-.82.52c.53-.35 1.02-.75 1.47-1.2z"/><path d="M197.575 143.87l.82-.52s-.07.05-.11.07l-.82.52s.07-.05.11-.07z"/></g><mask id="C" maskUnits="userSpaceOnUse" x="192" y="143" width="7" height="3"><path d="M193.305 144.83c1.86 0 3.56-.51 4.98-1.41l-.82.52c-1.42.9-3.11 1.41-4.98 1.41l.82-.52z" class="C"/></mask><g mask="url(#C)" class="D"><path d="M192.485 145.35l.82-.52c1.86 0 3.56-.51 4.98-1.41l-.82.52c-1.42.9-3.11 1.41-4.98 1.41z"/></g><mask id="D" maskUnits="userSpaceOnUse" x="192" y="145" width="8" height="3"><path d="M199.335 145.11l-.82.52c-1.66 1.05-3.64 1.65-5.82 1.65l.82-.52c2.18 0 4.16-.6 5.82-1.65z" class="C"/></mask><g mask="url(#D)" class="B"><path d="M192.705 147.28l.82-.52c2.18 0 4.16-.6 5.82-1.65l-.82.52c-1.66 1.05-3.64 1.65-5.82 1.65z"/></g><path d="M32.175 23.021l.82-.52h146.45l-.81.52H32.175z" class="B"/><mask id="E" maskUnits="userSpaceOnUse" x="27" y="22" width="6" height="3"><path d="M27.195 24.431l.82-.52c1.42-.9 3.11-1.41 4.98-1.41l-.82.52c-1.86 0-3.56.51-4.98 1.41z" class="C"/></mask><g mask="url(#E)" class="B"><path d="M27.195 24.431l.82-.52c1.42-.9 3.11-1.41 4.98-1.41l-.82.52c-1.86 0-3.56.51-4.98 1.41z"/></g><mask id="F" maskUnits="userSpaceOnUse" x="25" y="23" width="4" height="4"><path d="M28.015 23.91c-.81.51-1.53 1.15-2.15 1.9l-.82.52c.61-.74 1.33-1.38 2.15-1.9l.82-.52z" class="C"/></mask><g mask="url(#F)" class="D"><path d="M27.206 24.43l.82-.52s-.07.05-.11.07l-.82.52s.07-.05.11-.07z"/><path d="M27.085 24.5l.82-.52c-.53.35-1.02.75-1.47 1.2l-.82.52c.45-.45.94-.85 1.47-1.2z"/><path d="M25.615 25.71l.82-.52c-.47.47-.89 1-1.25 1.57l-.82.52c.36-.57.78-1.1 1.25-1.57z"/></g><mask id="G" maskUnits="userSpaceOnUse" x="22" y="25" width="4" height="10"><path d="M25.875 25.811c-1.69 2.05-2.55 4.87-2.2 7.99l-.82.52c-.35-3.12.51-5.95 2.2-7.99l.82-.52z" class="C"/></mask><g mask="url(#G)" class="D"><path d="M25.615 25.71l.82-.52c-.47.47-.89 1-1.25 1.57l-.82.52c.36-.57.78-1.1 1.25-1.57z"/><path d="M24.366 27.28l.82-.52c-.46.73-.84 1.53-1.1 2.4l-.82.52a10.28 10.28 0 0 1 1.1-2.4z"/><path d="M23.265 29.67l.82-.52a11.31 11.31 0 0 0-.41 4.65l-.82.52a11.31 11.31 0 0 1 .41-4.65z"/></g><mask id="H" maskUnits="userSpaceOnUse" x="20" y="22" width="7" height="13"><path d="M26.135 22.74l.82-.52c-3.57 2.27-5.67 6.61-5.1 11.58l-.82.52c-.56-4.97 1.54-9.32 5.1-11.58z" class="C"/></mask><g mask="url(#H)" class="B"><path d="M26.136 22.74l.82-.52-.13.08-.82.52.13-.08z"/><path d="M26.005 22.83l.82-.52c-.62.41-1.2.88-1.73 1.41l-.82.52a10.66 10.66 0 0 1 1.73-1.41z"/><path d="M24.276 24.24l.82-.52a11.07 11.07 0 0 0-1.47 1.85l-.82.52a11.49 11.49 0 0 1 1.47-1.85z"/><path d="M22.806 26.09l.82-.52c-.54.86-.98 1.8-1.29 2.81l-.82.52c.31-1.01.75-1.95 1.29-2.81z"/><path d="M21.515 28.9l.82-.52c-.51 1.66-.7 3.49-.48 5.42l-.82.52c-.22-1.93-.04-3.77.48-5.42z"/></g><path d="M46.035 145.35l.81-.52h146.46l-.82.52H46.035z" class="D"/><path d="M46.255 147.28l.81-.52h146.46l-.82.52H46.255z" class="B"/><path d="M22.856 34.32l.82-.52 11.29 99.73-.82.52-11.29-99.73z" class="D"/><path d="M21.035 34.32l.82-.52 11.29 99.73-.82.52-11.29-99.73z" class="B"/><mask id="I" maskUnits="userSpaceOnUse" x="34" y="133" width="13" height="13"><path d="M34.146 134.05l.82-.52c.71 6.24 6.03 11.3 11.88 11.3l-.82.52c-5.86 0-11.18-5.06-11.88-11.3z" class="C"/></mask><g mask="url(#I)" class="D"><path d="M34.146 134.05l.82-.52a11.78 11.78 0 0 0 .36 1.88l-.82.52a11.78 11.78 0 0 1-.36-1.88z"/><path d="M34.506 135.93l.82-.52c.25.93.61 1.82 1.05 2.66l-.82.52c-.44-.84-.8-1.73-1.05-2.66z"/><path d="M35.556 138.59l.82-.52c.35.67.76 1.3 1.21 1.89l-.82.52c-.45-.59-.86-1.22-1.21-1.89z"/><path d="M36.766 140.49l.82-.52c.44.58.93 1.11 1.45 1.61l-.82.52a13.1 13.1 0 0 1-1.45-1.61z"/><path d="M38.216 142.09l.82-.52c.59.55 1.22 1.05 1.89 1.47l-.82.52a12.77 12.77 0 0 1-1.89-1.47z"/><path d="M40.106 143.57l.82-.52c1.78 1.13 3.82 1.79 5.93 1.79l-.82.52c-2.11 0-4.15-.66-5.93-1.79z"/></g><path d="M193.525 146.76H47.065c-6.85 0-13.1-5.94-13.92-13.23L21.855 33.8c-.83-7.29 4.07-13.23 10.92-13.23h146.45c6.84 0 13.09 5.94 13.91 13.23l11.29 99.73c.83 7.29-4.07 13.23-10.92 13.23h.02zm-2.19-112.96c-.71-6.24-6.03-11.3-11.88-11.3H32.995c-5.86 0-10.03 5.06-9.32 11.3l11.29 99.73c.71 6.24 6.03 11.3 11.88 11.3h146.45c5.86 0 10.03-5.06 9.32-11.3l-11.29-99.73" class="B"/><path d="M193.305 144.83H46.845c-5.86 0-11.18-5.06-11.88-11.3l-11.29-99.729c-.71-6.24 3.47-11.3 9.32-11.3h146.45c5.86 0 11.18 5.06 11.88 11.3l11.29 99.73c.71 6.24-3.47 11.3-9.32 11.3h.01z" fill="url(#k)"/><mask id="J" maskUnits="userSpaceOnUse" x="32" y="133" width="16" height="15"><path d="M32.325 134.05l.82-.52c.83 7.29 7.07 13.23 13.92 13.23l-.82.52c-6.85 0-13.1-5.94-13.92-13.23z" class="C"/></mask><g mask="url(#J)" class="B"><path d="M32.325 134.05l.82-.52c.08.75.23 1.48.42 2.19l-.82.52a15.98 15.98 0 0 1-.42-2.19z"/><path d="M32.745 136.24l.82-.52c.29 1.09.71 2.13 1.22 3.11l-.82.52c-.52-.98-.93-2.02-1.22-3.11z"/><path d="M33.976 139.36l.82-.52a16.08 16.08 0 0 0 1.42 2.22l-.82.52c-.53-.69-1.01-1.44-1.42-2.22z"/><path d="M35.385 141.57l.82-.52c.52.68 1.09 1.31 1.7 1.88l-.82.52a16.87 16.87 0 0 1-1.7-1.88z"/><path d="M37.085 143.46l.82-.52a14.8 14.8 0 0 0 2.23 1.73l-.82.52a14.8 14.8 0 0 1-2.23-1.73z"/><path d="M39.315 145.19l.82-.52c2.08 1.32 4.47 2.09 6.94 2.09l-.82.52c-2.47 0-4.85-.77-6.94-2.09z"/></g></g><path d="M182.386 120.31H51.706c-2.91 0-5.55-2.51-5.9-5.61l-8.36-73.83c-.35-3.1 1.72-5.62 4.63-5.62h130.68c2.9 0 5.55 2.51 5.9 5.62l8.36 73.83c.35 3.09-1.72 5.61-4.63 5.61z" fill="url(#l)"/><path d="M182.495 121.27H51.815c-3.41 0-6.51-2.95-6.92-6.57l-8.36-73.83c-.41-3.63 2.02-6.58 5.43-6.58h130.68c3.4 0 6.5 2.96 6.91 6.58l8.36 73.83c.41 3.63-2.02 6.57-5.42 6.57zm-3.84-80.4c-.35-3.1-2.99-5.62-5.9-5.62H42.075c-2.91 0-4.98 2.51-4.63 5.62l8.36 73.83c.35 3.09 2.99 5.61 5.9 5.61h130.68c2.9 0 4.98-2.51 4.63-5.61l-8.36-73.83z" fill="url(#m)" class="I"/><mask id="K" maskUnits="userSpaceOnUse" x="75" y="13" width="38" height="65"><path d="M112.285 13.54l.21 42.66-37.169 21.57-.22-42.67 37.179-21.56z" class="C"/></mask><g mask="url(#K)" class="B"><use xlink:href="#r"/></g><mask id="L" maskUnits="userSpaceOnUse" x="111" y="34" width="39" height="66"><path d="M149.125 34.95l.21 42.66-37.17 21.57-.21-42.67 37.17-21.56z" class="C"/></mask><g mask="url(#L)" class="B"><use xlink:href="#r" x="36.85" y="21.41"/></g><mask id="M" maskUnits="userSpaceOnUse" x="112" y="13" width="38" height="65"><path d="M149.125 34.95l.21 42.66-36.84-21.41-.21-42.66 36.84 21.41z" class="C"/></mask><g mask="url(#M)" class="B"><path d="M113.035 14.84l35.34 20.54.21 40.92-35.34-20.54-.21-40.92zm-.76-1.31l.21 42.66 36.84 21.41-.21-42.66-36.84-21.41z"/></g><mask id="N" maskUnits="userSpaceOnUse" x="75" y="56" width="75" height="44"><path d="M149.335 77.61l-37.17 21.57-36.84-21.41 37.17-21.57 36.84 21.41z" class="C"/></mask><g mask="url(#N)" class="B"><path d="M112.495 57.07l35.35 20.54-35.68 20.7-35.35-20.54 35.68-20.7zm0-.87l-37.18 21.57 36.84 21.41 37.18-21.57-36.84-21.41z"/></g><mask id="O" maskUnits="userSpaceOnUse" x="75" y="35" width="38" height="65"><path d="M112.165 99.18L75.326 77.77l-.22-42.67 36.849 21.41.21 42.67z" class="C"/></mask><g mask="url(#O)" class="B"><use xlink:href="#s"/></g><mask id="P" maskUnits="userSpaceOnUse" x="75" y="13" width="75" height="44"><path d="M111.955 56.51L75.106 35.1l37.179-21.56 36.84 21.41-37.17 21.56z" class="C"/></mask><g mask="url(#P)" class="B"><use xlink:href="#t"/></g><mask id="Q" maskUnits="userSpaceOnUse" x="75" y="13" width="38" height="65"><path d="M112.405 56.26l-37.08 21.41-.13-42.62 37.09-21.41.12 42.62z" class="C"/></mask><g mask="url(#Q)" class="B"><use xlink:href="#u"/></g><mask id="R" maskUnits="userSpaceOnUse" x="112" y="35" width="38" height="65"><path d="M149.246 77.67l-37.08 21.41-.12-42.62 37.08-21.41.12 42.62z" class="C"/></mask><g mask="url(#R)" class="B"><use xlink:href="#u" x="36.841" y="21.41"/></g><mask id="S" maskUnits="userSpaceOnUse" x="75" y="56" width="75" height="44"><path d="M149.245 77.67l-37.08 21.41-36.84-21.41 37.08-21.41 36.84 21.41z" class="C"/></mask><g mask="url(#S)" class="B"><use xlink:href="#v"/></g><mask id="T" maskUnits="userSpaceOnUse" x="75" y="35" width="38" height="65"><path d="M112.165 99.08l-36.84-21.41-.13-42.62 36.85 21.41.12 42.62z" class="C"/></mask><g mask="url(#T)" class="B"><use xlink:href="#w"/></g><mask id="U" maskUnits="userSpaceOnUse" x="75" y="13" width="75" height="44"><path d="M112.045 56.46l-36.85-21.41 37.09-21.41 36.84 21.41-37.08 21.41z" class="C"/></mask><g mask="url(#U)" class="B"><use xlink:href="#v" x="-0.12" y="-42.611"/></g><mask id="V" maskUnits="userSpaceOnUse" x="112" y="13" width="38" height="65"><path d="M149.125 35.05l.12 42.62-36.84-21.41-.12-42.62 36.84 21.41z" class="C"/></mask><g mask="url(#V)" class="E F G"><path d="M112.285 13.64l36.84 21.41.12 42.62-36.84-21.41"/></g><path d="M138.025 41.43l.08 29.83-25.96 14.98-.08-29.83 25.96-14.98z" fill="#233559"/><path d="M112.145 86.24l-25.72-14.95-.09-29.83 25.73 14.95.08 29.83z" fill="#30497b"/><path d="M112.065 56.41l-25.73-14.95 25.96-14.98 25.73 14.95-25.96 14.98z" fill="#3b5996"/><path d="M75.326 77.77l-.22-42.67 37.179-21.56" class="E F G"/><mask id="W" maskUnits="userSpaceOnUse" x="111" y="34" width="39" height="66"><path d="M149.125 34.95l.21 42.66-37.17 21.57-.21-42.67 37.17-21.56z" class="C"/></mask><g mask="url(#W)" class="B"><use xlink:href="#r" x="36.85" y="21.41"/></g><path d="M112.285 13.54l36.84 21.41.21 42.66m0 0l-37.17 21.57-36.84-21.41" class="E F G"/><mask id="X" maskUnits="userSpaceOnUse" x="75" y="35" width="38" height="65"><path d="M112.165 99.18L75.326 77.77l-.22-42.67 36.849 21.41.21 42.67z" class="C"/></mask><g mask="url(#X)" class="B"><use xlink:href="#s"/></g><mask id="Y" maskUnits="userSpaceOnUse" x="75" y="13" width="75" height="44"><path d="M111.955 56.51L75.106 35.1l37.179-21.56 36.84 21.41-37.17 21.56z" class="C"/></mask><g mask="url(#Y)" class="B"><use xlink:href="#t"/></g><path d="M75.325 77.67l-.13-42.62 37.09-21.41" class="E F G"/><mask id="Z" maskUnits="userSpaceOnUse" x="112" y="35" width="38" height="65"><path d="M149.246 77.67l-37.08 21.41-.12-42.62 37.08-21.41.12 42.62z" class="C"/></mask><g mask="url(#Z)" class="B"><use xlink:href="#u" x="36.841" y="21.41"/></g><path d="M149.245 77.67l-37.08 21.41-36.84-21.41" class="E F G"/><mask id="a" maskUnits="userSpaceOnUse" x="75" y="35" width="38" height="65"><path d="M112.165 99.08l-36.84-21.41-.13-42.62 36.85 21.41.12 42.62z" class="C"/></mask><g mask="url(#a)" class="B"><use xlink:href="#w"/></g><mask id="b" maskUnits="userSpaceOnUse" x="75" y="13" width="75" height="44"><path d="M112.045 56.46l-36.85-21.41 37.09-21.41 36.84 21.41-37.08 21.41z" class="C"/></mask><g mask="url(#b)" class="B"><use xlink:href="#v" x="-0.12" y="-42.611"/></g><path d="M112.285 13.64l36.84 21.41.12 42.62" class="E F G"/><path d="M80.925 167.08h-23.06c-3.32 0-6.35-2.89-6.76-6.42l-2.78-24.58c-.4-3.55 1.98-6.42 5.3-6.42h23.06c3.32 0 6.35 2.88 6.76 6.42l2.78 24.58c.4 3.54-1.98 6.42-5.3 6.42zm1.61-31c-.34-3.02-2.91-5.46-5.74-5.46h-23.06c-2.83 0-4.85 2.44-4.5 5.46l2.78 24.58c.34 3.02 2.91 5.46 5.74 5.46h23.06c2.83 0 4.85-2.44 4.5-5.46l-2.78-24.58z" fill="url(#n)" class="I"/><path d="M80.815 166.12h-23.06c-2.83 0-5.4-2.44-5.74-5.46l-2.78-24.58c-.34-3.02 1.67-5.46 4.5-5.46h23.06c2.83 0 5.4 2.44 5.74 5.46l2.78 24.58c.34 3.02-1.67 5.46-4.5 5.46z" fill="url(#o)"/><path d="M192.885 166.13h-94.75c-2.79 0-5.33-2.42-5.67-5.39l-2.8-24.72c-.34-2.98 1.66-5.39 4.45-5.39h94.75c2.79 0 5.33 2.41 5.67 5.39l2.8 24.72c.34 2.97-1.66 5.39-4.45 5.39z" fill="url(#p)"/><path d="M192.995 167.09h-94.75c-3.29 0-6.29-2.85-6.68-6.35l-2.8-24.72c-.4-3.5 1.96-6.35 5.24-6.35h94.75c3.29 0 6.29 2.85 6.68 6.35l2.8 24.72c.4 3.5-1.96 6.35-5.24 6.35zm1.54-31.07c-.34-2.98-2.88-5.39-5.67-5.39h-94.75c-2.79 0-4.78 2.41-4.45 5.39l2.8 24.72c.34 2.97 2.88 5.39 5.67 5.39h94.75c2.79 0 4.78-2.42 4.45-5.39l-2.8-24.72z" fill="url(#q)" class="I"/><g opacity=".75"><mask id="c" maskUnits="userSpaceOnUse" x="55" y="138" width="22" height="18"><path d="M57.776 155.57l-1.88-16.64h18.95l1.88 16.64h-18.95z" class="C"/></mask><g mask="url(#c)"><path d="M69.746 152.48c-1.17 0-2.32-.47-3.19-1.31a4.71 4.71 0 0 1-.99-1.38c-.22-.49-.34-1.01-.36-1.53a3.5 3.5 0 0 1 .25-1.48c.19-.44.45-.84.79-1.16.68-.66 1.61-1.01 2.61-1.02a4.6 4.6 0 0 1 2.83 1.01 4.61 4.61 0 0 1 1.05 1.16 4.23 4.23 0 0 1 .59 1.45c.1.53.09 1.05-.02 1.55-.12.52-.35 1-.67 1.39-.69.84-1.72 1.32-2.89 1.32zm-3.94-13.54c-.27 0-.54.08-.73.24-.39.33-.39.87.04 1.21l2.75 2.17h-7.63c-.63 0-1.19.43-1.24 1-.06.57.42 1.03 1.08 1.03h3.87l-6.27 5.64-.02.03c-.59.53-.7 1.42-.23 1.97.24.28.58.42.94.42a1.49 1.49 0 0 0 1.02-.42l3.4-3.29.03.71c.03.27.17.78.34 1.19a7.41 7.41 0 0 0 1.54 2.36c.7.73 1.54 1.31 2.43 1.7.95.43 1.95.65 2.95.65h.06c1.01 0 1.98-.23 2.85-.66.8-.4 1.5-.98 2.03-1.71.51-.68.85-1.49 1.01-2.36.15-.85.12-1.75-.1-2.63-.2-.84-.57-1.65-1.08-2.37-.48-.67-1.04-1.26-1.68-1.75l-6.56-4.91h-.02c-.21-.17-.49-.25-.76-.25" fill="#e87d0d"/><path d="M69.655 150.93c-.7 0-1.42-.29-1.99-.81-.52-.48-.85-1.13-.9-1.83-.04-.68.21-1.29.63-1.71a2.36 2.36 0 0 1 1.66-.67h.03c.69 0 1.34.25 1.85.67.52.43.9 1.03 1.01 1.71.12.7-.07 1.36-.48 1.83-.45.52-1.11.81-1.82.81m-.8-6.34c-1 0-1.93.36-2.61 1.02-.34.32-.6.72-.79 1.16-.18.46-.27.96-.25 1.48s.14 1.04.36 1.53a4.71 4.71 0 0 0 .99 1.38c.87.84 2.02 1.31 3.19 1.31s2.21-.48 2.89-1.32a3.53 3.53 0 0 0 .67-1.39c.12-.5.12-1.02.02-1.55a4.23 4.23 0 0 0-.59-1.45 4.61 4.61 0 0 0-1.05-1.16 4.6 4.6 0 0 0-2.83-1.01z" class="C"/><path d="M69.045 145.9a2.36 2.36 0 0 0-1.66.67 2.23 2.23 0 0 0-.63 1.71c.05.7.38 1.36.9 1.83.57.52 1.29.81 1.99.81s1.36-.29 1.82-.81c.4-.48.6-1.13.48-1.83a2.8 2.8 0 0 0-1.01-1.71c-.51-.42-1.17-.67-1.85-.67h-.03" fill="#265787"/></g></g><g opacity=".6"><mask id="d" maskUnits="userSpaceOnUse" x="102" y="140" width="17" height="17"><path d="M103.875 156.37l-1.76-15.54h14.59l1.76 15.54h-14.59z" class="C"/></mask><g mask="url(#d)" class="B"><path d="M113.835 140.83h-8.83c-1.59 0-2.72 1.37-2.53 3.06l1.07 9.42c.19 1.7 1.64 3.06 3.23 3.06h8.83c1.59 0 2.72-1.36 2.53-3.06l-1.07-9.42c-.19-1.69-1.64-3.06-3.23-3.06z"/></g></g><g class="H"><mask id="e" maskUnits="userSpaceOnUse" x="124" y="140" width="17" height="17"><path d="M125.906 156.37l-1.76-15.54h14.59l1.76 15.54h-14.59z" class="C"/></mask><g mask="url(#e)" class="B"><use xlink:href="#x"/></g></g><g class="H"><mask id="f" maskUnits="userSpaceOnUse" x="146" y="140" width="17" height="17"><path d="M147.936 156.37l-1.76-15.54h14.59l1.76 15.54h-14.59z" class="C"/></mask><g mask="url(#f)" class="B"><path d="M157.896 140.83h-8.84c-1.59 0-2.72 1.37-2.53 3.06l1.07 9.42c.19 1.7 1.64 3.06 3.23 3.06h8.84c1.58 0 2.72-1.36 2.52-3.06l-1.07-9.42c-.19-1.69-1.64-3.06-3.22-3.06z"/></g></g><g class="H"><mask id="g" maskUnits="userSpaceOnUse" x="168" y="140" width="17" height="17"><path d="M170.305 156.37l-1.76-15.54h14.59l1.76 15.54h-14.59z" class="C"/></mask><g mask="url(#g)" class="B"><use xlink:href="#x" x="44.39"/></g></g><g stroke-linecap="round" stroke-linejoin="round" class="E"><path d="M163.195 5.02v14.31"/><path d="M163.195 19.33l12.39-7.15m-12.39 7.15l12.39 7.16"/></g><use xlink:href="#y" class="D"/><path d="M175.435 10.42a1.61 1.61 0 1 1 0 3.22 1.61 1.61 0 0 1 0-3.22zm0-1c-1.44 0-2.61 1.17-2.61 2.61s1.17 2.61 2.61 2.61 2.61-1.17 2.61-2.61-1.17-2.61-2.61-2.61z" class="B"/><use xlink:href="#y" y="14.37" class="D"/><use xlink:href="#z" class="B"/><use xlink:href="#y" x="-12.24" y="-7.01" class="D"/><use xlink:href="#z" x="-12.24" y="-21.38" class="B"/><g opacity=".5"><use xlink:href="#y" x="-24.49" y="14.37" class="D"/><use xlink:href="#z" x="-24.49" class="B"/></g><g opacity=".5"><use xlink:href="#y" x="-24.49" class="D"/><use xlink:href="#z" x="-24.49" y="-14.37" class="B"/></g><g opacity=".5"><use xlink:href="#y" x="-12.24" y="21.61" class="D"/><use xlink:href="#z" x="-12.24" y="7.24" class="B"/></g><g class="H B"><path d="M64.135 41.44h-17.14c-2 0-3.81-1.72-4.05-3.85l-2.07-18.26c-.24-2.12 1.18-3.85 3.18-3.85h17.14c2 0 3.81 1.73 4.05 3.85l2.07 18.26c.24 2.13-1.18 3.85-3.18 3.85z"/></g><g opacity=".75"><mask id="h" maskUnits="userSpaceOnUse" x="47" y="21" width="14" height="15"><path d="M49.326 35.72l-1.64-14.54h11.19l1.65 14.54h-11.2z" class="C"/></mask><g mask="url(#h)" class="B"><path d="M47.686 21.18l2.88 14.54 3.03-5.5 6.23-.62-12.14-8.42z"/></g></g><mask id="i" maskUnits="userSpaceOnUse" x="51" y="100" width="27" height="13"><path d="M53.226 112.49l-1.33-11.72h24.76l1.33 11.72h-24.76z" class="C"/></mask><g mask="url(#i)" class="B"><path opacity=".6" d="M60.156 100.9a1.2 1.2 0 0 0-.68.2l-6.35 4.21c-.89.58-.72 2.04.3 2.63l7.3 4.2c.24.14.49.2.73.2.74 0 1.36-.64 1.26-1.53l-.95-8.4c-.1-.89-.86-1.53-1.6-1.53"/><path opacity=".3" d="M68.686 100.77c-.65 0-1.19.56-1.1 1.34l1.02 9.04c.09.79.75 1.34 1.41 1.34.21 0 .41-.06.6-.18l6.84-4.53c.78-.51.64-1.8-.26-2.31l-7.86-4.52c-.21-.12-.43-.18-.64-.18"/></g><defs><filter id="j" x=".945" y=".57" width="436.571" height="377.71" filterUnits="userSpaceOnUse" color-interpolation-filters="sRGB"><feFlood flood-opacity="0" result="A"/><feColorMatrix in="SourceAlpha" values="0 0 0 0 0 0 0 0 0 0 0 0 0 0 0 0 0 0 127 0"/><feOffset dx="9" dy="9"/><feGaussianBlur stdDeviation="14.5"/><feColorMatrix values="0 0 0 0 0.258824 0 0 0 0 0.392157 0 0 0 0 0.658824 0 0 0 0.1 0"/><feBlend in2="A" result="C"/><feColorMatrix in="SourceAlpha" values="0 0 0 0 0 0 0 0 0 0 0 0 0 0 0 0 0 0 127 0"/><feOffset dx="37" dy="37"/><feGaussianBlur stdDeviation="26"/><feColorMatrix values="0 0 0 0 0.258824 0 0 0 0 0.392157 0 0 0 0 0.658824 0 0 0 0.09 0"/><feBlend in2="C" result="D"/><feColorMatrix in="SourceAlpha" values="0 0 0 0 0 0 0 0 0 0 0 0 0 0 0 0 0 0 127 0"/><feOffset dx="84" dy="83"/><feGaussianBlur stdDeviation="35.5"/><feColorMatrix values="0 0 0 0 0.258824 0 0 0 0 0.392157 0 0 0 0 0.658824 0 0 0 0.05 0"/><feBlend in2="D" result="E"/><feColorMatrix in="SourceAlpha" values="0 0 0 0 0 0 0 0 0 0 0 0 0 0 0 0 0 0 127 0"/><feOffset dx="149" dy="147"/><feGaussianBlur stdDeviation="42"/><feColorMatrix values="0 0 0 0 0.258824 0 0 0 0 0.392157 0 0 0 0 0.658824 0 0 0 0.01 0"/><feBlend in2="E"/><feBlend in="SourceGraphic"/></filter><linearGradient id="k" x1="202.694" y1="144.83" x2="88.28" y2="-21.971" xlink:href="#AA"><stop stop-color="#000714"/><stop offset="1" stop-color="#000714" stop-opacity=".25"/></linearGradient><linearGradient id="l" x1="187.054" y1="120.31" x2="113.626" y2="-8.329" xlink:href="#AA"><stop stop-color="#000714"/><stop offset="1" stop-color="#000714" stop-opacity=".25"/></linearGradient><linearGradient id="m" x1="187.96" y1="121.27" x2="112.487" y2="-9.609" xlink:href="#AA"><stop stop-color="#4264a8" stop-opacity=".25"/><stop offset="1" stop-color="#4264a8"/></linearGradient><linearGradient id="n" x1="86.269" y1="167.08" x2="48.756" y2="129.159" xlink:href="#AA"><stop stop-color="#4264a8" stop-opacity=".25"/><stop offset="1" stop-color="#4264a8"/></linearGradient><linearGradient id="o" x1="85.352" y1="166.12" x2="49.766" y2="130.03" xlink:href="#AA"><stop stop-color="#000714"/><stop offset="1" stop-color="#000714" stop-opacity=".25"/></linearGradient><linearGradient id="p" x1="197.372" y1="166.13" x2="176.144" y2="101.973" xlink:href="#AA"><stop stop-color="#000714"/><stop offset="1" stop-color="#000714" stop-opacity=".25"/></linearGradient><linearGradient id="q" x1="198.279" y1="167.09" x2="175.253" y2="99.958" xlink:href="#AA"><stop stop-color="#4264a8" stop-opacity=".25"/><stop offset="1" stop-color="#4264a8"/></linearGradient><path id="r" d="M111.535 14.84l.21 40.94-35.68 20.7-.2-40.94 35.68-20.7m.74-1.3l-37.17 21.57.21 42.67 37.18-21.57-.21-42.66-.01-.01z"/><path id="s" d="M75.866 36.41l35.34 20.54.2 40.93-35.339-20.54-.2-40.93zm-.76-1.31l.21 42.67 36.84 21.41-.21-42.67L75.106 35.1z"/><path id="t" d="M112.285 14.4l35.35 20.54-35.68 20.7-35.35-20.54 35.68-20.7zm0-.87L75.115 35.1l36.84 21.41 37.17-21.57-36.84-21.41z"/><path id="u" d="M111.535 14.94l.12 40.89-35.59 20.55-.12-40.89 35.59-20.55zm.75-1.3l-37.08 21.41.12 42.62 37.08-21.41-.12-42.62z"/><path id="v" d="M112.405 57.121l35.35 20.54-35.59 20.55-35.35-20.54 35.59-20.55zm0-.87l-37.08 21.41 36.84 21.41 37.08-21.41-36.84-21.41z"/><path id="w" d="M75.955 36.36l35.34 20.54.12 40.88-35.34-20.54-.12-40.88zm-.75-1.31l.12 42.62 36.84 21.41-.12-42.62-36.84-21.41z"/><path id="x" d="M135.865 140.83h-8.84c-1.58 0-2.72 1.37-2.52 3.06l1.07 9.42c.19 1.7 1.64 3.06 3.22 3.06h8.84c1.59 0 2.72-1.36 2.52-3.06l-1.07-9.42c-.19-1.69-1.63-3.06-3.22-3.06z"/><path id="y" d="M175.435 14.14a2.12 2.12 0 0 1-2.11-2.11 2.12 2.12 0 0 1 2.11-2.11 2.12 2.12 0 0 1 2.11 2.11 2.12 2.12 0 0 1-2.11 2.11z"/><path id="z" d="M175.435 24.79a1.61 1.61 0 1 1 0 3.22 1.61 1.61 0 1 1 0-3.22zm0-1c-1.44 0-2.61 1.17-2.61 2.61s1.17 2.61 2.61 2.61 2.61-1.17 2.61-2.61-1.17-2.61-2.61-2.61z"/><linearGradient id="AA" gradientUnits="userSpaceOnUse"/></defs></svg>