<svg xmlns:xlink="http://www.w3.org/1999/xlink" xmlns="http://www.w3.org/2000/svg" width="208" height="155" fill="none">
    <style><![CDATA[.B{fill:#4264a8}.C{fill:#fff}.D{fill:#000714}.E{opacity:.15}.F{opacity:.6}]]></style>
    <g filter="url(#V)">
        <mask id="A" maskUnits="userSpaceOnUse" x="98" y="30" width="3" height="1">
            <path d="M98.76 30.18l.79-.1c.07 0 .14-.02.21-.02l.21-.01h.21.21l-.79.1h-.21-.21l-.21.01-.21.02z"
                  class="C"/>
        </mask>
        <g mask="url(#A)" class="B">
            <path d="M100.39 30.04l-.79.1h-.21-.21l-.21.01-.21.02.79-.1c.07 0 .14-.02.21-.02l.21-.01h.21.21z"/>
        </g>
        <mask id="B" maskUnits="userSpaceOnUse" x="93" y="30" width="7" height="5">
            <path d="M94.1 33.9a7.72 7.72 0 0 1 .87-1.46 6.49 6.49 0 0 1 1.1-1.12c.4-.32.83-.57 1.28-.76s.93-.32 1.41-.38l.79-.1c-.49.06-.96.19-1.42.38s-.88.45-1.29.76-.77.69-1.1 1.12-.63.92-.87 1.46c0 .02-.02.04-.03.06l-.03.06-.03.06-.03.06-.78.09c0-.02.02-.04.03-.06l.03-.06.03-.06.03-.06.01.01z"
                  class="C"/>
        </mask>
        <g mask="url(#B)" class="D">
            <use xlink:href="#c"/>
            <path d="M98.46 30.34l-.79.1.27-.09c.09-.03.18-.05.27-.07l.27-.06c.09-.02.19-.03.28-.04l.79-.1-.28.04c-.09.01-.18.04-.28.06s-.18.05-.27.07-.18.06-.27.09"/>
        </g>
        <mask id="C" maskUnits="userSpaceOnUse" x="93" y="29" width="7" height="5">
            <path d="M98.629 29.18l.79-.1a5.81 5.81 0 0 0-1.63.45 7.29 7.29 0 0 0-1.49.88c-.47.36-.89.79-1.28 1.28s-.72 1.05-1 1.66l-.78.09c.28-.61.62-1.16 1-1.66a7 7 0 0 1 1.27-1.28c.46-.36.96-.65 1.48-.88s1.07-.37 1.63-.45l.01.01z"
                  class="C"/>
        </mask>
        <g mask="url(#C)" class="B">
            <path d="M94.029 33.34l-.78.09c.23-.5.49-.95.79-1.37s.62-.79.97-1.13.73-.62 1.13-.87.82-.44 1.25-.6l.79-.1a6.23 6.23 0 0 0-1.25.6 7.24 7.24 0 0 0-1.13.87c-.35.33-.68.71-.98 1.13s-.56.88-.79 1.37"/>
            <path d="M98.169 29.37l-.79.1a2.81 2.81 0 0 1 .31-.1l.31-.08.31-.07.32-.05.79-.1c-.11.01-.21.03-.32.05l-.31.07-.31.08-.31.1z"/>
        </g>
        <mask id="D" maskUnits="userSpaceOnUse" x="89" y="34" width="6" height="4">
            <path d="M93.979 34.14l.78-.09c-.23.46-.51.88-.84 1.26s-.68.71-1.08.99a5.76 5.76 0 0 1-1.27.68c-.45.17-.92.29-1.4.34l-.77.09c.48-.05.95-.17 1.4-.34s.87-.4 1.26-.68a5.88 5.88 0 0 0 1.07-.99 6.39 6.39 0 0 0 .83-1.26h.02z"
                  class="C"/>
        </mask>
        <g mask="url(#D)" class="D">
            <path d="M90.179 37.31l-.77.09c.11-.01.21-.03.32-.05l.32-.06c.11-.02.21-.05.31-.08l.3-.1.78-.09c-.1.04-.2.07-.3.1l-.31.08-.32.06c-.11.01-.21.03-.32.05"/>
            <use xlink:href="#c" x="-0.001" y="0.001"/>
        </g>
        <mask id="E" maskUnits="userSpaceOnUse" x="89" y="33" width="6" height="4">
            <path d="M90.07 36.3l-.77.09a4.83 4.83 0 0 0 1.23-.31c.4-.16.76-.37 1.1-.62s.65-.55.93-.89.51-.72.7-1.13l.78-.09c-.19.41-.43.79-.7 1.13a4.89 4.89 0 0 1-.93.89 5.18 5.18 0 0 1-1.1.62c-.39.16-.8.26-1.23.31h-.01z"
                  class="C"/>
        </mask>
        <g mask="url(#E)" class="B">
            <path d="M90.07 36.3l-.77.09.26-.04c.08-.02.17-.03.26-.05l.26-.07.25-.08.77-.09-.25.08-.26.07-.26.05-.26.04z"/>
            <path d="M91.1 36.06l-.77.09c.31-.11.62-.25.9-.43s.56-.38.8-.61.48-.49.68-.77a5.85 5.85 0 0 0 .53-.91l.78-.09a5.42 5.42 0 0 1-.53.91c-.2.28-.43.54-.68.77s-.52.43-.81.61-.59.32-.9.43z"/>
        </g>
        <mask id="F" maskUnits="userSpaceOnUse" x="88" y="37" width="3" height="1">
            <path d="M90.18 37.31l-.77.09c-.06 0-.12.01-.18.02s-.12 0-.18.01-.12 0-.19 0h-.19l.77-.09h.19.19c.07 0 .12 0 .18-.01s.12-.01.18-.02z"
                  class="C"/>
        </mask>
        <g mask="url(#F)" class="B">
            <path d="M90.18 37.31l-.77.09c-.06 0-.12.01-.18.02s-.12 0-.18.01-.12 0-.19 0h-.19l.77-.09h.19.19c.07 0 .12 0 .18-.01s.12-.01.18-.02z"/>
        </g>
        <path d="M63.49 124.279l-.72-.11 131.041-3.31.95.09-131.27 3.33z" class="B"/>
        <path d="M89.44 37.35l-.77.08-25.9-.54.72-.09 25.95.55z" class="B"/>
        <mask id="G" maskUnits="userSpaceOnUse" x="61" y="36" width="3" height="1">
            <path d="M61.79 36.93l.72-.09c.08 0 .16-.02.24-.03l.24-.02c.08-.01.16 0 .25 0h.25l-.72.09h-.25-.25c-.09 0-.16 0-.24.02s-.16.02-.24.03z"
                  class="C"/>
        </mask>
        <g mask="url(#G)" class="B">
            <path d="M63.49 36.799l-.72.09h-.25-.25c-.09 0-.16 0-.24.02s-.16.02-.24.03l.72-.09c.08 0 .16-.02.24-.03l.24-.02c.08-.01.16 0 .25 0h.25z"/>
        </g>
        <mask id="H" maskUnits="userSpaceOnUse" x="61" y="124" width="3" height="1">
            <path d="M62.329 124.21l-.72-.11.29.04.29.02.29.01c.1.01.2 0 .29 0l.72.11h-.29c-.09 0-.2 0-.29-.01l-.29-.02-.29-.04z"
                  class="C"/>
        </mask>
        <g mask="url(#H)" class="B">
            <path d="M62.329 124.21l-.72-.11.29.04.29.02.29.01c.1.01.2 0 .29 0l.72.11h-.29c-.09 0-.2 0-.29-.01l-.29-.02-.29-.04z"/>
        </g>
        <mask id="I" maskUnits="userSpaceOnUse" x="54" y="114" width="9" height="11">
            <path d="M62.33 124.21l-.72-.11c-1.02-.15-1.98-.53-2.85-1.09s-1.65-1.31-2.3-2.21-1.17-1.94-1.53-3.08-.56-2.39-.56-3.7l.71.08a12.42 12.42 0 0 0 .56 3.71c.36 1.15.88 2.19 1.54 3.09s1.43 1.65 2.3 2.22 1.83.94 2.85 1.09z"
                  class="C"/>
        </mask>
        <g mask="url(#I)" class="D">
            <path d="M62.33 124.21l-.72-.11c-1.02-.15-1.98-.53-2.85-1.09s-1.65-1.31-2.3-2.21-1.17-1.94-1.53-3.08-.56-2.39-.56-3.7l.71.08a12.42 12.42 0 0 0 .56 3.71c.36 1.15.88 2.19 1.54 3.09s1.43 1.65 2.3 2.22 1.83.94 2.85 1.09z"/>
        </g>
        <path d="M55.08 114.1l-.71-.09V47.08l.71-.07v67.09z" class="D"/>
        <mask id="J" maskUnits="userSpaceOnUse" x="54" y="36" width="9" height="12">
            <path d="M61.79 36.929l.72-.09c-1.04.13-2.03.49-2.92 1.05s-1.69 1.31-2.36 2.22-1.21 1.96-1.58 3.13-.57 2.43-.57 3.77l-.71.07c0-1.33.2-2.6.57-3.76s.91-2.21 1.57-3.12 1.46-1.66 2.36-2.21 1.87-.92 2.91-1.05l.01-.01z"
                  class="C"/>
        </mask>
        <g mask="url(#J)" class="D">
            <path d="M55.08 47.009l-.71.07c0-1.17.16-2.3.45-3.35s.72-2.02 1.25-2.87 1.18-1.61 1.9-2.22 1.53-1.08 2.4-1.38l.72-.09c-.87.3-1.68.77-2.41 1.38s-1.37 1.36-1.91 2.22-.96 1.83-1.26 2.88-.45 2.18-.45 3.36"/>
            <path d="M61.1 37.169l-.72.09.34-.11.35-.09.35-.07.36-.05.72-.09c-.12.01-.24.03-.36.05l-.36.07c-.12.02-.23.06-.35.09s-.23.07-.34.11"/>
        </g>
        <path d="M162.15 31.6c.51.01 1.02.1 1.5.27s.94.39 1.36.69.82.65 1.16 1.06a6.6 6.6 0 0 1 .89 1.39c.24.51.54.98.89 1.39a5.8 5.8 0 0 0 1.16 1.06c.43.29.88.52 1.36.68s.98.25 1.48.26l22.81.49a5.7 5.7 0 0 1 2.81.82c.86.51 1.64 1.22 2.29 2.1s1.18 1.92 1.54 3.08a12.57 12.57 0 0 1 .56 3.74v62.57a12.57 12.57 0 0 1-.56 3.74c-.36 1.15-.89 2.2-1.54 3.08s-1.43 1.61-2.29 2.11-1.81.8-2.81.83L63.5 124.28c-1.16.03-2.26-.23-3.27-.73s-1.91-1.24-2.67-2.16-1.38-2.03-1.81-3.26-.66-2.6-.66-4.03V47.01a12.52 12.52 0 0 1 .66-4.03c.42-1.23 1.04-2.34 1.81-3.27s1.67-1.66 2.67-2.17a6.77 6.77 0 0 1 3.27-.74l25.94.55c.58.01 1.15-.06 1.69-.22a5.67 5.67 0 0 0 1.52-.7c.47-.31.9-.68 1.28-1.12a6.2 6.2 0 0 0 .95-1.49 7.23 7.23 0 0 1 1.02-1.64c.39-.47.83-.87 1.31-1.19a5.71 5.71 0 0 1 1.52-.72c.53-.16 1.1-.23 1.67-.22l61.76 1.56-.01-.01z"
              fill="url(#W)"/>
        <mask id="K" maskUnits="userSpaceOnUse" x="53" y="114" width="10" height="12">
            <path d="M62.15 125.23l-.72-.11c-1.13-.17-2.2-.59-3.16-1.21s-1.83-1.45-2.55-2.43-1.3-2.13-1.71-3.39-.62-2.62-.62-4.06l.71.08c0 1.44.22 2.81.62 4.07s.98 2.41 1.71 3.39 1.59 1.82 2.56 2.44 2.04 1.04 3.17 1.21l-.01.01z"
                  class="C"/>
        </mask>
        <g mask="url(#K)" class="B">
            <path d="M62.15 125.23l-.72-.11c-1.13-.17-2.2-.59-3.16-1.21s-1.83-1.45-2.55-2.43-1.3-2.13-1.71-3.39-.62-2.62-.62-4.06l.71.08c0 1.44.22 2.81.62 4.07s.98 2.41 1.71 3.39 1.59 1.82 2.56 2.44 2.04 1.04 3.17 1.21"/>
        </g>
        <path d="M54.1 114.12l-.71-.09V47.06l.71-.07v67.13z" class="B"/>
        <mask id="L" maskUnits="userSpaceOnUse" x="53" y="35" width="10" height="13">
            <path d="M61.64 35.91l.72-.09c-1.16.15-2.25.55-3.24 1.17s-1.88 1.45-2.62 2.44-1.34 2.16-1.76 3.43-.64 2.67-.64 4.13l-.71.07c0-1.46.23-2.85.64-4.12s1.01-2.43 1.75-3.43a9.61 9.61 0 0 1 2.62-2.44c.99-.62 2.08-1.02 3.24-1.17v.01z"
                  class="C"/>
        </mask>
        <g mask="url(#L)" class="B">
            <path d="M54.1 46.99l-.71.07a13.67 13.67 0 0 1 .5-3.67c.32-1.15.8-2.21 1.4-3.16a10.24 10.24 0 0 1 2.12-2.44 8.58 8.58 0 0 1 2.67-1.52l.72-.09a8.47 8.47 0 0 0-2.67 1.52c-.8.67-1.53 1.5-2.12 2.44s-1.07 2.01-1.4 3.16-.5 2.39-.5 3.68"/>
            <path d="M60.8 36.18l-.72.09.38-.12.39-.1.39-.08.4-.06.72-.09-.4.06-.39.08-.39.1-.38.12z"/>
        </g>
        <path d="M194.759 37.92c1.11.02 2.17.34 3.14.9s1.83 1.35 2.56 2.32 1.31 2.12 1.72 3.39.63 2.66.63 4.11v62.54c0 1.45-.22 2.84-.63 4.11s-.99 2.42-1.72 3.39-1.59 1.77-2.56 2.33-2.02.88-3.14.91l-131.26 3.4a7.79 7.79 0 0 1-3.64-.8c-1.12-.55-2.14-1.36-2.99-2.37s-1.54-2.23-2.02-3.59-.74-2.85-.74-4.43V46.99c0-1.58.26-3.08.74-4.43s1.17-2.58 2.02-3.59 1.87-1.83 2.99-2.39 2.35-.85 3.64-.82l25.94.57a4.51 4.51 0 0 0 1.42-.19c.46-.14.89-.33 1.29-.59s.76-.58 1.08-.95.59-.79.8-1.25c.32-.7.71-1.32 1.17-1.87s.96-1 1.51-1.37 1.14-.65 1.76-.83 1.26-.27 1.92-.25l61.76 1.6c.59.02 1.18.12 1.73.31s1.09.45 1.58.8a7.07 7.07 0 0 1 1.34 1.23c.4.48.75 1.01 1.03 1.61.21.43.46.82.75 1.17s.62.64.97.89a4.2 4.2 0 0 0 1.14.57c.4.13.82.21 1.25.22l22.81.51.01-.02zm7.21 73.27V48.62a12.62 12.62 0 0 0-.56-3.74c-.36-1.16-.89-2.19-1.54-3.08s-1.43-1.6-2.29-2.1-1.81-.79-2.81-.82l-22.81-.49c-.51-.01-1.01-.1-1.48-.26a5.77 5.77 0 0 1-1.36-.68 5.8 5.8 0 0 1-1.16-1.06c-.35-.41-.64-.87-.89-1.39-.24-.51-.54-.98-.89-1.39s-.74-.77-1.16-1.06-.88-.53-1.36-.69a5.37 5.37 0 0 0-1.5-.27l-61.76-1.56a5.84 5.84 0 0 0-1.67.21c-.54.15-1.04.39-1.51.69s-.9.68-1.27 1.12a6.52 6.52 0 0 0-.95 1.49 7.23 7.23 0 0 1-1.02 1.64c-.39.47-.83.88-1.31 1.2s-1 .57-1.54.73-1.11.24-1.69.22l-25.94-.55c-1.16-.02-2.26.24-3.27.74s-1.91 1.24-2.67 2.17-1.38 2.03-1.81 3.27-.66 2.6-.66 4.03v67.09a12.52 12.52 0 0 0 .66 4.03c.42 1.23 1.04 2.34 1.81 3.26s1.67 1.66 2.67 2.16a6.88 6.88 0 0 0 3.27.73l131.26-3.32c1-.03 1.95-.32 2.81-.83s1.64-1.23 2.29-2.11 1.18-1.93 1.54-3.08a12.57 12.57 0 0 0 .56-3.74"
              class="B"/>
    </g>
    <mask id="M" maskUnits="userSpaceOnUse" x="104" y="52" width="53" height="59">
        <path d="M104.87 110.62V52.79l51.68.81v56.21l-51.68.81z" class="C"/>
    </mask>
    <g mask="url(#M)">
        <mask id="N" maskUnits="userSpaceOnUse" x="113" y="66" width="35" height="30">
            <path d="M113.89 66.639l34.06.28v28.79l-34.06.27v-29.34z" class="C"/>
        </mask>
        <g mask="url(#N)">
            <path d="M116.05 94.479h-1.9l-.01.08c0 .02 0 .05-.01.07s0 .05 0 .07v.07a1.16 1.16 0 0 0 .08.42 1.08 1.08 0 0 0 .21.34c.09.1.19.17.31.23a.84.84 0 0 0 .38.08.89.89 0 0 0 .39-.09c.12-.06.22-.13.31-.23a1.08 1.08 0 0 0 .21-.34 1.16 1.16 0 0 0 .08-.42v-.07-.07c0-.02 0-.05-.01-.07s0-.05-.01-.07m6.42-.04h-1.89l-.01.08c0 .02 0 .05-.01.07s0 .05 0 .07v.07h-.12-.12v-.07-.07-.07c0-.02 0-.05.01-.07l-4.06.03s0 .05.01.07 0 .05 0 .07v.07.07c0 .11-.01.22-.04.32l-.1.29a1.4 1.4 0 0 1-.16.26c-.06.08-.13.15-.21.21l5.01-.04c-.08-.06-.14-.13-.21-.21s-.11-.16-.16-.25-.08-.19-.1-.29-.04-.21-.04-.32h.12.12a1.07 1.07 0 0 0 .08.41c.05.12.12.24.21.34s.19.17.31.23a.81.81 0 0 0 .38.08c.08 0 .17-.01.24-.04s.15-.05.22-.1.13-.09.19-.15.11-.12.15-.19v-.02-.02l.11-.23c0-.03.02-.05.02-.08s.01-.05.02-.08 0-.06 0-.08v-.09-.07-.07c0-.02 0-.05-.01-.07s0-.05-.01-.07m.25 0h-.01v-.02m-7.62-.75c-.09 0-.18.01-.26.04s-.16.06-.24.11-.14.11-.2.17-.11.14-.15.22h1.71c-.04-.09-.09-.17-.15-.23a1.63 1.63 0 0 0-.2-.17.88.88 0 0 0-.24-.11c-.09-.03-.17-.04-.27-.04m6.43-.04c-.09 0-.18.01-.26.04s-.16.06-.23.11a1.63 1.63 0 0 0-.2.17c-.06.06-.11.14-.15.22h1.7c-.04-.09-.09-.17-.15-.23a1.63 1.63 0 0 0-.2-.17.88.88 0 0 0-.24-.11c-.09-.03-.17-.04-.26-.04m9.57-1.66a.85.85 0 0 0-.38.09c-.12.06-.22.13-.31.23a1.08 1.08 0 0 0-.21.34 1.16 1.16 0 0 0-.08.42 1.07 1.07 0 0 0 .08.41c.05.12.12.24.21.34s.19.17.31.23a.81.81 0 0 0 .38.08c.08 0 .17-.01.25-.04s.15-.06.22-.1.13-.1.19-.16a.95.95 0 0 0 .15-.2v-.02l.01-.02v-.02l.07-.16v-.02-.01c0-.03.01-.05.02-.08s.01-.05.01-.08v-.08-.09a1.16 1.16 0 0 0-.08-.42 1.08 1.08 0 0 0-.21-.34c-.09-.1-.19-.17-.31-.23s-.24-.08-.37-.08m-5.37-4.51l-8.58.03-2.65 6.1.14-.07.15-.06a.4.4 0 0 1 .15-.03c.05 0 .11-.01.16-.01.12 0 .24.02.36.06a1.2 1.2 0 0 1 .32.16 1.23 1.23 0 0 1 .26.25c.08.1.14.2.18.32l4.21-.03c.05-.12.11-.23.18-.32a1.24 1.24 0 0 1 .26-.25c.1-.07.2-.13.31-.17a1.03 1.03 0 0 1 .35-.06c.12 0 .24.02.36.06a1.01 1.01 0 0 1 .31.16c.09.07.18.15.26.25s.14.2.18.32h.2l2.89-6.7m8.83-.03l-6.97.02.16.39 2.16 4.99c.02-.16.07-.3.14-.44a1.33 1.33 0 0 1 .26-.35c.1-.1.23-.18.36-.23s.27-.09.42-.09a1.11 1.11 0 0 1 .41.08c.13.05.25.13.35.22s.19.21.26.34a1.5 1.5 0 0 1 .15.42l2.3-5.34m-7.9-1.54l-.57 1.32h.1.48.48.09l-.57-1.32m-4.4-10.14l-5 11.49 8.57-.03.7-1.62-4.27-9.85m8.82-.09l-4.3 9.93.7 1.61 7.19-.02.69-1.61-4.28-9.92m-.81-1.9l-7.14-.03-.74 1.71 4.27 9.86 4.3-9.93-.69-1.61zm1.38 0h-.08-.48-.51-.07l.56 1.31.57-1.31m7.4.03l-7.15-.03-.7 1.6 4.28 9.92 3.77-8.75-.13.07a.58.58 0 0 1-.14.05c-.05.01-.1.03-.15.03s-.1.01-.16.01c-.16 0-.32-.04-.46-.1s-.27-.16-.38-.28-.19-.26-.25-.42a1.44 1.44 0 0 1-.09-.51h.11.11a1.11 1.11 0 0 0 .08.41 1.08 1.08 0 0 0 .21.34c.09.1.19.18.3.23s.24.09.37.09a.85.85 0 0 0 .38-.09c.12-.06.22-.13.31-.23a1.08 1.08 0 0 0 .21-.34 1.15 1.15 0 0 0 .08-.41 1.15 1.15 0 0 0-.08-.41 1.08 1.08 0 0 0-.21-.34c-.09-.1-.19-.17-.31-.23a.81.81 0 0 0-.38-.08c-.14 0-.26.03-.37.08s-.22.13-.3.23-.16.21-.21.34a1.15 1.15 0 0 0-.08.41h-.11-.11a1.44 1.44 0 0 1 .09-.51c.06-.16.15-.3.25-.41a1.21 1.21 0 0 1 .38-.28 1.06 1.06 0 0 1 .46-.1.86.86 0 0 1 .16.01l.15.03a.58.58 0 0 1 .14.05c.04.02.09.04.13.07l-.2-.46m-11.17-5.55c-.02.16-.07.3-.14.44a1.33 1.33 0 0 1-.26.35c-.1.1-.23.18-.36.23a1.16 1.16 0 0 1-.42.08 1.07 1.07 0 0 1-.43-.09 1.26 1.26 0 0 1-.36-.24c-.11-.1-.19-.22-.26-.36s-.12-.28-.14-.44l-2.28 5.25 6.92.03-.17-.38-2.11-4.88m6.43-.06l-2.14 4.95-.16.38 6.93.03-2.27-5.29c-.02.16-.06.32-.13.46s-.15.26-.26.37a1.23 1.23 0 0 1-.36.25c-.13.06-.28.09-.43.09a1.09 1.09 0 0 1-.44-.1 1.31 1.31 0 0 1-.37-.26 1.33 1.33 0 0 1-.26-.39 1.54 1.54 0 0 1-.12-.48m-7.61-1.23c-.14 0-.26.03-.38.08s-.22.13-.31.23a1.08 1.08 0 0 0-.21.34 1.16 1.16 0 0 0-.08.42 1.07 1.07 0 0 0 .08.41c.05.12.12.24.21.34s.19.18.31.23.25.09.38.09.26-.03.38-.08.22-.13.31-.23a1.08 1.08 0 0 0 .21-.34 1.15 1.15 0 0 0 .08-.41c0-.14-.03-.29-.08-.42a1.08 1.08 0 0 0-.21-.34c-.09-.1-.19-.18-.31-.23s-.24-.09-.38-.09zm8.79.07c-.13 0-.26.03-.38.08s-.22.13-.31.23a1.08 1.08 0 0 0-.21.34 1.16 1.16 0 0 0-.08.42 1.07 1.07 0 0 0 .08.41c.05.12.12.24.21.34s.19.18.31.23.24.09.38.09.26-.03.37-.08.22-.13.3-.23.16-.21.21-.34a1.15 1.15 0 0 0 .08-.41c0-.14-.03-.29-.08-.42a1.08 1.08 0 0 0-.21-.34c-.09-.1-.19-.18-.3-.23s-.24-.09-.37-.09z"
                  fill="#ceddfa" class="F"/>
            <path d="M142.53 94.299h-1.85l-.01.08c0 .02 0 .05-.01.07s0 .05 0 .07v.07a1.11 1.11 0 0 0 .08.41c.05.13.12.24.21.33s.19.17.3.22a.91.91 0 0 0 .37.08.78.78 0 0 0 .37-.09c.11-.06.22-.13.3-.23s.16-.21.2-.34a1.41 1.41 0 0 0 .07-.41v-.07-.07c0-.02 0-.05-.01-.07s0-.04-.01-.07m5.16-.04h-1.83s0 .06-.01.08 0 .05-.01.07 0 .05 0 .07v.07h-.11-.11v-.07-.07-.07c0-.02 0-.05.01-.07l-2.87.02s0 .04.01.07 0 .05 0 .07v.07.07c0 .11-.01.21-.03.31a1.42 1.42 0 0 1-.1.29c-.04.09-.09.17-.15.25s-.13.15-.2.21l3.78-.03a1.89 1.89 0 0 1-.2-.2c-.06-.07-.11-.16-.15-.25a2.47 2.47 0 0 1-.1-.29c-.03-.1-.03-.2-.03-.31h.11.11c0 .15.03.28.07.41s.12.24.2.33a.93.93 0 0 0 .3.22.91.91 0 0 0 .37.08.81.81 0 0 0 .37-.09.96.96 0 0 0 .3-.23c.09-.1.15-.21.2-.34s.07-.26.07-.41v-.07-.07c0-.02 0-.05-.01-.07s0-.04-.01-.07m-6.07-.74c-.09 0-.18.01-.26.04s-.16.06-.23.11a1.63 1.63 0 0 0-.2.17c-.06.06-.11.14-.15.22h1.66c-.04-.09-.09-.16-.15-.23a1.01 1.01 0 0 0-.19-.17c-.07-.05-.15-.08-.23-.11s-.17-.04-.26-.04m5.16-.03a.69.69 0 0 0-.25.04c-.08.03-.16.06-.23.11s-.14.1-.19.17-.11.14-.15.22h1.64c-.04-.09-.09-.16-.15-.23a1.01 1.01 0 0 0-.19-.17c-.07-.05-.15-.08-.23-.11s-.17-.04-.25-.04m-3.73-4.87l-1.69 3.95-.4.93.15-.1c.05-.03.1-.05.16-.07s.11-.03.17-.04.12-.02.18-.02c.12 0 .24.02.34.06s.21.09.3.16.18.15.25.25.13.2.18.32l3.01-.02c.05-.12.1-.22.18-.32s.15-.18.25-.25a.97.97 0 0 1 .3-.16c.11-.03.22-.06.35-.06.07 0 .13 0 .19.02s.12.03.18.05.12.05.17.08.11.07.16.11l-2.1-4.88c-.01.17-.06.32-.12.46a1.08 1.08 0 0 1-.26.37c-.11.1-.23.19-.36.25s-.28.09-.43.09-.3-.03-.43-.09-.26-.14-.36-.25a1.64 1.64 0 0 1-.26-.37 1.21 1.21 0 0 1-.12-.47m1.17-1.19a.78.78 0 0 0-.37.09c-.11.06-.22.13-.3.23s-.16.21-.2.34a1.41 1.41 0 0 0-.07.41c0 .15.03.28.07.41s.12.24.2.33a1.14 1.14 0 0 0 .3.23c.11.06.24.08.37.08a.91.91 0 0 0 .37-.08c.11-.05.22-.13.3-.23s.16-.21.2-.34.07-.26.07-.41-.03-.29-.07-.41-.12-.24-.2-.33a1.14 1.14 0 0 0-.3-.23c-.11-.06-.24-.08-.37-.09z"
                  class="B F"/>
        </g>
        <path d="M122.27 96.039h-.07-.19l-4.04 9.35.06.16.15-.06 4.09-9.46m.26-.59l-.06.09c-.02.03-.05.06-.07.09s-.05.06-.08.08-.06.05-.08.07h.15l.15-.34m-.18-.15v.02-.02zm.11-.23l-.1.23v.02s.01-.04.02-.06l.03-.06c.01-.02.02-.04.02-.06s.01-.04.02-.06m.52-.62h-.07-.18l-.01.02v.06.06.06.07.11c0 .04 0 .07-.01.11s-.01.07-.02.1l-.03.1.3-.7m2.99-6.95h-.06-.18l-2.89 6.7h.07.18l2.38-5.52v-.03-.03-.03-.03c0-.11.01-.22.04-.32l.1-.29a1.07 1.07 0 0 1 .16-.25 1.39 1.39 0 0 1 .21-.21m.57-1.86l-.7 1.62h.08.18l.57-1.32-.1-.24-.02-.05m4.42-10.23l-4.3 9.93.1.24.02.05 4.3-9.93-.1-.24-.02-.05zm.95-1.6h-.07-.18l-.57 1.31.1.24.02.05.7-1.6zm2.9-6.74h-.06-.17l-.17.38-2.12 4.9v.03.03.03.03c0 .11-.01.22-.04.32l-.1.29a1.07 1.07 0 0 1-.16.25c-.06.07-.13.15-.2.21h.04.18l.16-.38 2.14-4.95v-.02-.02-.02-.02c0-.11.01-.22.04-.32l.1-.29a1.07 1.07 0 0 1 .16-.25 1.26 1.26 0 0 1 .2-.2zm.55-1.85l-.69 1.6h.07.18l.56-1.31-.1-.24-.02-.05zm3.53-7.86l-.15.05-3.25 7.52.1.24.02.05 3.34-7.7-.06-.16z"
              class="B"/>
        <path d="M131.01 95.969h-.12l-4 9.31.06.16.15-.06 3.98-9.26-.07-.15zm.83-1.6h-.07-.18l-.51 1.17.07.17h.1l.58-1.35m.28-.65s-.04.08-.07.11-.05.07-.08.1-.06.07-.09.1l-.09.09h.16l.17-.4zm-.11-.34v.01.02l-.07.16v.02.02l-.01.02.03-.06.03-.06c.01-.02.02-.04.02-.06s.01-.04.02-.06m2.8-5.93h-.07-.18l-2.3 5.34v.06.06.06.07.11c0 .04 0 .07-.01.1s-.01.07-.02.1l-.03.1 2.59-6.01m.55-1.85l-.69 1.61h.07.18l.56-1.32-.1-.24-.02-.05zm4.48-9.95l-.07.28c-.03.09-.08.17-.13.25a1.2 1.2 0 0 1-.17.21c-.06.06-.14.12-.21.17l-3.77 8.75.1.24.02.05 4.15-9.64.11-.25-.03-.07m.84-1.81h-.07-.17l-.56 1.3.1.24.02.05.69-1.59m2.89-6.71h-.07-.17l-2.78 6.46h.07.18l2.78-6.46m4.04-9.66l-.15.05-4.03 9.37h.07.18l3.98-9.26-.05-.16zm-34.2 38.661h-.08-.18l-4.09 9.4.06.16.15-.06 4.14-9.509m.49-1.61h-.05l-.07.16-.52 1.19h.07.19l.37-.86v-.05-.05-.06-.06-.07-.07-.07c0-.02 0-.05.01-.07m3.24-6.99h-.07-.08-.1l-2.92 6.73h.01l.09-.19c.03-.06.08-.12.12-.17s.09-.1.14-.15a.61.61 0 0 1 .16-.12l2.65-6.1zm4.98-12.04L117 87.25h.08.18l5-11.49-.11-.25-.02-.06zm1-1.71h-.08-.09-.09l-.62 1.42.06.13.05.11.02.05.74-1.71m2.87-6.77h-.18l-2.83 6.52h.07.19l2.28-5.25v-.05-.05-.05-.05c0-.11.01-.22.04-.32l.1-.29a1.07 1.07 0 0 1 .16-.25 1.39 1.39 0 0 1 .21-.21m.57-1.75l-.64 1.5h.07.18l.52-1.2-.11-.25-.02-.05zm3.61-8.01l-.16.05-3.33 7.66.11.25.02.05 3.4-7.85-.05-.16m5.22 48.848l.02.05.05-.02-.06-.03m4.38-10.159h-.12l-.93 2.18v.03.03l-.45 1.04-2.67 6.239-.12.28.1.24-.03.11.03-.02.22-.51 2.67-6.23.44-1.05.02-.03v-.03l.91-2.13-.06-.15m.67-1.59h-.11l-.5 1.16.07.17h.1l.41-.96v-.03-.03-.03-.03-.07-.07-.07c0-.02 0-.05.01-.07m3.07-6.89h-.05-.18l-2.15 5.03-.48 1.13-.13.31-.07.16h.07c.02-.06.05-.11.08-.17s.06-.1.1-.15.07-.09.12-.13.08-.08.13-.12l.4-.93 1.69-3.95v-.03-.03-.03-.03c0-.11.01-.22.03-.32a1.42 1.42 0 0 1 .1-.29 1.07 1.07 0 0 1 .16-.25 1.26 1.26 0 0 1 .2-.2m.56-1.83l-.68 1.59h.07.17l.56-1.3-.1-.23-.03-.06m2.73-6.07l-.15.05-.25.59-1.9 4.43-.31.71.1.24.02.04.38-.89 1.9-4.43.25-.59-.05-.16"
              class="B"/>
        <path d="M140.05 95.899h-.18-.06l.06.15 3.93 9.11.15.05.05-.16-3.94-9.15m-.68-1.58h-.18-.07l.57 1.33h.17.07l-.07-.17-.49-1.16zm-2.97-6.87h-.18-.07l2.86 6.62h.17.07l-2.86-6.62m-5.89-13.66h-.18-.07l.69 1.61.02.05.1.24 4.28 9.92.02.05.1.24.57 1.31h.17.07l-.69-1.6-.02-.05-.1-.24-4.28-9.92-.02-.05-.1-.24-.56-1.31m-2.93-6.79h-.18-.01c.08.06.14.13.21.21s.11.16.16.25.08.19.1.29.04.21.04.32v.05.05.05.05l2.11 4.88.17.38h.18.06c-.08-.06-.14-.13-.2-.21a2.13 2.13 0 0 1-.16-.25c-.05-.09-.08-.19-.1-.29s-.04-.21-.04-.32v-.03-.03-.03-.03l-2.15-4.97-.16-.39m-4.38-9.86l-.05.16 3.42 7.94.02.05.11.25.52 1.21h.18.08l-.65-1.51-.02-.05-.11-.25-3.34-7.75-.16-.06m25.501 38.711h-.18-.07l3.95 9.221.1.07.11-.13-.04-.04h.03l-3.91-9.13m-.67-1.57h-.13s0 .05.01.07 0 .05 0 .07v.07.07.03l.43 1.01h.17.07l-.57-1.32m-2.93-6.84h-.18-.05a1.89 1.89 0 0 1 .2.2c.06.07.11.16.15.25a1.42 1.42 0 0 1 .1.29c.02.1.03.21.03.32v.03.03.03.03l2.1 4.88s.08.07.11.11.07.08.1.12.06.09.09.14a1.01 1.01 0 0 1 .07.15h.03.08l-2.67-6.22v-.02l-.15-.35m-5.83-13.59h-.17-.07l.2.46c.09.06.17.13.25.2s.14.17.19.27.09.2.12.32.04.23.04.35v.06.06.05.05l.03.07 4.23 9.88.03.06.1.23.56 1.3h.17.07l-.68-1.59-.02-.04-.1-.24-4.23-9.88-.02-.05-.1-.24-.1-.24v-.02l-.46-1.05m-2.9-6.76h-.18-.04c.07.06.14.13.2.21a2.13 2.13 0 0 1 .16.25c.05.09.08.19.1.29s.04.21.04.32v.04.04.04.04l2.27 5.29h.18.07l-2.62-6.12-.16-.39m-4.33-9.81l-.05.16 3.34 7.79.02.05.1.24.56 1.32h.18.07l-.69-1.61-.02-.05-.1-.24-3.26-7.61-.15-.06m-.851 38.719h-.18-.07l.07.15 3.97 9.15.33.77.04.02.06.03.05.02v-.05l.05-.11-.1-.24-.23-.54-3.99-9.201zm-.69-1.59h-.18-.08l.58 1.34h.17.07l-.07-.17-.51-1.16m-2.99-6.9h-.18-.05c.08.06.15.13.21.2s.11.16.16.25.08.19.1.29.04.21.04.32v.03.03.03.03l2.15 4.94v.02l.22.49h.17c-.08-.06-.14-.13-.2-.21a2.13 2.13 0 0 1-.16-.25c-.05-.09-.08-.19-.1-.29s-.04-.21-.04-.32v-.06-.06-.05-.05l-2.16-4.99-.16-.39m-5.95-13.72h-.18-.08l.73 1.67.02.05.02.06.11.25 4.27 9.85.02.05.1.24.57 1.32h.18.08l-.7-1.61-.02-.05-.1-.24-4.27-9.86-.02-.05-.05-.11-.06-.13-.62-1.42m-2.96-6.83h-.18-.08l2.85 6.57h.19.07l-2.85-6.57zm-4.42-9.91l-.05.16 4.11 9.5h.18.07l-4.16-9.61-.16-.06"
              class="B"/>
        <path d="M152.53 95.549l-3.91.03h-.07-.17-.91l-.15.11c-.05.03-.11.06-.17.08a1.21 1.21 0 0 1-.18.05c-.06.01-.12.02-.19.02s-.13 0-.19-.02-.12-.03-.18-.05-.11-.05-.17-.08-.1-.07-.15-.1l-3.78.03-.15.11c-.05.03-.11.06-.17.08a1.21 1.21 0 0 1-.18.05c-.06.01-.12.02-.19.02s-.13 0-.19-.02-.12-.03-.18-.05-.11-.05-.17-.08-.11-.07-.15-.1h-.89-.1-.07-.17l-8.43.07h-.1-.07-.17l-8.52.07h-.15s-.1.08-.16.11-.11.06-.17.08-.12.04-.18.05-.13.02-.19.02-.13 0-.19-.02-.12-.03-.18-.05-.12-.05-.17-.08-.11-.07-.16-.11l-5.01.04c-.05.04-.1.08-.16.11s-.11.06-.17.08-.12.04-.19.05-.13.02-.2.02-.13 0-.19-.02-.12-.03-.18-.05-.12-.05-.17-.08-.11-.07-.16-.11h-.86-.19-.07l-4.18.03-.12.13.12.13 4.06-.03h.18.08 1.59l.09-.01 6.41-.05h.02.5.19.07l8.62-.07h.12.07.18l8.42-.07h.12.06.18 1.5l.06-.01 5.16-.04h.1l1.6-.01h.07.18l3.8-.03.11-.13-.11-.12m-22.44-2.46h-.11-.11a1.17 1.17 0 0 0 .04.32c.03.11.06.2.1.29s.1.17.16.25.13.15.2.2h.69c-.13 0-.26-.03-.38-.08s-.22-.13-.31-.23a1.08 1.08 0 0 1-.21-.34 1.15 1.15 0 0 1-.08-.41m.97-1.33a.99.99 0 0 0-.42.09c-.13.06-.25.14-.36.23s-.19.22-.26.35-.12.28-.14.44v.05.05.06.06h.11.11a1.16 1.16 0 0 1 .08-.42 1.08 1.08 0 0 1 .21-.34c.09-.1.19-.18.31-.23s.24-.09.38-.09.26.03.37.08.22.13.31.23a1.08 1.08 0 0 1 .21.34 1.16 1.16 0 0 1 .08.42v.09.08c0 .02 0 .05-.01.08s-.01.05-.02.08c0 .02-.01.04-.02.06s-.02.04-.02.06-.02.04-.03.06l-.03.06a.95.95 0 0 1-.15.2 1.46 1.46 0 0 1-.19.16c-.07.05-.14.08-.22.1s-.16.04-.25.04h.67.03l.09-.09a.9.9 0 0 0 .09-.1c.03-.04.05-.07.08-.1s.05-.07.07-.11l.03-.06.03-.06.03-.06c.01-.02.02-.04.02-.07s.02-.07.03-.1.01-.07.02-.1 0-.07.01-.1 0-.07 0-.11v-.07-.06-.06-.06a1.5 1.5 0 0 0-.15-.42 1.46 1.46 0 0 0-.26-.34c-.1-.1-.22-.17-.35-.22a1.15 1.15 0 0 0-.41-.08"
              class="B"/>
        <path d="M114.15 94.5h-.08-.02-.07-.06c0 .02 0 .05-.01.07s0 .05 0 .07v.07.07h.11.12v-.07-.07c0-.02 0-.05.01-.07s0-.05.01-.07m2.14-.01h-.15-.08c0 .02.01.05.01.07a.17.17 0 0 0 .01.07c.01.02 0 .05 0 .07v.07a1.16 1.16 0 0 1-.08.42 1.08 1.08 0 0 1-.21.34c-.09.1-.2.18-.31.23s-.25.09-.39.09-.26-.03-.38-.08-.22-.13-.31-.23a1.08 1.08 0 0 1-.21-.34 1.16 1.16 0 0 1-.08-.42H114h-.11v.06.06.05.05c.01.09.03.17.06.25s.06.16.11.23l.14.2c.05.06.11.12.17.17.05.04.1.07.16.11s.11.06.17.08a1.21 1.21 0 0 0 .18.05c.06.01.13.02.19.02s.13 0 .2-.02l.19-.05c.06-.02.12-.05.17-.08s.11-.07.16-.11c.08-.06.15-.13.21-.21s.12-.16.16-.26.08-.19.1-.29.04-.21.04-.32v-.07-.07-.07c0-.02 0-.05-.01-.07m-1.19-1.05c-.05 0-.11 0-.16.01l-.15.03a.47.47 0 0 0-.15.06c-.05.03-.09.05-.14.07a2.22 2.22 0 0 0-.16.12c-.05.04-.1.09-.14.15l-.12.17c-.04.06-.07.12-.09.19h.06.02.18c.04-.08.09-.16.15-.22s.13-.13.2-.17.15-.09.24-.11.17-.04.26-.04.18.01.27.04.16.06.24.11a.82.82 0 0 1 .2.17 1.07 1.07 0 0 1 .15.22h.18.08c-.05-.12-.11-.23-.18-.32a1.24 1.24 0 0 0-.26-.25 1.2 1.2 0 0 0-.32-.16 1.09 1.09 0 0 0-.36-.06m5.48.999h-.08-.15c0 .02 0 .05-.01.07s0 .05 0 .07v.07.07h.12.12v-.07-.07c0-.02 0-.05.01-.07s0-.05.01-.07m2.12-.01h-.15-.08c0 .02.01.04.01.07s0 .05.01.07 0 .05 0 .07v.07.09.08c0 .02 0 .06-.02.08s-.01.05-.02.08c0 .02-.01.04-.02.06s-.02.04-.02.06-.02.04-.03.06l-.03.06c-.04.07-.1.13-.15.19a.7.7 0 0 1-.19.15c-.07.04-.14.07-.22.1s-.16.03-.24.04c-.13 0-.26-.03-.38-.08s-.22-.13-.31-.23a1.08 1.08 0 0 1-.21-.34 1.15 1.15 0 0 1-.08-.41h-.12-.12c0 .11.01.22.04.32l.1.29a1.07 1.07 0 0 0 .16.25 1.39 1.39 0 0 0 .21.21c.05.04.1.07.16.11s.11.06.17.08a1.21 1.21 0 0 0 .18.05c.06.01.13.02.19.02s.13 0 .19-.02.13-.03.18-.05a1.3 1.3 0 0 0 .17-.08c.05-.03.11-.07.16-.11.03-.02.06-.05.08-.07l.08-.08a.55.55 0 0 0 .07-.09l.06-.09c.01-.02.03-.05.04-.07s.03-.05.04-.08l.03-.08.03-.08.03-.1c.01-.03.01-.07.02-.1s0-.07.01-.11 0-.07 0-.11v-.07-.06-.06-.06m-1.18-1.04a1.03 1.03 0 0 0-.35.06c-.11.04-.22.1-.31.17s-.18.16-.26.25-.14.21-.18.32h.08.18c.04-.08.09-.16.15-.22a1.63 1.63 0 0 1 .2-.17c.07-.05.15-.09.23-.11s.17-.04.26-.04.18.01.26.04.16.06.24.11a.82.82 0 0 1 .2.17 1.07 1.07 0 0 1 .15.22h.18.08c-.05-.12-.11-.22-.18-.32a1.03 1.03 0 0 0-.26-.25c-.1-.07-.2-.12-.31-.16s-.23-.06-.36-.06m5.78-5.96h-.22-.48-.48-.22c-.08.06-.15.13-.21.21a2.13 2.13 0 0 0-.16.25c-.05.09-.08.19-.1.29s-.04.21-.04.32h.05.07.11a1.16 1.16 0 0 1 .08-.42 1.08 1.08 0 0 1 .21-.34c.09-.1.19-.18.31-.23s.24-.09.38-.09a.85.85 0 0 1 .38.09c.12.06.22.13.31.23a1.08 1.08 0 0 1 .21.34 1.16 1.16 0 0 1 .08.42 1.07 1.07 0 0 1-.08.41c-.05.12-.12.24-.21.34s-.19.18-.31.23-.24.08-.38.09-.26-.03-.38-.08-.22-.13-.31-.23a1.08 1.08 0 0 1-.21-.34 1.15 1.15 0 0 1-.08-.41h-.11-.07-.05v.03.03.03.03c.01.17.05.33.12.48s.15.28.26.38.23.2.37.26a1.13 1.13 0 0 0 .45.09 1.05 1.05 0 0 0 .44-.09c.13-.06.26-.15.37-.25s.19-.24.26-.38a1.21 1.21 0 0 0 .12-.47v-.03-.03-.03-.03c0-.11-.01-.22-.04-.32l-.1-.29a1.07 1.07 0 0 0-.16-.25c-.06-.07-.13-.15-.21-.2m2.8-15.05h-.11-.07-.05c0 .11.01.22.04.32l.1.29a1.07 1.07 0 0 0 .16.25c.06.07.13.15.2.21h.2.51a.85.85 0 0 1-.38-.09c-.12-.06-.22-.13-.31-.23a1.08 1.08 0 0 1-.21-.34 1.16 1.16 0 0 1-.08-.42m.97-1.31a1.13 1.13 0 0 0-.45.09c-.14.06-.26.15-.37.26s-.2.24-.26.38-.11.3-.12.47v.03.03.03.03h.05.07.11a1.07 1.07 0 0 1 .08-.41c.05-.12.12-.24.21-.34s.19-.17.31-.23a.81.81 0 0 1 .38-.08.75.75 0 0 1 .37.09c.11.06.22.13.31.23a1.08 1.08 0 0 1 .21.34 1.15 1.15 0 0 1 .08.41 1.16 1.16 0 0 1-.08.42 1.08 1.08 0 0 1-.21.34c-.09.1-.19.17-.31.23s-.24.08-.37.08h.48.21c.07-.06.14-.13.2-.21a2.13 2.13 0 0 0 .16-.25c.05-.09.08-.19.1-.29s.04-.21.04-.32v-.03-.03-.03-.03c-.02-.16-.06-.32-.13-.46s-.15-.27-.26-.38a1.23 1.23 0 0 0-.36-.25c-.13-.06-.28-.09-.43-.09m7.55 2.94c-.16 0-.32.04-.46.1s-.27.16-.38.28a1.33 1.33 0 0 0-.25.41 1.4 1.4 0 0 0-.09.51h.11.11a1.11 1.11 0 0 1 .08-.41 1.08 1.08 0 0 1 .21-.34c.09-.1.19-.17.3-.23s.24-.08.37-.08.26.03.38.08.22.13.31.23a1.08 1.08 0 0 1 .21.34 1.15 1.15 0 0 1 .08.41 1.15 1.15 0 0 1-.08.41 1.08 1.08 0 0 1-.21.34c-.09.1-.19.17-.31.23a.82.82 0 0 1-.38.09.78.78 0 0 1-.37-.09c-.11-.06-.22-.13-.3-.23s-.16-.21-.21-.34a1.15 1.15 0 0 1-.08-.41h-.11-.11a1.44 1.44 0 0 0 .09.51 1.46 1.46 0 0 0 .25.42c.1.12.23.21.38.28a1.06 1.06 0 0 0 .46.1c.05 0 .11 0 .16-.01l.15-.03a.58.58 0 0 0 .14-.05c.04-.02.09-.04.13-.07a.87.87 0 0 0 .21-.17l.17-.21c.05-.07.09-.16.13-.25s.06-.18.07-.28v-.05-.05-.06-.06c0-.12-.02-.24-.04-.35s-.07-.22-.12-.32a1.31 1.31 0 0 0-.19-.27.96.96 0 0 0-.25-.2c-.04-.03-.09-.05-.13-.07a.58.58 0 0 0-.14-.05c-.05-.01-.1-.03-.15-.03s-.1-.01-.16-.01m-2.46-7.07h-.22-.47-.49-.2a1.89 1.89 0 0 0-.2.2c-.06.07-.11.16-.16.25s-.08.19-.1.29-.04.21-.04.32h.04.06.11a1.16 1.16 0 0 1 .08-.42 1.08 1.08 0 0 1 .21-.34c.09-.1.19-.17.31-.23a.81.81 0 0 1 .38-.08.75.75 0 0 1 .37.09c.11.06.22.13.3.23s.16.21.21.34a1.16 1.16 0 0 1 .08.42 1.11 1.11 0 0 1-.08.41 1.08 1.08 0 0 1-.21.34c-.09.1-.19.17-.3.23s-.24.08-.37.08a.85.85 0 0 1-.38-.09c-.12-.06-.22-.13-.31-.23a1.08 1.08 0 0 1-.21-.34 1.15 1.15 0 0 1-.08-.41h-.11-.06-.04v.02.02.02.02c.01.17.05.33.12.48a1.33 1.33 0 0 0 .26.39c.11.11.23.2.37.26a1.13 1.13 0 0 0 .44.1c.15 0 .3-.03.43-.09s.26-.14.36-.25a1.64 1.64 0 0 0 .26-.37c.07-.14.11-.29.13-.46v-.04-.04-.04-.04c0-.11-.01-.22-.04-.32l-.1-.29a1.07 1.07 0 0 0-.16-.25c-.06-.07-.13-.15-.2-.21m-.69-.26h-.03-.03-.03-.03.13.12"
              class="B"/>
        <path d="M127.39 67h-.25-.44-.52-.17c-.08.06-.14.13-.21.21s-.11.16-.16.25-.08.19-.1.29-.04.21-.04.32h.1.11a1.16 1.16 0 0 1 .08-.42 1.08 1.08 0 0 1 .21-.34c.09-.1.19-.17.31-.23a.84.84 0 0 1 .38-.08.85.85 0 0 1 .38.09c.12.06.22.13.31.23a1.08 1.08 0 0 1 .21.34 1.16 1.16 0 0 1 .08.42 1.07 1.07 0 0 1-.08.41c-.05.12-.12.24-.21.34s-.19.17-.31.23a.81.81 0 0 1-.38.08.82.82 0 0 1-.38-.09c-.12-.06-.22-.13-.31-.23a1.08 1.08 0 0 1-.21-.34 1.15 1.15 0 0 1-.08-.41h-.11-.1v.05.05.05.05c.02.16.07.31.14.44a1.83 1.83 0 0 0 .26.36c.1.11.23.18.36.24s.28.09.43.09a1.16 1.16 0 0 0 .78-.31c.11-.1.19-.22.26-.35s.12-.28.14-.44v-.05-.05-.05-.05c0-.11-.01-.22-.04-.32l-.1-.29a1.07 1.07 0 0 0-.16-.25 1.39 1.39 0 0 0-.21-.21m-.69-.26h-.03-.03-.03-.03.13.13-.03-.09m18.21 20.649h-.22-.47-.47-.22a1.89 1.89 0 0 0-.2.2c-.06.07-.11.16-.16.25s-.08.19-.1.29-.03.21-.03.32h.06.06.11c0-.15.03-.29.07-.41a1.17 1.17 0 0 1 .2-.34c.08-.1.19-.17.3-.23a.78.78 0 0 1 .37-.09.78.78 0 0 1 .37.09c.11.06.22.13.3.23s.16.21.2.33.07.27.07.41a1.41 1.41 0 0 1-.07.41c-.04.13-.12.24-.2.34s-.19.17-.3.23-.24.08-.37.08a.91.91 0 0 1-.37-.08c-.11-.05-.22-.13-.3-.23s-.16-.21-.2-.33-.07-.26-.07-.41h-.11-.06-.06v.03.03.03.03c.01.17.06.32.12.47a.99.99 0 0 0 .26.37c.11.1.23.19.36.25s.28.09.43.09.3-.03.43-.09.26-.14.36-.25a1.64 1.64 0 0 0 .26-.37c.07-.14.11-.3.12-.46v-.03-.03-.03-.03c0-.11-.01-.22-.03-.32a1.42 1.42 0 0 0-.1-.29c-.04-.09-.09-.17-.15-.25a1.26 1.26 0 0 0-.2-.2m-4.2 6.881h-.08-.06-.08s0 .05-.01.07 0 .05 0 .07v.07.07h.05.06.11v-.07-.07c0-.02 0-.05.01-.07s0-.05.01-.07m2.08-.01h-.15-.08c0 .02 0 .04.01.07s0 .05.01.07 0 .05 0 .07v.07c0 .15-.03.28-.07.41s-.12.24-.2.34-.19.17-.3.23-.24.08-.37.09-.26-.03-.37-.08a.93.93 0 0 1-.3-.22 1.24 1.24 0 0 1-.21-.33 1.07 1.07 0 0 1-.08-.41h-.11-.06-.05v.03.03.03.03a.87.87 0 0 0 .05.28l.1.26c.04.08.09.16.15.22s.12.13.19.18c.05.04.1.07.15.1s.11.06.17.08.12.04.18.05.13.02.19.02.13 0 .19-.02.12-.03.18-.05.11-.05.17-.08.1-.07.15-.11c.07-.06.14-.13.2-.21s.11-.16.15-.25a1.42 1.42 0 0 0 .1-.29 1.63 1.63 0 0 0 .03-.31v-.07-.07-.07c0-.02 0-.05-.01-.07m-1.15-1.03c-.06 0-.12 0-.18.02s-.12.03-.17.04-.11.04-.16.07l-.15.1a.49.49 0 0 0-.13.12 1.54 1.54 0 0 1-.12.13c-.04.04-.07.1-.1.15s-.06.11-.08.17h.06.17c.04-.08.09-.16.15-.22s.12-.12.2-.17.15-.08.23-.11.17-.04.26-.04.17.01.26.04.16.06.23.11.14.1.19.17.11.14.15.22h.17.08c-.05-.12-.11-.22-.18-.32s-.16-.18-.25-.25a1.24 1.24 0 0 0-.3-.16c-.1-.04-.22-.06-.34-.06m4.231.979h-.09-.14c0 .02 0 .04-.01.07s0 .05 0 .07v.07.07h.11.11v-.07-.07c0-.02 0-.05.01-.07s0-.04.01-.07zm2.06-.01h-.05-.1-.09s0 .04.01.07 0 .05.01.07 0 .05 0 .07v.07a1.41 1.41 0 0 1-.07.41c-.04.13-.12.24-.2.34s-.19.17-.3.23-.24.08-.37.09-.25-.03-.37-.08-.22-.13-.3-.22-.16-.21-.2-.33-.07-.26-.07-.41h-.11-.11c0 .11.01.21.03.31a1.42 1.42 0 0 0 .1.29c.04.09.09.17.15.25a1.26 1.26 0 0 0 .2.2c.05.04.1.07.15.1s.11.06.17.08a1.21 1.21 0 0 0 .18.05c.06.01.12.02.19.02s.13 0 .19-.02.12-.03.18-.05.11-.05.17-.08.1-.07.15-.11c.07-.06.14-.12.19-.2s.11-.15.15-.24.07-.18.1-.27a.99.99 0 0 0 .04-.3v-.02-.09-.07-.07c0-.02 0-.05-.01-.07m-1.14-1.03a1.03 1.03 0 0 0-.35.06 1.08 1.08 0 0 0-.3.16c-.09.07-.18.15-.25.25s-.13.2-.18.32h.07.18a1.07 1.07 0 0 1 .15-.22 1.01 1.01 0 0 1 .19-.17c.07-.05.15-.08.23-.11s.17-.04.25-.04.17.01.25.04.16.06.23.11.14.1.19.17.11.14.15.22h.18.07c-.02-.05-.04-.1-.07-.15s-.05-.09-.09-.14-.06-.08-.1-.12l-.11-.11c-.05-.04-.1-.08-.16-.11s-.11-.06-.17-.08-.12-.04-.18-.05-.13-.02-.19-.02"
              class="B"/>
        <path d="M152.53 87.159l-7.51.02h-.07-.18-.09-.46l-.47.01h-.09-.18-.07l-7.11.02h-.08-.17-1.13-.18-.07l-7.19.02h-.08l-.18.01h-.09-.47-.48-.1-.18-.07l-8.58.03h-.17-.08-.01l-7.89.02-.12.13.12.12 7.79-.03h.1.09.07l8.57-.03h.18.06.22.48.47.22.05.18l6.98-.02h.18l.07-.01h1.34.07.18l6.91-.02h.17.05.22l.47-.01h.46.22.05.17l7.41-.02.11-.12-.11-.12zm0-20.2h-.37l-8.5-.07h-.18-.07l-7.11-.06h-.08-.18l-.08-.01h-.34-.13-.12-.36-.09l-.18-.01h-.07l-7.19-.06h-.08-.18-.08-.31-.13-.13l-.39-.01h-.01-.18-.06l-7.36-.06h-.07-.18l-9.22-.08-.12.12.12.13 9.32.08h.08.18l7.14.06h.17.01.17.53l.44.01h.25.01.18l6.98.06h.18.06.21.48l.47.01h.22.04.18l6.91.06h.17.08l8.6.07h.37l.11-.12-.11-.12zm0 6.681l-3.23-.01-8.52-.04h-.18-.07l-1.34-.01h-.07-.18l-6.93-.03h-.19-.03-.22l-.48-.01h-.51-.19-.06-.18l-6.91-.03h-.19-.06-.03l-1.44-.01h-.06-.19l-12.17-.06-.12.13.12.13 12.28.05h.08.17l1.25.01h.08.09.08l7.13.03h.07.18.07l.51.01h.48.08.17.08l7.15.03h.07.18l1.13.01h.17.07l8.63.04 3.23.01.11-.12-.11-.13zm0 20.34l-4.58.03h-.08-.02-.07-.18l-1.64.01-.19.01h-.07l-3.01.02h-.07-.18l-1.66.01h-.17-.07-.07l-1.21.01h-.07-.18l-7.07.05h-.15-.03l-.67.01h-.69-.01-.18l-7.13.05h-.18-.07-.2l-.08.01h-.18l-1.69.01h-.18-.08l-4.21.03h-.08-.18l-1.71.01h-.18-.02-.06-.01-.01l-4.86.04-.12.13.12.12 4.76-.03h.05.05.08.02.09l1.9-.02h.08.16l4.05-.03h.16.08l1.89-.01h.08.15.02.18.07l7.35-.06h.08.17.52.49l.18-.01h.07l7.29-.05h.07.18l.99-.01h.1.08.07.08l1.84-.01h.09.15l2.86-.02h.14.09l1.83-.02h.09.09.05.13l4.48-.03.11-.13-.11-.12z"
              class="B"/>
        <path d="M108.09 108.88h-.35v.04.03.03.03.03.03.03.03h.35l.12-.13-.12-.13m3.71-.05l-1.85.03-.12.13.12.13 1.85-.03.12-.13-.12-.13zm3.7-.05l-1.85.03-.11.13.11.13 1.85-.03.12-.13-.12-.13zm3.68-.05l-1.84.03-.12.13.12.13 1.84-.03.12-.13-.12-.13zm3.67-.05l-1.84.03-.12.13.12.12 1.84-.03.11-.13-.11-.12zm3.65-.05l-1.82.03-.12.13.12.12 1.82-.03.11-.13-.11-.12zm3.63-.05l-1.81.03-.11.13.11.12 1.81-.03.11-.13-.11-.12zm3.63-.05l-1.81.03-.11.13.11.12 1.81-.03.11-.13-.11-.12zm3.6-.05l-1.8.03-.11.13.11.12 1.8-.03.11-.13-.11-.12zm3.6-.05l-1.79.03-.11.13.11.12 1.79-.03.11-.13-.11-.12zm3.57-.05l-1.79.03-.11.13.11.12 1.79-.03.11-.13-.11-.12zm3.57-.05l-1.79.03-.1.13.1.12 1.79-.03.11-.13-.11-.12zm3.55-.05l-1.77.03-.11.13.11.12 1.77-.03.11-.13-.11-.12zm2.18-.03h-.41l-.11.13.11.12h.41v-.04-.03-.03-.03-.03-.03-.03-.03zm1.36-3.63l-.11.13v1.97l.1.11.1-.12v-1.97l-.1-.12m-48.88.21l-.12.13v2.03l.12.13.12-.13v-2.03l-.12-.13zm48.88-4.15l-.11.13v1.97l.11.12.1-.13v-1.97l-.1-.12zm-48.88.09l-.12.13v2.03l.12.13.12-.13v-2.03l-.12-.13zm48.88-4.04l-.11.13v1.97l.11.12.1-.13v-1.97l-.1-.12zm-48.88-.01l-.12.13v2.03l.12.13.12-.13v-2.03l-.12-.13zm48.88-3.93l-.11.12v1.97l.11.12.1-.13v-1.97l-.1-.12m-48.88-.13l-.12.13v2.03l.12.13.12-.13v-2.03l-.12-.13zm48.88-3.82l-.11.12v1.98l.11.11.1-.12v-1.98l-.1-.12m-48.88-.23l-.12.13v2.03l.12.13.12-.13v-2.03l-.12-.13zm48.88-3.72l-.11.12v1.97l.11.12.1-.12v-1.97l-.1-.12zm-48.88-.34l-.12.13v2.03l.12.12.12-.12v-2.03l-.12-.13zm48.88-3.6l-.11.12v1.98l.11.12.1-.12v-1.98l-.1-.12zm-48.88-.45l-.12.13v2.03l.12.13.12-.13V80.6l-.12-.13zm48.88-3.5l-.11.12v1.97l.11.12.1-.12v-1.97l-.1-.12zm-48.88-.55l-.12.12v2.03l.12.13.12-.13v-2.03l-.12-.12zm48.88-3.39l-.11.12v1.97l.11.12.1-.12v-1.97l-.1-.12zm-48.88-.67l-.12.13v2.03l.12.13.12-.13v-2.03l-.12-.13zm48.88-3.28l-.11.12v1.97l.11.12.1-.12V69.2l-.1-.13m-48.88-.77l-.12.13v2.03l.12.13.12-.13v-2.03l-.12-.13zm48.88-3.18l-.11.12v1.97l.11.13.1-.12v-1.97l-.1-.13zm-48.88-.88l-.12.13v2.03l.12.13.12-.13v-2.03l-.12-.13zm48.88-3.07l-.11.12v1.97l.11.13.1-.12V61.3l-.1-.13zm-48.88-.98l-.12.13v2.03l.12.13.12-.13v-2.03l-.12-.13zm48.88-2.96l-.11.12v1.97l.11.13.1-.12v-1.97l-.1-.13zm-48.88-1.1l-.12.13v2.03l.12.13.12-.13v-2.03l-.12-.13zm2.02-1.82h-.58v.05.03.03.03.03.03.03h.58l.12-.12-.12-.13m3.71.06l-1.85-.03-.12.13.12.13 1.85.03.12-.13-.12-.13zm3.7.06l-1.85-.03-.11.13.11.13 1.85.03.12-.13-.12-.13zm3.68.05l-1.84-.03-.12.13.12.13 1.84.03.12-.13-.12-.13zm3.67.05l-1.84-.03-.12.12.12.13 1.84.03.11-.12-.11-.13zm3.65.05l-1.82-.03-.11.12.11.13 1.82.03.11-.12-.11-.13zm3.63.05l-1.81-.03-.11.12.11.13 1.81.03.11-.12-.11-.13zm3.63.05l-1.81-.03-.11.12.11.13 1.81.03.11-.12-.11-.13zm3.6.05l-1.8-.03-.11.12.11.13 1.8.03.11-.12-.11-.13zm3.6.05l-1.79-.03-.11.12.11.13 1.79.03.11-.12-.11-.13zm3.57.05l-1.79-.03-.11.12.11.13 1.79.03.11-.12-.11-.13zm3.57.05l-1.79-.03-.1.12.1.13 1.79.03.11-.12-.11-.13zm3.55.05l-1.77-.03-.11.12.11.13 1.77.03.11-.12-.11-.13zm1.96.03h-.19l-.11.12.11.13h.19v-.03-.03-.03-.03-.03-.09"
              class="B F"/>
        <path d="M155.19 107.27a.74.74 0 0 0-.36.09c-.11.06-.21.13-.3.23a1.12 1.12 0 0 0-.2.33c-.05.12-.07.26-.07.4a1.29 1.29 0 0 0 .07.4c.04.12.11.23.2.33s.18.17.3.22a.9.9 0 0 0 .36.08.74.74 0 0 0 .36-.09c.11-.06.21-.13.29-.23s.15-.21.2-.33.07-.26.07-.4a1.29 1.29 0 0 0-.07-.4c-.04-.12-.11-.23-.2-.32s-.18-.17-.29-.22-.23-.08-.36-.08"
              class="D"/>
        <path d="M155.19 109.339c-.13 0-.25-.03-.36-.08s-.21-.13-.3-.22-.15-.2-.2-.33-.07-.26-.07-.4a1.29 1.29 0 0 1 .07-.4c.04-.12.11-.24.2-.33a1.14 1.14 0 0 1 .3-.23.91.91 0 0 1 .36-.09c.13-.01.25.03.36.08s.21.12.29.22.15.2.2.32.07.26.07.4a1.29 1.29 0 0 1-.07.4c-.04.12-.11.24-.2.33s-.18.17-.29.23a.74.74 0 0 1-.36.09m0-2.57c-.18 0-.35.05-.5.12a1.54 1.54 0 0 0-.42.3c-.12.12-.22.28-.3.45s-.12.36-.14.55v.03.03.03.03.03.03.03.03a1.44 1.44 0 0 0 .14.55c.08.17.18.32.3.44a1.37 1.37 0 0 0 .42.29c.16.07.33.1.51.1.19 0 .37-.05.53-.13s.31-.19.43-.33.22-.31.29-.49.11-.38.11-.6a1.59 1.59 0 0 0-.11-.59c-.07-.18-.17-.34-.29-.48a1.21 1.21 0 0 0-.43-.32c-.16-.07-.34-.12-.53-.11"
              class="B"/>
        <path d="M155.19 54.069c-.13 0-.25.02-.36.08s-.21.12-.3.22-.15.2-.2.33-.07.26-.07.4a1.29 1.29 0 0 0 .07.4c.04.12.11.24.2.33a1.14 1.14 0 0 0 .3.23.91.91 0 0 0 .36.09c.13.01.25-.03.36-.08s.21-.12.29-.22.15-.2.2-.32.07-.26.07-.4a1.41 1.41 0 0 0-.07-.41c-.04-.13-.11-.24-.2-.33s-.18-.17-.29-.23a.87.87 0 0 0-.36-.09z"
              class="D"/>
        <path d="M155.19 56.139a.74.74 0 0 1-.36-.09c-.11-.06-.21-.13-.3-.23a1.12 1.12 0 0 1-.2-.33c-.05-.12-.07-.26-.07-.4a1.29 1.29 0 0 1 .07-.4c.04-.12.11-.23.2-.33s.18-.17.3-.22a.9.9 0 0 1 .36-.08.74.74 0 0 1 .36.09c.11.06.21.13.29.23s.15.21.2.33a1.07 1.07 0 0 1 .07.41 1.24 1.24 0 0 1-.07.4c-.04.12-.11.23-.2.32s-.18.17-.29.22-.23.08-.36.08zm0-2.56c-.18 0-.35.03-.51.1a1.37 1.37 0 0 0-.42.29c-.12.12-.22.27-.3.44a1.65 1.65 0 0 0-.14.55v.03.03.03.03.03.03.03.03a1.44 1.44 0 0 0 .14.55c.08.17.18.32.3.45s.26.23.42.3.33.11.51.12a1.32 1.32 0 0 0 .53-.11 1.21 1.21 0 0 0 .43-.32c.12-.14.22-.3.29-.48a1.63 1.63 0 0 0 .11-.59c0-.21-.04-.41-.11-.6a1.59 1.59 0 0 0-.29-.49c-.12-.14-.27-.25-.43-.33s-.34-.13-.53-.13"
              class="B"/>
        <path d="M106.31 107.969a.85.85 0 0 0-.38.09c-.12.06-.22.13-.31.23a1.08 1.08 0 0 0-.21.34 1.15 1.15 0 0 0-.08.41 1.11 1.11 0 0 0 .08.41c.05.12.12.24.21.34s.19.17.31.23a.81.81 0 0 0 .38.08.82.82 0 0 0 .38-.09 1.19 1.19 0 0 0 .31-.23c.09-.09.16-.21.21-.34a1.15 1.15 0 0 0 .08-.41 1.15 1.15 0 0 0-.08-.41c-.05-.13-.12-.24-.21-.33s-.19-.17-.31-.22-.24-.08-.38-.08"
              class="D"/>
        <path d="M106.31 110.099c-.13 0-.26-.03-.38-.08s-.22-.13-.31-.23a1.08 1.08 0 0 1-.21-.34 1.15 1.15 0 0 1-.08-.41 1.11 1.11 0 0 1 .08-.41c.05-.12.12-.24.21-.34s.19-.18.31-.23.24-.09.38-.09.26.03.38.08.22.13.31.22.16.21.21.33a1.07 1.07 0 0 1 .08.41 1.07 1.07 0 0 1-.08.41c-.05.12-.12.24-.21.34s-.19.18-.31.23-.24.09-.38.09m0-2.64c-.2 0-.39.05-.56.13a1.53 1.53 0 0 0-.46.34c-.13.14-.24.31-.31.5a1.78 1.78 0 0 0-.11.61 1.78 1.78 0 0 0 .11.61 1.46 1.46 0 0 0 .31.49c.13.14.29.25.46.33a1.17 1.17 0 0 0 .56.11 1.58 1.58 0 0 0 .54-.12c.17-.07.32-.18.44-.31s.23-.29.31-.46a1.54 1.54 0 0 0 .14-.57v-.03-.03-.03-.03-.03-.03-.03-.03a1.49 1.49 0 0 0-.14-.56c-.08-.17-.18-.33-.31-.45s-.28-.23-.44-.3a1.21 1.21 0 0 0-.54-.1"
              class="B"/>
        <path d="M106.31 53.319c-.13 0-.26.03-.38.08s-.22.13-.31.22-.16.21-.21.34a1.16 1.16 0 0 0-.08.42 1.07 1.07 0 0 0 .08.41c.05.12.12.24.21.34s.19.18.31.23.24.09.38.09.26-.03.38-.08.22-.13.31-.22.16-.21.21-.33a1.07 1.07 0 0 0 .08-.41 1.16 1.16 0 0 0-.08-.42 1.08 1.08 0 0 0-.21-.34c-.09-.1-.19-.18-.31-.23s-.24-.09-.38-.09"
              class="D"/>
        <path d="M106.31 55.439a.85.85 0 0 1-.38-.09c-.12-.06-.22-.13-.31-.23a1.08 1.08 0 0 1-.21-.34 1.15 1.15 0 0 1-.08-.41c0-.14.03-.29.08-.42a1.08 1.08 0 0 1 .21-.34.84.84 0 0 1 .31-.22c.12-.05.24-.08.38-.08a.82.82 0 0 1 .38.09c.12.06.22.13.31.23a1.08 1.08 0 0 1 .21.34 1.16 1.16 0 0 1 .08.42 1.11 1.11 0 0 1-.08.41c-.05.13-.12.24-.21.33s-.19.17-.31.22-.24.08-.38.08m0-2.63a1.47 1.47 0 0 0-.56.11c-.17.07-.33.19-.46.33a1.57 1.57 0 0 0-.31.49c-.07.18-.11.39-.11.61a1.74 1.74 0 0 0 .11.61c.07.19.18.36.31.5a1.53 1.53 0 0 0 .46.34c.17.08.36.13.56.13s.37-.03.54-.1a1.23 1.23 0 0 0 .44-.3 1.8 1.8 0 0 0 .31-.45 1.49 1.49 0 0 0 .14-.56v-.03-.03-.03-.03-.03-.03-.03-.03a1.59 1.59 0 0 0-.14-.57 1.49 1.49 0 0 0-.31-.46c-.13-.13-.28-.24-.44-.31s-.35-.12-.54-.12"
              class="B"/>
    </g>
    <mask id="O" maskUnits="userSpaceOnUse" x="98" y="20" width="66" height="25">
        <path d="M98.51 44.04l.41-23.26 64.6 1.54-.39 22.44-64.62-.72z" class="C"/>
    </mask>
    <g mask="url(#O)">
        <path opacity=".3"
              d="M159.21 23.2l-55.72-1.29c-.5-.01-.99.09-1.43.28s-.84.47-1.18.82-.61.77-.81 1.25-.31.99-.31 1.54l-.23 13.27c0 .55.08 1.07.26 1.55a4.05 4.05 0 0 0 .76 1.27c.32.36.71.66 1.15.86s.91.32 1.42.33l55.73.65a3.23 3.23 0 0 0 1.34-.29 3.38 3.38 0 0 0 1.1-.81 3.92 3.92 0 0 0 .75-1.21c.18-.46.29-.96.29-1.49l.22-12.82a4.58 4.58 0 0 0-.24-1.5c-.16-.46-.41-.88-.71-1.24s-.67-.64-1.07-.85-.85-.32-1.33-.33"
              fill="url(#X)"/>
        <path opacity=".3"
              d="M103.12 43.08a3.29 3.29 0 0 1-1.42-.33 3.73 3.73 0 0 1-1.15-.86c-.33-.36-.59-.79-.76-1.27s-.27-1-.26-1.55l.23-13.27a4.11 4.11 0 0 1 .31-1.54c.19-.47.47-.89.81-1.25s.74-.63 1.18-.82.92-.29 1.43-.28l55.72 1.29c.47.01.92.13 1.33.33a3.25 3.25 0 0 1 1.07.85c.3.36.55.77.71 1.24a4.37 4.37 0 0 1 .24 1.5l-.22 12.82c0 .53-.11 1.03-.29 1.49a3.92 3.92 0 0 1-.75 1.21 3.49 3.49 0 0 1-1.1.81 3.16 3.16 0 0 1-1.34.29l-55.73-.65m56.1-20.88l-55.72-1.32a4.15 4.15 0 0 0-1.79.35 4.59 4.59 0 0 0-1.48 1.03c-.42.44-.77.97-1.01 1.56s-.38 1.25-.4 1.94l-.23 13.28c-.01.69.11 1.35.33 1.95s.55 1.14.96 1.6a4.61 4.61 0 0 0 1.44 1.09c.54.26 1.15.4 1.78.41l55.73.62c.59 0 1.16-.12 1.68-.36a4.31 4.31 0 0 0 1.38-1.02 5.14 5.14 0 0 0 .95-1.52c.23-.57.36-1.21.37-1.87l.22-12.81a5.49 5.49 0 0 0-.3-1.88c-.2-.58-.51-1.11-.89-1.55a4.5 4.5 0 0 0-1.35-1.07c-.51-.26-1.07-.4-1.67-.42"
              class="B"/>
    </g>
    <mask id="P" maskUnits="userSpaceOnUse" x="65" y="29" width="20" height="85">
        <path d="M65.47 113.28V29.66l19.13.44v82.74l-19.13.44z" class="C"/>
    </mask>
    <g mask="url(#P)">
        <path d="M80.05 30.5l-9.97-.23c-.57-.01-1.12.1-1.62.32s-.95.54-1.32.95a4.66 4.66 0 0 0-.89 1.43 4.9 4.9 0 0 0-.33 1.78v73.43a4.98 4.98 0 0 0 .33 1.78c.21.55.52 1.03.89 1.43s.82.73 1.32.95 1.04.33 1.62.32l9.97-.23c.57-.01 1.11-.15 1.6-.39s.93-.58 1.3-1 .67-.91.88-1.46.32-1.15.32-1.77V35.13c0-.63-.11-1.23-.32-1.77s-.51-1.04-.88-1.46-.81-.76-1.3-1-1.03-.38-1.6-.39"
              fill="url(#Y)"/>
        <path d="M70.09 112.67c-.57.01-1.12-.1-1.62-.32s-.95-.54-1.32-.95a4.66 4.66 0 0 1-.89-1.43 4.9 4.9 0 0 1-.33-1.78V34.76a4.98 4.98 0 0 1 .33-1.78c.21-.55.52-1.03.89-1.43s.82-.73 1.32-.95 1.04-.33 1.62-.32l9.97.23c.57.01 1.11.15 1.6.39s.93.58 1.3 1 .67.91.88 1.46.32 1.15.32 1.77v72.7c0 .63-.11 1.23-.32 1.77s-.51 1.04-.88 1.46-.81.76-1.3 1-1.03.38-1.6.39l-9.97.23M80.05 30l-9.97-.23c-.64-.01-1.24.11-1.79.36a4.64 4.64 0 0 0-1.47 1.06c-.42.45-.76.99-.99 1.59s-.36 1.27-.36 1.97v73.45c0 .7.13 1.37.36 1.97s.57 1.14.99 1.59a4.64 4.64 0 0 0 1.47 1.06c.55.25 1.16.37 1.79.36l9.97-.23c.63-.01 1.23-.17 1.77-.44s1.03-.65 1.45-1.11.74-1.01.97-1.62.36-1.27.36-1.96V35.13c0-.69-.13-1.36-.36-1.96s-.56-1.16-.97-1.62-.9-.85-1.45-1.11-1.14-.42-1.77-.44z"
              fill="url(#Z)" fill-opacity=".75"/>
    </g>
    <mask id="Q" maskUnits="userSpaceOnUse" x="174" y="30" width="20" height="81">
        <path d="M174.609 110.76V30l19.13.43v79.9l-19.13.43z" class="C"/>
    </mask>
    <g mask="url(#Q)">
        <path d="M189.26 30.83l-10.11-.22a3.71 3.71 0 0 0-1.59.32 4.13 4.13 0 0 0-1.3.93c-.37.39-.67.88-.88 1.41s-.32 1.12-.32 1.75v70.73c0 .62.11 1.21.32 1.75s.51 1.01.88 1.41.81.72 1.3.93a3.83 3.83 0 0 0 1.59.32l10.11-.22a3.78 3.78 0 0 0 1.57-.38c.48-.23.91-.57 1.28-.98a4.51 4.51 0 0 0 .86-1.43c.2-.53.31-1.13.31-1.74V35.37c0-.62-.11-1.2-.31-1.74s-.5-1.02-.86-1.43-.8-.75-1.28-.98a3.78 3.78 0 0 0-1.57-.38"
              fill="url(#a)"/>
        <path d="M179.149 110.15a3.71 3.71 0 0 1-1.59-.32 4.13 4.13 0 0 1-1.3-.93c-.37-.39-.67-.88-.88-1.41s-.32-1.12-.32-1.75V35.02c0-.62.11-1.21.32-1.75s.51-1.01.88-1.41.81-.72 1.3-.93a3.83 3.83 0 0 1 1.59-.32l10.11.22a3.78 3.78 0 0 1 1.57.38c.48.23.91.57 1.28.98a4.51 4.51 0 0 1 .86 1.43c.2.53.31 1.13.31 1.74v70.02c0 .62-.11 1.2-.31 1.74s-.5 1.02-.86 1.43-.8.75-1.28.98a3.78 3.78 0 0 1-1.57.38l-10.11.22m10.11-79.82l-10.11-.22c-.62-.01-1.22.11-1.76.35a4.46 4.46 0 0 0-1.44 1.04 4.96 4.96 0 0 0-.98 1.57c-.23.59-.36 1.25-.36 1.94v70.74c0 .69.13 1.34.36 1.94s.56 1.13.98 1.57.9.8 1.44 1.04 1.14.37 1.76.35l10.11-.22a4.1 4.1 0 0 0 1.74-.43 4.69 4.69 0 0 0 1.42-1.09c.4-.45.73-1 .96-1.59s.35-1.25.35-1.93V35.38c0-.68-.13-1.34-.35-1.93s-.55-1.14-.96-1.59-.89-.83-1.42-1.09a4.1 4.1 0 0 0-1.74-.43"
              fill="url(#b)" fill-opacity=".75"/>
    </g>
    <mask id="R" maskUnits="userSpaceOnUse" x="68" y="33" width="14" height="59">
        <path d="M68.739 91.37V33.4l12.98.21v57.55l-12.98.21z" class="C"/>
    </mask>
    <g mask="url(#R)" class="B">
        <path d="M73.2 33.47l-3.36-.05c-.15 0-.3.03-.43.09s-.25.15-.35.25a1.23 1.23 0 0 0-.24.38 1.18 1.18 0 0 0-.09.46v3.71c0 .16.03.32.09.47s.14.27.24.39a.97.97 0 0 0 .35.26c.13.06.28.1.43.1l3.36.04c.15 0 .3-.03.43-.09s.25-.15.35-.25.18-.24.23-.38.09-.3.09-.46v-3.7c0-.16-.03-.32-.09-.47s-.14-.27-.23-.38-.22-.2-.35-.26-.28-.1-.43-.1"
              class="F"/>
        <path d="M80.63 33.59l-3.33-.05a.99.99 0 0 0-.42.09.94.94 0 0 0-.34.25c-.09.11-.18.23-.23.38s-.08.3-.08.46v3.7c0 .16.03.32.08.47s.13.27.23.38.21.2.34.26.27.1.42.1l3.33.04a.99.99 0 0 0 .42-.09c.13-.06.25-.15.35-.25a.97.97 0 0 0 .23-.38c.05-.15.09-.3.09-.46V34.8a1.18 1.18 0 0 0-.09-.46 1.33 1.33 0 0 0-.23-.38c-.1-.11-.22-.2-.35-.26s-.27-.1-.42-.1m-7.43 8.49l-3.36-.04c-.15 0-.3.03-.43.09s-.25.15-.35.25a1.23 1.23 0 0 0-.24.38c-.06.14-.09.3-.09.47v3.7c0 .17.03.33.09.47s.14.28.24.39.22.2.35.26.28.1.43.1l3.36.03c.15 0 .3-.03.43-.09s.25-.15.35-.26a1.14 1.14 0 0 0 .23-.38c.05-.14.09-.3.09-.47V43.3c0-.17-.03-.33-.09-.47s-.14-.27-.23-.38-.22-.2-.35-.26-.28-.1-.43-.1zm7.43.09l-3.33-.04a.99.99 0 0 0-.42.09.94.94 0 0 0-.34.25c-.09.11-.18.23-.23.38a1.45 1.45 0 0 0-.08.47v3.69c0 .17.03.33.08.47s.13.28.23.38.21.2.34.26.27.1.42.1l3.33.03a.99.99 0 0 0 .42-.09c.13-.06.25-.15.35-.25s.18-.24.23-.38.09-.3.09-.47v-3.68a1.23 1.23 0 0 0-.09-.47c-.06-.15-.13-.27-.23-.38s-.22-.2-.35-.26-.27-.1-.42-.1zm-7.43 8.53l-3.36-.02c-.15 0-.3.03-.43.09s-.25.15-.35.26a1.36 1.36 0 0 0-.24.38c-.06.14-.09.3-.09.47v3.7c0 .17.03.33.09.47s.14.28.24.39.22.2.35.26.28.1.43.1h3.36c.15.01.3-.02.43-.08s.25-.15.35-.26a1.14 1.14 0 0 0 .23-.38c.05-.14.09-.3.09-.47v-3.69c0-.17-.03-.33-.09-.47a1.67 1.67 0 0 0-.23-.39c-.09-.11-.22-.2-.35-.26s-.28-.1-.43-.1zm7.43.04l-3.33-.02a.99.99 0 0 0-.42.09c-.13.06-.25.15-.34.26a1.33 1.33 0 0 0-.23.38c-.05.14-.08.3-.08.47v3.69c0 .17.03.33.08.47a1.14 1.14 0 0 0 .23.38c.1.11.21.2.34.26s.27.1.42.1h3.33c.15.01.29-.02.42-.08s.25-.15.35-.26a1.14 1.14 0 0 0 .23-.38c.05-.14.09-.3.09-.47v-3.68a1.23 1.23 0 0 0-.09-.47c-.06-.15-.13-.27-.23-.38s-.22-.2-.35-.26-.27-.1-.42-.1zm-7.43 8.58h-3.36c-.15 0-.3.03-.43.09s-.25.15-.35.26a1.36 1.36 0 0 0-.24.38c-.06.14-.09.3-.09.47v3.7c0 .17.03.33.09.47a1.36 1.36 0 0 0 .24.38c.1.11.22.2.35.26s.28.09.43.09h3.36c.15 0 .3-.04.43-.1s.25-.15.35-.26a1.14 1.14 0 0 0 .23-.38c.05-.14.09-.3.09-.47v-3.69c0-.17-.03-.33-.09-.47s-.14-.27-.23-.38-.22-.2-.35-.26-.28-.1-.43-.1m7.43.02H77.3a.99.99 0 0 0-.42.09c-.13.06-.25.15-.34.26a1.33 1.33 0 0 0-.23.38c-.05.14-.08.3-.08.47v3.69a1.45 1.45 0 0 0 .08.47c.05.15.13.27.23.38s.21.19.34.25a.99.99 0 0 0 .42.09h3.33c.15 0 .29-.04.42-.1s.25-.15.35-.26a1.14 1.14 0 0 0 .23-.38c.05-.14.09-.3.09-.47v-3.68a1.23 1.23 0 0 0-.09-.47c-.06-.15-.13-.27-.23-.38s-.22-.2-.35-.26-.27-.09-.42-.1m-7.43 8.63h-3.36a1.24 1.24 0 0 0-.43.11c-.13.06-.25.15-.35.26a1.36 1.36 0 0 0-.24.38c-.06.14-.09.3-.09.47v3.71c0 .16.03.32.09.47a1.23 1.23 0 0 0 .24.38c.1.11.22.2.35.26s.28.09.43.09l3.36-.02c.15 0 .3-.04.43-.1s.25-.15.35-.26a1.14 1.14 0 0 0 .23-.38c.05-.14.09-.3.09-.46v-3.7a1.18 1.18 0 0 0-.09-.46c-.06-.14-.14-.27-.23-.38s-.22-.2-.35-.26-.28-.09-.43-.09m7.43-.04H77.3c-.15.01-.29.04-.42.11a1.1 1.1 0 0 0-.34.26 1.33 1.33 0 0 0-.23.38 1.39 1.39 0 0 0-.08.46v3.7a1.39 1.39 0 0 0 .08.46 1.14 1.14 0 0 0 .23.38c.1.11.21.2.34.26a.99.99 0 0 0 .42.09l3.33-.02c.15 0 .29-.04.42-.1s.25-.15.35-.26a1.14 1.14 0 0 0 .23-.38c.05-.14.09-.3.09-.46v-3.69a1.18 1.18 0 0 0-.09-.46 1.33 1.33 0 0 0-.23-.38c-.1-.11-.22-.2-.35-.26a.99.99 0 0 0-.42-.09zm-7.43 8.64l-3.36.03c-.15 0-.3.04-.43.1s-.25.15-.35.26a1.36 1.36 0 0 0-.24.38c-.06.14-.09.3-.09.47v3.7c0 .17.03.33.09.47a1.36 1.36 0 0 0 .24.38c.1.11.22.2.35.26s.28.09.43.09l3.36-.04c.15 0 .3-.04.43-.1s.25-.15.35-.26a1.09 1.09 0 0 0 .23-.39c.05-.15.09-.3.09-.47v-3.69a1.23 1.23 0 0 0-.09-.47c-.06-.15-.14-.27-.23-.38s-.22-.19-.35-.25-.28-.09-.43-.09zm7.43-.05l-3.33.03c-.15 0-.29.04-.42.1s-.25.15-.34.26a1.33 1.33 0 0 0-.23.38c-.05.14-.08.3-.08.47v3.69a1.45 1.45 0 0 0 .08.47c.05.15.13.27.23.38s.21.19.34.25a.99.99 0 0 0 .42.09l3.33-.04c.15 0 .29-.04.42-.1s.25-.15.35-.26a1.14 1.14 0 0 0 .23-.38c.05-.14.09-.3.09-.47v-3.68a1.23 1.23 0 0 0-.09-.47c-.06-.15-.13-.27-.23-.38a1.07 1.07 0 0 0-.35-.25.99.99 0 0 0-.42-.09zm-7.43 8.67l-3.36.04c-.15 0-.3.04-.43.1s-.25.15-.35.26a1.28 1.28 0 0 0-.24.39c-.06.15-.09.31-.09.47v3.7c0 .17.03.33.09.47a1.36 1.36 0 0 0 .24.38 1.07 1.07 0 0 0 .35.25c.13.06.28.09.43.09l3.36-.05c.15 0 .3-.04.43-.1s.25-.15.35-.26a1.09 1.09 0 0 0 .23-.39c.05-.15.09-.3.09-.47v-3.69a1.23 1.23 0 0 0-.09-.47c-.06-.15-.14-.27-.23-.38s-.22-.19-.35-.25-.28-.09-.43-.09z"
              class="E"/>
    </g>
    <mask id="S" maskUnits="userSpaceOnUse" x="163" y="57" width="6" height="41">
        <path d="M163.42 97.7V57.1l5.52.06v40.48l-5.52.06z" class="C"/>
    </mask>
    <g mask="url(#S)" class="B">
        <path d="M167.86 57.149l-3.35-.04a.99.99 0 0 0-.42.09c-.13.06-.25.15-.35.25s-.18.24-.23.38-.09.3-.09.47v3.7c0 .17.03.33.09.47a1.67 1.67 0 0 0 .23.39c.09.11.22.2.35.26s.27.1.42.1l3.35.03a.99.99 0 0 0 .42-.09c.13-.06.25-.15.34-.26a1.33 1.33 0 0 0 .23-.38c.05-.14.09-.3.09-.47v-3.68a1.23 1.23 0 0 0-.09-.47c-.06-.15-.13-.28-.23-.39s-.21-.2-.34-.26-.27-.1-.42-.1z"
              class="E"/>
        <path d="M167.86 65.75l-3.35-.02a.99.99 0 0 0-.42.09c-.13.06-.25.15-.35.26a1.14 1.14 0 0 0-.23.38c-.05.14-.09.3-.09.47v3.7c0 .17.03.33.09.47s.14.27.23.38.22.2.35.26a.99.99 0 0 0 .42.09h3.35c.15.01.29-.02.42-.08a1.07 1.07 0 0 0 .34-.25c.09-.1.18-.24.23-.38s.09-.3.09-.47v-3.68a1.23 1.23 0 0 0-.09-.47c-.06-.15-.13-.27-.23-.38s-.21-.2-.34-.26-.27-.1-.42-.1"
              class="F"/>
        <path d="M167.86 74.36h-3.35a.99.99 0 0 0-.42.09c-.13.06-.25.15-.35.26a1.14 1.14 0 0 0-.23.38c-.05.14-.09.3-.09.46v3.7a1.18 1.18 0 0 0 .09.46c.06.14.14.27.23.38s.22.2.35.26a.99.99 0 0 0 .42.09h3.35c.15 0 .29-.04.42-.1s.25-.15.34-.26a1.33 1.33 0 0 0 .23-.38c.05-.14.09-.3.09-.46v-3.69a1.18 1.18 0 0 0-.09-.46 1.33 1.33 0 0 0-.23-.38c-.1-.11-.21-.2-.34-.26s-.27-.09-.42-.1m0 8.61h-3.35c-.15.01-.29.04-.42.11s-.25.15-.35.26a1.14 1.14 0 0 0-.23.38c-.05.14-.09.3-.09.47v3.7a1.18 1.18 0 0 0 .09.46c.06.14.14.27.23.38s.22.2.35.26a.99.99 0 0 0 .42.09l3.35-.02c.15 0 .29-.04.42-.1s.25-.15.34-.26a1.33 1.33 0 0 0 .23-.38c.05-.14.09-.3.09-.46v-3.69a1.23 1.23 0 0 0-.09-.47c-.06-.15-.13-.27-.23-.38s-.21-.19-.34-.25a.99.99 0 0 0-.42-.09m0 8.599l-3.35.03c-.15 0-.29.04-.42.1s-.25.15-.35.26a1.14 1.14 0 0 0-.23.38c-.05.14-.09.3-.09.47v3.7c0 .17.03.33.09.47s.14.27.23.38a.87.87 0 0 0 .35.25c.13.05.27.09.42.09l3.35-.04c.15 0 .29-.04.42-.1s.25-.15.34-.26.18-.24.23-.39.09-.3.09-.47v-3.68a1.23 1.23 0 0 0-.09-.47c-.06-.15-.13-.27-.23-.38s-.21-.19-.34-.25a.99.99 0 0 0-.42-.09z"
              class="E"/>
    </g>
    <mask id="T" maskUnits="userSpaceOnUse" x="177" y="34" width="15" height="67">
        <path d="M177.319 100.84V34.22l13.76.25v66.12l-13.76.25z" class="C"/>
    </mask>
    <g mask="url(#T)" class="B">
        <path d="M188.059 77.379l-7.69.04a2.3 2.3 0 0 0-1.01.23c-.31.15-.59.36-.82.61s-.42.57-.56.91-.2.72-.2 1.11v9.04c0 .4.07.77.2 1.11s.32.65.56.9a2.67 2.67 0 0 0 .82.6c.31.14.65.22 1.01.21l7.69-.1a2.3 2.3 0 0 0 1-.24c.31-.15.58-.36.81-.62a2.99 2.99 0 0 0 .55-.91c.13-.34.2-.72.2-1.11v-8.98a3.03 3.03 0 0 0-.2-1.1c-.13-.33-.32-.64-.55-.9a2.48 2.48 0 0 0-.81-.6c-.3-.14-.64-.22-1-.22"
              class="E"/>
        <path opacity=".3"
              d="M188.97 34.44l-9.53-.17c-.23 0-.45.04-.65.13s-.38.22-.53.38-.27.36-.36.58-.13.46-.13.71v2.44c0 .26.05.5.13.72s.21.42.36.59a1.58 1.58 0 0 0 .53.4c.2.09.42.15.65.15l9.53.14c.23 0 .45-.04.65-.13s.38-.22.53-.38a1.7 1.7 0 0 0 .35-.58 2.08 2.08 0 0 0 .13-.71v-2.42a2.08 2.08 0 0 0-.13-.71c-.08-.22-.2-.42-.35-.59s-.33-.3-.53-.4-.42-.15-.65-.16"/>
        <path d="M180.37 57.639a2.3 2.3 0 0 1-1.01-.23c-.31-.15-.59-.36-.82-.61s-.42-.57-.56-.91-.2-.72-.2-1.11v-9.04c0-.4.07-.77.2-1.11s.32-.65.56-.9a2.67 2.67 0 0 1 .82-.6c.31-.14.65-.22 1.01-.21l7.69.1a2.3 2.3 0 0 1 1 .24c.31.15.58.36.81.62a2.99 2.99 0 0 1 .55.91c.13.34.2.72.2 1.11v8.98a3.03 3.03 0 0 1-.2 1.1c-.13.33-.32.64-.55.9a2.48 2.48 0 0 1-.81.6c-.3.14-.64.22-1 .22l-7.69-.04m7.69-15.13l-7.69-.11c-.42 0-.82.08-1.19.25s-.69.41-.97.71-.5.66-.66 1.06-.24.84-.24 1.3v9.04a3.76 3.76 0 0 0 .24 1.31 3.26 3.26 0 0 0 .66 1.07 3.44 3.44 0 0 0 .97.73c.36.18.77.27 1.19.27l7.69.04a2.71 2.71 0 0 0 1.17-.26c.36-.17.69-.41.96-.71s.49-.66.65-1.06.24-.84.24-1.3v-8.97c0-.46-.08-.9-.24-1.3s-.37-.76-.65-1.07-.6-.56-.96-.73-.76-.27-1.17-.28"
              class="E"/>
        <path opacity=".3"
              d="M188.97 68.79h-9.53c-.23 0-.45.06-.65.15s-.38.23-.53.39-.27.36-.36.58-.13.46-.13.71v2.45a2.08 2.08 0 0 0 .13.71 1.72 1.72 0 0 0 .36.58c.15.16.33.3.53.39a1.58 1.58 0 0 0 .65.14l9.53-.04c.23 0 .45-.05.65-.15s.38-.23.53-.39a1.7 1.7 0 0 0 .35-.58 2.08 2.08 0 0 0 .13-.71v-2.43a2.08 2.08 0 0 0-.13-.71 1.8 1.8 0 0 0-.35-.58 1.55 1.55 0 0 0-.53-.39 1.58 1.58 0 0 0-.65-.14"/>
        <path d="M188.97 94.549l-9.53.14c-.23 0-.45.06-.65.15a1.58 1.58 0 0 0-.53.4c-.15.17-.27.37-.36.59s-.13.47-.13.72v2.44a2.08 2.08 0 0 0 .13.71c.08.22.21.41.36.58s.33.29.53.38a1.43 1.43 0 0 0 .65.13l9.53-.17c.23 0 .45-.06.65-.16s.38-.23.53-.4a1.84 1.84 0 0 0 .35-.59 2.08 2.08 0 0 0 .13-.71v-2.42a2.08 2.08 0 0 0-.13-.71 1.8 1.8 0 0 0-.35-.58c-.15-.17-.33-.29-.53-.38a1.43 1.43 0 0 0-.65-.13"
              class="E"/>
    </g>
    <mask id="U" maskUnits="userSpaceOnUse" x="103" y="25" width="58" height="16">
        <path d="M103.399 39.77l.26-14.58 57.07 1.22-.25 14.13-57.08-.77z" class="C"/>
    </mask>
    <g mask="url(#U)">
        <path d="M121.339 32.88l.15-.46.15-.47.13-.45.1-.37.1.41.13.49.13.48.11.39-1.02-.02m.95-2.38l-.81-.02-.04.04c0 .05 0 .1-.01.14s0 .07-.01.09 0 .05-.02.06-.01.03-.02.05l-1.27 3.74.04.06h.59l.07-.03.34-1.05 1.39.02.32 1.07.06.04h.66l.03-.04-1.28-4.14-.04-.04m3.131 3.67a.88.88 0 0 1-.33-.06.8.8 0 0 1-.27-.18c-.08-.08-.14-.18-.18-.31s-.06-.27-.06-.45c0-.16.03-.3.08-.42a.83.83 0 0 1 .2-.31.91.91 0 0 1 .29-.19c.11-.04.23-.06.37-.06h.07a.17.17 0 0 1 .07.01c.02.01.05 0 .07.02s.04.01.06.02l-.03 1.88s-.05.02-.08.02-.06.01-.08.02-.06 0-.09 0h-.09m1.07-3.94h-.63l-.03.03-.02 1.31h-.07-.06-.06-.06c-.25 0-.49.04-.69.12a1.58 1.58 0 0 0-.53.35c-.15.15-.26.33-.34.53a1.98 1.98 0 0 0-.13.65c0 .27.03.5.1.71a1.37 1.37 0 0 0 .31.51c.13.14.29.24.47.31s.38.11.58.11h.27c.09 0 .18-.02.27-.04l.28-.07c.09-.03.19-.07.28-.11l.04-.06v-.09-.11-.11-.1l.07-3.86-.03-.04m1.909 3.97a.61.61 0 0 1-.3-.08.63.63 0 0 1-.22-.21c-.06-.09-.1-.19-.13-.32a1.75 1.75 0 0 1-.04-.4c0-.14.02-.29.06-.41s.08-.23.14-.31.13-.15.22-.19a.51.51 0 0 1 .27-.06c.12 0 .23.03.31.09s.16.13.21.22.09.2.12.32a1.2 1.2 0 0 1 .03.38c0 .16-.02.31-.06.43a1.05 1.05 0 0 1-.15.3c-.06.08-.13.14-.21.18s-.17.06-.26.06m.05-2.62c-.22 0-.41.04-.59.12s-.33.2-.45.34-.22.32-.29.52a1.91 1.91 0 0 0-.11.64c0 .2.02.41.07.6s.13.37.24.53a1.13 1.13 0 0 0 .43.38 1.35 1.35 0 0 0 .62.15c.2 0 .4-.03.57-.11s.32-.19.45-.33a1.48 1.48 0 0 0 .3-.52c.07-.2.11-.43.12-.67 0-.22-.02-.43-.08-.62s-.14-.37-.26-.52-.26-.27-.43-.36-.37-.14-.59-.14m2.86 2.66h-.07-.07-.07c-.03 0-.04 0-.06-.01l.03-1.86.08-.03c.03-.01.06-.02.09-.02s.07 0 .11-.01.09 0 .14 0a.78.78 0 0 1 .31.06.61.61 0 0 1 .24.18c.06.08.12.18.15.29a1.56 1.56 0 0 1 .05.4c0 .18-.03.33-.08.46s-.12.24-.21.32-.19.15-.3.19-.23.06-.34.06m-.26-3.96h-.6l-.04.03-.08 4.36.04.06c.07.03.14.05.21.07l.21.05c.07.02.14.02.22.03s.15 0 .22.01a1.93 1.93 0 0 0 .63-.1 1.69 1.69 0 0 0 .55-.32c.16-.14.29-.33.39-.54s.15-.48.16-.77a1.98 1.98 0 0 0-.09-.6c-.06-.19-.15-.34-.26-.48s-.26-.25-.42-.32-.35-.12-.56-.12h-.14c-.05 0-.09 0-.14.01l-.13.03c-.04.01-.09.02-.13.04l.02-1.38-.06-.05m3.021 2.6c.01-.08.03-.16.06-.23s.07-.15.12-.21.11-.11.19-.15a.55.55 0 0 1 .26-.05.54.54 0 0 1 .27.07c.07.04.13.1.17.16s.07.13.08.2l.02.17v.04h-.03-.06-.09-.14-.85zm.67-1.26a1.21 1.21 0 0 0-.58.13c-.17.09-.31.21-.43.36s-.21.33-.27.53a2.2 2.2 0 0 0-.1.64c0 .2.02.39.06.58s.12.36.23.51.25.28.43.37a1.46 1.46 0 0 0 .66.15h.27c.08 0 .16-.02.23-.03a1.17 1.17 0 0 0 .2-.05c.06-.02.12-.05.17-.07l.03-.07v-.53l-.02-.03a1.22 1.22 0 0 1-.17.07c-.06.02-.12.03-.18.04a1.1 1.1 0 0 1-.18.02h-.19c-.15 0-.27-.03-.38-.07s-.2-.1-.27-.17a.76.76 0 0 1-.16-.26c-.04-.1-.05-.2-.05-.32l1.17.02h.2.17.14c.04 0 .07 0 .09-.01l.04-.04s0-.04.01-.06 0-.06 0-.09v-.11-.13c0-.15-.01-.31-.06-.46s-.11-.3-.2-.44-.21-.24-.36-.33-.33-.13-.54-.13m3.729.13h-.61l-.05.03-.05 3.03.06.05h.59l.06-.03.05-3.04-.05-.05m-.28-1.31c-.06 0-.11 0-.16.03s-.09.05-.13.09a.34.34 0 0 0-.09.14c-.02.06-.03.11-.03.18s0 .12.02.18.04.1.08.14.07.07.12.09.1.03.16.03.12 0 .17-.03l.13-.08c.04-.03.06-.08.08-.13s.03-.11.03-.18 0-.13-.02-.18a.61.61 0 0 0-.07-.14c-.03-.04-.07-.07-.12-.09a.75.75 0 0 0-.16-.04m1.7-.06h-.59l-.05.03-.06 3.72c0 .17.01.3.05.41s.08.19.14.25a.57.57 0 0 0 .21.13c.08.03.17.04.26.04h.11.09c.03 0 .05 0 .07-.01s.04-.01.05-.02l.04-.07v-.47l-.02-.04h-.11s-.06 0-.09-.02-.05-.02-.06-.04-.03-.05-.04-.08-.01-.07-.01-.12l.06-3.65-.05-.05m1.52.02h-.59l-.06.03-.06 3.72c0 .17.01.3.05.41s.08.19.14.25a.57.57 0 0 0 .21.13c.08.03.17.04.26.04h.11.09c.03 0 .05 0 .07-.01s.04-.01.06-.02l.03-.07v-.47l-.02-.04h-.1s-.06 0-.09-.02-.05-.02-.06-.04-.03-.05-.04-.08-.01-.07-.01-.12l.06-3.64-.05-.05m3.16 1.43h-.6l-.04.03-.04 2.24-.11.1c-.04.03-.08.05-.12.07s-.09.03-.14.04-.1.01-.15.01a.51.51 0 0 1-.22-.05c-.06-.03-.11-.07-.15-.13a.61.61 0 0 1-.09-.2c-.02-.08-.03-.17-.03-.27l.03-1.84-.04-.05h-.6l-.05.03-.03 1.93a2.23 2.23 0 0 0 .06.56.92.92 0 0 0 .2.38c.09.1.19.17.3.21a1.12 1.12 0 0 0 .38.07c.06 0 .13 0 .2-.01s.14-.02.21-.05.14-.05.2-.1.13-.09.19-.16l.04.22.06.04h.52l.05-.04v-.11-.14-.18-.22l.04-2.38-.04-.05m1.66.02a1.33 1.33 0 0 0-.47.07 1.13 1.13 0 0 0-.34.2c-.09.08-.16.18-.21.29s-.07.23-.07.35c0 .11.01.22.04.31a.94.94 0 0 0 .14.26c.06.08.15.16.26.23s.24.14.39.2l.22.11c.06.03.1.07.14.1s.06.07.07.1a.36.36 0 0 1 .02.11c0 .04 0 .08-.03.11s-.04.06-.08.09-.08.04-.14.05-.12.02-.19.02c-.06 0-.13 0-.2-.02l-.21-.05c-.07-.02-.14-.05-.21-.08a.76.76 0 0 1-.19-.12l-.05.03v.61l.03.07c.04.03.09.05.15.07l.19.06c.07.02.14.03.22.04l.24.02c.17 0 .33-.02.47-.06s.26-.1.35-.19a1.14 1.14 0 0 0 .23-.3c.06-.12.08-.25.08-.4 0-.11 0-.21-.04-.31s-.07-.18-.14-.26-.15-.16-.26-.23a2.57 2.57 0 0 0-.41-.21l-.22-.11c-.05-.03-.1-.07-.14-.1s-.05-.06-.07-.09-.02-.06-.02-.1c0-.03 0-.07.02-.1s.04-.06.07-.08.07-.04.13-.06.11-.02.19-.02c.06 0 .13 0 .19.02s.13.02.19.04l.18.06a.53.53 0 0 1 .15.08l.05-.03v-.55l-.02-.08c-.03-.02-.07-.04-.12-.05l-.16-.04-.2-.03c-.07-.01-.15-.01-.23-.01m2.231-.84l-.57.07-.05.06-.02.16-.02.21-.02.22c-.01.07 0 .14-.01.19h-.35l-.05.05v.53l.03.06h.35l-.03 1.67c0 .16.01.29.04.4a.69.69 0 0 0 .14.27c.06.07.14.12.23.16s.2.05.31.05h.14c.05 0 .08 0 .12-.01s.08-.01.12-.02.08-.02.12-.04l.03-.08v-.45l-.02-.04-.22.02c-.06 0-.11-.01-.16-.03s-.08-.04-.1-.08-.04-.08-.05-.13-.01-.11-.01-.18l.03-1.5h.56l.04-.03v-.55l-.03-.05h-.55v-.25-.24l.01-.22c.01-.07 0-.13.01-.18l-.04-.03m2.629.89c-.1 0-.19.01-.28.03a1.09 1.09 0 0 0-.25.1 1.07 1.07 0 0 0-.22.15 1.01 1.01 0 0 0-.17.19v-.1-.1c0-.03 0-.07-.01-.09s-.01-.05-.02-.07l-.06-.05h-.53l-.04.03c0 .05 0 .12.01.19s0 .14 0 .22v.23.22l-.04 2.18.05.05h.59l.05-.03.04-2.03s.08-.09.13-.13.12-.08.19-.1l.23-.07c.08-.02.17-.02.27-.02h.04.02l.07-.04v-.67l-.03-.05m1.32 2.62c-.1 0-.19-.02-.26-.04s-.13-.06-.17-.1a.42.42 0 0 1-.09-.14c-.02-.05-.03-.11-.03-.17 0-.07.01-.13.04-.18s.07-.1.12-.14.12-.07.2-.08.18-.03.29-.03h.09.08.07.07v.78l-.11.03c-.03.01-.07.02-.1.02s-.07 0-.1.01-.07 0-.11 0m0-2.64h-.23c-.07 0-.15.02-.23.03a1.08 1.08 0 0 0-.21.05 1.54 1.54 0 0 0-.19.08l-.03.06v.55l.03.04c.05-.03.11-.05.17-.07a1.21 1.21 0 0 1 .18-.05l.19-.03c.06-.01.13 0 .2 0a.64.64 0 0 1 .3.06c.08.04.13.08.17.13s.06.11.08.16.02.1.02.13v.08h-.06-.08-.1-.12c-.18 0-.36.01-.51.05a1.38 1.38 0 0 0-.41.18c-.12.08-.21.18-.27.31a1.02 1.02 0 0 0-.1.44c0 .18.03.33.08.46s.13.24.23.33a.92.92 0 0 0 .35.19 1.49 1.49 0 0 0 .43.07h.28a1.35 1.35 0 0 0 .28-.04l.3-.08c.11-.03.21-.08.33-.13v-.03-.1-.1-.1-.1l.02-1.28c0-.17-.02-.34-.06-.49s-.11-.29-.2-.4-.2-.21-.35-.27a1.53 1.53 0 0 0-.5-.11"
              class="B"/>
        <path d="M154.959 31.22l-.57.07-.04.06s-.02.09-.02.16-.01.13-.02.21l-.02.22c-.01.07 0 .14-.01.19h-.36l-.04.05v.52l.02.06h.36l-.03 1.66c0 .16.01.29.04.4a.69.69 0 0 0 .14.27c.06.07.14.12.23.16s.19.05.31.05h.13c.04 0 .08 0 .12-.01s.08-.01.11-.02.08-.02.11-.04l.03-.08v-.45l-.02-.04-.22.02c-.06 0-.11-.01-.15-.03s-.07-.04-.1-.08-.04-.08-.05-.13-.01-.11-.01-.18l.03-1.49h.55l.04-.03v-.55l-.03-.05h-.54v-.25-.24l.01-.22c.01-.07 0-.13.01-.18l-.04-.03m2.201 3.48c-.11 0-.2-.03-.29-.08a.67.67 0 0 1-.21-.2c-.06-.08-.1-.19-.13-.31s-.04-.25-.04-.4a1.31 1.31 0 0 1 .06-.41c.04-.12.08-.22.14-.31s.13-.15.21-.19.17-.06.26-.06a.54.54 0 0 1 .31.09c.09.06.15.13.21.22s.09.2.12.32.03.24.03.38a1.33 1.33 0 0 1-.06.42 1.05 1.05 0 0 1-.15.3c-.06.08-.13.14-.21.18a.54.54 0 0 1-.25.06m.05-2.58c-.21 0-.41.04-.58.12s-.32.19-.44.34-.22.32-.28.51-.1.41-.11.63c0 .2.02.4.07.59s.13.37.24.52a1.25 1.25 0 0 0 .42.37c.17.09.37.14.6.15a1.26 1.26 0 0 0 .55-.11c.17-.08.31-.18.43-.32a1.58 1.58 0 0 0 .29-.51c.07-.2.11-.42.11-.66a2 2 0 0 0-.08-.61c-.06-.19-.14-.37-.25-.51s-.25-.27-.41-.35-.35-.14-.57-.14m3.409.03c-.1 0-.19.01-.28.03a1.09 1.09 0 0 0-.25.1.8.8 0 0 0-.21.15c-.06.06-.12.12-.17.19v-.1c0-.03 0-.07-.01-.1s0-.07-.01-.09-.01-.05-.02-.07l-.06-.05h-.53l-.03.03a1.15 1.15 0 0 0 .01.18c.01.06 0 .14 0 .22v.23.21l-.04 2.17.05.05h.59l.05-.03.04-2.02s.07-.09.13-.13a1.04 1.04 0 0 1 .18-.1c.07-.03.15-.05.23-.07s.17-.02.27-.02h.04.02l.07-.04v-.66l-.04-.05"
              class="B"/>
        <path opacity=".75"
              d="M109.139 30.17c-.01.07-.03.14-.04.2s-.03.13-.05.2-.04.13-.05.2-.04.13-.06.2l-.07.23c-.02.08-.05.15-.07.23s-.05.15-.07.23-.05.15-.07.23l-.06.23-.07.22c-.03.07-.04.14-.07.21s-.05.14-.07.2l1.46.03-.03-.11-.03-.11-.03-.12-.03-.12c-.01-.04-.02-.08-.04-.13s-.02-.09-.04-.13-.02-.09-.04-.14-.03-.09-.04-.14-.02-.1-.04-.14-.02-.1-.04-.14-.02-.1-.04-.14-.03-.1-.04-.14c-.01-.05-.03-.1-.04-.14l-.04-.14c-.01-.05-.02-.09-.04-.14s-.02-.09-.04-.13c0-.05-.02-.09-.03-.13l-.03-.12-.03-.12-.03-.12m3.47 5.47l-.08-.1.08-4.78.08-.09 1.12.02.07.09-.08 4.77-.08.1-1.12-.02m-6.23-.11l-.07-.11 1.95-5.73.06-.21s0-.06.01-.1 0-.07.01-.1 0-.07 0-.1v-.1l.04-.07 1.48.03.07.06 1.97 6.43-.06.1-1.19-.02-.09-.07-.44-1.48-2.12-.04-.46 1.45-.11.09-1.07-.02m6.91-5.37c-.05 0-.09 0-.14-.02s-.09-.02-.13-.04-.08-.04-.12-.07-.08-.06-.11-.1-.06-.08-.08-.13l-.06-.14a.4.4 0 0 1-.03-.15c0-.05-.01-.1 0-.16s0-.1.02-.15.02-.1.04-.15a.54.54 0 0 1 .07-.13l.09-.11c.03-.04.07-.07.11-.09s.08-.05.12-.07.09-.03.14-.04.09-.01.14-.01.11 0 .15.02.09.02.14.04.08.04.12.07.07.06.1.1.06.08.08.12l.06.13c.02.04.03.1.03.14v.15c0 .05 0 .1-.01.16a.66.66 0 0 1-.04.15.61.61 0 0 1-.07.14c-.03.04-.06.09-.09.12s-.06.06-.1.09-.08.05-.12.07-.09.03-.13.04-.09.01-.14.01m1.63-4.74l-8.83-.19c-.34 0-.66.06-.95.19a2.51 2.51 0 0 0-.78.55c-.22.23-.41.52-.54.83s-.2.66-.21 1.03l-.16 9.28c0 .37.06.72.17 1.04s.29.61.51.85a2.52 2.52 0 0 0 .76.58c.29.14.61.22.94.22l8.83.12a2.29 2.29 0 0 0 .94-.19c.29-.13.55-.32.78-.55s.4-.52.53-.83.2-.66.21-1.02l.16-9.21c0-.37-.05-.71-.17-1.03a2.89 2.89 0 0 0-.5-.85c-.21-.25-.47-.44-.76-.58a2.28 2.28 0 0 0-.93-.23"
              fill="#ff9a00"/>
    </g>
    <defs>
        <filter id="V" x="-48.61" y=".027" width="256.42" height="154.295" filterUnits="userSpaceOnUse"
                color-interpolation-filters="sRGB">
            <feFlood flood-opacity="0" result="A"/>
            <feColorMatrix in="SourceAlpha" values="0 0 0 0 0 0 0 0 0 0 0 0 0 0 0 0 0 0 127 0"/>
            <feOffset dx="-5"/>
            <feGaussianBlur stdDeviation="5"/>
            <feColorMatrix values="0 0 0 0 0.258824 0 0 0 0 0.392157 0 0 0 0 0.658824 0 0 0 0.1 0"/>
            <feBlend in2="A" result="C"/>
            <feColorMatrix in="SourceAlpha" values="0 0 0 0 0 0 0 0 0 0 0 0 0 0 0 0 0 0 127 0"/>
            <feOffset dx="-18"/>
            <feGaussianBlur stdDeviation="9"/>
            <feColorMatrix values="0 0 0 0 0.258824 0 0 0 0 0.392157 0 0 0 0 0.658824 0 0 0 0.09 0"/>
            <feBlend in2="C" result="D"/>
            <feColorMatrix in="SourceAlpha" values="0 0 0 0 0 0 0 0 0 0 0 0 0 0 0 0 0 0 127 0"/>
            <feOffset dx="-41"/>
            <feGaussianBlur stdDeviation="12.5"/>
            <feColorMatrix values="0 0 0 0 0.258824 0 0 0 0 0.392157 0 0 0 0 0.658824 0 0 0 0.05 0"/>
            <feBlend in2="D" result="E"/>
            <feColorMatrix in="SourceAlpha" values="0 0 0 0 0 0 0 0 0 0 0 0 0 0 0 0 0 0 127 0"/>
            <feOffset dx="-73"/>
            <feGaussianBlur stdDeviation="14.5"/>
            <feColorMatrix values="0 0 0 0 0.258824 0 0 0 0 0.392157 0 0 0 0 0.658824 0 0 0 0.01 0"/>
            <feBlend in2="E"/>
            <feBlend in="SourceGraphic"/>
        </filter>
        <linearGradient id="W" x1="202.084" y1="30.049" x2="116.056" y2="163.564" xlink:href="#d">
            <stop stop-color="#000714" stop-opacity=".25"/>
            <stop offset="1" stop-color="#000714"/>
        </linearGradient>
        <linearGradient id="X" x1="162.604" y1="21.909" x2="149.031" y2="60.942" xlink:href="#d">
            <stop stop-color="#000714" stop-opacity=".25"/>
            <stop offset="1" stop-color="#000714"/>
        </linearGradient>
        <linearGradient id="Y" x1="84.165" y1="30.269" x2="49.452" y2="37.917" xlink:href="#d">
            <stop stop-color="#000714" stop-opacity=".25"/>
            <stop offset="1" stop-color="#000714"/>
        </linearGradient>
        <linearGradient id="Z" x1="65.47" y1="113.18" x2="101.772" y2="104.89" xlink:href="#d">
            <stop stop-color="#4264a8" stop-opacity=".25"/>
            <stop offset="1" stop-color="#4264a8"/>
        </linearGradient>
        <linearGradient id="a" x1="193.295" y1="30.609" x2="158.715" y2="38.496" xlink:href="#d">
            <stop stop-color="#000714" stop-opacity=".25"/>
            <stop offset="1" stop-color="#000714"/>
        </linearGradient>
        <linearGradient id="b" x1="174.609" y1="110.632" x2="210.765" y2="102.085" xlink:href="#d">
            <stop stop-color="#4264a8" stop-opacity=".25"/>
            <stop offset="1" stop-color="#4264a8"/>
        </linearGradient>
        <path id="c"
              d="M91.44 37.029l-.78.09a5.71 5.71 0 0 0 1.06-.5 5.8 5.8 0 0 0 .95-.72c.3-.28.56-.58.8-.91s.45-.69.63-1.08c.2-.44.43-.84.69-1.2a8.12 8.12 0 0 1 .84-.99c.3-.3.63-.54.97-.76s.7-.39 1.08-.52l.79-.1c-.37.13-.74.3-1.08.52a6.97 6.97 0 0 0-.98.76 5.78 5.78 0 0 0-.84.99 8.29 8.29 0 0 0-.69 1.21c-.18.39-.39.75-.63 1.08s-.51.64-.8.91-.61.51-.95.72-.69.37-1.06.51"/>
        <linearGradient id="d" gradientUnits="userSpaceOnUse"/>
    </defs>
</svg>