<svg xmlns:xlink="http://www.w3.org/1999/xlink" xmlns="http://www.w3.org/2000/svg" width="338" height="261" fill="none">
    <style><![CDATA[.B{fill:#4264a8}.C{fill:#000714}.D{fill:#fff}]]></style>
    <mask id="A" maskUnits="userSpaceOnUse" x="16" y="77" width="85" height="72">
        <path d="M16.936 148.1l8.49-70.27h74.901l-8.48 70.27h-74.91z" class="D"/>
    </mask>
    <g mask="url(#A)">
        <path d="M27.615 145.77h-2.89l-.08.68h2.89l.08-.68zm5.8 0h-2.9l-.08.68h2.9l.08-.68zm5.79 0h-2.89l-.08.68h2.89l.08-.68zm5.8 0h-2.89l-.08.68h2.89l.08-.68zm5.8 0h-2.9l-.08.68h2.9l.08-.68zm5.79 0h-2.89l-.08.68h2.89l.08-.68zm5.8 0h-2.89l-.08.68h2.89l.08-.68zm5.8 0h-2.9l-.08.68h2.9l.08-.68zm5.79 0h-2.89l-.08.68h2.89l.08-.68zm5.8 0h-2.89l-.08.68h2.89l.08-.68zm5.8 0h-2.9l-.08.68h2.9l.08-.68zm-65.12-6.17h-.73l-.33 2.72h.73l.33-2.72zm70.77-.89h-.72l-.33 2.72h.72l.33-2.72zm-70.11-4.54h-.73l-.33 2.72h.73l.33-2.72zm70.77-.89h-.72l-.33 2.72h.72l.33-2.72zm-70.11-4.55h-.73l-.33 2.72h.73l.33-2.72zm70.77-.89h-.72l-.33 2.72h.72l.33-2.72zm-70.11-4.55h-.73l-.33 2.72h.73l.33-2.72zm70.77-.89h-.72l-.33 2.72h.72l.33-2.72zm-70.11-4.54h-.73l-.33 2.72h.73l.33-2.72zm70.77-.89h-.72l-.33 2.72h.72l.33-2.72zm-70.11-4.55h-.73l-.33 2.72h.73l.33-2.72zm70.77-.89h-.72l-.33 2.72h.72l.33-2.72zm-70.11-4.55h-.73l-.33 2.72h.73l.33-2.72zm70.77-.89h-.72l-.33 2.72h.72l.33-2.72zm-70.11-4.54h-.73l-.33 2.72h.73l.33-2.72zm70.77-.89h-.72l-.33 2.72h.72l.33-2.72zm-70.11-4.55h-.73l-.33 2.72h.73l.33-2.72zm70.77-.89h-.72l-.33 2.72h.72l.33-2.72zm-70.11-4.55h-.73l-.33 2.72h.73l.33-2.72zm70.77-.89h-.72l-.33 2.72h.72l.33-2.72zm-70.11-4.54h-.73l-.33 2.72h.73l.33-2.72zm70.77-.89h-.72l-.33 2.72h.72l.33-2.72zm-71.15-1.96l-.02.13h.73v-.02a2.78 2.78 0 0 1-.72-.1m7.26-2.9h-2.89l-.08.68h2.89l.08-.68zm5.8 0h-2.89l-.08.68h2.89l.08-.68zm5.8 0h-2.9l-.08.68h2.9l.08-.68zm5.79 0h-2.89l-.08.68h2.89l.08-.68zm5.8 0h-2.89l-.08.68h2.89l.08-.68zm5.8 0h-2.9l-.08.68h2.9l.08-.68zm5.79 0h-2.89l-.08.68h2.89l.08-.68zm5.8 0h-2.89l-.08.68h2.89l.08-.68zm5.8 0h-2.9l-.08.68h2.9l.08-.68zm5.79 0h-2.89l-.08.68h2.89l.08-.68zm5.8 0h-2.89l-.08.68h2.89l.08-.68zm3.42 0h-.52l-.08.68h.42c.03-.24.09-.46.19-.68"
              class="B"/>
        <path d="M27.796 78.73c-.83 0-1.6.64-1.69 1.42s.52 1.42 1.35 1.42 1.59-.64 1.68-1.42-.51-1.42-1.34-1.42z"
              class="C"/>
        <path d="M27.455 81.57c-.83 0-1.44-.64-1.35-1.42s.86-1.42 1.69-1.42 1.44.64 1.34 1.42-.85 1.42-1.68 1.42zm.45-3.74c-1.37 0-2.61 1.04-2.77 2.32-.13 1.05.51 1.93 1.49 2.22.22.07.46.1.72.1 1.36 0 2.6-1.04 2.76-2.32s-.83-2.32-2.2-2.32z"
              class="B"/>
        <path d="M97.735 78.73c-.84 0-1.6.64-1.69 1.42s.51 1.42 1.35 1.42 1.59-.64 1.68-1.42-.51-1.42-1.34-1.42z"
              class="C"/>
        <path d="M97.396 81.57c-.84 0-1.44-.64-1.35-1.42s.85-1.42 1.69-1.42 1.44.64 1.34 1.42-.85 1.42-1.68 1.42zm.45-3.74a2.87 2.87 0 0 0-2.58 1.65c-.1.21-.16.44-.19.68-.16 1.29.83 2.32 2.21 2.32s2.6-1.04 2.76-2.32-.83-2.32-2.2-2.32"
              class="B"/>
        <path d="M89.815 144.35c-.84 0-1.6.64-1.69 1.42s.51 1.42 1.35 1.42 1.59-.64 1.68-1.42-.51-1.42-1.34-1.42z"
              class="C"/>
        <path d="M89.476 147.19c-.84 0-1.44-.64-1.35-1.42s.85-1.42 1.69-1.42 1.44.64 1.34 1.42-.85 1.42-1.68 1.42zm.45-3.75c-1.37 0-2.61 1.04-2.77 2.33s.83 2.32 2.21 2.32 2.6-1.04 2.76-2.32-.83-2.33-2.2-2.33z"
              class="B"/>
        <path d="M19.876 144.35c-.83 0-1.6.64-1.69 1.42s.52 1.42 1.35 1.42 1.59-.64 1.68-1.42-.51-1.42-1.34-1.42z"
              class="C"/>
        <path d="M19.535 147.19c-.83 0-1.44-.64-1.35-1.42s.86-1.42 1.69-1.42 1.44.64 1.34 1.42-.85 1.42-1.68 1.42zm.45-3.75c-1.37 0-2.61 1.04-2.77 2.33s.83 2.32 2.21 2.32 2.6-1.04 2.76-2.32-.83-2.33-2.2-2.33z"
              class="B"/>
    </g>
    <g filter="url(#M)">
        <mask id="B" maskUnits="userSpaceOnUse" x="18" y="129" width="5" height="4">
            <path d="M22.905 132.4a9.06 9.06 0 0 1-1.1-.61l-3.27-2.07c.35.22.72.43 1.1.61l3.27 2.07z" class="D"/>
        </mask>
        <g mask="url(#B)" class="C">
            <use xlink:href="#S"/>
        </g>
        <mask id="C" maskUnits="userSpaceOnUse" x="19" y="130" width="9" height="4">
            <path d="M27.586 133.43c-1.7 0-3.28-.37-4.68-1.03l-3.27-2.07c1.4.67 2.98 1.03 4.68 1.03l3.27 2.07z"
                  class="D"/>
        </mask>
        <g mask="url(#C)" class="C">
            <use xlink:href="#S" x="0.001"/>
        </g>
        <mask id="D" maskUnits="userSpaceOnUse" x="17" y="131" width="11" height="5">
            <path d="M20.746 133.48l-3.27-2.07c1.89 1.2 4.14 1.88 6.62 1.88l3.27 2.07c-2.48 0-4.73-.68-6.62-1.88z"
                  class="D"/>
        </mask>
        <g mask="url(#D)" class="B">
            <path d="M24.105 133.29l3.27 2.07c-2.48 0-4.73-.68-6.62-1.88l-3.27-2.07c1.89 1.2 4.14 1.88 6.62 1.88z"/>
        </g>
        <mask id="E" maskUnits="userSpaceOnUse" x="216" y="17" width="10" height="5">
            <path d="M222.235 19.55l3.27 2.07c-1.65-1.05-3.62-1.64-5.78-1.64l-3.27-2.07c2.17 0 4.13.6 5.78 1.64z"
                  class="D"/>
        </mask>
        <g mask="url(#E)" class="B">
            <path d="M222.235 19.55l3.27 2.07c-1.65-1.05-3.62-1.64-5.78-1.64l-3.27-2.07c2.17 0 4.13.6 5.78 1.64z"/>
        </g>
        <mask id="F" maskUnits="userSpaceOnUse" x="222" y="19" width="9" height="15">
            <path d="M222.235 19.55l3.27 2.07c3.53 2.24 5.61 6.54 5.05 11.49l-3.27-2.07c.56-4.94-1.51-9.25-5.05-11.49z"
                  class="D"/>
        </mask>
        <g mask="url(#F)" class="C">
            <path d="M222.235 19.55l3.27 2.07a10.97 10.97 0 0 1 1.04.75l-3.27-2.07a10.97 10.97 0 0 0-1.04-.75z"/>
            <path d="M223.275 20.3l3.27 2.07c.6.49 1.15 1.05 1.63 1.67l-3.27-2.07c-.48-.62-1.03-1.18-1.63-1.67z"/>
            <path d="M224.905 21.98l3.27 2.07c.63.81 1.16 1.71 1.56 2.69l-3.27-2.07c-.4-.98-.93-1.89-1.56-2.69z"/>
            <path d="M226.455 24.67l3.27 2.07c.77 1.89 1.08 4.06.82 6.37l-3.27-2.07c.26-2.31-.05-4.48-.82-6.37z"/>
        </g>
        <mask id="G" maskUnits="userSpaceOnUse" x="223" y="17" width="10" height="17">
            <path d="M223.296 17.86l3.27 2.07c4.06 2.57 6.45 7.51 5.81 13.17l-3.27-2.07c.64-5.66-1.75-10.6-5.81-13.17z"
                  class="D"/>
        </mask>
        <g mask="url(#G)" class="B">
            <path d="M223.296 17.86l3.27 2.07c.42.26.82.55 1.19.86l-3.27-2.07a12.38 12.38 0 0 0-1.19-.86z"/>
            <path d="M224.496 18.73l3.27 2.07a12.27 12.27 0 0 1 1.88 1.93l-3.27-2.07c-.56-.71-1.19-1.36-1.88-1.93z"/>
            <path d="M226.366 20.65l3.27 2.07c.73.93 1.33 1.97 1.79 3.1l-3.27-2.07c-.46-1.13-1.06-2.17-1.79-3.1z"/>
            <path d="M228.156 23.75l3.27 2.07c.88 2.16 1.24 4.64.94 7.28l-3.27-2.07c.3-2.64-.06-5.12-.94-7.28z"/>
        </g>
        <path d="M203.605 131.36l3.27 2.07H27.585l-3.27-2.07h179.29z" class="C"/>
        <path d="M203.385 133.29l3.27 2.07H27.366l-3.26-2.07h179.279z" class="B"/>
        <path d="M227.285 31.04l3.26 2.07-9.87 87.18-3.27-2.07 9.88-87.18z" class="C"/>
        <path d="M229.106 31.04l3.26 2.07-9.87 87.18-3.27-2.07 9.88-87.18z" class="B"/>
        <path d="M216.456 17.91c6.8 0 11.65 5.88 10.83 13.13l-9.87 87.19c-.82 7.25-7 13.14-13.8 13.14h-179.3c-6.8 0-11.65-5.89-10.83-13.14l9.88-87.19c.82-7.25 7-13.13 13.8-13.13h179.29z"
              fill="url(#N)"/>
        <mask id="H" maskUnits="userSpaceOnUse" x="203" y="118" width="18" height="16">
            <path d="M217.405 118.22l3.27 2.07c-.82 7.25-7 13.14-13.8 13.14l-3.27-2.07c6.8 0 12.98-5.89 13.8-13.14z"
                  class="D"/>
        </mask>
        <g mask="url(#H)" class="C">
            <path d="M217.406 118.22l3.27 2.07-.11.8-3.27-2.07.11-.8z"/>
            <path d="M217.296 119.02l3.27 2.07c-.19 1.14-.52 2.23-.95 3.28l-3.27-2.07c.44-1.04.76-2.14.95-3.28z"/>
            <path d="M216.346 122.3l3.27 2.07c-.34.81-.75 1.59-1.22 2.32l-3.27-2.07c.47-.73.88-1.51 1.22-2.32z"/>
            <path d="M215.126 124.62l3.27 2.07a15.99 15.99 0 0 1-1.53 2.02l-3.27-2.07a15.99 15.99 0 0 0 1.53-2.02z"/>
            <path d="M213.596 126.64l3.27 2.07a15.08 15.08 0 0 1-2.08 1.92l-3.27-2.07a15.73 15.73 0 0 0 2.08-1.92z"/>
            <path d="M211.516 128.56l3.27 2.07c-2.29 1.75-5.05 2.8-7.92 2.8l-3.27-2.07c2.87 0 5.62-1.05 7.92-2.8z"/>
        </g>
        <mask id="I" maskUnits="userSpaceOnUse" x="203" y="118" width="20" height="18">
            <path d="M219.226 118.22l3.27 2.07c-.94 8.31-8.05 15.07-15.84 15.07l-3.27-2.07c7.79 0 14.9-6.75 15.84-15.07z"
                  class="D"/>
        </mask>
        <g mask="url(#I)" class="B">
            <path d="M219.226 118.22l3.27 2.07-.13.92-3.27-2.07.13-.92z"/>
            <path d="M219.096 119.14l3.27 2.07c-.22 1.3-.59 2.56-1.09 3.75l-3.27-2.07c.5-1.19.87-2.45 1.09-3.75z"/>
            <path d="M218.006 122.88l3.27 2.07c-.39.93-.86 1.82-1.39 2.66l-3.27-2.07c.54-.84 1-1.73 1.39-2.66z"/>
            <path d="M216.615 125.54l3.27 2.07c-.52.82-1.11 1.6-1.76 2.32l-3.27-2.07a18.37 18.37 0 0 0 1.76-2.32z"/>
            <path d="M214.856 127.86l3.27 2.07c-.73.81-1.53 1.56-2.39 2.21l-3.27-2.07a17.84 17.84 0 0 0 2.39-2.21z"/>
            <path d="M212.466 130.07l3.27 2.07c-2.63 2.01-5.8 3.21-9.08 3.21l-3.27-2.07c3.29 0 6.45-1.2 9.08-3.21z"/>
        </g>
        <path d="M216.665 15.98c7.79 0 13.371 6.75 12.431 15.06l-9.871 87.19c-.94 8.31-8.05 15.07-15.84 15.07H24.106c-7.79 0-13.36-6.75-12.42-15.07l9.87-87.19c.94-8.3 8.04-15.06 15.83-15.06h179.29-.011zm.741 102.24l9.869-87.19c.821-7.25-4.03-13.13-10.83-13.13H37.166c-6.8 0-12.98 5.88-13.8 13.13l-9.88 87.19c-.82 7.25 4.03 13.14 10.83 13.14h179.289c6.801 0 12.98-5.89 13.801-13.14z"
              class="B"/>
    </g>
    <mask id="J" maskUnits="userSpaceOnUse" x="20" y="2" width="203" height="101">
        <path d="M20.985 102.87L32.375 2.29h189.94l-11.39 100.58H20.985z" class="D"/>
    </mask>
    <g mask="url(#J)">
        <path opacity=".15"
              d="M119.485 3.01h-32.46c-2.97 0-5.66 2.56-6.02 5.73l-3.92 34.6c-.36 3.16 1.75 5.72 4.72 5.72h32.46c2.97 0 5.66-2.56 6.01-5.72l3.92-34.6c.36-3.16-1.75-5.73-4.72-5.73"
              class="B"/>
        <path d="M70.805 3.01h-32.47c-2.96 0-5.66 2.56-6.02 5.73l-3.92 34.6c-.36 3.16 1.76 5.72 4.72 5.72h32.46c2.97 0 5.66-2.56 6.01-5.72l3.92-34.6c.36-3.16-1.75-5.73-4.72-5.73"
              fill="url(#O)"/>
        <path d="M33.126 49.06c-2.96 0-5.08-2.56-4.72-5.72l3.92-34.6c.36-3.16 3.05-5.73 6.02-5.73h32.46c2.97 0 5.08 2.56 4.72 5.73l-3.92 34.6c-.36 3.16-3.05 5.72-6.01 5.72h-32.47zm37.76-46.77h-32.47c-3.34 0-6.37 2.89-6.77 6.45l-3.92 34.6c-.4 3.56 1.98 6.44 5.31 6.44h32.46c3.34 0 6.38-2.89 6.78-6.44l3.92-34.6c.4-3.56-1.99-6.45-5.32-6.45"
              fill="url(#P)" fill-opacity=".75"/>
        <path opacity=".6"
              d="M111.015 56.1h-76.23c-4.32 0-8.25 3.74-8.78 8.35l-3.32 29.36c-.52 4.61 2.56 8.35 6.89 8.35h76.23c4.32 0 8.25-3.74 8.78-8.35l3.32-29.36c.52-4.61-2.56-8.35-6.89-8.35z"
              class="B"/>
        <path opacity=".15"
              d="M214.355 3.01h-27.45c-4.35 0-8.31 3.76-8.83 8.4l-9.32 82.33c-.53 4.64 2.58 8.4 6.93 8.4h27.45c4.35 0 8.3-3.76 8.83-8.4l9.32-82.33c.52-4.63-2.58-8.4-6.93-8.4z"
              class="B"/>
        <path opacity=".6"
              d="M168.175 3.01h-32.46c-2.97 0-5.67 2.56-6.02 5.73l-3.92 34.6c-.36 3.16 1.76 5.72 4.73 5.72h32.46c2.96 0 5.66-2.56 6.01-5.72l3.92-34.6c.36-3.16-1.76-5.73-4.72-5.73z"
              class="B"/>
        <path d="M132.406 102.15h-2.72l-.08.72h2.72l.08-.72zm5.44 0h-2.72l-.08.72h2.72l.08-.72zm5.44 0h-2.72l-.08.72h2.72l.08-.72zm5.43 0h-2.72l-.08.72h2.72l.08-.72zm5.44 0h-2.72l-.08.72h2.72l.08-.72zm-29.91 0l-.11.73h.26 2.49l.08-.72h-2.49-.1-.11m35.32-.67l-.24.12h-.02-.02-.02-.02-.02-.03c-.52.23-1.08.38-1.66.44h-.04-.08-.02-.02-.1-.02-.1-.1-.07l-.08.72h.07c1 0 2.02-.26 2.95-.77l-.25-.63m-39.43-2.23l-.64.36c.4.95 1.03 1.76 1.84 2.32l.43-.62c-.72-.5-1.28-1.22-1.63-2.06zm42.77-2.45l-.1.45v.03.02.02.02.02.02.02.02.02.02.02.02.02.02.02.02.02.02.02.02.02.03.02h-.01v.02l-.01.02v.02l-.02.04v.03l-.06.14-.05.13-.07.17v.03l-.03.03v.02h-.01v.03l-.02.02v.02l-.02.02v.02l-.01.02v.03h-.02l-.01.03v.02h-.01v.03.02.02l-.02.02v.02.02.02l-.02.02v.02l-.02.03c-.13.25-.28.5-.45.72l.53.4c.66-.92 1.11-1.98 1.29-3.08l-.67-.04m-42.83-3.22h-.68l-.32 2.85v.05h.67v-.04l.32-2.85m44.17-2.57h-.68l-.33 2.89h.68l.33-2.89zm-43.52-3.22h-.68l-.33 2.89h.68l.33-2.89zm44.18-2.58h-.68l-.33 2.89h.68l.33-2.89zm-43.52-3.22h-.68l-.33 2.89h.68l.33-2.89zm44.18-2.58h-.68l-.33 2.9h.68l.33-2.9zm-43.52-3.22h-.68l-.33 2.9h.68l.33-2.9zm44.17-2.57h-.68l-.33 2.89h.68l.33-2.89zm-43.52-3.22h-.68l-.33 2.89h.68l.33-2.89zm44.18-2.58h-.68l-.33 2.89h.68l.33-2.89zm-43.52-3.22h-.68l-.33 2.89h.68l.33-2.89zm44.18-2.58h-.68l-.33 2.9h.68l.33-2.9zm-43.35-3.44a7.58 7.58 0 0 0-1.18 3.11l.68.02c.01-.13.04-.25.06-.37v-.03-.02-.02-.02-.02-.02-.02-.02-.02-.02-.02V61v-.02-.02-.02-.02-.02-.02-.02-.02-.02l.01-.02c.1-.38.23-.76.4-1.11l.01-.03v-.02-.02h.01v-.02-.02-.02-.02-.02-.02-.02-.02-.02l.36-.6-.55-.37m41.31-2.1l-.45.61.09.06v.02h.02l.02.02v.02h.02v.02h.02v.02.02.02.02.02h.02v.02.02.02c.34.36.62.77.84 1.22v.02h.01v.02.02.02.02.02.02.02.02.02.02l.1.23.64-.33c-.36-.96-.95-1.8-1.73-2.42m-35.9-1.1c-1.02.03-2.07.35-3.01.9l.28.63c.22-.13.44-.24.68-.35h.02.02.02.02.02.02.02.02.02.02.02.02.02.02.02.02.02.02.02.02.02.02.02.02.02l.02-.02h.02c.45-.14.91-.22 1.38-.23l.06-.73m5.46 0h-2.72l-.08.72h2.72l.08-.72zm5.44 0h-2.72l-.08.72h2.72l.08-.72zm5.44 0h-2.72l-.08.72h2.72l.08-.72zm5.43 0h-2.72l-.08.72h2.72l.08-.72zm5.44 0h-2.72l-.08.72h2.72l.08-.72zm5.44 0h-2.72l-.08.72h2.72.03.1.06.02.02l.2.02.14-.72c-.17-.02-.341-.03-.51-.03"
              class="B"/>
    </g>
    <mask id="K" maskUnits="userSpaceOnUse" x="41" y="109" width="149" height="46">
        <path d="M41.045 154.96l5.54-45.9h142.72l-5.54 45.9H41.045z" class="D"/>
    </mask>
    <g mask="url(#K)">
        <path d="M121.124 129.22h-1.86a.12.12 0 0 0-.14.12l-.82 6.79c-.01.09.03.15.12.15h1.84c.08 0 .13-.05.14-.15l.82-6.79-.11-.12m38.45-.09c-.67 0-1.24.09-1.7.3-.43.18-.81.46-1.09.82-.24.33-.4.69-.44 1.06-.05.31-.01.62.1.91.15.29.36.55.63.75.38.26.79.47 1.25.63.44.17.73.3.87.42.13.11.2.23.18.35-.02.16-.14.31-.3.38-.18.07-.44.12-.8.12s-.75-.04-1.1-.13c-.4-.09-.77-.23-1.11-.43h-.08l-.05.07-.19 1.53.08.17a3.76 3.76 0 0 0 .92.28c.42.08.84.11 1.26.11.68 0 1.25-.09 1.74-.28a2.84 2.84 0 0 0 1.15-.78c.29-.35.47-.76.51-1.17.05-.32 0-.63-.11-.91-.14-.3-.36-.55-.65-.73a6.36 6.36 0 0 0-1.37-.64l-.63-.29a1.16 1.16 0 0 1-.29-.24l-.07-.23.11-.24c.07-.09.18-.15.31-.18.16-.04.34-.06.5-.06h.07c.36 0 .7.04 1.04.11.31.07.61.15.87.3h.17l.06-.09.17-1.44v-.11l-.09-.08c-.24-.1-.51-.16-.78-.2a8.92 8.92 0 0 0-1.16-.07m-47.73 3.15l.57-1.23.59-1.31a9.48 9.48 0 0 0 .45-1.13h.02l.13.69.16.78.18.82.16.75.14.64h-2.39m3.02-5.3h-2.43l-.09.1c-.02.19-.06.38-.12.57-.06.11-.09.2-.13.29l-4.01 8.16c-.04.11-.02.16.08.16h1.76l.2-.12.96-2.07h3.49l.51 2.1.14.1h1.96c.1 0 .13-.05.11-.15l-2.33-9.08-.11-.07m36.11 1.7h.64.07a2.84 2.84 0 0 1 1.02.18 1.14 1.14 0 0 1 .59.51c.13.24.16.51.12.78-.05.38-.18.69-.4.91-.24.22-.52.39-.83.46-.36.11-.73.16-1.1.16h-.5c-.11 0-.23 0-.37-.02l.36-2.96a1.38 1.38 0 0 1 .25-.02h.14m.78-1.74h-.86l-.82.02c-.25.02-.49 0-.71.02h-.52l-.11.1-1.09 9.07.1.11h1.82l.12-.12.34-2.83h.41.47c.77 0 1.48-.08 2.15-.3.63-.21 1.21-.58 1.64-1.08.43-.49.7-1.12.79-1.88a2.91 2.91 0 0 0-.08-1.14c-.1-.38-.29-.73-.57-1-.32-.33-.72-.58-1.17-.73-.5-.19-1.13-.27-1.9-.27m-31.19-.68c-.31 0-.62.11-.88.31-.24.2-.4.49-.42.78a1.03 1.03 0 0 0 .21.82c.19.2.47.31.77.31h.03.06c.29 0 .6-.11.83-.31a1.25 1.25 0 0 0 .43-.82.98.98 0 0 0-.22-.78c-.18-.2-.45-.31-.81-.31zm-47.589 16.21c-2.05 0-3.53-1.56-3.3-3.49s2.09-3.48 4.14-3.48h3.72l-.42 3.48c-.23 1.93-2.08 3.49-4.14 3.49zm33.67-.15c-2.21 0-3.79-1.67-3.54-3.74l1.58-13.13c.25-2.07 2.23-3.74 4.44-3.74h14.56c2.21 0 3.79 1.67 3.54 3.74l-1.58 13.13c-.25 2.07-2.23 3.74-4.44 3.74h-14.56zm39.16 0c-2.21 0-3.8-1.67-3.55-3.74l1.58-13.13c.25-2.07 2.24-3.74 4.45-3.74h14.55c2.21 0 3.8 1.67 3.55 3.74l-1.58 13.13c-.25 2.07-2.24 3.74-4.45 3.74h-14.55zm-66.589-20.78h3.72c2.05 0 3.53 1.57 3.3 3.49s-2.09 3.49-4.14 3.49h-3.72l-.42 3.49c.23-1.93 2.09-3.49 4.14-3.49s3.53 1.56 3.3 3.49-2.09 3.49-4.14 3.49-3.53-1.57-3.3-3.49l-.42 3.49h-3.72c-2.05 0-3.53-1.57-3.3-3.49s2.09-3.49 4.14-3.49c-2.05 0-3.53-1.57-3.3-3.49s2.09-3.49 4.14-3.49h3.72zm85.5-11.57H70.935c-12.98 0-24.69 9.87-26.16 22.05s7.86 22.05 20.84 22.05h93.789c12.98 0 24.69-9.87 26.16-22.05s-7.86-22.05-20.84-22.05"
              fill="url(#Q)"/>
        <path d="M65.615 154.06c-12.98 0-22.31-9.87-20.84-22.05s13.18-22.05 26.16-22.05h93.79c12.98 0 22.31 9.87 20.84 22.05s-13.18 22.05-26.16 22.05h-93.79zm99.22-45h-93.79c-13.49 0-25.71 10.29-27.23 22.95-1.53 12.65 8.2 22.95 21.69 22.95h93.79c13.49 0 25.71-10.3 27.23-22.95s-8.2-22.95-21.69-22.95z"
              fill="url(#R)" fill-opacity=".75"/>
        <g opacity=".75">
            <mask id="L" maskUnits="userSpaceOnUse" x="69" y="121" width="18" height="22">
                <path d="M71.725 121.43h15.02l-2.55 21.15h-15.02l2.55-21.15z" class="D"/>
            </mask>
            <g mask="url(#L)">
                <path d="M82.105 128.52c-2.05 0-3.91 1.56-4.14 3.49s1.25 3.49 3.3 3.49 3.91-1.57 4.14-3.49-1.25-3.49-3.3-3.49z"
                      fill="#24a6e8"/>
                <path d="M77.535 135.5h-3.72c-2.05 0-3.91 1.56-4.14 3.48s1.25 3.49 3.3 3.49 3.91-1.56 4.14-3.49l.42-3.48z"
                      fill="#18b48c"/>
                <path d="M82.945 121.54h-3.72l-.84 6.98h3.72c2.05 0 3.91-1.57 4.14-3.49s-1.25-3.49-3.3-3.49z"
                      fill="#d06e74"/>
                <path d="M79.225 121.54h-3.72c-2.05 0-3.91 1.57-4.14 3.49s1.25 3.49 3.3 3.49h3.72l.84-6.98z"
                      fill="#c65441"/>
                <path d="M78.385 128.52h-3.72c-2.05 0-3.91 1.56-4.14 3.49s1.25 3.49 3.3 3.49h3.72l.42-3.49.42-3.49z"
                      fill="#8a5ce9"/>
            </g>
        </g>
        <path opacity=".75"
              d="M113.465 128.61h-.02c-.12.38-.27.76-.45 1.13l-.59 1.31c-.18.45-.37.86-.57 1.23h2.39l-.14-.64-.16-.75-.18-.82-.16-.78-.13-.69m4.96 7.67c-.1 0-.13-.06-.12-.15l.82-6.79c0-.08.05-.12.14-.12h1.86l.11.12-.82 6.79c-.01.1-.06.15-.14.15h-1.84m-10.27 0c-.1 0-.12-.06-.08-.16l4.01-8.16c.04-.09.07-.19.13-.29.06-.19.1-.38.12-.57l.09-.1h2.43l.11.07 2.33 9.08c.01.1-.02.15-.11.15h-1.96l-.14-.1-.51-2.1h-3.49l-.96 2.07-.2.12h-1.76m12.09-7.78c-.3 0-.58-.11-.77-.31a1.02 1.02 0 0 1-.21-.82 1.19 1.19 0 0 1 .42-.78c.26-.2.57-.31.88-.31.37 0 .63.11.81.31.18.21.26.5.22.78-.03.3-.18.6-.43.82-.23.2-.54.31-.83.31h-.06-.03zm3.45-6.79h-14.56c-2.21 0-4.19 1.67-4.44 3.74l-1.58 13.13c-.25 2.07 1.33 3.74 3.54 3.74h14.56c2.21 0 4.19-1.67 4.44-3.74l1.58-13.13c.25-2.07-1.33-3.74-3.54-3.74z"
              fill="#d08c2a"/>
        <path opacity=".75"
              d="M151.674 128.67h-.07-.64-.14c-.12 0-.2 0-.25.02l-.36 2.96c.14 0 .26.02.37.02h.5a4.12 4.12 0 0 0 1.1-.16c.31-.07.59-.24.83-.46.22-.22.35-.52.4-.91.04-.28 0-.55-.12-.78a1.14 1.14 0 0 0-.59-.51 2.84 2.84 0 0 0-1.02-.18m6.62 6.18c.36 0 .61-.05.8-.12.16-.07.28-.21.3-.38.01-.12-.05-.24-.18-.35-.14-.11-.43-.24-.87-.42-.46-.15-.88-.37-1.25-.63-.27-.2-.48-.46-.63-.75-.11-.29-.15-.6-.1-.91.05-.38.2-.73.44-1.06.28-.36.66-.64 1.09-.82.46-.21 1.03-.3 1.7-.3a9.03 9.03 0 0 1 1.16.07c.27.04.54.11.78.2l.09.08v.11l-.17 1.44-.06.09h-.17c-.26-.15-.55-.24-.87-.3-.34-.07-.68-.11-1.04-.11h-.07c-.16 0-.34.02-.5.06-.13.03-.24.09-.31.18l-.11.24.07.23c.08.1.18.18.29.24l.63.29a6.36 6.36 0 0 1 1.37.64c.29.19.51.43.65.73.11.28.16.59.11.91-.04.42-.22.82-.51 1.17-.3.35-.71.62-1.15.78-.48.19-1.06.28-1.74.28-.43 0-.85-.03-1.26-.11a3.63 3.63 0 0 1-.92-.28l-.08-.17.19-1.53.05-.07h.08a3.68 3.68 0 0 0 1.11.44 4.42 4.42 0 0 0 1.1.13m-10.56 1.42l-.1-.11 1.09-9.07.11-.1h.52l.71-.02c.25-.02.53 0 .82-.02h.86c.77 0 1.4.08 1.9.27.45.15.86.4 1.17.73.27.28.46.62.57 1 .09.37.13.75.08 1.14-.09.76-.36 1.39-.79 1.88-.43.5-1.01.86-1.64 1.08-.67.22-1.38.3-2.15.3h-.47-.41l-.34 2.83-.12.12h-1.82m15.12-14.58h-14.55c-2.21 0-4.2 1.67-4.45 3.74l-1.58 13.13c-.25 2.07 1.34 3.74 3.55 3.74h14.55c2.21 0 4.2-1.67 4.45-3.74l1.58-13.13c.25-2.07-1.34-3.74-3.55-3.74z"
              fill="#3597e9"/>
    </g>
    <defs>
        <filter id="M" x=".582" y="4.98" width="356.889" height="255.38" filterUnits="userSpaceOnUse"
                color-interpolation-filters="sRGB">
            <feFlood flood-opacity="0"/>
            <feGaussianBlur stdDeviation="5"/>
            <feComposite in2="SourceAlpha" operator="in" result="B"/>
            <feColorMatrix in="SourceAlpha" values="0 0 0 0 0 0 0 0 0 0 0 0 0 0 0 0 0 0 127 0"/>
            <feOffset dx="5" dy="5"/>
            <feGaussianBlur stdDeviation="8"/>
            <feColorMatrix values="0 0 0 0 0.239216 0 0 0 0 0.356863 0 0 0 0 0.6 0 0 0 0.1 0"/>
            <feBlend in2="B" result="D"/>
            <feColorMatrix in="SourceAlpha" values="0 0 0 0 0 0 0 0 0 0 0 0 0 0 0 0 0 0 127 0"/>
            <feOffset dx="20" dy="20"/>
            <feGaussianBlur stdDeviation="14"/>
            <feColorMatrix values="0 0 0 0 0.239216 0 0 0 0 0.356863 0 0 0 0 0.6 0 0 0 0.09 0"/>
            <feBlend in2="D" result="E"/>
            <feColorMatrix in="SourceAlpha" values="0 0 0 0 0 0 0 0 0 0 0 0 0 0 0 0 0 0 127 0"/>
            <feOffset dx="45" dy="45"/>
            <feGaussianBlur stdDeviation="19"/>
            <feColorMatrix values="0 0 0 0 0.239216 0 0 0 0 0.356863 0 0 0 0 0.6 0 0 0 0.05 0"/>
            <feBlend in2="E" result="F"/>
            <feColorMatrix in="SourceAlpha" values="0 0 0 0 0 0 0 0 0 0 0 0 0 0 0 0 0 0 127 0"/>
            <feOffset dx="80" dy="80"/>
            <feGaussianBlur stdDeviation="22.5"/>
            <feColorMatrix values="0 0 0 0 0.239216 0 0 0 0 0.356863 0 0 0 0 0.6 0 0 0 0.01 0"/>
            <feBlend in2="F"/>
            <feBlend in="SourceGraphic"/>
        </filter>
        <linearGradient id="N" x1="227.376" y1="17.91" x2="132.998" y2="195.152" xlink:href="#T">
            <stop stop-color="#000714"/>
            <stop offset="1" stop-color="#000714" stop-opacity=".25"/>
        </linearGradient>
        <linearGradient id="O" x1="75.545" y1="3.01" x2="29.388" y2="50.111" xlink:href="#T">
            <stop stop-color="#000714"/>
            <stop offset="1" stop-color="#000714" stop-opacity=".25"/>
        </linearGradient>
        <linearGradient id="P" x1="76.239" y1="2.29" x2="28.636" y2="50.758" xlink:href="#T">
            <stop stop-color="#4264a8" stop-opacity=".1"/>
            <stop offset="1" stop-color="#4264a8"/>
        </linearGradient>
        <linearGradient id="Q" x1="185.717" y1="109.95" x2="160.451" y2="190.444" xlink:href="#T">
            <stop stop-color="#000714"/>
            <stop offset="1" stop-color="#000714" stop-opacity=".25"/>
        </linearGradient>
        <linearGradient id="R" x1="186.681" y1="109.06" x2="159.811" y2="192.434" xlink:href="#T">
            <stop stop-color="#4264a8" stop-opacity=".1"/>
            <stop offset="1" stop-color="#4264a8"/>
        </linearGradient>
        <path id="S" d="M24.315 131.36l3.27 2.07c-2.16 0-4.13-.6-5.78-1.64l-3.27-2.07c1.65 1.05 3.61 1.64 5.78 1.64z"/>
        <linearGradient id="T" gradientUnits="userSpaceOnUse"/>
    </defs>
</svg>