<svg xmlns:xlink="http://www.w3.org/1999/xlink" xmlns="http://www.w3.org/2000/svg" width="217" height="134" fill="none">
    <style><![CDATA[.B{fill:#4264a8}.C{fill:#000714}.D{fill:#fff}.E{opacity:.75}.F{fill-opacity:.75}]]></style>
    <mask id="A" maskUnits="userSpaceOnUse" x="1" y="24" width="33" height="94">
        <path d="M1.78 116.72V25.66l31.83-.81v92.68l-31.83-.81z" class="D"/>
    </mask>
    <g mask="url(#A)">
        <path d="M17.551 26.259a13.85 13.85 0 0 0-5.82 1.44c-1.78.88-3.38 2.12-4.72 3.64a17.21 17.21 0 0 0-3.17 5.29c-.75 1.98-1.16 4.15-1.16 6.41v56.29c0 2.27.41 4.43 1.16 6.41a17.21 17.21 0 0 0 3.17 5.29c1.34 1.52 2.94 2.76 4.72 3.64a13.85 13.85 0 0 0 5.82 1.44c2.07.05 4.05-.36 5.86-1.16s3.44-1.98 4.81-3.45 2.49-3.25 3.26-5.23 1.2-4.17 1.2-6.47v-57.22a17.9 17.9 0 0 0-1.2-6.48c-.77-1.99-1.89-3.75-3.26-5.23s-3.01-2.66-4.81-3.45-3.79-1.21-5.86-1.16z"
              fill="url(#L)"/>
        <path d="M17.55 116.129a13.85 13.85 0 0 1-5.82-1.44c-1.78-.88-3.38-2.12-4.72-3.64a17.21 17.21 0 0 1-3.17-5.29c-.75-1.98-1.16-4.15-1.16-6.409v-56.3c0-2.27.41-4.43 1.16-6.41s1.83-3.78 3.17-5.29 2.94-2.77 4.72-3.64 3.75-1.39 5.82-1.44 4.05.36 5.86 1.16 3.44 1.98 4.81 3.45 2.49 3.25 3.26 5.23a17.86 17.86 0 0 1 1.2 6.48v57.23c0 2.31-.43 4.489-1.2 6.469s-1.89 3.75-3.26 5.23a14.69 14.69 0 0 1-4.81 3.45c-1.8.8-3.79 1.21-5.86 1.16zm0-90.859a14.82 14.82 0 0 0-6.16 1.53c-1.89.93-3.59 2.25-5.01 3.87a18.48 18.48 0 0 0-3.37 5.61c-.79 2.1-1.23 4.39-1.23 6.79v56.26c0 2.4.44 4.69 1.23 6.79s1.94 4 3.37 5.61 3.12 2.93 5.01 3.87 3.98 1.48 6.16 1.53 4.3-.38 6.21-1.23 3.65-2.1 5.11-3.66 2.64-3.45 3.46-5.55 1.27-4.42 1.27-6.859V42.57c0-2.44-.45-4.76-1.27-6.86s-2-3.98-3.46-5.55-3.19-2.82-5.11-3.66-4.01-1.28-6.21-1.23z"
              fill="url(#M)" class="F"/>
    </g>
    <g filter="url(#K)">
        <mask id="B" maskUnits="userSpaceOnUse" x="166" y="105" width="2" height="1">
            <path d="M167.93 105.15l-.74.08c-.09 0-.17.02-.26.03l-.26.02c-.08.01-.18 0-.27 0h-.27l.74-.09h.27.27c.09 0 .18 0 .26-.02s.17-.02.26-.03v.01z"
                  class="D"/>
        </mask>
        <g mask="url(#B)" class="B">
            <path d="M166.13 105.29l.74-.09h.05.05.05.05l-.74.09h-.05-.05-.05-.05z"/>
            <path d="M166.34 105.29l.74-.09h.21.21c.07 0 .14 0 .21-.02s.14-.01.21-.02l-.74.08c-.07 0-.14.02-.21.02s-.14.01-.21.02-.14 0-.21 0h-.22"/>
        </g>
        <mask id="C" maskUnits="userSpaceOnUse" x="166" y="28" width="2" height="1">
            <path d="M167.19 28.4l.74.08c-.09 0-.17-.02-.26-.03l-.26-.02c-.09-.01-.18 0-.27 0h-.27l-.74-.09h.27.27c.09 0 .18 0 .26.02s.17.02.26.03v.01z"
                  class="D"/>
        </mask>
        <g mask="url(#C)" class="B">
            <path d="M167.19 28.4l.74.08c-.09 0-.17-.02-.26-.03l-.26-.02c-.09-.01-.18 0-.27 0h-.27l-.74-.09h.27.27c.09 0 .18 0 .26.02s.17.02.26.03"/>
        </g>
        <mask id="D" maskUnits="userSpaceOnUse" x="167" y="96" width="9" height="10">
            <path d="M167.929 105.15l-.74.08c1.03-.12 2-.44 2.87-.92s1.66-1.13 2.32-1.91 1.19-1.68 1.55-2.67a9.43 9.43 0 0 0 .56-3.22l.73-.07a9.37 9.37 0 0 1-.56 3.21c-.36.99-.89 1.89-1.55 2.67s-1.44 1.42-2.32 1.9-1.84.8-2.87.92l.01.01z"
                  class="D"/>
        </mask>
        <g mask="url(#D)" class="C">
            <path d="M174.489 96.52l.73-.07v.07.07.07.07l-.73.07v-.07-.07-.07-.07z"/>
            <path d="M174.49 96.81l.73-.07-.02.41-.04.4-.05.39-.07.39-.73.07.07-.39.05-.39.04-.4.02-.41z"/>
            <path d="M174.31 98.4l.73-.07c-.02.12-.05.23-.08.35l-.09.34-.1.34c-.03.11-.08.22-.12.33l-.73.07.12-.33c.04-.11.07-.22.1-.34l.09-.34.08-.35z"/>
            <path d="M173.919 99.77l.73-.07-.13.34c-.04.12-.09.22-.14.33l-.16.32-.17.31-.73.08.17-.31c.06-.1.11-.21.16-.32l.14-.33.13-.34"/>
            <path d="M173.31 101.07l.73-.08-.21.36c-.07.12-.15.23-.23.34l-.24.33c-.08.11-.17.21-.26.32l-.73.08c.09-.1.17-.21.26-.32s.16-.22.24-.33l.23-.34c.08-.11.14-.24.21-.36z"/>
            <path d="M172.37 102.42l.73-.08a8.92 8.92 0 0 1-1.07 1.06c-.38.32-.8.6-1.24.84s-.9.44-1.38.59-.98.26-1.49.32l-.74.08c.51-.06 1.01-.17 1.49-.32s.94-.35 1.38-.59a7.95 7.95 0 0 0 1.24-.84c.39-.32.75-.67 1.08-1.06z"/>
        </g>
        <path d="M174.49 37.12l.73.06v59.27l-.73.07v-59.4z" class="C"/>
        <mask id="E" maskUnits="userSpaceOnUse" x="167" y="28" width="9" height="10">
            <path d="M167.189 28.4l.74.08c1.02.12 1.99.44 2.87.92s1.66 1.13 2.32 1.9 1.18 1.68 1.55 2.67.56 2.08.56 3.21l-.73-.07a9.47 9.47 0 0 0-.56-3.22c-.36-1-.89-1.9-1.55-2.67s-1.44-1.42-2.32-1.91-1.85-.8-2.87-.92l-.01.01z"
                  class="D"/>
        </mask>
        <g mask="url(#E)" class="C">
            <path d="M167.189 28.4l.74.08s.06 0 .08.01.06 0 .08.01.06 0 .08.01.05 0 .08.01l-.74-.08s-.05 0-.08-.01-.06 0-.08-.01-.06 0-.08-.01-.06 0-.08-.01z"/>
            <path d="M167.52 28.44l.74.08.34.06c.12.02.22.05.33.08l.33.09.32.1-.74-.08-.32-.1-.33-.09-.33-.08c-.11-.03-.22-.04-.34-.06z"/>
            <path d="M168.829 28.77l.74.08.32.12.31.13.3.14.3.16-.73-.08-.3-.16-.3-.14-.31-.13-.32-.12"/>
            <path d="M170.06 29.32l.73.08.33.19.32.21.31.22.3.24-.73-.08-.3-.24c-.1-.08-.2-.15-.31-.22l-.32-.21-.33-.19z"/>
            <path d="M171.32 30.18l.73.08.41.37.39.39c.13.13.25.28.36.42l.34.44-.73-.08-.34-.45-.37-.42-.39-.39-.41-.37"/>
            <path d="M172.829 31.8l.73.08.48.75c.15.26.28.53.4.8l.33.85a6.88 6.88 0 0 1 .24.89l-.73-.07-.24-.9c-.09-.3-.2-.58-.33-.85l-.41-.8-.48-.75"/>
            <path d="M174.279 35.11l.73.07.09.49.07.5.04.51.01.51-.73-.07-.01-.52-.04-.51-.07-.5-.09-.49"/>
        </g>
        <path d="M166.13 28.35c1.15-.02 2.25.2 3.25.63a8.2 8.2 0 0 1 2.66 1.86c.76.79 1.37 1.74 1.8 2.81s.66 2.23.66 3.47v59.4a9.44 9.44 0 0 1-.66 3.47 8.78 8.78 0 0 1-1.8 2.81 8.05 8.05 0 0 1-2.66 1.86c-1 .43-2.1.66-3.25.63l-113.84-2.34c-1.01-.02-1.98-.27-2.86-.71s-1.66-1.07-2.33-1.83-1.2-1.67-1.56-2.68a9.65 9.65 0 0 1-.57-3.25V39.17c0-1.15.2-2.25.57-3.25s.9-1.91 1.56-2.68 1.45-1.39 2.33-1.83a6.64 6.64 0 0 1 2.86-.71l113.84-2.34v-.01z"
              fill="url(#N)"/>
        <mask id="F" maskUnits="userSpaceOnUse" x="167" y="96" width="10" height="11">
            <path d="M168.08 106.17l-.74.09c1.14-.13 2.22-.49 3.2-1.03s1.85-1.27 2.58-2.13 1.32-1.87 1.72-2.98.63-2.32.63-3.58l.72-.07c0 1.26-.22 2.47-.63 3.57s-.99 2.11-1.72 2.97-1.6 1.59-2.58 2.13-2.05.9-3.19 1.03h.01z"
                  class="D"/>
        </mask>
        <g mask="url(#F)" class="B">
            <path d="M175.47 96.53l.72-.07v.08.08.08.08l-.72.07v-.08-.08-.08-.08z"/>
            <path d="M175.46 96.861l.72-.07-.02.45-.04.44-.06.44c-.02.15-.05.29-.08.43l-.73.07.08-.43.06-.44.04-.45.02-.45"/>
            <path d="M175.26 98.631l.73-.07-.09.39-.1.38c-.03.12-.07.25-.12.38l-.13.371-.73.07c.05-.12.09-.251.13-.37l.12-.38.1-.38.09-.39z"/>
            <path d="M174.82 100.151l.73-.07-.15.37-.16.37a3.02 3.02 0 0 1-.18.36l-.19.35-.73.08c.07-.11.13-.23.19-.35l.18-.36a4.12 4.12 0 0 0 .16-.37l.15-.38z"/>
            <path d="M174.15 101.61l.73-.08-.24.4-.26.38-.27.37-.29.36-.73.08.29-.36.27-.37c.09-.12.17-.25.26-.39l.24-.4"/>
            <path d="M173.09 103.121l.73-.08c-.36.43-.76.82-1.19 1.18a7.95 7.95 0 0 1-1.38.93c-.49.26-1 .49-1.53.66a8.97 8.97 0 0 1-1.65.36l-.74.09a8.97 8.97 0 0 0 1.65-.36c.53-.17 1.04-.4 1.53-.66s.95-.58 1.38-.94a10.28 10.28 0 0 0 1.2-1.18z"/>
        </g>
        <path d="M175.47 37.1l.72.07v59.3l-.72.06V37.1z" class="B"/>
        <mask id="G" maskUnits="userSpaceOnUse" x="167" y="27" width="10" height="11">
            <path d="M167.34 27.38l.74.09a8.55 8.55 0 0 1 3.19 1.03c.97.54 1.85 1.26 2.58 2.12a9.75 9.75 0 0 1 1.72 2.97c.4 1.1.63 2.31.63 3.58l-.72-.07c0-1.27-.22-2.48-.63-3.58s-.99-2.12-1.72-2.98-1.6-1.59-2.58-2.13-2.05-.9-3.2-1.03h-.01z"
                  class="D"/>
        </mask>
        <g mask="url(#G)" class="B">
            <path d="M167.34 27.38l.74.09s.06 0 .08.01.06 0 .08.01.06 0 .08.01.06 0 .08.01l-.74-.09s-.06 0-.08-.01-.06 0-.08-.01-.06 0-.08-.01-.06 0-.08-.01z"/>
            <path d="M167.68 27.42l.74.09.37.07.37.08.36.1.36.11-.74-.09-.36-.11-.36-.1-.37-.08-.37-.07z"/>
            <path d="M169.14 27.79l.74.09.35.13.35.15.34.16.33.17-.73-.09-.33-.17-.34-.16-.35-.15-.35-.13"/>
            <path d="M170.52 28.4l.73.09.37.21.36.23.34.25.33.26-.73-.08-.33-.26-.35-.25-.36-.23-.37-.21"/>
            <path d="M171.92 29.35l.73.08.46.41.44.44c.15.15.28.31.41.47l.38.5-.73-.08-.38-.5-.41-.47-.44-.44-.46-.41z"/>
            <path d="M173.609 31.17l.73.08a9.13 9.13 0 0 1 .53.84l.45.9.36.95.27 1-.73-.07c-.07-.34-.16-.68-.27-1l-.36-.95a9.44 9.44 0 0 0-.45-.9 9.13 9.13 0 0 0-.53-.84"/>
            <path d="M175.229 34.86l.731.07.099.54.071.55.049.56.02.57-.72-.07-.019-.57-.05-.57-.071-.56c-.02-.19-.059-.37-.099-.54"/>
        </g>
        <path d="M166.13 27.32c1.28-.03 2.51.23 3.62.71s2.12 1.19 2.97 2.08 1.53 1.95 2.01 3.13.74 2.49.74 3.87v59.43c0 1.37-.26 2.68-.74 3.87a9.72 9.72 0 0 1-2.01 3.13c-.85.88-1.85 1.6-2.97 2.08s-2.34.73-3.62.71l-113.84-2.41c-1.13-.02-2.21-.31-3.18-.8s-1.86-1.19-2.59-2.05-1.33-1.87-1.75-2.99-.64-2.34-.64-3.62V39.18c0-1.28.23-2.51.64-3.62a9.81 9.81 0 0 1 1.75-2.99c.74-.86 1.62-1.56 2.59-2.05s2.05-.78 3.18-.8l113.84-2.41v.01zm8.36 69.2v-59.4a9.44 9.44 0 0 0-.66-3.47 8.78 8.78 0 0 0-1.8-2.81 8.05 8.05 0 0 0-2.66-1.86c-1-.43-2.1-.66-3.25-.63L52.28 30.69c-1.01.02-1.98.27-2.86.71s-1.66 1.07-2.33 1.83-1.2 1.67-1.56 2.68a9.65 9.65 0 0 0-.57 3.25v55.3c0 1.15.2 2.25.57 3.25s.9 1.91 1.56 2.68 1.45 1.39 2.33 1.83a6.64 6.64 0 0 0 2.86.71l113.84 2.34c1.15.02 2.25-.2 3.25-.63a8.2 8.2 0 0 0 2.66-1.86c.76-.79 1.37-1.74 1.8-2.81s.66-2.23.66-3.47"
              class="B"/>
    </g>
    <mask id="H" maskUnits="userSpaceOnUse" x="48" y="16" width="123" height="106">
        <path d="M48.83 118.46V20.25l121.6-3.41v105.02l-121.6-3.4z" class="D"/>
    </mask>
    <g mask="url(#H)">
        <path opacity=".15"
              d="M102.69 19.73l-20.26.56c-.46.01-.89.13-1.29.33s-.75.48-1.05.82a3.89 3.89 0 0 0-.71 1.2 4.1 4.1 0 0 0-.26 1.45v22.38c0 .51.09 1 .26 1.44s.41.84.71 1.17a3.31 3.31 0 0 0 1.05.78 3.08 3.08 0 0 0 1.29.28l20.26-.22c.47 0 .92-.11 1.32-.31s.77-.47 1.08-.82.56-.75.73-1.2.27-.95.27-1.47V23.4c0-.52-.1-1.01-.27-1.46a3.66 3.66 0 0 0-.73-1.18c-.31-.34-.67-.6-1.08-.78s-.85-.27-1.32-.26"
              class="B"/>
        <path d="M164.64 89.98l-50.09-.55c-.69 0-1.35.14-1.95.41s-1.14.67-1.59 1.16a5.47 5.47 0 0 0-1.07 1.73 5.97 5.97 0 0 0-.39 2.13v19.3a6.08 6.08 0 0 0 .39 2.15c.25.66.62 1.27 1.07 1.78s.99.93 1.59 1.22a4.76 4.76 0 0 0 1.95.49l50.09 1.39c.73.02 1.42-.12 2.06-.39a5.08 5.08 0 0 0 1.69-1.17 5.55 5.55 0 0 0 1.14-1.77 5.9 5.9 0 0 0 .42-2.2V95.72c0-.78-.15-1.53-.42-2.22a5.78 5.78 0 0 0-1.14-1.82 5.25 5.25 0 0 0-1.69-1.23c-.64-.29-1.33-.46-2.06-.47z"
              fill="url(#O)"/>
        <path d="M114.55 119.8c-.69-.02-1.35-.19-1.95-.49a5.24 5.24 0 0 1-1.59-1.22 5.71 5.71 0 0 1-1.07-1.78 6.12 6.12 0 0 1-.39-2.15v-19.3a5.93 5.93 0 0 1 .39-2.13 5.47 5.47 0 0 1 1.07-1.73c.45-.49.99-.89 1.59-1.16s1.25-.42 1.95-.41l50.09.55a4.82 4.82 0 0 1 2.06.47c.64.3 1.21.72 1.69 1.23s.87 1.14 1.14 1.82.42 1.43.42 2.22v19.94a5.9 5.9 0 0 1-.42 2.2 5.55 5.55 0 0 1-1.14 1.77 5.08 5.08 0 0 1-1.69 1.17c-.64.27-1.33.41-2.06.39l-50.09-1.39zm50.09-30.33l-50.09-.54a5.04 5.04 0 0 0-2.12.45 5.38 5.38 0 0 0-1.73 1.27c-.49.54-.89 1.18-1.17 1.89a6.35 6.35 0 0 0-.43 2.33v19.29c0 .83.15 1.62.43 2.34s.67 1.38 1.17 1.94 1.08 1.01 1.73 1.33 1.37.51 2.12.53l50.09 1.4a5.42 5.42 0 0 0 2.24-.42 5.45 5.45 0 0 0 1.84-1.28 6.29 6.29 0 0 0 1.25-1.93c.3-.73.46-1.54.46-2.4V95.72a6.51 6.51 0 0 0-.46-2.42 6.23 6.23 0 0 0-1.25-1.98c-.53-.56-1.15-1.03-1.84-1.35a5.48 5.48 0 0 0-2.24-.51"
              fill="url(#P)" class="F"/>
        <path d="M72.47 20.56l-19.59.54c-.44.01-.86.13-1.24.32s-.73.47-1.01.81-.52.74-.68 1.18-.25.92-.25 1.42v22.01c0 .5.09.98.25 1.42s.4.82.68 1.15.63.59 1.01.77.8.28 1.24.27l19.59-.21a2.97 2.97 0 0 0 1.28-.3c.4-.19.75-.47 1.04-.8s.54-.74.7-1.18a4.23 4.23 0 0 0 .26-1.44V24.17a3.95 3.95 0 0 0-.26-1.43c-.17-.44-.41-.83-.7-1.16s-.65-.59-1.04-.76-.82-.27-1.28-.25"
              fill="url(#Q)"/>
        <path d="M52.88 50.45a2.88 2.88 0 0 1-1.24-.27c-.38-.18-.73-.44-1.01-.77s-.52-.72-.68-1.15a4.07 4.07 0 0 1-.25-1.42V24.83c0-.5.09-.98.25-1.42s.4-.84.68-1.18.63-.61 1.01-.81.8-.31 1.24-.32l19.59-.54a3.08 3.08 0 0 1 1.28.25c.4.17.75.44 1.04.76a3.56 3.56 0 0 1 .7 1.16c.16.44.26.92.26 1.43v22.33c0 .51-.09 1-.26 1.44s-.41.84-.7 1.18-.65.61-1.04.8-.82.3-1.28.3l-19.59.21m19.59-30.83l-19.59.55a3.66 3.66 0 0 0-1.57.41 4.38 4.38 0 0 0-1.29 1.03c-.37.43-.66.93-.87 1.49s-.32 1.16-.32 1.8v22c0 .64.11 1.24.32 1.79s.5 1.04.87 1.46.8.75 1.29.97a3.83 3.83 0 0 0 1.57.35l19.59-.2c.57 0 1.12-.14 1.62-.38a4.08 4.08 0 0 0 1.32-1.02 4.89 4.89 0 0 0 .89-1.5c.21-.57.33-1.18.33-1.82V24.15c0-.64-.12-1.25-.33-1.81a4.58 4.58 0 0 0-.89-1.46 4.07 4.07 0 0 0-1.32-.97c-.5-.23-1.04-.34-1.62-.32z"
              fill="url(#R)" class="F"/>
        <path opacity=".3"
              d="M101.13 54.53l-46.78.38c-.65 0-1.26.16-1.82.43s-1.06.67-1.48 1.15a5.53 5.53 0 0 0-1 1.7c-.24.64-.37 1.34-.37 2.07v18.66c0 .73.13 1.43.37 2.07a5.65 5.65 0 0 0 1 1.7 4.56 4.56 0 0 0 1.48 1.15c.56.27 1.17.43 1.82.43l46.78.4c.68 0 1.33-.14 1.93-.41a4.72 4.72 0 0 0 1.57-1.16c.44-.49.81-1.08 1.06-1.74a6.01 6.01 0 0 0 .39-2.13V59.97a5.93 5.93 0 0 0-.39-2.13c-.25-.65-.61-1.24-1.06-1.74s-.98-.89-1.57-1.16a4.46 4.46 0 0 0-1.93-.41z"
              class="B"/>
        <path opacity=".15"
              d="M164.611 18.03l-18.35.5a4.98 4.98 0 0 0-2.03.5 5.42 5.42 0 0 0-1.65 1.25c-.47.52-.85 1.14-1.11 1.82s-.41 1.42-.41 2.2v55.1a5.92 5.92 0 0 0 .41 2.19 5.91 5.91 0 0 0 1.11 1.8 5.17 5.17 0 0 0 1.65 1.22c.62.29 1.31.45 2.03.46l18.35.16a5.08 5.08 0 0 0 2.07-.43c.63-.28 1.21-.7 1.7-1.21a5.46 5.46 0 0 0 1.14-1.81c.27-.69.42-1.43.42-2.22V23.59c0-.79-.15-1.53-.42-2.21s-.66-1.28-1.14-1.78-1.06-.91-1.7-1.18a4.96 4.96 0 0 0-2.07-.39z"
              class="B"/>
        <path d="M133.951 18.88l-20.97.58c-.47.01-.92.13-1.33.33s-.78.49-1.09.84-.56.76-.73 1.22-.27.95-.27 1.47v22.76c0 .52.1 1.01.27 1.46s.42.85.73 1.19.68.61 1.09.8a3 3 0 0 0 1.33.28l20.97-.23c.48 0 .94-.12 1.36-.31a3.48 3.48 0 0 0 1.12-.83c.32-.35.58-.76.75-1.22s.28-.96.28-1.49V22.6a3.98 3.98 0 0 0-.28-1.48 3.99 3.99 0 0 0-.75-1.2 3.26 3.26 0 0 0-1.12-.79c-.42-.18-.88-.28-1.36-.26"
              class="B"/>
        <path opacity=".15"
              d="M102.69 89.3l-20.26-.22c-.46 0-.89.09-1.29.28s-.75.45-1.05.78-.54.73-.71 1.17-.26.93-.26 1.44v22.38a4.1 4.1 0 0 0 .26 1.45 4.01 4.01 0 0 0 .71 1.2 3.44 3.44 0 0 0 1.05.82c.39.2.83.31 1.29.33l20.26.56c.47.01.92-.08 1.32-.26s.77-.44 1.08-.78.56-.73.73-1.17.27-.94.27-1.46V93.1c0-.52-.1-1.02-.27-1.47s-.42-.86-.73-1.2-.67-.62-1.08-.82a3.12 3.12 0 0 0-1.32-.31z"
              class="B"/>
        <path d="M56.911 118.2l-1.71-.05v.48l1.71.05v-.48zm3.44.1l-1.72-.05v.48l1.72.05v-.48zm3.44.1l-1.72-.05v.48l1.72.05v-.48zm3.46.1l-1.73-.05v.48l1.73.05v-.48zm3.48.1l-1.74-.05v.48l1.74.05v-.48zm-18.91-.73l-.14.45.29.11.3.08.3.05.31.02.62.02v-.48l-.62-.02h-.02-.02-.02-.02-.02m22.32.32l-.02.02a2.53 2.53 0 0 1-.37.18l-.39.13-.41.08c-.14.02-.28.02-.42.02v.49l.49-.02a4.05 4.05 0 0 0 .48-.09c.16-.04.31-.1.46-.17a3.75 3.75 0 0 0 .44-.24l-.22-.43m-24.41-3.21l-.42.08.11.54c.05.18.11.35.17.51s.15.33.23.49.18.31.28.45l.33-.3v-.02-.02-.02-.02-.02-.02-.02-.02l-.02-.03-.18-.34c-.06-.12-.1-.24-.15-.36s-.08-.25-.11-.38l-.08-.4m26.47-.01h-.43v.08.02.02.02.02.02.02.02.02.02.02.02.02.02.02.02.02.02.02.02.02.02.02.02.03.02.04.02.02.02.03.02.02.04.04l-.04.21a1.17 1.17 0 0 1-.05.2l-.06.2c-.02.07-.05.13-.07.19v.02.02.02.02.02.02.02.02.02.02.02.02l-.03.05.38.26a3.48 3.48 0 0 0 .21-.48l.15-.5a4.34 4.34 0 0 0 .09-.52 4.71 4.71 0 0 0 .03-.53v-.09m-26.5-3.86h-.43v1.93h.43v-1.93zm26.5-.07h-.43v1.95h.43v-1.95zm-26.5-3.8h-.43v1.92h.43v-1.92zm26.5-.13h-.43v1.96h.43v-1.96zm-26.5-3.74h-.43v1.93h.43v-1.93zm26.5-.18h-.43v1.95h.43v-1.95zm-26.5-3.68h-.43v1.93h.43v-1.93zm26.5-.25h-.43v1.96h.43v-1.96zm-26.5-3.62h-.43v1.93h.43v-1.93zm26.5-.31h-.43v1.96h.43V95.7zm-26.88-3.65c0 .06-.02.11-.02.17a.88.88 0 0 1-.02.17c-.01.05 0 .12 0 .18v.18 1.32h.43v-1.32-.02-.02-.02-.03-.02-.02-.02-.03-.02-.02-.03-.02-.07-.03-.03l.02-.23-.41-.08m26.64-.43l-.41.17.06.18c.02.06.03.12.05.19s.03.13.04.19l.03.2v.04.04.04.02.03.02.03.02.02.02.02.02.02.02.02.02.02.02.02.02.02.02.02.65h.43v-.63l-.01-.38-.04-.37-.07-.37-.1-.36m-24.27-2.74a4.54 4.54 0 0 0-.45.21c-.15.08-.28.17-.41.28l-.38.34a3.09 3.09 0 0 0-.33.39l.32.31c.09-.12.19-.23.29-.34s.22-.2.33-.29.24-.17.36-.24.26-.13.39-.19l-.14-.46m21.33.05l-.06.48c.05 0 .1.02.15.03s.1.02.15.04.1.03.15.04a.58.58 0 0 1 .14.05h.02c.07.03.14.07.21.11s.14.08.2.13.13.09.19.14l.18.16.28-.38a4.23 4.23 0 0 0-.41-.33 2.82 2.82 0 0 0-.44-.26l-.46-.19a4.21 4.21 0 0 0-.48-.12m-17.8-.24l-1.71-.02v.48l1.71.02v-.48zm3.42.04l-1.71-.02v.48l1.71.02v-.48zm3.44.04l-1.73-.02v.48l1.73.02v-.48zm3.45.04l-1.73-.02v.48l1.73.02v-.48zm3.47.04l-1.74-.02v.48l1.74.02v-.48zm3.48.04l-1.74-.02v.48l1.74.02v-.49m43.699-3.97l-1.84-.02v.5l1.84.02v-.5zm3.67.03l-1.84-.02v.5l1.84.02v-.5zm3.69.03l-1.85-.02v.5l1.85.02v-.5zm3.7.03l-1.85-.02v.5l1.85.02v-.5zm3.71.03l-1.86-.02v.5l1.86.02v-.5zm-20.22-.39l-.16.47.32.11.32.08.33.05.33.02h.66v-.49h-.66-.02-.02m23.87-.12c-.12.08-.25.15-.39.2l-.41.14a2.98 2.98 0 0 1-.43.09 3.4 3.4 0 0 1-.45.03v.5c.18 0 .35 0 .53-.03l.52-.11c.17-.05.34-.11.5-.18a4.23 4.23 0 0 0 .47-.25l-.24-.44m-26.11-2.83l-.45.08a4.88 4.88 0 0 0 .12.55 4.72 4.72 0 0 0 .18.53c.07.17.15.34.25.5l.31.46.34-.32a3.42 3.42 0 0 1-.26-.4c-.08-.14-.15-.29-.22-.44s-.12-.31-.16-.47l-.11-.5m28.32-.54h-.47v.09.02.02.02.02.02.02.02.02.02.02.02.02.02.02.02.02.02.02.03.02.04.03.02a2.2 2.2 0 0 1-.06.37l-.09.36c-.03.12-.08.23-.12.34s-.1.22-.15.32l.41.26.22-.5c.07-.17.12-.34.16-.52l.1-.54a5.07 5.07 0 0 0 .03-.55v-.09m-28.37-3.47h-.45v2.01h.45v-2.01zm28.37-.59h-.47v2.03h.47v-2.03zm-28.37-3.41h-.45v2h.45v-2zm28.37-.67h-.47v2.04h.47v-2.04zm-28.37-3.33h-.45v2h.45v-2zm28.37-.73h-.47v2.03h.47v-2.03zm-28.37-3.28h-.45v2h.45v-2zm28.37-.78h-.47v2.03h.47v-2.03zm-28.37-3.22h-.45v2h.45v-2zm28.37-.85h-.47v2.03h.47v-2.03zm-28.77-3.23c0 .06-.02.12-.02.18s-.01.12-.02.18 0 .12 0 .18v.18 1.36h.45v-1.36-.02-.02-.02-.02-.02-.02-.02-.02-.02-.02-.04-.02-.03l.02-.17v-.02-.04-.02-.02-.02l-.45-.09m28.52-.98l-.44.19.04.14c.01.05.03.09.04.14s.02.1.04.15.02.1.03.15v.05l.02.05v.05.05.02.04.04.02.03.02.03.02.04.02.02.02.02.02.02.02.02.02.02.02.02.02.02.02.02.68h.47v-.66c0-.13 0-.26-.02-.39l-.05-.38-.08-.38c-.03-.13-.07-.25-.11-.37m-25.98-2.34c-.16.06-.32.14-.47.23l-.44.29c-.14.1-.28.23-.4.36l-.36.41.35.31.11-.15v-.02-.02-.02-.02-.02l.06-.08c.02-.03.04-.04.07-.06s.05-.04.07-.06.05-.04.07-.06v-.02l.02-.02v-.02h.02l.15-.11.16-.09.16-.08c.05-.03.11-.05.16-.07l-.16-.48m22.83-.38l-.07.5c.16.02.31.06.46.11l.44.17.41.23.38.29.29-.4c-.14-.12-.28-.23-.44-.33s-.31-.19-.47-.26l-.5-.19a4.37 4.37 0 0 0-.52-.12m-19.06.12l-1.82.02v.5l1.82-.01v-.5m3.67-.03l-1.83.02v.5l1.83-.02v-.5zm3.68-.03l-1.84.02v.5l1.84-.02v-.5zm3.7-.03l-1.86.02v.5l1.86-.02v-.5zm3.71-.03l-1.85.02v.5l1.85-.02v-.5zm3.73-.03l-1.87.02v.5l1.87-.02v-.5z"
              class="B"/>
    </g>
    <mask id="I" maskUnits="userSpaceOnUse" x="10" y="39" width="15" height="64">
        <path d="M10.87 102.46V39.94l13.42-.23v62.98l-13.42-.23z" class="D"/>
    </mask>
    <g mask="url(#I)">
        <mask id="J" maskUnits="userSpaceOnUse" x="13" y="39" width="10" height="16">
            <path d="M13.101 39.9l8.94-.15v14.84l-8.94.08V39.9z" class="D"/>
        </mask>
        <g mask="url(#J)">
            <path d="M19.781 44.75c-.31 0-.6.08-.86.21a2.31 2.31 0 0 0-.71.54 2.74 2.74 0 0 0-.48.79 2.54 2.54 0 0 0-.17.95c0 .33.06.66.17.95a2.44 2.44 0 0 0 .48.77 2.11 2.11 0 0 0 .71.51c.27.12.56.18.86.18s.6-.08.86-.2.5-.31.71-.53.36-.49.48-.78a2.52 2.52 0 0 0 .17-.96 2.67 2.67 0 0 0-.17-.95c-.11-.29-.27-.55-.48-.77s-.44-.4-.71-.52-.56-.18-.86-.18"
                  fill="#1abcfe" class="E"/>
            <path d="M17.551 49.67l-2.21.03a2.05 2.05 0 0 0-.86.2c-.26.12-.5.31-.7.53s-.36.49-.47.78a2.67 2.67 0 0 0-.17.95c0 .34.06.65.17.94s.27.55.47.77.44.4.7.52.56.19.86.18.6-.07.86-.2a2.4 2.4 0 0 0 .7-.53c.2-.22.36-.49.47-.78a2.67 2.67 0 0 0 .17-.95v-2.45"
                  fill="#0acf83" class="E"/>
            <path d="M19.781 39.86l-2.22.04v4.89l2.22-.03a2.05 2.05 0 0 0 .86-.2c.26-.12.5-.31.71-.53s.36-.49.48-.78a2.52 2.52 0 0 0 .17-.96 2.67 2.67 0 0 0-.17-.95c-.11-.29-.27-.55-.48-.77s-.44-.39-.71-.51-.56-.18-.86-.18"
                  fill="#ff7262" class="E"/>
            <path d="M17.551 39.9l-2.21.04c-.31 0-.6.08-.86.21a2.27 2.27 0 0 0-.7.54 2.58 2.58 0 0 0-.47.78c-.11.29-.17.62-.17.95s.06.66.17.95.27.55.47.77.44.39.7.51a2.07 2.07 0 0 0 .86.18l2.21-.03v-4.89"
                  fill="#f24e1e" class="E"/>
            <path d="M17.551 44.78l-2.21.03a2.05 2.05 0 0 0-.86.2c-.26.12-.5.31-.7.53s-.36.49-.47.78-.17.62-.17.95.06.66.17.95.27.55.47.77.44.39.7.51a2.07 2.07 0 0 0 .86.18l2.21-.03v-4.89"
                  fill="#a259ff" class="E"/>
        </g>
        <path d="M16.301 68.91c-.01.07-.03.13-.04.2s-.03.13-.05.2l-.05.2-.06.2-.06.22-.06.23-.06.23c-.02.08-.04.15-.07.23l-.06.23-.06.22-.06.21-.06.2h1.42l-.03-.1-.03-.11-.03-.11c-.01-.03-.02-.08-.04-.12-.01-.04-.02-.08-.04-.12s-.02-.09-.04-.13-.03-.09-.04-.14-.03-.09-.04-.14-.02-.09-.04-.14-.03-.09-.04-.14-.03-.09-.04-.14-.03-.09-.04-.14-.02-.09-.04-.14-.03-.09-.04-.14-.03-.09-.04-.14l-.03-.13-.03-.13-.03-.12-.03-.12-.03-.11m3.5 5.37l-.08-.1v-4.76l.07-.08h1.11l.07.08v4.76l-.07.1h-1.1zm-6.1-.02l-.06-.11 1.8-5.71.06-.2s.01-.07.02-.1 0-.07.01-.1 0-.07 0-.1v-.1l.04-.06h1.45l.07.04 2.04 6.36-.06.1h-1.17l-.09-.07-.46-1.47h-2.08l-.42 1.44-.11.08h-1.05m6.62-5.44s-.09 0-.13-.01-.08-.02-.12-.04-.08-.04-.11-.07-.07-.06-.1-.09l-.09-.12c-.03-.04-.04-.09-.06-.14s-.03-.1-.04-.15-.01-.1-.01-.15 0-.1.01-.15.02-.1.04-.15.04-.09.06-.13.06-.08.09-.12.07-.07.11-.09.08-.05.12-.07.09-.03.13-.04.09-.01.14-.01a.81.81 0 0 1 .16.01c.05.01.09.02.14.04s.08.04.12.07a.9.9 0 0 1 .1.09l.09.12c.03.04.04.09.06.13s.03.1.03.15v.15.15a.42.42 0 0 1-.04.15l-.06.14a.54.54 0 0 1-.09.12c-.03.03-.07.07-.1.09s-.08.05-.12.07-.08.03-.13.04-.09.01-.13.01m1.58-4.77l-8.67.03a2.18 2.18 0 0 0-.92.21 2.27 2.27 0 0 0-.75.56c-.21.24-.39.52-.51.83s-.19.66-.19 1.02v9.16c0 .36.07.7.19 1.02s.29.59.51.83.47.43.75.56a2.18 2.18 0 0 0 .92.21l8.67.03a2.25 2.25 0 0 0 .93-.2c.29-.13.54-.32.76-.56a2.62 2.62 0 0 0 .51-.83c.12-.31.19-.66.19-1.02v-9.23c0-.36-.07-.71-.19-1.02a2.69 2.69 0 0 0-.51-.83c-.21-.23-.47-.43-.76-.56a2.25 2.25 0 0 0-.93-.2"
              fill="#ff9a00" class="E"/>
        <path d="M15.761 93h-.04-.04-.11-.1-.09-.08-.08-.06-.05-.04v2.07l.22.02h.29.16c.05 0 .11-.01.16-.02l.16-.03c.05-.01.1-.03.16-.05.04-.01.09-.03.13-.05s.08-.04.12-.07l.11-.09c.04-.03.07-.07.1-.11s.06-.08.08-.12.04-.09.05-.15l.03-.17c.01-.06 0-.13 0-.2v-.14c0-.05-.01-.09-.02-.14s-.02-.09-.04-.14-.04-.09-.06-.13-.05-.08-.08-.11-.06-.07-.09-.1a.7.7 0 0 0-.1-.08c-.03-.02-.08-.05-.12-.07l-.14-.05-.15-.04c-.05-.01-.1-.02-.15-.02h-.15m4.36 4.38h.15c.05 0 .09 0 .13-.01s.07-.01.11-.02.06-.02.08-.03.04-.03.06-.04.04-.04.05-.06.02-.05.03-.07.01-.05.01-.08v-.07c0-.03-.01-.04-.03-.06s-.03-.04-.04-.06-.04-.04-.06-.06-.05-.04-.08-.06-.07-.05-.12-.07-.1-.05-.15-.08-.12-.06-.19-.09l-.21-.09a1.28 1.28 0 0 1-.2-.11l-.19-.12-.19-.13c-.04-.03-.09-.07-.13-.11a.69.69 0 0 1-.11-.13c-.03-.05-.07-.09-.1-.14l-.09-.15a.88.88 0 0 1-.05-.15l-.04-.16c-.01-.06-.02-.11-.02-.16v-.16c0-.07 0-.13.01-.2s.02-.13.04-.19l.06-.18c.02-.06.05-.12.08-.17a.94.94 0 0 1 .12-.18c.05-.06.09-.11.14-.15s.1-.09.16-.13.11-.07.17-.1a2 2 0 0 1 .21-.1c.07-.03.15-.05.24-.06l.26-.04c.09-.01.19 0 .28 0h.18c.06 0 .12 0 .17.01s.12.01.17.02l.17.03c.04 0 .09.02.13.03l.12.03c.04.01.08.03.12.04a.37.37 0 0 1 .11.05l.06.05.02.07v1.01l-.03.06h-.1l-.13-.07-.13-.06a.58.58 0 0 0-.14-.05c-.05-.01-.09-.03-.14-.04l-.15-.03-.16-.03-.16-.02c-.05-.01-.11 0-.16 0h-.08-.09c-.03 0-.06 0-.09.01s-.06.01-.08.02l-.17.12-.05.16.06.16.2.17s.06.04.09.05.07.03.1.05.07.03.1.05.07.03.1.05a2.29 2.29 0 0 1 .23.1l.22.11.21.12.21.13a.69.69 0 0 1 .13.11l.12.12c.04.04.07.09.1.14l.09.15.06.15a.75.75 0 0 1 .04.16c.01.06.02.11.02.16v.17l-.01.22c-.01.08-.02.14-.04.21s-.04.14-.07.2-.06.13-.1.19l-.13.18c-.05.06-.1.1-.15.15s-.11.09-.17.12-.12.07-.18.09c-.07.03-.14.06-.22.08l-.24.06c-.08.02-.17.03-.27.03h-.29-.19c-.06 0-.13-.01-.19-.02l-.19-.03c-.06-.01-.13-.02-.19-.04-.05 0-.1-.02-.15-.03s-.1-.03-.15-.05l-.14-.06-.14-.07-.07-.12v-1.07l.02-.05h.05c.06.04.11.07.17.1l.17.09c.06.03.12.05.18.07l.18.06c.05.02.11.03.16.04l.17.03.17.02c.06.01.11 0 .17 0m-6.18.91l-.07-.08v-6.34l.05-.06h.07.07.08.09.1.1.11.11.11.12.13.13.13.13.13.13l.33.01.3.04.27.06c.08.02.17.05.25.09l.21.09a.76.76 0 0 1 .19.12l.18.14c.06.05.11.1.17.16.04.05.09.1.13.16s.08.11.11.17.07.12.09.18a1.54 1.54 0 0 0 .08.19c.02.07.04.13.05.2s.03.13.04.2l.03.2c.01.07 0 .14 0 .21s0 .26-.02.38l-.06.35c-.02.11-.06.21-.1.31s-.09.19-.15.27c-.06.09-.12.17-.19.24l-.21.21c-.07.07-.16.12-.24.17s-.17.09-.26.13-.19.07-.29.09l-.31.06c-.11.02-.21.02-.32.03s-.22 0-.34 0h-.09-.08-.06-.05-.05-.06-.07-.07v1.98l-.06.09-1.08-.02m7.96-10.11l-8.67-.08a2.17 2.17 0 0 0-.92.2c-.28.13-.54.32-.75.55a2.64 2.64 0 0 0-.51.82 2.79 2.79 0 0 0-.19 1.01v9.16c0 .36.07.71.19 1.02s.29.6.51.84.47.43.75.57.59.22.92.22l8.67.15c.33 0 .64-.06.93-.19s.54-.32.76-.55.39-.51.51-.83.19-.66.19-1.02v-9.23c0-.36-.07-.71-.19-1.03a2.74 2.74 0 0 0-.51-.84c-.21-.24-.47-.43-.76-.57a2.11 2.11 0 0 0-.93-.21"
              fill="#31a8ff" class="E"/>
    </g>
    <defs>
        <filter id="K" x="39.13" y=".31" width="232.069" height="133.021" filterUnits="userSpaceOnUse"
                color-interpolation-filters="sRGB">
            <feFlood flood-opacity="0" result="A"/>
            <feColorMatrix in="SourceAlpha" values="0 0 0 0 0 0 0 0 0 0 0 0 0 0 0 0 0 0 127 0"/>
            <feOffset dx="4"/>
            <feGaussianBlur stdDeviation="4.5"/>
            <feColorMatrix values="0 0 0 0 0.258824 0 0 0 0 0.392157 0 0 0 0 0.658824 0 0 0 0.1 0"/>
            <feBlend in2="A" result="C"/>
            <feColorMatrix in="SourceAlpha" values="0 0 0 0 0 0 0 0 0 0 0 0 0 0 0 0 0 0 127 0"/>
            <feOffset dx="17"/>
            <feGaussianBlur stdDeviation="8.5"/>
            <feColorMatrix values="0 0 0 0 0.258824 0 0 0 0 0.392157 0 0 0 0 0.658824 0 0 0 0.09 0"/>
            <feBlend in2="C" result="D"/>
            <feColorMatrix in="SourceAlpha" values="0 0 0 0 0 0 0 0 0 0 0 0 0 0 0 0 0 0 127 0"/>
            <feOffset dx="38"/>
            <feGaussianBlur stdDeviation="11.5"/>
            <feColorMatrix values="0 0 0 0 0.258824 0 0 0 0 0.392157 0 0 0 0 0.658824 0 0 0 0.05 0"/>
            <feBlend in2="D" result="E"/>
            <feColorMatrix in="SourceAlpha" values="0 0 0 0 0 0 0 0 0 0 0 0 0 0 0 0 0 0 127 0"/>
            <feOffset dx="68"/>
            <feGaussianBlur stdDeviation="13.5"/>
            <feColorMatrix values="0 0 0 0 0.258824 0 0 0 0 0.392157 0 0 0 0 0.658824 0 0 0 0.01 0"/>
            <feBlend in2="E"/>
            <feBlend in="SourceGraphic"/>
        </filter>
        <linearGradient id="L" x1="32.681" y1="26.255" x2="-21.257" y2="44.187" xlink:href="#S">
            <stop stop-color="#000714"/>
            <stop offset="1" stop-color="#000714" stop-opacity=".25"/>
        </linearGradient>
        <linearGradient id="M" x1="33.6" y1="25.266" x2="-23.178" y2="44.849" xlink:href="#S">
            <stop stop-color="#4264a8" stop-opacity=".1"/>
            <stop offset="1" stop-color="#4264a8"/>
        </linearGradient>
        <linearGradient id="N" x1="174.5" y1="28.349" x2="106.621" y2="142.135" xlink:href="#S">
            <stop stop-color="#000714"/>
            <stop offset="1" stop-color="#000714" stop-opacity=".25"/>
        </linearGradient>
        <linearGradient id="O" x1="169.95" y1="89.43" x2="143.652" y2="139.228" xlink:href="#S">
            <stop stop-color="#000714"/>
            <stop offset="1" stop-color="#000714" stop-opacity=".25"/>
        </linearGradient>
        <linearGradient id="P" x1="170.43" y1="88.93" x2="143.052" y2="139.949" xlink:href="#S">
            <stop stop-color="#4264a8" stop-opacity=".1"/>
            <stop offset="1" stop-color="#4264a8"/>
        </linearGradient>
        <linearGradient id="Q" x1="75.75" y1="20.56" x2="46.082" y2="46.307" xlink:href="#S">
            <stop stop-color="#000714"/>
            <stop offset="1" stop-color="#000714" stop-opacity=".25"/>
        </linearGradient>
        <linearGradient id="R" x1="76.63" y1="19.587" x2="45.009" y2="47.07" xlink:href="#S">
            <stop stop-color="#4264a8" stop-opacity=".1"/>
            <stop offset="1" stop-color="#4264a8"/>
        </linearGradient>
        <linearGradient id="S" gradientUnits="userSpaceOnUse"/>
    </defs>
</svg>