<svg xmlns="http://www.w3.org/2000/svg" xmlns:xlink="http://www.w3.org/1999/xlink" width="548" height="483" fill="none" xmlns:v="https://vecta.io/nano"><style><![CDATA[.B{fill:#4264a8}.C{fill:#000714}.D{fill:#fff}.E{fill-opacity:.9}.F{fill-opacity:.75}.G{fill-opacity:.3}.H{fill-opacity:.15}.I{color-interpolation-filters:sRGB}]]></style><g filter="url(#N)"><mask id="A" maskUnits="userSpaceOnUse" x="63" y="55" width="48" height="139"><path d="M78.225 193.44L63.695 56.18l34.3-.61 12.18 138.4-31.95-.53z" class="D"/></mask><g mask="url(#A)"><path d="M84.235 188.559c-.27 0-.53-.06-.77-.15a2.22 2.22 0 0 1-.65-.38c-.19-.16-.35-.35-.47-.56s-.2-.44-.22-.67l-.98-9.51c-.02-.24 0-.47.08-.68s.2-.39.36-.55a1.65 1.65 0 0 1 .58-.37c.23-.09.47-.13.74-.13l19 .23a2.3 2.3 0 0 1 .78.15 1.99 1.99 0 0 1 .66.39 2.26 2.26 0 0 1 .47.56c.12.21.19.44.22.69l.87 9.56c.02.24-.01.47-.09.67s-.2.39-.37.55-.36.28-.58.36-.48.13-.75.13l-18.87-.29m-1.81-17.75c-.27 0-.53-.06-.77-.15a2.21 2.21 0 0 1-.66-.39c-.2-.17-.35-.35-.47-.57s-.2-.45-.22-.69l-1-9.69a1.49 1.49 0 0 1 .08-.7 1.54 1.54 0 0 1 .36-.57 1.77 1.77 0 0 1 .58-.38c.22-.09.48-.14.75-.14l19.19.15c.27 0 .54.05.78.15s.47.23.66.39.36.36.47.58.2.45.22.7l.88 9.74c.02.25-.01.48-.09.69a1.61 1.61 0 0 1-.37.56 1.56 1.56 0 0 1-.59.37 2.27 2.27 0 0 1-.75.13l-19.05-.21m-1.85-18.11c-.27 0-.54-.05-.78-.15s-.47-.23-.66-.39-.36-.36-.48-.57-.2-.45-.23-.7l-1.02-9.89a1.53 1.53 0 0 1 .08-.71c.08-.22.2-.41.36-.58s.36-.3.59-.39.48-.14.76-.14l19.37.06c.28 0 .54.05.79.15a2.38 2.38 0 0 1 .67.4c.2.17.36.36.48.58s.2.46.22.71l.9 9.95a1.61 1.61 0 0 1-.09.7 1.65 1.65 0 0 1-.37.57c-.16.16-.37.29-.59.38s-.49.14-.76.14l-19.24-.12zm-1.89-18.47c-.27 0-.54-.05-.79-.15s-.47-.23-.67-.4-.36-.37-.48-.59-.2-.46-.23-.72l-1.04-10.08c-.03-.26 0-.5.08-.73a1.62 1.62 0 0 1 .36-.59c.16-.17.36-.31.59-.4a2.1 2.1 0 0 1 .76-.15l19.56-.03c.28 0 .55.05.8.15s.48.23.68.4a1.99 1.99 0 0 1 .48.6c.12.23.2.47.22.73l.92 10.14c.02.26-.01.5-.09.72a1.73 1.73 0 0 1-.37.59c-.16.17-.37.3-.6.4s-.49.14-.77.14l-19.42-.03m-1.93-18.86c-.28 0-.55-.05-.8-.15s-.48-.23-.68-.4a2.3 2.3 0 0 1-.49-.59c-.13-.22-.2-.47-.23-.73l-1.06-10.3a1.66 1.66 0 0 1 .08-.74 1.67 1.67 0 0 1 .37-.61 1.78 1.78 0 0 1 .6-.41c.23-.1.49-.15.77-.15l19.75-.13a2.2 2.2 0 0 1 .81.15c.25.1.48.23.68.41s.37.38.49.6.2.48.23.74l.94 10.36a1.75 1.75 0 0 1-.09.73c-.08.22-.21.43-.38.6a1.87 1.87 0 0 1-.61.41c-.24.1-.5.15-.78.15l-19.61.06m-1.97-19.24a2.36 2.36 0 0 1-.8-.14 2.06 2.06 0 0 1-.68-.41c-.2-.18-.37-.38-.49-.61a2.13 2.13 0 0 1-.24-.75l-1.09-10.51a1.75 1.75 0 0 1 .08-.76 1.68 1.68 0 0 1 .37-.62 1.85 1.85 0 0 1 .6-.42c.23-.1.5-.16.78-.16l19.95-.23c.29 0 .56.05.82.14s.49.24.69.41.37.38.5.62.21.49.23.76l.96 10.57c.02.27 0 .52-.09.75s-.21.44-.38.62a1.85 1.85 0 0 1-.61.42c-.23.1-.5.16-.78.16l-19.81.16m-2.01-19.65a2.42 2.42 0 0 1-.81-.14c-.25-.09-.49-.24-.69-.41s-.37-.38-.5-.61a1.99 1.99 0 0 1-.24-.76l-1.11-10.74a1.78 1.78 0 0 1 .08-.77c.08-.23.21-.45.37-.64s.37-.33.61-.43.5-.16.79-.17l20.15-.33c.29 0 .57.05.83.14s.49.24.7.41.37.39.5.62.21.5.23.77l.98 10.8c.02.27 0 .53-.09.77s-.21.45-.38.63-.38.33-.62.43-.5.16-.79.16l-20 .26m19.04-19.83l-21.86.39c-.71.01-1.38.16-1.97.43s-1.11.64-1.53 1.1-.74 1-.94 1.6-.27 1.25-.2 1.94l13.29 126.18c.06.6.26 1.17.56 1.69s.7.99 1.18 1.39a5.76 5.76 0 0 0 1.63.95c.6.23 1.24.36 1.91.37l20.38.34c.67.01 1.3-.1 1.86-.31s1.06-.52 1.47-.91.72-.85.93-1.37.29-1.09.24-1.69l-11.27-127.17c-.06-.69-.27-1.35-.58-1.94s-.75-1.13-1.26-1.58a5.6 5.6 0 0 0-1.76-1.05c-.65-.24-1.35-.37-2.07-.36" class="C E"/><path d="M83.886 192.7a5.59 5.59 0 0 1-1.91-.37 5.76 5.76 0 0 1-1.63-.95c-.48-.4-.88-.87-1.18-1.39s-.49-1.09-.56-1.69L65.326 62.11a4.63 4.63 0 0 1 .2-1.94c.2-.6.52-1.14.94-1.6s.94-.84 1.53-1.1a5.07 5.07 0 0 1 1.97-.43l21.86-.39c.72-.01 1.42.12 2.07.36s1.24.6 1.76 1.05.94.98 1.26 1.58.52 1.25.58 1.94l11.269 127.17c.05.6-.03 1.17-.24 1.69s-.52.98-.93 1.37-.9.7-1.47.91-1.19.32-1.86.31l-20.38-.34m7.85-137.02l-21.87.39c-.85.02-1.65.2-2.36.51a5.38 5.38 0 0 0-1.83 1.31 5.41 5.41 0 0 0-1.12 1.91 5.4 5.4 0 0 0-.24 2.32l13.35 126.15a5.19 5.19 0 0 0 .67 2.02c.36.62.84 1.18 1.41 1.66s1.23.86 1.94 1.13 1.49.43 2.28.44l20.369.34c.8.01 1.56-.12 2.23-.37s1.27-.62 1.75-1.08a4.68 4.68 0 0 0 1.11-1.63c.25-.62.34-1.3.28-2.02L98.516 61.54c-.07-.83-.32-1.61-.7-2.32s-.9-1.35-1.51-1.88-1.33-.96-2.1-1.25a6.81 6.81 0 0 0-2.48-.43" fill="url(#P)" class="F"/><path d="M91.435 61.48l-20.15.33c-.29 0-.55.06-.79.17a1.92 1.92 0 0 0-.61.43c-.17.18-.29.4-.37.64s-.11.5-.08.77l1.11 10.74a2.05 2.05 0 0 0 .24.76c.13.24.3.44.5.61a2.52 2.52 0 0 0 .69.41c.25.1.53.15.81.14l20-.26c.29 0 .55-.06.79-.16s.45-.25.62-.43a1.69 1.69 0 0 0 .38-.63 1.78 1.78 0 0 0 .09-.77l-.98-10.8c-.02-.28-.11-.54-.23-.77s-.3-.45-.5-.62-.44-.32-.7-.41-.54-.15-.83-.14" class="B E"/><path d="M93.265 81.529l-19.95.23c-.28 0-.55.06-.78.16a1.85 1.85 0 0 0-.6.42c-.16.17-.29.39-.37.62s-.11.49-.08.76l1.09 10.51c.03.27.11.52.24.75a2.39 2.39 0 0 0 .49.61c.2.18.43.31.68.41a1.96 1.96 0 0 0 .8.14l19.81-.16c.28 0 .55-.06.78-.16a1.85 1.85 0 0 0 .61-.42c.17-.18.3-.39.38-.62s.12-.49.09-.75l-.96-10.57a1.82 1.82 0 0 0-.23-.76c-.13-.23-.29-.44-.5-.62s-.44-.32-.69-.41a2.21 2.21 0 0 0-.82-.14" fill-opacity=".8" class="B"/><path d="M95.066 101.16l-19.75.13a2.11 2.11 0 0 0-.77.15 1.78 1.78 0 0 0-.6.41 1.59 1.59 0 0 0-.37.61 1.66 1.66 0 0 0-.08.74l1.06 10.3c.03.26.11.5.23.73s.29.42.49.59.43.31.68.4.52.15.8.15l19.61-.06c.28 0 .54-.05.78-.15s.44-.23.61-.41.3-.37.38-.6a1.62 1.62 0 0 0 .09-.73l-.94-10.36a1.78 1.78 0 0 0-.23-.74c-.13-.23-.29-.43-.49-.6s-.43-.31-.68-.41a2.2 2.2 0 0 0-.81-.15" fill-opacity=".7" class="B"/><path d="M96.836 120.39l-19.56.03c-.28 0-.53.05-.76.15a1.76 1.76 0 0 0-.59.4c-.16.17-.29.37-.36.59a1.75 1.75 0 0 0-.08.73l1.04 10.08c.03.25.11.5.23.72s.29.42.48.59a2.25 2.25 0 0 0 .67.4c.25.1.51.15.79.15l19.42.03a2.11 2.11 0 0 0 .77-.14c.23-.09.43-.23.6-.4a1.59 1.59 0 0 0 .37-.59c.08-.22.11-.47.09-.72l-.92-10.14c-.02-.26-.1-.51-.22-.73s-.29-.43-.48-.6-.43-.31-.68-.4-.52-.15-.8-.15" fill-opacity=".6" class="B"/><path d="M98.556 139.24l-19.37-.06c-.27 0-.53.05-.76.14s-.43.22-.59.39a1.53 1.53 0 0 0-.36.58c-.07.22-.11.46-.08.71l1.02 9.89c.03.25.1.48.23.7s.28.41.48.57.42.3.66.39.51.14.78.15l19.24.12c.28 0 .53-.05.76-.14s.43-.22.59-.38a1.65 1.65 0 0 0 .37-.57 1.61 1.61 0 0 0 .09-.7l-.9-9.95c-.02-.25-.1-.49-.22-.71a1.91 1.91 0 0 0-.48-.58 2.65 2.65 0 0 0-.67-.4c-.25-.1-.52-.15-.79-.15z" fill-opacity=".5" class="B"/><path d="M100.256 157.7l-19.19-.15a2.04 2.04 0 0 0-.75.14 1.67 1.67 0 0 0-.58.38 1.54 1.54 0 0 0-.36.57 1.49 1.49 0 0 0-.08.7l1 9.69a1.86 1.86 0 0 0 .22.69c.12.21.28.41.47.57a2.4 2.4 0 0 0 .66.39c.25.1.5.14.77.15l19.05.21c.27 0 .53-.04.75-.13a1.97 1.97 0 0 0 .59-.37c.16-.15.29-.35.37-.56s.11-.45.09-.69l-.88-9.74a1.69 1.69 0 0 0-.22-.7 2.35 2.35 0 0 0-.47-.58c-.19-.17-.42-.3-.66-.39s-.51-.15-.78-.15" fill-opacity=".4" class="B"/><path d="M101.916 175.8l-19-.23a1.95 1.95 0 0 0-.74.13c-.22.09-.42.21-.58.37s-.28.34-.36.55-.11.44-.08.68l.98 9.51c.02.24.1.47.22.67a2.26 2.26 0 0 0 .47.56 2.22 2.22 0 0 0 .65.38 2.45 2.45 0 0 0 .77.15l18.87.29a2.04 2.04 0 0 0 .75-.13c.23-.09.42-.21.58-.36s.29-.34.37-.55.11-.43.09-.67l-.87-9.56c-.02-.24-.1-.47-.22-.69a1.95 1.95 0 0 0-.47-.56 2.4 2.4 0 0 0-.66-.39 2.3 2.3 0 0 0-.78-.15" class="B G"/></g></g><mask id="B" maskUnits="userSpaceOnUse" x="346" y="109" width="138" height="120"><path d="M346.386 228.21l7.4-118.53 129.69 1.97-14.98 114.82-122.11 1.74z" class="D"/></mask><g mask="url(#B)"><path d="M350.976 221.63a3.53 3.53 0 0 0-1.26.24 3.74 3.74 0 0 0-1.06.62 3.06 3.06 0 0 0-.74.91c-.18.34-.3.71-.32 1.11s.04.76.18 1.09a2.5 2.5 0 0 0 .63.89c.28.25.6.45.98.59a3.53 3.53 0 0 0 1.23.21c.35 0 .7-.06 1.02-.16a3.53 3.53 0 0 0 .9-.42 3.68 3.68 0 0 0 .73-.63c.21-.24.38-.5.5-.79l-3.03.04h-.98l.06-.85v-.09l.98-.01v.09l3.18-.04c.03-.39-.04-.76-.18-1.1s-.35-.64-.63-.89-.6-.46-.98-.59a3.78 3.78 0 0 0-1.23-.21" class="C"/><path d="M350.606 227.28a3.53 3.53 0 0 1-1.23-.21c-.38-.14-.7-.34-.98-.59s-.49-.55-.63-.89-.21-.71-.18-1.09.14-.76.32-1.11.44-.65.74-.91.66-.47 1.06-.62a3.81 3.81 0 0 1 1.26-.24c.44-.01.85.07 1.23.21s.7.34.98.59.49.55.63.89.2.71.18 1.1h.62l-.06.86h-.77c-.12.29-.29.56-.5.8a3.68 3.68 0 0 1-.73.63 3.53 3.53 0 0 1-.9.42c-.32.1-.67.16-1.02.16m.42-6.52v.13l-.99.01v-.03c-.46.1-.9.27-1.3.5s-.76.5-1.06.82-.55.68-.74 1.07-.29.81-.32 1.25c-.03.51.05.99.24 1.43s.46.83.82 1.16.79.59 1.27.77 1.03.27 1.6.27a4.73 4.73 0 0 0 1.64-.31c.51-.19.98-.47 1.37-.81a4.37 4.37 0 0 0 .97-1.18c.24-.44.39-.93.42-1.44a3.24 3.24 0 0 0-.23-1.43c-.18-.44-.46-.83-.82-1.16a3.92 3.92 0 0 0-1.27-.78 4.39 4.39 0 0 0-1.61-.27" class="B"/><path d="M362.396 224.31l-3.89.05-.06.86 3.89-.05.06-.86zm7.78-.1l-3.88.05-.06.86 3.88-.05.07-.86m7.75-.1l-3.86.05-.07.86 3.86-.05.07-.86zm7.72-.1l-3.86.05-.07.86 3.86-.05.07-.86zm7.69-.1l-3.84.05-.07.86 3.84-.05.08-.86m7.66-.1l-3.83.05-.08.86 3.83-.05.08-.86zm7.63-.1l-3.81.05-.08.85 3.81-.05.08-.85zm7.59-.1l-3.79.05-.08.85 3.79-.05.09-.85m7.57-.1l-3.78.05-.09.85 3.78-.05.09-.85zm7.54-.1l-3.76.05-.09.85 3.76-.05.09-.85zm7.51-.1l-3.75.05-.09.85 3.75-.05.1-.85m7.48-.1l-3.73.05-.1.85 3.73-.05.1-.85zm7.46-.1l-3.73.05-.1.85 3.73-.05.1-.84m7.34-.1l-3.62.05-.1.84 3.71-.05v-.07-.19-.19-.19c0-.06.01-.13.02-.2m-110.3 1.37h-.98v.11l-.06.87h.98l3.03-.05h.77l.06-.88h-.62l-3.19.05v-.09m.46-6.97h-.98l-.22 3.48v.03l.98-.01v-.13l.23-3.36m116.01-4.51h-.93l-.44 3.42h.93l.44-3.42zm-115.55-2.51h-.99l-.23 3.53h.98l.23-3.53m116.43-4.34h-.93l-.44 3.44h.93l.44-3.44zm-115.97-2.74h-.99l-.23 3.56h.99l.23-3.56zm116.86-4.16h-.94l-.44 3.46h.93l.44-3.46m-116.4-2.97h-.99l-.23 3.58h.99l.23-3.58zm117.29-3.98h-.94l-.45 3.49h.94l.45-3.49zm-116.83-3.2h-1l-.23 3.6h1l.23-3.6zm117.73-3.81h-.94l-.45 3.51h.94l.45-3.51zm-117.26-3.44h-1l-.23 3.63h1l.23-3.63zm118.17-3.62h-.95l-.45 3.54h.94l.45-3.54m-117.7-3.68h-1.01l-.23 3.66h1l.24-3.66zm118.61-3.43h-.95l-.46 3.56h.95l.46-3.56zm-118.14-3.93h-1.01l-.24 3.68h1.01l.24-3.68zm119.06-3.24h-.95l-.46 3.6h.95l.46-3.6zm-118.58-4.18h-1.01l-.24 3.71h1.01l.24-3.71zm119.51-3.05h-.96l-.46 3.62h.95l.47-3.62zm-119.02-4.43h-1.02l-.24 3.75h1.01l.24-3.75m119.96-2.85h-.96l-.47 3.65h.96l.47-3.65zm-119.47-4.69h-1.02l-.24 3.78h1.02l.24-3.78zm120.42-2.65h-.96l-.47 3.67h.96l.47-3.67zm-119.93-4.95h-1.02l-.24 3.8h1.02l.25-3.8m120.88-2.44h-.97l-.47 3.69h.96l.48-3.69zm-120.38-5.22h-1.03l-.25 3.83h1.03l.25-3.83zm121.34-2.24h-.97l-.48 3.72h.97l.48-3.72zm-120.84-5.48h-1.03l-.25 3.85h1.03l.25-3.85zm121.81-2.03h-.37c-.05 0-.1 0-.15.01s-.1 0-.15.01-.1 0-.15 0h-.15l-.48 3.72h.97l.48-3.75m-112.9-6.57l-4.05-.06.04.24.02.24v.25.25l3.93.06.07-.98m8.25.12l-4.12-.06-.07.98 4.12.06.07-.98zm8.22.12l-4.1-.06-.07.98 4.1.06.08-.98m8.19.12l-4.09-.06-.08.98 4.08.06.08-.98m8.15.12l-4.07-.06-.08.98 4.07.06.08-.98zm8.12.12l-4.05-.06-.09.97 4.05.06.09-.97zm8.09.12l-4.04-.06-.09.97 4.04.06.09-.97zm8.06.12l-4.03-.06-.09.97 4.03.06.1-.97m8.02.12l-4.01-.06-.1.97 4.01.06.1-.97zm7.99.11l-4-.06-.1.97 3.99.06.1-.97m7.95.11l-3.97-.06-.11.96 3.97.06.11-.96zm7.93.11l-3.95-.06-.11.96 3.95.06.11-.96zm7.89.11l-3.94-.06-.11.96 3.94.06.12-.96m7.86.11l-3.92-.06-.12.96 3.92.06.12-.96z" class="B"/><path d="M358.156 110.74a3.87 3.87 0 0 0-1.33.23c-.41.15-.8.38-1.12.67s-.59.62-.79 1-.32.8-.34 1.24.04.86.19 1.24.37.73.66 1.02.64.53 1.03.7.83.26 1.3.27.91-.08 1.33-.23.79-.38 1.12-.67.6-.62.79-1 .32-.79.35-1.23a2.99 2.99 0 0 0-.18-1.24c-.14-.38-.37-.73-.66-1.02s-.64-.53-1.03-.7-.83-.26-1.3-.27" class="C"/><path d="M357.746 117.11c-.47 0-.9-.1-1.3-.27a3.24 3.24 0 0 1-1.03-.7c-.29-.29-.51-.64-.66-1.02a2.84 2.84 0 0 1-.19-1.24 3.27 3.27 0 0 1 .34-1.24c.19-.38.47-.72.79-1s.7-.51 1.12-.67.87-.24 1.33-.23a3.51 3.51 0 0 1 1.3.27 3.24 3.24 0 0 1 1.03.7c.29.29.51.64.66 1.02s.21.8.18 1.24-.15.85-.35 1.23-.47.72-.79 1-.7.51-1.12.67a3.48 3.48 0 0 1-1.33.23m.48-7.36a5.11 5.11 0 0 0-1.75.3 4.42 4.42 0 0 0-1.46.88c-.42.38-.78.82-1.03 1.32s-.41 1.04-.45 1.62.05 1.12.25 1.62a4.06 4.06 0 0 0 .86 1.33 4.12 4.12 0 0 0 1.35.91c.52.22 1.09.34 1.7.35s1.19-.1 1.74-.3a4.57 4.57 0 0 0 1.46-.87c.42-.37.78-.81 1.03-1.31s.42-1.04.45-1.61v-.25-.25c0-.08-.01-.16-.02-.24l-.04-.24c-.09-.46-.25-.89-.49-1.28s-.54-.74-.9-1.03-.77-.52-1.23-.69a4.21 4.21 0 0 0-1.47-.26z" class="B"/><path d="M479.186 112.55a3.61 3.61 0 0 0-1.27.22c-.4.15-.77.37-1.1.65a3.74 3.74 0 0 0-.81.97 3.1 3.1 0 0 0-.4 1.2c-.05.43-.02.83.1 1.2s.31.71.56.99.57.51.93.68.77.25 1.21.26.87-.08 1.27-.23.77-.37 1.09-.65.6-.6.81-.97.35-.77.4-1.19.02-.83-.09-1.2-.3-.71-.55-.99-.57-.52-.93-.68-.77-.26-1.21-.26" class="C"/><path d="M478.396 118.72c-.44 0-.85-.1-1.21-.26a2.73 2.73 0 0 1-.93-.68c-.26-.29-.44-.62-.56-.99s-.15-.78-.1-1.2.19-.83.4-1.2.48-.7.81-.97.7-.5 1.1-.65.83-.23 1.27-.22.85.1 1.21.26a2.73 2.73 0 0 1 .93.68c.26.29.44.62.55.99s.15.78.09 1.2a3.49 3.49 0 0 1-.4 1.19c-.2.36-.48.69-.81.97s-.69.5-1.09.65-.83.23-1.27.23m.91-7.13a4.87 4.87 0 0 0-1.66.29c-.52.19-1.01.49-1.44.85s-.78.79-1.06 1.28-.46 1.01-.53 1.57-.02 1.09.13 1.57.4.92.73 1.29.74.67 1.21.88a4.01 4.01 0 0 0 1.57.34h.15.15c.05 0 .1 0 .15-.01s.1-.01.15-.02c.51-.06 1-.22 1.46-.44s.87-.52 1.24-.86.67-.75.91-1.2a4.28 4.28 0 0 0 .46-1.43c.07-.56.03-1.09-.12-1.58s-.39-.93-.72-1.3a3.59 3.59 0 0 0-1.21-.89 4.02 4.02 0 0 0-1.58-.34" class="B"/><path d="M465.386 220.19c-.42 0-.82.09-1.2.23s-.73.35-1.03.6-.56.55-.76.88-.32.69-.37 1.07 0 .74.1 1.06a2.06 2.06 0 0 0 .54.86c.25.24.54.44.88.58s.73.21 1.14.2.82-.09 1.2-.23.73-.35 1.03-.6.56-.55.76-.88a2.58 2.58 0 0 0 .37-1.07c.04-.38.01-.74-.1-1.07s-.29-.62-.53-.87-.54-.44-.88-.58a2.84 2.84 0 0 0-1.15-.2" class="C"/><path d="M464.686 225.69a3.17 3.17 0 0 1-1.14-.2c-.34-.13-.64-.33-.88-.58a2.5 2.5 0 0 1-.54-.86c-.12-.32-.15-.69-.1-1.06s.18-.74.37-1.07.45-.63.76-.88.66-.46 1.03-.6a3.46 3.46 0 0 1 1.2-.23c.41 0 .8.07 1.15.2s.64.33.88.58.42.54.53.87.15.69.1 1.07-.18.74-.37 1.07-.45.63-.76.88a3.66 3.66 0 0 1-1.03.6c-.38.14-.78.23-1.2.23m.81-6.34a4.38 4.38 0 0 0-1.57.3c-.49.19-.95.46-1.35.79s-.74.72-.99 1.16a3.97 3.97 0 0 0-.49 1.4c0 .07-.01.13-.02.2s0 .13 0 .19v.19c0 .06 0 .13.02.19a2.96 2.96 0 0 0 .36 1.11 3.14 3.14 0 0 0 .75.88c.31.25.67.44 1.07.57s.84.2 1.31.19c.54 0 1.07-.12 1.56-.3s.95-.46 1.35-.78.74-.72.99-1.15a3.66 3.66 0 0 0 .49-1.4c.06-.5.02-.97-.13-1.39s-.38-.81-.69-1.13a3.3 3.3 0 0 0-1.15-.76c-.45-.18-.95-.27-1.5-.26" class="B"/></g><g filter="url(#O)"><mask id="C" maskUnits="userSpaceOnUse" x="462" y="36" width="6" height="17"><path d="M462.806 36.39l2.12 3.47c.54.89 1.01 1.82 1.4 2.79a19.46 19.46 0 0 1 .94 3.01 19.73 19.73 0 0 1 .45 3.2 20.97 20.97 0 0 1-.08 3.35l-2.13-3.59c.11-1.13.14-2.23.07-3.32a20.51 20.51 0 0 0-.45-3.17 18.89 18.89 0 0 0-.94-2.99 19.8 19.8 0 0 0-1.39-2.76l.01.01z" class="D"/></mask><g mask="url(#C)" class="B"><path d="M467.646 52.22l-2.13-3.59c.11-1.13.14-2.23.07-3.32a20.51 20.51 0 0 0-.45-3.17 18.89 18.89 0 0 0-.94-2.99 19.8 19.8 0 0 0-1.39-2.76l2.12 3.47c.54.89 1.01 1.82 1.4 2.79a19.46 19.46 0 0 1 .94 3.01 19.73 19.73 0 0 1 .45 3.2 20.97 20.97 0 0 1-.08 3.35"/></g><mask id="D" maskUnits="userSpaceOnUse" x="80" y="36" width="6" height="17"><path d="M82.996 39.87l2.12-3.47a18.76 18.76 0 0 0-1.39 2.76c-.39.96-.7 1.96-.94 2.99s-.38 2.09-.45 3.17-.04 2.19.07 3.32l-2.13 3.59c-.12-1.14-.14-2.25-.08-3.35a19.73 19.73 0 0 1 .45-3.2c.23-1.04.55-2.05.94-3.01a19.66 19.66 0 0 1 1.4-2.79l.01-.01z" class="D"/></mask><g mask="url(#D)" class="B"><path d="M82.996 39.87l2.12-3.47a18.73 18.73 0 0 0-1.16 2.22 18.71 18.71 0 0 0-.87 2.38c-.24.82-.42 1.65-.55 2.51s-.21 1.73-.22 2.62l-2.14 3.56c.02-.9.09-1.78.22-2.64a19.31 19.31 0 0 1 .56-2.53 18.63 18.63 0 0 1 .88-2.4c.35-.78.74-1.52 1.17-2.25"/><path d="M80.166 49.68l2.14-3.56v.62l.02.63.04.63.05.63-2.13 3.59-.06-.64-.04-.64-.02-.63v-.63z"/></g><mask id="E" maskUnits="userSpaceOnUse" x="461" y="34" width="4" height="6"><path d="M461.775 34.88l.27.37.26.38.25.38.24.39 2.12 3.47-.24-.39-.25-.39-.26-.38-.27-.37-2.11-3.46h-.01z" class="D"/></mask><g mask="url(#E)" class="C"><use xlink:href="#T"/><path d="M464.536 39.27l-2.11-3.47.1.15c.04.05.06.1.09.15l.09.15.09.15 2.12 3.47-.09-.15-.09-.15-.1-.15c-.04-.05-.06-.1-.1-.15z"/></g><mask id="F" maskUnits="userSpaceOnUse" x="449" y="27" width="15" height="12"><path d="M461.776 34.88l2.11 3.46a19.74 19.74 0 0 0-1.75-2.03c-.63-.64-1.31-1.24-2.02-1.8s-1.48-1.07-2.28-1.53a23.47 23.47 0 0 0-2.51-1.25l-.87-.34-.89-.31-.91-.27-.93-.24-1.98-3.39c1.26.29 2.46.68 3.6 1.17s2.23 1.06 3.24 1.71a20.22 20.22 0 0 1 2.83 2.2 19.55 19.55 0 0 1 2.36 2.63v-.01z" class="D"/></mask><g mask="url(#F)" class="C"><use xlink:href="#T" x="0.001"/></g><mask id="G" maskUnits="userSpaceOnUse" x="445" y="26" width="7" height="5"><path d="M449.735 27.18l1.98 3.39-1.15-.24-1.17-.18-1.2-.12-1.22-.06-1.95-3.38 1.21.06 1.19.12 1.17.18 1.14.23z" class="D"/></mask><g mask="url(#G)" class="C"><use xlink:href="#U"/><use xlink:href="#T"/></g><path d="M446.265 29.95c3.27 0 6.32.63 9.05 1.77s5.11 2.78 7.04 4.81 3.41 4.42 4.33 7.09 1.27 5.56.96 8.61l-13.98 135.6c-.27 2.61-1.13 5.09-2.46 7.34s-3.11 4.26-5.22 5.95-4.57 3.05-7.23 3.99-5.53 1.46-8.5 1.46h-312.6c-2.97 0-5.84-.52-8.5-1.46s-5.11-2.3-7.23-3.99-3.9-3.71-5.22-5.95-2.19-4.73-2.46-7.34L80.275 52.22c-.31-3.04.04-5.95.96-8.61a19.55 19.55 0 0 1 4.33-7.09c1.93-2.03 4.32-3.67 7.04-4.81s5.78-1.77 9.05-1.77h344.61v.01z" fill="url(#Q)"/><mask id="H" maskUnits="userSpaceOnUse" x="444" y="26" width="3" height="4"><path d="M445.026 26.58l1.95 3.38h-.18-.18-.18-.18l-1.92-3.38h.17.17.17.17.01z" class="D"/></mask><g mask="url(#H)" class="C"><use xlink:href="#U"/></g><mask id="I" maskUnits="userSpaceOnUse" x="82" y="26" width="22" height="14"><path d="M82.996 39.87l2.12-3.47c.9-1.48 2-2.83 3.26-4.02s2.7-2.24 4.28-3.1 3.3-1.54 5.13-2a23.75 23.75 0 0 1 5.8-.71l-1.92 3.38c-2.05 0-4.01.25-5.86.71a22.12 22.12 0 0 0-5.18 2.01c-1.59.86-3.04 1.92-4.32 3.13s-2.38 2.57-3.29 4.06l-.02.01z" class="D"/></mask><g mask="url(#I)" class="C"><path d="M82.996 39.87l2.12-3.47a19.51 19.51 0 0 1 1.11-1.63c.4-.53.82-1.03 1.27-1.51l1.42-1.38 1.57-1.25-2.06 3.42a17.45 17.45 0 0 0-1.58 1.26l-1.44 1.4c-.46.49-.88 1-1.28 1.52s-.77 1.08-1.12 1.64"/><path d="M88.416 34.05l2.06-3.42.89-.6.93-.56.96-.52 1-.47-2.02 3.4-1.01.47-.97.52-.94.57-.9.61z"/><path d="M92.236 31.88l2.02-3.4.88-.36.9-.33.92-.29.94-.25-1.98 3.39-.95.26-.93.29-.91.33-.89.37"/><path d="M95.926 30.63l1.98-3.39.95-.21.97-.17.98-.13 1-.09-1.94 3.38-1.01.09-1 .13-.98.17-.96.21"/><path d="M99.866 30.01l1.94-3.38.44-.03.44-.02.44-.01c.14-.01.3 0 .45 0l-1.92 3.38h-.45l-.45.01-.45.02-.44.03z"/></g><path d="M101.655 29.95l1.92-3.38h340.77l1.92 3.38h-344.61z" class="C"/><path d="M101.476 27.95l1.93-3.36h341.11l1.93 3.36h-344.97z" class="B"/><mask id="J" maskUnits="userSpaceOnUse" x="81" y="24" width="23" height="15"><path d="M81.226 38.66l2.14-3.46a21.4 21.4 0 0 1 3.55-4.34c1.37-1.29 2.94-2.42 4.65-3.35s3.57-1.66 5.56-2.16 4.08-.76 6.27-.76l-1.93 3.36c-2.21 0-4.34.27-6.34.77a23.94 23.94 0 0 0-5.62 2.18c-1.73.94-3.3 2.08-4.7 3.38a21.17 21.17 0 0 0-3.59 4.38h.01z" class="D"/></mask><g mask="url(#J)" class="B"><path d="M81.226 38.66l2.14-3.46a20.67 20.67 0 0 1 1.2-1.74l1.37-1.62c.48-.52 1-1.01 1.53-1.48a21.92 21.92 0 0 1 1.68-1.34l-2.08 3.4c-.59.42-1.16.88-1.7 1.35s-1.06.97-1.55 1.5l-1.38 1.63c-.43.56-.84 1.15-1.21 1.76z"/><path d="M87.075 32.429l2.08-3.4.97-.66 1.01-.61 1.05-.56 1.09-.51-2.04 3.38-1.1.52-1.06.57-1.02.62-.98.67"/><path d="M91.235 30.05l2.04-3.38.96-.4.98-.36 1-.32 1.03-.28-1.99 3.37-1.04.28-1.02.32-.99.36-.97.4"/><path d="M95.245 28.689l1.99-3.37 1.03-.23 1.05-.19 1.07-.15 1.09-.1-1.95 3.36-1.1.1-1.08.15-1.06.19-1.04.23"/><path d="M99.535 28.02l1.95-3.36.48-.03.48-.02.48-.01h.48l-1.93 3.36h-.49l-.49.01-.48.02-.48.03z"/></g><mask id="K" maskUnits="userSpaceOnUse" x="444" y="24" width="23" height="15"><path d="M464.546 35.2l2.14 3.46c-.99-1.61-2.2-3.08-3.59-4.38s-2.97-2.44-4.7-3.38a24.21 24.21 0 0 0-5.62-2.18c-2.01-.51-4.13-.77-6.34-.77l-1.93-3.36a25.58 25.58 0 0 1 6.27.76 24.05 24.05 0 0 1 5.56 2.16c1.72.93 3.27 2.06 4.65 3.35a21.07 21.07 0 0 1 3.55 4.34h.01z" class="D"/></mask><g mask="url(#K)" class="B"><path d="M446.446 27.95l-1.93-3.36.81.01.8.04.79.06.78.08 1.96 3.36-.79-.08-.8-.06-.81-.04-.82-.01"/><path d="M449.655 28.14l-1.96-3.36a25.33 25.33 0 0 1 5.09 1.16c1.61.55 3.12 1.27 4.53 2.12s2.69 1.84 3.85 2.95 2.18 2.34 3.05 3.66l2.14 3.46a21.77 21.77 0 0 0-3.08-3.7c-1.16-1.12-2.47-2.12-3.89-2.98s-2.95-1.58-4.58-2.14a24.6 24.6 0 0 0-5.15-1.17z"/><path d="M466.346 38.13l-2.14-3.46.09.13c.03.04.06.09.08.13s.06.09.08.13.06.09.08.13l2.14 3.46-.08-.13c-.02-.04-.06-.09-.08-.13s-.06-.09-.09-.13l-.09-.13"/></g><path d="M446.446 27.95c3.56 0 6.88.69 9.85 1.93s5.56 3.04 7.67 5.25a21.21 21.21 0 0 1 4.72 7.72c1 2.89 1.38 6.05 1.04 9.36l-14.12 135.6c-.3 2.84-1.24 5.54-2.68 7.98s-3.39 4.63-5.7 6.47a27.03 27.03 0 0 1-7.87 4.34c-2.9 1.02-6.02 1.59-9.24 1.59h-312.31c-3.22 0-6.34-.57-9.24-1.59s-5.56-2.51-7.87-4.34-4.25-4.03-5.7-6.47-2.39-5.14-2.68-7.98L78.206 52.22c-.34-3.31.04-6.47 1.04-9.36s2.61-5.52 4.72-7.72a22.87 22.87 0 0 1 7.67-5.25c2.96-1.24 6.29-1.93 9.85-1.93h344.97l-.01-.01zm7.23 159.86l13.98-135.6c.31-3.04-.04-5.95-.96-8.61a19.55 19.55 0 0 0-4.33-7.09c-1.93-2.03-4.32-3.67-7.04-4.81s-5.78-1.77-9.05-1.77h-344.62c-3.27 0-6.32.63-9.05 1.77s-5.11 2.78-7.04 4.81-3.41 4.42-4.33 7.09-1.27 5.56-.96 8.61l13.98 135.6c.27 2.61 1.13 5.09 2.46 7.34s3.11 4.26 5.22 5.95 4.57 3.05 7.23 3.99 5.53 1.46 8.5 1.46h312.6c2.97 0 5.84-.52 8.5-1.46s5.11-2.3 7.23-3.99 3.9-3.71 5.22-5.95 2.19-4.73 2.46-7.34z" class="B"/></g><mask id="L" maskUnits="userSpaceOnUse" x="87" y="0" width="374" height="240"><path d="M110.596 239.65L87.556 0h372.81l-23.04 239.65h-326.73z" class="D"/></mask><g mask="url(#L)"><path d="M258.085 1.04h-63.56c-1.45 0-2.82.28-4.05.8s-2.33 1.26-3.24 2.18-1.63 2.01-2.1 3.22-.71 2.54-.64 3.93l2.74 59.12c.06 1.31.4 2.55.97 3.68a10.14 10.14 0 0 0 2.3 2.99 10.67 10.67 0 0 0 3.3 2.01c1.23.47 2.56.74 3.95.74h60.97c1.39 0 2.72-.26 3.92-.74s2.29-1.16 3.2-2.01 1.65-1.87 2.15-2.99a8.86 8.86 0 0 0 .78-3.68l-.16-59.12a9.78 9.78 0 0 0-.83-3.93c-.53-1.21-1.3-2.3-2.26-3.22s-2.09-1.66-3.35-2.18a10.7 10.7 0 0 0-4.1-.8" class="B H"/><path d="M428.766 173.31h-135.94c-1.93 0-3.77.35-5.44.97a14.38 14.38 0 0 0-4.45 2.64c-1.27 1.11-2.29 2.43-3 3.9a11.01 11.01 0 0 0-1.11 4.75l-.12 41.78c0 1.6.37 3.12 1.05 4.5s1.66 2.62 2.88 3.66 2.66 1.88 4.26 2.46 3.37.9 5.23.9h130.9a16.19 16.19 0 0 0 5.32-.9 15.5 15.5 0 0 0 4.51-2.46 13.39 13.39 0 0 0 3.24-3.66c.82-1.38 1.34-2.9 1.49-4.5l3.99-41.78c.16-1.68-.07-3.29-.64-4.75a10.87 10.87 0 0 0-2.62-3.9c-1.16-1.11-2.58-2.01-4.19-2.64s-3.42-.97-5.35-.97" class="B G"/><path d="M162.786 1.04h-63.56c-1.45 0-2.8.28-4.01.8s-2.27 1.26-3.13 2.18-1.53 2.01-1.94 3.22-.58 2.54-.45 3.93l5.65 59.12c.12 1.31.53 2.55 1.15 3.68a10.83 10.83 0 0 0 2.45 2.99c.99.85 2.14 1.54 3.39 2.01s2.6.74 3.99.74h60.97c1.39 0 2.7-.26 3.88-.74s2.23-1.16 3.1-2.01 1.55-1.87 2.01-2.99a8.47 8.47 0 0 0 .6-3.68l-3.07-59.12a9.96 9.96 0 0 0-1.03-3.93 11.04 11.04 0 0 0-2.42-3.22c-1-.92-2.17-1.66-3.45-2.18a10.98 10.98 0 0 0-4.14-.8" class="C E"/><path d="M106.326 79.71c-1.39 0-2.74-.26-3.99-.74a11.57 11.57 0 0 1-3.39-2.01c-.99-.85-1.83-1.87-2.45-2.99s-1.02-2.37-1.15-3.68l-5.65-59.12c-.13-1.39.03-2.72.45-3.93s1.08-2.3 1.94-3.22 1.93-1.66 3.13-2.18 2.56-.8 4.01-.8h63.56c1.45 0 2.85.28 4.14.8s2.46 1.26 3.45 2.18a11.22 11.22 0 0 1 2.42 3.22 10.13 10.13 0 0 1 1.03 3.93l3.07 59.12c.07 1.31-.15 2.55-.6 3.68s-1.14 2.14-2.01 2.99-1.92 1.54-3.1 2.01a10.47 10.47 0 0 1-3.88.74h-60.97M162.726 0h-63.59c-1.6 0-3.09.31-4.42.88a10.29 10.29 0 0 0-3.45 2.4c-.95 1.01-1.68 2.22-2.14 3.55s-.64 2.8-.49 4.33l5.68 59.12a10.38 10.38 0 0 0 1.27 4.05 12.04 12.04 0 0 0 2.7 3.3 12.82 12.82 0 0 0 3.74 2.22c1.38.53 2.86.81 4.39.81h60.94c1.53 0 2.97-.29 4.27-.81s2.46-1.28 3.41-2.22 1.71-2.06 2.21-3.3.74-2.61.67-4.05l-3.04-59.12a11.2 11.2 0 0 0-1.13-4.33c-.65-1.33-1.56-2.54-2.66-3.55s-2.39-1.84-3.81-2.4-2.96-.88-4.55-.88z" fill="url(#R)" class="F"/><path d="M254.236 91.18h-142.28c-2.02 0-3.91.38-5.59 1.06s-3.17 1.67-4.37 2.89-2.14 2.66-2.72 4.27-.82 3.36-.65 5.2l4.37 45.68c.17 1.75.72 3.41 1.58 4.92s2.02 2.86 3.4 3.99 2.98 2.05 4.72 2.68 3.62.98 5.56.98h136.76a15.52 15.52 0 0 0 5.46-.98c1.68-.63 3.19-1.55 4.45-2.68s2.29-2.49 3-3.99a11.32 11.32 0 0 0 1.09-4.92l-.13-45.68c0-1.84-.42-3.6-1.16-5.2a13.5 13.5 0 0 0-3.14-4.27c-1.33-1.22-2.9-2.21-4.66-2.89s-3.68-1.06-5.7-1.06" class="B G"/><path d="M443.785 1.04h-53.73c-2.13 0-4.18.42-6.07 1.17s-3.6 1.85-5.07 3.2-2.67 2.95-3.55 4.72-1.4 3.71-1.5 5.75l-6.98 134.32c-.09 1.76.22 3.43.86 4.95s1.6 2.88 2.82 4.02 2.69 2.06 4.35 2.7 3.49.99 5.44.99h49.25c1.95 0 3.84-.35 5.59-.99s3.36-1.56 4.75-2.7 2.56-2.5 3.42-4.02 1.42-3.19 1.59-4.95l12.84-134.32c.19-2.03-.05-3.98-.66-5.75s-1.58-3.37-2.85-4.72-2.83-2.44-4.6-3.2-3.77-1.17-5.89-1.17" class="B H"/><path d="M353.386 1.04h-63.56c-1.45 0-2.83.28-4.09.8s-2.39 1.26-3.35 2.18-1.73 2.01-2.26 3.22a9.78 9.78 0 0 0-.83 3.93l-.16 59.12a8.9 8.9 0 0 0 .79 3.68 9.35 9.35 0 0 0 2.15 2.99 9.98 9.98 0 0 0 3.2 2.01 10.8 10.8 0 0 0 3.92.74h60.97c1.39 0 2.73-.26 3.96-.74s2.34-1.16 3.3-2.01 1.74-1.87 2.3-2.99.9-2.37.96-3.68l2.74-59.12c.06-1.39-.17-2.72-.64-3.93s-1.19-2.3-2.1-3.22-2.01-1.66-3.24-2.18-2.61-.8-4.06-.8z" fill-opacity=".6" class="B"/><path d="M259.496 173.31h-57.9c-1.32 0-2.57.24-3.7.66s-2.13 1.05-2.96 1.81-1.49 1.67-1.93 2.68-.65 2.11-.6 3.26l2.29 49.25c.05 1.09.36 2.13.87 3.08s1.23 1.79 2.09 2.5 1.89 1.29 3.01 1.68 2.34.62 3.61.62h55.75c1.27 0 2.48-.22 3.59-.62s2.09-.97 2.92-1.68 1.5-1.56 1.97-2.5a6.84 6.84 0 0 0 .72-3.08l-.14-49.25a7.37 7.37 0 0 0-.76-3.26 8.71 8.71 0 0 0-2.06-2.68c-.87-.77-1.9-1.38-3.05-1.81s-2.41-.66-3.73-.66" class="B H"/><path d="M126.635 238.85h-3.76l.07.8h3.76l-.07-.8zm7.51 0h-3.76l.07.8h3.76l-.07-.8zm7.51 0h-3.76l.06.8h3.76l-.06-.8zm7.5 0h-3.75l.06.8h3.75l-.06-.8zm7.51 0h-3.75l.06.8h3.75l-.06-.8zm7.51 0h-3.75l.05.8h3.75l-.05-.8zm7.51 0h-3.75l.05.8h3.75l-.05-.8zm7.45-.35l-.51.12-.52.1-.53.07-.54.05h-.08-.18-1.33l.05.8h.98l.76-.02.75-.07.74-.12.73-.17-.32-.76zm-63.59-.91l-.45.67.94.44.97.36 1 .28 1.03.19.09-.79h-.1v-.01h-.02-.04-.03-.07l-.02-.01h-.03l-.45-.09-.44-.11-.44-.12c-.15-.04-.29-.09-.43-.14h-.02-.02l-.06-.02h-.02-.02-.02l-.04-.02h-.02-.02l-.13-.06c-.06-.04-.13-.06-.19-.09l-.19-.09-.19-.09-.18-.09m68.93-3.14l-.42.7-.5.66a6.55 6.55 0 0 1-.58.6l-.65.55.65.61c.25-.19.49-.4.72-.61s.44-.44.64-.67a7.61 7.61 0 0 0 .55-.72l.47-.77-.87-.35m-73.48-2.05l-.92.14c.09.29.2.58.32.87a6.46 6.46 0 0 0 .42.83l.51.8c.18.26.39.51.61.76l.74-.44v-.01l-.53-.68-.46-.72-.38-.76-.29-.79m75.04-4.27h-.94l.15 2.84v.01.01.01.01.01.01.07.06.06.07.01.02l.94.04v-.1-.1-.11-.11l-.15-2.84m-75.81-2.19h-.94l.31 3.23h.94l-.31-3.23zm75.47-4.31h-.95l.17 3.25h.95l-.17-3.25zm-76.1-2.2h-.95l.31 3.26h.95l-.31-3.26zm75.76-4.34h-.95l.17 3.27h.95l-.17-3.27zm-76.39-2.22h-.95l.32 3.28h.95l-.31-3.28m76.05-4.37h-.95l.17 3.3h.95l-.17-3.3zm-76.68-2.24h-.96l.32 3.31h.95l-.32-3.31m76.34-4.41h-.96l.17 3.33h.96l-.17-3.33zm-76.98-2.25h-.96l.32 3.34h.96l-.32-3.34zm76.63-4.44h-.96l.17 3.36h.96l-.17-3.36zm-77.27-2.27h-.96l.32 3.37h.96l-.32-3.37zm76.93-4.48h-.97l.18 3.38h.96l-.17-3.38zm-77.57-2.29h-.97l.33 3.39h.96l-.32-3.39zm77.22-4.52h-.97v.05.06l.17 3.3h.97l-.17-3.3v-.12m-78.44-2.51c-.05.21-.09.43-.12.65l-.07.65-.02.66a5.12 5.12 0 0 0 .04.67l.1 1.01h.97l-.1-1.01v-.02-.02-.02-.02-.02-.02-.02-.02-.02-.02-.02-.02-.02-.02-.02-.02-.02-.02-.02-.02-.02-.02-.02-.02-.02-.02-.02-.02-.02-.02-.02-.02-.02-.02-.02-.02-.02-.02-.02-.02-.02-.02-.02-.02-.02-.02-.02-.02-.02-.02-.02-.02-.02-.02-.02-.02-.02-.02-.02-.02-.02-.02-.02-.02-.02-.02-.02-.02-.02-.02-.02-.02-.02-.02-.02-.02-.02-.02-.02-.02-.02-.02-.02-.02-.02-.02-.02-.02-.02-.02-.02-.02-.02-.02-.02-.02-.02-.02-.02-.02-.02-.02-.02-.02-.02-.02-.02-.02-.02-.02-.02-.02-.03-.02l.01-.06c0-.04.01-.08.02-.12l.03-.12.03-.12.03-.12-.96-.25m74.69-4.2l-.62.63.2.16v.02.02.02.02.02.02h.02v.02l.05.05v.02l.21.2.2.2c.06.07.13.13.2.2l.19.21.07.08v.02.02l.04.05v.02.02.02.02.02h.02v.02.02.02l.02.03v.02.02.02l.03.04v.02.02l.06.08.19.25.18.25c.06.08.11.17.17.26l.16.26.87-.35a9.13 9.13 0 0 0-.53-.84 9.36 9.36 0 0 0-.62-.79l-.71-.74c-.25-.24-.51-.46-.79-.68m-69.88-1.46l-.89.47-.82.55-.74.62a8.79 8.79 0 0 0-.66.7l.8.56s.06-.08.1-.11.07-.07.1-.11.07-.07.1-.11.07-.07.11-.11v-.02h.02l.03-.05.02-.02v-.02-.02-.02h.02v-.02l.02-.02v-.02l.02-.03.02-.03v-.02-.02l.03-.03v-.02h.02v-.02l.03-.03v-.02l.02-.02.02-.02v-.02-.02l.02-.03h.02v-.02l.03-.03v-.02h.02l.08-.06.25-.15.25-.14.26-.14.26-.13-.51-.77m7.99-1h-3.32-.16-.16-.16-.16l.13.86h.1.11.1.1 3.48l-.08-.86m7.8 0h-3.91l.07.86h3.9l-.07-.86m7.8 0h-3.91l.07.86h3.9l-.07-.86m7.79 0h-3.9l.07.86h3.9l-.06-.86m7.8 0h-3.9l.06.86h3.9l-.06-.86zm7.8 0h-3.9l.06.86h3.9l-.06-.86zm7.8 0h-3.9l.06.86h3.9l-.05-.86m7.8 0h-3.9l.05.86h4.17.21.15.11l.62.07.61.09c.2.03.4.08.6.13l.58.16.28-.81-.86-.23c-.29-.07-.58-.12-.87-.16l-.89-.1-.89-.03" class="B F"/><path d="M294.736 162.84h-3.93v.87h3.92v-.87m7.85 0h-3.92v.87h3.9v-.87m7.86 0h-3.92l-.02.87h3.92l.02-.87zm7.85 0h-3.92l-.02.87h3.92l.02-.87zm7.85 0h-3.92l-.02.87h3.92l.03-.87m7.85 0h-3.92l-.03.87h3.92l.03-.87zm7.85 0h-3.93l-.03.87h3.93l.03-.87zm7.82-.38l-.21.06h-.02-.02-.02-.02-.02-.03-.02-.04c-.12.04-.25.06-.37.08l-.37.06c-.12.01-.25.04-.37.05l-.38.04h-.1-.02-.09-.12-.15-.26-1.21l-.04.87h1.03l.8-.03.8-.08.79-.13.78-.19-.26-.83m-66.35-1l-.53.73c.3.18.62.34.94.49s.65.28.98.39l1.02.3 1.05.21.17-.86-.34-.05-.33-.06c-.11-.02-.22-.05-.33-.08l-.33-.09-.1-.03h-.03-.03l-.09-.03h-.03-.02-.03l-.07-.03h-.02-.02-.02-.02l-.05-.02h-.02-.02l-.07-.03h-.02-.02l-.07-.03h-.02l-.05-.02h-.02-.02v-.02l-.06-.02h-.02-.02-.03v-.02h-.02v-.02h-.02l-.07-.04h-.02v-.02l-.11-.06-.11-.06-.11-.06-.11-.06m72.35-3.42l-.12.19-.13.19c-.05.06-.09.13-.13.19l-.13.19v.02l-.06.08-.02.02-.06.08v.02h-.02l-.07.08v.02l-.05.06v.02.02.02l-.04.05v.02.02l-.05.06v.02.02l-.04.05v.02.02l-.03.04v.02.02l-.03.03v.02.02l-.05.05v.02l-.04.03v.02.02.02l-.03.03v.02.02l-.03.03v.02.02l-.04.03v.02.02l-.04.04v.02h-.02v.02.02l-.05.04v.02l-.06.05-.08.07-.1.08c-.03.02-.07.06-.1.08s-.07.06-.11.08-.07.06-.11.08l.62.66c.29-.21.56-.43.82-.66a10.18 10.18 0 0 0 .74-.73 8.01 8.01 0 0 0 .65-.79l.57-.85-.87-.39m-76.57-2.24l-.98.16.25.94c.1.31.22.61.35.91a8.93 8.93 0 0 0 .45.87 7.11 7.11 0 0 0 .56.83l.82-.49a1.43 1.43 0 0 1-.14-.2c-.04-.07-.09-.13-.14-.2l-.13-.2-.12-.2v-.02-.02-.02-.02l-.03-.05v-.02-.02-.02-.02-.02-.02-.02-.02-.02-.02-.02-.02-.02-.02-.02-.03-.02-.02-.02-.02-.02-.02l-.02-.04v-.02-.02-.02-.02-.02-.02-.02-.03-.02-.02-.02-.02-.02-.02-.02-.02h-.02v-.02-.02-.02-.02-.02-.02-.02-.02-.02-.02-.02-.02-.02-.02-.02-.02l-.02-.04v-.02-.02-.02-.02-.02l-.04-.11v-.02c-.03-.08-.06-.17-.08-.25l-.07-.26-.07-.26-.06-.26m78.86-4.66h-.99l-.14 3.1v.02.02.02.02.02.02.08.08.08.08l.98.05s0-.08.01-.12 0-.08 0-.12v-.12-.12l.15-3.1m-79-2.39h-.99v3.53h.98v-3.53m79.34-4.71h-.99l-.17 3.56h.99l.17-3.56zm-79.31-2.41h-.99v3.57h.98v-3.57m79.65-4.74h-.99l-.17 3.59h.99l.17-3.59zm-79.62-2.43h-1v3.6h.99v-3.6m79.97-4.78h-1l-.17 3.61h1l.17-3.61zm-79.94-2.44h-1v3.62h.99v-3.62m80.29-4.81h-1l-.17 3.64h1l.17-3.64zm-80.26-2.47h-1v3.65h.99v-3.65m80.62-4.85h-1.01l-.17 3.66h1l.17-3.66m-80.59-2.48h-1.01v3.67h1v-3.67m80.94-4.9h-1.01l-.17 3.69h1.01l.17-3.69zm-80.91-2.5h-1.01v3.7h1v-3.7m81.27-4.95l-1.01.02v.04.07l-.17 3.62h1.01l.17-3.61v-.13m-81.8-2.74c-.08.23-.14.47-.2.7s-.1.47-.14.71-.07.48-.08.72l-.03.73v1.09h1.01v-1.09-.02-.02-.02-.03-.02-.02-.02-.03-.02-.02-.02-.02-.02-.02-.02-.02-.02-.02-.03-.02-.02-.03-.02-.02-.02-.03-.05-.03c0-.11.02-.21.03-.32l.04-.32c.01-.11.03-.21.05-.31l.06-.31v-.02-.03-.02-.02-.02-.02-.02-.02-.02-.02-.02-.02-.02-.02-.02-.02l.03-.12.03-.11.03-.11.03-.11-.97-.26m78.6-4.6l-.72.69.15.13c.05.04.1.09.14.14s.1.09.14.14.09.1.14.14v.02.02l.04.03v.02.02.02.02.02l.02.03v.02.02l.03.04v.02.02.02l.03.03v.02.02l.05.06v.02.02l.05.08v.02l.05.08v.02.02l.03.06v.02.02.02l.03.05v.02.02l.04.07v.02.02l.03.06v.02.02.03l.03.03v.02.02.02l.03.05v.02.02.02l.03.04v.02.02.02.02l.03.03v.02.02.02l.03.07v.02.02l.09.17.08.16a2.45 2.45 0 0 0 .08.17l.08.17.94-.39c-.14-.32-.29-.62-.47-.92l-.57-.86-.66-.8c-.23-.25-.49-.51-.76-.74m-72.98-1.59l-.98.52-.91.6a9.04 9.04 0 0 0-.84.69l-.76.77.78.6.09-.1c.03-.03.06-.07.09-.1l.1-.1c.03-.03.07-.06.1-.1l.05-.05v-.02-.02l.04-.04v-.02l.02-.03v-.02-.02l.02-.02v-.02-.02-.02l.02-.03v-.02h.02l.02-.03v-.02l.03-.02v-.02l.03-.03h.02v-.02-.02l.03-.03v-.02l.04-.03v-.02-.02l.06-.05.06-.05h.02v-.02l.36-.24.37-.23.38-.21.39-.19.06-.03-.45-.84m8.47-1.1h-3.47-.17-.17-.17c-.06 0-.11 0-.17.01l.06.94h.11.11.11.11.12.02 3.51v-.94m8.17 0h-4.08v.94h4.07v-.94m8.18 0h-4.08l-.02.94h4.08l.02-.94zm8.17 0h-4.08l-.02.94h4.08l.02-.94zm8.17 0h-4.08l-.02.94h4.08l.03-.94m8.17 0h-4.08l-.03.94h4.08l.03-.94zm8.17 0h-4.09l-.03.94h4.09l.03-.94zm8.17 0h-4.09l-.04.94h4.15.37.17.13.12.08.04l.35.04.35.05.34.06.34.07h.03.04v.02h.04.03.03.03.02.03.03.02.03l.13.04a.93.93 0 0 1 .13.04c.05.02.08.02.12.04s.08.03.12.04l.38-.89-.88-.25-.9-.18-.91-.11c-.3-.03-.62-.04-.93-.04" class="B G"/></g><path d="M193.455 248.35c-22.52 0-40.83-18.32-40.83-40.83s18.32-40.83 40.83-40.83h161.01c22.52 0 40.83 18.32 40.83 40.83s-18.32 40.83-40.83 40.83h-161.01z" class="C E"/><path d="M354.465 167.18c22.28 0 40.33 18.06 40.33 40.33 0 22.28-18.06 40.33-40.33 40.33h-161.01c-22.28 0-40.33-18.06-40.33-40.33 0-22.28 18.06-40.33 40.33-40.33h161.01zm0-1h-161.01c-22.79 0-41.33 18.54-41.33 41.33s18.54 41.33 41.33 41.33h161.01c22.79 0 41.33-18.54 41.33-41.33s-18.54-41.33-41.33-41.33z" fill="url(#S)" class="F"/><g opacity=".75"><mask id="M" maskUnits="userSpaceOnUse" x="197" y="188" width="26" height="39"><path d="M222.986 188.16h-25.8v38.7h25.8v-38.7z" class="D"/></mask><g mask="url(#M)"><path d="M210.085 207.51a6.38 6.38 0 0 1 6.38-6.38c3.52 0 6.38 2.86 6.38 6.38s-2.86 6.38-6.38 6.38-6.38-2.86-6.38-6.38z" fill="#1abcfe"/><path d="M197.315 220.28a6.38 6.38 0 0 1 6.38-6.38h6.38v6.38a6.38 6.38 0 0 1-6.38 6.38c-3.52 0-6.38-2.86-6.38-6.38z" fill="#0acf83"/><path d="M210.085 188.36v12.77h6.38a6.38 6.38 0 0 0 6.38-6.38c0-3.52-2.86-6.38-6.38-6.38h-6.38v-.01z" fill="#ff7262"/><path d="M197.315 194.74a6.38 6.38 0 0 0 6.38 6.38h6.38v-12.77h-6.38a6.38 6.38 0 0 0-6.38 6.38v.01z" fill="#f24e1e"/><path d="M197.315 207.51a6.38 6.38 0 0 0 6.38 6.38h6.38v-12.77h-6.38a6.38 6.38 0 0 0-6.38 6.38v.01z" fill="#a259ff"/></g></g><path opacity=".75" d="M271.585 205.46l-.47-1.48-.44-1.44-.35-1.26h-.03l-.55 2.08-.74 2.39-.71 2.26h4.1l-.37-1.16-.44-1.39zm14.87-16.82h-24.99a6.84 6.84 0 0 0-6.85 6.85v24.02a6.84 6.84 0 0 0 6.85 6.85h24.99a6.84 6.84 0 0 0 6.85-6.85v-24.02a6.84 6.84 0 0 0-6.85-6.85zm-8.14 26.65h-3.37c-.11.02-.22-.06-.26-.18l-1.32-3.84h-6l-1.23 3.79c-.03.15-.16.24-.31.23h-3.03c-.18 0-.23-.1-.18-.29l5.19-14.95.16-.53a6.03 6.03 0 0 0 .1-1.05c-.02-.08.05-.16.13-.18h4.18c.13 0 .19.05.21.13l5.89 16.61c.05.18 0 .26-.16.26zm5.48-.24c0 .18-.06.26-.21.26h-3.16c-.16 0-.24-.1-.24-.26v-12.42c0-.16.07-.23.21-.23h3.19c.15 0 .21.08.21.23v12.42zm-.34-14.56c-.37.39-.92.6-1.47.56-.53.02-1.05-.19-1.44-.56-.37-.4-.56-.94-.55-1.48-.02-.55.19-1.06.58-1.44.39-.37.91-.56 1.44-.56.63 0 1.11.19 1.47.56a2.04 2.04 0 0 1 .53 1.44c.02.55-.18 1.08-.56 1.48z" fill="#ff9a00"/><path opacity=".75" d="M337.715 201.74c-.6-.24-1.24-.34-1.9-.32l-1.1.02a2.97 2.97 0 0 0-.66.02v5.42l.63.03h.85c.63 0 1.26-.1 1.85-.29.52-.15.97-.45 1.32-.85.34-.4.5-.95.5-1.66a2.63 2.63 0 0 0-.37-1.44c-.27-.42-.66-.74-1.13-.92l.01-.01zm15.96-13.09h-24.99a6.84 6.84 0 0 0-6.85 6.85v24.02a6.84 6.84 0 0 0 6.85 6.85h24.99a6.84 6.84 0 0 0 6.85-6.85V195.5a6.84 6.84 0 0 0-6.85-6.85zm-11.92 18.78c-.64.9-1.55 1.58-2.59 1.97-1.1.4-2.31.55-3.63.55-.39 0-.64 0-.81-.02-.16-.02-.39-.02-.69-.02v5.17c.02.11-.06.21-.18.23h-3.13c-.13 0-.19-.07-.19-.21v-16.59c0-.11.05-.18.16-.18l.9-.02 1.23-.03 1.4-.03 1.47-.02c1.32 0 2.42.16 3.32.5a5.73 5.73 0 0 1 2.16 1.32 5.1 5.1 0 0 1 1.18 1.84 6.23 6.23 0 0 1 .37 2.1c0 1.39-.32 2.53-.97 3.43v.01zm11.43 6.27a4.13 4.13 0 0 1-1.81 1.44c-.79.34-1.76.51-2.92.51-.74 0-1.47-.06-2.19-.21a6.27 6.27 0 0 1-1.64-.52c-.11-.06-.2-.18-.18-.3v-2.81s.02-.11.07-.15c.05-.03.1-.02.15.02a6.9 6.9 0 0 0 2 .79c.61.16 1.26.24 1.9.24.61 0 1.05-.08 1.34-.23.26-.11.44-.39.44-.68 0-.23-.13-.44-.39-.64-.26-.21-.79-.45-1.58-.76a10.06 10.06 0 0 1-2.29-1.16 4.26 4.26 0 0 1-1.23-1.37c-.26-.52-.39-1.08-.37-1.65 0-.69.19-1.35.55-1.95.4-.64 1-1.16 1.69-1.48.76-.39 1.71-.56 2.85-.56.66 0 1.34.05 2 .15.48.06.95.19 1.39.37.06.02.13.08.16.15a.63.63 0 0 1 .03.19v2.63c0 .06-.03.13-.08.16-.15.03-.23.03-.29 0-.48-.26-1-.44-1.55-.55-.6-.13-1.19-.21-1.81-.21a3.18 3.18 0 0 0-.97.11c-.21.05-.39.16-.5.32-.08.13-.13.29-.13.44s.06.29.16.42c.15.18.34.32.55.44l1.14.53a11.29 11.29 0 0 1 2.48 1.18c.53.34.97.79 1.27 1.34.26.51.39 1.08.37 1.66.02.76-.21 1.52-.63 2.15l.02-.01z" fill="#31a8ff"/><defs><filter id="N" x="54.281" y="45.659" width="65.442" height="158.191" filterUnits="userSpaceOnUse" class="I"><feFlood flood-opacity="0"/><feGaussianBlur stdDeviation="5"/><feComposite in2="SourceAlpha" operator="in"/><feBlend in="SourceGraphic"/></filter><filter id="O" x=".084" y="9.59" width="547.764" height="472.6" filterUnits="userSpaceOnUse" class="I"><feFlood flood-opacity="0" result="A"/><feColorMatrix in="SourceAlpha" values="0 0 0 0 0 0 0 0 0 0 0 0 0 0 0 0 0 0 127 0"/><feOffset dy="12"/><feGaussianBlur stdDeviation="13.5"/><feColorMatrix values="0 0 0 0 0.258824 0 0 0 0 0.392157 0 0 0 0 0.658824 0 0 0 0.1 0"/><feBlend in2="A" result="C"/><feColorMatrix in="SourceAlpha" values="0 0 0 0 0 0 0 0 0 0 0 0 0 0 0 0 0 0 127 0"/><feOffset dy="49"/><feGaussianBlur stdDeviation="24.5"/><feColorMatrix values="0 0 0 0 0.258824 0 0 0 0 0.392157 0 0 0 0 0.658824 0 0 0 0.09 0"/><feBlend in2="C" result="D"/><feColorMatrix in="SourceAlpha" values="0 0 0 0 0 0 0 0 0 0 0 0 0 0 0 0 0 0 127 0"/><feOffset dy="110"/><feGaussianBlur stdDeviation="33"/><feColorMatrix values="0 0 0 0 0.258824 0 0 0 0 0.392157 0 0 0 0 0.658824 0 0 0 0.05 0"/><feBlend in2="D" result="E"/><feColorMatrix in="SourceAlpha" values="0 0 0 0 0 0 0 0 0 0 0 0 0 0 0 0 0 0 127 0"/><feOffset dy="196"/><feGaussianBlur stdDeviation="39"/><feColorMatrix values="0 0 0 0 0.258824 0 0 0 0 0.392157 0 0 0 0 0.658824 0 0 0 0.01 0"/><feBlend in2="E"/><feBlend in="SourceGraphic"/></filter><linearGradient id="P" x1="87.002" y1="55.659" x2="87.002" y2="193.85" gradientUnits="userSpaceOnUse"><stop stop-color="#4264a8" stop-opacity=".1"/><stop offset="1" stop-color="#4264a8"/></linearGradient><linearGradient id="Q" x1="273.96" y1="29.94" x2="273.96" y2="206.57" gradientUnits="userSpaceOnUse"><stop stop-color="#000714"/><stop offset="1" stop-color="#000714" stop-opacity=".25"/></linearGradient><linearGradient id="R" x1="133.256" y1="0" x2="133.256" y2="80.66" gradientUnits="userSpaceOnUse"><stop stop-color="#4264a8" stop-opacity=".1"/><stop offset="1" stop-color="#4264a8"/></linearGradient><linearGradient id="S" x1="273.96" y1="166.18" x2="273.96" y2="248.84" gradientUnits="userSpaceOnUse"><stop stop-color="#4264a8" stop-opacity=".1"/><stop offset="1" stop-color="#4264a8"/></linearGradient><path id="T" d="M449.225 30.13l-1.95-3.38c1.63.2 3.2.56 4.67 1.06a21 21 0 0 1 4.15 1.94 20.87 20.87 0 0 1 3.53 2.7 19.45 19.45 0 0 1 2.8 3.35l2.11 3.47c-.81-1.23-1.76-2.36-2.83-3.38a20.94 20.94 0 0 0-3.57-2.73c-1.3-.79-2.7-1.45-4.2-1.96s-3.07-.88-4.72-1.07"/><path id="U" d="M446.266 29.95l-1.92-3.38.74.01.74.03.73.05.72.08 1.95 3.38-.73-.08-.74-.06-.74-.03c-.25 0-.5-.01-.75-.01"/></defs></svg>