<svg xmlns:xlink="http://www.w3.org/1999/xlink" xmlns="http://www.w3.org/2000/svg" width="207" height="158" fill="none">
    <style>
        <![CDATA[.B{fill:#4264a8}.C{fill:#fff}.D{opacity:.15}.E{fill:#000714}.F{fill-opacity:.75}.G{opacity:.6}.H{color-interpolation-filters:sRGB}.I{flood-opacity:0}]]></style>
    <g filter="url(#b)">
        <mask id="A" maskUnits="userSpaceOnUse" x="190" y="92" width="3" height="1">
            <path d="M190.961 92.56l1.89.06h-.03-.03-.03-.03l-1.89-.06h.03.03.03.03z" class="C"/>
        </mask>
        <g mask="url(#A)" class="E">
            <path d="M192.741 92.62l-1.89-.06h.03.03.03.03l1.89.06h-.03-.03-.03-.03z"/>
        </g>
        <mask id="B" maskUnits="userSpaceOnUse" x="190" y="92" width="3" height="1">
            <path d="M190.971 92.08l1.89.05h-.03-.03-.03-.03l-1.89-.05h.03.03.03.03z" class="C"/>
        </mask>
        <g mask="url(#B)" class="B">
            <path d="M192.741 92.13l-1.89-.05h.03.03.03.03l1.89.05h-.03-.03-.03-.03z"/>
        </g>
        <path d="M109.421 93.27l-1.62-.07 83.04-.64 1.9.06-83.32.65z" class="E"/>
        <path d="M109.421 92.76l-1.62-.06 83.04-.62 1.9.05-83.32.63z" class="B"/>
        <mask id="C" maskUnits="userSpaceOnUse" x="107" y="125" width="3" height="1">
            <path d="M108.881 125.77l-1.62-.2.13.01h.13.13.13l1.62.2h-.14-.13-.13c-.04 0-.09 0-.13-.01h.01z" class="C"/>
        </mask>
        <g mask="url(#C)" class="B">
            <path d="M108.881 125.77l-1.62-.2.13.01h.13.13.13l1.62.2h-.14-.13-.13c-.04 0-.09 0-.13-.01"/>
        </g>
        <mask id="D" maskUnits="userSpaceOnUse" x="103" y="121" width="6" height="5">
            <path d="M108.881 125.769l-1.62-.2c-.47-.06-.91-.21-1.31-.44a3.79 3.79 0 0 1-1.06-.9 4.15 4.15 0 0 1-.7-1.25c-.16-.46-.26-.97-.26-1.5l1.61.18c0 .53.09 1.04.26 1.51s.41.89.71 1.26a3.79 3.79 0 0 0 1.06.9c.4.23.85.38 1.32.44h-.01z"
                  class="C"/>
        </mask>
        <g mask="url(#D)" class="E">
            <path d="M108.881 125.769l-1.62-.2c-.47-.06-.91-.21-1.31-.44a3.79 3.79 0 0 1-1.06-.9 4.15 4.15 0 0 1-.7-1.25c-.16-.46-.26-.97-.26-1.5l1.61.18c0 .53.09 1.04.26 1.51s.41.89.71 1.26a3.79 3.79 0 0 0 1.06.9c.4.23.85.38 1.32.44"/>
        </g>
        <path d="M105.54 121.669l-1.6-.19V97.44l1.6.08v24.15z" class="E"/>
        <path d="M192.741 92.62c.49 0 .95.1 1.37.3a3.54 3.54 0 0 1 1.12.85c.32.36.57.79.75 1.27s.27 1.01.27 1.56v22.95c0 .55-.1 1.09-.27 1.57s-.43.92-.75 1.3a3.53 3.53 0 0 1-1.12.89c-.42.21-.88.34-1.37.35l-83.32 2.13a3.63 3.63 0 0 1-1.51-.29c-.47-.2-.88-.5-1.23-.88a4.28 4.28 0 0 1-.83-1.32c-.2-.5-.3-1.05-.3-1.64V97.52c0-.59.11-1.14.3-1.65s.48-.97.83-1.35a3.9 3.9 0 0 1 1.23-.91 3.63 3.63 0 0 1 1.51-.34l83.32-.65z"
              fill="url(#e)"/>
        <mask id="E" maskUnits="userSpaceOnUse" x="103" y="93" width="7" height="5">
            <path d="M105.541 97.52l-1.61-.08a4.64 4.64 0 0 1 .3-1.64c.19-.5.48-.96.83-1.34a3.94 3.94 0 0 1 1.23-.91c.47-.22.97-.34 1.5-.34l1.62.06c-.54 0-1.04.13-1.51.34a3.79 3.79 0 0 0-1.23.91 4.31 4.31 0 0 0-.83 1.35c-.2.51-.3 1.07-.3 1.65z"
                  class="C"/>
        </mask>
        <g mask="url(#E)" class="E">
            <path d="M105.541 97.52l-1.61-.08a4.73 4.73 0 0 1 .19-1.32c.12-.41.31-.8.54-1.15a3.98 3.98 0 0 1 .82-.91c.31-.25.66-.47 1.04-.61l1.62.06c-.38.15-.73.35-1.05.61s-.59.57-.82.92-.41.74-.54 1.16-.19.86-.19 1.33"/>
            <path d="M108.141 93.51l-1.62-.06c.1-.04.2-.07.3-.1s.21-.05.31-.07l.32-.05.33-.02 1.62.06a1.83 1.83 0 0 0-.33.02l-.32.05a3.53 3.53 0 0 0-.31.08l-.3.1"/>
        </g>
        <mask id="F" maskUnits="userSpaceOnUse" x="103" y="121" width="6" height="6">
            <path d="M108.821 126.28l-1.62-.2a4.12 4.12 0 0 1-1.47-.49 4.19 4.19 0 0 1-1.18-1c-.33-.4-.6-.88-.79-1.4a4.9 4.9 0 0 1-.29-1.68l1.61.18c0 .6.1 1.17.29 1.69s.46 1 .79 1.41.74.75 1.19 1.01.95.43 1.47.49v-.01z"
                  class="C"/>
        </mask>
        <g mask="url(#F)" class="B">
            <path d="M108.821 126.28l-1.62-.2a4.12 4.12 0 0 1-1.47-.49 4.19 4.19 0 0 1-1.18-1c-.33-.4-.6-.88-.79-1.4a4.9 4.9 0 0 1-.29-1.68l1.61.18c0 .6.1 1.17.29 1.69s.46 1 .79 1.41.74.75 1.19 1.01.95.43 1.47.49"/>
        </g>
        <path d="M105.081 121.68l-1.61-.19V97.45l1.61.08v24.15z" class="B"/>
        <mask id="G" maskUnits="userSpaceOnUse" x="103" y="92" width="7" height="6">
            <path d="M105.081 97.53l-1.61-.08c0-.65.12-1.27.34-1.84s.54-1.08.93-1.51a4.31 4.31 0 0 1 1.38-1.02 4.01 4.01 0 0 1 1.68-.38l1.62.06a4.02 4.02 0 0 0-1.69.38c-.52.24-.99.59-1.38 1.03s-.71.95-.93 1.51-.34 1.19-.34 1.85z"
                  class="C"/>
        </mask>
        <g mask="url(#G)" class="B">
            <path d="M105.081 97.53l-1.61-.08c0-.52.08-1.01.22-1.48a5.08 5.08 0 0 1 .6-1.29 4.53 4.53 0 0 1 .92-1.03c.35-.29.75-.52 1.17-.69l1.62.06c-.42.16-.82.4-1.17.69a4.82 4.82 0 0 0-.93 1.03c-.26.39-.47.83-.61 1.3s-.22.97-.22 1.49"/>
            <path d="M108.001 93.03l-1.62-.06.34-.11.35-.08.36-.05.37-.02 1.62.06c-.12 0-.25 0-.37.02l-.36.05a3.59 3.59 0 0 0-.35.08l-.34.11z"/>
        </g>
        <path d="M192.741 92.129c.54 0 1.06.12 1.53.34s.89.55 1.25.96.64.89.84 1.43a5.03 5.03 0 0 1 .31 1.75v22.94c0 .62-.11 1.22-.31 1.76s-.49 1.04-.84 1.45a4.15 4.15 0 0 1-1.25 1c-.47.24-.99.38-1.53.39l-83.32 2.15a3.84 3.84 0 0 1-1.69-.33 4.19 4.19 0 0 1-1.38-.98c-.39-.42-.71-.92-.93-1.48s-.34-1.18-.34-1.84v-24.15a5.15 5.15 0 0 1 .34-1.85c.22-.57.54-1.08.93-1.51s.86-.78 1.38-1.03 1.09-.38 1.69-.38l83.32-.62zm3.51 27.43v-22.95a4.6 4.6 0 0 0-.27-1.56c-.17-.47-.43-.91-.75-1.27a3.54 3.54 0 0 0-1.12-.85 3.02 3.02 0 0 0-1.37-.3l-83.32.65c-.54 0-1.04.13-1.51.34a3.79 3.79 0 0 0-1.23.91 4.31 4.31 0 0 0-.83 1.35c-.2.51-.3 1.07-.3 1.65v24.14a4.64 4.64 0 0 0 .3 1.64 4 4 0 0 0 .83 1.32c.35.37.77.67 1.23.88s.97.31 1.51.29l83.32-2.13c.49-.01.95-.14 1.37-.35s.8-.52 1.12-.89.57-.81.75-1.3.27-1.02.27-1.57z"
              class="B"/>
    </g>
    <g filter="url(#c)">
        <mask id="H" maskUnits="userSpaceOnUse" x="108" y="86" width="3" height="1">
            <path d="M110.53 86.87l-1.62-.03h.03.03.03.03l1.62.03h-.03-.03-.03-.03z" class="C"/>
        </mask>
        <g mask="url(#H)" class="B">
            <path d="M110.53 86.87l-1.62-.03h.03.03.03.03l1.62.03h-.03-.03-.03-.03z"/>
        </g>
        <mask id="I" maskUnits="userSpaceOnUse" x="108" y="32" width="3" height="1">
            <path d="M108.28 32.26l1.62-.2c.06 0 .12-.01.19-.02s.12 0 .19-.01.13 0 .19 0h.19l-1.62.2h-.19-.19c-.06 0-.12 0-.19.01l-.18.02h-.01z"
                  class="C"/>
        </mask>
        <g mask="url(#I)" class="B">
            <path d="M110.66 32.02l-1.62.2h-.19-.19c-.06 0-.12 0-.19.01l-.18.02 1.62-.2c.06 0 .12-.01.19-.02s.12 0 .19-.01.13 0 .19 0h.19"/>
        </g>
        <mask id="J" maskUnits="userSpaceOnUse" x="103" y="80" width="8" height="7">
            <path d="M110.53 86.87l-1.62-.03a5.2 5.2 0 0 1-2.07-.49c-.64-.3-1.21-.74-1.68-1.27s-.87-1.16-1.13-1.86-.42-1.47-.42-2.27h1.61a6.34 6.34 0 0 0 .42 2.29 6.02 6.02 0 0 0 1.14 1.87 5.56 5.56 0 0 0 1.69 1.28c.64.31 1.34.48 2.07.5l-.01-.02z"
                  class="C"/>
        </mask>
        <g mask="url(#J)" class="E">
            <path d="M110.53 86.87l-1.62-.03a5.2 5.2 0 0 1-2.07-.49c-.64-.3-1.21-.74-1.68-1.27s-.87-1.16-1.13-1.86-.42-1.47-.42-2.27h1.61a6.34 6.34 0 0 0 .42 2.29 6.02 6.02 0 0 0 1.14 1.87 5.56 5.56 0 0 0 1.69 1.28c.64.31 1.34.48 2.07.5"/>
        </g>
        <path d="M105.211 80.95l-1.61-.01V38.01l1.61-.17v43.11z" class="E"/>
        <mask id="K" maskUnits="userSpaceOnUse" x="103" y="32" width="7" height="7">
            <path d="M108.281 32.26l1.62-.2a4.94 4.94 0 0 0-1.85.62c-.56.32-1.07.75-1.49 1.26a5.78 5.78 0 0 0-.99 1.77 6.43 6.43 0 0 0-.36 2.13l-1.61.18c0-.75.13-1.46.36-2.12a5.73 5.73 0 0 1 .99-1.76c.42-.51.92-.94 1.48-1.26s1.18-.53 1.84-.62h.01z"
                  class="C"/>
        </mask>
        <g mask="url(#K)" class="E">
            <path d="M105.211 37.84l-1.61.18c0-.65.1-1.27.27-1.85s.43-1.12.76-1.6.71-.9 1.16-1.25.94-.62 1.47-.81l1.62-.2a5.15 5.15 0 0 0-1.47.81c-.44.35-.83.77-1.16 1.26a6.04 6.04 0 0 0-.76 1.6 6.29 6.29 0 0 0-.27 1.86"/>
            <path d="M108.871 32.3l-1.62.2.25-.08.25-.07c.08-.02.17-.04.26-.05l.26-.04 1.62-.2-.26.04c-.08.02-.17.03-.26.05l-.26.07-.25.08"/>
        </g>
        <path d="M191.83 34.11a4.52 4.52 0 0 1 1.93.49c.59.3 1.12.73 1.57 1.25s.81 1.14 1.06 1.82.39 1.43.39 2.21v40.96a6.36 6.36 0 0 1-.39 2.2c-.25.68-.61 1.29-1.06 1.8s-.98.93-1.57 1.22-1.24.45-1.93.45l-81.17.35c-.75 0-1.47-.16-2.12-.46a5.38 5.38 0 0 1-1.73-1.27c-.49-.54-.89-1.18-1.17-1.89s-.43-1.49-.43-2.31V37.84c0-.82.15-1.6.43-2.31a5.82 5.82 0 0 1 1.17-1.86c.49-.52 1.08-.95 1.73-1.23s1.37-.43 2.12-.41l81.17 2.09v-.01z"
              fill="url(#f)"/>
        <mask id="L" maskUnits="userSpaceOnUse" x="102" y="80" width="9" height="8">
            <path d="M110.5 87.63l-1.62-.04a5.7 5.7 0 0 1-2.32-.56 6.14 6.14 0 0 1-1.9-1.43 6.69 6.69 0 0 1-1.28-2.1c-.3-.79-.47-1.65-.47-2.56h1.6c0 .92.17 1.79.47 2.58a6.74 6.74 0 0 0 1.28 2.11 6.33 6.33 0 0 0 1.9 1.44 5.55 5.55 0 0 0 2.33.56h.01z"
                  class="C"/>
        </mask>
        <g mask="url(#L)" class="B">
            <path d="M110.5 87.63l-1.62-.04a5.7 5.7 0 0 1-2.32-.56 6.14 6.14 0 0 1-1.9-1.43 6.69 6.69 0 0 1-1.28-2.1c-.3-.79-.47-1.65-.47-2.56h1.6c0 .92.17 1.79.47 2.58a6.74 6.74 0 0 0 1.28 2.11 6.33 6.33 0 0 0 1.9 1.44 5.55 5.55 0 0 0 2.33.56"/>
        </g>
        <path d="M104.52 80.95l-1.61-.01V38l1.61-.18v43.13z" class="B"/>
        <mask id="M" maskUnits="userSpaceOnUse" x="102" y="31" width="8" height="7">
            <path d="M108.18 31.51l1.62-.21c-.74.09-1.45.34-2.08.7s-1.2.85-1.68 1.43-.86 1.25-1.12 1.99-.41 1.55-.41 2.39l-1.6.18c0-.84.14-1.65.41-2.38s.64-1.41 1.12-1.99a6.1 6.1 0 0 1 1.67-1.42c.63-.36 1.33-.6 2.07-.7v.01z"
                  class="C"/>
        </mask>
        <g mask="url(#M)" class="B">
            <path d="M104.52 37.82l-1.6.18a7.19 7.19 0 0 1 .31-2.09c.2-.66.49-1.26.86-1.8s.81-1.02 1.31-1.41a5.87 5.87 0 0 1 1.66-.92l1.62-.21c-.6.21-1.16.52-1.66.92s-.94.87-1.31 1.42-.66 1.15-.86 1.81-.31 1.36-.31 2.1"/>
            <path d="M108.66 31.57l-1.62.21.28-.09.28-.08c.09-.03.19-.04.29-.06l.29-.05 1.62-.21a2.5 2.5 0 0 0-.29.05l-.29.06a2.29 2.29 0 0 0-.28.08l-.28.09z"/>
        </g>
        <path d="M191.83 33.38c.77.02 1.5.22 2.17.56s1.27.83 1.77 1.42.91 1.29 1.19 2.06a7.28 7.28 0 0 1 .44 2.49v40.94a7.18 7.18 0 0 1-.44 2.48c-.28.76-.69 1.45-1.19 2.03s-1.1 1.05-1.77 1.38-1.4.51-2.17.51l-81.17.38a5.63 5.63 0 0 1-2.38-.52c-.73-.34-1.4-.82-1.95-1.43a6.94 6.94 0 0 1-1.32-2.13c-.31-.8-.48-1.68-.48-2.61V37.82c0-.93.17-1.8.48-2.6a6.4 6.4 0 0 1 1.32-2.1 6.06 6.06 0 0 1 1.95-1.39c.73-.32 1.54-.49 2.38-.47l81.17 2.12zm4.95 47.47V39.89c0-.78-.14-1.53-.39-2.21s-.61-1.3-1.06-1.82-.98-.95-1.57-1.25a4.38 4.38 0 0 0-1.93-.49l-81.17-2.09c-.75-.02-1.47.13-2.12.41a5.12 5.12 0 0 0-1.73 1.23 6.05 6.05 0 0 0-1.17 1.86c-.28.7-.43 1.49-.43 2.31v43.11c0 .82.15 1.6.43 2.31s.68 1.35 1.17 1.89a5.38 5.38 0 0 0 1.73 1.27c.65.3 1.37.46 2.12.46l81.17-.35c.69 0 1.34-.16 1.93-.45s1.12-.71 1.57-1.22.81-1.12 1.06-1.8a6.36 6.36 0 0 0 .39-2.2"
              class="B"/>
    </g>
    <mask id="N" maskUnits="userSpaceOnUse" x="111" y="25" width="63" height="55">
        <path d="M111.33 79.51V25.26l62.02.91V78.6l-62.02.91z" class="C"/>
    </mask>
    <g mask="url(#N)">
        <path d="M170.68 26.62l-56.5-.82c-.33 0-.64.06-.93.19s-.54.31-.76.54-.39.51-.51.82a2.78 2.78 0 0 0-.19 1v47.5a3.31 3.31 0 0 0 .23 1.22c.15.38.36.71.62.99s.57.51.92.66.72.24 1.12.23l55.99-.81c.31 0 .6-.08.87-.21s.51-.32.71-.55.36-.5.48-.8.17-.63.17-.98V29.16a2.84 2.84 0 0 0-.17-.98c-.11-.3-.28-.57-.48-.8s-.44-.42-.71-.55-.56-.21-.87-.21"
              fill="url(#g)"/>
        <path d="M114.69 78.96a2.77 2.77 0 0 1-1.12-.23c-.34-.15-.66-.38-.92-.66s-.47-.62-.62-.99a3.23 3.23 0 0 1-.23-1.22v-47.5c0-.36.07-.7.19-1s.3-.58.51-.82.47-.42.76-.54.6-.2.93-.19l56.5.82c.31 0 .6.08.87.21s.51.32.71.55.36.5.48.8.17.63.17.98v46.46a2.84 2.84 0 0 1-.17.98c-.11.3-.28.57-.48.8s-.44.42-.71.55-.56.21-.87.21l-55.99.81m55.98-52.85l-56.5-.83c-.39 0-.77.07-1.11.23a2.92 2.92 0 0 0-.91.65c-.26.28-.47.61-.61.97s-.22.77-.22 1.2v47.51c0 .5.09.98.26 1.42a3.67 3.67 0 0 0 .72 1.15c.3.33.67.59 1.07.76s.84.27 1.3.27l55.99-.82a2.31 2.31 0 0 0 1.04-.25 2.83 2.83 0 0 0 .85-.65c.24-.27.44-.6.57-.96s.21-.75.21-1.17V29.16a3.24 3.24 0 0 0-.21-1.17 3.3 3.3 0 0 0-.57-.96 2.54 2.54 0 0 0-.85-.65c-.32-.15-.67-.24-1.04-.25"
              fill="url(#h)" class="F"/>
    </g>
    <mask id="O" maskUnits="userSpaceOnUse" x="180" y="26" width="20" height="54">
        <path d="M180.55 79.86V26.25l19.22.28v53.04l-19.22.29z" class="C"/>
    </mask>
    <g mask="url(#O)">
        <path d="M196.57 26.98l-13.1-.19a2.39 2.39 0 0 0-.96.2c-.3.13-.56.33-.79.57a2.44 2.44 0 0 0-.53.86 3.06 3.06 0 0 0-.2 1.05v27.84c0 .37.07.73.2 1.05a2.89 2.89 0 0 0 .53.86c.22.24.49.44.79.58s.62.21.96.21l13.1-.05c.34 0 .66-.08.95-.22s.55-.34.77-.58a2.57 2.57 0 0 0 .52-.86c.12-.33.19-.67.19-1.04V29.7c0-.37-.07-.72-.19-1.05a2.57 2.57 0 0 0-.52-.86c-.22-.24-.48-.45-.77-.59a2.33 2.33 0 0 0-.95-.23"
              fill="url(#i)"/>
        <path d="M183.47 60.01c-.34 0-.66-.07-.96-.21s-.56-.33-.79-.58-.41-.54-.53-.86-.2-.68-.2-1.05V29.47c0-.37.07-.73.2-1.05a3.02 3.02 0 0 1 .53-.86 2.22 2.22 0 0 1 .79-.57c.3-.13.62-.21.96-.2l13.1.19c.34 0 .66.09.95.23a2.44 2.44 0 0 1 .77.59c.22.25.4.54.52.86a3.01 3.01 0 0 1 .19 1.05v27.57c0 .37-.07.72-.19 1.04s-.3.61-.52.86-.48.44-.77.58-.61.21-.95.22l-13.1.05m13.1-33.55l-13.1-.19c-.4 0-.79.08-1.14.24s-.66.39-.93.67-.48.63-.63 1.01a3.39 3.39 0 0 0-.23 1.25v27.85a3.43 3.43 0 0 0 .23 1.25c.15.38.36.73.63 1.02s.58.52.93.68.73.25 1.14.25l13.1-.05c.4 0 .78-.09 1.12-.25s.65-.4.92-.69.47-.63.62-1.01.23-.8.23-1.24V29.71c0-.44-.08-.86-.23-1.24a3.4 3.4 0 0 0-.62-1.02c-.26-.29-.57-.53-.92-.7s-.72-.26-1.12-.27z"
              fill="url(#j)" class="F"/>
        <path d="M197.14 65.99l-13.58.1a1.91 1.91 0 0 0-.86.2c-.26.13-.51.31-.71.53a2.49 2.49 0 0 0-.48.78c-.11.29-.18.61-.18.95v8.36c0 .34.06.66.18.95s.28.55.48.77a2.11 2.11 0 0 0 .71.51c.27.12.56.18.86.18l13.58-.2a2.04 2.04 0 0 0 .85-.2c.26-.12.5-.31.69-.53a2.66 2.66 0 0 0 .47-.78 2.67 2.67 0 0 0 .17-.95v-8.27c0-.33-.06-.65-.17-.94s-.27-.55-.47-.77-.43-.39-.69-.51-.55-.19-.85-.18z"
              fill="url(#k)"/>
        <path d="M183.56 79.32c-.31 0-.6-.06-.86-.18s-.51-.3-.71-.51-.37-.48-.48-.77-.18-.61-.18-.95v-8.36c0-.34.06-.66.18-.95s.28-.56.48-.78.44-.4.71-.53.56-.2.86-.2l13.58-.1c.3 0 .59.06.85.18s.5.3.69.51.36.48.47.77.17.61.17.94v8.27a2.67 2.67 0 0 1-.17.95c-.11.29-.27.56-.47.78a2.36 2.36 0 0 1-.69.53 1.9 1.9 0 0 1-.85.2l-13.58.2zm13.58-13.83l-13.58.09c-.37 0-.72.09-1.04.24s-.61.37-.85.64-.44.59-.58.94-.21.74-.21 1.15v8.36c0 .41.08.79.21 1.14s.33.67.58.93a2.86 2.86 0 0 0 .85.62c.32.15.67.22 1.04.22l13.58-.2c.36 0 .71-.09 1.03-.24a2.61 2.61 0 0 0 .84-.64c.24-.27.43-.58.56-.94a3.34 3.34 0 0 0 .21-1.14v-8.27a2.99 2.99 0 0 0-.21-1.13c-.14-.34-.33-.66-.56-.92s-.52-.47-.84-.62-.66-.23-1.03-.22"
              fill="url(#l)" class="F"/>
    </g>
    <mask id="P" maskUnits="userSpaceOnUse" x="186" y="31" width="9" height="25">
        <path d="M186.09 55.34V31.52l8.59.06v23.71l-8.59.05z" class="C"/>
    </mask>
    <g mask="url(#P)">
        <path opacity=".75"
              d="M192.199 35.559s-.09 0-.14.02-.09.03-.13.06-.08.06-.11.1-.06.08-.08.13c-.01.02-.02.04-.03.07s-.02.05-.02.07-.01.05-.02.07 0 .05-.01.07h.76.06.05.05.04l.08-.04v-.04l-.02-.14c-.02-.06-.04-.11-.07-.15a1.2 1.2 0 0 0-.11-.12c-.04-.04-.09-.06-.13-.07s-.1-.03-.15-.03m-3.33-.91l-.03.12-.03.13-.03.13c-.01.05-.02.09-.04.13-.01.05-.03.1-.04.14l-.04.15c-.01.05-.03.1-.04.15s-.03.1-.04.15l-.03.15c-.01.05-.02.1-.04.14s-.03.09-.04.14-.03.09-.04.13h.91l-.02-.07c-.01-.03-.01-.05-.02-.07s-.02-.05-.02-.07-.02-.05-.02-.07c0-.03-.01-.05-.02-.08s-.01-.06-.02-.09-.02-.06-.02-.09-.02-.06-.02-.09l-.03-.09-.03-.09-.03-.09c-.01-.03-.02-.06-.02-.09l-.03-.09c-.01-.03-.02-.06-.02-.09s-.02-.06-.02-.09-.02-.06-.02-.08c0-.03-.01-.06-.02-.08s-.01-.05-.02-.08-.01-.05-.02-.07-.01-.05-.02-.07m3.54 3.51h-.02-.04-.02-.19c-.06 0-.12-.01-.18-.03s-.11-.03-.16-.04-.1-.04-.15-.06c-.04-.02-.09-.04-.13-.07l-.12-.09c-.04-.03-.07-.07-.11-.1s-.07-.08-.1-.12-.06-.08-.08-.12-.05-.08-.07-.13a1.63 1.63 0 0 0-.06-.13c-.02-.04-.03-.09-.04-.14l-.03-.14c-.01-.05-.02-.09-.02-.14s-.01-.1-.01-.14v-.15-.16c0-.05 0-.11.02-.16s.02-.1.03-.16.03-.1.04-.16a.58.58 0 0 1 .05-.14 1.96 1.96 0 0 0 .06-.14c.02-.05.05-.09.07-.13a.47.47 0 0 1 .09-.12l.09-.11.1-.1c.03-.03.07-.06.11-.09s.08-.05.12-.07l.13-.06c.04-.02.09-.03.14-.04s.1-.01.15-.02.11 0 .16 0h.02.02.13c.04 0 .09.01.13.02s.08.02.12.04.08.03.12.05l.11.06c.04.02.07.05.1.07s.06.06.09.09.05.06.08.1l.07.1c.02.03.04.07.06.11a.61.61 0 0 1 .05.12c.01.04.03.08.04.12l.03.12c.01.04.01.08.02.12s0 .08.01.12 0 .08 0 .12v.07.07.06.06l-.02.16-.05.05h-.11s-.03.01-.05.01h-.05-.06-.06-.06-.06-.07-.07-1.13s0 .05.02.08.01.06.02.09l.03.09c.01.03.03.06.04.08.02.02.03.05.05.07s.04.05.06.07.05.04.07.06.05.03.08.04c.03.02.07.03.11.04l.11.03a.43.43 0 0 0 .12.02h.12.09.09c.03 0 .06 0 .09-.01s.06-.01.09-.02c.03 0 .05 0 .08-.02s.05-.01.08-.02.05-.02.08-.02.05-.02.08-.03l.02.04v.65l-.03.03c-.03.01-.06.03-.09.04l-.09.03-.09.03c-.03.01-.06.01-.09.02-.03 0-.07.01-.1.02s-.07.01-.1.01h-.1-.11m-5.21-.09l-.03-.07 1.15-3.65.03-.13.02-.26.02-.04h.93l.05.03 1.31 4.06-.03.06h-.75l-.06-.05-.29-.95h-1.33l-.28.92-.07.06h-.68m5.97-6.5l-5.55-.04c-.21 0-.41.04-.59.13s-.35.21-.48.36a1.9 1.9 0 0 0-.33.53c-.08.2-.12.42-.12.65v5.9c0 .23.04.45.12.65s.19.38.33.53a1.68 1.68 0 0 0 .48.36c.18.09.38.13.59.13h5.55c.21 0 .41-.04.59-.12s.34-.21.48-.36.25-.33.32-.53.12-.42.12-.65v-5.87c0-.23-.04-.45-.12-.65s-.19-.38-.32-.54-.3-.28-.48-.36-.38-.13-.59-.14m-3.82 17.66h-.02-.02-.09-.1-.1-.1v1.32h.14.19.1c.03 0 .07 0 .1-.01s.07-.01.1-.02l.1-.03c.03 0 .06-.02.09-.03s.05-.03.08-.05.05-.04.07-.06.04-.04.06-.07c.02-.02.04-.05.05-.08s.03-.06.04-.09a.36.36 0 0 0 .02-.11v-.12-.09c0-.03 0-.06-.01-.09l-.03-.09c-.01-.03-.03-.06-.04-.08s-.03-.05-.05-.07l-.06-.06c-.02-.02-.04-.04-.07-.05s-.05-.03-.08-.04-.06-.03-.09-.04l-.09-.03c-.03-.01-.06-.01-.09-.02s-.06 0-.1 0m2.73.66l.09-.1.09-.09c.03-.03.07-.05.1-.08s.07-.05.11-.07.08-.05.13-.07.09-.04.13-.05l.14-.03c.05-.01.1-.01.14-.01l.05.04v.78l-.06.05h-.03-.17c-.05 0-.11.02-.16.03s-.11.03-.16.05a1.01 1.01 0 0 0-.15.07l-.18.14v2.01l-.05.05h-.7-.02-.02v-.03-.02-2.2-.3-.31-.07-.07-.07-.07-.03l.02-.02h.64l.07.06c0 .03.02.06.02.09s.01.06.01.09v.09.09m-3.91 2.75l-.04-.04v-4.07l.03-.05h.2l.27-.01h.31l.33-.01h.21c.07 0 .13.01.19.02s.12.02.18.04l.16.05.13.06c.04.02.08.05.12.07s.08.06.12.09.07.07.11.1c.03.03.06.06.08.1s.05.07.07.11l.06.12c.02.04.03.08.05.12l.03.13.03.13.02.13c.01.05 0 .09 0 .13l-.01.24-.04.22c-.02.07-.04.14-.07.2l-.1.18c-.03.05-.07.11-.12.15s-.09.09-.14.13l-.15.11c-.05.03-.11.06-.17.08-.06.03-.12.05-.19.06s-.13.03-.2.04l-.21.02h-.22-.18-.16v1.29.02l-.02.02h-.02-.69m4.99-6.55h-5.55c-.1 0-.2.02-.3.04a1.11 1.11 0 0 0-.29.1c-.1.05-.18.09-.26.16s-.16.13-.23.21-.14.16-.19.26l-.14.29a1.18 1.18 0 0 0-.08.31l-.03.33v5.9c0 .23.04.45.12.65s.19.38.33.53a1.68 1.68 0 0 0 .48.36c.18.09.38.13.59.13l5.55-.04c.21 0 .41-.05.59-.13s.34-.21.48-.36.25-.33.32-.53.12-.42.12-.65v-5.87c0-.23-.04-.45-.12-.65s-.19-.38-.32-.53-.3-.27-.48-.36-.38-.13-.59-.13"
              fill="#99f"/>
    </g>
    <mask id="Q" maskUnits="userSpaceOnUse" x="110" y="95" width="82" height="27">
        <path d="M110.85 121.92l-.45-25.59 80.66-.85.43 24.47-80.64 1.97z" class="C"/>
    </mask>
    <g mask="url(#Q)">
        <path d="M120.611 98.8l-8.56.1c-.15 0-.3.04-.43.1s-.25.15-.35.26a1.28 1.28 0 0 0-.24.39c-.06.15-.08.31-.08.47l.04 2.34c0 .17.04.33.1.47a1.39 1.39 0 0 0 .25.38c.1.11.23.2.36.25a1.23 1.23 0 0 0 .44.09l8.56-.12c.15 0 .3-.04.43-.1s.25-.15.35-.26a1.09 1.09 0 0 0 .23-.39 1.45 1.45 0 0 0 .08-.47l-.04-2.32c0-.17-.04-.33-.1-.47a1.36 1.36 0 0 0-.24-.38c-.1-.11-.22-.19-.36-.25a1.08 1.08 0 0 0-.44-.09z"
              class="B D"/>
        <path d="M150.351 98.44l-24.26.29c-.18 0-.36.04-.51.12s-.3.18-.42.31-.21.29-.28.46-.1.36-.09.56l.03 1.84a1.47 1.47 0 0 0 .11.56c.07.17.17.33.29.45s.27.23.43.3.33.11.52.1l24.26-.35-.08-4.66m5.03-.06l-4.58.05.08 4.66 4.58-.07c.18 0 .34-.04.5-.12a1.23 1.23 0 0 0 .4-.31c.11-.13.21-.28.27-.45s.09-.36.09-.56l-.03-1.81a1.42 1.42 0 0 0-.11-.55c-.07-.17-.16-.32-.28-.45s-.26-.23-.41-.3a1.18 1.18 0 0 0-.5-.11"
              class="B G"/>
        <path d="M162.771 98.3l-2.23.03a.78.78 0 0 0-.37.09c-.11.06-.22.13-.3.23a1.27 1.27 0 0 0-.2.34c-.05.13-.07.27-.07.42l.04 2.51a1.07 1.07 0 0 0 .08.41c.05.12.12.24.21.34a.84.84 0 0 0 .31.22c.12.05.24.08.38.08l2.23-.03a.78.78 0 0 0 .37-.09c.11-.06.22-.13.3-.23a1.27 1.27 0 0 0 .2-.34c.05-.13.07-.27.07-.42l-.04-2.5a1.07 1.07 0 0 0-.08-.41c-.05-.12-.12-.24-.21-.34a.84.84 0 0 0-.31-.22c-.12-.05-.24-.08-.38-.08m14.34-.19l-9.23.11c-.15 0-.29.04-.42.1s-.24.15-.34.26-.17.24-.22.38-.08.3-.08.47l.04 2.23c0 .17.04.32.09.46s.14.27.24.38a1.07 1.07 0 0 0 .35.25.99.99 0 0 0 .42.09l9.23-.13a.92.92 0 0 0 .41-.1 1.03 1.03 0 0 0 .33-.26c.09-.11.17-.24.22-.38a1.39 1.39 0 0 0 .08-.46l-.04-2.22c0-.16-.04-.32-.09-.46a1.16 1.16 0 0 0-.23-.37 1.07 1.07 0 0 0-.34-.25.99.99 0 0 0-.42-.09m13.13-.16l-7.89.09c-.12 0-.23.03-.34.08s-.2.12-.27.21-.14.2-.18.31-.06.25-.06.38l.05 2.62c0 .13.03.26.08.38s.11.22.19.31.18.16.28.21.22.07.34.07l7.89-.11c.12 0 .24-.03.34-.08a.79.79 0 0 0 .27-.21c.07-.09.14-.2.18-.31s.06-.25.06-.38l-.05-2.61c0-.13-.03-.26-.07-.38s-.11-.22-.19-.31-.17-.16-.28-.21-.22-.07-.34-.07"
              class="B D"/>
        <path d="M125.671 114.21l-13.29.27a1.04 1.04 0 0 0-.46.11 1.25 1.25 0 0 0-.37.28 1.33 1.33 0 0 0-.25.41 1.17 1.17 0 0 0-.08.5l.04 2.21a1.34 1.34 0 0 0 .1.49c.06.15.15.29.26.4s.24.21.38.27a1.18 1.18 0 0 0 .46.09l13.29-.3c.16 0 .31-.04.45-.11a1.25 1.25 0 0 0 .37-.28c.11-.12.19-.26.24-.41s.09-.32.08-.49l-.04-2.19c0-.18-.04-.34-.1-.49s-.15-.29-.26-.4a1.12 1.12 0 0 0-.38-.26c-.15-.06-.3-.09-.46-.09"
              fill="url(#m)" class="D"/>
        <path d="M112.461 119.24a1.18 1.18 0 0 1-.46-.09c-.14-.06-.27-.15-.38-.27s-.2-.25-.26-.4a1.34 1.34 0 0 1-.1-.49l-.04-2.21a1.59 1.59 0 0 1 .08-.5c.05-.15.14-.29.25-.41a1.25 1.25 0 0 1 .37-.28c.14-.07.29-.11.46-.11l13.29-.27a1.18 1.18 0 0 1 .46.09c.14.06.27.15.38.26a1.38 1.38 0 0 1 .26.4c.07.15.1.32.1.49l.04 2.19a1.57 1.57 0 0 1-.08.49 1.3 1.3 0 0 1-.24.41c-.1.12-.23.21-.37.28s-.29.11-.45.11l-13.29.3m13.2-5.55l-13.29.27c-.23 0-.44.06-.64.15s-.37.23-.52.39-.26.36-.34.58a2.02 2.02 0 0 0-.12.7l.04 2.21c0 .25.05.48.14.69a1.92 1.92 0 0 0 .36.56c.15.16.33.28.53.37s.42.13.65.13l13.29-.31c.22 0 .44-.06.63-.15s.37-.23.51-.39.26-.36.34-.57.12-.45.12-.69l-.04-2.19c0-.25-.05-.48-.14-.69a1.92 1.92 0 0 0-.36-.56c-.15-.16-.33-.28-.52-.37s-.41-.13-.64-.13z"
              fill="url(#n)" class="D F"/>
        <path d="M133.581 114.05l-2.3.05c-.14 0-.27.04-.39.09s-.22.14-.31.24-.16.22-.21.35-.07.27-.07.42l.04 2.55a.99.99 0 0 0 .09.42c.06.13.13.24.22.34s.2.17.32.23.25.08.39.08l2.3-.05c.14 0 .27-.04.38-.09a1 1 0 0 0 .31-.24c.09-.1.16-.22.21-.35s.07-.27.07-.42l-.04-2.54a1.16 1.16 0 0 0-.08-.42c-.05-.13-.13-.24-.22-.34s-.2-.17-.32-.22-.25-.08-.39-.08"
              fill="url(#o)" class="D"/>
        <path d="M131.36 118.81c-.14 0-.27-.02-.39-.08s-.23-.13-.32-.23-.17-.21-.22-.34a1.43 1.43 0 0 1-.09-.42l-.04-2.55c0-.15.02-.29.07-.42s.12-.25.21-.35.19-.18.31-.24a.86.86 0 0 1 .39-.09l2.3-.05c.14 0 .27.02.39.08s.23.13.32.22a1 1 0 0 1 .22.34 1.16 1.16 0 0 1 .08.42l.04 2.54c0 .15-.02.29-.07.42s-.12.25-.21.35-.19.18-.31.24a.85.85 0 0 1-.38.09l-2.3.05m2.21-5.27l-2.3.05c-.2 0-.39.05-.57.14a1.44 1.44 0 0 0-.46.35c-.13.15-.23.32-.3.51s-.11.4-.1.62l.04 2.55c0 .22.05.43.13.61s.19.36.32.5.29.25.47.33.37.12.57.11l2.3-.05a1.19 1.19 0 0 0 .56-.14 1.56 1.56 0 0 0 .46-.35c.13-.15.23-.32.3-.51s.11-.4.1-.62l-.04-2.54a1.6 1.6 0 0 0-.13-.62c-.08-.19-.19-.36-.32-.5s-.29-.25-.47-.33-.37-.12-.57-.11"
              fill="url(#p)" class="D F"/>
        <path d="M142.371 113.87l-4.01.08c-.14 0-.27.04-.4.1a.87.87 0 0 0-.32.25c-.09.11-.16.22-.21.36a1.07 1.07 0 0 0-.07.44l.04 2.46c0 .15.03.3.09.43s.13.25.22.35a.94.94 0 0 0 .33.23c.12.05.26.08.4.08l4.01-.09c.14 0 .27-.04.39-.1a.96.96 0 0 0 .32-.25c.09-.11.16-.23.21-.36s.08-.28.07-.44l-.04-2.45c0-.15-.03-.3-.09-.43a1.18 1.18 0 0 0-.23-.35c-.1-.1-.21-.18-.33-.23s-.26-.08-.4-.08"
              fill="url(#q)" class="D"/>
        <path d="M138.441 118.64c-.14 0-.28-.03-.4-.08s-.23-.13-.33-.23-.17-.22-.22-.35-.08-.28-.09-.43l-.04-2.46a1.31 1.31 0 0 1 .07-.44 1.07 1.07 0 0 1 .21-.36 1.11 1.11 0 0 1 .32-.25c.12-.06.25-.09.4-.1l4.01-.08c.14 0 .27.03.4.08s.23.13.33.23a1.18 1.18 0 0 1 .23.35c.06.13.09.28.09.43l.04 2.45a1.31 1.31 0 0 1-.07.44 1.07 1.07 0 0 1-.21.36 1.11 1.11 0 0 1-.32.25 1.02 1.02 0 0 1-.39.1l-4.01.09m3.92-5.28l-4.01.08a1.23 1.23 0 0 0-.57.14c-.17.09-.33.21-.47.36a1.53 1.53 0 0 0-.31.52c-.07.19-.11.41-.11.64l.04 2.46a1.65 1.65 0 0 0 .13.63 1.6 1.6 0 0 0 .33.51c.14.14.3.26.48.34s.37.12.58.11l4.01-.09a1.23 1.23 0 0 0 .57-.14c.17-.09.33-.21.46-.36a1.71 1.71 0 0 0 .31-.52c.07-.19.11-.41.1-.63l-.04-2.45a1.65 1.65 0 0 0-.13-.63 1.91 1.91 0 0 0-.32-.51c-.13-.15-.3-.26-.47-.34s-.37-.12-.58-.12z"
              fill="url(#r)" class="D F"/>
        <path d="M150.611 113.7l-3.35.07c-.16 0-.32.04-.45.11a1.39 1.39 0 0 0-.37.28c-.11.12-.19.26-.24.41s-.09.32-.08.5l.04 2.1a1.35 1.35 0 0 0 .1.5c.06.15.15.29.26.4s.24.21.38.27a1.18 1.18 0 0 0 .46.09l3.35-.08-.08-4.66m12.23-.25l-11.78.24.08 4.66 11.78-.27c.16 0 .31-.04.45-.11s.26-.16.36-.28.18-.26.24-.41.08-.32.08-.5l-.04-2.08a1.34 1.34 0 0 0-.1-.49c-.06-.15-.15-.29-.25-.4a1.26 1.26 0 0 0-.37-.27.98.98 0 0 0-.45-.09z"
              fill="url(#s)"/>
        <path d="M150.6 113.19l-3.35.07a1.46 1.46 0 0 0-.63.15c-.19.09-.37.23-.51.39a1.85 1.85 0 0 0-.34.58 2.02 2.02 0 0 0-.12.7l.04 2.1c0 .25.05.48.14.69a1.92 1.92 0 0 0 .36.56c.15.16.33.29.53.37a1.7 1.7 0 0 0 .64.13l3.35-.08v-.5l-3.36.08a1.18 1.18 0 0 1-.46-.09c-.14-.06-.27-.15-.38-.27s-.2-.25-.26-.4a1.35 1.35 0 0 1-.1-.5l-.04-2.1c0-.18.03-.34.08-.5a1.2 1.2 0 0 1 .24-.41 1.01 1.01 0 0 1 .37-.28c.14-.06.29-.11.45-.11l3.35-.07v-.5m12.22-.25l-11.78.24v.5l11.79-.24a1.13 1.13 0 0 1 .45.09 1.07 1.07 0 0 1 .37.27c.11.12.19.25.25.4a1.34 1.34 0 0 1 .1.49l.04 2.08a1.59 1.59 0 0 1-.08.5 1.3 1.3 0 0 1-.24.41c-.1.12-.22.21-.36.28s-.29.11-.45.11l-11.78.27v.5l11.79-.27c.22 0 .43-.06.62-.15s.36-.23.5-.39.26-.36.33-.57a1.96 1.96 0 0 0 .11-.69l-.04-2.08c0-.24-.05-.47-.14-.68s-.2-.4-.35-.56-.32-.28-.51-.37-.4-.13-.62-.13"
              fill="url(#t)" class="F"/>
        <path d="M183.591 113.03l-15.37.31c-.16 0-.31.04-.44.11s-.26.16-.36.28-.18.26-.24.41-.08.32-.08.5l.04 2.07c0 .18.04.34.1.49s.15.29.25.4a1.26 1.26 0 0 0 .37.27.98.98 0 0 0 .45.09l15.37-.35c.16 0 .3-.04.44-.11s.25-.16.35-.28.18-.25.23-.41a1.62 1.62 0 0 0 .08-.49l-.04-2.05a1.34 1.34 0 0 0-.1-.49c-.06-.15-.14-.28-.25-.4a1.1 1.1 0 0 0-.36-.26 1.05 1.05 0 0 0-.44-.09z"
              fill="url(#u)" class="D"/>
        <path d="M168.301 117.96a1.13 1.13 0 0 1-.45-.09 1.07 1.07 0 0 1-.37-.27c-.11-.12-.19-.25-.25-.4a1.34 1.34 0 0 1-.1-.49l-.04-2.07c0-.18.03-.34.08-.5a1.2 1.2 0 0 1 .24-.41c.1-.12.22-.21.36-.28s.29-.11.44-.11l15.37-.31a1.08 1.08 0 0 1 .44.09 1.04 1.04 0 0 1 .36.26c.1.11.19.25.25.4s.09.32.1.49l.04 2.05a1.57 1.57 0 0 1-.08.49c-.05.15-.13.29-.23.41a1.17 1.17 0 0 1-.35.28c-.13.07-.28.11-.44.11l-15.37.35zm15.28-5.43l-15.37.31c-.22 0-.43.06-.62.15s-.36.23-.5.39-.26.36-.33.57a1.96 1.96 0 0 0-.11.69l.04 2.07c0 .24.05.47.14.68s.2.4.35.55a1.85 1.85 0 0 0 .51.37 1.3 1.3 0 0 0 .62.12l15.37-.36c.21 0 .42-.06.6-.15s.35-.23.49-.39.25-.35.32-.56.12-.44.11-.68l-.04-2.05c0-.24-.05-.47-.13-.68a1.7 1.7 0 0 0-.34-.55 1.67 1.67 0 0 0-.5-.37c-.19-.09-.39-.13-.61-.13"
              fill="url(#v)" class="D F"/>
        <path d="M112.421 111.45c-.18 0-.35-.03-.5-.1s-.29-.17-.41-.29a1.39 1.39 0 0 1-.28-.43 1.37 1.37 0 0 1-.11-.54l-.04-2.01a1.61 1.61 0 0 1 .09-.54c.06-.17.15-.32.27-.44s.25-.23.4-.3a1.36 1.36 0 0 1 .5-.12l22.3-.36c.17 0 .34.03.49.1s.29.16.4.29.21.27.27.43.1.34.11.53l.03 1.98c0 .19-.03.37-.09.53s-.15.31-.26.44-.24.23-.39.3-.31.11-.48.12l-22.3.42m22.21-5.63l-22.3.35a1.58 1.58 0 0 0-.68.16c-.21.1-.4.24-.55.41s-.28.38-.37.61a1.83 1.83 0 0 0-.12.74l.04 2.01a1.94 1.94 0 0 0 .15.73c.09.22.22.42.39.59s.35.3.57.39a1.77 1.77 0 0 0 .69.14l22.3-.42a1.46 1.46 0 0 0 .66-.16 1.93 1.93 0 0 0 .54-.41c.16-.17.27-.37.36-.6a1.78 1.78 0 0 0 .12-.73l-.03-1.98c0-.26-.06-.5-.15-.73s-.22-.42-.38-.59-.34-.3-.55-.39-.43-.14-.67-.14"
              class="B D"/>
        <path d="M150.47 105.57l-9.92.16c-.23 0-.45.06-.65.16s-.38.24-.53.41-.27.37-.35.59-.12.47-.12.72l.04 2.01c0 .25.06.49.14.71s.22.41.37.58a1.56 1.56 0 0 0 .54.38 1.43 1.43 0 0 0 .65.13l9.92-.19v-.5l-9.93.19c-.17 0-.33-.03-.48-.1s-.28-.16-.39-.28-.21-.26-.27-.42-.1-.34-.11-.52l-.04-2.01c0-.19.03-.36.09-.52s.15-.31.26-.43.24-.22.38-.29a1.05 1.05 0 0 1 .47-.11l9.92-.16v-.5m10.13-.16l-9.69.15v.5l9.7-.16c.17 0 .32.03.47.1s.28.16.39.28.2.26.27.42.1.33.1.51l.03 1.99c0 .18-.03.36-.09.52s-.14.3-.25.43a1.07 1.07 0 0 1-.38.29 1.08 1.08 0 0 1-.47.11l-9.69.18v.5l9.7-.18a1.41 1.41 0 0 0 .64-.16c.2-.1.37-.23.52-.4s.26-.37.34-.58.12-.46.12-.71l-.03-1.99a1.87 1.87 0 0 0-.14-.71c-.09-.22-.21-.41-.36-.57s-.33-.29-.53-.38-.42-.14-.64-.13"
              class="B G"/>
        <path d="M165.991 110.45c-.17 0-.33-.03-.48-.1a1.24 1.24 0 0 1-.4-.29 1.3 1.3 0 0 1-.27-.43c-.06-.16-.1-.34-.11-.53l-.03-1.89a1.61 1.61 0 0 1 .09-.54c.06-.17.15-.31.26-.44s.24-.23.39-.3.31-.11.48-.11l23.1-.37c.16 0 .32.03.47.1s.27.16.39.28.2.26.26.42.1.34.1.52l.03 1.87c0 .18-.03.36-.09.52s-.14.31-.25.43-.23.23-.38.3-.3.11-.46.12l-23.1.43m23.01-5.49l-23.1.37c-.23 0-.45.06-.65.16s-.38.24-.53.41-.27.38-.35.6a2.15 2.15 0 0 0-.12.73l.03 1.89a1.89 1.89 0 0 0 .15.72 1.92 1.92 0 0 0 .37.58c.15.16.34.3.54.39a1.43 1.43 0 0 0 .65.13l23.1-.44a1.37 1.37 0 0 0 .63-.16c.19-.1.37-.23.51-.4s.26-.37.34-.59.12-.46.12-.72l-.03-1.87a1.87 1.87 0 0 0-.14-.71c-.09-.22-.21-.42-.36-.58s-.33-.3-.52-.39a1.5 1.5 0 0 0-.64-.14"
              class="B D"/>
        <path d="M150.531 95.91s-.06 0-.09.02-.05.03-.07.06-.04.05-.05.08-.02.06-.02.1l.03 1.77v.5l.09 4.66v.5l.04 1.95v.5l.09 4.66v.5l.04 1.96v.5l.09 4.66v.5l.04 1.84c0 .03 0 .07.02.1s.03.06.05.08.05.04.07.05a.24.24 0 0 0 .09.02c.03 0 .06 0 .09-.02s.05-.03.07-.06.04-.05.05-.08.02-.06.02-.1l-.03-1.84v-.5l-.09-4.66v-.5l-.04-1.96v-.5l-.09-4.66v-.5l-.04-1.95v-.5l-.09-4.66v-.5l-.04-1.77c0-.03 0-.07-.02-.1s-.03-.06-.05-.08-.04-.04-.07-.05-.06-.02-.09-.02z"
              class="B"/>
    </g>
    <mask id="R" maskUnits="userSpaceOnUse" x="115" y="29" width="55" height="45">
        <path d="M115.54 73.94v-44l53.85.65V73.3l-53.85.64z" class="C"/>
    </mask>
    <g mask="url(#R)" class="B">
        <path opacity=".3"
              d="M166.44 30.55l-47.77-.57a3.13 3.13 0 0 0-1.22.25c-.38.16-.71.41-.99.72a3.51 3.51 0 0 0-.67 1.08c-.16.41-.25.85-.25 1.32v27.11c0 .47.09.92.25 1.33a3.51 3.51 0 0 0 .67 1.08c.28.31.62.55.99.72s.79.26 1.22.26l47.77-.31a2.63 2.63 0 0 0 1.15-.27c.35-.17.67-.41.94-.72s.48-.66.63-1.06.23-.83.23-1.29V33.89c0-.46-.08-.89-.23-1.29s-.37-.76-.63-1.06a2.99 2.99 0 0 0-.94-.72 2.63 2.63 0 0 0-1.15-.27z"/>
        <path d="M149.88 68.75l-32.09.3c-.31 0-.6.07-.87.2s-.51.31-.71.53a2.49 2.49 0 0 0-.48.78c-.11.29-.18.61-.18.95s.06.65.18.94.28.55.48.77a2.11 2.11 0 0 0 .71.51c.27.12.56.18.87.18l32.09-.38c.3 0 .58-.07.84-.2s.49-.3.68-.52a2.66 2.66 0 0 0 .46-.76c.11-.28.17-.6.17-.93s-.06-.64-.17-.93a2.53 2.53 0 0 0-.46-.76c-.19-.22-.43-.39-.68-.51s-.54-.18-.84-.18"
              class="D"/>
        <path d="M167.28 68.59l-8.18.08c-.29 0-.57.07-.83.2s-.49.3-.68.52a2.66 2.66 0 0 0-.46.76c-.11.28-.17.6-.17.93a2.51 2.51 0 0 0 .17.92c.11.28.26.54.46.75s.42.38.68.5a1.97 1.97 0 0 0 .83.18l8.18-.1c.29 0 .57-.07.82-.2s.48-.3.67-.51.34-.47.45-.76a2.55 2.55 0 0 0 .17-.92 2.51 2.51 0 0 0-.17-.92c-.11-.28-.26-.54-.45-.75s-.42-.38-.67-.5a1.89 1.89 0 0 0-.82-.18z"
              class="G"/>
    </g>
    <mask id="S" maskUnits="userSpaceOnUse" x="184" y="69" width="13" height="7">
        <path d="M184.21 75.73v-6.2l12.61.02v6.15l-12.61.03z" class="C"/>
    </mask>
    <g mask="url(#S)" class="B">
        <path d="M188.43 69.609h-.09c-.03 0-.06.01-.09.02l-.09.03c-.03.01-.06.03-.09.05l-3.49 2.22c-.12.08-.22.18-.28.3a.89.89 0 0 0 0 .78c.06.12.15.23.28.3l3.49 2.22s.06.04.09.05.06.03.09.03.06.02.09.02h.09c.09 0 .19-.02.27-.06a.91.91 0 0 0 .23-.17.76.76 0 0 0 .16-.26c.04-.1.06-.21.06-.32v-4.43a.83.83 0 0 0-.06-.32c-.04-.1-.09-.18-.16-.25a.91.91 0 0 0-.23-.17c-.08-.04-.18-.06-.27-.06"
              class="G"/>
        <path opacity=".3"
              d="M192.78 69.54c-.08 0-.16.02-.24.05s-.14.08-.2.14-.11.14-.14.22a.82.82 0 0 0-.05.28V75a.82.82 0 0 0 .05.28c.03.08.08.16.14.22a.95.95 0 0 0 .2.15c.07.04.16.05.24.05h.08c.03 0 .05 0 .08-.02s.05-.02.08-.03.05-.03.08-.04l3.73-2.38a.74.74 0 0 0 .24-.26c.06-.1.08-.22.08-.34s-.03-.24-.08-.34a.6.6 0 0 0-.24-.26l-3.73-2.38s-.05-.03-.08-.04l-.08-.03c-.03-.01-.05-.01-.08-.02s-.05 0-.08 0"/>
    </g>
    <g filter="url(#d)">
        <mask id="T" maskUnits="userSpaceOnUse" x="58" y="30" width="3" height="1">
            <path d="M58.071 30.34l1.44-.22c.06 0 .13-.02.19-.02s.13-.01.19-.02.13 0 .19 0h.2l-1.45.22h-.2-.19c-.06 0-.13 0-.19.02s-.13.01-.19.02h.01z"
                  class="C"/>
        </mask>
        <g mask="url(#T)" class="B">
            <path d="M60.281 30.07l-1.45.22h-.2-.19c-.06 0-.13 0-.19.02s-.13.01-.19.02l1.44-.22c.06 0 .13-.02.19-.02s.13-.01.19-.02.13 0 .19 0h.2"/>
        </g>
        <mask id="U" maskUnits="userSpaceOnUse" x="58" y="127" width="3" height="1">
            <path d="M59.51 127.95l-1.44-.22c.06 0 .13.02.19.02s.13.01.19.02.13 0 .19 0h.2l1.45.22h-.2-.19c-.06 0-.13 0-.19-.02s-.13-.01-.19-.02h-.01z"
                  class="C"/>
        </mask>
        <g mask="url(#U)" class="B">
            <path d="M59.51 127.95l-1.44-.22c.06 0 .13.02.19.02s.13.01.19.02.13 0 .19 0h.2l1.45.22h-.2-.19c-.06 0-.13 0-.19-.02s-.13-.01-.19-.02"/>
        </g>
        <mask id="V" maskUnits="userSpaceOnUse" x="54" y="122" width="6" height="6">
            <path d="M59.511 127.95l-1.44-.22c-.55-.08-1.07-.27-1.54-.54a4.43 4.43 0 0 1-1.23-1.05c-.34-.42-.63-.91-.82-1.45a5.21 5.21 0 0 1-.3-1.74l1.43.2a5.27 5.27 0 0 0 .3 1.75 4.87 4.87 0 0 0 .82 1.46c.35.43.77.78 1.24 1.06s.99.46 1.54.54v-.01z"
                  class="C"/>
        </mask>
        <g mask="url(#V)" class="E">
            <path d="M59.511 127.95l-1.44-.22c-.55-.08-1.07-.27-1.54-.54a4.43 4.43 0 0 1-1.23-1.05c-.34-.42-.63-.91-.82-1.45a5.21 5.21 0 0 1-.3-1.74l1.43.2a5.27 5.27 0 0 0 .3 1.75 4.87 4.87 0 0 0 .82 1.46c.35.43.77.78 1.24 1.06s.99.46 1.54.54"/>
        </g>
        <path d="M55.611 123.15l-1.43-.2V35.12l1.43-.2v88.23z" class="E"/>
        <mask id="W" maskUnits="userSpaceOnUse" x="54" y="30" width="6" height="6">
            <path d="M58.071 30.34l1.44-.22c-.55.08-1.07.27-1.54.54a4.48 4.48 0 0 0-1.24 1.06 4.87 4.87 0 0 0-.82 1.46 5.27 5.27 0 0 0-.3 1.75l-1.43.2a5.21 5.21 0 0 1 .3-1.74 4.7 4.7 0 0 1 .82-1.45c.35-.42.77-.78 1.23-1.05s.99-.46 1.54-.54v-.01z"
                  class="C"/>
        </mask>
        <g mask="url(#W)" class="E">
            <path d="M55.611 34.919l-1.43.2c0-.54.08-1.06.23-1.55a4.7 4.7 0 0 1 .65-1.33c.28-.4.61-.75.99-1.04s.8-.52 1.26-.68l1.44-.22c-.46.16-.88.39-1.26.68s-.72.64-1 1.05-.5.85-.65 1.34-.23 1.01-.23 1.55z"/>
            <path d="M58.751 30.309l-1.44.22.18-.06c.06-.02.12-.03.19-.05s.13-.03.19-.04l.19-.03 1.44-.22c-.07 0-.13.02-.19.03l-.19.04a1.33 1.33 0 0 0-.19.05l-.19.06"/>
        </g>
        <path d="M91.411 30.89a4.34 4.34 0 0 1 1.75.43c.54.26 1.02.63 1.43 1.08s.73.98.96 1.57.35 1.23.35 1.91v86.34c0 .67-.13 1.32-.35 1.91s-.55 1.12-.96 1.57-.89.82-1.43 1.08a4.34 4.34 0 0 1-1.75.43l-31.13.81c-.64.02-1.26-.11-1.82-.34s-1.06-.59-1.49-1.02-.77-.97-1-1.55-.37-1.24-.37-1.93V34.92c0-.69.13-1.34.37-1.93a4.81 4.81 0 0 1 1-1.55c.42-.43.93-.79 1.49-1.02s1.17-.36 1.82-.34l31.13.81z"
              fill="url(#w)"/>
        <mask id="X" maskUnits="userSpaceOnUse" x="53" y="122" width="7" height="7">
            <path d="M59.38 128.73l-1.44-.22a5 5 0 0 1-1.77-.63 5.55 5.55 0 0 1-1.43-1.22c-.41-.49-.73-1.06-.95-1.68s-.35-1.3-.35-2.01l1.43.2c0 .71.12 1.39.35 2.02a5.95 5.95 0 0 0 .95 1.69 5.25 5.25 0 0 0 1.43 1.23 4.98 4.98 0 0 0 1.78.63v-.01z"
                  class="C"/>
        </mask>
        <g mask="url(#X)" class="B">
            <path d="M59.38 128.73l-1.44-.22a5 5 0 0 1-1.77-.63 5.55 5.55 0 0 1-1.43-1.22c-.41-.49-.73-1.06-.95-1.68s-.35-1.3-.35-2.01l1.43.2c0 .71.12 1.39.35 2.02a5.95 5.95 0 0 0 .95 1.69 5.25 5.25 0 0 0 1.43 1.23 4.98 4.98 0 0 0 1.78.63"/>
        </g>
        <path d="M54.87 123.16l-1.42-.19V35.1l1.42-.19v88.25z" class="B"/>
        <mask id="Y" maskUnits="userSpaceOnUse" x="53" y="29" width="7" height="7">
            <path d="M57.94 29.57l1.44-.22a5.18 5.18 0 0 0-1.78.63c-.54.31-1.03.73-1.43 1.23a5.72 5.72 0 0 0-.95 1.69c-.22.63-.35 1.3-.35 2.02l-1.43.2c0-.71.12-1.39.35-2.01s.55-1.19.95-1.68a5.39 5.39 0 0 1 1.43-1.22 5 5 0 0 1 1.77-.63v-.01z"
                  class="C"/>
        </mask>
        <g mask="url(#Y)" class="B">
            <path d="M54.87 34.91l-1.43.2a6.15 6.15 0 0 1 .27-1.79 5.27 5.27 0 0 1 .76-1.54 5.75 5.75 0 0 1 1.15-1.21 5.01 5.01 0 0 1 1.46-.78l1.44-.22a5.04 5.04 0 0 0-1.46.79c-.44.34-.83.75-1.16 1.21s-.58.99-.76 1.55-.27 1.17-.27 1.8"/>
            <path d="M58.52 29.56l-1.44.22.21-.07.21-.06c.07-.02.14-.03.22-.05a2.07 2.07 0 0 1 .22-.04l1.44-.22-.22.04c-.07.02-.15.03-.22.05l-.21.06-.21.07z"/>
        </g>
        <path d="M91.41 30.11c.72.02 1.4.2 2.02.5a5.42 5.42 0 0 1 1.65 1.25c.47.52.85 1.14 1.11 1.82s.41 1.42.41 2.2v86.3c0 .78-.15 1.52-.41 2.2s-.64 1.3-1.11 1.82a5.42 5.42 0 0 1-1.65 1.25c-.62.3-1.31.48-2.02.5l-31.13.82c-.74.02-1.45-.12-2.1-.4s-1.23-.68-1.72-1.19a5.57 5.57 0 0 1-1.16-1.8c-.27-.68-.43-1.44-.43-2.23V34.91c0-.79.15-1.55.43-2.23a5.74 5.74 0 0 1 1.16-1.8 5.11 5.11 0 0 1 1.72-1.19c.65-.27 1.35-.42 2.1-.4l31.13.82zm4.49 92.09V35.87c0-.67-.13-1.32-.35-1.91s-.55-1.12-.96-1.57-.89-.82-1.43-1.08a4.34 4.34 0 0 0-1.75-.43l-31.13-.81c-.64-.02-1.26.11-1.82.34s-1.06.59-1.49 1.02-.77.97-1 1.55-.37 1.24-.37 1.93v88.22c0 .69.13 1.34.37 1.93a4.81 4.81 0 0 0 1 1.55c.42.43.93.79 1.49 1.02s1.17.36 1.82.34l31.13-.81a4.34 4.34 0 0 0 1.75-.43c.54-.26 1.02-.63 1.43-1.08s.73-.98.96-1.57.35-1.23.35-1.91"
              class="B"/>
    </g>
    <mask id="Z" maskUnits="userSpaceOnUse" x="60" y="26" width="41" height="96">
        <path d="M60.03 121.7V26.84l40.45 1.05v92.76l-40.45 1.05z" class="C"/>
    </mask>
    <g mask="url(#Z)">
        <path d="M96.37 28.28l-31.93-.82c-.53-.01-1.03.09-1.48.29a3.67 3.67 0 0 0-1.21.86 4.35 4.35 0 0 0-.82 1.3 4.27 4.27 0 0 0-.3 1.61v55.09a4.53 4.53 0 0 0 .3 1.62c.19.5.47.94.82 1.32a3.69 3.69 0 0 0 1.21.88c.45.2.96.32 1.48.31l31.93-.29a3.3 3.3 0 0 0 1.43-.33 3.68 3.68 0 0 0 1.16-.88 4.06 4.06 0 0 0 .78-1.3c.18-.49.29-1.03.29-1.59v-53.9a4.4 4.4 0 0 0-.29-1.59c-.19-.49-.45-.94-.78-1.32a3.71 3.71 0 0 0-1.16-.9c-.43-.21-.92-.34-1.43-.36z"
              fill="url(#x)"/>
        <path d="M64.44 90.76a3.63 3.63 0 0 1-1.48-.31 3.73 3.73 0 0 1-1.21-.88c-.34-.37-.62-.82-.82-1.32s-.3-1.04-.3-1.62v-55.1c0-.58.11-1.12.3-1.61s.47-.94.82-1.3.76-.66 1.21-.86.96-.3 1.48-.29l31.93.82c.51.01.99.14 1.43.36a3.9 3.9 0 0 1 1.16.9 4.05 4.05 0 0 1 .78 1.32 4.67 4.67 0 0 1 .29 1.59v53.91a4.4 4.4 0 0 1-.29 1.59c-.19.49-.45.93-.78 1.3s-.73.67-1.16.88-.92.33-1.43.33l-31.93.29zm31.93-62.98l-31.93-.83a3.71 3.71 0 0 0-1.66.33c-.51.23-.97.56-1.36.97s-.7.91-.92 1.46-.34 1.17-.34 1.81v55.11c0 .64.12 1.26.34 1.81s.53 1.06.92 1.48.85.76 1.36.99 1.07.36 1.66.35l31.93-.3c.57 0 1.11-.14 1.6-.38s.93-.58 1.31-.99.67-.91.88-1.46.32-1.15.32-1.78V32.46c0-.63-.12-1.23-.32-1.79s-.51-1.05-.88-1.48a4.18 4.18 0 0 0-1.31-1.02c-.5-.25-1.03-.39-1.6-.4"
              fill="url(#y)" class="F"/>
        <path d="M97.141 96.09l-33.65.41a2.75 2.75 0 0 0-1.17.27c-.36.17-.68.41-.96.71a3.43 3.43 0 0 0-.65 1.05 3.39 3.39 0 0 0-.24 1.28v18.08a3.39 3.39 0 0 0 .24 1.28c.16.39.37.74.65 1.03s.6.52.96.68a2.69 2.69 0 0 0 1.17.23l33.65-.86a2.73 2.73 0 0 0 1.13-.28 2.88 2.88 0 0 0 .92-.71 3.5 3.5 0 0 0 .62-1.04 3.48 3.48 0 0 0 .23-1.26V99.27a3.47 3.47 0 0 0-.23-1.25 3.23 3.23 0 0 0-.62-1.01 2.79 2.79 0 0 0-.92-.68c-.35-.16-.73-.24-1.13-.24z"
              fill="url(#z)"/>
        <path d="M63.49 121.1a2.72 2.72 0 0 1-1.17-.23c-.36-.16-.68-.39-.96-.68s-.49-.64-.65-1.03-.24-.82-.24-1.28V99.8c0-.45.08-.88.24-1.28s.37-.75.65-1.05.6-.54.96-.71.75-.27 1.17-.27l33.65-.41c.4 0 .78.08 1.13.24a2.79 2.79 0 0 1 .92.68 3.35 3.35 0 0 1 .62 1.01 3.39 3.39 0 0 1 .23 1.25v17.69a3.48 3.48 0 0 1-.23 1.26 3.5 3.5 0 0 1-.62 1.04 2.88 2.88 0 0 1-.92.71 2.73 2.73 0 0 1-1.13.28l-33.65.86zm33.65-25.51l-33.65.4c-.48 0-.93.12-1.35.31a3.3 3.3 0 0 0-1.1.83 3.94 3.94 0 0 0-.74 1.21c-.17.45-.27.95-.27 1.47v18.08c0 .52.1 1.02.27 1.47a3.73 3.73 0 0 0 .74 1.19c.31.34.69.6 1.1.79a2.91 2.91 0 0 0 1.35.26l33.65-.87a3.05 3.05 0 0 0 1.3-.33c.4-.2.76-.48 1.06-.82s.55-.75.71-1.2.26-.94.26-1.45V99.24a3.95 3.95 0 0 0-.26-1.43c-.17-.44-.41-.84-.71-1.17a3.24 3.24 0 0 0-1.06-.78 3.16 3.16 0 0 0-1.3-.28"
              fill="url(#AA)" class="F"/>
    </g>
    <mask id="a" maskUnits="userSpaceOnUse" x="63" y="32" width="34" height="91">
        <path d="M63.8 122.04V32.63l33.06.81v87.79l-33.06.81z" class="C"/>
    </mask>
    <g mask="url(#a)" class="B">
        <path opacity=".3"
              d="M94.74 33.39l-27.59-.67c-.3 0-.59.05-.85.17s-.5.28-.7.5-.36.47-.47.75-.17.6-.17.93v.05c0 .33.06.64.17.93s.27.55.47.77.43.4.7.53a2.09 2.09 0 0 0 .85.21l27.59.6a1.96 1.96 0 0 0 .83-.17c.26-.12.48-.28.67-.49a2.23 2.23 0 0 0 .45-.74c.1-.28.17-.59.17-.91v-.05a2.51 2.51 0 0 0-.17-.92c-.11-.28-.26-.54-.45-.76s-.42-.4-.67-.52-.53-.2-.83-.21z"/>
        <path d="M76.97 56.61l-9.53-.11c-.34 0-.67.07-.96.2s-.56.33-.79.57a2.44 2.44 0 0 0-.53.86 3.06 3.06 0 0 0-.2 1.05v8.46c0 .37.07.73.2 1.06a2.77 2.77 0 0 0 .53.86 2.38 2.38 0 0 0 .79.58c.3.13.62.22.96.22l9.53.04c.34 0 .66-.07.95-.21s.56-.33.78-.57a2.63 2.63 0 0 0 .52-.85 3.01 3.01 0 0 0 .19-1.05v-8.39a3.01 3.01 0 0 0-.19-1.05c-.12-.32-.3-.62-.52-.86s-.48-.45-.78-.59-.61-.22-.95-.22z"
              class="G"/>
        <path d="M94.47 56.88l-9.36-.11a2.3 2.3 0 0 0-.94.2c-.29.13-.55.32-.77.56a2.63 2.63 0 0 0-.52.85c-.12.32-.19.67-.19 1.04v8.25c0 .37.07.72.19 1.04a2.63 2.63 0 0 0 .52.85c.22.24.48.44.77.58s.61.21.94.21l9.36.04a2.25 2.25 0 0 0 .93-.2c.29-.13.54-.33.76-.56a2.46 2.46 0 0 0 .51-.84 2.9 2.9 0 0 0 .19-1.03v-8.19c0-.37-.07-.72-.19-1.04a2.79 2.79 0 0 0-.51-.85c-.21-.24-.47-.44-.76-.58a2.12 2.12 0 0 0-.93-.22zm-17.5 16.91l-9.53-.02a2.21 2.21 0 0 0-.96.21 2.78 2.78 0 0 0-.79.58c-.23.24-.41.54-.53.86s-.2.68-.2 1.06v8.46c0 .37.07.73.2 1.05a2.89 2.89 0 0 0 .53.86c.22.24.49.44.79.58s.62.21.96.21l9.53-.05c.34 0 .66-.08.95-.22s.56-.34.78-.58.4-.54.52-.86a3.01 3.01 0 0 0 .19-1.05v-8.39a3.01 3.01 0 0 0-.19-1.05c-.12-.32-.3-.61-.52-.86a2.34 2.34 0 0 0-.78-.58 2.2 2.2 0 0 0-.95-.21zm17.5.1l-9.36-.02c-.33 0-.65.07-.94.21a2.53 2.53 0 0 0-.77.57 2.63 2.63 0 0 0-.52.85c-.12.32-.19.67-.19 1.04v8.25c0 .37.07.72.19 1.04a2.63 2.63 0 0 0 .52.85c.22.24.48.44.77.57s.61.21.94.2l9.36-.05a2.26 2.26 0 0 0 .93-.21c.29-.13.54-.33.76-.57s.39-.53.51-.85.19-.67.19-1.04v-8.19a2.9 2.9 0 0 0-.19-1.03c-.12-.32-.3-.6-.51-.85s-.47-.44-.76-.57a2.26 2.26 0 0 0-.93-.21m-6.91-26.61l-20.69-.34c-.26 0-.51.05-.74.15s-.43.25-.61.44-.31.41-.41.66-.15.52-.15.82v.65a2.16 2.16 0 0 0 .15.81c.1.25.24.48.41.67s.38.35.61.46a1.71 1.71 0 0 0 .74.17l20.69.29a1.8 1.8 0 0 0 .73-.15c.23-.1.42-.25.59-.43a1.87 1.87 0 0 0 .4-.65c.09-.25.15-.52.15-.8v-.64a2.16 2.16 0 0 0-.15-.81 2.2 2.2 0 0 0-.4-.66 1.97 1.97 0 0 0-.59-.45c-.22-.11-.47-.17-.73-.17m-11.42 53.14l-9.79.12a2.36 2.36 0 0 0-.99.23 2.51 2.51 0 0 0-.81.61c-.23.26-.42.56-.55.89s-.2.7-.2 1.09v8.69c0 .39.07.75.2 1.08s.32.63.55.88.5.45.81.58a2.37 2.37 0 0 0 .99.2l9.79-.2c.35 0 .68-.09.98-.24a2.62 2.62 0 0 0 .8-.61 2.99 2.99 0 0 0 .54-.89 2.96 2.96 0 0 0 .2-1.08v-8.62a2.91 2.91 0 0 0-.2-1.07 2.77 2.77 0 0 0-.54-.87 2.38 2.38 0 0 0-.8-.58 2.46 2.46 0 0 0-.98-.21z"
              class="D"/>
        <path opacity=".3"
              d="M94.14 100.28l-9.63.12a2.09 2.09 0 0 0-.96.23 2.85 2.85 0 0 0-.79.6 2.62 2.62 0 0 0-.53.88 3.13 3.13 0 0 0-.2 1.07v8.48a2.91 2.91 0 0 0 .2 1.07 2.77 2.77 0 0 0 .53.86 2.35 2.35 0 0 0 .79.57 2.39 2.39 0 0 0 .96.2l9.63-.2c.34 0 .66-.09.95-.23a2.51 2.51 0 0 0 .78-.6 2.77 2.77 0 0 0 .52-.88c.12-.33.19-.69.19-1.07v-8.41a3.07 3.07 0 0 0-.19-1.06c-.12-.33-.3-.61-.52-.86s-.49-.44-.78-.57a2.16 2.16 0 0 0-.95-.2z"/>
        <path d="M76.14 118.07l-9.79.22c-.35 0-.69.09-.99.24s-.58.36-.81.62-.42.56-.55.9-.2.71-.2 1.09v.89l14.85-.36v-.88a2.96 2.96 0 0 0-.2-1.08 2.77 2.77 0 0 0-.54-.87c-.23-.25-.5-.44-.8-.58s-.63-.2-.98-.2m18.01-.31l-9.63.22a2.1 2.1 0 0 0-.96.24c-.29.15-.56.35-.79.61s-.41.55-.53.89-.2.7-.2 1.08v.82l14.56-.36v-.81a3.07 3.07 0 0 0-.19-1.06c-.12-.33-.3-.61-.52-.86s-.48-.44-.78-.57-.62-.2-.96-.19"
              class="D"/>
    </g>
    <defs>
        <filter id="b" x="1.471" y="63.08" width="200.2" height="92.222" filterUnits="userSpaceOnUse" class="H">
            <feFlood result="A" class="I"/>
            <feColorMatrix in="SourceAlpha" values="0 0 0 0 0 0 0 0 0 0 0 0 0 0 0 0 0 0 127 0"/>
            <feOffset dx="-5"/>
            <feGaussianBlur stdDeviation="5"/>
            <feColorMatrix values="0 0 0 0 0.258824 0 0 0 0 0.392157 0 0 0 0 0.658824 0 0 0 0.1 0"/>
            <feBlend in2="A" result="C"/>
            <feColorMatrix in="SourceAlpha" values="0 0 0 0 0 0 0 0 0 0 0 0 0 0 0 0 0 0 127 0"/>
            <feOffset dx="-18"/>
            <feGaussianBlur stdDeviation="9"/>
            <feColorMatrix values="0 0 0 0 0.258824 0 0 0 0 0.392157 0 0 0 0 0.658824 0 0 0 0.09 0"/>
            <feBlend in2="C" result="D"/>
            <feColorMatrix in="SourceAlpha" values="0 0 0 0 0 0 0 0 0 0 0 0 0 0 0 0 0 0 127 0"/>
            <feOffset dx="-41"/>
            <feGaussianBlur stdDeviation="12.5"/>
            <feColorMatrix values="0 0 0 0 0.258824 0 0 0 0 0.392157 0 0 0 0 0.658824 0 0 0 0.05 0"/>
            <feBlend in2="D" result="E"/>
            <feColorMatrix in="SourceAlpha" values="0 0 0 0 0 0 0 0 0 0 0 0 0 0 0 0 0 0 127 0"/>
            <feOffset dx="-73"/>
            <feGaussianBlur stdDeviation="14.5"/>
            <feColorMatrix values="0 0 0 0 0.258824 0 0 0 0 0.392157 0 0 0 0 0.658824 0 0 0 0.01 0"/>
            <feBlend in2="E"/>
            <feBlend in="SourceGraphic"/>
        </filter>
        <filter id="c" x=".91" y="2.258" width="201.49" height="114.372" filterUnits="userSpaceOnUse" class="H">
            <feFlood result="A" class="I"/>
            <feColorMatrix in="SourceAlpha" values="0 0 0 0 0 0 0 0 0 0 0 0 0 0 0 0 0 0 127 0"/>
            <feOffset dx="-5"/>
            <feGaussianBlur stdDeviation="5"/>
            <feColorMatrix values="0 0 0 0 0.258824 0 0 0 0 0.392157 0 0 0 0 0.658824 0 0 0 0.1 0"/>
            <feBlend in2="A" result="C"/>
            <feColorMatrix in="SourceAlpha" values="0 0 0 0 0 0 0 0 0 0 0 0 0 0 0 0 0 0 127 0"/>
            <feOffset dx="-18"/>
            <feGaussianBlur stdDeviation="9"/>
            <feColorMatrix values="0 0 0 0 0.258824 0 0 0 0 0.392157 0 0 0 0 0.658824 0 0 0 0.09 0"/>
            <feBlend in2="C" result="D"/>
            <feColorMatrix in="SourceAlpha" values="0 0 0 0 0 0 0 0 0 0 0 0 0 0 0 0 0 0 127 0"/>
            <feOffset dx="-41"/>
            <feGaussianBlur stdDeviation="12.5"/>
            <feColorMatrix values="0 0 0 0 0.258824 0 0 0 0 0.392157 0 0 0 0 0.658824 0 0 0 0.05 0"/>
            <feBlend in2="D" result="E"/>
            <feColorMatrix in="SourceAlpha" values="0 0 0 0 0 0 0 0 0 0 0 0 0 0 0 0 0 0 127 0"/>
            <feOffset dx="-73"/>
            <feGaussianBlur stdDeviation="14.5"/>
            <feColorMatrix values="0 0 0 0 0.258824 0 0 0 0 0.392157 0 0 0 0 0.658824 0 0 0 0.01 0"/>
            <feBlend in2="E"/>
            <feBlend in="SourceGraphic"/>
        </filter>
        <filter id="d" x="-48.56" y=".288" width="150.16" height="157.484" filterUnits="userSpaceOnUse" class="H">
            <feFlood result="A" class="I"/>
            <feColorMatrix in="SourceAlpha" values="0 0 0 0 0 0 0 0 0 0 0 0 0 0 0 0 0 0 127 0"/>
            <feOffset dx="-5"/>
            <feGaussianBlur stdDeviation="5"/>
            <feColorMatrix values="0 0 0 0 0.258824 0 0 0 0 0.392157 0 0 0 0 0.658824 0 0 0 0.1 0"/>
            <feBlend in2="A" result="C"/>
            <feColorMatrix in="SourceAlpha" values="0 0 0 0 0 0 0 0 0 0 0 0 0 0 0 0 0 0 127 0"/>
            <feOffset dx="-18"/>
            <feGaussianBlur stdDeviation="9"/>
            <feColorMatrix values="0 0 0 0 0.258824 0 0 0 0 0.392157 0 0 0 0 0.658824 0 0 0 0.09 0"/>
            <feBlend in2="C" result="D"/>
            <feColorMatrix in="SourceAlpha" values="0 0 0 0 0 0 0 0 0 0 0 0 0 0 0 0 0 0 127 0"/>
            <feOffset dx="-41"/>
            <feGaussianBlur stdDeviation="12.5"/>
            <feColorMatrix values="0 0 0 0 0.258824 0 0 0 0 0.392157 0 0 0 0 0.658824 0 0 0 0.05 0"/>
            <feBlend in2="D" result="E"/>
            <feColorMatrix in="SourceAlpha" values="0 0 0 0 0 0 0 0 0 0 0 0 0 0 0 0 0 0 127 0"/>
            <feOffset dx="-73"/>
            <feGaussianBlur stdDeviation="14.5"/>
            <feColorMatrix values="0 0 0 0 0.258824 0 0 0 0 0.392157 0 0 0 0 0.658824 0 0 0 0.01 0"/>
            <feBlend in2="E"/>
            <feBlend in="SourceGraphic"/>
        </filter>
        <linearGradient id="e" x1="196.327" y1="92.62" x2="174.804" y2="151.225" xlink:href="#AB">
            <stop stop-color="#000714" stop-opacity=".25"/>
            <stop offset="1" stop-color="#000714"/>
        </linearGradient>
        <linearGradient id="f" x1="196.857" y1="32.028" x2="148.303" y2="112.773" xlink:href="#AB">
            <stop stop-color="#000714" stop-opacity=".25"/>
            <stop offset="1" stop-color="#000714"/>
        </linearGradient>
        <linearGradient id="g" x1="172.952" y1="25.8" x2="120.15" y2="86.253" xlink:href="#AB">
            <stop stop-color="#000714" stop-opacity=".25"/>
            <stop offset="1" stop-color="#000714"/>
        </linearGradient>
        <linearGradient id="h" x1="111.33" y1="79.46" x2="165.164" y2="18.083" xlink:href="#AB">
            <stop stop-color="#4264a8" stop-opacity=".25"/>
            <stop offset="1" stop-color="#4264a8"/>
        </linearGradient>
        <linearGradient id="i" x1="199.015" y1="26.79" x2="171.171" y2="41.822" xlink:href="#AB">
            <stop stop-color="#000714" stop-opacity=".25"/>
            <stop offset="1" stop-color="#000714"/>
        </linearGradient>
        <linearGradient id="j" x1="180.54" y1="60.51" x2="209.529" y2="44.55" xlink:href="#AB">
            <stop stop-color="#4264a8" stop-opacity=".25"/>
            <stop offset="1" stop-color="#4264a8"/>
        </linearGradient>
        <linearGradient id="k" x1="199.335" y1="65.989" x2="186.533" y2="83.192" xlink:href="#AB">
            <stop stop-color="#000714" stop-opacity=".25"/>
            <stop offset="1" stop-color="#000714"/>
        </linearGradient>
        <linearGradient id="l" x1="180.88" y1="79.82" x2="194.729" y2="61.632" xlink:href="#AB">
            <stop stop-color="#4264a8" stop-opacity=".25"/>
            <stop offset="1" stop-color="#4264a8"/>
        </linearGradient>
        <linearGradient id="m" x1="126.905" y1="114.21" x2="123.961" y2="123.347" xlink:href="#AB">
            <stop stop-color="#000714" stop-opacity=".25"/>
            <stop offset="1" stop-color="#000714"/>
        </linearGradient>
        <linearGradient id="n" x1="110.771" y1="119.73" x2="114.684" y2="109.031" xlink:href="#AB">
            <stop stop-color="#4264a8" stop-opacity=".25"/>
            <stop offset="1" stop-color="#4264a8"/>
        </linearGradient>
        <linearGradient id="o" x1="134.634" y1="114.05" x2="129.877" y2="118.351" xlink:href="#AB">
            <stop stop-color="#000714" stop-opacity=".25"/>
            <stop offset="1" stop-color="#000714"/>
        </linearGradient>
        <linearGradient id="p" x1="129.839" y1="119.292" x2="135.599" y2="114.073" xlink:href="#AB">
            <stop stop-color="#4264a8" stop-opacity=".25"/>
            <stop offset="1" stop-color="#4264a8"/>
        </linearGradient>
        <linearGradient id="q" x1="143.448" y1="113.87" x2="138.788" y2="119.777" xlink:href="#AB">
            <stop stop-color="#000714" stop-opacity=".25"/>
            <stop offset="1" stop-color="#000714"/>
        </linearGradient>
        <linearGradient id="r" x1="136.911" y1="119.152" x2="142.617" y2="112.273" xlink:href="#AB">
            <stop stop-color="#4264a8" stop-opacity=".25"/>
            <stop offset="1" stop-color="#4264a8"/>
        </linearGradient>
        <linearGradient id="s" x1="164.086" y1="113.44" x2="161.495" y2="122.722" xlink:href="#AB">
            <stop stop-color="#000714" stop-opacity=".25"/>
            <stop offset="1" stop-color="#000714"/>
        </linearGradient>
        <linearGradient id="t" x1="145.65" y1="118.93" x2="149.121" y2="108.047" xlink:href="#AB">
            <stop stop-color="#4264a8" stop-opacity=".25"/>
            <stop offset="1" stop-color="#4264a8"/>
        </linearGradient>
        <linearGradient id="u" x1="184.796" y1="113.03" x2="182.229" y2="122.197" xlink:href="#AB">
            <stop stop-color="#000714" stop-opacity=".25"/>
            <stop offset="1" stop-color="#000714"/>
        </linearGradient>
        <linearGradient id="v" x1="166.649" y1="118.432" x2="170.1" y2="107.665" xlink:href="#AB">
            <stop stop-color="#4264a8" stop-opacity=".25"/>
            <stop offset="1" stop-color="#4264a8"/>
        </linearGradient>
        <linearGradient id="w" x1="95.935" y1="30.078" x2="27.037" y2="58.307" xlink:href="#AB">
            <stop stop-color="#000714" stop-opacity=".25"/>
            <stop offset="1" stop-color="#000714"/>
        </linearGradient>
        <linearGradient id="x" x1="100.063" y1="27.459" x2="43.239" y2="62.69" xlink:href="#AB">
            <stop stop-color="#000714" stop-opacity=".25"/>
            <stop offset="1" stop-color="#000714"/>
        </linearGradient>
        <linearGradient id="y" x1="60.16" y1="91.26" x2="118.087" y2="55.097" xlink:href="#AB">
            <stop stop-color="#4264a8" stop-opacity=".25"/>
            <stop offset="1" stop-color="#4264a8"/>
        </linearGradient>
        <linearGradient id="z" x1="100.074" y1="96.09" x2="77.371" y2="131.843" xlink:href="#AB">
            <stop stop-color="#000714" stop-opacity=".25"/>
            <stop offset="1" stop-color="#000714"/>
        </linearGradient>
        <linearGradient id="AA" x1="60.03" y1="121.603" x2="83.816" y2="84.796" xlink:href="#AB">
            <stop stop-color="#4264a8" stop-opacity=".25"/>
            <stop offset="1" stop-color="#4264a8"/>
        </linearGradient>
        <linearGradient id="AB" gradientUnits="userSpaceOnUse"/>
    </defs>
</svg>