<svg xmlns="http://www.w3.org/2000/svg" xmlns:xlink="http://www.w3.org/1999/xlink" width="530" height="371" fill="none" xmlns:v="https://vecta.io/nano"><style><![CDATA[.B{fill:#4264a8}.C{color-interpolation-filters:sRGB}.D{flood-opacity:0}.E{fill:#fff}.F{fill:#000714}.G{fill-opacity:.15}.H{fill-opacity:.75}.I{fill-opacity:.6}.J{fill-opacity:.3}]]></style><g filter="url(#W)"><mask id="A" maskUnits="userSpaceOnUse" x="231" y="18" width="8" height="12"><path d="M231.137 18.23l3.27 2.07c2.97 1.89 4.72 5.51 4.25 9.67l-3.27-2.07c.47-4.17-1.28-7.79-4.25-9.67z" class="E"/></mask><g mask="url(#A)" class="F"><path d="M231.137 18.23l3.27 2.07c2.97 1.89 4.72 5.51 4.25 9.67l-3.27-2.07c.47-4.17-1.28-7.79-4.25-9.67z"/></g><mask id="B" maskUnits="userSpaceOnUse" x="231" y="17" width="9" height="13"><path d="M231.527 17.59l3.27 2.07c3.17 2.01 5.04 5.88 4.54 10.32l-3.27-2.07c.5-4.44-1.37-8.3-4.54-10.32z" class="E"/></mask><g mask="url(#B)" class="B"><path d="M231.527 17.59l3.27 2.07c3.17 2.01 5.04 5.88 4.54 10.32l-3.27-2.07c.5-4.44-1.37-8.3-4.54-10.32z"/></g><mask id="C" maskUnits="userSpaceOnUse" x="119" y="246" width="9" height="5"><path d="M122.526 248.949l-3.27-2.07c1.48.94 3.25 1.47 5.19 1.47l3.27 2.07c-1.94 0-3.71-.54-5.19-1.47z" class="E"/></mask><g mask="url(#C)" class="B"><path d="M124.446 248.349l3.27 2.07c-1.94 0-3.71-.54-5.19-1.47l-3.27-2.07c1.48.94 3.25 1.47 5.19 1.47z"/></g><path d="M200.127 247.629l3.27 2.07h-75.61l-3.26-2.07h75.6z" class="F"/><path d="M200.047 248.35l3.27 2.07h-75.61l-3.26-2.07h75.6z" class="B"/><path d="M235.386 27.91l3.27 2.07-23.63 208.66-3.27-2.07 23.63-208.66z" class="F"/><mask id="D" maskUnits="userSpaceOnUse" x="200" y="245" width="10" height="5"><path d="M209.197 247.949c-1.74 1.11-3.74 1.75-5.8 1.75l-3.27-2.07c2.06 0 4.06-.64 5.8-1.75l3.27 2.07z" class="E"/></mask><g mask="url(#D)" class="F"><use xlink:href="#AY"/></g><path d="M236.067 27.91l3.26 2.07-23.63 208.66-3.259-2.07 23.629-208.66z" class="B"/><mask id="E" maskUnits="userSpaceOnUse" x="205" y="236" width="11" height="12"><path d="M209.196 247.95l-3.27-2.07c3.09-1.97 5.38-5.4 5.82-9.3l3.27 2.07c-.44 3.9-2.73 7.34-5.82 9.3z" class="E"/></mask><g mask="url(#E)" class="F"><use xlink:href="#AY" x="-0.002"/></g><path d="M226.347 16.12c6.09 0 10.45 5.29 9.72 11.79l-23.63 208.67c-.74 6.49-6.29 11.78-12.39 11.78h-75.6c-6.1 0-10.46-5.29-9.73-11.78l23.63-208.67c.74-6.5 6.29-11.79 12.4-11.79h75.61-.01zm-14.59 220.45l23.63-208.67c.69-6.11-3.4-11.06-9.12-11.06h-75.61c-5.73 0-10.94 4.95-11.63 11.06l-23.63 208.67c-.69 6.1 3.39 11.06 9.12 11.06h75.61c5.73 0 10.94-4.96 11.63-11.06z" class="B"/><g filter="url(#X)"><path d="M226.266 16.85c5.73 0 9.82 4.95 9.12 11.06l-23.63 208.67c-.69 6.1-5.9 11.06-11.63 11.06h-75.6c-5.73 0-9.81-4.96-9.12-11.06l23.62-208.67c.69-6.11 5.89-11.06 11.63-11.06h75.61z" fill="url(#AB)"/></g><mask id="F" maskUnits="userSpaceOnUse" x="200" y="236" width="16" height="15"><path d="M212.437 236.57l3.27 2.07c-.74 6.49-6.29 11.78-12.39 11.78l-3.27-2.07c6.09 0 11.65-5.29 12.39-11.78z" class="E"/></mask><g mask="url(#F)" class="B"><path d="M212.437 236.57l3.27 2.07c-.74 6.49-6.29 11.78-12.39 11.78l-3.27-2.07c6.09 0 11.65-5.29 12.39-11.78z"/></g></g><g filter="url(#Y)"><mask id="G" maskUnits="userSpaceOnUse" x="234" y="247" width="9" height="4"><path d="M237.995 249.46l-3.27-2.07c1.35.86 2.96 1.34 4.73 1.34l3.27 2.07a8.81 8.81 0 0 1-4.73-1.34z" class="E"/></mask><g mask="url(#G)" class="B"><path d="M239.455 248.73l3.27 2.07a8.81 8.81 0 0 1-4.73-1.34l-3.27-2.07c1.35.86 2.96 1.34 4.73 1.34z"/></g><mask id="H" maskUnits="userSpaceOnUse" x="491" y="170" width="7" height="5"><path d="M495.174 172.59a8.02 8.02 0 0 1 1.9 1.68l-3.27-2.07a8.02 8.02 0 0 0-1.9-1.68l3.27 2.07z" class="E"/></mask><g mask="url(#H)" class="F"><use xlink:href="#AZ"/></g><mask id="I" maskUnits="userSpaceOnUse" x="493" y="172" width="7" height="10"><path d="M497.075 174.27c1.5 1.81 2.27 4.32 1.95 7.08l-3.27-2.07c.31-2.76-.46-5.27-1.95-7.08l3.27 2.07z" class="E"/></mask><g mask="url(#I)" class="F"><use xlink:href="#AZ"/></g><mask id="J" maskUnits="userSpaceOnUse" x="492" y="169" width="8" height="13"><path d="M492.295 169.89l3.27 2.07c2.89 1.83 4.59 5.36 4.14 9.39l-3.27-2.07c.46-4.04-1.24-7.56-4.14-9.39z" class="E"/></mask><g mask="url(#J)" class="B"><path d="M492.295 169.89l3.27 2.07c2.89 1.83 4.59 5.36 4.14 9.39l-3.27-2.07c.46-4.04-1.24-7.56-4.14-9.39z"/></g><path d="M478.575 248.01l3.26 2.07h-239.03l-3.27-2.07h239.04z" class="F"/><path d="M478.485 248.73l3.27 2.07h-239.03l-3.27-2.07h239.03z" class="B"/><path d="M495.755 179.28l3.27 2.07-6.65 58.71-3.27-2.07 6.65-58.71z" class="F"/><path d="M496.435 179.28l3.27 2.07-6.65 58.71-3.27-2.07 6.65-58.71z" class="B"/><path d="M487.485 169.26c5.2 0 8.9 4.49 8.27 10.01l-6.65 58.71c-.63 5.53-5.34 10.01-10.54 10.01h-239.03c-5.2 0-8.89-4.49-8.26-10.01l6.65-58.71c.63-5.53 5.33-10.01 10.53-10.01h239.03z" fill="url(#AC)"/><mask id="K" maskUnits="userSpaceOnUse" x="478" y="237" width="15" height="14"><path d="M489.104 237.99l3.27 2.07c-.63 5.53-5.34 10.01-10.54 10.01l-3.27-2.07c5.2 0 9.91-4.49 10.54-10.01z" class="E"/></mask><g mask="url(#K)" class="F"><path d="M489.104 237.99l3.27 2.07c-.63 5.53-5.34 10.01-10.54 10.01l-3.27-2.07c5.2 0 9.91-4.49 10.54-10.01z"/></g><mask id="L" maskUnits="userSpaceOnUse" x="478" y="237" width="16" height="14"><path d="M489.784 237.99l3.27 2.07c-.67 5.92-5.73 10.74-11.3 10.74l-3.27-2.07c5.56 0 10.63-4.82 11.3-10.74z" class="E"/></mask><g mask="url(#L)" class="B"><path d="M489.784 237.99l3.27 2.07c-.67 5.92-5.73 10.74-11.3 10.74l-3.27-2.07c5.56 0 10.63-4.82 11.3-10.74z"/></g><path d="M487.565 168.54c5.56 0 9.54 4.82 8.87 10.74l-6.65 58.71c-.67 5.92-5.73 10.74-11.3 10.74h-239.03c-5.55 0-9.54-4.82-8.87-10.74l6.65-58.71c.67-5.92 5.74-10.74 11.3-10.74h239.03zm1.54 69.45l6.65-58.71c.63-5.53-3.07-10.01-8.27-10.01h-239.03c-5.2 0-9.9 4.49-10.53 10.01l-6.65 58.71c-.63 5.53 3.07 10.01 8.26 10.01h239.03c5.2 0 9.91-4.49 10.54-10.01z" class="B"/></g><g filter="url(#Z)"><mask id="M" maskUnits="userSpaceOnUse" x="248" y="148" width="11" height="5"><path d="M251.434 150.46l-3.27-2.07c1.89 1.2 4.14 1.88 6.61 1.88l3.27 2.07c-2.47 0-4.73-.68-6.61-1.88z" class="E"/></mask><g mask="url(#M)" class="B"><path d="M254.774 150.27l3.27 2.07c-2.47 0-4.73-.68-6.61-1.88l-3.27-2.07c1.89 1.2 4.14 1.88 6.61 1.88z"/></g><mask id="N" maskUnits="userSpaceOnUse" x="507" y="18" width="10" height="16"><path d="M507.404 18.49l3.27 2.07c3.85 2.44 6.12 7.14 5.51 12.53l-3.27-2.07c.61-5.39-1.66-10.08-5.51-12.53z" class="E"/></mask><g mask="url(#N)" class="F"><path d="M507.404 18.49l3.27 2.07c3.85 2.44 6.12 7.14 5.51 12.53l-3.27-2.07c.61-5.39-1.66-10.08-5.51-12.53z"/></g><mask id="O" maskUnits="userSpaceOnUse" x="507" y="17" width="10" height="17"><path d="M507.805 17.86l3.27 2.07c4.05 2.57 6.43 7.5 5.79 13.16l-3.27-2.07c.64-5.66-1.74-10.59-5.79-13.16z" class="E"/></mask><g mask="url(#O)" class="B"><path d="M507.805 17.86l3.27 2.07c4.05 2.57 6.43 7.5 5.79 13.16l-3.27-2.07c.64-5.66-1.74-10.59-5.79-13.16z"/></g><path d="M486.065 149.55l3.26 2.07h-231.2l-3.26-2.07h231.2z" class="F"/><path d="M485.985 150.27l3.26 2.07h-231.2l-3.27-2.07h231.21z" class="B"/><path d="M512.925 31.02l3.26 2.07-11.8 104.21-3.27-2.07 11.81-104.21z" class="F"/><path d="M513.595 31.02l3.27 2.07-11.8 104.21-3.27-2.07 11.8-104.21z" class="B"/><g filter="url(#a)"><path d="M501.105 16.7c7.41 0 12.71 6.42 11.81 14.32l-11.8 104.21c-.9 7.91-7.64 14.32-15.06 14.32h-231.2c-7.42 0-12.71-6.41-11.81-14.32l11.8-104.21c.89-7.9 7.63-14.32 15.06-14.32h231.2z" fill="url(#AD)"/></g><mask id="P" maskUnits="userSpaceOnUse" x="486" y="135" width="19" height="17"><path d="M501.115 135.23l3.27 2.07c-.9 7.91-7.64 14.32-15.06 14.32l-3.27-2.07c7.41 0 14.16-6.41 15.06-14.32z" class="E"/></mask><g mask="url(#P)" class="F"><path d="M501.115 135.23l3.27 2.07c-.9 7.91-7.64 14.32-15.06 14.32l-3.27-2.07c7.41 0 14.16-6.41 15.06-14.32z"/></g><mask id="Q" maskUnits="userSpaceOnUse" x="485" y="135" width="21" height="18"><path d="M501.794 135.23l3.27 2.07c-.94 8.29-8.03 15.04-15.81 15.04l-3.27-2.07c7.78 0 14.88-6.75 15.81-15.04z" class="E"/></mask><g mask="url(#Q)" class="B"><path d="M501.794 135.23l3.27 2.07c-.94 8.29-8.03 15.04-15.81 15.04l-3.27-2.07c7.78 0 14.88-6.75 15.81-15.04z"/></g><path d="M501.185 15.98c7.78 0 13.35 6.75 12.41 15.04l-11.8 104.21c-.94 8.29-8.03 15.04-15.81 15.04h-231.2c-7.78 0-13.35-6.75-12.41-15.04l11.8-104.21c.94-8.29 8.03-15.04 15.81-15.04h231.2zm-.07 119.25l11.8-104.21c.89-7.9-4.4-14.32-11.81-14.32h-231.2c-7.42 0-14.16 6.42-15.06 14.32l-11.8 104.21c-.9 7.91 4.39 14.32 11.81 14.32h231.2c7.41 0 14.16-6.41 15.06-14.32z" class="B"/></g><g filter="url(#b)"><mask id="R" maskUnits="userSpaceOnUse" x="262" y="0" width="172" height="131"><path d="M262.387 130.75L277.097.84h156.49l-14.71 129.91h-156.49z" class="E"/></mask><g mask="url(#R)"><path d="M279.477 117.61c-3.03 0-5.2-2.63-4.83-5.86s3.13-5.87 6.16-5.87h80.46c3.03 0 5.2 2.63 4.83 5.87s-3.13 5.86-6.16 5.86h-80.46zm104.12 0c-3.04 0-5.21-2.63-4.84-5.86s3.13-5.87 6.17-5.87h21.17c3.04 0 5.21 2.63 4.84 5.87s-3.13 5.86-6.17 5.86h-21.17zm-99.18-24.29c-4.25 0-7.28-3.67-6.76-8.2l7.4-65.31c.51-4.52 4.37-8.2 8.62-8.2h120.91c4.24 0 7.28 3.68 6.76 8.2l-7.4 65.31c-.51 4.53-4.38 8.2-8.62 8.2h-120.91zm142.32-91.51h-143c-3.22 0-6.15 2.78-6.54 6.22l-12.93 114.21c-.47 4.17 2.31 7.55 6.22 7.55h141.76c3.22 0 6.16-2.78 6.54-6.22l13.08-115.54c.39-3.43-1.91-6.22-5.14-6.22" fill="url(#AE)"/><path d="M270.477 129.79c-3.91 0-6.69-3.37-6.22-7.55l12.93-114.21c.39-3.43 3.31-6.22 6.54-6.22h143c3.22 0 5.53 2.78 5.14 6.22l-13.08 115.54c-.39 3.43-3.32 6.22-6.54 6.22h-141.76M426.847.84h-143c-3.72 0-7.11 3.23-7.56 7.19l-12.93 114.21c-.53 4.69 2.63 8.51 7.02 8.51h141.76c3.72 0 7.11-3.23 7.56-7.18l13.08-115.54c.45-3.96-2.21-7.19-5.93-7.19z" fill="url(#AF)" class="H"/><g filter="url(#c)" class="B J"><path d="M414.588 11.61h-120.91c-4.25 0-8.11 3.68-8.62 8.2l-7.4 65.31c-.51 4.53 2.51 8.2 6.76 8.2h120.91c4.24 0 8.11-3.67 8.62-8.2l7.4-65.31c.51-4.52-2.52-8.2-6.76-8.2z"/></g><g filter="url(#d)" class="B G"><path d="M361.267 105.88h-80.46c-3.03 0-5.79 2.63-6.16 5.87s1.8 5.86 4.83 5.86h80.46c3.03 0 5.79-2.63 6.16-5.86s-1.8-5.87-4.83-5.87z"/></g><g filter="url(#e)" class="B I"><path d="M406.096 105.88h-21.17c-3.04 0-5.8 2.63-6.17 5.87s1.8 5.86 4.84 5.86h21.17c3.04 0 5.8-2.63 6.17-5.86s-1.8-5.87-4.84-5.87z"/></g></g></g><mask id="S" maskUnits="userSpaceOnUse" x="434" y="0" width="64" height="131"><path d="M434.705 130.76L449.415.84h48.2l-14.71 129.92h-48.2z" class="E"/></mask><g mask="url(#S)"><g filter="url(#f)"><path d="M472.915 55.26c-.48 0-.97.13-1.42.38-.39.21-.76.49-1.07.83.04-.3.04-.6-.01-.89-.01-.09-.07-.16-.17-.16h-1.61l-.06.04-.02.06c0 .23-.02.43-.04.66l-.06.76-.07.72-.61 5.39v.05l.04.03.04.03h.05 1.79c.08 0 .13-.03.14-.13l.56-4.93c.14-.16.32-.27.5-.36.53-.24 1.08-.36 1.63-.36h.16c.1 0 .15-.03.16-.1l.21-1.89v-.04l-.11-.1m-10.36 2.87l-.35-.02.37-3.24c.33-.03.66-.03.99-.03h.07c.34 0 .67.06.98.2.25.1.46.3.57.56.13.25.17.55.11.85-.05.43-.18.76-.39.99-.23.24-.51.43-.8.51-.35.12-.71.17-1.06.17h-.48m1.16-5.18h-.82l-.79.03-.69.02h-.51l-.11.11-1.13 9.95c0 .09.03.12.1.12h1.75.05l.04-.03.02-.04v-.04l.36-3.1h.38l.46.02c.74 0 1.43-.09 2.08-.33a3.71 3.71 0 0 0 1.59-1.17c.42-.54.68-1.23.77-2.06a3.72 3.72 0 0 0-.06-1.25c-.1-.42-.29-.79-.54-1.1-.3-.36-.7-.63-1.13-.79-.48-.2-1.09-.3-1.83-.3m9.45-30.05a2.28 2.28 0 0 1 .28-.7c.27-.46.74-.73 1.22-.73h.06.04a1.06 1.06 0 0 1 1.05.89c.02.11.02.23 0 .36v.1l-.22.08h-.52-1.91zm1.88-3.1h-.06c-.58 0-1.09.08-1.54.3-.46.23-.86.53-1.21.92a4.75 4.75 0 0 0-.83 1.32c-.21.5-.34 1.02-.4 1.54a5.52 5.52 0 0 0 .03 1.41c.08.46.24.89.49 1.26a2.56 2.56 0 0 0 1.04.92c.45.23 1.01.34 1.7.34h.13a6.62 6.62 0 0 0 1.17-.11 3.82 3.82 0 0 0 .94-.3l.07-.07.03-.11.17-1.48c0-.07 0-.09-.02-.09-.01 0-.02 0-.04.02-.27.11-.54.18-.83.23-.31.07-.63.1-.95.1h-.05c-.38 0-.75-.09-1.08-.24a1.15 1.15 0 0 1-.59-.58c-.13-.26-.18-.56-.19-.85h2.87l.66.03c.21 0 .38 0 .53-.03.15 0 .25-.03.3-.03l.14-.12.09-.41.09-.62c.04-.39.03-.79-.04-1.17a3.31 3.31 0 0 0-.42-1.1c-.21-.34-.51-.6-.87-.77a2.93 2.93 0 0 0-1.31-.3m-10.14 3.48l.55-1.36.58-1.43c.18-.42.32-.83.45-1.25h.02l.12.76.15.86.16.89.15.83.13.7h-2.31zm2.95-5.79h-2.34l-.09.1a2.61 2.61 0 0 1-.13.63l-.12.3-3.93 8.92c-.04.11-.02.17.08.17h1.7.02c.08 0 .15-.06.17-.14l.95-2.28h3.37l.48 2.32.13.1h1.89c.1 0 .13-.05.11-.16l-2.18-9.9-.11-.08m-10.25 52.31c-2.13 0-3.64-1.83-3.39-4.1l1.63-14.39c.12-1.1.65-2.14 1.45-2.9.81-.77 1.84-1.21 2.86-1.21h14.05c2.13 0 3.64 1.83 3.38 4.11l-1.63 14.39c-.26 2.27-2.19 4.1-4.31 4.1h-14.05m4.02-35.52c-2.13 0-3.64-1.83-3.39-4.1l1.63-14.4c.26-2.27 2.19-4.1 4.31-4.1h14.05c2.13 0 3.64 1.83 3.39 4.1l-1.63 14.4c-.26 2.27-2.19 4.1-4.31 4.1h-14.05zm27.9-32.48h-33.16c-3.43 0-6.53 2.96-6.95 6.61l-7.67 67.73c-.41 3.64 2.03 6.61 5.45 6.61h33.16c3.43 0 6.53-2.96 6.95-6.61l7.67-67.73c.41-3.65-2.03-6.61-5.45-6.61z" fill="url(#AG)"/></g><path d="M447.246 82.75c-3.43 0-5.86-2.96-5.45-6.61l7.67-67.73c.41-3.65 3.52-6.61 6.95-6.61h33.16c3.43 0 5.86 2.96 5.45 6.61l-7.67 67.73c-.41 3.64-3.52 6.61-6.95 6.61h-33.16zM489.676.84h-33.16c-3.92 0-7.49 3.4-7.96 7.57l-7.67 67.73c-.47 4.17 2.32 7.57 6.25 7.57h33.16c3.92 0 7.49-3.4 7.96-7.57l7.67-67.73c.47-4.17-2.33-7.57-6.25-7.57z" fill="url(#AH)" class="H"/><g filter="url(#g)"><path d="M454.334 121.04c-.31 0-.61-.08-.88-.27l-8.19-5.42c-1.14-.76-.92-2.64.38-3.4l9.41-5.41c.32-.18.64-.27.95-.27.96 0 1.75.82 1.62 1.96l-1.23 10.82c-.13 1.15-1.11 1.97-2.07 1.97m10.99.17c-.84 0-1.54-.72-1.42-1.73l1.32-11.66c.11-1 .97-1.72 1.81-1.72a1.39 1.39 0 0 1 .78.23l8.81 5.82c1 .67.81 2.32-.34 2.98l-10.13 5.83c-.28.16-.56.23-.83.23m14.85-23.68h-34.38c-3.09 0-5.89 2.67-6.26 5.95l-2.3 20.34c-.37 3.29 1.82 5.95 4.91 5.95h34.38c3.08 0 5.89-2.67 6.26-5.95l2.3-20.34c.37-3.29-1.83-5.95-4.91-5.95z" fill="url(#AI)"/></g><path d="M442.135 129.79c-3.09 0-5.29-2.67-4.91-5.95l2.3-20.34c.37-3.29 3.17-5.95 6.26-5.95h34.38c3.08 0 5.29 2.67 4.91 5.95l-2.3 20.34c-.37 3.29-3.18 5.95-6.26 5.95h-34.38zm38.14-33.22h-34.38c-3.58 0-6.84 3.1-7.28 6.92l-2.3 20.34c-.43 3.82 2.13 6.92 5.71 6.92h34.38c3.58 0 6.84-3.1 7.28-6.92l2.3-20.34c.43-3.82-2.13-6.92-5.71-6.92z" fill="url(#AJ)" class="H"/><path opacity=".75" d="M474.655 21.47c-.47 0-.95.27-1.22.73-.14.23-.23.46-.28.7h1.91.52l.21-.08v-.1c.02-.12.02-.24 0-.36-.1-.53-.52-.89-1.05-.89h-.04-.06m-8.17-2.22h-.02l-.45 1.25-.58 1.43c-.17.5-.37.95-.55 1.36h2.31l-.13-.7-.15-.83-.16-.89-.15-.86-.12-.76zm7.89 8.56h-.13c-.69 0-1.25-.11-1.7-.34-.42-.2-.77-.52-1.04-.92-.24-.37-.41-.8-.49-1.26a5.52 5.52 0 0 1-.03-1.41 5.74 5.74 0 0 1 .4-1.54 4.33 4.33 0 0 1 .83-1.32c.35-.39.75-.7 1.21-.92.45-.22.96-.3 1.54-.3h.06a2.93 2.93 0 0 1 1.31.3c.36.17.65.43.87.77.2.33.35.7.42 1.1.07.38.08.78.04 1.17l-.09.62c-.05.18-.07.32-.09.41l-.14.12c-.06 0-.16.02-.3.03-.15.02-.32.03-.53.03s-.43-.03-.66-.03h-2.87a1.89 1.89 0 0 0 .19.85c.13.27.34.47.59.58.32.16.69.24 1.08.24h.05c.32 0 .64-.03.95-.1a2.92 2.92 0 0 0 .83-.23c.02-.01.03-.02.04-.02.02 0 .03.03.02.09l-.17 1.48-.03.11-.07.07c-.3.14-.61.23-.94.3-.39.08-.78.11-1.17.11m-13.07-.19c-.1 0-.12-.06-.08-.17l3.93-8.92.12-.3a4.7 4.7 0 0 0 .13-.63l.09-.1h2.34l.11.08 2.18 9.9c.02.1 0 .16-.11.16h-1.89l-.13-.1-.48-2.32h-3.37l-.95 2.28c-.02.08-.1.14-.17.14h-1.72m16.91-15.94h-14.05c-2.13 0-4.06 1.83-4.31 4.1l-1.63 14.4c-.26 2.27 1.26 4.1 3.39 4.1h14.05c2.13 0 4.06-1.83 4.31-4.1l1.63-14.4c.26-2.27-1.26-4.1-3.39-4.1zm-14.56 43.16h-.07l-.99.03-.37 3.24.35.02h.48c.35 0 .72-.05 1.06-.17.3-.09.57-.27.8-.51.21-.23.34-.57.39-.99.06-.3.02-.6-.11-.85a1.11 1.11 0 0 0-.57-.56c-.31-.14-.63-.2-.98-.2m6.79 1.63c.31-.34.68-.62 1.07-.83.45-.25.94-.38 1.42-.38l.12.1v.04l-.22 1.89c0 .07-.06.1-.16.1h-.16c-.55 0-1.1.12-1.63.36-.18.09-.36.2-.5.36l-.56 4.93c-.01.1-.06.13-.14.13h-1.79-.05l-.04-.03-.03-.03v-.05l.6-5.39.07-.72.06-.76c.03-.23.03-.43.04-.66l.02-.06.06-.04h1.61c.1 0 .16.07.17.16.05.29.06.58.01.89m-10.65 6.7c-.07 0-.11-.03-.1-.12l1.13-9.95.11-.1h.51l.69-.03.79-.02h.82c.74 0 1.35.09 1.83.29.43.17.82.43 1.13.79.25.31.44.69.54 1.1a3.72 3.72 0 0 1 .06 1.25c-.09.83-.35 1.52-.77 2.06-.43.54-.98.95-1.59 1.17-.65.24-1.33.33-2.08.33h-.46l-.38-.02-.35 3.1v.04l-.03.04-.04.03h-.05-1.75m14.44-15.98h-14.05c-1.02 0-2.05.43-2.86 1.21-.8.77-1.33 1.81-1.45 2.9l-1.63 14.39c-.26 2.27 1.26 4.1 3.39 4.1h14.05c2.13 0 4.06-1.83 4.31-4.1l1.63-14.39c.26-2.28-1.26-4.11-3.38-4.11" fill="#99f"/><g filter="url(#h)" class="B I"><path d="M456.005 106.29c-.31 0-.63.08-.95.27l-9.41 5.41c-1.31.76-1.52 2.64-.38 3.4l8.19 5.42c.27.18.58.27.88.27.96 0 1.94-.82 2.07-1.97l1.23-10.82c.13-1.14-.66-1.96-1.62-1.96"/></g><g filter="url(#i)" class="B I"><path d="M467.034 106.11c-.84 0-1.7.72-1.81 1.72l-1.32 11.66c-.11 1.01.58 1.73 1.42 1.73.27 0 .55-.07.83-.23l10.13-5.83c1.15-.66 1.34-2.31.34-2.98l-8.81-5.82a1.39 1.39 0 0 0-.78-.23"/></g></g><mask id="T" maskUnits="userSpaceOnUse" x="246" y="178" width="235" height="62"><path d="M246.465 239.74l6.9-60.93h227.32l-6.9 60.93h-227.32z" class="E"/></mask><g mask="url(#T)"><g filter="url(#j)" class="B G"><path d="M277.165 184.86h-20.86c-1.5 0-2.86 1.3-3.05 2.9l-.63 5.6c-.18 1.61.89 2.9 2.39 2.9h20.86c1.51 0 2.87-1.3 3.05-2.9l.63-5.6c.18-1.6-.89-2.9-2.4-2.9"/></g><g filter="url(#k)" class="B I"><path d="M351.247 184.86h-60.65c-1.79 0-3.43 1.56-3.65 3.48l-.51 4.46c-.22 1.91 1.07 3.47 2.86 3.47h60.65l1.29-11.41m12.63 0h-11.73l-1.29 11.41h11.73c1.79 0 3.43-1.56 3.65-3.47l.51-4.46c.22-1.92-1.07-3.48-2.86-3.48"/></g><g filter="url(#l)" class="B G"><use xlink:href="#Aa"/></g><g filter="url(#m)" class="B G"><path d="M419.836 184.86h-23.94c-1.53 0-2.91 1.32-3.1 2.95l-.62 5.51c-.18 1.63.91 2.95 2.43 2.95h23.94c1.53 0 2.91-1.32 3.09-2.95l.62-5.51c.18-1.63-.9-2.95-2.42-2.95z"/></g><g filter="url(#n)" class="B G"><path d="M476.836 184.86h-42.27c-1.75 0-3.34 1.51-3.55 3.38l-.53 4.65c-.21 1.86 1.04 3.37 2.78 3.37h42.27c1.75 0 3.34-1.51 3.55-3.37l.53-4.65c.21-1.87-1.04-3.38-2.78-3.38z"/></g><path opacity=".6" d="M284.686 222.14h-32.45c-1.59 0-3.03 1.37-3.22 3.06l-.6 5.29c-.19 1.69.93 3.06 2.52 3.06h32.45c1.58 0 3.03-1.37 3.22-3.06l.6-5.29c.19-1.69-.94-3.06-2.52-3.06z" fill="url(#AK)"/><path opacity=".3" d="M250.946 233.55c-1.59 0-2.72-1.37-2.52-3.06l.6-5.29c.19-1.69 1.63-3.06 3.22-3.06h32.45c1.58 0 2.72 1.37 2.52 3.06l-.6 5.29c-.19 1.69-1.64 3.06-3.22 3.06h-32.45zm33.82-12.13h-32.45c-1.96 0-3.75 1.7-3.98 3.78l-.6 5.29c-.24 2.09 1.17 3.78 3.13 3.78h32.45c1.96 0 3.74-1.7 3.98-3.78l.6-5.29c.24-2.09-1.16-3.78-3.12-3.78" fill="url(#AL)" class="H"/><use xlink:href="#Aa" x="-78.51" y="37.28" opacity=".6" fill="url(#AM)"/><path opacity=".3" d="M297.256 233.55c-1.36 0-2.33-1.17-2.17-2.63l.7-6.15c.16-1.45 1.4-2.63 2.76-2.63h5.7c1.36 0 2.33 1.17 2.17 2.63l-.7 6.15c-.16 1.45-1.4 2.63-2.76 2.63h-5.7zm7.07-12.13h-5.7c-1.74 0-3.31 1.5-3.52 3.35l-.7 6.15c-.21 1.85 1.02 3.35 2.76 3.35h5.7c1.73 0 3.31-1.5 3.52-3.35l.7-6.15c.21-1.84-1.03-3.35-2.76-3.35z" fill="url(#AN)" class="H"/><path opacity=".6" d="M326.166 222.14h-10.02c-1.4 0-2.68 1.22-2.85 2.72l-.68 5.96c-.17 1.5.83 2.72 2.24 2.72h10.02c1.4 0 2.68-1.22 2.85-2.72l.68-5.96c.17-1.5-.83-2.72-2.24-2.72z" fill="url(#AO)"/><path opacity=".3" d="M314.855 233.55c-1.4 0-2.41-1.22-2.24-2.72l.68-5.96c.17-1.5 1.45-2.72 2.85-2.72h10.02c1.4 0 2.41 1.22 2.24 2.72l-.68 5.96c-.17 1.5-1.45 2.72-2.85 2.72h-10.02zm11.39-12.13h-10.02c-1.78 0-3.4 1.54-3.62 3.44l-.68 5.96c-.22 1.9 1.06 3.44 2.84 3.44h10.02c1.78 0 3.4-1.54 3.61-3.44l.68-5.96c.22-1.9-1.05-3.44-2.83-3.44z" fill="url(#AP)" class="H"/><g filter="url(#o)"><path d="M347.025 222.14h-8.59c-1.62 0-3.1 1.41-3.3 3.15l-.58 5.11c-.2 1.74.97 3.15 2.59 3.15h8.59l1.29-11.41zm31.02 0h-30.11l-1.29 11.41h30.11c1.63 0 3.11-1.41 3.31-3.15l.58-5.11c.2-1.74-.97-3.15-2.6-3.15z" fill="url(#AQ)"/></g><path d="M347.106 221.42h-8.59c-2 0-3.83 1.73-4.07 3.87l-.58 5.11c-.24 2.14 1.19 3.87 3.19 3.87h8.59l.08-.72h-8.59c-1.62 0-2.79-1.41-2.59-3.15l.58-5.11c.2-1.74 1.68-3.15 3.3-3.15h8.59l.08-.72m31.02 0h-30.11l-.08.72h30.11c1.63 0 2.79 1.41 2.6 3.15l-.58 5.11c-.2 1.74-1.68 3.15-3.31 3.15h-30.11l-.08.72h30.11c2.01 0 3.83-1.73 4.07-3.87l.58-5.11c.24-2.14-1.19-3.87-3.19-3.87" fill="url(#AR)" class="H"/><path opacity=".6" d="M431.845 222.14h-39.98c-1.63 0-3.11 1.41-3.31 3.15l-.58 5.11c-.2 1.74.97 3.15 2.6 3.15h39.98c1.63 0 3.11-1.41 3.31-3.15l.58-5.11c.2-1.74-.97-3.15-2.6-3.15z" fill="url(#AS)"/><path opacity=".3" d="M390.566 233.55c-1.63 0-2.79-1.41-2.6-3.15l.58-5.11c.2-1.74 1.68-3.15 3.31-3.15h39.98c1.63 0 2.79 1.41 2.6 3.15l-.58 5.11c-.2 1.74-1.68 3.15-3.31 3.15h-39.98zm41.36-12.13h-39.98c-2 0-3.83 1.74-4.07 3.87l-.58 5.11c-.24 2.13 1.19 3.87 3.19 3.87h39.98c2.01 0 3.83-1.74 4.07-3.87l.58-5.11c.24-2.13-1.19-3.87-3.19-3.87z" fill="url(#AT)" class="H"/><path d="M253.285 214.91c-1.71 0-2.93-1.48-2.73-3.3l.54-4.8c.21-1.83 1.76-3.3 3.47-3.3h54.76c1.71 0 2.93 1.48 2.73 3.3l-.54 4.8c-.21 1.83-1.76 3.3-3.47 3.3h-54.76zm56.16-12.37h-54.76c-2.21 0-4.22 1.91-4.49 4.27l-.54 4.8c-.27 2.36 1.31 4.27 3.52 4.27h54.76c2.21 0 4.22-1.91 4.49-4.27l.54-4.8c.27-2.36-1.31-4.27-3.52-4.27z" class="B G"/><path d="M349.246 202.54h-25.06c-2.19 0-4.18 1.9-4.44 4.22l-.55 4.89c-.26 2.33 1.3 4.22 3.49 4.22h25.06l.11-.96h-25.06c-1.69 0-2.89-1.46-2.69-3.26l.55-4.89c.2-1.8 1.74-3.26 3.43-3.26h25.06l.11-.96m25.66 0h-24.76l-.11.96h24.76c1.69 0 2.89 1.46 2.69 3.26l-.55 4.89c-.2 1.8-1.74 3.26-3.43 3.26h-24.76l-.11.96h24.76c2.19 0 4.18-1.9 4.44-4.22l.55-4.89c.26-2.33-1.3-4.22-3.49-4.22" class="B J"/><path d="M387.065 214.91c-1.73 0-2.97-1.5-2.76-3.35l.53-4.71c.21-1.84 1.79-3.35 3.52-3.35h59.13c1.73 0 2.96 1.5 2.75 3.35l-.53 4.71c-.21 1.85-1.78 3.35-3.51 3.35h-59.13zm60.53-12.37h-59.13c-2.23 0-4.27 1.94-4.53 4.31l-.53 4.71c-.27 2.38 1.33 4.31 3.56 4.31h59.13c2.23 0 4.26-1.93 4.53-4.31l.53-4.71c.27-2.37-1.32-4.31-3.55-4.31m11.821 12.37c-1.71 0-2.93-1.48-2.73-3.3l.54-4.8c.21-1.82 1.76-3.3 3.47-3.3h12.77c1.71 0 2.93 1.49 2.73 3.3l-.54 4.8c-.21 1.83-1.76 3.3-3.47 3.3h-12.77zm14.17-12.37h-12.77c-2.21 0-4.22 1.92-4.49 4.27l-.54 4.8c-.27 2.36 1.31 4.27 3.52 4.27h12.77c2.21 0 4.22-1.91 4.49-4.27l.54-4.8c.27-2.35-1.31-4.27-3.52-4.27z" class="B G"/><path d="M352.385 178.81c-.24 0-.47.22-.5.49l-.63 5.56-1.29 11.41-.71 6.27-.11.96-1.29 11.41-.11.96-.63 5.55-.08.72-1.29 11.41-.08.72-.57 4.99c-.03.26.15.48.39.48s.48-.22.51-.48l.57-4.99.08-.72 1.29-11.41.08-.72.63-5.55.11-.96 1.29-11.41.11-.96.71-6.27 1.29-11.41.63-5.56c.03-.27-.15-.49-.4-.49z" class="B"/></g><g filter="url(#p)"><mask id="U" maskUnits="userSpaceOnUse" x="105" y="1" width="120" height="156"><path d="M105.705 156.66l17.59-155.37h101.56l-17.6 155.37h-101.55z" class="E"/></mask><g mask="url(#U)"><path d="M167.734 145.69c-3.39 0-5.81-2.93-5.4-6.55l2.29-20.21c.41-3.62 3.49-6.55 6.88-6.55h23.96c3.39 0 5.81 2.93 5.4 6.55l-2.29 20.21c-.41 3.62-3.49 6.55-6.88 6.55h-23.96zm-44.51.19c-3.41 0-5.84-2.96-5.43-6.59l2.32-20.51c.41-3.63 3.51-6.58 6.92-6.58h23.9c3.41 0 5.84 2.95 5.43 6.58l-2.32 20.51c-.41 3.63-3.51 6.59-6.92 6.59h-23.9zm49.26-42.13c-3.39 0-5.81-2.93-5.4-6.55l2.29-20.21c.41-3.62 3.49-6.55 6.88-6.55h23.96c3.39 0 5.81 2.93 5.4 6.55l-2.29 20.21c-.41 3.62-3.49 6.55-6.88 6.55h-23.96zm-44.51.19c-3.41 0-5.84-2.96-5.43-6.59l2.32-20.51c.41-3.63 3.51-6.59 6.92-6.59h23.9c3.41 0 5.84 2.96 5.43 6.59l-2.32 20.51c-.41 3.63-3.51 6.59-6.92 6.59h-23.9zm3.69-45.16c-2.63 0-4.5-2.27-4.18-5.07l.18-1.59c.32-2.8 2.7-5.07 5.33-5.07h52.2c2.63 0 4.51 2.27 4.19 5.07l-.18 1.59c-.32 2.8-2.71 5.07-5.34 5.07h-52.2zm4.59-34.51c-3.01 0-5.15-2.6-4.78-5.8v-.13c.38-3.2 3.1-5.8 6.11-5.8h69.89c3.01 0 5.15 2.6 4.78 5.8v.13c-.38 3.2-3.1 5.8-6.11 5.8h-69.88m78.12-22.01h-80.84c-5.22 0-9.96 4.51-10.59 10.08l-15.09 133.28c-.63 5.56 3.09 10.08 8.31 10.08h80.83c5.22 0 9.96-4.51 10.59-10.08l15.1-133.28c.63-5.56-3.09-10.08-8.31-10.08z" fill="url(#AU)"/><path d="M116.175 155.69c-5.22 0-8.94-4.51-8.31-10.08l15.09-133.27c.63-5.56 5.37-10.08 10.59-10.08h80.83c5.22 0 8.94 4.51 8.31 10.08l-15.09 133.28c-.63 5.56-5.37 10.08-10.59 10.08h-80.83m98.32-154.41h-80.84c-5.71 0-10.92 4.96-11.61 11.05l-15.09 133.28c-.69 6.09 3.4 11.04 9.11 11.04h80.83c5.71 0 10.92-4.95 11.61-11.04l15.09-133.28c.69-6.09-3.4-11.05-9.11-11.05" fill="url(#AV)" class="H"/><g filter="url(#q)" class="B J"><path d="M207.485 12.54h-69.89c-3.01 0-5.73 2.6-6.1 5.8v.13c-.38 3.2 1.76 5.8 4.77 5.8h69.89c3.01 0 5.73-2.6 6.1-5.8v-.13c.38-3.2-1.76-5.8-4.77-5.8z"/></g><g filter="url(#r)" class="B I"><path d="M155.695 70.25h-23.9c-3.41 0-6.51 2.96-6.92 6.59l-2.32 20.51c-.41 3.63 2.02 6.59 5.43 6.59h23.9c3.41 0 6.51-2.96 6.92-6.59l2.32-20.51c.41-3.63-2.02-6.59-5.43-6.59z"/></g><g filter="url(#s)" class="B G"><use xlink:href="#Ab"/></g><g filter="url(#t)" class="B G"><path d="M150.945 112.2h-23.9c-3.41 0-6.51 2.95-6.92 6.58l-2.32 20.51c-.41 3.63 2.02 6.59 5.43 6.59h23.9c3.41 0 6.51-2.96 6.92-6.59l2.32-20.51c.41-3.63-2.02-6.58-5.43-6.58z"/></g><g filter="url(#u)" class="B G"><use xlink:href="#Ab" x="-4.75" y="41.94"/></g><g filter="url(#v)" class="B G"><path d="M185.195 47.05h-52.2c-2.63 0-5.01 2.27-5.33 5.07l-.18 1.59c-.32 2.8 1.55 5.07 4.18 5.07h52.2c2.63 0 5.02-2.27 5.34-5.07l.18-1.59c.32-2.8-1.56-5.07-4.19-5.07z"/></g></g></g><g filter="url(#w)"><mask id="V" maskUnits="userSpaceOnUse" x="97" y="170" width="110" height="63"><path d="M97.176 232.07l6.97-61.54h101.91l-6.97 61.54H97.176z" class="E"/></mask><g mask="url(#V)"><path d="M152.474 231.11l.23-2.03c.42-3.7 3.59-6.72 7.07-6.72h24.61c3.49 0 5.96 3.02 5.54 6.72l-.23 2.03h-37.22zm-45.76 0l.25-2.17c.42-3.73 3.6-6.76 7.11-6.76h24.54c3.51 0 5.99 3.03 5.57 6.76l-.25 2.17h-37.22zm54.07-17.6c-3.48 0-5.97-3.01-5.55-6.72l2.35-20.76c.42-3.71 3.59-6.72 7.07-6.72h24.6c3.48 0 5.97 3.01 5.55 6.72l-2.35 20.76c-.42 3.71-3.59 6.72-7.07 6.72h-24.6zm-45.76.19c-3.5 0-6-3.03-5.57-6.76l2.38-21.06c.42-3.74 3.6-6.76 7.1-6.76h24.54c3.5 0 6 3.03 5.57 6.76l-2.38 21.06c-.42 3.74-3.6 6.76-7.1 6.76h-24.54zm82.56-42.2h-85.19c-4.12 0-7.86 3.55-8.35 7.94l-4.949 43.73c-.5 4.39 2.44 7.95 6.56 7.95h85.19c4.12 0 7.86-3.56 8.36-7.95l4.95-43.73c.5-4.39-2.44-7.94-6.56-7.94" fill="url(#AW)"/><path d="M105.645 231.11c-4.12 0-7.05-3.56-6.56-7.95l4.95-43.73c.5-4.39 4.23-7.94 8.35-7.94h85.19c4.12 0 7.05 3.55 6.56 7.94l-4.95 43.73c-.5 4.39-4.24 7.95-8.36 7.95h-85.18zm92.05-60.58h-85.19c-4.61 0-8.81 4-9.37 8.91l-4.95 43.73c-.56 4.91 2.74 8.91 7.35 8.91h85.19c4.61 0 8.81-4 9.37-8.91l4.95-43.73c.56-4.91-2.74-8.91-7.35-8.91z" fill="url(#AX)" class="H"/><g filter="url(#x)" class="B G"><path d="M143.484 179.12h-24.54c-3.5 0-6.68 3.03-7.1 6.76l-2.38 21.06c-.42 3.74 2.07 6.76 5.57 6.76h24.54c3.5 0 6.68-3.03 7.1-6.76l2.38-21.06c.42-3.74-2.07-6.76-5.57-6.76z"/></g><g filter="url(#y)" class="B J"><path d="M189.256 179.31h-24.6c-3.48 0-6.65 3.01-7.07 6.72l-2.35 20.76c-.42 3.71 2.07 6.72 5.55 6.72h24.6c3.48 0 6.65-3.01 7.07-6.72l2.35-20.76c.42-3.71-2.07-6.72-5.55-6.72z"/></g><g filter="url(#z)" class="B G"><path d="M138.605 222.17h-24.54c-3.51 0-6.69 3.03-7.11 6.76l-.25 2.17h37.22l.25-2.17c.42-3.73-2.06-6.76-5.57-6.76z"/></g><g filter="url(#AA)" class="B G"><path d="M184.375 222.36h-24.61c-3.47 0-6.65 3.02-7.07 6.72l-.23 2.03h37.22l.23-2.03c.42-3.7-2.05-6.72-5.54-6.72z"/></g></g></g><defs><filter id="W" x=".637" y="6.12" width="250.781" height="387.3" filterUnits="userSpaceOnUse" class="C"><feFlood result="A" class="D"/><feColorMatrix in="SourceAlpha" values="0 0 0 0 0 0 0 0 0 0 0 0 0 0 0 0 0 0 127 0"/><feOffset dx="-4" dy="6"/><feGaussianBlur stdDeviation="8"/><feColorMatrix values="0 0 0 0 0.258824 0 0 0 0 0.392157 0 0 0 0 0.658824 0 0 0 0.1 0"/><feBlend in2="A" result="C"/><feColorMatrix in="SourceAlpha" values="0 0 0 0 0 0 0 0 0 0 0 0 0 0 0 0 0 0 127 0"/><feOffset dx="-17" dy="24"/><feGaussianBlur stdDeviation="14.5"/><feColorMatrix values="0 0 0 0 0.258824 0 0 0 0 0.392157 0 0 0 0 0.658824 0 0 0 0.09 0"/><feBlend in2="C" result="D"/><feColorMatrix in="SourceAlpha" values="0 0 0 0 0 0 0 0 0 0 0 0 0 0 0 0 0 0 127 0"/><feOffset dx="-38" dy="54"/><feGaussianBlur stdDeviation="20"/><feColorMatrix values="0 0 0 0 0.258824 0 0 0 0 0.392157 0 0 0 0 0.658824 0 0 0 0.05 0"/><feBlend in2="D" result="E"/><feColorMatrix in="SourceAlpha" values="0 0 0 0 0 0 0 0 0 0 0 0 0 0 0 0 0 0 127 0"/><feOffset dx="-67" dy="96"/><feGaussianBlur stdDeviation="23.5"/><feColorMatrix values="0 0 0 0 0.258824 0 0 0 0 0.392157 0 0 0 0 0.658824 0 0 0 0.01 0"/><feBlend in2="E"/><feBlend in="SourceGraphic"/></filter><filter id="X" x="105.33" y="6.85" width="140.135" height="250.79" filterUnits="userSpaceOnUse" class="C"><feFlood class="D"/><feGaussianBlur stdDeviation="5"/><feComposite in2="SourceAlpha" operator="in"/><feBlend in="SourceGraphic"/></filter><filter id="Y" x="81.512" y="155.54" width="431.266" height="244.26" filterUnits="userSpaceOnUse" class="C"><feFlood class="D"/><feGaussianBlur stdDeviation="5"/><feComposite in2="SourceAlpha" operator="in" result="B"/><feColorMatrix in="SourceAlpha" values="0 0 0 0 0 0 0 0 0 0 0 0 0 0 0 0 0 0 127 0"/><feOffset dx="-6" dy="6"/><feGaussianBlur stdDeviation="9.5"/><feColorMatrix values="0 0 0 0 0.258824 0 0 0 0 0.392157 0 0 0 0 0.658824 0 0 0 0.1 0"/><feBlend in2="B" result="D"/><feColorMatrix in="SourceAlpha" values="0 0 0 0 0 0 0 0 0 0 0 0 0 0 0 0 0 0 127 0"/><feOffset dx="-24" dy="24"/><feGaussianBlur stdDeviation="17"/><feColorMatrix values="0 0 0 0 0.258824 0 0 0 0 0.392157 0 0 0 0 0.658824 0 0 0 0.09 0"/><feBlend in2="D" result="E"/><feColorMatrix in="SourceAlpha" values="0 0 0 0 0 0 0 0 0 0 0 0 0 0 0 0 0 0 127 0"/><feOffset dx="-54" dy="54"/><feGaussianBlur stdDeviation="22.5"/><feColorMatrix values="0 0 0 0 0.258824 0 0 0 0 0.392157 0 0 0 0 0.658824 0 0 0 0.05 0"/><feBlend in2="E" result="F"/><feColorMatrix in="SourceAlpha" values="0 0 0 0 0 0 0 0 0 0 0 0 0 0 0 0 0 0 127 0"/><feOffset dx="-95" dy="95"/><feGaussianBlur stdDeviation="27"/><feColorMatrix values="0 0 0 0 0.258824 0 0 0 0 0.392157 0 0 0 0 0.658824 0 0 0 0.01 0"/><feBlend in2="F"/><feBlend in="SourceGraphic"/></filter><filter id="Z" x="90.272" y="2.98" width="439.697" height="301.36" filterUnits="userSpaceOnUse" class="C"><feFlood result="A" class="D"/><feColorMatrix in="SourceAlpha" values="0 0 0 0 0 0 0 0 0 0 0 0 0 0 0 0 0 0 127 0"/><feOffset dx="-6" dy="6"/><feGaussianBlur stdDeviation="9.5"/><feColorMatrix values="0 0 0 0 0.239216 0 0 0 0 0.360784 0 0 0 0 0.6 0 0 0 0.1 0"/><feBlend in2="A" result="C"/><feColorMatrix in="SourceAlpha" values="0 0 0 0 0 0 0 0 0 0 0 0 0 0 0 0 0 0 127 0"/><feOffset dx="-24" dy="24"/><feGaussianBlur stdDeviation="17"/><feColorMatrix values="0 0 0 0 0.239216 0 0 0 0 0.360784 0 0 0 0 0.6 0 0 0 0.09 0"/><feBlend in2="C" result="D"/><feColorMatrix in="SourceAlpha" values="0 0 0 0 0 0 0 0 0 0 0 0 0 0 0 0 0 0 127 0"/><feOffset dx="-55" dy="55"/><feGaussianBlur stdDeviation="23"/><feColorMatrix values="0 0 0 0 0.239216 0 0 0 0 0.360784 0 0 0 0 0.6 0 0 0 0.05 0"/><feBlend in2="D" result="E"/><feColorMatrix in="SourceAlpha" values="0 0 0 0 0 0 0 0 0 0 0 0 0 0 0 0 0 0 127 0"/><feOffset dx="-97" dy="97"/><feGaussianBlur stdDeviation="27.5"/><feColorMatrix values="0 0 0 0 0.239216 0 0 0 0 0.360784 0 0 0 0 0.6 0 0 0 0.01 0"/><feBlend in2="E"/><feBlend in="SourceGraphic"/></filter><filter id="a" x="232.945" y="6.7" width="290.07" height="152.85" filterUnits="userSpaceOnUse" class="C"><feFlood class="D"/><feGaussianBlur stdDeviation="5"/><feComposite in2="SourceAlpha" operator="in"/><feBlend in="SourceGraphic"/></filter><filter id="b" x="253.299" y="-9.16" width="189.527" height="149.91" filterUnits="userSpaceOnUse" class="C"><feFlood class="D"/><feGaussianBlur stdDeviation="5"/><feComposite in2="SourceAlpha" operator="in"/><feBlend in="SourceGraphic"/></filter><filter id="c" x="267.602" y="1.61" width="163.803" height="101.71" filterUnits="userSpaceOnUse" class="C"><feFlood class="D"/><feGaussianBlur stdDeviation="5"/><feComposite in2="SourceAlpha" operator="in"/><feBlend in="SourceGraphic"/></filter><filter id="d" x="264.605" y="95.88" width="111.531" height="31.73" filterUnits="userSpaceOnUse" class="C"><feFlood class="D"/><feGaussianBlur stdDeviation="5"/><feComposite in2="SourceAlpha" operator="in"/><feBlend in="SourceGraphic"/></filter><filter id="e" x="368.715" y="95.88" width="52.262" height="31.73" filterUnits="userSpaceOnUse" class="C"><feFlood class="D"/><feGaussianBlur stdDeviation="5"/><feComposite in2="SourceAlpha" operator="in"/><feBlend in="SourceGraphic"/></filter><filter id="f" x="431.74" y="-8.19" width="73.32" height="100.95" filterUnits="userSpaceOnUse" class="C"><feFlood class="D"/><feGaussianBlur stdDeviation="5"/><feComposite in2="SourceAlpha" operator="in"/><feBlend in="SourceGraphic"/></filter><filter id="g" x="427.184" y="87.49" width="67.932" height="52.24" filterUnits="userSpaceOnUse" class="C"><feFlood class="D"/><feGaussianBlur stdDeviation="5"/><feComposite in2="SourceAlpha" operator="in"/><feBlend in="SourceGraphic"/></filter><filter id="h" x="434.523" y="96.29" width="33.127" height="34.77" filterUnits="userSpaceOnUse" class="C"><feFlood class="D"/><feGaussianBlur stdDeviation="5"/><feComposite in2="SourceAlpha" operator="in"/><feBlend in="SourceGraphic"/></filter><filter id="i" x="453.893" y="96.11" width="33.381" height="35.11" filterUnits="userSpaceOnUse" class="C"><feFlood class="D"/><feGaussianBlur stdDeviation="5"/><feComposite in2="SourceAlpha" operator="in"/><feBlend in="SourceGraphic"/></filter><filter id="j" x="242.605" y="174.86" width="46.969" height="31.4" filterUnits="userSpaceOnUse" class="C"><feFlood class="D"/><feGaussianBlur stdDeviation="5"/><feComposite in2="SourceAlpha" operator="in"/><feBlend in="SourceGraphic"/></filter><filter id="k" x="276.412" y="174.86" width="100.35" height="31.41" filterUnits="userSpaceOnUse" class="C"><feFlood class="D"/><feGaussianBlur stdDeviation="5"/><feComposite in2="SourceAlpha" operator="in"/><feBlend in="SourceGraphic"/></filter><filter id="l" x="363.578" y="174.86" width="31.365" height="31.41" filterUnits="userSpaceOnUse" class="C"><feFlood class="D"/><feGaussianBlur stdDeviation="5"/><feComposite in2="SourceAlpha" operator="in"/><feBlend in="SourceGraphic"/></filter><filter id="m" x="382.156" y="174.86" width="50.119" height="31.41" filterUnits="userSpaceOnUse" class="C"><feFlood class="D"/><feGaussianBlur stdDeviation="5"/><feComposite in2="SourceAlpha" operator="in"/><feBlend in="SourceGraphic"/></filter><filter id="n" x="420.463" y="174.86" width="69.176" height="31.4" filterUnits="userSpaceOnUse" class="C"><feFlood class="D"/><feGaussianBlur stdDeviation="5"/><feComposite in2="SourceAlpha" operator="in"/><feBlend in="SourceGraphic"/></filter><filter id="o" x="324.533" y="212.14" width="66.135" height="31.41" filterUnits="userSpaceOnUse" class="C"><feFlood class="D"/><feGaussianBlur stdDeviation="5"/><feComposite in2="SourceAlpha" operator="in"/><feBlend in="SourceGraphic"/></filter><filter id="p" x="96.879" y="-8.71" width="136.791" height="175.37" filterUnits="userSpaceOnUse" class="C"><feFlood class="D"/><feGaussianBlur stdDeviation="5"/><feComposite in2="SourceAlpha" operator="in"/><feBlend in="SourceGraphic"/></filter><filter id="q" x="121.451" y="2.54" width="100.848" height="31.73" filterUnits="userSpaceOnUse" class="C"><feFlood class="D"/><feGaussianBlur stdDeviation="5"/><feComposite in2="SourceAlpha" operator="in"/><feBlend in="SourceGraphic"/></filter><filter id="r" x="112.51" y="60.25" width="58.66" height="53.69" filterUnits="userSpaceOnUse" class="C"><feFlood class="D"/><feGaussianBlur stdDeviation="5"/><feComposite in2="SourceAlpha" operator="in"/><feBlend in="SourceGraphic"/></filter><filter id="s" x="157.049" y="60.44" width="58.621" height="53.31" filterUnits="userSpaceOnUse" class="C"><feFlood class="D"/><feGaussianBlur stdDeviation="5"/><feComposite in2="SourceAlpha" operator="in"/><feBlend in="SourceGraphic"/></filter><filter id="t" x="107.76" y="102.2" width="58.66" height="53.68" filterUnits="userSpaceOnUse" class="C"><feFlood class="D"/><feGaussianBlur stdDeviation="5"/><feComposite in2="SourceAlpha" operator="in"/><feBlend in="SourceGraphic"/></filter><filter id="u" x="152.299" y="102.38" width="58.621" height="53.31" filterUnits="userSpaceOnUse" class="C"><feFlood class="D"/><feGaussianBlur stdDeviation="5"/><feComposite in2="SourceAlpha" operator="in"/><feBlend in="SourceGraphic"/></filter><filter id="v" x="117.449" y="37.05" width="81.971" height="31.73" filterUnits="userSpaceOnUse" class="C"><feFlood class="D"/><feGaussianBlur stdDeviation="5"/><feComposite in2="SourceAlpha" operator="in"/><feBlend in="SourceGraphic"/></filter><filter id="w" x="88.123" y="160.53" width="126.984" height="81.54" filterUnits="userSpaceOnUse" class="C"><feFlood class="D"/><feGaussianBlur stdDeviation="5"/><feComposite in2="SourceAlpha" operator="in"/><feBlend in="SourceGraphic"/></filter><filter id="x" x="99.418" y="169.12" width="59.682" height="54.58" filterUnits="userSpaceOnUse" class="C"><feFlood class="D"/><feGaussianBlur stdDeviation="5"/><feComposite in2="SourceAlpha" operator="in"/><feBlend in="SourceGraphic"/></filter><filter id="y" x="145.189" y="169.31" width="59.662" height="54.2" filterUnits="userSpaceOnUse" class="C"><feFlood class="D"/><feGaussianBlur stdDeviation="5"/><feComposite in2="SourceAlpha" operator="in"/><feBlend in="SourceGraphic"/></filter><filter id="z" x="96.705" y="212.17" width="57.516" height="28.93" filterUnits="userSpaceOnUse" class="C"><feFlood class="D"/><feGaussianBlur stdDeviation="5"/><feComposite in2="SourceAlpha" operator="in"/><feBlend in="SourceGraphic"/></filter><filter id="AA" x="142.465" y="212.36" width="57.496" height="28.75" filterUnits="userSpaceOnUse" class="C"><feFlood class="D"/><feGaussianBlur stdDeviation="5"/><feComposite in2="SourceAlpha" operator="in"/><feBlend in="SourceGraphic"/></filter><linearGradient id="AB" x1="235.566" y1="16.85" x2="46.5" y2="114.85" xlink:href="#Ac"><stop stop-color="#000714" stop-opacity=".25"/><stop offset="1" stop-color="#000714"/></linearGradient><linearGradient id="AC" x1="496.049" y1="169.26" x2="452.748" y2="314.183" xlink:href="#Ac"><stop stop-color="#000714" stop-opacity=".25"/><stop offset="1" stop-color="#000714"/></linearGradient><linearGradient id="AD" x1="513.243" y1="16.7" x2="407.467" y2="230.823" xlink:href="#Ac"><stop stop-color="#000714" stop-opacity=".25"/><stop offset="1" stop-color="#000714"/></linearGradient><linearGradient id="AE" x1="432.051" y1="1.81" x2="308.157" y2="163.467" xlink:href="#Ac"><stop stop-color="#000714" stop-opacity=".25"/><stop offset="1" stop-color="#000714"/></linearGradient><linearGradient id="AF" x1="263.299" y1="130.75" x2="389.195" y2="-32.847" xlink:href="#Ac"><stop stop-color="#4264a8" stop-opacity=".25"/><stop offset="1" stop-color="#4264a8"/></linearGradient><linearGradient id="AG" x1="495.105" y1="1.81" x2="420.668" y2="50.633" xlink:href="#Ac"><stop stop-color="#000714" stop-opacity=".25"/><stop offset="1" stop-color="#000714"/></linearGradient><linearGradient id="AH" x1="440.834" y1="83.71" x2="517.343" y2="33.014" xlink:href="#Ac"><stop stop-color="#4264a8" stop-opacity=".25"/><stop offset="1" stop-color="#4264a8"/></linearGradient><linearGradient id="AI" x1="485.155" y1="97.49" x2="455.171" y2="141.88" xlink:href="#Ac"><stop stop-color="#000714" stop-opacity=".25"/><stop offset="1" stop-color="#000714"/></linearGradient><linearGradient id="AJ" x1="436.268" y1="130.75" x2="468.299" y2="84.31" xlink:href="#Ac"><stop stop-color="#4264a8" stop-opacity=".25"/><stop offset="1" stop-color="#4264a8"/></linearGradient><linearGradient id="AK" x1="287.259" y1="222.14" x2="281.049" y2="243.186" xlink:href="#Ac"><stop stop-color="#000714" stop-opacity=".25"/><stop offset="1" stop-color="#000714"/></linearGradient><linearGradient id="AL" x1="247.709" y1="234.27" x2="255.205" y2="210.91" xlink:href="#Ac"><stop stop-color="#4264a8" stop-opacity=".25"/><stop offset="1" stop-color="#4264a8"/></linearGradient><linearGradient id="AM" x1="384.953" y1="184.86" x2="373.514" y2="196.205" xlink:href="#Ac"><stop stop-color="#000714" stop-opacity=".25"/><stop offset="1" stop-color="#000714"/></linearGradient><linearGradient id="AN" x1="294.383" y1="234.27" x2="307.264" y2="221.566" xlink:href="#Ac"><stop stop-color="#4264a8" stop-opacity=".25"/><stop offset="1" stop-color="#4264a8"/></linearGradient><linearGradient id="AO" x1="328.439" y1="222.14" x2="317.584" y2="237.147" xlink:href="#Ac"><stop stop-color="#000714" stop-opacity=".25"/><stop offset="1" stop-color="#000714"/></linearGradient><linearGradient id="AP" x1="311.9" y1="234.26" x2="324.257" y2="217.778" xlink:href="#Ac"><stop stop-color="#4264a8" stop-opacity=".25"/><stop offset="1" stop-color="#4264a8"/></linearGradient><linearGradient id="AQ" x1="380.707" y1="222.14" x2="375.355" y2="243.689" xlink:href="#Ac"><stop stop-color="#000714" stop-opacity=".25"/><stop offset="1" stop-color="#000714"/></linearGradient><linearGradient id="AR" x1="333.84" y1="234.27" x2="340.358" y2="210.275" xlink:href="#Ac"><stop stop-color="#4264a8" stop-opacity=".25"/><stop offset="1" stop-color="#4264a8"/></linearGradient><linearGradient id="AS" x1="434.507" y1="222.14" x2="429.194" y2="243.709" xlink:href="#Ac"><stop stop-color="#000714" stop-opacity=".25"/><stop offset="1" stop-color="#000714"/></linearGradient><linearGradient id="AT" x1="387.27" y1="234.27" x2="393.744" y2="210.25" xlink:href="#Ac"><stop stop-color="#4264a8" stop-opacity=".25"/><stop offset="1" stop-color="#4264a8"/></linearGradient><linearGradient id="AU" x1="222.861" y1="2.26" x2="75.401" y2="112.283" xlink:href="#Ac"><stop stop-color="#000714" stop-opacity=".25"/><stop offset="1" stop-color="#000714"/></linearGradient><linearGradient id="AV" x1="106.879" y1="156.66" x2="256.331" y2="44.791" xlink:href="#Ac"><stop stop-color="#4264a8" stop-opacity=".25"/><stop offset="1" stop-color="#4264a8"/></linearGradient><linearGradient id="AW" x1="204.299" y1="171.5" x2="152.902" y2="261.783" xlink:href="#Ac"><stop stop-color="#000714" stop-opacity=".25"/><stop offset="1" stop-color="#000714"/></linearGradient><linearGradient id="AX" x1="98.123" y1="232.08" x2="151.581" y2="139.553" xlink:href="#Ac"><stop stop-color="#4264a8" stop-opacity=".25"/><stop offset="1" stop-color="#4264a8"/></linearGradient><path id="AY" d="M211.757 236.569l3.27 2.07c-.69 6.1-5.9 11.06-11.63 11.06l-3.27-2.07c5.73 0 10.94-4.96 11.63-11.06z"/><path id="AZ" d="M491.904 170.52l3.27 2.07c2.7 1.71 4.28 4.99 3.85 8.76l-3.27-2.07c.43-3.77-1.16-7.05-3.85-8.76z"/><path id="Aa" d="M382.756 184.86h-5.7c-1.36 0-2.6 1.17-2.76 2.63l-.7 6.15c-.16 1.45.8 2.63 2.17 2.63h5.7c1.36 0 2.6-1.17 2.76-2.63l.7-6.15c.16-1.45-.8-2.63-2.17-2.63z"/><path id="Ab" d="M200.224 70.44h-23.96c-3.39 0-6.47 2.93-6.88 6.55l-2.29 20.21c-.41 3.62 2.01 6.55 5.4 6.55h23.96c3.39 0 6.47-2.93 6.88-6.55l2.29-20.21c.41-3.62-2.01-6.55-5.4-6.55z"/><linearGradient id="Ac" gradientUnits="userSpaceOnUse"/></defs></svg>