<svg xmlns="http://www.w3.org/2000/svg" width="514" height="367" fill="none">
    <style>
        <![CDATA[.B{fill:#4264a8}.C{fill:#000714}.D{fill-opacity:.8}.E{fill:#fff}.F{opacity:.75}.G{fill-opacity:.6}.H{fill-opacity:.3}.I{fill-opacity:.9}.J{fill-opacity:.75}.K{fill-opacity:.15}]]></style>
    <g filter="url(#H)">
        <mask id="A" maskUnits="userSpaceOnUse" x="391" y="226" width="10" height="18">
            <path d="M393.546 242.67l-2.04 1.29c4.92-3.12 7.81-9.12 7.03-16l2.04-1.29c.78 6.88-2.11 12.88-7.03 16z"
                  class="E"/>
        </mask>
        <g mask="url(#A)" class="B">
            <path d="M398.535 227.971l2.04-1.29.1 1.25-2.04 1.29-.1-1.25z"/>
            <path d="M398.636 229.211l2.04-1.29a19.31 19.31 0 0 1-.04 2.53l-2.04 1.29a19.31 19.31 0 0 0 .04-2.53z"/>
            <path d="M398.595 231.741l2.04-1.29c-.07.88-.21 1.73-.4 2.56l-2.04 1.29c.19-.83.33-1.68.4-2.56z"/>
            <path d="M398.196 234.311l2.04-1.29c-.23 1-.55 1.95-.94 2.86l-2.04 1.29c.39-.91.71-1.86.94-2.86z"/>
            <path d="M397.256 237.161l2.04-1.29c-1.24 2.84-3.22 5.2-5.75 6.8l-2.04 1.29c2.52-1.6 4.51-3.95 5.75-6.8z"/>
        </g>
        <mask id="B" maskUnits="userSpaceOnUse" x="383" y="242" width="11" height="5">
            <path d="M385.497 244.95c3.01 0 5.75-.83 8.05-2.28l-2.04 1.29c-2.3 1.46-5.03 2.28-8.05 2.28l2.04-1.29z"
                  class="E"/>
        </mask>
        <g mask="url(#B)" class="C D">
            <path d="M383.457 246.251l2.04-1.29c.63 0 1.24-.04 1.85-.11l-2.04 1.29a15.99 15.99 0 0 1-1.85.11z"/>
            <path d="M385.307 246.14l2.04-1.29c.99-.11 1.94-.32 2.85-.61l-2.04 1.29c-.91.29-1.86.5-2.85.61z"/>
            <path d="M388.146 245.53l2.04-1.29c1.2-.38 2.32-.91 3.36-1.57l-2.04 1.29c-1.03.66-2.16 1.18-3.36 1.57z"/>
        </g>
        <mask id="C" maskUnits="userSpaceOnUse" x="383" y="244" width="12" height="5">
            <path d="M394.606 244.36l-2.04 1.29c-2.54 1.61-5.56 2.53-8.89 2.53l2.04-1.29c3.33 0 6.35-.92 8.89-2.53z"
                  class="E"/>
        </mask>
        <g mask="url(#C)" class="B">
            <path d="M383.676 248.18l2.04-1.29a17.19 17.19 0 0 0 2.04-.12l-2.04 1.29c-.66.08-1.34.12-2.04.12z"/>
            <path d="M385.705 248.06l2.04-1.29c1.09-.13 2.14-.35 3.14-.68l-2.04 1.29a16.84 16.84 0 0 1-3.14.68z"/>
            <path d="M388.846 247.39l2.04-1.29c1.32-.42 2.57-1.01 3.71-1.73l-2.04 1.29a15.71 15.71 0 0 1-3.71 1.73z"/>
        </g>
        <mask id="D" maskUnits="userSpaceOnUse" x="97" y="58" width="10" height="18">
            <path d="M104.486 59.48l2.04-1.29c-4.92 3.12-7.809 9.12-7.029 16l-2.04 1.29c-.78-6.88 2.11-12.88 7.029-16z"
                  class="E"/>
        </mask>
        <g mask="url(#D)" class="C D">
            <path d="M104.488 59.48l2.04-1.29c-2.52 1.6-4.51 3.95-5.75 6.8l-2.04 1.29c1.23-2.84 3.22-5.2 5.75-6.8z"/>
            <path d="M98.747 66.28l2.04-1.29c-.39.91-.71 1.86-.94 2.86l-2.04 1.29c.23-1 .55-1.95.94-2.86z"/>
            <path d="M97.797 69.13l2.04-1.29c-.19.83-.33 1.68-.4 2.56l-2.04 1.29c.07-.88.21-1.73.4-2.56z"/>
            <path d="M97.397 71.701l2.04-1.29a19.31 19.31 0 0 0-.04 2.53l-2.04 1.29a19.31 19.31 0 0 1 .04-2.53z"/>
            <path d="M97.357 74.23l2.04-1.29.1 1.25-2.04 1.29-.1-1.25z"/>
        </g>
        <mask id="E" maskUnits="userSpaceOnUse" x="95" y="56" width="11" height="20">
            <path d="M103.436 57.79l2.04-1.29c-5.44 3.45-8.65 10.09-7.79 17.69l-2.04 1.29c-.86-7.6 2.35-14.24 7.79-17.69z"
                  class="E"/>
        </mask>
        <g mask="url(#E)" class="B">
            <path d="M103.436 57.79l2.04-1.29c-2.79 1.77-5 4.38-6.36 7.53l-2.04 1.29c1.37-3.15 3.57-5.76 6.36-7.53z"/>
            <path d="M97.067 65.32l2.04-1.29a17.46 17.46 0 0 0-1.04 3.16l-2.04 1.29c.26-1.1.61-2.16 1.04-3.16z"/>
            <path d="M96.026 68.48l2.04-1.29c-.21.91-.36 1.86-.45 2.83l-2.04 1.29a18.56 18.56 0 0 1 .45-2.83z"/>
            <path d="M95.577 71.31l2.04-1.29c-.08.91-.09 1.84-.05 2.79l-2.03 1.29a19.88 19.88 0 0 1 .05-2.79"/>
            <path d="M95.537 74.1l2.04-1.29.11 1.38-2.04 1.29-.11-1.38z"/>
        </g>
        <path d="M133.947 246.25l2.04-1.3h249.51l-2.04 1.3h-249.51z" class="C D"/>
        <path d="M134.166 248.18l2.04-1.3h249.51l-2.04 1.3h-249.51z" class="B"/>
        <path d="M97.457 75.48l2.04-1.3 17.27 152.49-2.04 1.3-17.27-152.49z" class="C D"/>
        <path d="M95.647 75.48l2.04-1.3 17.27 152.49-2.04 1.3L95.647 75.48z" class="B"/>
        <path d="M385.497 244.95h-249.51c-9.47 0-18.08-8.19-19.22-18.28L99.497 74.18c-1.14-10.09 5.61-18.28 15.08-18.28h249.51c9.47 0 18.08 8.19 19.22 18.28l17.27 152.49c1.14 10.09-5.61 18.28-15.08 18.28z"
              fill="url(#I)"/>
        <mask id="F" maskUnits="userSpaceOnUse" x="114" y="226" width="22" height="21">
            <path d="M114.727 227.97l2.04-1.29c1.14 10.09 9.75 18.28 19.22 18.28l-2.04 1.29c-9.47 0-18.08-8.19-19.22-18.28z"
                  class="E"/>
        </mask>
        <g mask="url(#F)" class="C D">
            <path d="M114.727 227.97l2.04-1.29.21 1.42-2.04 1.29-.21-1.42z"/>
            <path d="M114.938 229.38l2.039-1.29a20.89 20.89 0 0 0 .78 2.97l-2.04 1.29c-.33-.96-.599-1.96-.779-2.97z"/>
            <path d="M115.717 232.36l2.04-1.29c.53 1.53 1.23 2.99 2.08 4.35l-2.04 1.29c-.85-1.35-1.55-2.81-2.08-4.35z"/>
            <path d="M117.797 236.7l2.04-1.29c1.1 1.75 2.44 3.34 3.95 4.68l-2.04 1.29a21.42 21.42 0 0 1-3.95-4.68z"/>
            <path d="M121.746 241.38l2.04-1.29c1.2 1.07 2.51 1.98 3.91 2.73l-2.04 1.29c-1.39-.74-2.71-1.66-3.91-2.73z"/>
            <path d="M125.656 244.11l2.04-1.29a18.34 18.34 0 0 0 2.73 1.19l-2.04 1.29a18.34 18.34 0 0 1-2.73-1.19z"/>
            <path d="M128.387 245.3l2.04-1.29c.8.27 1.62.49 2.45.65l-2.04 1.29c-.83-.16-1.65-.38-2.45-.65z"/>
            <path d="M130.836 245.95l2.04-1.29a16.46 16.46 0 0 0 2.42.28l-2.04 1.29c-.82-.03-1.62-.13-2.42-.28z"/>
            <path d="M133.256 246.23l2.04-1.29.69.01-2.04 1.29c-.23 0-.46 0-.69-.01z"/>
        </g>
        <path d="M385.717 246.88h-249.51c-10.46 0-19.99-9.07-21.25-20.21L97.687 74.18c-1.26-11.14 6.22-20.21 16.68-20.21h249.51c10.46 0 19.99 9.07 21.25 20.21l17.27 152.49c1.26 11.14-6.22 20.21-16.68 20.21zm-2.4-172.7c-1.14-10.09-9.75-18.28-19.22-18.28h-249.52c-9.47 0-16.23 8.19-15.08 18.28l17.27 152.49c1.14 10.09 9.75 18.28 19.22 18.28h249.51c9.47 0 16.23-8.19 15.08-18.28l-17.27-152.49"
              class="B"/>
        <mask id="G" maskUnits="userSpaceOnUse" x="112" y="226" width="25" height="23">
            <path d="M112.916 227.97l2.04-1.29c1.26 11.14 10.8 20.21 21.25 20.21l-2.04 1.29c-10.46 0-19.99-9.07-21.25-20.21z"
                  class="E"/>
        </mask>
        <g mask="url(#G)" class="B">
            <path d="M112.916 227.97l2.04-1.29.23 1.56-2.04 1.29-.23-1.56z"/>
            <path d="M113.146 229.53l2.04-1.29c.21 1.12.5 2.22.86 3.28l-2.04 1.29c-.37-1.06-.66-2.16-.86-3.28z"/>
            <path d="M114.006 232.81l2.04-1.29a23.05 23.05 0 0 0 2.3 4.8l-2.04 1.29c-.94-1.5-1.71-3.11-2.3-4.8z"/>
            <path d="M116.307 237.61l2.04-1.29c1.21 1.94 2.7 3.7 4.38 5.19l-2.04 1.29c-1.68-1.49-3.17-3.24-4.38-5.19z"/>
            <path d="M120.686 242.8l2.04-1.29c1.33 1.18 2.78 2.2 4.33 3.02l-2.04 1.29a22.44 22.44 0 0 1-4.33-3.02z"/>
            <path d="M125.016 245.82l2.04-1.29c.97.52 1.98.96 3.02 1.32l-2.04 1.29c-1.04-.36-2.05-.8-3.02-1.32z"/>
            <path d="M128.035 247.14l2.04-1.29a20.64 20.64 0 0 0 2.7.72l-2.04 1.29c-.92-.17-1.82-.41-2.7-.72z"/>
            <path d="M130.736 247.85l2.04-1.29c.88.17 1.77.27 2.67.31l-2.04 1.29c-.9-.04-1.79-.14-2.67-.31z"/>
            <path d="M133.406 248.16l2.04-1.29.76.02-2.04 1.29c-.25 0-.51 0-.76-.02z"/>
        </g>
    </g>
    <g fill="#5fd6f6">
        <path d="M491.636 78.21c4.73 1.49 7.97 3.89 8.26 6.42s-2.4 4.92-6.76 6.41c1.62 4.94 1.61 8.88-.3 10.14-.45.3-.99.43-1.61.43-2.01 0-4.81-1.5-7.77-4.15-2.36 2.65-4.82 4.18-6.84 4.18-.61 0-1.18-.14-1.69-.43-2.21-1.26-3.12-5.21-2.63-10.16-4.74-1.49-7.98-3.89-8.26-6.42s2.4-4.92 6.78-6.42c-1.62-4.94-1.61-8.88.3-10.14.45-.3.99-.44 1.61-.44 2.01 0 4.81 1.51 7.77 4.15 2.36-2.65 4.82-4.18 6.83-4.18a3.37 3.37 0 0 1 1.68.44c2.2 1.26 3.12 5.21 2.63 10.16v.01zm-16.25 6.44c.58 1.04 1.21 2.09 1.88 3.1a49.9 49.9 0 0 0 2.11 2.96 40.07 40.07 0 0 0 3.3.15c1.11 0 2.21-.06 3.29-.16.5-.93.97-1.93 1.42-2.98.43-1.02.82-2.06 1.17-3.1a50.19 50.19 0 0 0-1.88-3.1 54.91 54.91 0 0 0-2.1-2.96 36.27 36.27 0 0 0-3.3-.16c-1.1 0-2.2.05-3.29.16-.5.93-.97 1.92-1.43 2.97-.43 1.03-.83 2.07-1.16 3.11m-2.88 4.71a36.13 36.13 0 0 1 1.09-4.72c-.87-1.63-1.6-3.22-2.19-4.75-.68.24-1.34.5-1.93.79-2.45 1.16-3.96 2.72-3.82 3.95s1.99 2.76 4.71 3.94a19.84 19.84 0 0 0 2.14.79zm21.95-.79c2.46-1.17 3.96-2.72 3.83-3.94-.14-1.23-1.99-2.77-4.71-3.95a20.85 20.85 0 0 0-2.15-.79c-.24 1.51-.6 3.09-1.08 4.71.86 1.63 1.59 3.23 2.18 4.75.68-.23 1.34-.5 1.93-.78zm-6.93-19.22c-1.53 0-3.61 1.29-5.72 3.65 1.16 1.14 2.33 2.45 3.48 3.89 1.66.18 3.26.47 4.74.85.07-.79.12-1.56.12-2.3 0-2.98-.7-5.29-1.76-5.9a1.75 1.75 0 0 0-.85-.2m-11.11 30.57c1.53 0 3.61-1.3 5.73-3.65-1.16-1.15-2.33-2.46-3.48-3.89-1.67-.19-3.27-.48-4.75-.85-.07.79-.12 1.56-.12 2.3 0 2.97.7 5.29 1.76 5.89.23.13.52.2.85.21m15.42-.24c.92-.62 1.08-2.93.4-5.9-.16-.72-.38-1.48-.63-2.27-1.39.38-2.92.68-4.56.86-.81 1.44-1.68 2.74-2.58 3.89 2.66 2.35 5.04 3.63 6.55 3.63.33 0 .61-.06.82-.21zm-19.72-30.09c-.92.62-1.08 2.93-.4 5.9a28.83 28.83 0 0 0 .63 2.26c1.39-.38 2.93-.67 4.56-.85.81-1.44 1.68-2.75 2.58-3.89-2.65-2.34-5.04-3.63-6.55-3.63-.24 0-.55.07-.82.21zm16.79 19.01c-.26.63-.55 1.24-.84 1.84a26.03 26.03 0 0 0 2.95-.63c-.39-1.01-.85-2.05-1.36-3.09a40.55 40.55 0 0 1-.74 1.88m-15.96-9.16a35.71 35.71 0 0 0 1.36 3.1c.22-.63.47-1.25.73-1.87a34.65 34.65 0 0 1 .84-1.85 30.43 30.43 0 0 0-2.94.62m15.05 1.21a43.74 43.74 0 0 1 1.17 1.87c.26-1.03.48-2.07.64-3.08-.99-.25-2.02-.45-3.07-.62a42.03 42.03 0 0 1 1.26 1.83zm-12.04 7.97a41.37 41.37 0 0 1-1.17-1.87c-.27 1.03-.48 2.08-.64 3.08.98.25 2.01.45 3.06.62a42.03 42.03 0 0 1-1.26-1.83m7.14-11.89c-.77-.91-1.54-1.75-2.31-2.5-.58.75-1.17 1.58-1.72 2.5a44.73 44.73 0 0 1 2.03-.05c.69 0 1.36.02 2.01.05m.08 18.31c.58-.75 1.17-1.58 1.72-2.5-.66.04-1.34.06-2.02.06s-1.36-.03-2.01-.06a38.14 38.14 0 0 0 2.31 2.5z"
              class="F"/>
        <path d="M482.355 88.19c-.89 0-1.78-.37-2.48-1.04s-1.16-1.57-1.26-2.51.15-1.85.69-2.52c.55-.67 1.36-1.04 2.25-1.04s1.78.37 2.48 1.04 1.16 1.57 1.26 2.52-.15 1.84-.69 2.51c-.55.67-1.36 1.04-2.25 1.04z"
              class="F"/>
    </g>
    <g fill="#329632" class="F">
        <path d="M443.777 213.58c2.76-.05 3.86-.74 3.66-2.3-.12-.9-.54-1.56-4.91-1.94-3.65-.31-5.98-1.12-6.37-4.18-.37-2.83 1.65-4.54 5.39-4.61 4.21-.07 6.5 1.44 7.2 4.77a.37.37 0 0 1-.06.31c-.06.08-.15.13-.26.13l-1.7.03c-.18 0-.35-.13-.41-.31-.67-1.93-1.74-2.53-4.44-2.48-3.02.05-3.22 1.18-3.11 2.02.13 1.01.59 1.3 4.74 1.8 4.11.5 6.13 1.27 6.53 4.29s-1.75 4.84-5.92 4.9c-5.75.1-7.32-2.68-7.63-5.04-.03-.22.12-.4.33-.41l1.7-.03c.19 0 .37.14.42.33.5 1.84 1.39 2.76 4.87 2.7l-.03.02zm8.36-16.31c.92.51 1.57 1.48 1.71 2.53l2.11 16.13c.14 1.05-.26 2.04-1.04 2.57l-12.08 8.31c-.38.26-.85.41-1.34.41s-.97-.12-1.42-.37l-4.75-2.69c-.71-.38-.4-.51-.2-.61.83-.34 1-.42 1.86-.99.04-.03.08-.04.13-.04a.36.36 0 0 1 .2.06l3.65 2.07c.07.03.14.05.21.05s.14-.02.19-.06l12.09-8.3c.11-.08.17-.23.15-.39l-2.11-16.13c-.02-.16-.12-.3-.25-.38l-14.19-7.84c-.07-.03-.14-.05-.21-.05a.36.36 0 0 0-.2.06l-12.07 8.3a.4.4 0 0 0-.16.39l2.11 16.13c.02.16.12.3.26.37l3.89 2.15c.55.27 1.03.38 1.44.37 1.12-.02 1.64-.93 1.53-1.84l-2.08-15.92c-.03-.23.12-.41.33-.41l1.66-.03a.47.47 0 0 1 .44.4l2.08 15.92c.36 2.78-.85 4.39-3.32 4.43-.76.01-1.35.02-3.14-.82l-3.73-2.05c-.92-.51-1.57-1.48-1.71-2.53l-2.11-16.13c-.14-1.05.26-2.04 1.04-2.57l12.08-8.31c.38-.26.85-.39 1.34-.4a2.91 2.91 0 0 1 1.43.35l14.2 7.85-.02.01z"/>
    </g>
    <path d="M469.406 128.29h35.87l4.33 38.22h-35.87l-4.33-38.22zm36.33 31.63c.03-.14.23-1.12-.18-2.63l.08.1c-.46-1.74-1.69-3.21-5-4.57-1.16-.55-2.43-.93-2.89-1.82-.2-.52-.25-.81-.2-1.12.09-.79.76-1.15 1.48-1.15.22 0 .45.03.67.1.6.19 1.19.67 1.62 1.43l2.42-1.79c-.48-.67-.71-.96-1.01-1.24-1.03-1.07-2.28-1.65-4.18-1.65h-.25l-1.04.14c-.98.26-1.87.83-2.37 1.6-1.47 2.06-.58 5.64 1.65 7.12 2.22 1.63 5.25 1.98 5.81 3.51.5 1.63-.65 2.29-2.05 2.29a4.68 4.68 0 0 1-.64-.04c-1.25-.29-1.99-.93-2.87-2.12l-2.54 1.67c.4.76.79 1.1 1.41 1.76 1.28 1.23 3.24 1.89 5.1 1.89 2.39 0 4.61-1.09 4.99-3.49m-13.71 1.2c.59-1.48.22-3.29 0-5.33l-1.11-9.84v-.09h-3.37l1.04 9.25c.22 1.96.52 3.76.28 4.31-.23.7-.84.9-1.4.9-.32 0-.63-.06-.84-.13-.63-.31-.98-.74-1.39-1.36l-.23-.31-2.52 1.79c.57 1 1.33 1.87 2.25 2.42.93.55 2.04.85 3.2.85.55 0 1.11-.07 1.67-.2 1.13-.36 2.05-1.1 2.45-2.25"
          fill="#f2db1d" class="F"/>
    <path d="M443.826 81.85c.27 1.05.32 1.37.48 2.78s.18 1.74.15 2.79c-.08 3.61-1.16 6.99-3.11 9.76-.92 1.31-2.12 2.56-3.3 3.45l-.13.1-3.37-4.58-8.37-11.42-5.11-6.95c-.21-.22-.34-.24-1.05-.24-.61 0-.67 0-.8.08a.84.84 0 0 0-.23.23l-.09.14.83 7.49.84 7.49.09.17c.07.11.16.21.27.28l.17.1h.6c.53 0 .63 0 .73-.07.14-.08.2-.16.27-.34.05-.13.03-.35-.58-5.73l-.59-5.59 4.26 5.67 4.24 5.67 3.33 4.12 3.39 4.17c.05.04 0 .09-.3.25-1.88 1.1-3.85 1.73-6.23 2.02-.27.03-.99.05-1.71.05s-1.45-.02-1.73-.05c-1.41-.17-2.67-.43-3.88-.83-6.75-2.23-12.23-8.27-14.02-15.44-.27-1.05-.32-1.36-.48-2.79s-.18-1.73-.15-2.78c.07-3.01.82-5.84 2.22-8.35 2.52-4.5 6.96-7.43 11.99-7.92l.54-.05h.53c.79 0 2.16.03 2.42.05 1.38.17 2.64.44 3.82.83 6.75 2.23 12.23 8.27 14.02 15.44h.04zm-10.94 2.54l-.8-6.86a.9.9 0 0 0-.4-.44c-.13-.06-.22-.07-.73-.07-.55 0-.6 0-.74.09-.15.1-.26.26-.29.47-.01.09.17 1.86.53 5.02l.55 4.89 1.32 1.81 1.31 1.82-.75-6.71"
          fill="#fafafa" class="F"/>
    <path d="M447.865 128.29c.93 0 1.77.8 1.88 1.79l3.92 34.64c.11.99-.55 1.79-1.48 1.79h-32.5c-.93 0-1.77-.8-1.88-1.79l-3.92-34.64c-.11-.99.55-1.79 1.48-1.79h32.5zm-12.67 19.28l-.39-3.45h-14.29l.39 3.45h5.11l1.74 15.36h4.05l-1.74-15.36h5.13zm14.33 12.69c.29-.7.37-1.59.26-2.63-.09-.77-.27-1.43-.54-2a5.49 5.49 0 0 0-1.09-1.52c-.45-.44-.98-.84-1.57-1.2a17.11 17.11 0 0 0-2.01-1l-1.46-.66c-.43-.22-.8-.43-1.11-.65-.31-.23-.56-.46-.74-.71-.18-.24-.3-.53-.33-.84-.03-.27.01-.55.12-.77a1.64 1.64 0 0 1 .52-.6c.26-.18.57-.31.89-.38.36-.1.76-.14 1.21-.14.72 0 1.45.11 2.17.32.38.1.75.24 1.12.41.35.17.69.36 1.02.57l-.44-3.91a10.31 10.31 0 0 0-2.01-.54c-.72-.12-1.54-.17-2.45-.17h-.1a9.9 9.9 0 0 0-2.5.31c-.76.19-1.47.53-2.09 1.01-.58.45-1.01 1.03-1.31 1.73-.29.7-.37 1.54-.26 2.52.14 1.24.6 2.31 1.37 3.19.77.89 1.88 1.63 3.32 2.24l1.58.7c.45.2.87.43 1.29.7.33.21.63.48.9.79.19.25.33.55.38.85a1.57 1.57 0 0 1-.08.89 1.56 1.56 0 0 1-.49.61c-.23.17-.53.3-.89.39-.36.1-.79.15-1.29.15-1.78 0-3.57-.69-5.05-1.91l.47 4.19c.75.37 1.55.64 2.35.78a14 14 0 0 0 2.65.26h.13a11.67 11.67 0 0 0 2.64-.29 5.39 5.39 0 0 0 2.11-.95c.59-.43 1.03-1.03 1.32-1.73"
          fill="#3076c2" class="F"/>
    <g fill="#06b3d0">
        <path d="M509.166 203.56c1.82 0 3.33-1.02 4.53-3.06-.61 5.09-3.32 7.64-8.1 7.64-4.45 0-6.73-2.2-8.7-4.1-1.21-1.17-2.31-2.22-3.71-2.58a5.5 5.5 0 0 0-1.42-.19c-1.82 0-3.33 1.02-4.53 3.06.61-5.1 3.32-7.65 8.1-7.65 4.45 0 6.73 2.2 8.7 4.1 1.21 1.17 2.3 2.23 3.71 2.59a5.5 5.5 0 0 0 1.42.19zm-7.669 11.47c1.82 0 3.33-1.02 4.53-3.06-.62 5.09-3.32 7.64-8.1 7.64-4.45 0-6.73-2.2-8.7-4.1-1.22-1.16-2.31-2.22-3.71-2.58a5.5 5.5 0 0 0-1.42-.19c-1.82 0-3.33 1.02-4.54 3.06.62-5.1 3.32-7.65 8.11-7.65 4.45 0 6.73 2.21 8.69 4.1 1.22 1.17 2.31 2.23 3.72 2.59a5.5 5.5 0 0 0 1.42.19z"
              class="F"/>
    </g>
    <path d="M323.656 130.58h-169.74c-6.44 0-12.29-5.56-13.07-12.43L129.096 14.4c-.78-6.87 3.81-12.43 10.26-12.43h169.74c6.44 0 12.29 5.56 13.07 12.43l11.75 103.75c.78 6.87-3.81 12.43-10.26 12.43z"
          class="C I"/>
    <path d="M323.806 131.89h-169.74c-7.11 0-13.59-6.16-14.45-13.74L127.866 14.4c-.86-7.58 4.22-13.74 11.34-13.74h169.74c7.11 0 13.59 6.16 14.45 13.74l11.75 103.75c.86 7.58-4.23 13.74-11.34 13.74zm-1.64-117.49c-.78-6.87-6.63-12.43-13.07-12.43h-169.75c-6.44 0-11.03 5.56-10.26 12.43l11.75 103.75c.78 6.87 6.63 12.43 13.07 12.43h169.74c6.44 0 11.03-5.56 10.26-12.43L322.156 14.4"
          fill="url(#J)" class="J"/>
    <g class="B">
        <path d="M305.446 21.36h-159.36c-1.2 0-2.28-1.03-2.42-2.3s.7-2.3 1.9-2.3h159.36c1.2 0 2.28 1.03 2.42 2.3s-.7 2.3-1.9 2.3z"
              class="G"/>
        <path d="M213.066 31.7h-65.83c-1.19 0-2.27-1.03-2.41-2.3s.7-2.3 1.89-2.3h65.83c1.2 0 2.28 1.03 2.42 2.3s-.7 2.3-1.9 2.3z"
              class="H"/>
        <path d="M201.496 64.26h-50.59c-1.19 0-2.28-1.03-2.42-2.3s.71-2.3 1.9-2.3h50.59c1.19 0 2.28 1.03 2.42 2.3s-.71 2.3-1.9 2.3z"
              class="G"/>
        <path d="M183.607 74.9h-31.49c-1.19 0-2.27-1.03-2.41-2.3s.7-2.3 1.89-2.3h31.49c1.19 0 2.28 1.03 2.42 2.3s-.71 2.3-1.9 2.3z"
              class="H"/>
        <path d="M191.246 101.96h-32.09c-3.44 0-6.57-2.97-6.98-6.63s2.04-6.64 5.48-6.64h32.09c3.44 0 6.56 2.97 6.98 6.64s-2.03 6.63-5.47 6.63h-.01z"
              class="G"/>
        <path d="M244.875 42.64h-96.37c-1.19 0-2.27-1.03-2.41-2.3s.7-2.3 1.89-2.3h96.36c1.19 0 2.28 1.03 2.42 2.3s-.71 2.3-1.9 2.3h.01z"
              class="H"/>
        <path d="M310.407 114.68h-77.33c-3.97 0-7.58-3.43-8.06-7.67l-4.61-40.72c-.48-4.23 2.35-7.67 6.33-7.67h77.33c3.97 0 7.58 3.43 8.06 7.67l4.61 40.72c.48 4.23-2.35 7.67-6.33 7.67z"
              class="K"/>
    </g>
    <path d="M424.955 204.61h-265.22c-4.54 0-8.66-3.92-9.21-8.75l-2.96-26.16c-.55-4.83 2.69-8.75 7.22-8.75h265.22c4.54 0 8.66 3.92 9.21 8.75l2.96 26.16c.55 4.83-2.69 8.75-7.22 8.75z"
          class="C I"/>
    <path d="M425.105 205.92h-265.22c-5.21 0-9.96-4.51-10.59-10.07l-2.96-26.16c-.63-5.56 3.09-10.07 8.31-10.07h265.22c5.21 0 9.96 4.51 10.59 10.07l2.96 26.16c.63 5.56-3.09 10.07-8.31 10.07zm4.11-36.22c-.55-4.83-4.67-8.75-9.21-8.75h-265.21c-4.54 0-7.77 3.92-7.22 8.75l2.96 26.16c.55 4.83 4.67 8.75 9.21 8.75h265.22c4.54 0 7.77-3.92 7.22-8.75l-2.96-26.16"
          fill="url(#K)" class="J"/>
    <path d="M418.056 130.58h-48.84c-3.65 0-6.97-3.16-7.41-7.05L348.836 9.02c-.44-3.89 2.16-7.05 5.82-7.05h48.84c3.65 0 6.97 3.16 7.41 7.05l12.97 114.51c.44 3.89-2.16 7.05-5.82 7.05z"
          class="C I"/>
    <path d="M418.206 131.89h-48.84c-4.33 0-8.27-3.75-8.79-8.36L347.606 9.02c-.52-4.61 2.57-8.36 6.9-8.36h48.84c4.33 0 8.27 3.75 8.79 8.36l12.97 114.51c.52 4.62-2.57 8.36-6.9 8.36zm-7.3-122.87c-.44-3.89-3.76-7.05-7.41-7.05h-48.84c-3.65 0-6.26 3.16-5.82 7.05l12.97 114.51c.44 3.89 3.76 7.05 7.41 7.05h48.84c3.65 0 6.26-3.16 5.82-7.05L410.906 9.02z"
          fill="url(#L)" class="J"/>
    <g class="B">
        <path d="M404.725 96.09h-29.18c-3.52 0-6.72-3.04-7.15-6.8l-3.23-28.53c-.43-3.76 2.09-6.8 5.61-6.8h29.18c3.52 0 6.73 3.04 7.16 6.8l3.23 28.53c.43 3.76-2.09 6.8-5.62 6.8z"
              class="K"/>
        <path d="M400.306 21.36h-37.43c-1.19 0-2.27-1.03-2.41-2.3s.7-2.3 1.89-2.3h37.43c1.19 0 2.27 1.03 2.41 2.3s-.7 2.3-1.89 2.3z"
              class="G"/>
        <path d="M377.745 31.7h-13.57c-1.19 0-2.28-1.03-2.42-2.3s.71-2.3 1.9-2.3h13.57c1.19 0 2.27 1.03 2.41 2.3s-.7 2.3-1.89 2.3zm8.88 10.94h-21.35c-1.2 0-2.28-1.03-2.42-2.3s.7-2.3 1.9-2.3h21.35c1.19 0 2.28 1.03 2.42 2.3s-.71 2.3-1.9 2.3z"
              class="H"/>
        <path d="M409.206 118.93h-32.52c-2.62 0-5-2.27-5.31-5.06s1.55-5.06 4.17-5.06h32.52c2.62 0 5 2.27 5.32 5.06s-1.56 5.06-4.17 5.06h-.01zm-66.51 60.56h-178.76c-1.17 0-2.23-1.01-2.38-2.36-.14-1.24.69-2.24 1.86-2.24h178.76c1.17 0 2.23 1 2.38 2.35.14 1.24-.69 2.25-1.86 2.25z"
              class="G"/>
        <path d="M294.446 189.83h-129.24c-1.19 0-2.27-1.03-2.41-2.3s.7-2.3 1.89-2.3h129.24c1.2 0 2.28 1.03 2.42 2.3s-.7 2.3-1.9 2.3z"
              class="H"/>
        <path d="M417.385 193.83h-32.38c-2.59 0-4.93-2.23-5.25-4.99l-1.52-13.46c-.31-2.76 1.53-4.99 4.12-4.99h32.38c2.59 0 4.93 2.23 5.25 4.99l1.52 13.46c.31 2.76-1.53 4.99-4.12 4.99z"
              class="K"/>
    </g>
    <defs>
        <filter id="H" x=".51" y="45.97" width="412.025" height="320.21" filterUnits="userSpaceOnUse"
                color-interpolation-filters="sRGB">
            <feFlood flood-opacity="0" result="A"/>
            <feColorMatrix in="SourceAlpha" values="0 0 0 0 0 0 0 0 0 0 0 0 0 0 0 0 0 0 127 0"/>
            <feOffset dx="-3" dy="5"/>
            <feGaussianBlur stdDeviation="6.5"/>
            <feColorMatrix values="0 0 0 0 0.258824 0 0 0 0 0.392157 0 0 0 0 0.658824 0 0 0 0.1 0"/>
            <feBlend in2="A" result="C"/>
            <feColorMatrix in="SourceAlpha" values="0 0 0 0 0 0 0 0 0 0 0 0 0 0 0 0 0 0 127 0"/>
            <feOffset dx="-14" dy="20"/>
            <feGaussianBlur stdDeviation="12"/>
            <feColorMatrix values="0 0 0 0 0.258824 0 0 0 0 0.392157 0 0 0 0 0.658824 0 0 0 0.09 0"/>
            <feBlend in2="C" result="D"/>
            <feColorMatrix in="SourceAlpha" values="0 0 0 0 0 0 0 0 0 0 0 0 0 0 0 0 0 0 127 0"/>
            <feOffset dx="-31" dy="45"/>
            <feGaussianBlur stdDeviation="16.5"/>
            <feColorMatrix values="0 0 0 0 0.258824 0 0 0 0 0.392157 0 0 0 0 0.658824 0 0 0 0.05 0"/>
            <feBlend in2="D" result="E"/>
            <feColorMatrix in="SourceAlpha" values="0 0 0 0 0 0 0 0 0 0 0 0 0 0 0 0 0 0 127 0"/>
            <feOffset dx="-56" dy="79"/>
            <feGaussianBlur stdDeviation="19.5"/>
            <feColorMatrix values="0 0 0 0 0.258824 0 0 0 0 0.392157 0 0 0 0 0.658824 0 0 0 0.01 0"/>
            <feBlend in2="E"/>
            <feBlend in="SourceGraphic"/>
        </filter>
        <linearGradient id="I" x1="99.371" y1="55.9" x2="270.332" y2="327.249" gradientUnits="userSpaceOnUse">
            <stop stop-color="#000714"/>
            <stop offset="1" stop-color="#000714" stop-opacity=".25"/>
        </linearGradient>
        <linearGradient id="J" x1="127.771" y1=".66" x2="246.86" y2="188.141" gradientUnits="userSpaceOnUse">
            <stop stop-color="#4264a8" stop-opacity=".1"/>
            <stop offset="1" stop-color="#4264a8"/>
        </linearGradient>
        <linearGradient id="K" x1="146.266" y1="159.62" x2="160.91" y2="250.085" gradientUnits="userSpaceOnUse">
            <stop stop-color="#4264a8" stop-opacity=".1"/>
            <stop offset="1" stop-color="#4264a8"/>
        </linearGradient>
        <linearGradient id="L" x1="347.549" y1=".66" x2="462.607" y2="68.423" gradientUnits="userSpaceOnUse">
            <stop stop-color="#4264a8" stop-opacity=".1"/>
            <stop offset="1" stop-color="#4264a8"/>
        </linearGradient>
    </defs>
</svg>