<svg width="256" height="256" viewBox="0 0 256 256" fill="none" xmlns="http://www.w3.org/2000/svg">
<mask id="mask0_695_48307" style="mask-type:luminance" maskUnits="userSpaceOnUse" x="30" y="52" width="196" height="152">
<path d="M225.5 52.071H30.5V203.929H225.5V52.071Z" fill="white"/>
</mask>
<g mask="url(#mask0_695_48307)">
<path d="M177.511 94.8821C178.295 96.5066 178.295 98.3992 177.511 100.024L153.59 150.244L134.081 191.217C131.856 195.895 125.055 195.895 122.831 191.217L108.937 162.063C106.713 157.385 99.9125 157.385 97.6881 162.063L79.8382 199.519C78.8169 201.661 76.629 203.036 74.2042 203.036H37.629C33.0891 203.036 30.0806 198.412 31.9951 194.395L53.0176 150.244L78.1605 97.4527L97.6881 56.4802C99.9125 51.8027 106.713 51.8027 108.937 56.4802L122.831 85.6342C125.055 90.3116 131.856 90.3116 134.081 85.6342L147.974 56.4802C150.198 51.8027 156.999 51.8027 159.224 56.4802L177.511 94.8821Z" fill="#22365E"/>
<path d="M219.283 203.036H188.487C183.948 203.036 180.939 198.412 182.853 194.395L198.242 162.063C200.466 157.386 207.267 157.386 209.492 162.063L224.88 194.395C226.795 198.43 223.786 203.036 219.246 203.036H219.283Z" fill="#B4C4E4"/>
</g>
</svg>
