<svg width="192" height="192" viewBox="0 0 192 192" fill="none" xmlns="http://www.w3.org/2000/svg">
<mask id="mask0_695_48279" style="mask-type:luminance" maskUnits="userSpaceOnUse" x="28" y="43" width="136" height="106">
<path d="M163.5 43.4338H28.5V148.566H163.5V43.4338Z" fill="white"/>
</mask>
<g mask="url(#mask0_695_48279)">
<path d="M130.277 73.0722C130.82 74.1968 130.82 75.5071 130.277 76.6317L113.716 111.4L100.21 139.766C98.6699 143.004 93.9615 143.004 92.4215 139.766L82.8029 119.582C81.2629 116.344 76.5548 116.344 75.0149 119.582L62.6573 145.513C61.9502 146.996 60.4355 147.948 58.7568 147.948H33.4355C30.2925 147.948 28.2097 144.746 29.5351 141.966L44.0891 111.4L61.4958 74.8518L75.0149 46.4862C76.5548 43.2479 81.2629 43.2479 82.8029 46.4862L92.4215 66.6697C93.9615 69.908 98.6699 69.908 100.21 66.6697L109.828 46.4862C111.368 43.2479 116.077 43.2479 117.616 46.4862L130.277 73.0722Z" fill="#22365E"/>
<path d="M159.196 147.948H137.876C134.733 147.948 132.65 144.747 133.975 141.966L144.629 119.582C146.169 116.344 150.877 116.344 152.417 119.582L163.071 141.966C164.396 144.759 162.314 147.948 159.17 147.948H159.196Z" fill="#B4C4E4"/>
</g>
</svg>
