<svg width="144" height="144" viewBox="0 0 144 144" fill="none" xmlns="http://www.w3.org/2000/svg">
<mask id="mask0_694_48278" style="mask-type:luminance" maskUnits="userSpaceOnUse" x="27" y="36" width="90" height="72">
<path d="M117 36.9558H27V107.044H117V36.9558Z" fill="white"/>
</mask>
<g mask="url(#mask0_694_48278)">
<path d="M94.8514 56.7147C95.2132 57.4645 95.2132 58.338 94.8514 59.0877L83.8107 82.2664L74.8065 101.177C73.7799 103.336 70.641 103.336 69.6143 101.177L63.2019 87.7212C62.1753 85.5623 59.0365 85.5623 58.0099 87.7212L49.7715 105.009C49.3001 105.997 48.2903 106.632 47.1712 106.632H30.2903C28.195 106.632 26.8065 104.498 27.6901 102.644L37.3927 82.2664L48.9972 57.9011L58.0099 38.9907C59.0365 36.8319 62.1753 36.8319 63.2019 38.9907L69.6143 52.4464C70.641 54.6052 73.7799 54.6052 74.8065 52.4464L81.2188 38.9907C82.2454 36.8319 85.3843 36.8319 86.4109 38.9907L94.8514 56.7147Z" fill="#22365E"/>
<path d="M114.131 106.632H99.9172C97.8219 106.632 96.4335 104.498 97.317 102.644L104.419 87.7215C105.446 85.5626 108.585 85.5626 109.612 87.7215L116.714 102.644C117.598 104.506 116.209 106.632 114.114 106.632H114.131Z" fill="#B4C4E4"/>
</g>
</svg>
