<svg width="512" height="512" viewBox="0 0 512 512" fill="none" xmlns="http://www.w3.org/2000/svg">
<mask id="mask0_695_48293" style="mask-type:luminance" maskUnits="userSpaceOnUse" x="51" y="96" width="410" height="320">
<path d="M461 96.3545H51V415.646H461V96.3545Z" fill="white"/>
</mask>
<g mask="url(#mask0_695_48293)">
<path d="M360.101 186.368C361.749 189.783 361.749 193.762 360.101 197.178L309.804 302.77L268.785 388.918C264.108 398.753 249.809 398.753 245.132 388.918L215.92 327.62C211.243 317.785 196.944 317.785 192.267 327.62L154.737 406.373C152.59 410.877 147.989 413.767 142.891 413.767H65.9894C56.4438 413.767 50.1184 404.045 54.1437 395.6L98.3448 302.77L151.209 191.772L192.267 105.625C196.944 95.7902 211.243 95.7902 215.92 105.625L245.132 166.923C249.809 176.758 264.108 176.758 268.785 166.923L297.997 105.625C302.674 95.7902 316.973 95.7902 321.65 105.625L360.101 186.368Z" fill="#22365E"/>
<path d="M447.928 413.768H383.179C373.633 413.768 367.308 404.046 371.333 395.6L403.688 327.62C408.365 317.785 422.665 317.785 427.342 327.62L459.697 395.6C463.722 404.083 457.397 413.768 447.851 413.768H447.928Z" fill="#B4C4E4"/>
</g>
</svg>
