<svg width="384" height="384" viewBox="0 0 384 384" fill="none" xmlns="http://www.w3.org/2000/svg">
<mask id="mask0_695_48286" style="mask-type:luminance" maskUnits="userSpaceOnUse" x="42" y="75" width="300" height="234">
<path d="M342 75.1862H42V308.814H342V75.1862Z" fill="white"/>
</mask>
<g mask="url(#mask0_695_48286)">
<path d="M268.171 141.049C269.377 143.549 269.377 146.46 268.171 148.959L231.369 226.222L201.355 289.257C197.933 296.453 187.47 296.453 184.048 289.257L162.673 244.404C159.251 237.208 148.788 237.208 145.366 244.404L117.905 302.029C116.334 305.325 112.968 307.439 109.237 307.439H52.9678C45.9832 307.439 41.3549 300.326 44.3002 294.146L76.6424 226.222L115.324 145.004L145.366 81.9694C148.788 74.7732 159.251 74.7732 162.673 81.9694L184.048 126.822C187.47 134.018 197.933 134.018 201.355 126.822L222.729 81.9694C226.151 74.7732 236.614 74.7732 240.036 81.9694L268.171 141.049Z" fill="#22365E"/>
<path d="M332.435 307.44H285.057C278.073 307.44 273.445 300.326 276.39 294.146L300.065 244.405C303.487 237.209 313.95 237.209 317.372 244.405L341.046 294.146C343.992 300.353 339.363 307.44 332.379 307.44H332.435Z" fill="#B4C4E4"/>
</g>
</svg>
