<?xml version="1.0" encoding="UTF-8"?>
<svg id="Layer_1" data-name="Layer 1" xmlns="http://www.w3.org/2000/svg" viewBox="0 0 87.33 79">
    <defs>
        <style>
            .cls-1 {
            fill: none;
            stroke: #4264a8;
            stroke-linecap: round;
            stroke-linejoin: round;
            stroke-width: 4px;
            }
        </style>
    </defs>
    <path class="cls-1"
          d="m35.33,10.33c0-5.21-3.15-8.4-8.33-8.33H10.33C5.12,2,2,5.13,2,10.22v25.12c0,5.21,3.12,8.33,8.33,8.33q4.17,0,4.17,4.17v4.17c0,4.17-4.17,8.33-8.33,8.33s-4.17.03-4.17,4.3v8.2q0,4.17,4.17,4.17c12.5,0,29.17-4.17,29.17-33.33V10.33Z"/>
    <path class="cls-1"
          d="m85.33,10.33c0-5.21-3.15-8.4-8.33-8.33h-16.67c-5.21,0-8.33,3.12-8.33,8.22v25.12c0,5.21,3.12,8.33,8.33,8.33h3.12c0,9.38,1.04,16.67-11.46,16.67v12.5q0,4.17,4.17,4.17c12.5,0,29.17-4.17,29.17-33.33V10.33Z"/>
</svg>