<svg xmlns:xlink="http://www.w3.org/1999/xlink" xmlns="http://www.w3.org/2000/svg" fill="none"
     viewBox="0 0 544 372"
>
    <style>

        <![CDATA[.B{fill:#fff}.C{fill:#B4C4E4}.D{fill:#ffffff}.E{fill-opacity:.75}.F{fill-opacity:.6}.G{opacity:.75}]]></style>
    <mask id="A" maskUnits="userSpaceOnUse" x="0" y="165" width="172" height="82">
        <path d="M.475 246.625l9.23-81.51h161.53l-9.23 81.51H.475z" class="B"/>
    </mask>
    <g mask="url(#A)">
        <path d="M132.875 166.076h-85.04c-20.61 0-39.35 17.82-41.84 39.79-2.49 21.98 12.22 39.79 32.83 39.79h85.04c20.62 0 39.35-17.81 41.84-39.79 2.49-21.97-12.21-39.79-32.83-39.79z"
              fill="url(#V)"/>
        <path d="M38.825 245.655c-20.61 0-35.32-17.81-32.83-39.79 2.49-21.97 21.23-39.79 41.84-39.79h85.04c20.62 0 35.32 17.82 32.83 39.79-2.49 21.98-21.22 39.79-41.84 39.79h-85.04zm94.16-80.54h-85.04c-21.09 0-40.31 18.28-42.85 40.75s12.54 40.76 33.62 40.76h85.04c21.09 0 40.32-18.29 42.86-40.76s-12.55-40.75-33.63-40.75z"
              fill="url(#W)" class="E"/>
    </g>
    <mask id="B" maskUnits="userSpaceOnUse" x="13" y="62" width="171" height="83">
        <path d="M13.115 144.275l9.23-81.5h161.53l-9.23 81.5H13.115z" class="B"/>
    </mask>
    <g mask="url(#B)">
        <path d="M145.515 63.736h-85.04c-20.61 0-39.35 17.81-41.84 39.79s12.22 39.79 32.83 39.79h85.04c20.62 0 39.36-17.81 41.85-39.79s-12.22-39.79-32.84-39.79z"
              fill="url(#X)"/>
        <path d="M51.455 143.315c-20.61 0-35.32-17.81-32.83-39.79s21.23-39.79 41.84-39.79h85.04c20.62 0 35.32 17.81 32.84 39.79-2.49 21.98-21.23 39.79-41.85 39.79h-85.04zm94.16-80.54h-85.03c-21.09 0-40.31 18.28-42.85 40.75s12.54 40.75 33.62 40.75h85.04c21.09 0 40.32-18.28 42.86-40.75s-12.54-40.75-33.63-40.75"
              fill="url(#Y)" class="E"/>
    </g>
    <g filter="url(#U)">
        <mask id="C" maskUnits="userSpaceOnUse" x="405" y="17" width="9" height="7">
            <path d="M413.107 23.114l-4.08-2.59c-.92-1.05-1.97-1.95-3.14-2.7l4.08 2.59c1.17.74 2.23 1.65 3.14 2.7z"
                  class="B"/>
        </mask>
        <g mask="url(#C)" class="D">
            <use xlink:href="#c"/>
        </g>
        <mask id="D" maskUnits="userSpaceOnUse" x="409" y="20" width="9" height="17">
            <path d="M413.107 23.113c2.87 3.28 4.37 7.92 3.79 13.07l-4.08-2.59c.58-5.14-.92-9.78-3.79-13.07l4.08 2.59z"
                  class="B"/>
        </mask>
        <g mask="url(#D)" class="D">
            <use xlink:href="#c"/>
        </g>
        <mask id="E" maskUnits="userSpaceOnUse" x="406" y="16" width="13" height="21">
            <path d="M406.938 16.145l4.08 2.59c5.37 3.4 8.53 9.95 7.68 17.45l-4.081-2.59c.85-7.5-2.31-14.05-7.679-17.45z"
                  class="B"/>
        </mask>
        <g mask="url(#E)" class="C">
            <path d="M406.938 16.145l4.08 2.59c5.37 3.4 8.53 9.95 7.68 17.45l-4.081-2.59c.85-7.5-2.31-14.05-7.679-17.45z"/>
        </g>
        <mask id="F" maskUnits="userSpaceOnUse" x="292" y="239" width="13" height="6">
            <path d="M296.177 242.104l-4.08-2.59c2.26 1.43 4.96 2.25 7.93 2.25l4.08 2.59c-2.97 0-5.67-.82-7.93-2.25z"
                  class="B"/>
        </mask>
        <g mask="url(#F)" class="D">
            <path d="M300.027 241.764l4.08 2.59c-2.97 0-5.67-.82-7.93-2.25l-4.08-2.59c2.26 1.43 4.96 2.25 7.93 2.25z"/>
        </g>
        <mask id="G" maskUnits="userSpaceOnUse" x="291" y="241" width="13" height="6">
            <path d="M295.117 243.795l-4.08-2.59c2.5 1.59 5.49 2.49 8.77 2.49l4.08 2.59c-3.28 0-6.27-.9-8.77-2.49z"
                  class="B"/>
        </mask>
        <g mask="url(#G)" class="C">
            <path d="M299.807 243.695l4.08 2.59c-3.28 0-6.27-.9-8.77-2.49l-4.08-2.59c2.5 1.59 5.49 2.49 8.77 2.49z"/>
        </g>
        <path d="M372.337 241.764l4.08 2.59h-72.31l-4.08-2.59h72.31z" class="D"/>
        <path d="M372.117 243.693l4.08 2.59h-72.31l-4.08-2.59h72.31z" class="C"/>
        <path d="M412.807 33.594l4.09 2.59-21.54 190.16-4.08-2.59 21.53-190.16z" class="D"/>
        <path d="M414.617 33.594l4.09 2.59-21.54 190.16-4.08-2.59 21.53-190.16z" class="C"/>
        <path d="M397.947 15.584c9.33 0 15.99 8.07 14.86 18.01l-21.53 190.16c-1.13 9.95-9.61 18.01-18.94 18.01h-72.31c-9.33 0-15.99-8.07-14.86-18.01l21.53-190.16c1.13-9.95 9.61-18.01 18.94-18.01h72.31z"
              fill="url(#Z)"/>
        <mask id="H" maskUnits="userSpaceOnUse" x="372" y="223" width="24" height="22">
            <path d="M391.277 223.754l4.08 2.59c-1.13 9.95-9.61 18.01-18.94 18.01l-4.08-2.59c9.33 0 17.81-8.07 18.94-18.01z"
                  class="B"/>
        </mask>
        <g mask="url(#H)" class="D">
            <path d="M391.277 223.754l4.08 2.59c-1.13 9.95-9.61 18.01-18.94 18.01l-4.08-2.59c9.33 0 17.81-8.07 18.94-18.01z"/>
        </g>
        <mask id="I" maskUnits="userSpaceOnUse" x="372" y="223" width="26" height="24">
            <path d="M393.087 223.754l4.08 2.59c-1.25 11-10.65 19.94-20.97 19.94l-4.08-2.59c10.32 0 19.72-8.95 20.97-19.94z"
                  class="B"/>
        </mask>
        <g mask="url(#I)" class="C">
            <path d="M393.087 223.754l4.08 2.59c-1.25 11-10.65 19.94-20.97 19.94l-4.08-2.59c10.32 0 19.72-8.95 20.97-19.94z"/>
        </g>
        <path d="M398.167 13.654c10.32 0 17.7 8.95 16.45 19.94l-21.53 190.16c-1.25 11-10.65 19.94-20.97 19.94h-72.31c-10.32 0-17.7-8.95-16.45-19.94l21.53-190.16c1.25-11 10.65-19.94 20.97-19.94h72.31zm-6.89 210.1l21.53-190.16c1.13-9.95-5.53-18.01-14.86-18.01h-72.31c-9.33 0-17.81 8.07-18.94 18.01l-21.53 190.16c-1.13 9.95 5.53 18.01 14.86 18.01h72.31c9.33 0 17.81-8.07 18.94-18.01z"
              class="C"/>
    </g>
    <mask id="J" maskUnits="userSpaceOnUse" x="195" y="0" width="135" height="229">
        <path d="M195.375 228.335L221.215.215h107.93l-25.84 228.12h-107.93z" class="B"/>
    </mask>
    <g mask="url(#J)">
        <path d="M260.035 17.556c-1.8 0-3.64-1.46-3.9-3.3-.23-1.76.46-3.41 1.61-4.51.88-.83 2.01-1.35 3.19-1.35h26.5c1.75 0 3.3 1.04 3.77 2.76.52 1.91-.21 3.84-1.49 5.06-.88.83-2.01 1.34-3.2 1.34h-26.48zm51.19-16.38h-72.33c-9.33 0-17.81 8.06-18.93 18l-21.54 190.19c-1.13 9.95 5.52 18 14.85 18h72.33c9.33 0 17.81-8.07 18.94-18.02l21.53-190.15c1.13-9.95-5.53-18.02-14.86-18.02"
              fill-opacity=".9" class="D"/>
        <path d="M260.145 16.595c-1.45 0-2.9-1.22-3.1-2.6-.19-1.3.29-2.64 1.27-3.56.72-.7 1.61-1.07 2.51-1.07h26.5c1.44 0 2.64.87 3 2.16.46 1.7-.3 3.18-1.18 4.01-.72.69-1.62 1.06-2.53 1.06h-26.48m27.29-8.2h-26.5c-1.17 0-2.31.51-3.19 1.35-1.15 1.1-1.85 2.76-1.61 4.51.26 1.84 2.1 3.3 3.9 3.3h26.48c1.19 0 2.32-.51 3.2-1.34 1.29-1.22 2.01-3.15 1.49-5.06-.47-1.72-2.03-2.76-3.77-2.76zm-74.15 218.98c-9.33 0-15.98-8.05-14.85-18l21.54-190.19c1.13-9.95 9.6-18 18.93-18h72.33c9.33 0 15.99 8.07 14.86 18.02l-21.53 190.15c-1.13 9.95-9.61 18.02-18.94 18.02h-72.33M311.335.215h-72.33c-9.81 0-18.76 8.51-19.95 18.97l-21.54 190.19c-1.18 10.46 5.84 18.96 15.65 18.96h72.33c9.82 0 18.77-8.52 19.96-18.99l21.53-190.15c1.19-10.46-5.83-18.98-15.65-18.98z"
              fill="url(#a)" class="E"/>
    </g>
    <mask id="K" maskUnits="userSpaceOnUse" x="184" y="169" width="93" height="29">
        <path d="M184.285 197.735l3.16-27.93h88.89l-3.16 27.93h-88.89z" class="B"/>
    </mask>
    <g mask="url(#K)">
        <path d="M267.075 170.775h-70.59c-4.55 0-8.69 3.94-9.24 8.79l-.95 8.42c-.55 4.85 2.7 8.78 7.25 8.78h70.59c4.55 0 8.69-3.93 9.24-8.78l.95-8.42c.55-4.85-2.7-8.79-7.25-8.79z"
              fill-opacity=".9" class="D"/>
        <path d="M193.545 196.765c-4.55 0-7.8-3.93-7.25-8.78l.95-8.42c.55-4.85 4.69-8.79 9.24-8.79h70.59c4.55 0 7.8 3.94 7.25 8.79l-.95 8.42c-.55 4.85-4.69 8.78-9.24 8.78h-70.59zm73.64-26.96h-70.59c-5.05 0-9.65 4.37-10.26 9.75l-.95 8.42c-.61 5.37 3 9.75 8.05 9.75h70.59c5.05 0 9.65-4.37 10.26-9.75l.95-8.42c.61-5.38-3-9.75-8.05-9.75z"
              fill="url(#b)" class="E"/>
    </g>
    <mask id="L" maskUnits="userSpaceOnUse" x="193" y="32" width="99" height="93">
        <path d="M193.695 124.986l10.51-92.81h87.08l-10.51 92.81h-87.08z" class="B"/>
    </mask>
    <g mask="url(#L)" class="C">
        <path d="M275.705 32.176h-55.92c-8.61 0-16.42 7.43-17.46 16.6l-6.75 59.6c-1.04 9.17 5.09 16.6 13.7 16.6h55.92c8.61 0 16.42-7.43 17.46-16.6l6.75-59.6c1.04-9.17-5.09-16.6-13.7-16.6z"
              fill-opacity=".3"/>
    </g>
    <mask id="M" maskUnits="userSpaceOnUse" x="192" y="176" width="16" height="15">
        <path d="M192.575 190.674l1.63-14.42h13.53l-1.63 14.42h-13.53z" class="B"/>
    </mask>
    <g mask="url(#M)" class="C F">
        <use xlink:href="#d"/>
    </g>
    <mask id="N" maskUnits="userSpaceOnUse" x="212" y="176" width="16" height="15">
        <path d="M212.675 190.674l1.64-14.42h13.53l-1.63 14.42h-13.54z" class="B"/>
    </mask>
    <g mask="url(#N)" class="C F">
        <use xlink:href="#d" x="20.1"/>
    </g>
    <mask id="O" maskUnits="userSpaceOnUse" x="232" y="176" width="16" height="15">
        <path d="M232.775 190.674l1.63-14.42h13.54l-1.64 14.42h-13.53z" class="B"/>
    </mask>
    <g mask="url(#O)" class="C F">
        <use xlink:href="#d" x="40.2"/>
    </g>
    <mask id="P" maskUnits="userSpaceOnUse" x="252" y="176" width="17" height="15">
        <path d="M252.885 190.674l1.63-14.42h13.53l-1.63 14.42h-13.53z" class="B"/>
    </mask>
    <g mask="url(#P)" class="C F">
        <use xlink:href="#d" x="60.31"/>
    </g>
    <g class="G">
        <mask id="Q" maskUnits="userSpaceOnUse" x="46" y="82" width="34" height="39">
            <path d="M46.065 120.946l4.32-38.18h28.96l-4.33 38.18h-28.95z" class="B"/>
        </mask>
        <g mask="url(#Q)">
            <path d="M77.345 100.376h-11l-10.82 10.28 8.49 10.29h11l-8.48-10.29 10.8-10.28m-9.03-17.61l-20.09 19.09 4.86 5.89 26.24-24.95h-10.98l-.02-.03"
                  fill="#02569b"/>
        </g>
    </g>
    <g class="G">
        <mask id="R" maskUnits="userSpaceOnUse" x="103" y="82" width="42" height="40">
            <path d="M103.945 121.165l4.37-38.63h36.24l-4.37 38.63h-36.24z" class="B"/>
        </mask>
        <g mask="url(#R)">
            <path d="M119.535 119.555l-6.53-7.92c-.63-.78-.57-1.56-.47-2.43l2.15-18.97 18.53 22.45-.78 6.87h-12.89m-2.39-30.41l9.32-4.69s.79-.29 1.35-.31h.03c.74 0 1.1.32 1.5.75l3.65 4.25h-15.85zm10.86-6.61c-.71 0-1.43.17-2.1.51l-12.14 6.1-7.16 12.7c-.26.46-.62 1.27-.68 1.78-.13 1.1.2 2.24.85 3.05l11.95 14.48h15.02l.78-6.87h6.44l1.78-15.75-12.16-14.74s-1.24-1.19-2.39-1.27h-.19"
                  fill="#0175c2"/>
        </g>
    </g>
    <g class="G">
        <mask id="S" maskUnits="userSpaceOnUse" x="35" y="191" width="40" height="22">
            <path d="M35.805 212.885l2.47-21.76h36.24l-2.47 21.76h-36.24z" class="B"/>
        </mask>
        <g mask="url(#S)">
            <path d="M46.215 207.385c-.83 0-1.43-.72-1.33-1.61s.86-1.61 1.69-1.61 1.43.72 1.33 1.61-.86 1.61-1.69 1.61zm16.68 0c-.83 0-1.43-.72-1.33-1.61s.86-1.61 1.69-1.61 1.43.72 1.33 1.61-.86 1.61-1.69 1.61zm4.85-16.26c-.05 0-.11 0-.16.02-.17.04-.32.16-.42.31l-3.69 5.63c-2.2-1.13-4.76-1.76-7.56-1.76s-5.5.63-7.96 1.76l-2.41-5.63c-.07-.16-.2-.27-.35-.31-.05-.01-.1-.02-.16-.02-.11 0-.23.03-.33.09-.15.09-.27.23-.33.4a.69.69 0 0 0 0 .51l2.39 5.56c-5.52 3.01-9.69 8.59-10.96 15.2h36.24c.23-6.61-2.67-12.19-7.51-15.2l3.64-5.56c.11-.16.14-.34.12-.51a.54.54 0 0 0-.56-.49"
                  fill="#34a853"/>
        </g>
    </g>
    <g class="G">
        <mask id="T" maskUnits="userSpaceOnUse" x="99" y="183" width="35" height="40">
            <path d="M99.325 222.476l4.37-38.63h29.51l-4.38 38.63h-29.5z" class="B"/>
        </mask>
        <g mask="url(#T)" fill="#000000">
            <path d="M124.045 193.165c-2.78 0-5.31 1.78-6.64 1.78-1.4 0-3.38-1.67-5.67-1.67h-.12c-3.08.04-6.12 1.9-8.04 4.85-3.87 5.91-2.48 14.65.09 19.46 1.25 2.3 2.73 4.9 5.07 4.9h.1c2.3-.1 3.34-1.59 6.12-1.59s3.35 1.52 5.66 1.52h.15c2.48-.03 4.31-2.38 6.08-4.74 2.05-2.72 3.08-5.36 3.14-5.5-.06-.02-4.58-1.96-3.98-7.82.51-4.89 4.56-7.23 4.75-7.34-1.77-3.36-5.04-3.74-6.19-3.83-.18-.01-.35-.02-.53-.02m1.6-9.31c-1.83.08-4.17 1.3-5.67 2.92-1.34 1.44-2.62 3.76-2.59 5.98.12 0 .23.01.35.01 1.9 0 3.95-1.22 5.33-2.75 1.46-1.63 2.56-3.91 2.57-6.16"/>
        </g>
    </g>
    <defs>
        <filter id="U" x="272.219" y="2.654" width="271.616" height="368.631" filterUnits="userSpaceOnUse"
                color-interpolation-filters="sRGB">
            <feFlood flood-opacity="0"/>
            <feGaussianBlur stdDeviation="5"/>
            <feComposite in2="SourceAlpha" operator="in" result="B"/>
            <feColorMatrix in="SourceAlpha" values="0 0 0 0 0 0 0 0 0 0 0 0 0 0 0 0 0 0 127 0"/>
            <feOffset dx="5" dy="5"/>
            <feGaussianBlur stdDeviation="8"/>
            <feColorMatrix values="0 0 0 0 0.239216 0 0 0 0 0.356863 0 0 0 0 0.6 0 0 0 0.1 0"/>
            <feBlend in2="B" result="D"/>
            <feColorMatrix in="SourceAlpha" values="0 0 0 0 0 0 0 0 0 0 0 0 0 0 0 0 0 0 127 0"/>
            <feOffset dx="20" dy="20"/>
            <feGaussianBlur stdDeviation="14"/>
            <feColorMatrix values="0 0 0 0 0.239216 0 0 0 0 0.356863 0 0 0 0 0.6 0 0 0 0.09 0"/>
            <feBlend in2="D" result="E"/>
            <feColorMatrix in="SourceAlpha" values="0 0 0 0 0 0 0 0 0 0 0 0 0 0 0 0 0 0 127 0"/>
            <feOffset dx="45" dy="45"/>
            <feGaussianBlur stdDeviation="19"/>
            <feColorMatrix values="0 0 0 0 0.239216 0 0 0 0 0.356863 0 0 0 0 0.6 0 0 0 0.05 0"/>
            <feBlend in2="E" result="F"/>
            <feColorMatrix in="SourceAlpha" values="0 0 0 0 0 0 0 0 0 0 0 0 0 0 0 0 0 0 127 0"/>
            <feOffset dx="80" dy="80"/>
            <feGaussianBlur stdDeviation="22.5"/>
            <feColorMatrix values="0 0 0 0 0.239216 0 0 0 0 0.356863 0 0 0 0 0.6 0 0 0 0.01 0"/>
            <feBlend in2="F"/>
            <feBlend in="SourceGraphic"/>
        </filter>
        <linearGradient id="V" x1="165.98" y1="166.076" x2="102.256" y2="293.863" xlink:href="#e">
            <stop stop-color="#ffffff"/>
            <stop offset="1" stop-color="#ffffff" stop-opacity=".25"/>
        </linearGradient>
        <linearGradient id="W" x1="166.894" y1="165.115" x2="101.128" y2="295.335" xlink:href="#e">
            <stop stop-color="#B4C4E4" stop-opacity=".1"/>
            <stop offset="1" stop-color="#B4C4E4"/>
        </linearGradient>
        <linearGradient id="X" x1="178.63" y1="63.736" x2="114.908" y2="191.527" xlink:href="#e">
            <stop stop-color="#ffffff"/>
            <stop offset="1" stop-color="#ffffff" stop-opacity=".25"/>
        </linearGradient>
        <linearGradient id="Y" x1="179.534" y1="62.775" x2="113.781" y2="192.986" xlink:href="#e">
            <stop stop-color="#B4C4E4" stop-opacity=".1"/>
            <stop offset="1" stop-color="#B4C4E4"/>
        </linearGradient>
        <linearGradient id="Z" x1="412.932" y1="15.584" x2="219.05" y2="124.75" xlink:href="#e">
            <stop stop-color="#ffffff"/>
            <stop offset="1" stop-color="#ffffff" stop-opacity=".25"/>
        </linearGradient>
        <linearGradient id="a" x1="327.117" y1=".215" x2="130.989" y2="111.282" xlink:href="#e">
            <stop stop-color="#B4C4E4" stop-opacity=".1"/>
            <stop offset="1" stop-color="#B4C4E4"/>
        </linearGradient>
        <linearGradient id="b" x1="275.302" y1="169.805" x2="259.403" y2="220.832" xlink:href="#e">
            <stop stop-color="#B4C4E4" stop-opacity=".1"/>
            <stop offset="1" stop-color="#B4C4E4"/>
        </linearGradient>
        <path id="c"
              d="M405.887 17.834l4.08 2.59c4.85 3.07 7.7 8.98 6.93 15.76l-4.08-2.59c.77-6.78-2.08-12.69-6.93-15.76z"/>
        <path id="d"
              d="M202.985 176.254h-4.02c-2.63 0-5.01 2.27-5.33 5.07l-.48 4.28c-.32 2.8 1.55 5.08 4.18 5.08h4.02c2.63 0 5.01-2.28 5.33-5.08l.48-4.28c.32-2.8-1.55-5.07-4.18-5.07z"/>
        <linearGradient id="e" gradientUnits="userSpaceOnUse"/>
    </defs>
</svg>