<svg xmlns:xlink="http://www.w3.org/1999/xlink" xmlns="http://www.w3.org/2000/svg" width="207" height="149" fill="none">
    <style><![CDATA[.B{fill:#fff}.C{fill:#B4C4E4}.D{fill-opacity:.75}.E{opacity:.75}.F{fill:#ffffff}]]></style>
    <mask id="A" maskUnits="userSpaceOnUse" x="0" y="72" width="65" height="35">
        <path d="M.415 106.239v-33.53l64.11-.6v34.73l-64.11-.6z" class="B"/>
    </mask>
    <g mask="url(#A)">
        <path d="M48.635 73.268l-33.16.29a13.04 13.04 0 0 0-5.55 1.3c-1.7.82-3.22 1.99-4.5 3.43a16.11 16.11 0 0 0-3.02 5.04c-.71 1.89-1.11 3.97-1.11 6.15s.39 4.26 1.11 6.15 1.75 3.6 3.02 5.04 2.81 2.61 4.5 3.43 3.58 1.28 5.55 1.3l33.16.29c2.05.02 4.01-.42 5.79-1.23s3.4-1.99 4.76-3.45a16.24 16.24 0 0 0 3.22-5.17c.76-1.95 1.18-4.1 1.18-6.35s-.42-4.41-1.18-6.36-1.86-3.7-3.22-5.17a14.82 14.82 0 0 0-4.76-3.46 13.8 13.8 0 0 0-5.79-1.23z"
              fill="url(#P)"/>
        <path d="M15.475 105.388a13.04 13.04 0 0 1-5.55-1.3c-1.7-.82-3.22-1.99-4.5-3.43s-2.31-3.15-3.02-5.04-1.11-3.97-1.11-6.15.39-4.26 1.11-6.15 1.75-3.6 3.02-5.04 2.81-2.61 4.5-3.43 3.58-1.28 5.55-1.3l33.16-.29c2.05-.02 4.01.42 5.79 1.23a14.93 14.93 0 0 1 4.76 3.46c1.36 1.47 2.46 3.22 3.22 5.17s1.18 4.1 1.18 6.36-.42 4.4-1.18 6.35a16.34 16.34 0 0 1-3.22 5.17c-1.36 1.47-2.97 2.65-4.76 3.45s-3.74 1.24-5.79 1.23l-33.16-.29zm33.16-33.13l-33.16.31a13.77 13.77 0 0 0-5.88 1.38c-1.8.87-3.42 2.11-4.78 3.65a17.04 17.04 0 0 0-3.21 5.36 18.68 18.68 0 0 0-1.19 6.52c0 2.31.42 4.51 1.18 6.52s1.86 3.82 3.21 5.35 2.98 2.78 4.78 3.65a13.77 13.77 0 0 0 5.88 1.38l33.16.31a14.46 14.46 0 0 0 6.14-1.3c1.89-.86 3.61-2.11 5.06-3.67a17.33 17.33 0 0 0 3.43-5.49c.81-2.07 1.26-4.35 1.26-6.75s-.45-4.68-1.26-6.75-1.98-3.94-3.43-5.5-3.16-2.81-5.06-3.67a14.49 14.49 0 0 0-6.14-1.3"
              fill="url(#Q)" class="D"/>
    </g>
    <mask id="B" maskUnits="userSpaceOnUse" x="0" y="32" width="65" height="35">
        <path d="M.415 66.339v-33.53l64.11-.61v34.74l-64.11-.6z" class="B"/>
    </mask>
    <g mask="url(#B)">
        <path d="M48.635 33.358l-33.16.29a13.04 13.04 0 0 0-5.55 1.3c-1.7.82-3.22 1.99-4.5 3.43a16.11 16.11 0 0 0-3.02 5.04c-.71 1.89-1.11 3.97-1.11 6.15s.39 4.26 1.11 6.15 1.75 3.6 3.02 5.04 2.81 2.61 4.5 3.43 3.58 1.28 5.55 1.3l33.16.29c2.05.02 4.01-.42 5.79-1.23a14.93 14.93 0 0 0 4.76-3.46c1.36-1.47 2.46-3.22 3.22-5.17s1.18-4.1 1.18-6.36-.42-4.41-1.18-6.36-1.86-3.7-3.22-5.17a14.82 14.82 0 0 0-4.76-3.46 13.8 13.8 0 0 0-5.79-1.23"
              fill="url(#R)"/>
        <path d="M15.475 65.488a13.04 13.04 0 0 1-5.55-1.3c-1.7-.82-3.22-1.99-4.5-3.43a16.11 16.11 0 0 1-3.02-5.04c-.71-1.89-1.11-3.97-1.11-6.15s.39-4.26 1.11-6.15 1.75-3.6 3.02-5.04 2.81-2.61 4.5-3.43 3.58-1.28 5.55-1.3l33.16-.29c2.05-.02 4.01.42 5.79 1.23a14.93 14.93 0 0 1 4.76 3.46c1.36 1.47 2.46 3.22 3.22 5.17s1.18 4.1 1.18 6.36-.42 4.41-1.18 6.36-1.86 3.7-3.22 5.17a14.82 14.82 0 0 1-4.76 3.46 13.8 13.8 0 0 1-5.79 1.23l-33.16-.29m33.16-33.16l-33.16.31a13.77 13.77 0 0 0-5.88 1.38c-1.8.87-3.42 2.12-4.78 3.65a17.04 17.04 0 0 0-3.21 5.36c-.75 2.01-1.19 4.21-1.19 6.52s.42 4.51 1.18 6.52 1.86 3.83 3.21 5.36 2.98 2.78 4.78 3.65a13.77 13.77 0 0 0 5.88 1.38l33.16.31a14.46 14.46 0 0 0 6.14-1.3c1.89-.86 3.61-2.12 5.06-3.67s2.62-3.42 3.43-5.5 1.26-4.36 1.26-6.75-.45-4.67-1.26-6.75-1.98-3.94-3.43-5.5-3.16-2.81-5.06-3.67a14.49 14.49 0 0 0-6.14-1.3"
              fill="url(#S)" class="D"/>
    </g>
    <g filter="url(#O)">
        <mask id="C" maskUnits="userSpaceOnUse" x="147" y="28" width="3" height="1">
            <path d="M148.215 28.29l.82.1c-.07 0-.15-.02-.22-.02s-.15-.01-.22-.01h-.23-.23l-.82-.1h.23.23l.22.01c.07.01.15.01.22.02z"
                  class="B"/>
        </mask>
        <g mask="url(#C)" class="C">
            <path d="M148.215 28.29l.82.1c-.07 0-.15-.02-.22-.02s-.15-.01-.22-.01h-.23-.23l-.82-.1h.23.23l.22.01c.07.01.15.01.22.02z"/>
        </g>
        <mask id="D" maskUnits="userSpaceOnUse" x="147" y="120" width="3" height="1">
            <path d="M149.045 120.109l-.82.1c-.07 0-.15.02-.22.02l-.22.01h-.23-.23l.82-.1h.23.23l.22-.01c.07-.01.15-.01.22-.02z"
                  class="B"/>
        </mask>
        <g mask="url(#D)" class="C">
            <path d="M147.325 120.249l.82-.1h.23.23l.22-.01c.07-.01.15-.01.22-.02l-.82.1c-.07 0-.15.02-.22.02l-.22.01h-.23-.23z"/>
        </g>
        <mask id="E" maskUnits="userSpaceOnUse" x="148" y="112" width="7" height="9">
            <path d="M149.045 120.109l-.82.1c.82-.1 1.59-.36 2.29-.76s1.32-.93 1.85-1.56.94-1.37 1.23-2.19.45-1.7.45-2.64l.81-.08c0 .93-.16 1.82-.45 2.63s-.71 1.55-1.23 2.18a6.7 6.7 0 0 1-1.84 1.56c-.7.4-1.47.66-2.29.76z"
                  class="B"/>
        </mask>
        <g mask="url(#E)" class="F">
            <path d="M154.035 113.068l.81-.08c0 .93-.16 1.82-.45 2.63s-.71 1.55-1.23 2.18a6.7 6.7 0 0 1-1.84 1.56c-.7.4-1.47.66-2.29.76l-.82.1c.82-.1 1.59-.36 2.29-.76s1.32-.93 1.85-1.56.94-1.37 1.23-2.19.45-1.7.45-2.64z"/>
        </g>
        <path d="M154.035 35.44l.81.08v77.459l-.81.09V35.44z" class="F"/>
        <mask id="F" maskUnits="userSpaceOnUse" x="148" y="28" width="7" height="8">
            <path d="M148.215 28.289l.82.1c.82.1 1.59.36 2.29.76a6.7 6.7 0 0 1 1.84 1.56c.52.63.94 1.37 1.23 2.18s.45 1.7.45 2.63l-.81-.08c0-.93-.16-1.82-.45-2.63s-.71-1.55-1.23-2.19-1.15-1.17-1.85-1.56-1.47-.66-2.29-.76v-.01z"
                  class="B"/>
        </mask>
        <g mask="url(#F)" class="F">
            <path d="M148.215 28.289l.82.1c.82.1 1.59.36 2.29.76a6.7 6.7 0 0 1 1.84 1.56c.52.63.94 1.37 1.23 2.18s.45 1.7.45 2.63l-.81-.08c0-.93-.16-1.82-.45-2.63s-.71-1.55-1.23-2.19-1.15-1.17-1.85-1.56-1.47-.66-2.29-.76"/>
        </g>
        <path d="M147.325 28.25c.93-.02 1.81.16 2.61.51s1.53.87 2.14 1.52 1.1 1.43 1.44 2.3.53 1.84.53 2.85v77.63a7.81 7.81 0 0 1-.53 2.85c-.34.87-.83 1.65-1.44 2.3a6.44 6.44 0 0 1-2.14 1.52c-.81.35-1.69.53-2.61.51l-28.18-.71c-.89-.02-1.75-.25-2.52-.63s-1.47-.93-2.05-1.59-1.06-1.45-1.38-2.32-.51-1.82-.51-2.81V36.31c0-.99.18-1.94.51-2.81a7.72 7.72 0 0 1 1.38-2.32c.58-.67 1.28-1.21 2.05-1.59s1.63-.61 2.52-.63l28.18-.71z"
              fill="url(#T)"/>
        <mask id="G" maskUnits="userSpaceOnUse" x="148" y="113" width="8" height="9">
            <path d="M149.175 121.11l-.82.1a7.08 7.08 0 0 0 2.6-.87c.79-.45 1.5-1.06 2.1-1.78s1.07-1.56 1.4-2.49.51-1.93.51-2.99l.81-.08c0 1.06-.18 2.06-.51 2.98a8.17 8.17 0 0 1-1.4 2.48c-.6.72-1.3 1.32-2.09 1.77a7.09 7.09 0 0 1-2.59.87l-.01.01z"
                  class="B"/>
        </mask>
        <g mask="url(#G)" class="C">
            <path d="M154.965 113.09l.81-.08c0 1.06-.18 2.06-.51 2.98a8.17 8.17 0 0 1-1.4 2.48c-.6.72-1.3 1.32-2.09 1.77a7.09 7.09 0 0 1-2.59.87l-.82.1a7.08 7.08 0 0 0 2.6-.87c.79-.45 1.5-1.06 2.1-1.78s1.07-1.56 1.4-2.49.51-1.93.51-2.99"/>
        </g>
        <path d="M154.965 35.42l.81.08V113l-.81.09V35.42z" class="C"/>
        <mask id="H" maskUnits="userSpaceOnUse" x="148" y="27" width="8" height="9">
            <path d="M148.355 27.289l.82.1a6.68 6.68 0 0 1 2.59.87c.79.46 1.5 1.05 2.09 1.77s1.07 1.56 1.4 2.48.51 1.93.51 2.98l-.81-.08c0-1.06-.18-2.07-.51-2.99s-.81-1.76-1.4-2.49-1.3-1.33-2.1-1.78a7.14 7.14 0 0 0-2.6-.87l.01.01z"
                  class="B"/>
        </mask>
        <g mask="url(#H)" class="C">
            <path d="M148.355 27.289l.82.1a6.68 6.68 0 0 1 2.59.87c.79.46 1.5 1.05 2.09 1.77s1.07 1.56 1.4 2.48.51 1.93.51 2.98l-.81-.08c0-1.06-.18-2.07-.51-2.99s-.81-1.76-1.4-2.49-1.3-1.33-2.1-1.78a7.14 7.14 0 0 0-2.6-.87"/>
        </g>
        <path d="M147.325 27.239c1.05-.03 2.05.18 2.97.58s1.74.99 2.43 1.73 1.26 1.63 1.64 2.62a9.06 9.06 0 0 1 .6 3.24v77.67a9.06 9.06 0 0 1-.6 3.24c-.38.99-.95 1.88-1.64 2.62s-1.52 1.33-2.43 1.73-1.92.61-2.97.58l-28.18-.73a6.84 6.84 0 0 1-2.87-.72c-.88-.44-1.67-1.06-2.33-1.81s-1.2-1.65-1.57-2.64a9.12 9.12 0 0 1-.58-3.19v-75.83c0-1.13.21-2.21.58-3.19a8.76 8.76 0 0 1 1.57-2.64c.66-.76 1.46-1.38 2.33-1.81s1.85-.69 2.87-.72l28.18-.73zm6.72 85.82v-77.62a7.85 7.85 0 0 0-.53-2.85c-.34-.87-.83-1.65-1.44-2.3a6.44 6.44 0 0 0-2.14-1.52c-.81-.35-1.69-.53-2.61-.51l-28.18.71c-.89.02-1.75.25-2.52.63s-1.47.93-2.05 1.59-1.06 1.45-1.38 2.32-.51 1.82-.51 2.81v75.88c0 .99.18 1.94.51 2.81a7.72 7.72 0 0 0 1.38 2.32c.58.67 1.28 1.21 2.05 1.59s1.63.61 2.52.63l28.18.71c.93.02 1.81-.16 2.61-.51s1.53-.87 2.14-1.52 1.1-1.43 1.44-2.3a7.85 7.85 0 0 0 .53-2.85"
              class="C"/>
    </g>
    <g opacity=".9">
        <mask id="I" maskUnits="userSpaceOnUse" x="81" y="18" width="43" height="95">
            <path d="M81.235 111.179v-91.24l42.28-1.08v93.39l-42.28-1.07z" class="B"/>
        </mask>
        <g mask="url(#I)">
            <path d="M97.005 26.629c-.17 0-.35-.03-.53-.09s-.34-.16-.49-.27a1.78 1.78 0 0 1-.4-.42c-.11-.16-.19-.33-.24-.52-.04-.17-.06-.35-.06-.51s.02-.33.06-.49.09-.3.17-.44.16-.27.26-.38c.07-.08.16-.16.25-.23s.18-.13.28-.18.2-.09.31-.11l.33-.05 10.33-.24a1.68 1.68 0 0 1 .5.07c.16.05.32.12.46.21a1.75 1.75 0 0 1 .38.34c.11.13.2.29.26.46.07.19.11.38.13.57a1.99 1.99 0 0 1-.03.55c-.03.17-.09.35-.17.51s-.17.3-.29.43c-.08.09-.16.16-.25.23a1.75 1.75 0 0 1-.29.18 1.28 1.28 0 0 1-.31.11 1.76 1.76 0 0 1-.34.04l-10.33.22m19.34-7.08l-28.2.71c-.9.02-1.75.25-2.52.63s-1.47.93-2.05 1.59-1.06 1.45-1.38 2.32-.51 1.82-.51 2.81v75.9c0 .99.18 1.94.51 2.81a7.72 7.72 0 0 0 1.38 2.32c.58.67 1.28 1.21 2.05 1.59s1.63.61 2.52.63l28.2.71c.92.02 1.81-.16 2.61-.51s1.53-.87 2.14-1.52 1.1-1.43 1.44-2.3a7.85 7.85 0 0 0 .53-2.85v-77.65a7.81 7.81 0 0 0-.53-2.85c-.34-.87-.83-1.65-1.44-2.3a6.44 6.44 0 0 0-2.14-1.52c-.81-.35-1.68-.53-2.61-.51"
                  fill="url(#U)"/>
            <path d="M97.005 26.119c-.13 0-.26-.02-.39-.07a1.9 1.9 0 0 1-.37-.2c-.12-.08-.21-.19-.29-.3s-.14-.23-.17-.36c-.03-.12-.04-.24-.04-.36s.01-.24.04-.35.07-.23.12-.33a1.81 1.81 0 0 1 .19-.29 1.07 1.07 0 0 1 .19-.18c.07-.05.14-.1.21-.13s.15-.06.23-.08.16-.03.24-.03l10.33-.24c.13 0 .26.01.38.05s.24.09.34.16.2.15.27.25.14.21.19.33a1.59 1.59 0 0 1 .1.46c.01.15 0 .29-.04.41l-.13.36c-.05.11-.12.2-.19.28a1.07 1.07 0 0 1-.19.18c-.07.05-.14.09-.21.13s-.15.06-.23.08-.16.03-.24.03l-10.33.23m10.28-3.43l-10.33.24c-.11 0-.22.02-.33.05s-.21.07-.31.11-.19.11-.28.18-.17.15-.25.23a1.7 1.7 0 0 0-.26.38c-.07.14-.13.29-.17.44s-.06.32-.06.49a2.22 2.22 0 0 0 .06.51 1.45 1.45 0 0 0 .24.52 1.77 1.77 0 0 0 .4.42c.16.12.32.21.49.27s.35.1.53.09l10.33-.22a1.97 1.97 0 0 0 .34-.04c.11-.02.21-.07.31-.11s.2-.11.29-.18.18-.15.25-.23a2.16 2.16 0 0 0 .29-.43 1.8 1.8 0 0 0 .17-.51c.03-.18.05-.36.03-.55s-.06-.38-.13-.57a2.04 2.04 0 0 0-.26-.46c-.1-.13-.24-.25-.38-.34s-.29-.16-.46-.21-.33-.07-.5-.07m-19.15 88.161c-.9-.02-1.75-.25-2.52-.63s-1.47-.93-2.05-1.59-1.06-1.45-1.38-2.32-.51-1.82-.51-2.81v-75.93c0-.99.18-1.94.51-2.81a7.72 7.72 0 0 1 1.38-2.32c.58-.67 1.28-1.21 2.05-1.59s1.63-.61 2.52-.63l28.2-.71c.92-.02 1.81.16 2.61.51s1.53.87 2.14 1.52 1.1 1.43 1.44 2.3a7.85 7.85 0 0 1 .53 2.85v77.651a7.81 7.81 0 0 1-.53 2.85c-.34.87-.83 1.65-1.44 2.3a6.44 6.44 0 0 1-2.14 1.52c-.81.35-1.68.53-2.61.51l-28.2-.71m28.18-91.81l-28.2.72c-.96.02-1.86.26-2.69.67s-1.57.99-2.19 1.7a8.13 8.13 0 0 0-1.48 2.48c-.35.93-.54 1.94-.54 3v75.881c0 1.06.19 2.07.54 3s.85 1.77 1.48 2.48 1.37 1.29 2.19 1.7 1.74.65 2.69.67l28.2.72c.99.03 1.93-.17 2.79-.55a6.92 6.92 0 0 0 2.28-1.63 7.7 7.7 0 0 0 1.54-2.46 8.44 8.44 0 0 0 .57-3.05v-77.65a8.22 8.22 0 0 0-.57-3.04c-.37-.93-.89-1.77-1.54-2.46s-1.42-1.25-2.28-1.63-1.8-.57-2.79-.55z"
                  fill="url(#V)" class="D"/>
        </g>
    </g>
    <g opacity=".5">
        <mask id="J" maskUnits="userSpaceOnUse" x="69" y="86" width="36" height="13">
            <path d="M69.175 98.169l.2-11.38 34.85.5-.2 11.6-34.85-.72z" class="B"/>
        </mask>
        <g mask="url(#J)">
            <path d="M100.495 87.74l-27.53-.4a2.98 2.98 0 0 0-1.23.26 3.07 3.07 0 0 0-1.02.74c-.29.32-.53.69-.7 1.11a3.83 3.83 0 0 0-.27 1.36l-.06 3.37a4.1 4.1 0 0 0 .22 1.37 3.54 3.54 0 0 0 .66 1.13c.28.32.62.59.99.77s.79.29 1.22.3l27.53.56c.45 0 .88-.08 1.27-.26a3.37 3.37 0 0 0 1.05-.75c.3-.32.55-.7.72-1.12a3.91 3.91 0 0 0 .28-1.39l.06-3.43c0-.5-.08-.97-.23-1.4s-.39-.82-.68-1.15-.64-.59-1.03-.78-.81-.29-1.26-.3"
                  fill="url(#W)"/>
            <path d="M72.785 97.749c-.44 0-.85-.12-1.22-.3s-.71-.45-.99-.77a3.54 3.54 0 0 1-.66-1.13 3.86 3.86 0 0 1-.22-1.37l.06-3.37c0-.49.11-.95.27-1.36s.41-.79.7-1.11a3.07 3.07 0 0 1 1.02-.74c.38-.17.8-.26 1.23-.26l27.53.4a2.82 2.82 0 0 1 1.26.3c.38.19.74.45 1.03.78s.52.72.68 1.15.24.9.23 1.4l-.06 3.43c0 .49-.11.96-.28 1.39s-.42.81-.72 1.12a3.54 3.54 0 0 1-1.05.75c-.39.18-.82.27-1.27.26l-27.53-.56m27.72-10.51l-27.53-.39a3.52 3.52 0 0 0-1.41.29 3.42 3.42 0 0 0-1.16.84c-.33.36-.6.78-.79 1.26s-.3 1-.31 1.55l-.06 3.37c0 .55.08 1.08.26 1.56s.43.92.75 1.29.7.67 1.13.88.9.33 1.39.34l27.52.57a3.39 3.39 0 0 0 1.45-.29 3.75 3.75 0 0 0 1.2-.85 4.25 4.25 0 0 0 .82-1.28c.2-.48.31-1.02.32-1.58l.06-3.43c0-.56-.09-1.1-.27-1.59a4.22 4.22 0 0 0-.78-1.31c-.33-.38-.73-.68-1.17-.89a3.5 3.5 0 0 0-1.44-.34"
                  fill="url(#X)" class="D"/>
        </g>
    </g>
    <g opacity=".3">
        <mask id="K" maskUnits="userSpaceOnUse" x="69" y="36" width="35" height="39">
            <path d="M69.715 73.989v-37.11l33.96-.35v37.81l-33.96-.35z" class="B"/>
        </mask>
        <g mask="url(#K)" class="C">
            <path d="M97.495 36.59l-21.8.23c-.83 0-1.62.2-2.33.55a6.33 6.33 0 0 0-1.9 1.44c-.54.6-.98 1.32-1.28 2.12a7.35 7.35 0 0 0-.47 2.59v23.84a7.35 7.35 0 0 0 .47 2.59c.3.8.74 1.52 1.28 2.12s1.19 1.1 1.9 1.44 1.5.54 2.33.55l21.8.23c.85 0 1.66-.17 2.4-.51a6.11 6.11 0 0 0 1.96-1.43 6.69 6.69 0 0 0 1.32-2.14 7.32 7.32 0 0 0 .49-2.63V43.29a7.15 7.15 0 0 0-.49-2.63 7.06 7.06 0 0 0-1.32-2.14c-.55-.61-1.22-1.09-1.96-1.43s-1.55-.51-2.4-.51"/>
        </g>
    </g>
    <mask id="L" maskUnits="userSpaceOnUse" x="73" y="89" width="27" height="7">
        <path d="M73.285 95.44l.1-5.77 26.59.42-.11 5.85-26.58-.5z" class="B"/>
    </mask>
    <g mask="url(#L)" class="C">
        <path opacity=".3"
              d="M76.765 89.719l-1.55-.02c-.25 0-.49.05-.71.15s-.42.24-.59.42-.31.4-.4.64-.15.51-.16.79l-.03 1.72c0 .28.04.55.13.79a2.1 2.1 0 0 0 .38.65 1.86 1.86 0 0 0 .57.44c.21.1.46.17.71.17l1.55.03c.25 0 .5-.05.72-.15s.42-.24.59-.42.31-.4.41-.64a2.27 2.27 0 0 0 .16-.79l.03-1.72c0-.28-.04-.55-.13-.8a1.99 1.99 0 0 0-.38-.65c-.16-.18-.36-.34-.58-.44s-.46-.17-.71-.17m7.04.11l-1.56-.02c-.25 0-.5.05-.72.15s-.42.24-.59.43-.31.4-.41.64a2.27 2.27 0 0 0-.16.79l-.03 1.72c0 .28.04.55.13.8a1.99 1.99 0 0 0 .38.65 1.97 1.97 0 0 0 .58.45 1.58 1.58 0 0 0 .71.17l1.56.03a1.72 1.72 0 0 0 .72-.15c.22-.1.43-.24.6-.42s.31-.4.41-.64a2.27 2.27 0 0 0 .16-.79l.03-1.73c0-.28-.04-.55-.13-.8a1.99 1.99 0 0 0-.39-.66 1.93 1.93 0 0 0-.58-.45 1.59 1.59 0 0 0-.72-.17m7.12.111l-1.57-.02a1.8 1.8 0 0 0-.73.15c-.23.1-.43.25-.6.43s-.31.4-.41.64a2.28 2.28 0 0 0-.16.8l-.03 1.73c0 .28.04.55.13.8a2.15 2.15 0 0 0 .38.66c.16.19.36.34.58.45a1.59 1.59 0 0 0 .72.17l1.57.03c.26 0 .51-.05.73-.15s.43-.24.6-.43.31-.4.41-.64.16-.51.16-.8l.03-1.73c0-.28-.04-.56-.13-.8s-.22-.47-.39-.66-.36-.34-.59-.45-.47-.17-.73-.17m7.2.109l-1.58-.03c-.26 0-.51.05-.73.15s-.43.25-.6.43-.31.4-.41.65-.16.51-.16.8l-.03 1.74c0 .28.04.56.13.8s.22.47.39.66.36.34.59.45.47.17.73.17l1.58.03c.26 0 .51-.05.74-.15s.43-.25.6-.43.31-.4.41-.65.16-.52.16-.8l.03-1.74c0-.29-.04-.56-.13-.81a1.99 1.99 0 0 0-.39-.66 1.97 1.97 0 0 0-.59-.45c-.22-.11-.47-.17-.73-.17"/>
    </g>
    <mask id="M" maskUnits="userSpaceOnUse" x="13" y="41" width="38" height="17">
        <path d="M13.965 57.289v-15.44l36.23-.15v15.75l-36.23-.16z" class="B"/>
    </mask>
    <g mask="url(#M)">
        <path d="M25.105 48.978h-4.25l-3.71 4.11 3.71 4.14 4.25.02-3.72-4.14 3.72-4.13zm-4.26-7.07l-6.88 7.66 2.11 2.36 9.01-10.02-4.24.02"
              fill="#02569b" class="E"/>
        <path d="M41.945 56.759l-2.92-3.22a1.18 1.18 0 0 1-.17-.24 1.17 1.17 0 0 1-.09-.24c-.02-.08-.03-.16-.03-.25v-.26-7.69l8.31 9.12v2.8l-5.09-.02m-2.3-12.34l3.46-1.91s.02 0 .05-.02a.4.4 0 0 1 .13-.04l.17-.04a1.1 1.1 0 0 1 .18-.02c.07 0 .14 0 .2.02l.16.06c.05.02.1.06.14.09a1.42 1.42 0 0 1 .13.12l.41.43.41.43.41.43.41.43-6.26.02zm3.97-2.7l-.21.01c-.07.01-.14.02-.2.04l-.2.07-.19.09-1.34.74-1.48.82-1.2.66-.49.27-2.25 5.15-.06.16-.06.19c-.02.06-.03.13-.04.19l-.02.17c0 .11.01.23.03.34s.05.22.09.33a1.4 1.4 0 0 0 .15.3c.06.09.12.19.2.27l5.34 5.88 5.94.03v-2.8h2.56v-6.41l-5.48-5.99s-.03-.03-.09-.08a1.91 1.91 0 0 0-.24-.17c-.1-.06-.21-.13-.32-.17s-.23-.08-.35-.09h-.02-.06"
              fill="#0175c2" class="E"/>
    </g>
    <mask id="N" maskUnits="userSpaceOnUse" x="13" y="81" width="38" height="17">
        <path d="M13.995 97.199v-15.44l36.18-.15v15.74l-36.18-.15z" class="B"/>
    </mask>
    <g mask="url(#N)">
        <path d="M17.745 91.178c-.08 0-.16-.02-.23-.05s-.13-.08-.19-.14-.1-.13-.13-.2-.05-.16-.05-.25.02-.17.05-.25.07-.15.13-.2.12-.1.19-.14.15-.05.23-.05.15.02.22.05a.49.49 0 0 1 .18.14c.05.06.1.13.13.2s.05.16.05.25-.02.17-.05.25-.07.15-.13.2l-.18.14c-.06.04-.14.05-.22.05zm6.42 0c-.08 0-.16-.02-.23-.05a.49.49 0 0 1-.18-.14.55.55 0 0 1-.12-.21c-.02-.08-.05-.16-.05-.25s.02-.17.05-.25a.56.56 0 0 1 .12-.2c.05-.05.12-.11.18-.14s.15-.05.23-.05.16.02.23.05.13.08.19.14.1.13.12.21.05.16.05.25-.02.17-.05.25a.56.56 0 0 1-.12.2.67.67 0 0 1-.19.14c-.07.03-.15.05-.23.05zm1.1-6.53l-.15.13-1.18 2.27-.7-.3-.73-.22c-.25-.06-.51-.11-.77-.14s-.53-.05-.8-.05-.54.02-.8.05-.52.08-.76.14a6.83 6.83 0 0 0-.73.23c-.24.09-.47.19-.69.3l-1.17-2.26-.14-.12-.18.03-.11.16.02.21 1.16 2.22c-.5.3-.96.67-1.37 1.09s-.77.9-1.08 1.42-.56 1.08-.74 1.68-.31 1.23-.36 1.89l13.96.03c-.05-.66-.17-1.3-.36-1.91s-.44-1.17-.75-1.7-.68-1-1.09-1.42-.87-.79-1.37-1.09l1.17-2.23.02-.21-.11-.16-.19-.03"
              fill="#34a853" class="E"/>
        <path d="M46.945 85.409c-.27 0-.54.05-.78.11s-.48.16-.7.25l-.59.25c-.18.07-.33.11-.46.11-.14 0-.3-.04-.47-.11l-.56-.23-.63-.23c-.22-.06-.44-.11-.67-.1-.3 0-.6.06-.88.15s-.56.23-.81.4-.49.38-.7.62a3.85 3.85 0 0 0-.55.81c-.31.6-.49 1.27-.56 1.97a8.55 8.55 0 0 0 .08 2.14c.11.71.31 1.42.55 2.06s.53 1.23.84 1.72l.46.7a4.68 4.68 0 0 0 .52.64c.19.19.37.35.58.47s.42.18.65.18h.02.02a2.13 2.13 0 0 0 .59-.12c.18-.06.34-.14.5-.22a3.38 3.38 0 0 1 .54-.21c.2-.06.43-.09.71-.09a2.17 2.17 0 0 1 .68.1c.19.06.36.14.53.21s.32.16.5.21.37.1.6.1h.03c.26 0 .48-.07.69-.17s.4-.26.57-.44a6.27 6.27 0 0 0 .5-.61l.46-.7.44-.81.31-.7.18-.51.07-.22s-.13-.05-.31-.17-.42-.29-.66-.54-.48-.57-.66-.98-.3-.91-.31-1.5c0-.5.09-.93.23-1.3a3.47 3.47 0 0 1 .52-.92c.19-.24.39-.43.54-.56a1.95 1.95 0 0 1 .28-.21c-.21-.34-.46-.61-.71-.82s-.51-.36-.76-.46-.48-.17-.68-.21-.37-.05-.48-.06h-.06-.06-.06-.05m.23-3.79c-.18 0-.37.04-.56.11s-.38.15-.57.25-.37.23-.53.37-.32.3-.45.46c-.12.15-.23.31-.33.5a5.46 5.46 0 0 0-.27.6c-.08.21-.13.43-.16.66s-.04.45 0 .68h.03.03.03.03c.19 0 .38-.03.56-.09s.37-.14.54-.24.34-.22.49-.36.29-.28.41-.44c.13-.17.24-.35.34-.54a3.09 3.09 0 0 0 .25-.62c.06-.22.12-.44.14-.66s.03-.46 0-.69"
              class="E" fill="#000000"/>
    </g>
    <defs>
        <filter id="O" x="106.795" y=".236" width="143.98" height="148.016" filterUnits="userSpaceOnUse"
                color-interpolation-filters="sRGB">
            <feFlood flood-opacity="0" result="A"/>
            <feColorMatrix in="SourceAlpha" values="0 0 0 0 0 0 0 0 0 0 0 0 0 0 0 0 0 0 127 0"/>
            <feOffset dx="4"/>
            <feGaussianBlur stdDeviation="4.5"/>
            <feColorMatrix values="0 0 0 0 0.258824 0 0 0 0 0.392157 0 0 0 0 0.658824 0 0 0 0.1 0"/>
            <feBlend in2="A" result="C"/>
            <feColorMatrix in="SourceAlpha" values="0 0 0 0 0 0 0 0 0 0 0 0 0 0 0 0 0 0 127 0"/>
            <feOffset dx="17"/>
            <feGaussianBlur stdDeviation="8.5"/>
            <feColorMatrix values="0 0 0 0 0.258824 0 0 0 0 0.392157 0 0 0 0 0.658824 0 0 0 0.09 0"/>
            <feBlend in2="C" result="D"/>
            <feColorMatrix in="SourceAlpha" values="0 0 0 0 0 0 0 0 0 0 0 0 0 0 0 0 0 0 127 0"/>
            <feOffset dx="38"/>
            <feGaussianBlur stdDeviation="11.5"/>
            <feColorMatrix values="0 0 0 0 0.258824 0 0 0 0 0.392157 0 0 0 0 0.658824 0 0 0 0.05 0"/>
            <feBlend in2="D" result="E"/>
            <feColorMatrix in="SourceAlpha" values="0 0 0 0 0 0 0 0 0 0 0 0 0 0 0 0 0 0 127 0"/>
            <feOffset dx="68"/>
            <feGaussianBlur stdDeviation="13.5"/>
            <feColorMatrix values="0 0 0 0 0.258824 0 0 0 0 0.392157 0 0 0 0 0.658824 0 0 0 0.01 0"/>
            <feBlend in2="E"/>
            <feBlend in="SourceGraphic"/>
        </filter>
        <linearGradient id="P" x1="63.585" y1="73.268" x2="36.898" y2="124.325" xlink:href="#Y">
            <stop stop-color="#ffffff"/>
            <stop offset="1" stop-color="#ffffff" stop-opacity=".25"/>
        </linearGradient>
        <linearGradient id="Q" x1="64.515" y1="72.258" x2="35.668" y2="125.735" xlink:href="#Y">
            <stop stop-color="#B4C4E4" stop-opacity=".1"/>
            <stop offset="1" stop-color="#B4C4E4"/>
        </linearGradient>
        <linearGradient id="R" x1="63.585" y1="33.338" x2="36.872" y2="84.413" xlink:href="#Y">
            <stop stop-color="#ffffff"/>
            <stop offset="1" stop-color="#ffffff" stop-opacity=".25"/>
        </linearGradient>
        <linearGradient id="S" x1="64.515" y1="32.348" x2="35.655" y2="85.833" xlink:href="#Y">
            <stop stop-color="#B4C4E4" stop-opacity=".1"/>
            <stop offset="1" stop-color="#B4C4E4"/>
        </linearGradient>
        <linearGradient id="T" x1="154.045" y1="28.248" x2="85.253" y2="59.047" xlink:href="#Y">
            <stop stop-color="#ffffff"/>
            <stop offset="1" stop-color="#ffffff" stop-opacity=".25"/>
        </linearGradient>
        <linearGradient id="U" x1="123.055" y1="19.539" x2="54.234" y2="50.356" xlink:href="#Y">
            <stop stop-color="#ffffff"/>
            <stop offset="1" stop-color="#ffffff" stop-opacity=".25"/>
        </linearGradient>
        <linearGradient id="V" x1="123.515" y1="19.037" x2="53.449" y2="50.748" xlink:href="#Y">
            <stop stop-color="#B4C4E4" stop-opacity=".1"/>
            <stop offset="1" stop-color="#B4C4E4"/>
        </linearGradient>
        <linearGradient id="W" x1="103.685" y1="87.34" x2="97.235" y2="107.246" xlink:href="#Y">
            <stop stop-color="#ffffff"/>
            <stop offset="1" stop-color="#ffffff" stop-opacity=".25"/>
        </linearGradient>
        <linearGradient id="X" x1="104.155" y1="86.859" x2="96.786" y2="108.288" xlink:href="#Y">
            <stop stop-color="#B4C4E4" stop-opacity=".1"/>
            <stop offset="1" stop-color="#B4C4E4"/>
        </linearGradient>
        <linearGradient id="Y" gradientUnits="userSpaceOnUse"/>
    </defs>
</svg>