<svg xmlns:xlink="http://www.w3.org/1999/xlink" xmlns="http://www.w3.org/2000/svg" width="568" height="370" fill="none">
    <style>
        <![CDATA[.B{fill:#4264a8}.C{fill:#fff}.D{fill:#000714}.E{stroke:#4264a8}.F{stroke-miterlimit:10}.G{fill-opacity:.15}.H{fill-opacity:.9}.I{color-interpolation-filters:sRGB}]]></style>
    <g filter="url(#k)">
        <mask id="A" maskUnits="userSpaceOnUse" x="394" y="42" width="25" height="24">
            <path d="M394.415 43.139l.82-.52c11.62 0 22.17 10.04 23.58 22.42l-.82.52c-1.4-12.38-11.95-22.42-23.58-22.42z"
                  class="C"/>
        </mask>
        <g mask="url(#A)" class="B">
            <path d="M394.415 43.139l.82-.52c4.18 0 8.23 1.3 11.76 3.54l-.82.52c-3.53-2.24-7.57-3.54-11.76-3.54z"/>
            <path d="M406.175 46.678l.82-.52c1.33.85 2.59 1.83 3.76 2.92l-.82.52a24.95 24.95 0 0 0-3.76-2.92z"/>
            <path d="M409.935 49.61l.82-.52a26.25 26.25 0 0 1 2.87 3.18l-.82.52a26.33 26.33 0 0 0-2.87-3.18z"/>
            <path d="M412.805 52.79l.82-.52a26.55 26.55 0 0 1 2.4 3.75l-.82.52a26.55 26.55 0 0 0-2.4-3.75z"/>
            <path d="M415.205 56.549l.82-.52c.88 1.66 1.58 3.44 2.08 5.28l-.82.52c-.5-1.85-1.2-3.62-2.08-5.28z"/>
            <path d="M417.285 61.829l.82-.52c.33 1.21.57 2.46.71 3.73l-.82.52c-.14-1.27-.38-2.52-.71-3.73z"/>
        </g>
        <path d="M417.995 65.559l.81-.52 18.04 159.28-.81.52-18.04-159.28z" class="B"/>
        <mask id="B" maskUnits="userSpaceOnUse" x="427" y="224" width="11" height="21">
            <path d="M428.235 243.93l-.82.52c6.03-3.82 9.57-11.17 8.62-19.61l.82-.52c.96 8.44-2.58 15.78-8.62 19.61z"
                  class="C"/>
        </mask>
        <g mask="url(#B)" class="B">
            <path d="M436.035 224.84l.82-.52c.37 3.28.06 6.4-.81 9.21l-.82.52c.87-2.81 1.18-5.93.81-9.21z"/>
            <path d="M435.225 234.061l.82-.52a19.78 19.78 0 0 1-2.19 4.75l-.82.52a19.78 19.78 0 0 0 2.19-4.75z"/>
            <path d="M433.035 238.811l.82-.52c-.72 1.13-1.55 2.18-2.48 3.12l-.82.52c.93-.94 1.76-1.98 2.48-3.12z"/>
            <path d="M430.555 241.92l.82-.52c-.89.9-1.86 1.7-2.92 2.39l-.82.52a18.04 18.04 0 0 0 2.92-2.39z"/>
            <path d="M427.635 244.311l.82-.52c-.07.05-.15.09-.22.14l-.82.52c.07-.05.15-.09.22-.14z"/>
        </g>
        <mask id="C" maskUnits="userSpaceOnUse" x="417" y="243" width="12" height="5">
            <path d="M418.345 246.73c3.7 0 7.06-1.02 9.88-2.8l-.82.52c-2.82 1.79-6.18 2.8-9.88 2.8.24-.16.57-.36.82-.52z"
                  class="C"/>
        </mask>
        <g mask="url(#C)" class="D">
            <path d="M417.535 247.25l.82-.52c3.7 0 7.06-1.02 9.88-2.8l-.82.52c-2.82 1.79-6.18 2.8-9.88 2.8z"/>
        </g>
        <mask id="D" maskUnits="userSpaceOnUse" x="417" y="245" width="13" height="5">
            <path d="M429.275 245.629l-.82.52c-3.06 1.94-6.7 3.04-10.71 3.04l.82-.52c4.01 0 7.65-1.1 10.71-3.04z"
                  class="C"/>
        </mask>
        <g mask="url(#D)" class="B">
            <path d="M417.755 249.189l.82-.52c4.01 0 7.65-1.1 10.71-3.04l-.82.52c-3.06 1.94-6.7 3.04-10.71 3.04z"/>
        </g>
        <path d="M41.145 43.139l.81-.52h353.28l-.82.52H41.145z" class="B"/>
        <mask id="E" maskUnits="userSpaceOnUse" x="31" y="42" width="11" height="4">
            <path d="M31.275 45.939l.82-.52c2.82-1.79 6.17-2.8 9.87-2.8l-.82.52c-3.7 0-7.05 1.02-9.87 2.8z" class="C"/>
        </mask>
        <g mask="url(#E)" class="B">
            <path d="M31.275 45.939l.82-.52c2.82-1.79 6.17-2.8 9.87-2.8l-.82.52c-3.7 0-7.05 1.02-9.87 2.8z"/>
        </g>
        <mask id="F" maskUnits="userSpaceOnUse" x="23" y="45" width="10" height="12">
            <path d="M32.095 45.42c-3.82 2.42-6.65 6.26-7.96 10.9l-.82.52c1.31-4.64 4.14-8.47 7.96-10.9.24-.16.57-.36.82-.52z"
                  class="C"/>
        </mask>
        <g mask="url(#F)" class="D">
            <path d="M31.276 45.94l.82-.52c-.07.05-.15.09-.22.14l-.82.52c.07-.05.15-.09.22-.14z"/>
            <path d="M31.055 46.081l.82-.52a18.04 18.04 0 0 0-2.92 2.39l-.82.52c.89-.9 1.86-1.7 2.92-2.39z"/>
            <path d="M28.135 48.469l.82-.52c-.93.94-1.76 1.98-2.48 3.12l-.82.52c.72-1.13 1.55-2.18 2.48-3.12z"/>
            <path d="M25.655 51.59l.82-.52a19.78 19.78 0 0 0-2.19 4.75l-.82.52c.53-1.71 1.27-3.31 2.19-4.75z"/>
            <use xlink:href="#r"/>
        </g>
        <mask id="G" maskUnits="userSpaceOnUse" x="22" y="56" width="3" height="5">
            <path d="M23.405 60.24l-.82.52a21.56 21.56 0 0 1 .72-3.92l.82-.52c-.36 1.25-.6 2.57-.72 3.92z" class="C"/>
        </mask>
        <g mask="url(#G)" class="D">
            <use xlink:href="#r" x="-0.001"/>
        </g>
        <mask id="H" maskUnits="userSpaceOnUse" x="22" y="60" width="2" height="2">
            <path d="M23.405 60.24c0 .09-.02.19-.02.28l-.82.52c0-.1.02-.19.02-.28l.82-.52z" class="C"/>
        </mask>
        <g mask="url(#H)" class="D">
            <use xlink:href="#r"/>
        </g>
        <mask id="I" maskUnits="userSpaceOnUse" x="22" y="60" width="2" height="6">
            <path d="M23.385 60.529a24.52 24.52 0 0 0 .08 4.52l-.82.52c-.18-1.55-.2-3.06-.08-4.52l.82-.52z" class="C"/>
        </mask>
        <g mask="url(#I)" class="D">
            <use xlink:href="#r" y="-0.002"/>
        </g>
        <mask id="J" maskUnits="userSpaceOnUse" x="20" y="43" width="12" height="23">
            <path d="M30.215 44.26l.82-.52c-6.56 4.15-10.42 12.14-9.39 21.3l-.82.52c-1.04-9.16 2.83-17.15 9.38-21.31l.01.01z"
                  class="C"/>
        </mask>
        <g mask="url(#J)" class="B">
            <path d="M30.215 44.26l.82-.52-.24.15-.82.52.24-.15z"/>
            <path d="M29.975 44.411l.82-.52c-1.15.75-2.21 1.62-3.18 2.6l-.82.52c.97-.98 2.03-1.85 3.18-2.6z"/>
            <path d="M26.795 47.01l.82-.52c-1.01 1.02-1.92 2.16-2.7 3.39l-.82.52c.78-1.23 1.69-2.37 2.7-3.39z"/>
            <path d="M24.095 50.401l.82-.52a21.36 21.36 0 0 0-2.38 5.17l-.82.52c.58-1.86 1.38-3.59 2.38-5.17z"/>
            <path d="M21.715 55.571l.82-.52c-.95 3.05-1.28 6.43-.88 9.99l-.82.52c-.4-3.56-.07-6.94.88-9.99z"/>
        </g>
        <path d="M64.255 247.249l.82-.52h353.27l-.81.52H64.255z" class="D"/>
        <path d="M64.475 249.19l.82-.52h353.27l-.81.52H64.475z" class="B"/>
        <path d="M22.655 65.559l.81-.52 18.04 159.28-.82.52-18.03-159.28z" class="D"/>
        <path d="M20.835 65.559l.81-.52 18.04 159.28-.82.52-18.03-159.28z" class="B"/>
        <mask id="K" maskUnits="userSpaceOnUse" x="40" y="224" width="26" height="24">
            <path d="M40.685 224.84l.82-.52c1.4 12.38 11.95 22.41 23.57 22.41l-.82.52c-11.62 0-22.16-10.03-23.57-22.41z"
                  class="C"/>
        </mask>
        <g mask="url(#K)" class="D">
            <path d="M40.685 224.84l.82-.52c.14 1.27.38 2.52.71 3.73l-.82.52c-.33-1.21-.57-2.46-.71-3.73z"/>
            <path d="M41.405 228.571l.82-.52c.5 1.85 1.2 3.62 2.08 5.28l-.82.52c-.87-1.66-1.58-3.43-2.08-5.28z"/>
            <path d="M43.475 233.85l.82-.52a26.49 26.49 0 0 0 2.39 3.75l-.82.52c-.9-1.17-1.7-2.43-2.39-3.75z"/>
            <path d="M45.875 237.6l.82-.52a26.33 26.33 0 0 0 2.87 3.18l-.82.52a25.52 25.52 0 0 1-2.87-3.18z"/>
            <path d="M48.745 240.79l.82-.52c1.17 1.1 2.42 2.08 3.76 2.92l-.82.52c-1.33-.85-2.59-1.83-3.76-2.92z"/>
            <path d="M52.505 243.709l.82-.52c3.53 2.24 7.57 3.54 11.75 3.54l-.82.52c-4.18 0-8.22-1.3-11.75-3.54z"/>
        </g>
        <path d="M418.565 248.669H65.295c-12.59 0-24.08-10.93-25.6-24.35L21.645 65.04c-1.52-13.43 7.5-24.35 20.09-24.35h353.28c12.6 0 24.08 10.92 25.6 24.35l18.04 159.279c1.52 13.42-7.49 24.35-20.09 24.35zm.24-183.629c-1.4-12.38-11.95-22.42-23.58-22.42H41.955c-11.62 0-19.89 10.04-18.49 22.42l18.04 159.279c1.4 12.38 11.95 22.41 23.57 22.41h353.28c11.62 0 19.9-10.03 18.5-22.41L418.815 65.04"
              class="B"/>
        <path d="M418.345 246.729H65.075c-11.62 0-22.16-10.03-23.57-22.41l-18.04-159.28c-1.4-12.38 6.87-22.42 18.49-22.42h353.28c11.62 0 22.17 10.04 23.58 22.42l18.04 159.28c1.4 12.38-6.88 22.41-18.5 22.41h-.01z"
              fill="url(#m)"/>
        <mask id="L" maskUnits="userSpaceOnUse" x="38" y="224" width="28" height="26">
            <path d="M38.865 224.84l.82-.52c1.52 13.42 13.01 24.35 25.6 24.35l-.82.52c-12.59 0-24.08-10.93-25.6-24.35z"
                  class="C"/>
        </mask>
        <g mask="url(#L)" class="B">
            <path d="M38.865 224.84l.82-.52c.16 1.37.42 2.72.77 4.04l-.82.52a25.74 25.74 0 0 1-.77-4.04z"/>
            <path d="M39.645 228.879l.82-.52a28.09 28.09 0 0 0 2.25 5.73l-.82.52a28.09 28.09 0 0 1-2.25-5.73z"/>
            <path d="M41.895 234.61l.82-.52c.76 1.44 1.63 2.8 2.61 4.08l-.82.52c-.98-1.28-1.85-2.64-2.61-4.08z"/>
            <path d="M44.505 238.69l.82-.52c.95 1.25 2 2.41 3.13 3.47l-.82.52c-1.13-1.06-2.18-2.22-3.13-3.47z"/>
            <path d="M47.635 242.161l.82-.52c1.27 1.19 2.64 2.26 4.09 3.19l-.82.52c-1.45-.92-2.82-1.99-4.09-3.19z"/>
            <path d="M51.725 245.34l.82-.52c3.83 2.43 8.22 3.85 12.75 3.85l-.82.52c-4.53 0-8.92-1.41-12.75-3.85z"/>
        </g>
    </g>
    <path d="M405.255 225.11h-243.56c-5.42 0-10.34-4.69-11-10.46l-15.58-137.61c-.65-5.78 3.21-10.46 8.63-10.46h243.56c5.42 0 10.34 4.68 11 10.46l15.58 137.61c.65 5.77-3.21 10.46-8.63 10.46z"
          fill="url(#n)"/>
    <path d="M405.405 226.42h-243.56c-6.09 0-11.64-5.29-12.38-11.77l-15.58-137.61c-.74-6.49 3.62-11.77 9.71-11.77h243.56c6.08 0 11.64 5.28 12.38 11.77l15.58 137.611c.73 6.49-3.63 11.77-9.71 11.77zm-7.1-149.38c-.65-5.78-5.58-10.46-11-10.46h-243.56c-5.42 0-9.28 4.68-8.63 10.46l15.58 137.611c.65 5.77 5.58 10.46 11 10.46h243.56c5.42 0 9.28-4.69 8.63-10.46l-15.58-137.61z"
          fill="url(#o)" fill-opacity=".75"/>
    <mask id="M" maskUnits="userSpaceOnUse" x="205" y="26" width="71" height="120">
        <path d="M274.605 26.119l.4 79.52-69.29 40.19-.39-79.52 69.28-40.19z" class="C"/>
    </mask>
    <g mask="url(#M)" class="B">
        <use xlink:href="#s"/>
    </g>
    <mask id="N" maskUnits="userSpaceOnUse" x="273" y="66" width="71" height="120">
        <path d="M343.275 66.02l.4 79.521-69.29 40.2-.4-79.52 69.29-40.201z" class="C"/>
    </mask>
    <g mask="url(#N)" class="B">
        <use xlink:href="#s" x="68.67" y="39.91"/>
    </g>
    <mask id="O" maskUnits="userSpaceOnUse" x="274" y="26" width="70" height="120">
        <path d="M343.275 66.019l.4 79.52-68.67-39.9-.4-79.52 68.67 39.9z" class="C"/>
    </mask>
    <g mask="url(#O)" class="B">
        <path d="M275.615 27.859l66.66 38.74.39 77.2-66.66-38.74-.39-77.2zm-1.01-1.74l.4 79.52 68.67 39.9-.4-79.52-68.67-39.9z"/>
    </g>
    <mask id="P" maskUnits="userSpaceOnUse" x="205" y="105" width="139" height="81">
        <path d="M343.675 145.539l-69.29 40.2-68.67-39.91 69.29-40.19 68.67 39.9z" class="C"/>
    </mask>
    <g mask="url(#P)" class="B">
        <path d="M275.005 106.789l66.68 38.75-67.3 39.04-66.68-38.75 67.3-39.04zm0-1.16l-69.29 40.2 68.67 39.9 69.29-40.2-68.67-39.9z"/>
    </g>
    <mask id="Q" maskUnits="userSpaceOnUse" x="205" y="66" width="70" height="120">
        <path d="M274.385 185.739l-68.67-39.91-.39-79.52 68.66 39.91.4 79.52z" class="C"/>
    </mask>
    <g mask="url(#Q)" class="B">
        <use xlink:href="#t"/>
    </g>
    <mask id="R" maskUnits="userSpaceOnUse" x="205" y="26" width="139" height="81">
        <path d="M273.985 106.219l-68.66-39.91 69.28-40.19 68.67 39.9-69.29 40.2z" class="C"/>
    </mask>
    <g mask="url(#R)" class="B">
        <use xlink:href="#u"/>
    </g>
    <mask id="S" maskUnits="userSpaceOnUse" x="205" y="26" width="70" height="120">
        <path d="M274.835 105.739l-69.12 39.9-.23-79.42 69.12-39.91.23 79.43z" class="C"/>
    </mask>
    <g mask="url(#S)" class="B">
        <use xlink:href="#v"/>
    </g>
    <mask id="T" maskUnits="userSpaceOnUse" x="274" y="66" width="70" height="120">
        <path d="M343.495 145.639l-69.11 39.91-.23-79.43 69.12-39.9.22 79.42z" class="C"/>
    </mask>
    <g mask="url(#T)" class="B">
        <use xlink:href="#v" x="68.67" y="39.91"/>
    </g>
    <mask id="U" maskUnits="userSpaceOnUse" x="205" y="105" width="139" height="81">
        <path d="M343.495 145.638l-69.11 39.91-68.67-39.91 69.12-39.9 68.66 39.9z" class="C"/>
    </mask>
    <g mask="url(#U)" class="B">
        <use xlink:href="#w"/>
    </g>
    <mask id="V" maskUnits="userSpaceOnUse" x="205" y="66" width="70" height="120">
        <path d="M274.385 185.549l-68.67-39.91-.23-79.42 68.67 39.9.23 79.43z" class="C"/>
    </mask>
    <g mask="url(#V)" class="B">
        <use xlink:href="#x"/>
    </g>
    <mask id="W" maskUnits="userSpaceOnUse" x="205" y="26" width="139" height="81">
        <path d="M274.155 106.119l-68.67-39.9 69.12-39.91 68.67 39.91-69.12 39.9z" class="C"/>
    </mask>
    <g mask="url(#W)" class="B">
        <use xlink:href="#w" x="-0.22" y="-79.42"/>
    </g>
    <mask id="X" maskUnits="userSpaceOnUse" x="274" y="26" width="70" height="120">
        <path d="M343.275 66.219l.22 79.42-68.66-39.9-.23-79.43 68.67 39.91z" class="C"/>
    </mask>
    <g mask="url(#X)" class="E F">
        <path d="M274.605 26.309l68.67 39.91.22 79.42-68.66-39.9"/>
    </g>
    <path d="M323.275 78.5l.16 55.59-48.38 27.94-.16-55.6 48.38-27.93z" fill="#233559"/>
    <path d="M275.055 162.03l-49.34-28.67-.16-55.6 49.34 28.67.16 55.6z" fill="#30497b"/>
    <path d="M274.895 106.43l-49.34-28.67 48.39-27.93 49.33 28.67-48.38 27.93z" fill="#3b5996"/>
    <path d="M205.715 145.829l-.39-79.52 69.28-40.19" class="E F"/>
    <mask id="Y" maskUnits="userSpaceOnUse" x="273" y="66" width="71" height="120">
        <path d="M343.275 66.02l.4 79.521-69.29 40.2-.4-79.52 69.29-40.201z" class="C"/>
    </mask>
    <g mask="url(#Y)" class="B">
        <use xlink:href="#s" x="68.67" y="39.91"/>
    </g>
    <path d="M274.605 26.119l68.67 39.9.4 79.52m0 0l-69.29 40.2-68.67-39.91" class="E F"/>
    <mask id="Z" maskUnits="userSpaceOnUse" x="205" y="66" width="70" height="120">
        <path d="M274.385 185.739l-68.67-39.91-.39-79.52 68.66 39.91.4 79.52z" class="C"/>
    </mask>
    <g mask="url(#Z)" class="B">
        <use xlink:href="#t"/>
    </g>
    <mask id="a" maskUnits="userSpaceOnUse" x="205" y="26" width="139" height="81">
        <path d="M273.985 106.219l-68.66-39.91 69.28-40.19 68.67 39.9-69.29 40.2z" class="C"/>
    </mask>
    <g mask="url(#a)" class="B">
        <use xlink:href="#u"/>
    </g>
    <path d="M205.715 145.639l-.23-79.42 69.12-39.91" class="E F"/>
    <mask id="b" maskUnits="userSpaceOnUse" x="274" y="66" width="70" height="120">
        <path d="M343.495 145.639l-69.11 39.91-.23-79.43 69.12-39.9.22 79.42z" class="C"/>
    </mask>
    <g mask="url(#b)" class="B">
        <use xlink:href="#v" x="68.67" y="39.91"/>
    </g>
    <path d="M343.495 145.639l-69.11 39.91-68.67-39.91" class="E F"/>
    <mask id="c" maskUnits="userSpaceOnUse" x="205" y="66" width="70" height="120">
        <path d="M274.385 185.549l-68.67-39.91-.23-79.42 68.67 39.9.23 79.43z" class="C"/>
    </mask>
    <g mask="url(#c)" class="B">
        <use xlink:href="#x"/>
    </g>
    <mask id="d" maskUnits="userSpaceOnUse" x="205" y="26" width="139" height="81">
        <path d="M274.155 106.119l-68.67-39.9 69.12-39.91 68.67 39.91-69.12 39.9z" class="C"/>
    </mask>
    <g mask="url(#d)" class="B">
        <use xlink:href="#w" x="-0.22" y="-79.42"/>
    </g>
    <path d="M274.605 26.309l68.67 39.91.22 79.42" class="E F"/>
    <g filter="url(#l)">
        <path d="M113.615 207.179h-37.65c-7.41 0-14.17-6.43-15.07-14.34L40.735 14.77c-.89-7.91 4.41-14.33 11.82-14.33h37.65c7.41 0 14.18 6.42 15.07 14.33l20.17 178.08c.89 7.9-4.41 14.34-11.83 14.34v-.01zm-9.57-192.409c-.81-7.19-6.94-13.01-13.68-13.01h-37.65c-6.74 0-11.55 5.82-10.74 13.01l20.17 178.08c.81 7.19 6.95 13.01 13.68 13.01h37.65c6.75 0 11.55-5.82 10.74-13.01L104.045 14.77z"
              fill="url(#p)" fill-opacity=".75"/>
        <path d="M113.465 205.86H75.816c-6.74 0-12.87-5.82-13.68-13.01L41.966 14.77c-.81-7.19 4-13.01 10.74-13.01h37.65c6.75 0 12.869 5.82 13.679 13.01l20.17 178.08c.81 7.19-3.99 13.01-10.74 13.01z"
              fill="url(#q)"/>
    </g>
    <g opacity=".75">
        <mask id="e" maskUnits="userSpaceOnUse" x="53" y="18" width="40" height="32">
            <path d="M57.055 49.52l-3.51-31.01h35.65l3.51 31.01h-35.65z" class="C"/>
        </mask>
        <g mask="url(#e)">
            <path d="M79.655 43.75c-2.18 0-4.3-.89-5.91-2.45-.77-.73-1.39-1.61-1.84-2.57-.41-.91-.64-1.89-.67-2.85s.12-1.9.46-2.75c.35-.84.84-1.58 1.47-2.18 1.26-1.23 2.98-1.89 4.85-1.89s3.74.65 5.29 1.87a8.98 8.98 0 0 1 1.97 2.17c.53.83.9 1.76 1.08 2.71.19.98.18 1.96-.02 2.89-.23.96-.65 1.85-1.26 2.58-1.27 1.57-3.19 2.46-5.38 2.47h-.03m-7.32-25.24c-.5 0-1 .15-1.37.45-.75.61-.72 1.62.08 2.25l5.12 4.05h-14.22-.02c-1.18 0-2.21.83-2.33 1.87-.11 1.05.79 1.93 2.01 1.94h7.21l-11.67 10.51-.05.04c-1.09.99-1.3 2.63-.42 3.68.45.53 1.09.8 1.75.8s1.35-.26 1.9-.79l6.33-6.12s-.01.83.05 1.32c.06.5.32 1.46.63 2.22a13.96 13.96 0 0 0 2.87 4.39c1.32 1.36 2.85 2.44 4.52 3.18 1.79.8 3.68 1.21 5.54 1.21h.06.06a11.79 11.79 0 0 0 5.26-1.23c1.5-.75 2.79-1.83 3.8-3.2.93-1.26 1.58-2.76 1.88-4.39.29-1.58.23-3.25-.18-4.89-.39-1.56-1.07-3.08-2.02-4.42-.88-1.25-1.94-2.36-3.13-3.25l-12.23-9.15-.03-.03c-.4-.3-.91-.45-1.41-.45"
                  fill="#e87d0d"/>
            <path d="M79.445 40.861c-1.29 0-2.6-.54-3.65-1.49-.98-.9-1.6-2.12-1.68-3.43-.07-1.28.38-2.4 1.18-3.19.82-.82 1.93-1.26 3.12-1.26h.03c1.27 0 2.49.48 3.45 1.26.97.79 1.68 1.91 1.89 3.19.21 1.3-.14 2.52-.9 3.43-.83.95-2.02 1.49-3.32 1.49h-.06-.06zm-1.44-11.8c-1.87 0-3.59.66-4.85 1.89a6.22 6.22 0 0 0-1.47 2.18c-.34.84-.5 1.78-.46 2.75s.27 1.94.67 2.85c.45.96 1.07 1.84 1.84 2.57 1.61 1.57 3.73 2.45 5.91 2.45h.03c2.19 0 4.12-.9 5.38-2.47.6-.73 1.03-1.62 1.26-2.58.21-.92.22-1.9.02-2.89-.18-.95-.56-1.88-1.08-2.71-.52-.82-1.18-1.55-1.97-2.17-1.54-1.22-3.41-1.87-5.29-1.87"
                  class="C"/>
            <path d="M78.415 31.5c-1.19 0-2.3.44-3.12 1.26-.8.79-1.25 1.91-1.18 3.19.08 1.3.71 2.52 1.68 3.43 1.05.95 2.36 1.49 3.65 1.49h.06.06c1.3 0 2.49-.54 3.32-1.49.76-.9 1.11-2.12.9-3.43-.21-1.28-.92-2.4-1.89-3.19-.95-.78-2.17-1.26-3.45-1.26h-.03z"
                  fill="#265787"/>
        </g>
    </g>
    <mask id="f" maskUnits="userSpaceOnUse" x="65" y="69" width="32" height="30">
        <path d="M69.195 98.07l-3.28-28.98h27.18l3.29 28.98h-27.19z" class="C"/>
    </mask>
    <g mask="url(#f)" class="B">
        <path d="M87.745 69.09h-16.48c-2.95 0-5.06 2.56-4.7 5.71l1.99 17.56c.36 3.16 3.04 5.71 6 5.71h16.48c2.96 0 5.07-2.56 4.71-5.71l-1.99-17.56c-.36-3.16-3.04-5.71-6.01-5.71z"
              fill-opacity=".6"/>
    </g>
    <mask id="g" maskUnits="userSpaceOnUse" x="71" y="113" width="31" height="30">
        <path d="M74.455 142.689l-3.29-28.97h27.19l3.28 28.97h-27.18z" class="C"/>
    </mask>
    <g mask="url(#g)" class="B G">
        <path d="M93.005 113.719h-16.48c-2.96 0-5.07 2.56-4.71 5.7l1.99 17.56c.36 3.16 3.04 5.71 6.01 5.71h16.48c2.95 0 5.06-2.56 4.7-5.71l-1.99-17.56c-.36-3.15-3.04-5.7-6-5.7z"/>
    </g>
    <mask id="h" maskUnits="userSpaceOnUse" x="75" y="158" width="32" height="30">
        <path d="M79.215 187.32l-3.28-28.98h27.19l3.28 28.98h-27.19z" class="C"/>
    </mask>
    <g mask="url(#h)" class="B G">
        <path d="M97.765 158.34h-16.48c-2.96 0-5.07 2.56-4.71 5.71l1.99 17.56c.36 3.15 3.04 5.7 6 5.7h16.48c2.95 0 5.07-2.56 4.71-5.7l-1.99-17.56c-.36-3.16-3.05-5.71-6.01-5.71"/>
    </g>
    <g stroke-linecap="round" stroke-linejoin="round" class="E">
        <path d="M369.485 10.24v26.68"/>
        <path d="M369.485 36.92l23.11-13.34m-23.11 13.34l23.11 13.34"/>
    </g>
    <use xlink:href="#y" class="D"/>
    <use xlink:href="#z" class="B"/>
    <use xlink:href="#y" y="26.801" class="D"/>
    <use xlink:href="#z" y="26.801" class="B"/>
    <path d="M369.485 13.74a3.5 3.5 0 0 0 0-7 3.5 3.5 0 0 0 0 7z" class="D"/>
    <path d="M369.485 7.24c1.66 0 3 1.34 3 3s-1.34 3-3 3-3-1.34-3-3 1.34-3 3-3zm0-1a4 4 0 0 0 0 8 4 4 0 0 0 0-8z"
          class="B"/>
    <g opacity=".5">
        <use xlink:href="#y" x="-45.65" y="26.801" class="D H"/>
        <use xlink:href="#z" x="-45.65" y="26.801" class="B"/>
    </g>
    <g opacity=".5">
        <use xlink:href="#y" x="-45.65" class="D H"/>
        <use xlink:href="#z" x="-45.65" class="B"/>
    </g>
    <g opacity=".5">
        <use xlink:href="#y" x="-22.83" y="40.291" class="D H"/>
        <use xlink:href="#z" x="-22.83" y="40.291" class="B"/>
    </g>
    <path d="M184.865 78.119h-31.93c-3.72 0-7.1-3.22-7.55-7.19l-3.85-34.03c-.45-3.96 2.2-7.18 5.92-7.18h31.93c3.73 0 7.11 3.22 7.56 7.18l3.85 34.03c.45 3.97-2.2 7.19-5.93 7.19z"
          class="B G"/>
    <g opacity=".75">
        <mask id="i" maskUnits="userSpaceOnUse" x="156" y="40" width="25" height="28">
            <path d="M159.265 67.459l-3.07-27.09h20.86l3.07 27.09h-20.86z" class="C"/>
        </mask>
        <g mask="url(#i)" class="B">
            <path d="M156.195 40.369l5.38 27.09 5.64-10.27 11.61-1.14-22.63-15.68z"/>
        </g>
    </g>
    <mask id="j" maskUnits="userSpaceOnUse" x="162" y="188" width="50" height="23">
        <path d="M164.585 210.539l-2.47-21.85h47.32l2.48 21.85h-47.33z" class="C"/>
    </mask>
    <g mask="url(#j)" class="B">
        <path d="M177.525 188.949a2.29 2.29 0 0 0-1.29.39l-11.83 7.83c-1.66 1.09-1.35 3.82.56 4.91l13.6 7.82a2.71 2.71 0 0 0 1.38.39c1.39 0 2.53-1.18 2.34-2.84l-1.77-15.66c-.19-1.66-1.6-2.85-2.99-2.85m15.89-.25c-1.22 0-2.23 1.04-2.06 2.5l1.91 16.86c.16 1.45 1.4 2.49 2.63 2.49.39 0 .78-.11 1.13-.34l12.74-8.43c1.45-.96 1.18-3.36-.49-4.31l-14.65-8.43c-.4-.23-.81-.34-1.2-.34"
              fill-opacity=".3"/>
    </g>
    <defs>
        <filter id="k" x=".668" y="20.69" width="671.154" height="459.5" filterUnits="userSpaceOnUse" class="I">
            <feFlood flood-opacity="0" result="A"/>
            <feColorMatrix in="SourceAlpha" values="0 0 0 0 0 0 0 0 0 0 0 0 0 0 0 0 0 0 127 0"/>
            <feOffset dx="9" dy="9"/>
            <feGaussianBlur stdDeviation="14.5"/>
            <feColorMatrix values="0 0 0 0 0.258824 0 0 0 0 0.392157 0 0 0 0 0.658824 0 0 0 0.1 0"/>
            <feBlend in2="A" result="C"/>
            <feColorMatrix in="SourceAlpha" values="0 0 0 0 0 0 0 0 0 0 0 0 0 0 0 0 0 0 127 0"/>
            <feOffset dx="37" dy="37"/>
            <feGaussianBlur stdDeviation="26"/>
            <feColorMatrix values="0 0 0 0 0.258824 0 0 0 0 0.392157 0 0 0 0 0.658824 0 0 0 0.09 0"/>
            <feBlend in2="C" result="D"/>
            <feColorMatrix in="SourceAlpha" values="0 0 0 0 0 0 0 0 0 0 0 0 0 0 0 0 0 0 127 0"/>
            <feOffset dx="84" dy="83"/>
            <feGaussianBlur stdDeviation="35.5"/>
            <feColorMatrix values="0 0 0 0 0.258824 0 0 0 0 0.392157 0 0 0 0 0.658824 0 0 0 0.05 0"/>
            <feBlend in2="D" result="E"/>
            <feColorMatrix in="SourceAlpha" values="0 0 0 0 0 0 0 0 0 0 0 0 0 0 0 0 0 0 127 0"/>
            <feOffset dx="149" dy="147"/>
            <feGaussianBlur stdDeviation="42"/>
            <feColorMatrix values="0 0 0 0 0.258824 0 0 0 0 0.392157 0 0 0 0 0.658824 0 0 0 0.01 0"/>
            <feBlend in2="E"/>
            <feBlend in="SourceGraphic"/>
        </filter>
        <filter id="l" x="30.638" y="-9.561" width="104.905" height="226.75" filterUnits="userSpaceOnUse" class="I">
            <feFlood flood-opacity="0"/>
            <feGaussianBlur stdDeviation="5"/>
            <feComposite in2="SourceAlpha" operator="in"/>
            <feBlend in="SourceGraphic"/>
        </filter>
        <linearGradient id="m" x1="437.009" y1="246.729" x2="274.203" y2="-81.863" xlink:href="#AA">
            <stop stop-color="#000714"/>
            <stop offset="1" stop-color="#000714" stop-opacity=".25"/>
        </linearGradient>
        <linearGradient id="n" x1="414.192" y1="66.58" x2="277.343" y2="306.333" xlink:href="#AA">
            <stop stop-color="#000714" stop-opacity=".25"/>
            <stop offset="1" stop-color="#000714"/>
        </linearGradient>
        <linearGradient id="o" x1="415.195" y1="226.42" x2="275.552" y2="-16.389" xlink:href="#AA">
            <stop stop-color="#4264a8" stop-opacity=".25"/>
            <stop offset="1" stop-color="#4264a8"/>
        </linearGradient>
        <linearGradient id="p" x1="125.543" y1="207.189" x2="-19.694" y2="147.797" xlink:href="#AA">
            <stop stop-color="#4264a8" stop-opacity=".25"/>
            <stop offset="1" stop-color="#4264a8"/>
        </linearGradient>
        <linearGradient id="q" x1="124.364" y1="1.76" x2="-17.29" y2="58.72" xlink:href="#AA">
            <stop stop-color="#000714" stop-opacity=".25"/>
            <stop offset="1" stop-color="#000714"/>
        </linearGradient>
        <path id="r" d="M23.466 56.34l.82-.52c-.87 2.81-1.18 5.93-.81 9.22l-.82.52c-.37-3.29-.06-6.41.81-9.22z"/>
        <path id="s"
              d="M273.615 27.85l.39 77.21-67.29 39.04-.38-77.22 67.29-39.04m.99-1.73l-69.28 40.19.39 79.52 69.29-40.2-.4-79.52v.01z"/>
        <path id="t"
              d="M206.335 68.058l66.66 38.74.38 77.2-66.66-38.74-.38-77.2zm-1.01-1.74l.39 79.52 68.67 39.9-.39-79.52-68.67-39.9z"/>
        <path id="u"
              d="M274.605 27.279l66.68 38.75-67.29 39.04-66.68-38.75 67.29-39.04zm0-1.16l-69.28 40.19 68.67 39.9 69.28-40.19-68.67-39.9z"/>
        <path id="v"
              d="M273.605 28.039l.22 77.12-67.12 38.75-.22-77.12 67.12-38.75zm1-1.73l-69.12 39.9.23 79.43 69.12-39.9-.23-79.43z"/>
        <path id="w"
              d="M274.825 106.889l66.67 38.75-67.12 38.75-66.67-38.75 67.12-38.75zm0-1.16l-69.12 39.9 68.67 39.9 69.12-39.9-68.67-39.9z"/>
        <path id="x"
              d="M206.495 67.959l66.66 38.74.22 77.11-66.66-38.74-.22-77.11zm-1-1.74l.23 79.43 68.67 39.9-.23-79.43-68.67-39.9z"/>
        <path id="y" d="M392.315 26.799a3.5 3.5 0 1 0 0-7 3.5 3.5 0 1 0 0 7z"/>
        <path id="z"
              d="M392.315 20.299c1.66 0 3 1.34 3 3s-1.34 3-3 3-3-1.34-3-3 1.34-3 3-3zm0-1a4 4 0 1 0 0 8 4 4 0 1 0 0-8z"/>
        <linearGradient id="AA" gradientUnits="userSpaceOnUse"/>
    </defs>
</svg>