<svg xmlns:xlink="http://www.w3.org/1999/xlink" xmlns="http://www.w3.org/2000/svg" width="583" height="373" fill="none">
    <style>
        <![CDATA[.B{fill:#4264a8}.C{opacity:.15}.D{fill:#fff}.E{fill-opacity:.75}.F{fill:#000714}.G{opacity:.6}.H{fill-opacity:.9}]]></style>
    <g filter="url(#Q)">
        <mask id="A" maskUnits="userSpaceOnUse" x="86" y="219" width="7" height="23">
            <path d="M92.605 241.095l-1.82-2.55c-.89-1.24-1.66-2.59-2.31-4.02a25.94 25.94 0 0 1-1.57-4.52 28.2 28.2 0 0 1-.76-4.92c-.11-1.69-.08-3.44.12-5.23l1.84 2.7a30.19 30.19 0 0 0-.11 5.19 27.86 27.86 0 0 0 .76 4.89c.39 1.57.91 3.07 1.56 4.49a24.77 24.77 0 0 0 2.29 3.99v-.02z"
                  class="D"/>
        </mask>
        <g mask="url(#A)" class="B">
            <path d="M86.265 219.846l1.84 2.7a31.1 31.1 0 0 0-.17 3.95 29.33 29.33 0 0 0 .34 3.79c.19 1.23.47 2.43.82 3.59s.78 2.28 1.27 3.35l-1.83-2.58a25.72 25.72 0 0 1-1.28-3.37c-.35-1.16-.63-2.38-.82-3.62s-.31-2.52-.34-3.82a31.57 31.57 0 0 1 .17-3.98"/>
            <path d="M88.535 234.646l1.83 2.58.5 1.01.54.98.58.95.62.92-1.82-2.55-.62-.92-.58-.96-.54-.99-.5-1.02"/>
        </g>
        <mask id="B" maskUnits="userSpaceOnUse" x="491" y="219" width="7" height="23">
            <path d="M492.835 238.546l-1.82 2.55a23.75 23.75 0 0 0 2.29-3.99 26.44 26.44 0 0 0 1.56-4.49c.39-1.57.65-3.2.76-4.89a30.17 30.17 0 0 0-.11-5.19l1.84-2.7c.19 1.78.23 3.53.12 5.23s-.37 3.35-.76 4.92a26.23 26.23 0 0 1-1.57 4.52 24.42 24.42 0 0 1-2.31 4.02v.02z"
                  class="D"/>
        </mask>
        <g mask="url(#B)" class="B">
            <path d="M492.835 238.546l-1.82 2.55a23.75 23.75 0 0 0 2.29-3.99 26.44 26.44 0 0 0 1.56-4.49c.39-1.57.65-3.2.76-4.89a30.17 30.17 0 0 0-.11-5.19l1.84-2.7c.19 1.78.23 3.53.12 5.23s-.37 3.35-.76 4.92a26.23 26.23 0 0 1-1.57 4.52 24.42 24.42 0 0 1-2.31 4.02"/>
        </g>
        <mask id="C" maskUnits="userSpaceOnUse" x="490" y="238" width="3" height="5">
            <path d="M490.045 242.375l1.81-2.54c.09-.1.17-.21.25-.32l.25-.32.24-.33.24-.33-1.82 2.55-.24.33-.24.32-.25.32-.25.31.01.01z"
                  class="D"/>
        </mask>
        <g mask="url(#C)" class="F">
            <path d="M492.835 238.545l-1.82 2.55-.53.71-.55.69-.58.66-.6.64 1.8-2.53.6-.64.58-.67.56-.69.53-.72"/>
        </g>
        <mask id="D" maskUnits="userSpaceOnUse" x="90" y="238" width="21" height="13">
            <path d="M92.605 241.095l-1.82-2.55c1 1.41 2.14 2.68 3.41 3.81a21.62 21.62 0 0 0 4.15 2.9c1.49.8 3.1 1.42 4.79 1.84a22 22 0 0 0 5.31.64l1.66 2.48a21.53 21.53 0 0 1-5.26-.64c-1.67-.42-3.26-1.04-4.75-1.83s-2.86-1.76-4.12-2.87-2.39-2.38-3.38-3.78h.01z"
                  class="D"/>
        </mask>
        <g mask="url(#D)" class="F">
            <path d="M108.445 247.735l1.66 2.48a21.53 21.53 0 0 1-5.26-.64c-1.67-.42-3.26-1.04-4.75-1.83s-2.86-1.76-4.12-2.87-2.39-2.38-3.38-3.78l-1.82-2.55c1 1.41 2.14 2.68 3.41 3.81a21.62 21.62 0 0 0 4.15 2.9 20.66 20.66 0 0 0 4.79 1.84 22 22 0 0 0 5.31.64"/>
        </g>
        <path d="M475.185 247.734l-1.67 2.48h-363.41l-1.66-2.48h366.74z" class="F"/>
        <mask id="E" maskUnits="userSpaceOnUse" x="473" y="239" width="19" height="12">
            <path d="M490.045 242.376a22.24 22.24 0 0 1-3.31 3.27c-1.21.97-2.52 1.79-3.91 2.47a20.78 20.78 0 0 1-4.43 1.56c-1.55.36-3.18.54-4.86.54l1.66-2.48c1.7 0 3.34-.19 4.91-.55s3.06-.89 4.47-1.57a21.03 21.03 0 0 0 3.95-2.49c1.22-.97 2.34-2.07 3.34-3.29l-1.63 2.3-.17.25-.02-.01z"
                  class="D"/>
        </mask>
        <g mask="url(#E)" class="F">
            <path d="M492.835 238.547l-1.82 2.55-.53.71-.55.69-.58.66-.6.64 1.8-2.53.6-.64.58-.67.56-.69.53-.72"/>
            <path d="M490.565 241.277l-1.8 2.53c-.97 1-2.04 1.9-3.17 2.69a20.49 20.49 0 0 1-3.64 2.02 21.1 21.1 0 0 1-4.04 1.27c-1.4.29-2.87.44-4.38.44l1.66-2.48c1.52 0 3-.15 4.42-.44a20.82 20.82 0 0 0 4.08-1.28 21.46 21.46 0 0 0 3.67-2.03c1.15-.79 2.22-1.7 3.2-2.71"/>
        </g>
        <mask id="F" maskUnits="userSpaceOnUse" x="89" y="239" width="21" height="14">
            <path d="M90.925 242.476l-1.83-2.54c1.09 1.51 2.33 2.88 3.7 4.09a23.04 23.04 0 0 0 4.51 3.11c1.63.86 3.36 1.52 5.19 1.98s3.76.69 5.75.69l1.67 2.47c-1.98 0-3.89-.24-5.7-.69s-3.54-1.11-5.15-1.96a22.97 22.97 0 0 1-4.47-3.09c-1.36-1.2-2.59-2.56-3.67-4.06z"
                  class="D"/>
        </mask>
        <g mask="url(#F)" class="B">
            <path d="M108.245 249.796l1.67 2.47c-1.98 0-3.89-.24-5.7-.69s-3.54-1.11-5.15-1.96a22.97 22.97 0 0 1-4.47-3.09c-1.36-1.2-2.59-2.56-3.67-4.06l-1.83-2.54c1.09 1.51 2.33 2.88 3.7 4.09a23.04 23.04 0 0 0 4.51 3.11c1.63.86 3.36 1.52 5.19 1.98s3.76.69 5.75.69z"/>
        </g>
        <path d="M454.655 31.535c3.34 0 6.6.67 9.63 1.89a28.32 28.32 0 0 1 8.27 5.16 28.07 28.07 0 0 1 6.06 7.71c1.55 2.91 2.6 6.14 2.97 9.52l17.9 164.03c.44 4.07.11 7.97-.87 11.54s-2.64 6.81-4.81 9.54-4.89 4.95-8.01 6.49-6.63 2.39-10.4 2.39h-367.15c-3.77 0-7.28-.85-10.4-2.39s-5.82-3.75-8.01-6.49-3.82-5.96-4.81-9.54-1.32-7.46-.87-11.54l17.72-162.36c.37-3.4 1.41-6.62 2.97-9.54a28.34 28.34 0 0 1 6.07-7.72c2.44-2.19 5.24-3.95 8.27-5.17s6.29-1.89 9.64-1.89h44.56a17.3 17.3 0 0 0 4.13-.51c1.34-.33 2.63-.81 3.82-1.43s2.3-1.37 3.28-2.24 1.82-1.85 2.5-2.92a19.12 19.12 0 0 1 3.34-3.97c1.27-1.15 2.67-2.14 4.18-2.94a20.8 20.8 0 0 1 4.78-1.83 21.53 21.53 0 0 1 5.14-.63h176.23a22.06 22.06 0 0 1 4.96.57c1.6.37 3.15.93 4.59 1.64a19.8 19.8 0 0 1 3.99 2.59 18.07 18.07 0 0 1 3.16 3.44c.71 1.02 1.56 1.94 2.53 2.75s2.05 1.51 3.21 2.09a16.71 16.71 0 0 0 3.69 1.32c1.29.3 2.63.46 3.99.46h43.75v-.02zm42.7 188.31l-17.71-164.03c-.34-3.16-1.3-6.17-2.73-8.89s-3.34-5.15-5.59-7.19-4.83-3.68-7.63-4.81-5.8-1.76-8.89-1.76h-43.8c-1.53 0-3.04-.18-4.5-.52a19.69 19.69 0 0 1-4.17-1.49c-1.31-.64-2.53-1.44-3.62-2.36s-2.05-1.96-2.85-3.1a15.69 15.69 0 0 0-2.84-3.09 17.98 17.98 0 0 0-3.59-2.33c-1.3-.64-2.68-1.14-4.13-1.47s-2.94-.51-4.45-.51h-176.38c-1.58 0-3.14.19-4.63.56s-2.93.9-4.26 1.59-2.56 1.53-3.65 2.5-2.04 2.08-2.82 3.3a18.04 18.04 0 0 1-3.03 3.63c-1.15 1.06-2.42 1.96-3.79 2.69a19.09 19.09 0 0 1-4.35 1.67c-1.52.38-3.09.57-4.69.57h-44.61c-3.09 0-6.1.63-8.9 1.76s-5.39 2.79-7.63 4.83-4.16 4.49-5.59 7.21a25.1 25.1 0 0 0-2.74 8.9l-17.52 162.34c-.41 3.8-.11 7.44.8 10.76s2.42 6.34 4.42 8.88 4.5 4.61 7.37 6.03a21.47 21.47 0 0 0 9.58 2.22h366.74c3.48 0 6.71-.79 9.58-2.22s5.36-3.49 7.37-6.03 3.52-5.55 4.42-8.88 1.21-6.96.8-10.76"
              class="B"/>
        <path d="M380.875 18.275a19.91 19.91 0 0 1 4.45.51 18.96 18.96 0 0 1 4.13 1.47c1.3.64 2.51 1.42 3.59 2.33s2.04 1.95 2.84 3.09a16.08 16.08 0 0 0 2.85 3.1 18.48 18.48 0 0 0 3.62 2.36c1.31.65 2.71 1.15 4.17 1.49s2.97.52 4.5.52h43.8c3.09 0 6.1.63 8.89 1.76s5.38 2.78 7.63 4.81 4.15 4.48 5.58 7.19 2.39 5.73 2.73 8.89l17.71 164.03c.41 3.8.11 7.44-.8 10.76s-2.42 6.34-4.42 8.88-4.5 4.61-7.37 6.03-6.1 2.22-9.58 2.22h-366.75c-3.48 0-6.71-.79-9.58-2.22s-5.36-3.49-7.37-6.03-3.52-5.55-4.42-8.88-1.21-6.96-.8-10.76l17.53-162.34a24.64 24.64 0 0 1 2.74-8.9c1.44-2.72 3.34-5.16 5.59-7.21s4.83-3.69 7.63-4.83 5.81-1.76 8.9-1.76h44.61c1.6 0 3.17-.2 4.68-.57s2.96-.91 4.31-1.61a17.99 17.99 0 0 0 3.69-2.53 15.91 15.91 0 0 0 2.83-3.31 17.99 17.99 0 0 1 3.02-3.62 17.91 17.91 0 0 1 3.76-2.66c1.36-.72 2.79-1.27 4.29-1.65s3.05-.56 4.63-.56h176.4-.01z"
              fill="url(#R)"/>
        <path d="M182.05 137.105l2.922 14.717 3.064-5.579 6.308-.619-12.294-8.519z" class="B"/>
        <mask id="G" maskUnits="userSpaceOnUse" x="473" y="239" width="22" height="14">
            <path d="M494.535 239.926l-1.83 2.54c-1.08 1.5-2.31 2.86-3.67 4.06a22.97 22.97 0 0 1-4.47 3.09 22.65 22.65 0 0 1-5.15 1.96c-1.82.45-3.72.69-5.7.69l1.67-2.47a24.02 24.02 0 0 0 5.75-.69c1.83-.45 3.57-1.12 5.19-1.98s3.13-1.9 4.51-3.11 2.61-2.58 3.7-4.09z"
                  class="D"/>
        </mask>
        <g mask="url(#G)" class="B">
            <path d="M494.535 239.926l-1.83 2.54-.55.73-.57.71-.6.69-.62.66 1.81-2.52.63-.67.6-.69.58-.71.55-.74z"/>
            <path d="M492.175 242.735l-1.81 2.52c-1.06 1.09-2.22 2.07-3.46 2.93a22.31 22.31 0 0 1-3.98 2.2c-1.41.6-2.88 1.07-4.42 1.39s-3.14.48-4.79.48l1.67-2.47c1.67 0 3.28-.17 4.84-.49a22.92 22.92 0 0 0 4.46-1.4 22.66 22.66 0 0 0 4.01-2.22c1.25-.87 2.42-1.86 3.49-2.96"/>
        </g>
        <path d="M475.375 249.795l-1.66 2.47h-363.8l-1.67-2.47h367.13z" class="B"/>
    </g>
    <mask id="H" maskUnits="userSpaceOnUse" x="203" y="77" width="177" height="145">
        <path d="M203.675 221.944l17.44-143.96h141.4l17.43 143.96h-176.27z" class="D"/>
    </mask>
    <g mask="url(#H)">
        <mask id="I" maskUnits="userSpaceOnUse" x="237" y="106" width="110" height="74">
            <path d="M242.905 106.865h97.81l5.79 72.5h-109.38l5.78-72.5z" class="D"/>
        </mask>
        <g mask="url(#I)">
            <path d="M237.465 176.335l-.08.13c0 .16.03.32.06.48s.08.31.14.45l.21.43a2.7 2.7 0 0 0 .27.39 2.96 2.96 0 0 1-.26-.42c-.08-.15-.14-.3-.19-.46s-.09-.32-.12-.49-.04-.34-.04-.51m6.84-1.13h-6.1c-.03.07-.05.14-.07.21l-.06.21c-.02.07-.03.14-.04.22l-.03.22a2.71 2.71 0 0 0 .16 1.18c.14.36.34.69.61.97s.59.5.96.66.79.24 1.23.24a3.53 3.53 0 0 0 1.26-.24c.39-.15.75-.38 1.06-.66a3.51 3.51 0 0 0 .75-.97 2.97 2.97 0 0 0 .33-1.18v-.22-.22a.76.76 0 0 0-.03-.21c-.02-.07-.02-.14-.04-.21m20.23 0h-6.1l-.07.21-.05.21-.04.22-.02.22h-.52c0-.07 0-.15.02-.22s.02-.15.03-.22l.04-.21c.01-.07.04-.14.06-.21h-13.04l.03.21.02.21v.22.22a3.66 3.66 0 0 1-.19.93c-.1.3-.25.58-.43.84s-.39.5-.62.72a3.96 3.96 0 0 1-.78.56h16.51c-.26-.16-.5-.34-.71-.56a3.34 3.34 0 0 1-.53-.72c-.14-.26-.25-.54-.32-.84s-.1-.61-.08-.93h.52a2.72 2.72 0 0 0 .2 1.18 2.98 2.98 0 0 0 .64.97c.28.28.61.5.99.66a3.15 3.15 0 0 0 1.24.24 3.77 3.77 0 0 0 .83-.1c.27-.06.52-.17.76-.29s.46-.28.66-.45.38-.37.53-.59l.34-.64v-.02c.04-.07.07-.15.09-.23l.06-.23c.02-.08.03-.16.04-.24l.02-.24v-.22c0-.07 0-.15-.02-.22s-.02-.14-.03-.21-.03-.14-.05-.21m.88 0h-.33s.02.08.02.12.01.08.02.12.01.08.02.12 0 .08.01.12l.26-.47m-24-2.17a3.37 3.37 0 0 0-.9.12c-.29.08-.56.2-.82.34s-.49.32-.7.53a3.51 3.51 0 0 0-.54.68h5.68a2.73 2.73 0 0 0-.44-.68c-.18-.21-.39-.38-.62-.53a2.82 2.82 0 0 0-.77-.34 3.17 3.17 0 0 0-.88-.12m20.17 0a3.37 3.37 0 0 0-.9.12c-.29.08-.56.2-.81.34a2.9 2.9 0 0 0-.68.53c-.2.21-.38.43-.52.68h5.68a3.13 3.13 0 0 0-.46-.68 2.74 2.74 0 0 0-.64-.53c-.24-.15-.5-.26-.78-.34s-.58-.12-.88-.12m30.27-4.33c-.44 0-.85.09-1.23.24a3.06 3.06 0 0 0-1 .64c-.28.27-.52.59-.68.95a3.03 3.03 0 0 0-.26 1.17 2.89 2.89 0 0 0 .25 1.17c.16.36.39.68.68.96s.63.49 1.01.65.8.24 1.24.24a3.68 3.68 0 0 0 .82-.1c.26-.06.51-.17.74-.29s.44-.28.63-.45a2.84 2.84 0 0 0 .5-.59l.02-.04.03-.04.21-.45v-.04l.02-.04c.03-.08.05-.15.07-.23l.05-.24.03-.24c.01-.08.01-.16 0-.25a2.89 2.89 0 0 0-.25-1.17c-.16-.36-.39-.68-.68-.95s-.63-.49-1-.64-.79-.24-1.22-.24m-16.47-12.01h-26.56l-9.53 16.47c.16-.1.32-.19.49-.26l.53-.2c.18-.06.37-.09.56-.12s.38-.04.58-.04a3.88 3.88 0 0 1 1.09.16c.34.1.66.25.94.44a3.42 3.42 0 0 1 .74.68c.21.26.38.56.49.88h13.38a4.03 4.03 0 0 1 .6-.88 3.58 3.58 0 0 1 .82-.68 3.99 3.99 0 0 1 .99-.44 4.08 4.08 0 0 1 1.11-.16 3.88 3.88 0 0 1 1.09.16c.34.1.66.25.95.44s.54.42.76.68.39.56.52.88h.75l9.7-18.01zm.81 0h-.24l-.15.29.09-.08a.36.36 0 0 1 .1-.07c.04-.02.07-.05.1-.07s.07-.04.1-.07zm4.08 0h-.22l.09.06.09.06c.03.02.06.04.08.06s.06.04.08.07l-.13-.25m22.52 0h-21.95l.55 1.13 6.78 13.61c.04-.45.17-.88.37-1.27s.47-.73.8-1.02.71-.52 1.14-.68.89-.25 1.37-.25.93.08 1.34.24a3.94 3.94 0 0 1 1.12.66c.33.28.6.61.8.99s.34.79.39 1.23l7.28-14.64m-24.59-4.17l-2 3.7h1.23l.17-.03c.05-.01.12-.01.17-.02s.12 0 .17-.01.12 0 .17 0h.17a.97.97 0 0 1 .17.01c.05.01.12.01.17.02l.17.03h1.21l-1.83-3.7m-12.45-25.04l-16.65 28.74h26.54l2.29-4.24-12.18-24.5zm26.07-.27l-13.32 24.77 2.11 4.24h22.43l2.11-4.25-13.33-24.76zm-2.35-4.37h-21.04l-2.38 4.14 12.18 24.47 13.32-24.73-2.08-3.87m4.17 0h-1.03l-.19.04-.2.03-.2.02c-.07.01-.13 0-.2 0h-.2c-.07 0-.13 0-.2-.02s-.13-.02-.2-.03-.13-.02-.19-.04h-1.04l1.82 3.37 1.82-3.37m21.83 0h-21.29l-2.09 3.87 13.32 24.72 11.05-22.2a3.55 3.55 0 0 1-.43.23 2.64 2.64 0 0 1-.47.17l-.51.11c-.18.03-.36.04-.54.04a3.99 3.99 0 0 1-1.35-.24 3.49 3.49 0 0 1-1.12-.66 3.4 3.4 0 0 1-.77-.97 2.7 2.7 0 0 1-.31-1.19h.49a2.37 2.37 0 0 0 .26 1.02c.16.31.39.6.66.83a3.15 3.15 0 0 0 .96.56 3.41 3.41 0 0 0 1.16.21c.41 0 .8-.07 1.15-.21a3.15 3.15 0 0 0 .92-.56c.26-.23.46-.52.6-.83s.21-.66.2-1.02a2.43 2.43 0 0 0-.28-1.02c-.17-.32-.39-.59-.67-.83s-.6-.42-.96-.56-.75-.2-1.15-.2a3.29 3.29 0 0 0-1.14.2c-.35.13-.66.32-.92.56s-.47.51-.61.83-.21.66-.2 1.02h-.49a2.74 2.74 0 0 1 .24-1.18 2.76 2.76 0 0 1 .71-.96 3.41 3.41 0 0 1 1.07-.65 3.82 3.82 0 0 1 1.32-.24c.18 0 .36.01.53.04l.51.11.48.17.45.23-.8-1.38m-21.49-.62s-.05.04-.07.05-.05.03-.07.05-.05.03-.07.05-.05.03-.07.05h.18l.11-.2m-4.31 0l.11.21h.19l-.08-.05-.08-.05c-.03-.02-.05-.04-.07-.05s-.05-.04-.07-.06zm-7.11-12.22a2.58 2.58 0 0 1-.33 1.06c-.18.32-.44.62-.74.87s-.66.44-1.06.58-.82.21-1.27.21-.87-.07-1.25-.21-.73-.33-1.03-.57-.54-.53-.71-.85-.28-.68-.3-1.05l-7.18 12.39h20.57l-.54-1-6.15-11.42m-5-2.64h-.14l-.07.11.05-.03c.02-.01.03-.02.05-.03s.03-.02.05-.03.04-.02.05-.03m1.71 0a3.42 3.42 0 0 0-1.12.19 2.88 2.88 0 0 0-.92.53 2.53 2.53 0 0 0-.63.79 2.28 2.28 0 0 0-.25.96c0 .34.06.67.2.96a2.51 2.51 0 0 0 .6.79 2.71 2.71 0 0 0 .9.53c.34.12.72.2 1.12.2s.78-.07 1.13-.2.66-.31.93-.53.48-.49.63-.79.24-.62.24-.96a2.21 2.21 0 0 0-.21-.96 2.67 2.67 0 0 0-.6-.79c-.25-.23-.56-.4-.9-.53a3.12 3.12 0 0 0-1.11-.19m23.57 0h-.11s-.06.03-.08.05-.05.03-.08.05-.05.04-.08.06-.05.04-.08.06l-.04.08.11-.08c.04-.03.08-.05.12-.08s.08-.05.12-.07.08-.05.12-.07zm1.71 0c-.4 0-.77.07-1.11.19a2.78 2.78 0 0 0-.9.53c-.25.22-.46.49-.6.79s-.21.62-.21.96h-.48v-.02-.04-.02l-6.29 11.68-.54 1h20.82l-7.29-12.58a2.65 2.65 0 0 1-.24 1.12c-.16.35-.4.66-.7.92s-.66.47-1.05.62a3.66 3.66 0 0 1-1.3.23c-.46 0-.91-.08-1.31-.23s-.77-.36-1.08-.62-.56-.57-.74-.92-.28-.73-.28-1.12h.48a2.1 2.1 0 0 0 .24.96 2.78 2.78 0 0 0 .63.79 2.75 2.75 0 0 0 .93.53c.35.12.73.2 1.13.2a3.14 3.14 0 0 0 1.12-.2c.34-.13.65-.31.9-.53s.46-.49.6-.79.21-.62.2-.96-.1-.67-.25-.96a2.78 2.78 0 0 0-.63-.79c-.26-.23-.58-.4-.92-.53s-.72-.19-1.12-.19m1.77 0h-.06a.89.89 0 0 0 .1.05c.03.01.07.04.1.06l.1.06.1.06v-.02l-.09-.06c-.03-.02-.05-.04-.08-.06s-.05-.04-.08-.05-.06-.03-.08-.05m-27.14-.47h-.17c-.05 0-.12 0-.17.01s-.12.01-.17.02l-.17.03h1.39l-.17-.03-.17-.02c-.06-.01-.12 0-.17-.01s-.12 0-.17 0m25.34 0h-.17c-.05 0-.12 0-.17.01s-.12.01-.17.02l-.17.03h1.39l-.17-.03-.17-.02c-.05-.01-.12 0-.17-.01s-.12 0-.17 0"
                  fill="#ceddfa" class="G"/>
            <path d="M346.115 175.775s0 .05.01.07 0 .05 0 .07v.07.07a3.29 3.29 0 0 1-.01.63c-.02.2-.07.4-.12.6s-.14.38-.23.55-.2.34-.32.5a3.07 3.07 0 0 0 .38-.51c.11-.18.2-.38.26-.58a3.2 3.2 0 0 0 .13-.63c.02-.22.02-.43 0-.66l-.11-.19m-17.42-.57h-6.1l-.05.21c-.02.07-.02.14-.03.21s-.01.14-.02.22 0 .15 0 .22a2.95 2.95 0 0 0 .31 1.18 3.44 3.44 0 0 0 .73.97c.3.28.66.5 1.05.66s.82.24 1.26.24.86-.09 1.23-.24.71-.38.98-.66a2.95 2.95 0 0 0 .63-.97c.14-.36.21-.76.19-1.18 0-.07-.01-.15-.02-.22l-.04-.22-.05-.21-.07-.21zm16.73 0h-6.1c-.02.07-.03.14-.04.21l-.03.21c-.01.07 0 .14-.01.22s0 .15 0 .22h-.52v-.22-.22c0-.07.01-.14.02-.21l.03-.21h-9.53l.06.21.05.21c.02.07.02.14.03.22l.02.22c.02.32-.01.63-.08.93s-.18.58-.32.84a3.34 3.34 0 0 1-.53.72c-.21.22-.45.4-.71.56h12.98c-.28-.16-.54-.34-.78-.56a4.22 4.22 0 0 1-.62-.72c-.18-.26-.32-.54-.42-.84a3.66 3.66 0 0 1-.19-.93h.52c.03.42.15.82.34 1.18a3.71 3.71 0 0 0 .75.97c.3.28.67.5 1.06.66s.82.24 1.26.24.85-.09 1.22-.24.7-.38.97-.66.48-.61.61-.97.19-.76.16-1.18c0-.07-.01-.15-.03-.22s-.03-.15-.04-.22-.04-.14-.06-.21l-.07-.21zm-19.88-2.17c-.31 0-.61.04-.89.12s-.54.2-.78.34a2.7 2.7 0 0 0-.64.53 2.81 2.81 0 0 0-.46.68h5.68c-.14-.25-.32-.47-.52-.68s-.43-.38-.69-.53a3.39 3.39 0 0 0-.81-.34 3.37 3.37 0 0 0-.9-.12m16.67 0a3.12 3.12 0 0 0-.88.12c-.27.08-.54.2-.77.34s-.44.32-.62.53a2.73 2.73 0 0 0-.44.68h5.68a3.51 3.51 0 0 0-.54-.68 3.31 3.31 0 0 0-.7-.53c-.26-.15-.53-.26-.82-.34a3.37 3.37 0 0 0-.9-.12m-11.15-16.34h-.07l-.08.06c-.03.02-.05.04-.08.06s-.05.04-.08.06-.05.04-.08.06l-.02.04s.06-.05.1-.07.07-.05.1-.07l.1-.07a1.09 1.09 0 0 1 .11-.06m1.86 0a3.27 3.27 0 0 0-1.19.22 2.87 2.87 0 0 0-.95.61 2.65 2.65 0 0 0-.61.91c-.14.34-.2.73-.18 1.12h-.52l-4.96 10.9-1.31 2.89a2.93 2.93 0 0 1 .5-.34c.18-.1.36-.18.56-.25s.4-.12.61-.16.43-.05.65-.05a4.08 4.08 0 0 1 1.11.16c.35.1.69.25.99.44a4.12 4.12 0 0 1 .82.68c.24.26.44.56.6.88h9.87c.12-.32.28-.61.49-.88s.46-.49.74-.68.6-.34.94-.44a3.88 3.88 0 0 1 1.09-.16c.25 0 .49.02.73.07s.47.11.69.19a3.78 3.78 0 0 1 .64.31c.2.12.39.26.57.41l-8.08-13.96a3.01 3.01 0 0 1-.2 1.31 3.22 3.22 0 0 1-.71 1.08 3.35 3.35 0 0 1-1.11.73c-.42.17-.9.27-1.4.27a4.09 4.09 0 0 1-1.44-.27c-.45-.17-.85-.42-1.2-.73a3.66 3.66 0 0 1-.84-1.08 3.33 3.33 0 0 1-.36-1.31h.52c.02.4.13.78.31 1.13a3.06 3.06 0 0 0 .72.92 3.37 3.37 0 0 0 1.03.62c.38.14.8.23 1.23.23a3.13 3.13 0 0 0 1.2-.23 2.95 2.95 0 0 0 .95-.62c.26-.26.47-.58.61-.92a2.49 2.49 0 0 0 .17-1.13c-.03-.4-.14-.78-.32-1.12s-.43-.65-.72-.91-.64-.47-1.02-.61a3.52 3.52 0 0 0-1.22-.22m1.93 0h-.07a1.04 1.04 0 0 0 .12.07c.04.03.08.05.12.07s.08.05.11.07l.11.08-.02-.04-.09-.07-.09-.06-.09-.06-.09-.06m-1.96-.54h-.17c-.05 0-.12 0-.17.01s-.11.01-.17.02l-.17.03h1.39l-.17-.03c-.05-.01-.12-.01-.17-.02s-.12 0-.17-.01-.12 0-.17 0"
                  class="B G"/>
        </g>
        <path d="M263.615 179.615h-.59l-14.55 26.99s-.03.07-.03.11 0 .07.01.1.03.06.05.09a.27.27 0 0 0 .08.07s.02 0 .03.01.02 0 .03 0h.03.03c.03 0 .05 0 .07-.01s.05-.02.07-.03.04-.03.06-.05.04-.04.05-.07l14.65-27.22m.9-1.67l-.25.32-.28.29-.31.26-.34.23-.03.06h.58l.63-1.16zm-.08-.94v.02l-.35.63.1-.15.09-.16c.03-.05.06-.11.08-.17s.05-.12.07-.17m1.56-1.8h-.58l-.26.47v.1.1.1.1c0 .1-.01.19-.02.28a2.74 2.74 0 0 1-.05.28l-.07.27-.09.26 1.06-1.95m9.96-18.52h-.57l-9.7 18.01h.58l8.19-15.22c.01-.25.05-.49.12-.72a3.81 3.81 0 0 1 .27-.66 2.97 2.97 0 0 1 .41-.59c.16-.18.33-.35.52-.5l.02-.04.15-.29m1.99-4.72l-2.29 4.24h.57l2-3.7-.22-.44-.05-.1m13.62-25.27l-13.32 24.73.22.44.05.1 13.32-24.77-.22-.41-.05-.09zm2.63-3.87h-.54l-1.82 3.37.22.41.05.09 2.09-3.87zm8.33-15.49h-.52l-.52.97-6.22 11.53c0 .23-.03.46-.09.67a2.98 2.98 0 0 1-.25.62 3.04 3.04 0 0 1-.39.55c-.15.17-.32.32-.51.46l-.03.05-.11.2h.54l.54-1 6.29-11.68c0-.21.03-.41.09-.61s.13-.38.23-.56a3.45 3.45 0 0 1 .35-.5 2.3 2.3 0 0 1 .46-.42l.04-.08.12-.22m1.66-4.04l-1.97 3.63h.52l1.71-3.17-.22-.38-.05-.09m9.28-16.96h-.06c-.02 0-.04.01-.06.02s-.03.02-.05.03-.02.03-.03.05l-8.83 16.39.22.38.05.09 8.98-16.69s.02-.05.02-.07 0-.05-.01-.07-.03-.04-.05-.06-.04-.03-.07-.05h-.03-.09m-21.77 93.299h-.28l-13.43 26.99s-.03.07-.03.11 0 .07.01.1.03.06.05.09.05.05.09.07c0 0 .02 0 .03.01s.02 0 .03 0h.03.03c.03 0 .05 0 .07-.01s.05-.02.07-.03.04-.03.06-.05.03-.04.05-.07l13.37-26.92-.15-.3m2.5-4.42h-.58l-1.76 3.54.18.36h.23l1.94-3.91m.87-1.74c-.07.12-.15.23-.24.34l-.28.31a4.12 4.12 0 0 1-.31.28c-.11.09-.22.17-.34.24l-.03.07h.58l.62-1.23m-.18-.82l-.02.04v.03h-.02l-.21.44-.03.05-.02.04.09-.14c.03-.05.05-.1.08-.15s.05-.1.07-.16l.06-.16m8.51-15.96h-.57l-7.28 14.64v.09.09.09.09l-.01.3-.04.29-.06.29a1.31 1.31 0 0 1-.09.28l8.03-16.16m1.79-4.73l-2.11 4.25h.56l1.84-3.7-.24-.44-.05-.1m12.7-25.01c-.01.23-.05.46-.12.68s-.16.42-.28.62a2.76 2.76 0 0 1-.43.54 3.32 3.32 0 0 1-.55.44l-11.05 22.2.24.44.05.1 11.93-24 .37-.74-.15-.27m2.33-4.12h-.53l-1.69 3.38.23.41.05.09 1.93-3.89m7.7-15.49h-.53l-7.49 15.07h.53l7.49-15.07zm10.06-20.999h-.06c-.02 0-.04.01-.05.02s-.03.02-.05.03-.02.03-.03.05l-10.2 20.489h.53l10.09-20.319s.02-.05.02-.07 0-.05-.02-.07-.03-.04-.05-.06-.05-.03-.08-.05h-.03-.09m-102.36 93.279h-.59l-15.65 26.99s-.03.07-.04.11 0 .07 0 .1.02.06.04.09a.27.27 0 0 0 .08.07s.02 0 .03.01.02 0 .03 0h.03.03c.03 0 .05 0 .08-.01s.05-.02.07-.03.04-.03.06-.05.04-.04.05-.07l15.77-27.22m2.1-4.42h-.13l-.34.59v.04l-1.92 3.28h.59l1.53-2.64.08-.13v-.07-.07-.07-.07c0-.07.01-.15.02-.22l.04-.22.05-.21.06-.21m11.18-18.52h-.57l-10.45 18.01h.05a3.35 3.35 0 0 1 .27-.45 4.23 4.23 0 0 1 .33-.41 3.33 3.33 0 0 1 .39-.36l.43-.31 9.53-16.47m16.67-29.73l-16.96 29.25h.57l16.65-28.74-.21-.42-.05-.09zm2.93-4.13h-.53l-2.1 3.62.08.16.12.26.05.09 2.38-4.14m8.98-15.49h-.52l-.08.13-8.67 14.94h.53l7.18-12.39v-.05-.05-.05-.05c0-.25.05-.48.12-.71s.18-.44.31-.64.29-.39.46-.56.38-.32.6-.45l.07-.11m1.68-3.8l-1.97 3.4h.52l1.69-2.93-.2-.38-.05-.09m10.12-17.2h-.06c-.02 0-.04.01-.06.02s-.04.02-.05.03-.03.03-.04.05l-9.64 16.63.2.38.05.09 9.81-16.93s.02-.05.02-.07 0-.05-.01-.07-.02-.04-.04-.06-.04-.03-.07-.05h-.02-.09m17.6 122.98s-.01 0-.02.01h-.06.03.03c.01 0 .02 0 .03-.01s.02 0 .03-.01m-.41-.15s0 .02.01.03.01.02.02.03.01.02.02.03l.03.03-.02-.02-.02-.02-.02-.02c-.01-.01 0-.02-.01-.02l-.02-.03m13.68-29.56h-.28l-2.87 6.29-.02.06-.04.09-1.36 2.98v.03l-8.37 18.34-.47 1.04.26.52s.02.03.02.05v.05.05.05l.69-1.53 8.36-18.35v-.02l1.36-2.98.04-.1.02-.07 2.82-6.2-.16-.3zm2.02-4.42h-.29l-1.62 3.54.2.36h.22l1.41-3.1v-.21c0-.07 0-.14.01-.2s.01-.13.02-.2.02-.13.04-.2m8.73-18.52h-.57l-6.18 13.55-1.41 3.1-.4.86-.23.5h.21a3.39 3.39 0 0 1 .18-.39c.07-.13.15-.24.23-.36s.18-.22.27-.33a2.13 2.13 0 0 1 .31-.29l1.31-2.89 4.96-10.9a3.17 3.17 0 0 1 .05-.76c.05-.24.12-.48.23-.7a3.55 3.55 0 0 1 .38-.62c.15-.19.32-.36.52-.52l.02-.04.11-.24m1.57-4.68l-1.92 4.2h.57l1.67-3.66-.26-.44-.06-.1zm7.16-15.35h-.07c-.03 0-.04.01-.06.03s-.04.02-.05.04-.03.03-.04.05l-.66 1.47-5.11 11.19-.92 2.01.26.45.06.1 1.07-2.35 5.11-11.21.67-1.46s.02-.06.01-.09 0-.06-.02-.08-.03-.05-.06-.07-.05-.04-.08-.05c0 0-.02 0-.03-.01s-.02 0-.03 0h-.06"
              class="B E"/>
        <path d="M320.625 179.615h-.59l.16.3 14.49 26.92a.5.5 0 0 0 .05.07c.02.02.04.04.06.05s.05.02.07.03.05.01.08.01h.03.03.03c.01 0 .02 0 .03-.01a.27.27 0 0 0 .08-.07c.02-.03.04-.06.05-.09a.17.17 0 0 0 0-.1c-.01-.03-.02-.07-.04-.11l-14.54-26.99m-2.38-4.42h-.59l2.11 3.91h.58l-.2-.36-1.91-3.54m-9.99-18.52h-.57l9.7 18.01h.59l-9.71-18.01m-18.26-33.86h-.53l2.08 3.87.05.09.22.41 13.33 24.76.05.1.24.44 1.99 3.7h.57l-2.29-4.25-.05-.1-.24-.44-13.32-24.72-.05-.09-.22-.41-1.82-3.37m-8.35-15.49h-.52l.07.13a3.14 3.14 0 0 1 .57.45 2.82 2.82 0 0 1 .43.55c.12.2.21.41.27.64s.09.46.09.7v.04.04.04.04l6.15 11.42.54 1h.53l-.11-.21-.05-.1c-.17-.13-.33-.28-.47-.44a2.68 2.68 0 0 1-.36-.52c-.1-.19-.18-.38-.24-.58s-.09-.41-.1-.63l-6.27-11.62-.52-.97m-11.45-21h-.03-.03-.03-.03c-.03.01-.05.03-.08.05s-.04.04-.05.06-.02.05-.02.07 0 .05.02.07l9.1 16.93.05.09.2.38 1.57 2.93h.52l-1.83-3.4-.05-.09-.2-.38-8.96-16.63s-.02-.03-.04-.05-.03-.02-.05-.03-.04-.02-.06-.02h-.06m78.78 93.319h-.58l15.76 27.22a.5.5 0 0 0 .05.07c.02.02.04.04.06.05s.05.02.07.03.05.01.08.01c0 0 .07 0 .1-.02s.06-.04.08-.06.04-.06.05-.09.02-.07.01-.11v-.05c0-.02-.01-.03-.02-.05s-.02-.03-.03-.04-.02-.03-.03-.04l-15.61-26.93m-2.55-4.42h-.4l.04.14c.01.05.03.09.04.14l.03.14.03.15.11.19 1.82 3.15h.58l-2.26-3.91m-10.73-18.52h-.57l.14.25.02.04c.21.15.4.32.57.51a3.31 3.31 0 0 1 .45.61c.12.22.23.45.31.69a3.12 3.12 0 0 1 .15.75l8.08 13.96c.1.08.19.17.28.26s.17.19.25.29.15.2.22.31l.19.33h.32v-.02l-9.82-16.93-.02-.02-.6-1.05m-19.63-33.86h-.54l.8 1.38a4.3 4.3 0 0 1 .63.47c.19.17.35.38.49.59a2.85 2.85 0 0 1 .33.68 2.69 2.69 0 0 1 .14.75v.06.06.06.06l.15.27 14.35 24.79.06.1.26.44 2.13 3.66h.57l-2.44-4.21-.06-.1-.26-.45-14.36-24.74-.05-.09-.23-.41-.42-.74h-.01l-1.52-2.65m-8.99-15.49h-.52l.13.22v.02c.2.13.38.28.53.44s.29.34.41.53.2.39.27.6a2.4 2.4 0 0 1 .11.66l7.29 12.58h.54l-8.18-14.09-.56-.97m-12.31-21h-.03-.03-.03c-.05.01-.07.03-.09.05s-.03.04-.04.06-.01.05-.01.07 0 .05.02.07l9.67 16.69.05.09.22.38 1.83 3.17h.52l-2.1-3.63-.05-.09-.22-.38-9.5-16.39-.03-.05c-.01-.02-.03-.02-.05-.03s-.04-.02-.06-.02h-.06m-2.46 93.36h-.59l.15.3 13.37 26.92 1.16 2.33.02.03s0 .02.01.02 0 .02.02.02.01.01.02.02l.02.02c.01.01.03.02.04.03s.03.02.04.02.03.01.05.01h.05.02.02.02s.01 0 .02-.01c.02 0 .03-.02.04-.03s.02-.02.03-.04.02-.03.03-.04.01-.03.02-.05v-.05-.05-.05c0-.02-.01-.03-.02-.05l-.26-.52-.92-1.84-13.43-26.99m-2.2-4.42h-.58l1.95 3.91h.58l-.18-.36-1.77-3.54m-9.21-18.52h-.57l.13.25.02.04a3.2 3.2 0 0 1 .53.51c.16.19.29.39.4.61a2.85 2.85 0 0 1 .25.69c.05.24.09.49.09.75l6.77 13.62.03.06.74 1.48h.58l-.06-.12c-.24-.16-.46-.35-.65-.55s-.36-.44-.5-.68-.25-.51-.32-.79-.11-.57-.11-.86v-.07-.07-.07-.07l-6.78-13.61-.55-1.13m-16.85-33.86h-.54l1.97 3.97.08.17.05.09.21.42 12.18 24.5.05.1.22.44 1.83 3.7h.57l-2.11-4.24-.05-.1-.22-.44-12.18-24.47-.05-.09-.12-.24-.08-.18-1.81-3.62m-7.71-15.49h-.52l7.49 15.07h.54l-7.5-15.07m-10.59-20.999h-.02-.02-.02-.02c-.03.01-.06.03-.08.05s-.04.04-.05.06-.02.05-.02.07a.17.17 0 0 0 .01.07l10.1 20.319h.52l-10.19-20.489-.03-.05c-.01-.02-.03-.02-.05-.03s-.04-.02-.06-.02h-.06"
              class="B E"/>
        <path d="M361.535 179.104h-16.95c-.13.08-.27.15-.42.22s-.3.12-.46.16l-.49.1a4.36 4.36 0 0 1-.51.03c-.17 0-.35-.01-.52-.03a4.02 4.02 0 0 1-.5-.1 3.86 3.86 0 0 1-.48-.16c-.15-.06-.31-.14-.45-.22h-12.98l-.43.22c-.15.07-.3.12-.46.16l-.49.1c-.17.02-.34.03-.52.03s-.35-.01-.52-.03a4.02 4.02 0 0 1-.5-.1c-.16-.04-.32-.1-.48-.16s-.3-.14-.45-.22h-60.7a4.71 4.71 0 0 1-.45.22c-.16.07-.31.12-.48.16l-.5.1c-.17.02-.34.03-.52.03s-.35-.01-.52-.03-.33-.06-.49-.1a3.57 3.57 0 0 1-.46-.16c-.15-.06-.29-.14-.43-.22h-16.51l-.45.22c-.15.07-.32.12-.48.16l-.5.1c-.17.02-.34.03-.52.03s-.35-.01-.52-.03-.33-.06-.49-.1-.31-.1-.46-.16a2.78 2.78 0 0 1-.42-.22h-16.95s-.07 0-.1.02-.06.03-.09.06a.5.5 0 0 0-.07.08c-.02.03-.03.06-.03.1s0 .07.01.1.03.06.05.08.05.04.08.06.06.02.1.02h139.55s.07 0 .1-.02.06-.03.08-.06.04-.05.05-.08.02-.06.01-.1-.01-.07-.03-.1a.27.27 0 0 0-.07-.08l-.09-.06c-.03-.02-.07-.02-.1-.02m-72.85-7.42h-.52c0 .3.04.59.11.86a3.36 3.36 0 0 0 .32.79 3.41 3.41 0 0 0 .5.68c.19.2.41.39.65.55.02.01.03.02.05.03s.03.02.05.03.03.02.05.03.03.02.05.03h1.91c-.44 0-.86-.08-1.24-.24s-.72-.37-1.01-.65-.52-.6-.68-.96-.25-.75-.25-1.17m3.17-3.48c-.48 0-.95.09-1.37.25s-.81.39-1.14.68-.6.63-.8 1.02a3.4 3.4 0 0 0-.37 1.27v.07.07.07.07h.52c0-.41.1-.81.26-1.17s.39-.68.68-.95.63-.49 1-.64.79-.24 1.23-.24c.43 0 .85.09 1.22.24a3.17 3.17 0 0 1 1 .64c.28.27.52.59.68.95s.25.75.25 1.17v.25c0 .08-.02.16-.03.24a2.05 2.05 0 0 1-.05.24c-.02.08-.04.15-.07.23l-.06.16-.07.16c-.02.05-.05.1-.08.15l-.09.15c-.14.21-.31.41-.5.59s-.4.33-.63.45-.48.23-.74.29a3.68 3.68 0 0 1-.82.1h1.9s.02-.01.03-.02.02-.01.03-.02.02-.01.03-.02.02-.01.03-.02c.12-.07.23-.16.34-.24s.21-.18.31-.28a4.12 4.12 0 0 0 .28-.31c.09-.11.16-.22.24-.34l.09-.15c.03-.05.05-.1.08-.15s.05-.1.07-.16l.06-.16.09-.28c.03-.1.05-.19.06-.29l.04-.29c.01-.1.01-.2.01-.3v-.09-.09-.09-.09c-.05-.44-.19-.85-.39-1.23s-.48-.71-.8-.99-.71-.5-1.12-.66-.87-.24-1.34-.24"
              class="B E"/>
        <path d="M238.195 175.205h-.55l-.06.21-.05.21-.04.22-.02.22h.53c0-.07.01-.15.03-.22s.03-.15.04-.22.04-.14.06-.21l.07-.21m6.65 0h-.55c.02.07.03.14.04.21l.03.21c.01.07 0 .14 0 .22v.22c-.03.42-.15.82-.33 1.18a3.33 3.33 0 0 1-.75.97c-.31.28-.67.5-1.06.66s-.82.24-1.26.24-.86-.09-1.23-.24a2.7 2.7 0 0 1-.96-.66c-.26-.28-.47-.61-.61-.97a2.71 2.71 0 0 1-.16-1.18h-.53v.07.07.07.07c0 .18.01.35.04.51a4.37 4.37 0 0 0 .12.49c.05.16.11.31.19.46a2.96 2.96 0 0 0 .26.42 1.71 1.71 0 0 0 .21.26l.23.24a1.71 1.71 0 0 0 .26.21l.28.19c.13.08.27.15.42.22s.3.12.46.16l.49.1c.17.02.34.03.52.03s.35-.01.52-.03a4.02 4.02 0 0 0 .5-.1c.16-.04.32-.1.48-.16a3.13 3.13 0 0 0 .45-.22c.28-.16.54-.34.78-.56a4.22 4.22 0 0 0 .62-.72 3.7 3.7 0 0 0 .43-.84c.11-.3.17-.61.19-.93v-.22-.22c0-.07-.01-.14-.02-.21l-.03-.21m-3.4-2.67c-.2 0-.39.01-.58.04s-.38.07-.56.12a3.39 3.39 0 0 0-.53.2l-.49.26a3.36 3.36 0 0 0-.43.31l-.39.36a3.29 3.29 0 0 0-.33.41 4.12 4.12 0 0 0-.27.45h.58a3.51 3.51 0 0 1 .54-.68 3.31 3.31 0 0 1 .7-.53c.26-.15.53-.26.82-.34a3.37 3.37 0 0 1 .9-.12 3.12 3.12 0 0 1 .88.12c.27.08.54.2.77.34s.44.32.62.53a2.73 2.73 0 0 1 .44.68h.58c-.12-.32-.28-.61-.49-.88s-.46-.49-.74-.68-.6-.34-.94-.44a3.88 3.88 0 0 0-1.09-.16m16.95 2.67h-.54l-.06.21c-.02.07-.03.14-.04.21l-.03.22-.02.22h.52c0-.07.01-.15.02-.22l.04-.22.05-.21.07-.21m6.65 0h-.55l.05.21c.02.07.02.14.03.21s.01.14.02.22 0 .15 0 .22c0 .08-.01.16-.02.24l-.04.24-.06.23c-.02.07-.05.15-.08.23-.02.06-.05.12-.07.17a2.45 2.45 0 0 1-.08.17l-.09.16-.1.16c-.15.22-.33.41-.53.59s-.42.33-.66.45-.49.23-.76.29a3.77 3.77 0 0 1-.83.1 3.38 3.38 0 0 1-1.24-.24c-.38-.15-.71-.38-.99-.66a2.98 2.98 0 0 1-.64-.97 2.72 2.72 0 0 1-.2-1.18h-.52c-.02.32.01.63.08.93s.18.58.32.84.33.5.53.72a3.25 3.25 0 0 0 .71.56l.43.22c.15.07.3.12.46.16l.49.1c.17.02.34.03.52.03s.35-.01.52-.03a4.02 4.02 0 0 0 .5-.1 4.5 4.5 0 0 0 .48-.16c.16-.06.3-.14.45-.22 0 0 .02-.01.03-.02s.02-.01.03-.02.02-.01.03-.02.02-.01.03-.02c.12-.07.23-.15.34-.23s.21-.17.31-.26.19-.19.28-.29a3.92 3.92 0 0 0 .25-.32l.12-.19.11-.2c.03-.07.07-.13.1-.2l.09-.21.09-.26a2.68 2.68 0 0 0 .07-.27l.05-.28c.02-.1.02-.19.02-.28v-.1-.1-.1-.1c0-.04 0-.08-.01-.12s0-.08-.02-.12-.01-.08-.02-.12-.02-.08-.02-.12m-3.48-2.67c-.39 0-.76.06-1.11.16s-.69.25-.99.44a4.12 4.12 0 0 0-.82.68c-.24.26-.44.56-.6.88h.58c.14-.25.32-.47.52-.68a3.19 3.19 0 0 1 .68-.53 3.23 3.23 0 0 1 .81-.34 3.37 3.37 0 0 1 .9-.12 3.12 3.12 0 0 1 .88.12c.27.08.54.2.78.34a2.7 2.7 0 0 1 .64.53 2.81 2.81 0 0 1 .46.68h.58c-.13-.32-.3-.61-.52-.88a3.28 3.28 0 0 0-.76-.68c-.29-.19-.61-.34-.95-.44a3.88 3.88 0 0 0-1.09-.16m18.37-15.791h-3.71l-.13.07c-.04.02-.08.05-.12.08s-.08.05-.12.08l-.12.09c-.19.15-.37.32-.52.5a4.13 4.13 0 0 0-.41.59 2.7 2.7 0 0 0-.27.66c-.06.23-.11.47-.12.72v.02.02.04h.51c.01-.4.11-.78.27-1.12a2.89 2.89 0 0 1 .69-.91 3.2 3.2 0 0 1 1-.61 3.42 3.42 0 0 1 1.21-.22c.43 0 .83.08 1.2.22s.7.35.97.61a2.92 2.92 0 0 1 .65.91c.15.34.23.73.23 1.12 0 .4-.1.78-.27 1.13a3.1 3.1 0 0 1-.68.92c-.28.26-.63.48-1 .62s-.79.23-1.22.23-.84-.08-1.21-.23-.7-.36-.98-.62-.5-.58-.65-.92-.23-.73-.22-1.13h-.51c-.01.46.08.91.25 1.31s.43.77.75 1.08a3.48 3.48 0 0 0 1.14.73c.43.17.91.27 1.41.27a3.9 3.9 0 0 0 1.42-.27c.43-.17.84-.42 1.17-.73s.61-.67.8-1.08.3-.85.3-1.31a3.08 3.08 0 0 0-.09-.75c-.06-.24-.14-.47-.25-.69s-.24-.42-.4-.61a3.2 3.2 0 0 0-.53-.51c-.03-.03-.07-.05-.1-.08s-.07-.05-.11-.07-.07-.05-.11-.07-.07-.05-.11-.07m8.93-36.88h-.48v.02.02.02.02c0 .22.04.43.1.63s.14.4.24.58a3.02 3.02 0 0 0 .36.52c.14.16.3.31.47.44.04.03.08.06.12.08s.08.05.12.08.08.05.12.08a.54.54 0 0 0 .13.07h1.75c-.41 0-.79-.08-1.14-.21s-.67-.32-.93-.55-.48-.51-.63-.82a2.26 2.26 0 0 1-.23-1m2.93-2.96c-.47 0-.92.08-1.32.23a3.74 3.74 0 0 0-1.08.63 2.88 2.88 0 0 0-.73.94c-.17.35-.27.75-.27 1.16h.48c0-.35.09-.69.24-.99s.36-.58.63-.81.58-.42.93-.55.73-.2 1.13-.2.78.07 1.13.2a2.9 2.9 0 0 1 .93.55c.27.24.48.5.63.81a2.25 2.25 0 0 1 .23.99 2.29 2.29 0 0 1-.23 1c-.15.31-.36.58-.63.82a2.9 2.9 0 0 1-.93.55c-.35.13-.74.2-1.14.21h1.75l.11-.06a.88.88 0 0 0 .1-.06c.03-.02.07-.04.1-.07s.07-.05.1-.07c.19-.14.36-.29.51-.46a3.04 3.04 0 0 0 .39-.55c.11-.2.19-.4.25-.62s.09-.44.09-.67c0-.41-.1-.8-.27-1.16a2.88 2.88 0 0 0-.73-.94 3.41 3.41 0 0 0-1.08-.63c-.41-.15-.85-.23-1.32-.23m22.45 6.801a3.56 3.56 0 0 0-1.32.24c-.4.16-.77.37-1.07.65s-.54.6-.71.96a2.6 2.6 0 0 0-.24 1.18h.49c-.01-.36.06-.7.2-1.02s.35-.59.61-.83.57-.42.92-.56.73-.2 1.14-.2.8.07 1.15.2.68.32.96.56.5.51.67.83a2.43 2.43 0 0 1 .28 1.02c.01.36-.06.71-.2 1.02s-.34.6-.6.83a2.95 2.95 0 0 1-.92.56 3.31 3.31 0 0 1-1.15.21c-.41 0-.8-.07-1.16-.21a3.51 3.51 0 0 1-.96-.56c-.28-.23-.5-.52-.66-.83a2.37 2.37 0 0 1-.26-1.02h-.49c.01.42.12.82.31 1.19a3.15 3.15 0 0 0 .77.97c.32.27.7.5 1.12.66a3.8 3.8 0 0 0 1.35.24c.18 0 .36-.01.54-.04l.51-.11.47-.17c.15-.06.3-.15.43-.23.2-.13.39-.28.55-.44s.31-.34.43-.54.21-.4.28-.62a2.55 2.55 0 0 0 .12-.68v-.06-.06-.06-.06a2.69 2.69 0 0 0-.14-.75 2.85 2.85 0 0 0-.33-.68c-.14-.21-.3-.41-.49-.59a3.23 3.23 0 0 0-.63-.47l-.45-.23c-.16-.07-.32-.12-.48-.17s-.34-.08-.51-.11-.35-.04-.53-.04m-8.06-16.311h-3.41s-.08.04-.12.07-.08.05-.12.07-.08.05-.12.08-.08.05-.11.08a3.7 3.7 0 0 0-.46.42c-.14.15-.25.32-.35.5s-.17.37-.23.56-.08.4-.09.61v.04.02l.48.02a2.21 2.21 0 0 1 .21-.96 2.67 2.67 0 0 1 .6-.79c.25-.23.56-.4.9-.53a3.12 3.12 0 0 1 1.11-.19c.39 0 .77.07 1.12.19a2.88 2.88 0 0 1 .92.53 2.53 2.53 0 0 1 .63.79 2.28 2.28 0 0 1 .25.96 2.07 2.07 0 0 1-.2.96 2.51 2.51 0 0 1-.6.79 2.71 2.71 0 0 1-.9.53c-.34.12-.72.2-1.12.2s-.78-.07-1.13-.2-.66-.31-.93-.53-.48-.49-.63-.79-.24-.62-.24-.96h-.48c0 .4.11.78.28 1.12s.43.66.74.92.68.47 1.08.62.85.23 1.31.23a3.7 3.7 0 0 0 1.3-.23c.4-.15.76-.36 1.05-.62a2.85 2.85 0 0 0 .7-.92c.16-.35.25-.72.24-1.12 0-.23-.04-.45-.11-.66s-.15-.41-.27-.6-.25-.37-.41-.53-.33-.31-.52-.44l-.1-.06c-.04-.02-.07-.04-.1-.06l-.1-.06c-.03-.02-.07-.04-.1-.05"
              class="B E"/>
        <path d="M280.965 107.334h-3.41s-.04.02-.05.03-.04.02-.05.03-.03.02-.05.03-.03.02-.05.03a3.36 3.36 0 0 0-.6.45c-.18.17-.33.36-.46.56s-.23.42-.31.64-.11.46-.12.71h.48c0-.34.1-.67.25-.96a2.78 2.78 0 0 1 .63-.79c.26-.23.58-.4.92-.53s.72-.19 1.12-.19.77.07 1.11.19a2.78 2.78 0 0 1 .9.53c.25.22.46.49.6.79s.22.62.21.96-.09.67-.24.96a2.78 2.78 0 0 1-.63.79 2.75 2.75 0 0 1-.93.53c-.35.12-.73.2-1.13.2a3.14 3.14 0 0 1-1.12-.2c-.34-.13-.65-.31-.9-.53s-.46-.49-.6-.79-.21-.62-.2-.96h-.48v.05.05.05.05c.02.37.13.73.3 1.05s.42.61.71.85a3.22 3.22 0 0 0 1.03.57 3.95 3.95 0 0 0 1.25.21c.44 0 .88-.08 1.27-.21s.75-.34 1.06-.58.56-.54.74-.87.3-.69.33-1.06v-.04-.04-.04-.04c0-.24-.03-.48-.09-.7s-.15-.44-.27-.64a2.82 2.82 0 0 0-.43-.55 3.14 3.14 0 0 0-.57-.45l-.06-.03-.18-.09m53.83 49.33h-3.71l-.11.06a.36.36 0 0 0-.1.07c-.03.03-.07.05-.1.07l-.1.07c-.19.15-.37.33-.52.52s-.28.4-.38.62-.18.45-.23.7-.07.5-.05.76h.52a2.59 2.59 0 0 1 .18-1.12 2.8 2.8 0 0 1 .61-.91 2.77 2.77 0 0 1 .95-.61 3.27 3.27 0 0 1 1.19-.22 3.52 3.52 0 0 1 1.22.22c.38.14.73.35 1.02.61s.54.57.72.91.29.73.32 1.12-.03.78-.17 1.13a2.6 2.6 0 0 1-.61.92c-.27.26-.59.48-.95.62a3.33 3.33 0 0 1-1.2.23 3.36 3.36 0 0 1-1.23-.23 3.58 3.58 0 0 1-1.03-.62 3.19 3.19 0 0 1-.72-.92 2.72 2.72 0 0 1-.31-1.13h-.52c.03.46.15.91.36 1.31s.49.77.84 1.08.75.56 1.2.73a4.05 4.05 0 0 0 1.44.27c.51 0 .97-.1 1.4-.27a3.25 3.25 0 0 0 1.11-.73c.31-.31.55-.67.71-1.08s.23-.85.2-1.31a3.12 3.12 0 0 0-.15-.75c-.08-.24-.18-.47-.31-.69a3.84 3.84 0 0 0-.45-.61c-.17-.19-.37-.36-.57-.51l-.11-.08c-.04-.03-.08-.05-.11-.07s-.08-.05-.12-.07-.08-.05-.12-.07m-12.19 18.499h-.54l-.04.2c-.01.07-.02.13-.02.2s-.01.13-.01.2v.21.03l.52.01v-.22c0-.07 0-.15.02-.22s.02-.14.03-.21a1.6 1.6 0 0 1 .05-.21m6.65 0h-.55l.07.21.05.21.04.22.02.22c.02.42-.04.82-.19 1.18a3.12 3.12 0 0 1-.63.97c-.27.28-.61.5-.98.66s-.79.24-1.23.24a3.53 3.53 0 0 1-1.26-.24c-.39-.15-.74-.38-1.05-.66a3.26 3.26 0 0 1-.73-.97 2.95 2.95 0 0 1-.31-1.18h-.52a3.25 3.25 0 0 0 .17.93c.1.3.23.58.4.84s.37.5.6.72.49.4.77.56a4.71 4.71 0 0 0 .45.22c.16.07.31.12.48.16l.5.1c.17.02.34.03.52.03s.35-.01.52-.03.33-.06.49-.1a3.57 3.57 0 0 0 .46-.16c.15-.06.29-.14.43-.22.26-.16.5-.34.71-.56a3.34 3.34 0 0 0 .53-.72c.14-.26.25-.54.32-.84s.1-.61.08-.93c0-.07-.01-.15-.02-.22l-.03-.22a1.6 1.6 0 0 0-.05-.21l-.06-.21zm-3.73-2.67c-.22 0-.44.02-.65.05s-.42.09-.61.16a3.99 3.99 0 0 0-.56.25c-.18.1-.34.21-.5.34a2.87 2.87 0 0 0-.31.29l-.27.33-.23.36c-.07.13-.13.25-.18.39h.58a2.81 2.81 0 0 1 .46-.68 2.96 2.96 0 0 1 .64-.53c.24-.15.5-.26.78-.34s.58-.12.89-.12a3.37 3.37 0 0 1 .9.12c.29.08.56.2.81.34s.48.32.69.53a3.07 3.07 0 0 1 .52.68h.58a4.03 4.03 0 0 0-.6-.88c-.24-.27-.52-.49-.82-.68s-.64-.34-.99-.44a4.08 4.08 0 0 0-1.11-.16m13.78 2.672h-.54l-.03.21-.02.21v.22.22h.52v-.22l.01-.22.03-.21.04-.21m6.65 0h-.55c.03.07.05.14.07.21l.06.21c.02.07.03.14.04.22l.03.22a2.71 2.71 0 0 1-.16 1.18c-.14.36-.34.69-.61.97s-.59.5-.97.66-.78.24-1.22.24a3.53 3.53 0 0 1-1.26-.24c-.39-.15-.75-.38-1.06-.66a3.33 3.33 0 0 1-.75-.97c-.18-.36-.31-.76-.34-1.18h-.52a3.66 3.66 0 0 0 .19.93c.1.3.25.58.42.84s.38.5.62.72.5.4.78.56l.45.22c.15.07.32.12.48.16l.5.1c.17.02.35.03.52.03s.35-.01.51-.03.33-.06.49-.1.31-.1.46-.16a2.78 2.78 0 0 0 .42-.22c.09-.05.17-.11.25-.17l.23-.18a3.87 3.87 0 0 0 .21-.2 2 2 0 0 0 .19-.22 2.84 2.84 0 0 0 .32-.5c.09-.18.17-.36.23-.55a2.9 2.9 0 0 0 .12-.6c.02-.21.03-.42.01-.63v-.07-.07-.07c0-.02 0-.05-.01-.07 0-.05-.02-.1-.03-.15l-.03-.14-.04-.14c-.01-.05-.03-.09-.04-.14m-3.79-2.67c-.39 0-.75.06-1.09.16s-.66.25-.94.44a3.42 3.42 0 0 0-.74.68c-.21.26-.37.56-.49.88h.58a2.73 2.73 0 0 1 .44-.68c.18-.21.39-.38.62-.53a2.82 2.82 0 0 1 .77-.34 3.17 3.17 0 0 1 .88-.12 3.37 3.37 0 0 1 .9.12c.29.08.56.2.82.34s.49.32.7.53a3.51 3.51 0 0 1 .54.68h.58l-.19-.33c-.07-.11-.14-.21-.22-.31l-.25-.29-.28-.26c-.18-.15-.37-.29-.57-.41s-.42-.22-.64-.31a3.2 3.2 0 0 0-.69-.19c-.24-.04-.48-.07-.73-.07"
              class="B E"/>
        <path d="M359.205 156.205h-134.78s-.07 0-.1.02-.06.03-.09.05-.05.05-.06.08-.03.06-.03.09 0 .06.01.09.03.05.05.08.05.04.08.05.06.02.1.02h134.88s.07 0 .1-.02.06-.03.08-.05.04-.05.05-.08.01-.06.01-.09-.01-.07-.03-.09-.04-.05-.06-.08-.06-.04-.09-.05-.07-.02-.1-.02m-5.04-49.271h-124.75s-.06 0-.09.02-.06.02-.08.04l-.06.06c-.02.02-.02.05-.03.08a.22.22 0 0 0 .01.08c.01.03.03.04.05.06s.04.03.07.04.06.02.09.02h124.83s.06 0 .09-.02.05-.02.07-.04.04-.04.05-.06.01-.05.01-.08-.01-.06-.03-.08-.03-.05-.06-.06-.05-.03-.08-.04-.06-.02-.09-.02z"
              class="B E"/>
        <path d="M355.765 122.404h-127.9s-.06 0-.1.02-.06.03-.08.05-.04.04-.06.07-.03.05-.03.09c0 .03 0 .06.01.08s.03.05.05.07.05.03.07.04a.24.24 0 0 0 .09.02h127.99s.06 0 .09-.02.05-.03.07-.04.04-.04.05-.07a.22.22 0 0 0 .01-.08c0-.03-.01-.06-.03-.09s-.04-.05-.06-.07-.05-.03-.08-.05-.06-.02-.1-.02m5.33 52.291h-138.55s-.07 0-.1.02-.06.03-.09.06a.5.5 0 0 0-.07.08c-.02.03-.03.06-.03.1s0 .07.01.1.03.06.05.08.05.04.08.06.06.02.1.02h138.65s.07 0 .1-.02.06-.03.08-.06.04-.05.05-.08.02-.06.01-.1-.01-.07-.03-.1a.27.27 0 0 0-.07-.08l-.09-.06c-.03-.02-.07-.02-.1-.02z"
              class="B E"/>
        <path d="M213.965 216.825h-.18v.07.07.07.07.07.07c0 .02 0 .05-.01.07s0 .05-.01.07h.18s.07 0 .11-.02.07-.04.1-.06.05-.06.07-.09.03-.07.03-.11 0-.08-.01-.11-.03-.06-.05-.09-.05-.05-.08-.06a.36.36 0 0 0-.11-.02m8.92 0h-4.47s-.07 0-.11.02-.07.03-.1.06a.55.55 0 0 0-.07.09c-.02.03-.03.07-.03.11s0 .07.01.11.03.06.05.09.05.05.08.06a.36.36 0 0 0 .11.02h4.47s.07 0 .11-.02a.35.35 0 0 0 .09-.06c.02-.02.05-.06.07-.09s.03-.07.03-.11 0-.08-.01-.11-.03-.06-.05-.09-.05-.05-.08-.06-.07-.02-.1-.02zm8.92 0h-4.47s-.07 0-.11.02-.07.03-.09.06-.05.06-.07.09-.03.07-.03.11a.41.41 0 0 0 .01.11c.01.04.03.06.05.09s.05.05.08.06a.36.36 0 0 0 .11.02h4.47s.07 0 .11-.02.06-.04.09-.06.05-.06.07-.09.03-.07.03-.11 0-.08-.01-.11-.03-.06-.05-.09-.05-.05-.08-.06-.07-.02-.1-.02m8.91 0h-4.46s-.07 0-.11.02-.07.03-.09.06-.05.06-.07.09-.03.07-.03.11 0 .07.01.11.03.06.05.09.05.05.08.06a.36.36 0 0 0 .11.02h4.46s.08 0 .11-.02.07-.04.09-.06.05-.06.07-.09.03-.07.03-.11 0-.08-.01-.11-.03-.06-.05-.09-.05-.05-.08-.06a.36.36 0 0 0-.11-.02zm8.92 0h-4.46s-.07 0-.11.02-.07.03-.09.06-.05.06-.07.09-.03.07-.03.11 0 .07.02.11.03.06.06.09.05.05.09.06.07.02.11.02h4.46s.08 0 .11-.02.07-.04.09-.06.05-.06.06-.09.03-.07.03-.11 0-.08-.01-.11-.03-.06-.05-.09-.05-.05-.09-.06-.07-.02-.11-.02m8.92 0h-4.46s-.08 0-.11.02-.07.03-.09.06-.05.06-.06.09-.03.07-.03.11 0 .07.02.11l.05.09c.02.03.05.05.09.06s.07.02.11.02h4.46s.08 0 .11-.02.07-.04.09-.06.05-.06.06-.09a1.64 1.64 0 0 0 .03-.11c0-.04 0-.08-.02-.11s-.03-.06-.05-.09-.05-.05-.09-.06-.07-.02-.11-.02zm8.92 0h-4.46s-.08 0-.11.02-.07.03-.09.06-.05.06-.06.09-.02.07-.03.11c0 .04 0 .07.02.11s.03.06.06.09.05.05.09.06.07.02.11.02h4.46s.07 0 .11-.02a.35.35 0 0 0 .09-.06c.02-.02.05-.06.06-.09s.03-.07.03-.11 0-.08-.02-.11-.03-.06-.06-.09-.05-.05-.09-.06-.07-.02-.11-.02zm8.92 0h-4.46s-.08 0-.11.02-.06.03-.09.06-.05.06-.06.09a.36.36 0 0 0-.02.11c0 .04 0 .07.02.11s.03.06.06.09.05.05.09.06.07.02.11.02h4.46s.07 0 .11-.02.06-.04.09-.06a.18.18 0 0 0 .06-.09 1.64 1.64 0 0 0 .03-.11c0-.04 0-.08-.02-.11s-.03-.06-.06-.09-.06-.05-.09-.06a.36.36 0 0 0-.11-.02m8.92 0h-4.47s-.07 0-.11.02-.06.03-.09.06-.05.06-.06.09a.36.36 0 0 0-.02.11c0 .04 0 .07.02.11s.03.06.06.09.05.05.09.06.07.02.11.02h4.47s.07 0 .11-.02.06-.04.09-.06a.18.18 0 0 0 .06-.09.36.36 0 0 0 .02-.11c0-.04 0-.08-.02-.11l-.06-.09a.18.18 0 0 0-.09-.06.36.36 0 0 0-.11-.02zm8.92 0h-4.47s-.07 0-.11.02-.06.03-.09.06-.04.06-.06.09-.02.07-.02.11 0 .07.02.11.03.06.06.09.05.05.09.06.07.02.11.02h4.47s.07 0 .11-.02.06-.04.09-.06a.18.18 0 0 0 .06-.09.36.36 0 0 0 .02-.11c0-.04 0-.08-.02-.11l-.06-.09a.18.18 0 0 0-.09-.06.36.36 0 0 0-.11-.02zm8.92 0h-4.47s-.07 0-.11.02-.06.03-.09.06-.05.06-.06.09a.36.36 0 0 0-.02.11c0 .04 0 .07.02.11s.04.06.06.09a.18.18 0 0 0 .09.06.36.36 0 0 0 .11.02h4.47s.07 0 .11-.02.06-.04.09-.06.04-.06.06-.09.02-.07.02-.11 0-.08-.02-.11-.03-.06-.06-.09-.05-.05-.09-.06-.07-.02-.11-.02zm8.92 0h-4.47s-.07 0-.11.02-.06.03-.09.06-.05.06-.06.09a.36.36 0 0 0-.02.11c0 .04 0 .07.03.11s.04.06.06.09a.18.18 0 0 0 .09.06.36.36 0 0 0 .11.02h4.47s.07 0 .11-.02.06-.04.08-.06.04-.06.06-.09.02-.07.02-.11 0-.08-.02-.11l-.06-.09c-.02-.03-.05-.05-.09-.06s-.07-.02-.11-.02zm8.91 0h-4.46s-.07 0-.11.02-.06.03-.09.06-.04.06-.06.09-.02.07-.02.11.01.07.03.11.04.06.06.09a.18.18 0 0 0 .09.06.36.36 0 0 0 .11.02h4.46s.08 0 .11-.02l.09-.06c.03-.02.04-.06.06-.09s.02-.07.02-.11-.01-.08-.03-.11l-.06-.09a.18.18 0 0 0-.09-.06.36.36 0 0 0-.11-.02zm8.92 0h-4.46s-.07 0-.11.02-.06.03-.09.06-.04.06-.06.09-.02.07-.02.11.01.07.03.11.04.06.07.09.06.05.09.06a.36.36 0 0 0 .11.02h4.46s.08 0 .11-.02l.09-.06c.03-.02.04-.06.05-.09a.36.36 0 0 0 .02-.11c0-.04-.01-.08-.03-.11l-.06-.09a.18.18 0 0 0-.09-.06.36.36 0 0 0-.11-.02zm8.92 0h-4.46s-.08 0-.11.02-.06.03-.09.06-.04.06-.05.09-.02.07-.01.11c0 .04.01.07.03.11s.04.06.06.09a.18.18 0 0 0 .09.06.36.36 0 0 0 .11.02h4.46s.08 0 .11-.02l.09-.06c.03-.02.04-.06.05-.09s.02-.07.01-.11c0-.04-.01-.08-.03-.11l-.06-.09a.18.18 0 0 0-.09-.06.36.36 0 0 0-.11-.02zm8.92 0h-4.46s-.08 0-.11.02-.06.03-.08.06-.04.06-.05.09-.02.07-.01.11c0 .04.01.07.03.11s.04.06.07.09.06.05.09.06a.36.36 0 0 0 .11.02h4.46s.07 0 .11-.02.06-.04.08-.06.04-.06.05-.09.02-.07.01-.11c0-.04-.01-.08-.03-.11s-.04-.06-.07-.09-.06-.05-.09-.06a.36.36 0 0 0-.11-.02zm8.92 0h-4.46s-.08 0-.11.02-.06.03-.08.06-.04.06-.05.09-.02.07-.01.11c0 .04.01.07.03.11s.04.06.07.09.06.05.09.06a.36.36 0 0 0 .11.02h4.46s.07 0 .11-.02.06-.04.08-.06.04-.06.05-.09.02-.07.01-.11c0-.04-.02-.08-.03-.11s-.04-.06-.07-.09-.06-.05-.09-.06a.36.36 0 0 0-.11-.02zm8.92 0h-4.47s-.07 0-.1.02-.06.03-.08.06-.04.06-.05.09-.01.07-.01.11.01.07.03.11.04.06.07.09.06.05.09.06a.36.36 0 0 0 .11.02h4.47s.07 0 .11-.02.06-.04.08-.06.04-.06.05-.09.02-.07.01-.11c0-.04-.02-.08-.03-.11s-.04-.06-.07-.09-.06-.05-.1-.06-.07-.02-.11-.02zm-155.64-8.46s-.07 0-.11.02-.06.04-.09.06-.05.06-.07.09-.03.07-.03.11l-.43 3.71h.07.07.07.07.07.07.07.07l.42-3.71v-.11c0-.04-.03-.06-.05-.09s-.05-.05-.08-.06a.36.36 0 0 0-.11-.02m163.34-2.22s-.08 0-.11.02-.06.03-.08.06-.04.05-.05.09-.01.07 0 .11l.5 4.4.03.11c.01.03.04.06.07.09s.06.04.1.06.07.02.11.02.07 0 .1-.02.06-.03.08-.06.04-.05.05-.09.01-.07 0-.11l-.51-4.4-.03-.11c-.01-.03-.04-.06-.07-.09s-.06-.04-.09-.06-.07-.02-.11-.02m-162.34-6.48s-.07 0-.11.02-.06.03-.09.06-.05.05-.07.09-.03.07-.03.1l-.5 4.33v.1c0 .03.03.06.05.08s.05.04.08.06.06.02.1.02.08 0 .11-.02.07-.03.09-.06.05-.05.07-.08.03-.07.03-.1l.49-4.33v-.1c0-.03-.03-.06-.05-.09s-.05-.05-.08-.06a.36.36 0 0 0-.11-.02m161.35-2.17s-.07 0-.11.02-.06.03-.08.06-.04.05-.05.09-.01.07 0 .1l.49 4.3.03.11c.01.03.04.06.07.09s.06.04.09.06.07.02.11.02.07 0 .1-.02.06-.03.08-.06.04-.05.05-.09.01-.07 0-.11l-.49-4.3-.03-.1c-.01-.03-.04-.06-.07-.09s-.06-.04-.09-.06-.07-.02-.11-.02m-160.38-6.32s-.07 0-.1.02-.06.03-.09.06-.05.05-.07.08-.03.07-.03.1l-.49 4.23v.1c0 .03.03.06.05.08s.05.04.08.06.06.02.1.02.08 0 .11-.02.07-.03.09-.06.05-.05.07-.08.03-.06.03-.1l.48-4.23v-.1c0-.03-.03-.06-.05-.08s-.05-.04-.08-.06-.07-.02-.11-.02m159.41-2.12s-.07 0-.1.02-.06.03-.08.06-.04.05-.05.08a.17.17 0 0 0 0 .1l.48 4.19.03.11c.01.04.04.06.07.08l.09.06c.03.02.07.02.11.02s.07 0 .1-.02.06-.03.08-.06.04-.05.05-.08.01-.07 0-.11l-.48-4.19-.03-.1c-.01-.03-.04-.06-.07-.08l-.09-.06c-.03-.02-.07-.02-.11-.02zm-158.46-6.17s-.07 0-.1.02-.06.03-.09.05-.05.05-.06.08-.03.06-.03.1l-.47 4.13v.1c0 .03.03.06.05.08s.05.04.08.06.06.02.1.02.08 0 .11-.02.07-.03.09-.06.05-.05.07-.08.03-.06.03-.1l.47-4.13v-.1c0-.03-.03-.06-.05-.08s-.05-.04-.08-.05-.07-.02-.1-.02m157.52-2.08s-.07 0-.1.02-.06.03-.08.06-.04.05-.05.08-.01.06 0 .1l.47 4.1s.01.07.03.1.04.06.07.08.06.04.09.05a.36.36 0 0 0 .11.02c.04 0 .07 0 .1-.02s.06-.03.08-.05.04-.05.05-.08.01-.06.01-.1l-.47-4.1-.03-.1c-.01-.03-.04-.06-.07-.08l-.09-.06c-.03-.02-.07-.02-.1-.02m-156.59-6.02s-.07 0-.1.02-.06.03-.09.05-.05.05-.06.08-.03.06-.03.09l-.46 4.03v.1c0 .03.03.06.05.08s.05.04.08.06.06.02.1.02.07 0 .11-.02.06-.03.09-.06a.5.5 0 0 0 .07-.08c.02-.03.03-.06.03-.1l.46-4.03v-.09c0-.02-.03-.06-.05-.08s-.05-.04-.08-.05-.07-.02-.1-.02m155.67-2.03s-.07 0-.1.02-.06.03-.08.05-.04.05-.05.08-.01.06 0 .1l.46 4.01s.01.07.03.1.04.06.06.08.06.04.09.05a.36.36 0 0 0 .11.02c.04 0 .07 0 .1-.02s.06-.03.08-.05.04-.05.05-.08.01-.06.01-.1l-.46-4.01-.03-.1c-.01-.03-.04-.06-.07-.08s-.06-.04-.09-.05-.07-.02-.1-.02m-154.76-5.88s-.07 0-.1.02-.06.03-.09.05-.05.05-.06.08-.03.06-.03.1l-.45 3.93v.1c0 .03.02.06.05.08s.05.04.07.05.06.02.1.02.07 0 .11-.02l.09-.05c.03-.02.05-.05.06-.08s.03-.06.03-.1l.45-3.93v-.1c0-.03-.03-.06-.05-.08s-.05-.04-.08-.05-.06-.02-.1-.02zm153.87-1.97s-.07 0-.1.02-.06.03-.08.05-.04.05-.05.07-.01.06 0 .09l.45 3.92s.01.07.03.09.04.06.06.08.06.04.09.05a.36.36 0 0 0 .11.02c.04 0 .07 0 .1-.02s.06-.03.08-.05.04-.05.05-.08.01-.06.01-.09l-.45-3.92s-.01-.06-.03-.09-.04-.05-.07-.07-.06-.04-.09-.05-.07-.02-.1-.02m-152.98-5.75s-.07 0-.1.02-.06.03-.09.05-.05.05-.06.08-.03.06-.03.1l-.44 3.84v.09c0 .03.02.06.04.08s.05.04.07.05.06.02.1.02.07 0 .11-.02l.09-.05c.03-.02.05-.05.06-.08s.03-.06.03-.09l.44-3.84v-.1c0-.03-.02-.05-.05-.08s-.05-.04-.08-.05-.06-.02-.1-.02m152.1-1.93s-.07 0-.1.02-.06.03-.08.05-.04.05-.05.07-.01.06 0 .09l.44 3.83s.01.06.03.09.04.06.06.08.06.04.09.05a.36.36 0 0 0 .11.02c.03 0 .07 0 .1-.02s.06-.03.08-.05.04-.05.05-.08.01-.06.01-.09l-.44-3.83s-.01-.06-.03-.09-.04-.05-.06-.07-.06-.04-.09-.05-.07-.02-.1-.02m-151.24-5.62s-.07 0-.1.02-.06.03-.08.05-.05.05-.06.07-.03.06-.03.09l-.43 3.75v.09c0 .02.02.05.04.08s.04.04.07.05.06.02.09.02c.04 0 .07 0 .1-.02s.06-.03.09-.05.05-.05.06-.08.03-.06.03-.09l.43-3.75v-.09c0-.02-.02-.05-.05-.07s-.05-.04-.08-.05-.06-.02-.1-.02m150.38-1.88s-.07 0-.1.02l-.08.05c-.03.02-.04.05-.05.07s-.01.06 0 .09l.43 3.73s.01.06.03.09.04.05.06.08.05.04.09.05.07.02.1.02.07 0 .1-.02l.08-.05c.03-.02.04-.05.05-.08s.01-.06.01-.09l-.43-3.73s-.01-.06-.03-.09-.04-.05-.06-.07-.06-.04-.09-.05-.07-.02-.1-.02m-149.53-5.5s-.07 0-.1.02-.06.03-.08.05-.05.05-.06.07-.03.06-.03.09l-.42 3.67v.09c0 .03.02.05.04.07s.04.04.07.05.06.02.09.02c.04 0 .07 0 .1-.02s.06-.03.09-.05.05-.05.06-.07.03-.06.03-.09l.42-3.67v-.09c0-.03-.02-.05-.04-.07s-.05-.04-.07-.05-.06-.02-.1-.02zm148.69-1.84s-.07 0-.1.02-.05.03-.07.05-.04.04-.04.07-.01.06 0 .09l.42 3.65s.01.06.03.09.04.05.06.07.05.04.09.05.07.02.1.02.07 0 .09-.02.05-.03.08-.05.04-.05.05-.07.01-.06 0-.09l-.42-3.65s-.01-.06-.03-.09-.04-.05-.06-.07-.05-.04-.09-.05-.06-.02-.1-.02m-147.86-5.38s-.07 0-.1.02-.06.03-.08.05-.04.04-.06.07-.03.06-.03.09l-.41 3.59v.09c0 .03.02.05.04.07s.04.04.07.05.06.02.09.02c.04 0 .07 0 .1-.02s.06-.03.09-.05.05-.04.06-.07.03-.06.03-.09l.41-3.59v-.09c0-.03-.02-.05-.04-.07s-.04-.04-.07-.05-.06-.02-.1-.02zm147.04-1.8s-.07 0-.1.02-.05.03-.07.05-.04.04-.04.07-.01.06 0 .09l.41 3.57s.01.06.03.09.04.05.06.07.05.04.08.05.07.02.1.02.07 0 .09-.02.05-.03.07-.05.04-.04.05-.07.01-.06 0-.09l-.41-3.57s-.01-.06-.03-.09-.04-.05-.06-.07-.05-.04-.08-.05-.06-.02-.1-.02zm-146.23-5.26s-.07 0-.1.02-.06.03-.08.05-.04.04-.06.07-.02.05-.03.08l-.4 3.52v.08c0 .02.02.05.04.07s.04.04.07.05.06.02.09.02c.04 0 .07 0 .1-.02s.06-.03.08-.05.04-.04.06-.07.03-.05.03-.08l.4-3.52v-.08c0-.02-.02-.05-.04-.07s-.04-.04-.07-.05-.06-.02-.1-.02m145.43-1.76s-.07 0-.1.02-.05.03-.07.05-.03.04-.04.07a.11.11 0 0 0 0 .08l.4 3.49s.01.06.03.09.04.05.06.07.05.04.08.05.07.02.1.02.06 0 .09-.02.05-.03.07-.05.04-.04.05-.07.01-.06 0-.09l-.4-3.49s-.01-.06-.03-.08-.04-.05-.06-.07-.05-.04-.08-.05-.06-.02-.1-.02zm-144.64-5.14s-.06 0-.09.02-.06.03-.08.05-.04.04-.06.07-.02.05-.03.08l-.4 3.44v.08c0 .02.02.05.04.07s.04.03.07.04.06.02.09.02c.04 0 .07 0 .1-.02s.06-.03.08-.04.04-.04.06-.07.02-.05.03-.08l.39-3.44v-.08c0-.02-.02-.05-.04-.07s-.04-.04-.07-.05-.06-.02-.1-.02m143.85-1.72s-.07 0-.09.02-.05.03-.07.05-.03.04-.04.07a.11.11 0 0 0 0 .08l.39 3.41s.01.06.03.09.04.05.06.07.05.03.08.05.06.02.1.02c.03 0 .06 0 .09-.02s.05-.03.07-.05.04-.04.05-.07.01-.06 0-.09l-.39-3.41s-.01-.06-.03-.08-.04-.05-.06-.07-.05-.04-.08-.05-.06-.02-.1-.02m-143.08-5.03s-.06 0-.09.02-.06.03-.08.04-.04.04-.06.06-.02.05-.03.08l-.39 3.37v.08c0 .02.02.05.04.07s.04.04.07.05.06.02.09.02.07 0 .1-.02.06-.03.08-.05.04-.04.06-.07.02-.05.03-.08l.38-3.37v-.08c0-.02-.02-.05-.04-.06s-.04-.03-.07-.04-.06-.02-.09-.02zm142.31-1.69s-.07 0-.09.02-.05.03-.07.05-.03.04-.04.07a.11.11 0 0 0 0 .08l.38 3.35a.2.2 0 0 0 .03.08c.02.02.03.05.06.06s.05.03.08.04.06.02.1.02c.03 0 .06 0 .09-.02s.05-.03.07-.04.04-.04.05-.06.01-.05.01-.08l-.38-3.35s-.01-.06-.03-.08-.04-.05-.06-.07-.05-.03-.08-.05-.06-.02-.09-.02m-141.55-4.92s-.06 0-.09.02-.06.02-.08.04l-.06.06c-.02.02-.02.05-.03.08l-.38 3.3v.08c0 .03.02.05.04.07s.04.03.07.05.06.02.09.02.07 0 .1-.02.06-.03.08-.05.04-.04.06-.07.02-.05.03-.08l.38-3.3v-.08c0-.03-.02-.05-.04-.06s-.04-.03-.07-.04-.06-.02-.09-.02m140.8-1.66s-.07 0-.09.02-.05.03-.07.04-.03.04-.04.07a.11.11 0 0 0 0 .08l.37 3.28a.27.27 0 0 0 .03.08c.02.03.03.05.06.06s.05.03.08.04.06.02.1.02c.03 0 .06 0 .09-.02s.05-.02.07-.04.04-.04.05-.06.01-.05.01-.08l-.38-3.28s-.01-.05-.03-.08-.04-.05-.06-.07-.05-.03-.08-.04-.06-.02-.09-.02m-140.06-4.82s-.06 0-.09.02-.05.02-.08.04-.04.04-.06.06-.02.05-.03.08l-.37 3.22v.08c0 .03.02.05.04.07s.04.03.07.04.06.02.09.02.07 0 .1-.02.06-.03.08-.04.04-.04.06-.07.02-.05.03-.08l.37-3.22v-.08c0-.02-.02-.05-.04-.06s-.04-.03-.07-.04-.06-.02-.09-.02m139.32-1.62s-.06 0-.09.02-.05.02-.07.04-.03.04-.04.06-.01.05 0 .08l.37 3.21a.27.27 0 0 0 .03.08c.02.03.03.05.06.06s.05.03.08.04.06.02.1.02c.03 0 .06 0 .09-.02s.05-.03.07-.04.03-.04.04-.06.01-.05.01-.08l-.37-3.21s-.01-.05-.03-.08-.03-.04-.06-.06a.3.3 0 0 0-.08-.04c-.03-.01-.06-.02-.09-.02m-138.59-4.72s-.06 0-.09.01a.3.3 0 0 0-.08.04c-.03.02-.04.04-.06.06s-.02.05-.03.08l-.36 3.15v.08c0 .03.02.05.04.06s.04.03.07.04.06.02.09.02.07 0 .1-.02.06-.03.08-.04.04-.04.06-.06.02-.05.03-.08l.36-3.15v-.08c0-.03-.02-.05-.04-.06s-.04-.03-.07-.04-.06-.01-.09-.01m137.87-1.58s-.06 0-.09.01-.05.02-.07.04-.03.04-.04.06-.01.05 0 .07l.36 3.14a.27.27 0 0 0 .03.08c.02.03.03.05.06.06s.05.03.08.04.06.02.1.02c.03 0 .06 0 .09-.02s.05-.03.07-.04.03-.04.04-.06.01-.05.01-.08l-.36-3.14s-.01-.05-.03-.07-.03-.04-.06-.06a.3.3 0 0 0-.08-.04c-.03-.01-.06-.01-.09-.01m-137.16-4.63s-.06 0-.09.01a.3.3 0 0 0-.08.04c-.03.02-.04.04-.05.06s-.02.05-.03.08l-.35 3.09v.08c0 .03.02.04.04.06s.04.03.07.04.05.01.09.01c.03 0 .07 0 .09-.01s.06-.02.08-.04l.06-.06c.02-.02.02-.05.03-.08l.35-3.09v-.08c0-.03-.02-.04-.04-.06s-.04-.03-.07-.04-.06-.01-.09-.01m136.45-1.55s-.06 0-.09.01-.05.02-.07.04-.03.04-.04.06-.01.05 0 .08l.35 3.07s.01.05.03.07.03.04.06.06a.3.3 0 0 0 .08.04c.03.01.06.02.09.02s.06 0 .09-.02.05-.02.07-.04.03-.04.04-.06.01-.05.01-.07l-.35-3.07s-.01-.05-.03-.08-.03-.04-.06-.06a.3.3 0 0 0-.08-.04c-.03-.01-.06-.01-.09-.01m-135.76-4.53s-.06 0-.09.02-.05.02-.08.04-.04.04-.05.06-.02.05-.03.07l-.35 3.02v.08c0 .03.02.04.04.06s.04.03.07.04.05.01.09.01c.03 0 .06 0 .09-.01s.06-.02.08-.04l.06-.06c.02-.02.02-.05.03-.08l.35-3.02v-.07c0-.02-.02-.04-.04-.06s-.04-.03-.07-.04-.06-.02-.09-.02m135.44-.23h-.06-.06-.06-.06-.06-.06-.06-.06l.22 1.91a.27.27 0 0 0 .03.08c.02.03.03.04.06.06a.3.3 0 0 0 .08.04c.03.01.06.01.09.01s.06 0 .09-.01.05-.02.07-.04.03-.04.04-.06.01-.05 0-.08l-.22-1.91m-124.89-3.37h-3.63s-.06 0-.09.01a.3.3 0 0 0-.08.04c-.03.02-.04.04-.06.06s-.02.05-.03.07c0 .03 0 .05.01.07s.02.04.04.06.04.03.07.04.06.01.09.01h3.63s.06 0 .09-.01.05-.02.07-.04.04-.04.05-.06.02-.05.02-.07c0-.03 0-.05-.01-.07s-.02-.04-.04-.06-.04-.03-.07-.04-.05-.01-.08-.01m7.24 0h-3.62s-.06 0-.09.01a.3.3 0 0 0-.08.04c-.03.02-.04.04-.06.06s-.02.05-.02.07c0 .03 0 .05.01.07s.03.04.04.06.04.03.07.04.06.01.09.01h3.62s.06 0 .09-.01a.3.3 0 0 0 .08-.04c.03-.02.04-.04.05-.06s.02-.05.02-.07c0-.03 0-.05-.01-.07s-.02-.04-.04-.06-.04-.03-.07-.04-.06-.01-.09-.01m7.25 0h-3.62s-.06 0-.09.01a.3.3 0 0 0-.08.04c-.03.02-.04.04-.05.06s-.02.05-.02.07c0 .03 0 .05.01.07s.03.04.05.06.04.03.07.04.06.01.09.01h3.62s.06 0 .09-.01a.3.3 0 0 0 .08-.04c.03-.02.04-.04.05-.06s.02-.05.02-.07c0-.03 0-.05-.01-.07s-.02-.04-.04-.06-.04-.03-.07-.04-.06-.01-.09-.01m7.25 0h-3.62s-.06 0-.09.01-.05.02-.07.04-.04.04-.05.06-.02.05-.02.07c0 .03 0 .05.01.07s.02.04.04.06.04.03.07.04.06.01.09.01h3.62s.06 0 .09-.01.05-.02.07-.04.04-.04.05-.06.02-.05.02-.07c0-.03 0-.05-.01-.07s-.03-.04-.04-.06-.04-.03-.07-.04-.06-.01-.09-.01zm7.25 0h-3.62s-.06 0-.09.01-.05.02-.07.04-.04.04-.05.06-.02.05-.02.07c0 .03 0 .05.01.07s.03.04.04.06.04.03.07.04.06.01.09.01h3.62s.06 0 .09-.01.05-.02.07-.04.04-.04.05-.06.02-.05.02-.07c0-.03 0-.05-.02-.07s-.03-.04-.05-.06-.04-.03-.07-.04-.06-.01-.09-.01m7.25 0h-3.62s-.06 0-.09.01-.05.02-.07.04-.04.04-.05.06-.02.05-.02.07c0 .03 0 .05.01.07s.03.04.05.06.04.03.07.04.06.01.09.01h3.62s.06 0 .09-.01.05-.02.07-.04.04-.04.05-.06.02-.05.02-.07c0-.03 0-.05-.02-.07s-.03-.04-.05-.06-.04-.03-.07-.04-.06-.01-.09-.01m7.25 0h-3.63s-.06 0-.09.01-.05.02-.07.04-.04.04-.05.06-.02.05-.02.07c0 .03 0 .05.01.07s.03.04.05.06.04.03.07.04.06.01.09.01h3.63s.06 0 .09-.01.05-.02.07-.04.04-.04.05-.06.02-.05.02-.07c0-.03 0-.05-.02-.07s-.03-.04-.05-.06-.04-.03-.07-.04-.06-.01-.09-.01m7.25 0h-3.63s-.06 0-.09.01-.05.02-.07.04-.04.04-.05.06-.02.05-.02.07c0 .03 0 .05.02.07s.03.04.05.06.04.03.07.04.06.01.09.01h3.63s.06 0 .09-.01.05-.02.07-.04.04-.04.05-.06.02-.05.02-.07c0-.03 0-.05-.02-.07s-.03-.04-.05-.06-.05-.03-.07-.04-.06-.01-.09-.01zm7.25 0h-3.63s-.06 0-.09.01-.05.02-.07.04-.04.04-.05.06-.02.05-.02.07c0 .03 0 .05.02.07s.03.04.05.06.05.03.07.04.06.01.09.01h3.63s.06 0 .09-.01.05-.02.07-.04.04-.04.05-.06.02-.05.02-.07c0-.03 0-.05-.02-.07s-.03-.04-.05-.06-.04-.03-.07-.04-.06-.01-.09-.01zm7.25 0h-3.63s-.06 0-.09.01-.05.02-.07.04-.04.04-.05.06-.02.05-.02.07c0 .03 0 .05.02.07s.03.04.05.06.05.03.07.04.06.01.09.01h3.63s.06 0 .09-.01.05-.02.07-.04.04-.04.05-.06.02-.05.02-.07c0-.03 0-.05-.02-.07s-.03-.04-.05-.06-.04-.03-.07-.04-.06-.01-.09-.01zm7.24 0h-3.62s-.06 0-.09.01-.05.02-.07.04-.04.04-.05.06-.02.05-.02.07c0 .03 0 .05.02.07s.03.04.05.06.05.03.07.04.06.01.09.01h3.62s.06 0 .09-.01.05-.02.07-.04.04-.04.05-.06.02-.05.02-.07c0-.03 0-.05-.02-.07s-.03-.04-.05-.06-.05-.03-.07-.04-.06-.01-.09-.01zm7.25 0h-3.62s-.06 0-.09.01-.05.02-.07.04-.04.04-.05.06-.02.05-.02.07c0 .03 0 .05.02.07s.03.04.05.06.05.03.07.04.06.01.09.01h3.62s.06 0 .09-.01.05-.02.07-.04.04-.04.05-.06.02-.05.01-.07c0-.03 0-.05-.02-.07s-.03-.04-.05-.06-.05-.03-.07-.04-.06-.01-.09-.01m7.25 0h-3.62s-.06 0-.09.01-.05.02-.07.04-.04.04-.05.06-.02.05-.01.07c0 .03 0 .05.02.07s.03.04.05.06.05.03.07.04.06.01.09.01h3.62s.06 0 .09-.01.05-.02.07-.04.03-.04.04-.06.01-.05.01-.07c0-.03 0-.05-.02-.07s-.03-.04-.05-.06-.05-.03-.07-.04-.06-.01-.09-.01m7.25 0h-3.62s-.06 0-.09.01-.05.02-.07.04-.03.04-.04.06-.01.05-.01.07c0 .03 0 .05.02.07s.03.04.05.06.05.03.07.04.06.01.09.01h3.62s.06 0 .09-.01.05-.02.07-.04.04-.04.05-.06.02-.05.01-.07c0-.03 0-.05-.02-.07s-.03-.04-.05-.06-.05-.03-.08-.04-.06-.01-.09-.01zm7.25 0h-3.62s-.06 0-.09.01-.05.02-.07.04-.03.04-.04.06-.01.05-.01.07c0 .03 0 .05.02.07s.03.04.05.06.05.03.08.04.06.01.09.01h3.62s.06 0 .09-.01.05-.02.07-.04.04-.04.05-.06.01-.05.01-.07c0-.03-.01-.05-.02-.07s-.03-.04-.05-.06-.05-.03-.08-.04-.06-.01-.09-.01m7.25 0h-3.63s-.06 0-.08.01-.05.02-.07.04-.03.04-.04.06-.01.05-.01.07c0 .03.01.05.02.07s.03.04.05.06.05.03.07.04.06.01.09.01h3.63s.06 0 .09-.01.05-.02.07-.04.03-.04.04-.06.01-.05.01-.07c0-.03-.01-.05-.02-.07s-.03-.04-.05-.06-.05-.03-.08-.04-.06-.01-.09-.01zm7.25 0h-3.63s-.06 0-.08.01-.05.02-.07.04-.03.04-.04.06-.01.05-.01.07c0 .03.01.05.02.07s.03.04.05.06.05.03.07.04.06.01.09.01h3.63s.06 0 .09-.01.05-.02.07-.04.03-.04.04-.06.01-.05.01-.07c0-.03-.01-.05-.03-.07s-.03-.04-.06-.06a.3.3 0 0 0-.08-.04c-.03-.01-.06-.01-.09-.01m4.5 0h-.88s-.06 0-.09.01-.05.02-.07.04-.03.04-.04.06-.01.05-.01.07c0 .03.01.05.03.07s.03.04.06.06a.3.3 0 0 0 .08.04c.03.01.06.01.09.01h.88v-.05-.05-.05-.05-.05-.14"
              class="B E G"/>
        <path d="M374.125 212.885a3.93 3.93 0 0 0-1.59.33c-.48.21-.89.52-1.23.9s-.59.84-.75 1.34-.21 1.06-.15 1.64.24 1.14.51 1.65.63.97 1.05 1.35.91.7 1.44.92 1.1.34 1.68.34a3.82 3.82 0 0 0 1.6-.34c.48-.22.89-.53 1.23-.92a3.64 3.64 0 0 0 .74-1.35c.15-.5.2-1.07.13-1.65s-.25-1.14-.53-1.64-.63-.96-1.06-1.34-.91-.69-1.43-.9-1.08-.33-1.66-.33"
              class="F"/>
        <path d="M375.095 221.364c-.58 0-1.15-.12-1.68-.34s-1.02-.53-1.44-.92a5.28 5.28 0 0 1-1.05-1.35c-.27-.5-.45-1.07-.51-1.65s0-1.14.15-1.64.41-.96.75-1.34.75-.69 1.23-.9a3.93 3.93 0 0 1 1.59-.33c.58 0 1.13.12 1.66.33s1.01.52 1.43.9.78.84 1.06 1.34.46 1.06.53 1.64a4.1 4.1 0 0 1-.13 1.65 3.49 3.49 0 0 1-.74 1.35 3.75 3.75 0 0 1-1.23.92 3.82 3.82 0 0 1-1.6.34m-1.03-9.03c-.65 0-1.26.13-1.8.37s-1.01.59-1.39 1.02-.67.94-.85 1.52-.24 1.2-.17 1.86a5.04 5.04 0 0 0 .58 1.87 5.94 5.94 0 0 0 1.19 1.54c.48.44 1.03.8 1.63 1.04s1.25.38 1.91.38a4.52 4.52 0 0 0 1.82-.38 3.92 3.92 0 0 0 1.4-1.04c.38-.44.67-.96.84-1.54s.23-1.21.15-1.87a5.21 5.21 0 0 0-.6-1.86c-.31-.57-.72-1.08-1.2-1.52s-1.03-.78-1.62-1.02a5 5 0 0 0-1.88-.37"
              class="B E"/>
        <path d="M358.725 78.354c-.47 0-.91.08-1.3.22s-.73.34-1.01.59-.5.55-.63.88-.19.7-.15 1.08a2.56 2.56 0 0 0 .39 1.09c.21.33.49.64.83.89s.73.46 1.15.6.89.22 1.36.22.91-.08 1.3-.22.74-.35 1.01-.6.49-.56.62-.89.18-.7.14-1.09-.19-.75-.4-1.08-.5-.63-.83-.88-.73-.45-1.15-.59a4.23 4.23 0 0 0-1.34-.22"
              class="F"/>
        <path d="M359.365 83.944c-.47 0-.93-.08-1.36-.22s-.82-.35-1.15-.6-.62-.56-.83-.89-.34-.7-.39-1.09.01-.75.15-1.08.35-.63.63-.88.62-.45 1.01-.59.83-.22 1.3-.22a4.23 4.23 0 0 1 1.34.22 4.17 4.17 0 0 1 1.15.59 3.29 3.29 0 0 1 .83.88c.21.33.35.7.4 1.08s0 .76-.14 1.09a2.6 2.6 0 0 1-.62.89c-.27.25-.62.46-1.01.6s-.83.22-1.3.22m-.68-5.96c-.51 0-.99.08-1.42.23s-.81.36-1.12.63-.56.59-.73.94-.25.75-.23 1.17v.04.05.05.05.05.05.05.05a3 3 0 0 0 .46 1.13c.23.35.53.66.89.93a4.63 4.63 0 0 0 1.2.65 4.71 4.71 0 0 0 1.41.28h.06.06.06.06.06.06.06.06c.51-.02.98-.13 1.39-.3a3.63 3.63 0 0 0 1.08-.69 2.61 2.61 0 0 0 .66-.99 2.52 2.52 0 0 0 .14-1.2 2.96 2.96 0 0 0-.45-1.23c-.24-.38-.56-.72-.94-1s-.82-.51-1.3-.67-.99-.25-1.52-.25"
              class="B E"/>
        <path d="M209.495 212.885c-.57 0-1.13.12-1.66.33s-1.01.52-1.43.9-.78.84-1.06 1.34-.46 1.06-.53 1.64a4.1 4.1 0 0 0 .13 1.65 3.49 3.49 0 0 0 .74 1.35 3.75 3.75 0 0 0 1.23.92 3.82 3.82 0 0 0 1.6.34c.58 0 1.15-.12 1.68-.34s1.02-.53 1.44-.92a5.28 5.28 0 0 0 1.05-1.35c.27-.5.45-1.07.51-1.65s0-1.14-.15-1.64-.41-.96-.75-1.34-.75-.69-1.23-.9a3.93 3.93 0 0 0-1.59-.33"
              class="F"/>
        <path d="M208.525 221.364a3.82 3.82 0 0 1-1.6-.34c-.48-.22-.89-.53-1.23-.92a3.64 3.64 0 0 1-.74-1.35c-.15-.5-.2-1.07-.13-1.65s.25-1.14.53-1.64.63-.96 1.06-1.34.91-.69 1.43-.9 1.08-.33 1.66-.33a3.93 3.93 0 0 1 1.59.33c.48.21.89.52 1.23.9s.59.84.75 1.34.21 1.06.15 1.64-.24 1.14-.51 1.65-.63.97-1.05 1.35-.91.7-1.44.92-1.1.34-1.68.34m1.03-9.03h-.07-.07-.07-.07a5.23 5.23 0 0 0-1.79.44c-.56.25-1.08.6-1.54 1.03s-.84.93-1.13 1.48a5.34 5.34 0 0 0-.57 1.8c-.08.63-.02 1.3.15 1.87s.46 1.1.84 1.54a3.92 3.92 0 0 0 1.4 1.04 4.52 4.52 0 0 0 1.82.38c.66 0 1.26-.13 1.84-.36a5.52 5.52 0 0 0 1.59-.97 5.56 5.56 0 0 0 1.19-1.45c.31-.55.53-1.14.64-1.77 0-.02 0-.05.01-.07s0-.05.01-.07 0-.05 0-.07v-.07-.07-.07-.07-.07c.03-.61-.05-1.18-.23-1.7s-.45-.99-.81-1.39a4.17 4.17 0 0 0-1.27-.97c-.49-.24-1.04-.38-1.63-.42h-.07-.21"
              class="B E"/>
        <path d="M224.905 78.354a4.23 4.23 0 0 0-1.34.22 4.17 4.17 0 0 0-1.15.59 3.29 3.29 0 0 0-.83.88c-.21.33-.35.7-.4 1.08s0 .76.14 1.09a2.6 2.6 0 0 0 .62.89c.27.25.62.46 1.01.6s.83.22 1.3.22.93-.08 1.36-.22.82-.35 1.15-.6.62-.56.83-.89.34-.7.39-1.09-.01-.75-.15-1.08-.35-.63-.63-.88-.62-.45-1.01-.59-.83-.22-1.3-.22"
              class="F"/>
        <path d="M224.265 83.944c-.47 0-.91-.08-1.3-.22s-.74-.35-1.01-.6-.49-.56-.62-.89-.18-.7-.14-1.09.19-.75.4-1.08.5-.63.83-.88.73-.45 1.15-.59a4.23 4.23 0 0 1 1.34-.22c.47 0 .91.08 1.3.22s.73.34 1.01.59.5.55.63.88.19.7.15 1.08a2.56 2.56 0 0 1-.39 1.09c-.21.33-.49.64-.83.89s-.73.46-1.15.6-.89.22-1.36.22m.68-5.96c-.53 0-1.04.09-1.52.25s-.92.39-1.3.67-.7.62-.94 1a2.91 2.91 0 0 0-.45 1.23c-.05.44 0 .86.15 1.24a2.62 2.62 0 0 0 .71 1.01 3.87 3.87 0 0 0 1.15.69c.44.17.94.25 1.48.25s1.06-.09 1.54-.25a4.55 4.55 0 0 0 1.31-.69c.38-.29.7-.63.94-1.01s.39-.8.44-1.24a2.53 2.53 0 0 0-.17-1.23c-.15-.38-.4-.72-.71-1a3.42 3.42 0 0 0-1.15-.67 4.36 4.36 0 0 0-1.47-.25"
              class="B E"/>
    </g>
    <mask id="J" maskUnits="userSpaceOnUse" x="193" y="3" width="197" height="55">
        <path d="M193.975 57.215l2.87-53.85h189.88l2.87 53.85h-195.62z" class="D"/>
    </mask>
    <g mask="url(#J)">
        <path d="M375.184 4.246h-166.81c-1.46 0-2.87.27-4.16.74a11.24 11.24 0 0 0-3.47 2.03c-1 .86-1.83 1.88-2.43 3.02a8.99 8.99 0 0 0-1.03 3.71l-1.71 32.55c-.07 1.37.16 2.68.65 3.87s1.23 2.27 2.17 3.17a10.33 10.33 0 0 0 3.35 2.14 11.51 11.51 0 0 0 4.21.79h171.67c1.51 0 2.93-.28 4.21-.79s2.42-1.24 3.35-2.14 1.68-1.98 2.17-3.17.72-2.5.65-3.87l-1.71-32.55c-.07-1.32-.43-2.57-1.03-3.71s-1.43-2.16-2.43-3.02-2.18-1.55-3.47-2.03-2.7-.74-4.16-.74"
              class="F H"/>
        <path d="M205.945 56.275c-1.51 0-2.93-.28-4.21-.79s-2.42-1.24-3.35-2.14-1.68-1.98-2.17-3.17-.72-2.5-.65-3.87l1.71-32.55c.07-1.32.43-2.57 1.03-3.71s1.43-2.16 2.43-3.02 2.18-1.55 3.47-2.03 2.7-.74 4.16-.74h166.81c1.46 0 2.87.27 4.16.74a11.24 11.24 0 0 1 3.47 2.03c1 .86 1.83 1.88 2.43 3.02a8.99 8.99 0 0 1 1.03 3.71l1.71 32.55c.07 1.37-.16 2.68-.65 3.87s-1.23 2.27-2.17 3.17a10.33 10.33 0 0 1-3.35 2.14 11.51 11.51 0 0 1-4.21.79h-171.65zm169.2-52.91h-166.73a13.1 13.1 0 0 0-4.54.81c-1.41.52-2.7 1.28-3.79 2.22s-2.01 2.06-2.66 3.3-1.05 2.62-1.13 4.06l-1.73 32.55a9.76 9.76 0 0 0 .71 4.22c.53 1.3 1.34 2.48 2.37 3.47s2.27 1.79 3.67 2.35 2.95.86 4.6.86h171.76c1.64 0 3.2-.31 4.6-.86a11.21 11.21 0 0 0 3.67-2.35c1.03-.99 1.84-2.17 2.37-3.47a9.76 9.76 0 0 0 .71-4.22l-1.73-32.55c-.08-1.44-.48-2.81-1.13-4.06s-1.56-2.36-2.66-3.3-2.39-1.7-3.8-2.22a13.14 13.14 0 0 0-4.54-.81"
              fill="url(#S)" class="E"/>
    </g>
    <mask id="K" maskUnits="userSpaceOnUse" x="103" y="14" width="78" height="215">
        <path d="M103.415 228.045l24.18-213.52h52.63l-24.18 213.52h-52.63z" class="D"/>
    </mask>
    <g mask="url(#K)">
        <path d="M167.685 15.836h-27.84c-6.17 0-11.76 5.32-12.51 11.89l-21.19 187.12c-.74 6.56 3.65 11.89 9.81 11.89h27.84c6.17 0 11.76-5.33 12.51-11.89l21.19-187.12c.74-6.57-3.65-11.89-9.81-11.89z"
              class="F H"/>
        <path d="M115.965 226.736c-6.17 0-10.56-5.33-9.81-11.89l21.19-187.12c.74-6.57 6.34-11.89 12.51-11.89h27.84c6.17 0 10.56 5.32 9.81 11.89l-21.19 187.12c-.74 6.56-6.34 11.89-12.51 11.89h-27.84zm51.87-212.21h-27.84c-6.84 0-13.07 5.92-13.89 13.21l-21.19 187.12c-.82 7.28 4.07 13.21 10.9 13.21h27.84c6.84 0 13.06-5.93 13.89-13.21l21.18-187.13c.82-7.29-4.06-13.21-10.89-13.21"
              fill="url(#T)" class="E"/>
    </g>
    <mask id="L" maskUnits="userSpaceOnUse" x="405" y="14" width="77" height="215">
        <path d="M429.255 228.045l-24.18-213.52h52.63l24.18 213.52h-52.63z" class="D"/>
    </mask>
    <g mask="url(#L)">
        <path d="M445.455 15.836h-27.84c-6.17 0-10.56 5.32-9.81 11.89l21.19 187.12c.74 6.56 6.34 11.89 12.51 11.89h27.84c6.17 0 10.55-5.33 9.81-11.89l-21.19-187.12c-.74-6.57-6.34-11.89-12.51-11.89z"
              class="F H"/>
        <path d="M441.495 226.735c-6.17 0-11.76-5.33-12.51-11.89l-21.19-187.12c-.74-6.57 3.65-11.89 9.81-11.89h27.84c6.17 0 11.76 5.32 12.51 11.89l21.19 187.12c.74 6.56-3.65 11.89-9.81 11.89h-27.84zm3.81-212.21h-27.84c-6.84 0-11.72 5.92-10.89 13.21l21.19 187.12c.82 7.28 7.05 13.21 13.89 13.21h27.84c6.84 0 11.73-5.93 10.9-13.21l-21.19-187.12c-.82-7.29-7.06-13.21-13.89-13.21"
              fill="url(#U)" class="E"/>
    </g>
    <mask id="M" maskUnits="userSpaceOnUse" x="117" y="25" width="54" height="155">
        <path d="M117.515 179.176l17.39-153.58h35.71l-17.39 153.58h-35.71z" class="D"/>
    </mask>
    <g mask="url(#M)" class="B">
        <use xlink:href="#V" class="G"/>
        <use xlink:href="#V" x="20.5" class="C"/>
        <use xlink:href="#W" class="C"/>
        <use xlink:href="#W" x="20.51" class="C"/>
        <use xlink:href="#X" class="C"/>
        <use xlink:href="#X" x="20.51" class="C"/>
        <use xlink:href="#W" x="-5.181" y="45.789" class="C"/>
        <use xlink:href="#W" x="15.33" y="45.789" class="C"/>
        <use xlink:href="#W" x="-7.77" y="68.68" class="C"/>
        <use xlink:href="#W" x="12.73" y="68.68" class="C"/>
        <use xlink:href="#Y" class="C"/>
        <use xlink:href="#Y" x="20.511" class="C"/>
        <use xlink:href="#W" x="-12.96" y="114.469" class="C"/>
    </g>
    <mask id="N" maskUnits="userSpaceOnUse" x="381" y="82" width="28" height="109">
        <path d="M393.485 190.594l-12.21-107.779h15.21l12.2 107.78h-15.2z" class="D"/>
    </mask>
    <g mask="url(#N)" class="B">
        <use xlink:href="#Z" class="C"/>
        <use xlink:href="#a" class="G"/>
        <use xlink:href="#Z" x="5.19" y="45.779" class="C"/>
        <use xlink:href="#a" x="5.19" y="45.789" class="C"/>
        <use xlink:href="#Z" x="10.37" y="91.57" class="C"/>
    </g>
    <mask id="O" maskUnits="userSpaceOnUse" x="414" y="26" width="58" height="177">
        <path d="M434.805 202.774l-19.99-176.459h37.18l19.99 176.46h-37.18z" class="D"/>
    </mask>
    <g mask="url(#O)" class="B">
        <path d="M456.955 140.785h-21.17c-3.92 0-6.71 3.39-6.24 7.56l2.72 23.98c.47 4.17 4.03 7.56 7.95 7.56h21.17c3.92 0 6.71-3.39 6.24-7.56l-2.72-23.98c-.47-4.17-4.03-7.56-7.95-7.56z"
              class="C"/>
        <path d="M446.525 26.315h-26.23c-2.52 0-4.32 2.18-4.02 4.88l.73 6.46c.31 2.69 2.6 4.88 5.12 4.88h26.23c2.52 0 4.32-2.18 4.02-4.88l-.73-6.46c-.31-2.69-2.6-4.88-5.12-4.88z"
              class="G"/>
        <path d="M429.845 88.314c-3.92 0-7.48-3.39-7.95-7.56l-2.72-23.98c-.47-4.17 2.32-7.56 6.24-7.56h21.17c3.92 0 7.48 3.39 7.95 7.56l2.72 23.98c.47 4.17-2.32 7.56-6.24 7.56h-21.17zm16.64-40.07h-21.17c-4.41 0-7.57 3.83-7.04 8.53l2.72 23.98c.53 4.7 4.55 8.53 8.97 8.53h21.17c4.41 0 7.57-3.83 7.04-8.53l-2.72-23.98c-.53-4.7-4.55-8.53-8.97-8.53z"
              class="C"/>
        <path d="M456.895 117.895h-26.23c-2.52 0-4.32 2.17-4.02 4.87l.73 6.47c.3 2.69 2.6 4.87 5.12 4.87h26.23c2.52 0 4.32-2.18 4.02-4.87l-.73-6.47c-.31-2.69-2.6-4.87-5.12-4.87z"
              class="G"/>
        <path d="M464.675 186.574h-26.23c-2.52 0-4.32 2.18-4.02 4.87l.73 6.47c.31 2.69 2.6 4.87 5.12 4.87h26.23c2.52 0 4.32-2.17 4.02-4.87l-.73-6.47c-.3-2.69-2.6-4.87-5.12-4.87z"
              class="C"/>
    </g>
    <mask id="P" maskUnits="userSpaceOnUse" x="204" y="11" width="176" height="37">
        <path d="M204.235 47.506l1.72-35.83h171.64l1.71 35.83h-175.07z" class="D"/>
    </mask>
    <g mask="url(#P)">
        <path opacity=".75"
              d="M258.055 29.635l.44-1.14.45-1.18.4-1.11.3-.93h.02l.32 1 .4 1.2.41 1.19.33.97h-3.07zm2.82-5.94h-2.43l-.1.11-.04.34-.04.23a.75.75 0 0 1-.05.16l-.05.13-3.8 9.31v.07c0 .02 0 .04.02.05s.02.02.04.03.04 0 .07 0h1.76.07c.02 0 .04-.01.05-.02s.03-.02.04-.04l.03-.06 1.02-2.63h4.2l.98 2.66.17.1h1.98.06c.02 0 .03-.02.03-.03s.01-.03.01-.05v-.06l-3.89-10.2-.12-.1m9.379 8.942c-.35 0-.69-.05-.99-.14a2.2 2.2 0 0 1-.81-.44 2.02 2.02 0 0 1-.54-.76c-.13-.31-.19-.68-.19-1.12a2.4 2.4 0 0 1 .22-1.03c.14-.3.34-.56.59-.77a2.63 2.63 0 0 1 .87-.48 3.46 3.46 0 0 1 1.09-.17h.23c.07 0 .15.01.22.02a1.18 1.18 0 0 1 .2.04c.06.02.12.03.18.05l-.05 4.66-.24.06c-.08.02-.17.03-.25.04l-.26.02h-.26m3.14-9.81h-1.9l-.11.11-.04 3.25c-.07 0-.14-.02-.21-.02s-.13-.01-.19-.02-.12 0-.18 0h-.18c-.77 0-1.47.11-2.08.32s-1.14.51-1.58.88-.77.82-1.01 1.32-.36 1.05-.37 1.62c0 .67.1 1.26.32 1.76s.53.92.93 1.26.88.59 1.42.75 1.14.25 1.78.25l.8-.03c.27-.02.55-.06.83-.11l.84-.19.86-.29.11-.14c0-.07-.02-.15-.02-.24s-.01-.17-.02-.26-.01-.18-.01-.27v-.25l.1-9.59-.09-.09m5.94 9.84c-.33 0-.63-.06-.89-.18s-.48-.29-.66-.51-.32-.49-.41-.79a3.52 3.52 0 0 1-.14-1.01c0-.37.06-.72.16-1.02s.24-.56.42-.77a1.89 1.89 0 0 1 .64-.49c.24-.11.521-.17.811-.17.37 0 .689.07.959.2a1.75 1.75 0 0 1 .66.54c.17.23.29.5.381.79s.119.61.119.95a3.22 3.22 0 0 1-.17 1.08 2.39 2.39 0 0 1-.44.77c-.18.21-.4.36-.65.46s-.5.15-.78.15m.04-6.54c-.66 0-1.25.11-1.78.32s-.98.5-1.35.87-.66.81-.86 1.3a4.21 4.21 0 0 0-.31 1.59c0 .51.07 1.01.23 1.49a3.69 3.69 0 0 0 .76 1.31c.35.39.78.7 1.31.93s1.17.35 1.9.35c.62 0 1.2-.1 1.71-.3a4.01 4.01 0 0 0 1.34-.84c.37-.36.67-.8.88-1.3s.32-1.07.32-1.69c0-.54-.089-1.07-.269-1.55s-.441-.92-.801-1.28a3.98 3.98 0 0 0-1.3-.88c-.51-.21-1.11-.32-1.79-.32m8.751 6.54h-.22c-.07 0-.14 0-.21-.01s-.13-.01-.2-.03-.13-.02-.19-.04v-4.65l.23-.06c.08-.02.17-.04.26-.05l.33-.04c.13-.01.26-.01.41-.01.35 0 .67.05.95.15a2.11 2.11 0 0 1 .74.44c.2.19.37.44.49.72s.17.62.17 1c0 .44-.08.82-.23 1.15s-.36.6-.62.81-.56.37-.89.48a3.28 3.28 0 0 1-1.04.16m-.97-9.84h-1.83l-.13.11-.04 10.87.13.14.64.16a7.35 7.35 0 0 0 .65.11l.67.06.68.02c.65 0 1.3-.09 1.9-.28s1.16-.46 1.64-.83.88-.83 1.15-1.38.43-1.2.43-1.93c0-.53-.1-1.03-.29-1.48s-.47-.85-.83-1.19-.8-.6-1.3-.79-1.08-.29-1.71-.29l-.42.01-.41.04-.39.07-.37.09v-3.4s-.01-.05-.02-.06-.01-.03-.03-.04-.03-.01-.05-.02-.05 0-.08 0m9.32 6.44c.03-.19.09-.39.18-.58s.21-.37.36-.52.34-.28.56-.38.48-.14.78-.14c.33 0 .6.06.82.17s.39.24.52.4a1.71 1.71 0 0 1 .27.49c.06.16.08.31.08.43v.12h-.08-.17-.29-.42-2.61m1.97-3.14c-.66 0-1.25.12-1.76.34s-.94.53-1.29.91-.61.83-.79 1.33-.27 1.03-.27 1.58c0 .49.07.98.23 1.45s.4.91.74 1.28.79.69 1.34.92 1.23.35 2.03.35l.83-.03a6.65 6.65 0 0 0 .7-.09l.6-.14c.19-.05.36-.12.52-.19.02 0 .03-.02.05-.03s.02-.02.03-.04.02-.03.02-.05v-.06-1.32l-.12-.07-.51.17c-.17.05-.35.09-.53.12l-.56.07-.58.02c-.45 0-.84-.06-1.16-.16s-.6-.25-.82-.43a1.77 1.77 0 0 1-.49-.64 2.29 2.29 0 0 1-.19-.78h3.57.61l.52-.01.41-.02.26-.03.14-.11.03-.16c.01-.06.02-.14.02-.23l.01-.28c.01-.1 0-.2 0-.31a3.63 3.63 0 0 0-.2-1.16c-.13-.38-.34-.76-.63-1.08s-.66-.6-1.12-.8-1.01-.31-1.66-.31m11.25.16h-1.86l-.14.11.07 7.59s0 .05.01.06.02.03.03.05.03.02.06.03.05 0 .08 0h1.81.07c.02 0 .04-.01.05-.02s.02-.02.02-.04v-.06l-.08-7.61v-.05c0-.01-.01-.02-.02-.03s-.02-.01-.04-.02-.04 0-.06 0m-.95-3.25c-.17 0-.34.03-.48.08s-.27.13-.38.22-.19.21-.25.35a1.08 1.08 0 0 0-.09.44 1.05 1.05 0 0 0 .09.44c.06.13.14.25.24.34s.23.17.38.22.31.08.49.08a1.59 1.59 0 0 0 .5-.08c.15-.05.28-.13.38-.22s.19-.21.24-.34a1.23 1.23 0 0 0 .08-.44 1.23 1.23 0 0 0-.08-.44c-.05-.13-.13-.25-.24-.35s-.23-.17-.38-.23-.32-.08-.5-.08m5.21-.221h-1.8-.07c-.02 0-.03.01-.05.02s-.02.02-.03.04 0 .03 0 .05l.1 9.29c0 .42.07.76.17 1.03s.26.48.44.63.41.25.65.31a3.32 3.32 0 0 0 .8.09h.34a2.46 2.46 0 0 0 .28-.02 1.24 1.24 0 0 0 .22-.04l.17-.05c.02-.01.04-.02.05-.03l.03-.03c.01-.01.01-.03.02-.05s0-.04 0-.07l-.02-1.2-.07-.1h-.1-.07-.07-.09c-.11 0-.2 0-.27-.03s-.14-.06-.19-.11-.09-.12-.11-.2a1.3 1.3 0 0 1-.04-.31l-.11-9.11s0-.03-.01-.05-.02-.03-.03-.04-.03-.02-.05-.02h-.07m4.62 0h-1.8-.07c-.02 0-.03.01-.05.02s-.02.02-.03.04 0 .03 0 .05l.13 9.29c0 .42.07.76.17 1.03a1.42 1.42 0 0 0 .45.63 1.7 1.7 0 0 0 .65.31 3.32 3.32 0 0 0 .8.09h.33a2.13 2.13 0 0 0 .27-.02c.08-.01.16-.02.22-.04l.17-.05c.02-.01.04-.02.05-.03l.03-.03c.01-.01.01-.03.01-.05v-.07l-.02-1.2-.06-.1h-.1-.08-.07-.09c-.11 0-.2 0-.28-.03s-.14-.06-.2-.11-.09-.12-.12-.2-.04-.19-.04-.31l-.14-9.11v-.05c0-.02-.02-.03-.03-.04s-.03-.02-.05-.02h-.07m9.81 3.469h-1.84-.06c-.01 0-.03.01-.04.02s-.02.02-.02.03v.05l.11 5.65c-.11.09-.22.17-.34.24a2.53 2.53 0 0 1-.37.18 1.91 1.91 0 0 1-.41.11c-.14.02-.3.04-.47.04a2.08 2.08 0 0 1-.69-.11 1.16 1.16 0 0 1-.48-.32 1.46 1.46 0 0 1-.29-.5c-.07-.19-.1-.42-.1-.67l-.08-4.63v-.05c0-.02 0-.02-.02-.03s-.02-.02-.04-.02h-.07-1.84-.06c-.01 0-.03 0-.04.02s-.02.02-.02.03v.05l.08 4.85c0 .56.1 1.03.25 1.42a2.38 2.38 0 0 0 .64.94 2.55 2.55 0 0 0 .94.52c.35.11.75.16 1.17.16a4.26 4.26 0 0 0 .61-.04c.21-.03.42-.07.62-.13a3.14 3.14 0 0 0 .61-.25 3.16 3.16 0 0 0 .58-.4c0 .04.01.08.02.13l.03.15c.01.05.03.1.04.15s.03.09.04.13c0 .02.01.03.02.04l.03.03c.01.01.03.01.05.02s.04 0 .07 0h1.62.07c.02 0 .03-.01.05-.02s.02-.02.02-.04v-.05l-.04-.28a3.09 3.09 0 0 1-.04-.35l-.03-.45-.02-.56-.12-5.98v-.05c0-.02 0-.02-.02-.03s-.02-.02-.04-.02h-.07m5.21-.148c-.55 0-1.03.07-1.43.2s-.74.3-1.01.52a2.12 2.12 0 0 0-.6.75 2.04 2.04 0 0 0-.19.87c0 .29.05.54.15.78s.25.45.46.66.48.39.82.56.74.34 1.23.5l.69.28a2.74 2.74 0 0 1 .44.25c.11.08.19.16.24.25s.07.18.08.28-.02.2-.08.28-.14.16-.25.22-.25.11-.42.14a3.42 3.42 0 0 1-.59.05c-.2 0-.41-.01-.62-.04l-.65-.11c-.22-.05-.44-.12-.65-.2a4.27 4.27 0 0 1-.61-.29l-.14.08.03 1.51v.06c0 .01.01.03.02.05s.02.03.04.04.04.02.06.04a2.31 2.31 0 0 0 .47.18l.59.14.68.09.75.03c.54 0 1.03-.06 1.45-.17s.79-.28 1.08-.49a2.02 2.02 0 0 0 .66-.77 2.23 2.23 0 0 0 .21-1.01c0-.28-.06-.54-.16-.78s-.25-.45-.47-.66-.49-.39-.84-.57a9.46 9.46 0 0 0-1.27-.52l-.7-.27c-.19-.08-.32-.16-.43-.24a.78.78 0 0 1-.22-.23c-.05-.08-.06-.16-.06-.25a.54.54 0 0 1 .06-.25.68.68 0 0 1 .2-.22c.09-.07.22-.12.38-.16s.35-.06.58-.06a5.98 5.98 0 0 1 .59.03c.2.02.4.06.59.1s.38.09.55.15l.47.19h.03.06c.01 0 .02-.01.03-.02s.01-.02.02-.03 0-.03 0-.04l-.03-1.39-.1-.19c-.11-.05-.24-.09-.38-.13s-.32-.07-.5-.1-.39-.05-.61-.07-.46-.02-.71-.02m6.74-2.15l-1.76.22-.13.15a3.14 3.14 0 0 0-.05.39l-.04.52-.03.55-.01.49h-1.1-.07c-.02 0-.03.01-.04.02s-.02.02-.02.04v.06l.03 1.33v.06c0 .02.01.03.02.04s.02.02.04.03.04.01.06.02h1.1l.11 4.18c.01.39.07.73.18 1.01a1.8 1.8 0 0 0 .47.69 1.81 1.81 0 0 0 .74.39c.29.08.61.12.97.12l.41-.01.37-.04.36-.07.35-.1c.02 0 .04-.02.05-.03s.02-.03.03-.04.01-.03.01-.05v-.06l-.03-1.16v-.04c0-.01 0-.02-.02-.03s-.01-.01-.02-.02-.02 0-.03 0l-.18.03-.17.02c-.06.01-.11 0-.16 0h-.17a1.58 1.58 0 0 1-.47-.06.74.74 0 0 1-.31-.19c-.08-.08-.14-.19-.18-.32s-.06-.28-.06-.45l-.1-3.77h1.72l.12-.11-.04-1.38-.13-.11h-1.7v-.61-.61l.01-.56.02-.46-.13-.08m8.149 2.15c-.3 0-.59.04-.86.1s-.53.16-.76.27a4.04 4.04 0 0 0-.64.39c-.19.14-.36.31-.5.47 0-.09-.02-.18-.03-.27s-.03-.18-.05-.26l-.06-.24a1.45 1.45 0 0 0-.06-.19c0-.02-.02-.04-.03-.06s-.03-.03-.04-.04-.03-.02-.06-.02h-.07-1.64l-.11.09.06.46.04.55.03.58.02.55.16 5.49v.06c0 .02.01.03.03.04s.03.02.05.03.04 0 .07 0h1.83.07c.02 0 .04-.01.05-.02s.02-.02.03-.04 0-.04 0-.06l-.15-5.13c.09-.11.22-.22.39-.32a3.36 3.36 0 0 1 .57-.27 3.79 3.79 0 0 1 .72-.18c.26-.04.54-.07.84-.07h.04.04.04.04.08c.02 0 .04-.01.05-.02l.03-.03c.01-.01 0-.03 0-.05l-.05-1.68v-.06c0-.02-.01-.03-.03-.03s-.03-.01-.04-.02-.04 0-.07 0m4.571 6.629c-.32 0-.58-.03-.8-.09a1.69 1.69 0 0 1-.54-.24 1.02 1.02 0 0 1-.31-.35c-.07-.13-.1-.27-.11-.42 0-.17.03-.33.1-.46s.19-.25.35-.35.37-.17.62-.22a4.62 4.62 0 0 1 .9-.08h.28.25c.08 0 .15 0 .23.02s.14.01.21.02l.07 1.96-.29.09c-.1.03-.2.04-.3.06s-.21.03-.32.03h-.33m-.41-6.65l-.71.03-.69.09-.65.15c-.21.06-.41.13-.59.21l-.1.15.04 1.38s0 .04.01.05l.03.03c.01.01.02.01.03.02s.02 0 .04 0c.16-.07.33-.14.51-.19l.55-.14c.19-.04.39-.07.59-.09s.42-.03.64-.03c.39 0 .69.05.93.13s.42.2.55.32.21.26.26.39a.98.98 0 0 1 .07.34v.2s-.09 0-.16-.01-.15 0-.24-.01-.2 0-.31 0h-.37c-.57 0-1.1.05-1.58.16s-.89.26-1.24.47-.62.47-.8.79-.27.69-.26 1.11a2.42 2.42 0 0 0 .31 1.17c.19.33.44.6.76.81s.69.37 1.11.48.87.16 1.35.16l.87-.03.86-.11a8.39 8.39 0 0 0 .9-.22 12.18 12.18 0 0 0 1-.35l.03-.07-.03-.25-.02-.25c-.01-.08 0-.17-.01-.25s0-.17 0-.26l-.12-3.24a3.74 3.74 0 0 0-.25-1.23c-.15-.37-.37-.71-.66-1s-.66-.51-1.11-.67-.97-.24-1.58-.24m7.84-2.119l-1.76.22-.13.15a3.14 3.14 0 0 0-.05.39l-.03.52-.02.55v.49h-1.11-.06c-.01 0-.03.01-.04.02s-.02.02-.02.04v.06l.05 1.33v.06c0 .02.01.03.02.04s.02.02.04.03.03.01.05.02h1.11l.15 4.18c.01.39.08.73.2 1.01a1.94 1.94 0 0 0 .48.69 1.81 1.81 0 0 0 .74.39c.29.08.61.12.97.12l.41-.01.37-.04.35-.07.35-.1c.02 0 .04-.02.05-.03s.02-.03.03-.04.01-.03.01-.05v-.06l-.05-1.16v-.04c0-.01 0-.02-.02-.03s-.01-.01-.02-.02-.02 0-.03 0l-.17.03c-.05.01-.11.01-.16.02s-.11 0-.16 0h-.17c-.19 0-.35-.02-.48-.06s-.23-.11-.32-.19-.14-.19-.18-.32-.06-.28-.07-.45l-.14-3.77h1.72l.12-.11-.05-1.38-.13-.11h-1.7l-.02-.61v-.61-.56l.02-.46-.13-.08m7.27 8.69c-.33 0-.64-.06-.9-.18s-.5-.29-.69-.51-.34-.49-.45-.79-.17-.64-.19-1.01.02-.72.11-1.02.22-.56.39-.77a1.73 1.73 0 0 1 .62-.49c.24-.11.51-.17.81-.17a2.27 2.27 0 0 1 .97.2c.28.13.5.31.68.54a2.72 2.72 0 0 1 .42.79c.1.29.15.61.16.95a3.28 3.28 0 0 1-.12 1.08c-.09.31-.23.56-.41.77s-.39.36-.63.46-.5.15-.77.15zm-.27-6.54c-.66 0-1.25.11-1.76.32a3.85 3.85 0 0 0-1.31.87c-.36.37-.62.81-.8 1.3a3.99 3.99 0 0 0-.23 1.59c.02.51.12 1.01.31 1.49s.46.92.82 1.31.81.7 1.36.93 1.18.35 1.91.35c.62 0 1.19-.1 1.69-.3s.94-.48 1.3-.84a3.49 3.49 0 0 0 .81-1.3c.18-.5.26-1.07.24-1.69-.02-.54-.14-1.07-.34-1.55a3.85 3.85 0 0 0-.86-1.28 4.16 4.16 0 0 0-1.34-.88c-.52-.21-1.13-.32-1.81-.32m10.66 0c-.3 0-.59.04-.86.1s-.52.16-.76.27-.44.25-.63.39-.36.31-.5.47a1.26 1.26 0 0 0-.04-.27l-.05-.26-.06-.24c-.02-.08-.05-.14-.07-.19l-.03-.06c-.01-.02-.03-.03-.04-.04s-.03-.02-.05-.02h-.07-1.65l-.09.09.06.46.05.55.04.58.03.55.25 5.49s0 .04.01.06.02.03.03.04.03.02.05.03.05 0 .08 0h1.83.07c.02 0 .03-.01.05-.02s.02-.02.03-.04 0-.04 0-.06l-.24-5.13c.09-.11.22-.22.38-.32a3.03 3.03 0 0 1 .57-.27 3.79 3.79 0 0 1 .72-.18c.26-.04.54-.07.84-.07h.04.04.04.04.07c.02 0 .03-.01.05-.02s.02-.02.02-.03v-.05l-.08-1.68v-.06c0-.02-.01-.03-.02-.03s-.03-.01-.04-.02-.04 0-.06 0"
              fill="#ceddfa"/>
        <path opacity=".75"
              d="M221.795 23.526h-.04l-.14.49-.15.49-.17.49-.19.49-.21.55-.21.56-.22.57-.22.57-.2.57-.21.55-.21.52-.21.5h4.29l-.07-.25c-.02-.09-.05-.18-.08-.27l-.09-.29-.1-.3-.1-.32-.1-.32-.1-.33-.1-.34-.11-.35-.11-.35-.11-.35-.11-.35-.11-.35-.1-.34-.1-.34-.09-.33-.09-.31-.08-.3-.08-.29-.08-.28m10.1 13.32s-.08 0-.11-.02-.06-.03-.08-.05-.03-.05-.04-.08-.01-.07-.01-.1l.39-11.8s0-.07.02-.09.02-.05.04-.07.04-.03.07-.04.06-.01.1-.01h3.34a.46.46 0 0 0 .1.01c.03.01.05.02.07.04s.03.04.04.07.01.06 0 .09l-.37 11.8s0 .08-.02.11-.02.06-.04.08-.04.03-.07.04-.06.01-.1.01h-3.33m-18.53 0s-.09 0-.12-.02-.05-.03-.07-.05-.02-.05-.02-.09 0-.07.03-.12l6.03-14.19.05-.12c.02-.04.03-.08.05-.12s.03-.08.05-.13l.05-.14.06-.24c.02-.08.03-.16.04-.25l.03-.25.02-.25.14-.17h4.35.09c.03 0 .05.01.07.03s.03.02.04.04.02.03.02.05l5.6 15.75.01.11c0 .03 0 .06-.02.08s-.04.03-.06.04-.06.01-.11.01h-3.54c-.03 0-.05 0-.08-.01s-.05-.02-.07-.03a.12.12 0 0 1-.05-.05c-.01-.02-.03-.04-.03-.07l-1.26-3.67h-6.29l-1.44 3.62-.05.09c-.02.03-.04.05-.07.07s-.06.03-.09.05-.07.02-.1.02h-3.18m20.55-13.53c-.13 0-.26-.01-.39-.04l-.37-.1c-.12-.04-.24-.1-.34-.17l-.31-.22a1.79 1.79 0 0 1-.25-.31c-.07-.11-.13-.22-.17-.34s-.08-.24-.09-.37-.02-.25-.01-.38a1.58 1.58 0 0 1 .04-.38c.03-.12.07-.24.12-.36s.12-.22.2-.33a1.24 1.24 0 0 1 .28-.28c.11-.09.22-.16.34-.23s.24-.12.37-.17.26-.08.4-.1a2.83 2.83 0 0 1 .41-.03c.16 0 .32.01.46.03a2.34 2.34 0 0 1 .4.1c.12.04.24.1.35.17a1.63 1.63 0 0 1 .29.23 2.17 2.17 0 0 1 .24.29 1.71 1.71 0 0 1 .17.33c.05.12.07.23.09.36a1.54 1.54 0 0 1 .01.37 1.58 1.58 0 0 1-.04.38c-.03.12-.07.25-.12.37s-.12.23-.2.34-.17.21-.27.31c-.09.08-.2.16-.31.23a2.26 2.26 0 0 1-.35.17c-.12.05-.25.08-.38.1s-.26.04-.39.04h-.03-.03-.03-.03-.02-.02-.04m5.07-11.63h-25.92a8.03 8.03 0 0 0-2.79.5 7.61 7.61 0 0 0-2.32 1.37c-.67.58-1.23 1.27-1.62 2.04s-.64 1.61-.68 2.5l-1.09 22.81c-.04.91.12 1.78.45 2.57s.82 1.5 1.45 2.1 1.39 1.08 2.24 1.42 1.8.52 2.8.52h26.44a8.09 8.09 0 0 0 2.84-.52c.88-.33 1.67-.82 2.34-1.42s1.22-1.31 1.6-2.1.61-1.66.63-2.57l.58-22.81c.02-.89-.15-1.73-.49-2.5a6.15 6.15 0 0 0-1.47-2.04c-.63-.58-1.38-1.05-2.22-1.37s-1.77-.5-2.75-.5"
              fill="#ff9a00"/>
    </g>
    <defs>
        <filter id="Q" x=".957" y=".695" width="581.719" height="542.57" filterUnits="userSpaceOnUse"
                color-interpolation-filters="sRGB">
            <feFlood flood-opacity="0" result="A"/>
            <feColorMatrix in="SourceAlpha" values="0 0 0 0 0 0 0 0 0 0 0 0 0 0 0 0 0 0 127 0"/>
            <feOffset dy="13"/>
            <feGaussianBlur stdDeviation="14.5"/>
            <feColorMatrix values="0 0 0 0 0.258824 0 0 0 0 0.392157 0 0 0 0 0.658824 0 0 0 0.1 0"/>
            <feBlend in2="A" result="C"/>
            <feColorMatrix in="SourceAlpha" values="0 0 0 0 0 0 0 0 0 0 0 0 0 0 0 0 0 0 127 0"/>
            <feOffset dy="52"/>
            <feGaussianBlur stdDeviation="26"/>
            <feColorMatrix values="0 0 0 0 0.258824 0 0 0 0 0.392157 0 0 0 0 0.658824 0 0 0 0.09 0"/>
            <feBlend in2="C" result="D"/>
            <feColorMatrix in="SourceAlpha" values="0 0 0 0 0 0 0 0 0 0 0 0 0 0 0 0 0 0 127 0"/>
            <feOffset dy="117"/>
            <feGaussianBlur stdDeviation="35"/>
            <feColorMatrix values="0 0 0 0 0.258824 0 0 0 0 0.392157 0 0 0 0 0.658824 0 0 0 0.05 0"/>
            <feBlend in2="D" result="E"/>
            <feColorMatrix in="SourceAlpha" values="0 0 0 0 0 0 0 0 0 0 0 0 0 0 0 0 0 0 127 0"/>
            <feOffset dy="208"/>
            <feGaussianBlur stdDeviation="41.5"/>
            <feColorMatrix values="0 0 0 0 0.258824 0 0 0 0 0.392157 0 0 0 0 0.658824 0 0 0 0.01 0"/>
            <feBlend in2="E"/>
            <feBlend in="SourceGraphic"/>
        </filter>
        <linearGradient id="R" x1="291.821" y1="18.275" x2="291.821" y2="247.715" gradientUnits="userSpaceOnUse">
            <stop stop-color="#000714" stop-opacity=".25"/>
            <stop offset="1" stop-color="#000714"/>
        </linearGradient>
        <linearGradient id="S" x1="291.795" y1="57.205" x2="291.795" y2="3.365" gradientUnits="userSpaceOnUse">
            <stop stop-color="#4264a8" stop-opacity=".25"/>
            <stop offset="1" stop-color="#4264a8"/>
        </linearGradient>
        <linearGradient id="T" x1="141.82" y1="228.066" x2="141.82" y2="14.516" gradientUnits="userSpaceOnUse">
            <stop stop-color="#4264a8" stop-opacity=".25"/>
            <stop offset="1" stop-color="#4264a8"/>
        </linearGradient>
        <linearGradient id="U" x1="443.485" y1="228.065" x2="443.485" y2="14.525" gradientUnits="userSpaceOnUse">
            <stop stop-color="#4264a8" stop-opacity=".25"/>
            <stop offset="1" stop-color="#4264a8"/>
        </linearGradient>
        <path id="V"
              d="M147.115 25.596h-9.21c-1.66 0-3.16 1.43-3.36 3.2l-1.11 9.81c-.2 1.76.98 3.2 2.64 3.2h9.21c1.66 0 3.16-1.43 3.36-3.2l1.11-9.81c.2-1.76-.98-3.2-2.64-3.2z"/>
        <path id="W"
              d="M144.515 48.496h-9.21c-1.66 0-3.16 1.43-3.36 3.19l-1.11 9.82c-.2 1.76.98 3.19 2.64 3.19h9.21c1.66 0 3.16-1.43 3.36-3.19l1.11-9.82c.2-1.76-.98-3.19-2.64-3.19z"/>
        <path id="X"
              d="M141.925 71.397h-9.21c-1.66 0-3.16 1.43-3.36 3.19l-1.11 9.81c-.2 1.76.98 3.2 2.64 3.2h9.21c1.66 0 3.16-1.43 3.36-3.2l1.11-9.81c.2-1.76-.98-3.19-2.64-3.19z"/>
        <path id="Y"
              d="M134.144 140.066h-9.21c-1.66 0-3.16 1.43-3.36 3.2l-1.11 9.81c-.2 1.76.98 3.19 2.64 3.19h9.21c1.66 0 3.16-1.43 3.36-3.19l1.11-9.81c.2-1.76-.98-3.2-2.64-3.2z"/>
        <path id="Z"
              d="M393.485 82.815h-9.22c-1.66 0-2.83 1.43-2.63 3.19l1.11 9.82c.2 1.76 1.7 3.19 3.35 3.19h9.22c1.66 0 2.83-1.43 2.63-3.19l-1.11-9.82c-.2-1.76-1.7-3.19-3.35-3.19z"/>
        <path id="a"
              d="M396.075 105.695h-9.22c-1.66 0-2.83 1.43-2.63 3.2l1.11 9.81c.2 1.76 1.7 3.19 3.35 3.19h9.22c1.66 0 2.83-1.43 2.63-3.19l-1.11-9.81c-.2-1.76-1.7-3.2-3.36-3.2"/>
    </defs>
</svg>