<svg xmlns:xlink="http://www.w3.org/1999/xlink" xmlns="http://www.w3.org/2000/svg" width="340" height="225" fill="none">
    <style>
        <![CDATA[.B{fill:#4264a8}.C{fill:#000714}.D{fill:#fff}.E{opacity:.15}.F{opacity:.6}.G{fill-opacity:.75}]]></style>
    <g filter="url(#R)">
        <mask id="A" maskUnits="userSpaceOnUse" x="107" y="158" width="4" height="3">
            <path d="M110.005 160.17l-.49-.29-2.45-1.55.49.29 2.45 1.55z" class="D"/>
        </mask>
        <g mask="url(#A)" class="C">
            <use xlink:href="#Z"/>
        </g>
        <mask id="B" maskUnits="userSpaceOnUse" x="107" y="158" width="8" height="4">
            <path d="M114.805 161.409c-1.75 0-3.38-.44-4.81-1.24l-2.45-1.55c1.43.8 3.05 1.24 4.81 1.24l2.45 1.55z"
                  class="D"/>
        </mask>
        <g mask="url(#B)" class="C">
            <use xlink:href="#Z" y="-0.002"/>
        </g>
        <mask id="C" maskUnits="userSpaceOnUse" x="106" y="160" width="9" height="4">
            <path d="M108.455 161.57l-2.45-1.55a11.36 11.36 0 0 0 6.13 1.77l2.45 1.55a11.36 11.36 0 0 1-6.13-1.77z"
                  class="D"/>
        </mask>
        <g mask="url(#C)" class="B">
            <path d="M112.135 161.78l2.45 1.55a11.36 11.36 0 0 1-6.13-1.77l-2.45-1.55a11.36 11.36 0 0 0 6.13 1.77z"/>
        </g>
        <mask id="D" maskUnits="userSpaceOnUse" x="317" y="27" width="9" height="10">
            <path d="M320.355 28.609c2.61 1.65 4.52 4.54 5.33 8.09l-2.45-1.55c-.81-3.55-2.72-6.44-5.33-8.09l2.45 1.55z"
                  class="D"/>
        </mask>
        <g mask="url(#D)" class="C">
            <path d="M317.915 27.059l2.45 1.55c.36.23.7.48 1.03.75l-2.45-1.55c-.33-.27-.67-.52-1.03-.75z"/>
            <path d="M318.945 27.809l2.45 1.55c.63.52 1.21 1.11 1.72 1.78l-2.45-1.55a12.1 12.1 0 0 0-1.72-1.78z"/>
            <path d="M320.665 29.578l2.45 1.55c.73.93 1.34 1.99 1.82 3.16l-2.45-1.55c-.48-1.17-1.09-2.23-1.82-3.16z"/>
            <use xlink:href="#a"/>
        </g>
        <mask id="E" maskUnits="userSpaceOnUse" x="323" y="35" width="4" height="8">
            <path d="M325.685 36.698c.43 1.88.55 3.95.31 6.13l-2.45-1.55c.25-2.17.12-4.24-.31-6.13l2.45 1.55z"
                  class="D"/>
        </mask>
        <g mask="url(#E)" class="C">
            <use xlink:href="#a"/>
        </g>
        <mask id="F" maskUnits="userSpaceOnUse" x="318" y="25" width="10" height="18">
            <path d="M318.965 25.369l2.45 1.55c4.52 2.87 7.19 8.92 6.39 15.91l-2.45-1.55c.79-6.99-1.87-13.04-6.39-15.91z"
                  class="D"/>
        </mask>
        <g mask="url(#F)" class="B">
            <path d="M318.965 25.369l2.45 1.55a12.38 12.38 0 0 1 1.19.86l-2.45-1.55c-.38-.31-.77-.6-1.19-.86z"/>
            <path d="M320.146 26.229l2.45 1.55a12.64 12.64 0 0 1 1.97 2.03l-2.45-1.55a12.64 12.64 0 0 0-1.97-2.03z"/>
            <path d="M322.125 28.26l2.451 1.55a14.97 14.97 0 0 1 2.049 3.56l-2.45-1.55c-.54-1.31-1.23-2.51-2.05-3.56z"/>
            <path d="M324.166 31.818l2.45 1.55c1.12 2.74 1.58 5.98 1.19 9.46l-2.45-1.55c.39-3.48-.07-6.72-1.19-9.46z"/>
        </g>
        <path d="M297.415 159.85l2.44 1.56h-185.05l-2.45-1.56h185.06z" class="C"/>
        <path d="M297.195 161.779l2.45 1.56h-185.06l-2.45-1.56h185.06z" class="B"/>
        <path d="M323.545 41.279l2.45 1.55-11.64 102.83-2.45-1.55 11.64-102.83z" class="C"/>
        <path d="M325.355 41.279l2.45 1.55-11.64 102.83-2.45-1.55 11.64-102.83z" class="B"/>
        <mask id="G" maskUnits="userSpaceOnUse" x="297" y="144" width="18" height="18">
            <path d="M311.906 144.109l2.45 1.55c-.98 8.68-7.48 15.74-14.49 15.74l-2.45-1.55c7.01 0 13.51-7.06 14.49-15.74z"
                  class="D"/>
        </mask>
        <g mask="url(#G)" class="C">
            <path d="M311.905 144.109l2.45 1.55-.16 1.13-2.45-1.55.16-1.13z"/>
            <path d="M311.745 145.24l2.45 1.55a19.69 19.69 0 0 1-1.29 4.43l-2.45-1.55a20.79 20.79 0 0 0 1.29-4.43z"/>
            <path d="M310.456 149.67l2.45 1.55c-.44 1.05-.97 2.06-1.56 2.99l-2.45-1.55c.59-.93 1.12-1.93 1.56-2.99z"/>
            <path d="M308.895 152.66l2.45 1.55c-.55.86-1.16 1.67-1.82 2.4l-2.45-1.55a18.91 18.91 0 0 0 1.82-2.4z"/>
            <path d="M307.075 155.07l2.45 1.55c-.7.78-1.46 1.48-2.26 2.1l-2.45-1.55c.8-.61 1.56-1.31 2.26-2.1z"/>
            <path d="M304.815 157.16l2.45 1.55c-2.22 1.7-4.78 2.69-7.41 2.69l-2.45-1.55c2.63 0 5.19-.99 7.41-2.69z"/>
        </g>
        <path d="M312.835 23.599c8 0 13.62 7.93 12.52 17.67l-11.64 102.83c-1.1 9.75-8.52 17.67-16.52 17.67h-185.06c-8.01 0-13.63-7.93-12.53-17.67l11.52-101.68c1.1-9.75 8.52-17.67 16.53-17.67h25.29c2.91 0 5.82-1.8 7.41-4.58 2.57-4.49 6.85-7.14 11.13-7.14h101.01c4.14 0 7.68 2.41 9.21 6.29 1.05 2.64 3.45 4.28 6.26 4.28h24.86.01zm-.94 120.51l11.64-102.83c.98-8.68-3.91-15.74-10.93-15.74h-24.86c-3.47 0-6.45-2.03-7.74-5.29s-4.26-5.29-7.74-5.29h-101.01c-3.62 0-7.17 2.2-9.16 5.67-2.21 3.86-5.77 6.05-9.39 6.05h-25.29c-7.02 0-13.51 7.06-14.49 15.74l-11.49 101.69c-.98 8.68 3.9 15.74 10.93 15.74h185.05c7.01 0 13.51-7.06 14.49-15.74"
              class="B"/>
        <path d="M272.286 14.959c3.47 0 6.45 2.03 7.74 5.29s4.26 5.29 7.74 5.29h24.86c7.01 0 11.91 7.06 10.93 15.74l-11.64 102.83c-.98 8.68-7.48 15.74-14.49 15.74h-185.07c-7.02 0-11.91-7.06-10.93-15.74l11.52-101.69c.98-8.68 7.47-15.74 14.49-15.74h25.29c3.62 0 7.18-2.19 9.16-5.66 2.21-3.86 5.76-6.06 9.38-6.06h101.01.01z"
              fill="url(#S)"/>
        <mask id="H" maskUnits="userSpaceOnUse" x="297" y="144" width="20" height="20">
            <path d="M313.715 144.109l2.45 1.55c-1.1 9.75-8.52 17.67-16.52 17.67l-2.45-1.55c8 0 15.42-7.93 16.52-17.67z"
                  class="D"/>
        </mask>
        <g mask="url(#H)" class="B">
            <path d="M313.715 144.109l2.45 1.55-.18 1.24-2.45-1.55.18-1.24z"/>
            <path d="M313.535 145.35l2.45 1.55c-.29 1.71-.78 3.35-1.42 4.9l-2.45-1.55a22.14 22.14 0 0 0 1.42-4.9z"/>
            <path d="M312.115 150.25l2.45 1.55a22.35 22.35 0 0 1-1.739 3.33l-2.451-1.55c.66-1.04 1.25-2.16 1.74-3.33z"/>
            <path d="M310.375 153.58l2.45 1.55c-.62.97-1.31 1.88-2.05 2.71l-2.45-1.55c.74-.83 1.43-1.74 2.05-2.71z"/>
            <path d="M308.325 156.289l2.45 1.55a19.22 19.22 0 0 1-2.57 2.39l-2.45-1.55a19.22 19.22 0 0 0 2.57-2.39z"/>
            <path d="M305.755 158.68l2.45 1.55c-2.56 1.96-5.52 3.1-8.56 3.1l-2.45-1.55c3.04 0 6-1.15 8.56-3.1z"/>
        </g>
    </g>
    <mask id="I" maskUnits="userSpaceOnUse" x="163" y="49" width="96" height="91">
        <path d="M163.875 139.831l10.2-90.04h84.48l-10.2 90.04h-84.48z" class="D"/>
    </mask>
    <g mask="url(#I)">
        <mask id="J" maskUnits="userSpaceOnUse" x="180" y="71" width="62" height="47">
            <path d="M186.045 71.24h55.68l-5.19 45.9h-55.69l5.2-45.9z" class="D"/>
        </mask>
        <g mask="url(#J)">
            <path d="M184.545 114.86h-2.98c-.04.13-.08.26-.09.4-.1.9.5 1.63 1.35 1.63s1.62-.73 1.73-1.63c.02-.14.01-.27 0-.4m10.36 0h-2.98c-.04.13-.08.26-.09.4h-.22-.23c.02-.14.04-.27.08-.4h-6.46v.4c-.07.66-.42 1.24-.91 1.63h7.83c-.4-.39-.61-.98-.54-1.63h.23.22c-.09.9.51 1.63 1.36 1.63.55 0 1.06-.3 1.38-.76l.19-.34c.07-.17.13-.35.15-.54.02-.14.01-.27 0-.4m-11.71-1.24c-.55 0-1.06.3-1.38.77h2.6c-.22-.46-.67-.77-1.22-.77zm10.37 0c-.55 0-1.06.3-1.39.77h2.6c-.22-.46-.66-.77-1.21-.77zm15.84-2.51c-.86 0-1.62.73-1.73 1.63-.1.9.5 1.64 1.36 1.64.55 0 1.06-.31 1.39-.77l.02-.04.02-.02.13-.26.02-.06c.07-.16.11-.33.13-.5.1-.9-.5-1.63-1.35-1.63m-8.01-7.15h-13.77l-5.26 9.39c.28-.14.58-.22.89-.22.81 0 1.44.52 1.67 1.25h6.74c.4-.73 1.15-1.25 1.95-1.25.81 0 1.44.52 1.67 1.25h.26l5.84-10.42m14.43 0h-11.27l.18.55 2.6 7.75c.32-.94 1.18-1.64 2.13-1.64s1.62.67 1.75 1.58l4.62-8.24m-12.57-2.41l-1.08 1.93h.1.77.77.09l-.65-1.93zm-5.33-15.97l-10.03 17.9h13.77l1.4-2.49-5.14-15.41zm14.38-.17l-8.73 15.58.83 2.49h11.71l1.39-2.49-5.2-15.57m-1.02-3.05h-11.55l-1.49 2.66 5.14 15.41 8.73-15.58-.83-2.49zm2.23 0h-.06-.79-.82-.06l.65 1.93 1.08-1.93zm12.2 0h-11.7l-1.4 2.49 5.2 15.57 7.66-13.65c-.28.14-.58.21-.89.21-1.1 0-1.88-.96-1.75-2.12h.23.22c-.09.9.51 1.63 1.36 1.63s1.62-.73 1.72-1.63-.5-1.64-1.35-1.64-1.62.73-1.73 1.64h-.22-.23c.13-1.17 1.13-2.12 2.23-2.12.31 0 .6.08.85.21l-.2-.59zm-17.3-8.58c-.31.95-1.18 1.66-2.13 1.66s-1.66-.7-1.75-1.65l-4.53 8.08h11.12l-.18-.53-2.53-7.56zm10.48-.13l-4.31 7.69-.3.53h11.26l-2.73-8.18c-.28.99-1.18 1.75-2.16 1.75s-1.73-.77-1.76-1.79zm-12.04-1.97h-.14-.14c-.79.08-1.48.78-1.58 1.63-.09.9.51 1.63 1.36 1.63s1.62-.73 1.72-1.63c.1-.85-.43-1.55-1.21-1.63m14.37 0h-.14-.14c-.79.08-1.48.78-1.58 1.63-.1.9.5 1.63 1.35 1.63s1.62-.73 1.73-1.63c.1-.85-.44-1.55-1.21-1.63"
                  fill="#ceddfa" class="F"/>
            <path d="M227.765 114.859h-2.98c-.04.13-.08.26-.09.4-.1.9.5 1.63 1.35 1.63s1.62-.73 1.73-1.63a2.67 2.67 0 0 0 0-.4m8.57 0h-2.98c-.04.13-.08.26-.09.4h-.23-.23c.02-.14.04-.27.08-.4h-4.66v.4c-.07.66-.42 1.24-.91 1.63h6.03c-.4-.39-.61-.98-.54-1.63h.23.23c-.1.9.5 1.63 1.35 1.63s1.62-.73 1.73-1.63c.02-.14.01-.27 0-.4m-9.92-1.24c-.55 0-1.06.3-1.38.77h2.6a1.33 1.33 0 0 0-1.21-.77m8.56 0c-.55 0-1.06.3-1.38.77h2.6c-.22-.46-.67-.77-1.22-.77zm-5.34-7.67l-3.43 6.12-.75 1.34c.31-.18.66-.28 1.01-.28.81 0 1.44.52 1.67 1.25h4.94c.4-.73 1.15-1.25 1.95-1.25a1.72 1.72 0 0 1 1.03.34l-2.51-7.51c-.28 1-1.18 1.75-2.16 1.75s-1.72-.76-1.76-1.76m2.19-1.99c-.85 0-1.62.73-1.73 1.63-.1.9.51 1.64 1.36 1.64s1.62-.74 1.72-1.64-.5-1.63-1.35-1.63z"
                  class="B F"/>
        </g>
        <path d="M194.365 117.381h-.14-.36l-8.16 14.54c-.06.12-.03.27.07.32.03.02.06.03.1.03.09 0 .17-.05.22-.14l8.27-14.75zm.56-1c-.14.19-.3.37-.48.52h.19l.29-.51m-.18-.58l-.19.33c.07-.1.14-.21.19-.33zm1.03-.94h-.14-.27v.4c-.03.24-.09.48-.19.7l.62-1.1m5.92-10.9h-.32l-5.84 10.42h.15.35l4.73-8.46.01-.33c.07-.66.42-1.24.91-1.63m1.35-2.97l-1.4 2.49h.14.36l1.08-1.93-.15-.45-.03-.1m9.05-16.14l-8.73 15.58.15.46.03.1 8.73-15.58-.15-.46-.03-.1zm1.9-2.49h-.14-.36l-1.08 1.93.15.45.03.1 1.4-2.49m5.8-10.68h-.32l-.3.54-4.28 7.65-.01.37c-.07.66-.42 1.25-.91 1.63h.3l.3-.53 4.31-7.69.01-.33c.07-.66.42-1.25.91-1.63m1.35-2.97l-1.4 2.49h.14.36l1.08-1.93-.15-.46-.03-.1zm7.2-12.6c-.08 0-.17.05-.22.14l-6.67 11.9.15.46.03.1 6.86-12.25c.07-.12.04-.27-.07-.32-.03-.02-.06-.03-.1-.03m-19.82 61.251h-.23l-8.16 14.54c-.06.12-.03.27.08.32.03.02.06.03.09.03.08 0 .17-.05.22-.14l8.09-14.44-.1-.31m1.69-2.52h-.15-.36l-.95 1.7.11.33h.2l1.14-2.03m.56-1.01c-.14.2-.31.38-.5.53h.2l.3-.53zm-.19-.55l-.13.25-.02.03-.02.04c.07-.1.13-.2.18-.31m.02-.05l-.02.03s.01-.02.02-.03zm5.71-9.28h-.14-.36l-4.62 8.24c.02.17.03.35 0 .54a2.48 2.48 0 0 1-.2.72l5.32-9.5zm1.16-2.98l-1.39 2.49h.13.36l1.08-1.93-.16-.47-.03-.1m9.2-15.63c-.21.62-.67 1.14-1.23 1.42l-7.66 13.65.16.46.03.1 8.55-15.26.17-.3-.03-.08m1.74-2.99h-.14-.36l-1.09 1.93.15.46.03.1 1.4-2.49m5.98-10.68h-.14-.36l-5.71 10.19h.14.36l5.71-10.19zm8.36-15.57c-.08 0-.17.05-.22.14l-8.38 14.94h.14.36l8.26-14.74c.06-.12.04-.27-.07-.32-.03-.02-.06-.03-.1-.03m-62.62 61.279h-.14-.36l-8.15 14.54c-.07.12-.04.27.07.32.03.02.06.03.09.03.08 0 .17-.05.22-.14l8.26-14.75m1-2.52h-.09l-.11.2v.02l-1.03 1.82h.14.36l.65-1.15c-.02-.15-.02-.32 0-.48.02-.14.04-.27.08-.4m6.52-10.9h-.15-.13-.23l-5.83 10.42h.02c.24-.45.62-.82 1.06-1.03l5.26-9.39zm10.11-18.94l-10.35 18.46h.01.13.37l10.03-17.9-.15-.46-.03-.1m1.99-2.66h-.14-.15-.21l-1.18 2.1.1.29.05.17.03.1 1.49-2.66m5.71-10.68h-.23l-5.71 10.19h.14.36l4.53-8.08c-.02-.15-.01-.31 0-.47.07-.66.42-1.25.91-1.63m1.34-2.81l-1.3 2.32h.14.29.07l.98-1.76-.15-.46-.03-.1zm7.3-12.76c-.09 0-.17.05-.22.14l-6.77 12.06.15.46.03.1 6.96-12.41c.07-.12.04-.27-.07-.32-.03-.02-.06-.03-.1-.03m-.03 77.37zm-.03-.01h.02-.02zm-.07-.06s.03.04.06.05c-.02-.01-.05-.03-.06-.05zm9.06-16.05h-.23l-1.89 3.38v.02l-.02.02-.03.05-.92 1.65-5.51 9.84-.2.35.16.46c.04.12-.03.27-.15.32-.02.01-.05.02-.07.02.08 0 .15-.06.2-.14l.45-.82 5.51-9.83.01-.02.92-1.64.03-.06.01-.04 1.84-3.28-.1-.3m1.36-2.52h-.18l-.95 1.69.11.34h.2l.72-1.29.01-.35c.02-.14.04-.27.08-.4m6.24-10.9h-.3l-4.43 7.9-1 1.79-.27.49-.13.23h.11a2.44 2.44 0 0 1 .94-.97l.75-1.34 3.43-6.12.01-.36c.07-.66.42-1.24.91-1.63m1.35-2.96l-1.38 2.47h.15.35l1.07-1.91-.15-.46-.03-.1m5.6-9.75c-.08 0-.17.05-.22.14l-.53.94-3.95 7.05-.59 1.06.15.46.04.1.79-1.41 3.96-7.05.52-.94c.07-.12.04-.27-.07-.32-.03-.02-.06-.03-.1-.03z"
              class="B"/>
        <path d="M223.465 117.381h-.37-.13l.1.3 4.83 14.45c.03.09.1.14.19.14.03 0 .07 0 .1-.03.12-.05.19-.2.14-.32l-4.85-14.54m-.84-2.52h-.36-.15l.67 2.03h.35.15l-.11-.34-.57-1.69m-3.64-10.9h-.37-.14l3.49 10.42h.36.14l-3.48-10.42zm-7.22-21.6h-.36-.14l.83 2.49.03.1.15.46 5.2 15.57.03.1.16.47.64 1.93h.36.15l-.83-2.49-.03-.1-.16-.46-5.2-15.57-.03-.1-.15-.45-.65-1.93m-3.57-10.68h-.24c.4.39.61.98.53 1.63-.02.16-.05.31-.1.46l2.53 7.56.18.53h.33c-.4-.39-.61-.98-.54-1.63.01-.11.03-.22.06-.32l-2.57-7.69-.18-.54zm-5.34-15.57s-.07 0-.1.03c-.12.05-.19.2-.14.32l4.14 12.41.03.1.15.46.59 1.76h.36.14l-.78-2.32-.03-.1-.15-.46-4.03-12.06c-.03-.09-.1-.14-.19-.14m35.03 61.25h-.36-.14l4.92 14.75c.02.09.1.14.19.14.13 0 .24-.11.26-.24 0-.05 0-.1-.02-.13l-4.84-14.51m-.84-2.52h-.24v.4c0 .08-.02.16-.04.25l.46 1.39h.36.14l-.67-2.03m-3.63-10.9h-.31c.4.39.61.98.54 1.63-.01.13-.04.25-.07.37l2.51 7.51a1.81 1.81 0 0 1 .64.91h.02.14l-3.31-9.92v-.02l-.17-.49m-7.2-21.6h-.36-.14l.2.59c.62.34 1 1.07.9 1.91-.02.17-.06.33-.11.49l.03.08 5.2 15.58.03.1.15.46.64 1.91h.36.14l-.83-2.47-.04-.1-.15-.46-5.19-15.59-.03-.1-.15-.46-.1-.3-.54-1.63m-3.56-10.68h-.3c.4.39.61.98.53 1.63-.01.13-.04.25-.07.37l2.73 8.18h.36.14l-3.22-9.65-.18-.54m-5.33-15.57s-.07 0-.1.03c-.12.05-.19.2-.14.32l4.08 12.25.03.1.15.46.64 1.93h.36.14l-.83-2.49-.03-.1-.15-.46-3.96-11.9c-.03-.09-.1-.14-.19-.14zm-8.29 61.259h-.36-.13l.1.31 4.83 14.44.41 1.23s.02.05.04.06c.02.02.04.04.06.05h.02.03.03a.2.2 0 0 0 .09-.02c.12-.05.19-.2.15-.32l-.16-.46-.26-.77-4.86-14.54m-.84-2.52h-.36-.15l.69 2.03h.34.15l-.11-.33-.57-1.7m-3.64-10.9h-.3c.4.39.61.98.54 1.63-.01.12-.04.24-.07.36l2.57 7.68v.03l.25.72h.24c-.4-.39-.62-.98-.55-1.64.02-.17.06-.33.11-.48l-2.6-7.75-.18-.55m-7.21-21.6h-.36-.14l.87 2.6.02.06.03.1.15.46 5.14 15.41.03.1.15.45.65 1.93h.36.14l-.83-2.49-.03-.1-.15-.46-5.14-15.41-.03-.1-.05-.17-.1-.29-.7-2.1m-3.57-10.68h-.36-.14l3.41 10.19h.36.14l-3.41-10.19zm-5.34-15.57s-.07 0-.1.03c-.12.05-.19.2-.15.32l4.92 14.74h.36.14l-4.98-14.94a.2.2 0 0 0-.19-.14"
              class="B"/>
        <path d="M244.215 116.891h-6.51-.14-.36-1.33c-.38.3-.84.49-1.32.49s-.9-.18-1.21-.49h-6.03c-.38.3-.84.49-1.32.49s-.9-.18-1.21-.49h-1.27-.2-.15-.35-13.73-.2-.15-.34-13.73-.19c-.38.3-.84.49-1.32.49s-.9-.18-1.21-.49h-7.83c-.38.3-.84.49-1.32.49s-.9-.18-1.21-.49h-1.19-.36-.14-6.64c-.13 0-.24.11-.26.24s.07.24.2.24h6.43.36.14 2.52.15 10.34.02.74.36.14 13.93.23.13.36 13.71.23.13.37 2.42.1 8.56.17 2.64.14.36 6.3c.13 0 .24-.11.26-.24s-.07-.24-.2-.24m-36.57-4.15h-.19-.04-.23c-.07.66.15 1.25.55 1.64h.13 1.13c-.86 0-1.46-.74-1.36-1.64m1.78-2.12c-.95 0-1.81.7-2.13 1.64a2.77 2.77 0 0 0-.11.48h.23.04.19c.1-.9.87-1.63 1.73-1.63s1.45.73 1.35 1.63a1.93 1.93 0 0 1-.13.5c0 .01-.01.02-.02.04-.05.13-.11.24-.18.33-.32.46-.84.77-1.39.77h1.1.16c.19-.15.36-.33.5-.53.08-.12.16-.25.22-.39a2.48 2.48 0 0 0 .2-.72c.02-.19.02-.37 0-.54-.12-.91-.83-1.58-1.75-1.58"
              class="B"/>
        <path d="M181.555 114.861h-.17-.03-.13-.14c-.04.13-.07.26-.08.4h.23.04.19c.02-.14.05-.27.09-.4zm3.44 0h-.29-.17a1.34 1.34 0 0 1 0 .4c-.1.9-.88 1.63-1.73 1.63s-1.45-.73-1.35-1.63h-.19-.04-.23c-.02.17-.02.33 0 .48a1.91 1.91 0 0 0 .54 1.15c.31.3.73.49 1.21.49s.94-.18 1.32-.49c.49-.39.83-.98.91-1.63a1.34 1.34 0 0 0 0-.4m-1.76-1.73c-.31 0-.61.08-.89.22a2.45 2.45 0 0 0-1.06 1.03h.12.03.36c.32-.46.84-.77 1.38-.77s1 .3 1.22.77h.36.15c-.23-.73-.86-1.25-1.67-1.25zm8.7 1.73h-.17-.29c-.04.13-.07.26-.08.4h.23.22c.02-.14.05-.27.09-.4zm3.45 0h-.3-.17a1.34 1.34 0 0 1 0 .4 1.67 1.67 0 0 1-.15.54c-.05.12-.12.23-.19.34-.32.46-.84.76-1.38.76-.85 0-1.45-.73-1.36-1.63h-.22-.23c-.07.66.14 1.24.54 1.63.31.3.73.49 1.21.49s.94-.18 1.32-.49a2.65 2.65 0 0 0 .48-.52c.09-.13.17-.27.24-.42a2.34 2.34 0 0 0 .19-.7 1.34 1.34 0 0 0 0-.4m-1.76-1.73c-.81 0-1.56.52-1.95 1.25h.15.36c.33-.46.84-.77 1.39-.77a1.3 1.3 0 0 1 1.21.77h.36.16c-.23-.73-.86-1.25-1.67-1.25m10.65-9.17h-.05-.45-.77-.77-.46-.04c-.49.39-.83.98-.91 1.63h.17.06.22c.1-.9.88-1.63 1.73-1.63s1.45.73 1.35 1.63-.87 1.64-1.72 1.64-1.46-.74-1.36-1.64h-.22-.06-.17a1.82 1.82 0 0 0-.01.33c.03 1.02.77 1.79 1.76 1.79s1.89-.76 2.16-1.76c.03-.12.06-.24.07-.36.07-.66-.14-1.24-.54-1.63m7.11-23.73h-.23-.06-.17c-.07.66.15 1.25.54 1.63h.03.42.82c-.86 0-1.46-.73-1.36-1.63m1.78-2.12c-1 0-1.91.78-2.18 1.8a1.8 1.8 0 0 0-.06.32h.17.06.23c.1-.9.87-1.64 1.73-1.64s1.45.74 1.35 1.64-.87 1.63-1.72 1.63h.79.42.06c.49-.39.83-.98.91-1.63.01-.13.02-.25.01-.37-.05-1-.79-1.75-1.76-1.75m11.92 4.62c-1.1 0-2.1.95-2.23 2.12h.23.22c.11-.91.88-1.64 1.73-1.64s1.45.73 1.35 1.64-.87 1.63-1.72 1.63-1.45-.73-1.36-1.63h-.22-.23c-.13 1.16.65 2.12 1.75 2.12a2.08 2.08 0 0 0 .89-.21c.56-.28 1.02-.79 1.23-1.42.05-.16.09-.32.11-.49.1-.84-.28-1.57-.9-1.91a1.7 1.7 0 0 0-.85-.21zm-4.12-11.049h-.66-.43-.04a2.53 2.53 0 0 0-.91 1.63h.17.05.23c.1-.85.78-1.55 1.58-1.63m1.41 0h-.06-.43-.63c.77.08 1.31.78 1.21 1.63-.1.9-.88 1.63-1.73 1.63s-1.45-.73-1.35-1.63h-.23-.05-.17c-.01.11-.02.23-.01.33.03 1.01.77 1.79 1.76 1.79s1.88-.75 2.16-1.75a2.41 2.41 0 0 0 .07-.37c.07-.66-.14-1.25-.53-1.63"
              class="B"/>
        <path d="M206.555 71.682h-.71-.29-.13a2.53 2.53 0 0 0-.91 1.63h.23.03.19c.1-.85.79-1.55 1.58-1.63m1.41 0h-.12-.43-.57c.77.08 1.3.78 1.21 1.63-.1.9-.87 1.63-1.72 1.63s-1.45-.73-1.36-1.63h-.19-.03-.23a1.85 1.85 0 0 0 0 .47c.09.95.8 1.65 1.75 1.65s1.82-.71 2.13-1.66c.05-.15.08-.3.1-.46.07-.66-.14-1.25-.53-1.63m25.13 32.279h-.05-.44-.77-.77-.43-.06c-.49.39-.83.98-.91 1.63h.19.03.23c.1-.9.88-1.63 1.73-1.63s1.45.73 1.35 1.63-.87 1.64-1.72 1.64-1.46-.74-1.36-1.64h-.23-.03-.19c-.01.12-.02.24-.01.36.05 1 .78 1.76 1.76 1.76s1.88-.76 2.16-1.75c.03-.12.06-.24.07-.37.07-.66-.14-1.24-.54-1.63m-8.32 10.9h-.18-.11-.18c-.04.13-.07.26-.08.4h.18.05.23c.02-.14.05-.27.09-.4zm3.44 0h-.29-.17a1.34 1.34 0 0 1 0 .4c-.11.9-.88 1.63-1.73 1.63s-1.45-.73-1.35-1.63h-.23-.05-.18c-.01.12-.02.23-.01.35.02.51.22.97.55 1.29.31.3.73.49 1.21.49s.94-.18 1.32-.49c.49-.39.83-.98.91-1.63a1.34 1.34 0 0 0 0-.4m-1.76-1.73a2.1 2.1 0 0 0-1.01.28 2.44 2.44 0 0 0-.94.97h.04.11.37c.32-.46.84-.77 1.38-.77a1.31 1.31 0 0 1 1.21.77h.36.15c-.23-.73-.86-1.25-1.67-1.25zm6.91 1.72h-.17-.3c-.04.13-.07.26-.08.4h.23.23c.02-.14.05-.27.09-.4zm3.44 0h-.12-.16-.17a1.34 1.34 0 0 1 0 .4c-.1.9-.88 1.63-1.73 1.63s-1.45-.73-1.35-1.63h-.23-.23c-.07.66.14 1.24.54 1.63.31.3.73.49 1.21.49s.94-.18 1.32-.49a2.54 2.54 0 0 0 .87-1.39c.02-.08.03-.16.04-.25a1.34 1.34 0 0 0 0-.4m-1.76-1.73c-.81 0-1.56.52-1.95 1.25h.16.36c.32-.46.84-.77 1.38-.77s1 .3 1.22.77h.36.15c-.12-.38-.34-.69-.64-.91-.28-.21-.64-.33-1.03-.34"
              class="B"/>
        <path d="M245.735 103.471h-12.5-.14-.36-.08-.77-.77-.08-.35-.15-11.7-.15-.36-1.72-.36-.13-11.71-.14-.36-.09-.77-.77-.1-.36-.14-13.77-.37-.13-.01-12.64c-.13 0-.24.11-.26.24s.07.24.2.24h12.42.23.13.15 13.77.32.04.46.77.77.45.05.3 11.27.36.14 2.16.14.37 11.27.3.06.43.77.77.44.05.31 12.29c.13 0 .24-.11.26-.24s-.07-.24-.2-.24m3.65-32.28h-.64-14.08-.36-.14-11.71-.14-.36-.07-.77-.8-.07-.36-.14-11.71-.14-.36-.07-.72-.78-.07-.29-.14-11.86-.14-.36-14.71c-.13 0-.24.1-.26.24-.01.13.07.24.2.24h14.93.14.36 11.43.23.13.29.71.14.14.57.43.12.24 11.27.32.04.43.66.14.14.63.43.06.3 11.27.36.14 14.3.64c.13 0 .24-.11.26-.24.02-.14-.07-.24-.2-.24z"
              class="B"/>
        <path d="M248.185 81.871h-5.41-14.08-.36-.14-2.16-.14-.36-11.26-.3-.06-.42-.79-.82-.42-.03-.33-11.12-.36-.15-2.31-.14-.36-19.49c-.13 0-.24.11-.26.24s.07.24.2.24h19.71.14.36 1.88.21.15.14 11.55.14.36.06.82.79.06.36.14 11.7.14.36 1.73.36.14 14.3 5.41c.13 0 .24-.11.26-.24s-.07-.24-.2-.24zm-3.68 32.51h-7.63-.14-.02-.15-.36-2.6-.36-.16-4.94-.15-.36-2.6-.37-.11-.04-.11-1.94-.14-.36-11.49-.2-.16-1.1-1.13-.13-.24-11.47-.35-.15-.26-.16-.36-2.6-.36-.15-6.74-.15-.36-2.6-.36-.03-.12-.01-7.77c-.13 0-.24.1-.26.24-.01.13.07.23.2.23h7.55.09.14.13.03.17 2.98.17.29 6.46.29.17 2.98.17.3.27.14 11.9.15.36.78.75.36.15 11.91.15.36 1.52.18.18.11.18 2.98.17.29 4.66.3.17 2.98.17.16.12.24 7.42a.25.25 0 0 0 .25-.23c.02-.14-.07-.24-.2-.24"
              class="B"/>
        <path d="M173.865 137.14h-3.62c-.13 0-.24.11-.26.24s.07.24.2.24h3.62c.12 0 .24-.11.26-.24s-.08-.24-.2-.24zm7.25 0h-3.63c-.12 0-.23.11-.25.24s.07.24.19.24h3.63c.12 0 .24-.11.26-.24s-.08-.24-.2-.24zm7.25 0h-3.63c-.12 0-.23.11-.25.24s.07.24.19.24h3.63c.12 0 .24-.11.26-.24s-.08-.24-.2-.24zm7.25 0h-3.63c-.12 0-.24.11-.26.24s.08.24.2.24h3.63c.12 0 .23-.11.25-.24s-.07-.24-.19-.24zm7.25 0h-3.63c-.12 0-.24.11-.26.24s.08.24.2.24h3.63c.12 0 .23-.11.25-.24s-.07-.24-.19-.24zm7.24 0h-3.62c-.12 0-.24.11-.26.24s.08.24.2.24h3.62c.13 0 .24-.11.26-.24s-.07-.24-.2-.24zm7.25 0h-3.62c-.12 0-.24.11-.26.24s.08.24.2.24h3.62c.13 0 .24-.11.26-.24s-.07-.24-.2-.24zm7.25 0h-3.62c-.13 0-.24.11-.26.24s.07.24.2.24h3.62c.13 0 .24-.11.26-.24s-.07-.24-.2-.24zm7.25 0h-3.62c-.13 0-.24.11-.26.24s.07.24.2.24h3.62c.12 0 .24-.11.26-.24s-.08-.24-.2-.24zm7.25 0h-3.62c-.13 0-.24.11-.26.24s.07.24.2.24h3.62c.12 0 .24-.11.26-.24s-.08-.24-.2-.24zm4.97 0h-1.35c-.12 0-.23.11-.25.24s.07.24.19.24h1.35c0-.08 0-.16.02-.24s.02-.16.04-.24zm-77.19-3.71c-.12 0-.24.1-.26.24l-.15 1.28.23-.01.23.01.15-1.28c.02-.14-.08-.24-.2-.24zm80.42-4.61c-.12 0-.24.1-.25.23l-.44 3.87c-.01.13.08.24.2.24s.24-.11.26-.24l.44-3.87c.01-.13-.08-.23-.2-.23m-79.54-3.12c-.12 0-.24.1-.26.24l-.44 3.86c-.02.14.08.24.2.24s.24-.1.26-.24l.44-3.86c.02-.14-.08-.24-.2-.24zm80.42-4.61c-.12 0-.24.1-.25.23l-.44 3.87c-.01.13.08.24.2.24s.24-.11.26-.24l.44-3.87c.01-.13-.08-.23-.2-.23m-79.54-3.12c-.12 0-.24.11-.26.24l-.44 3.86c-.02.14.08.24.2.24s.24-.1.26-.24l.44-3.86c.01-.13-.08-.24-.2-.24zm80.42-4.61c-.12 0-.24.1-.26.24l-.44 3.86c-.01.13.08.24.2.24s.24-.11.26-.24l.44-3.86c.02-.14-.08-.24-.2-.24zm-79.54-3.12c-.12 0-.24.11-.26.24l-.44 3.87c-.01.13.08.23.2.23s.24-.1.25-.23l.44-3.87c.01-.13-.08-.24-.2-.24m80.42-4.61c-.12 0-.24.1-.26.24l-.44 3.86c-.02.14.08.24.2.24s.24-.1.26-.24l.44-3.86c.02-.14-.08-.24-.2-.24zm-79.54-3.12c-.12 0-.24.11-.26.24l-.44 3.87c-.01.13.08.23.2.23s.24-.1.25-.23l.44-3.87c.01-.13-.08-.24-.2-.24m80.42-4.61c-.12 0-.24.1-.26.24l-.44 3.859c-.02.14.08.24.2.24s.24-.1.26-.24l.44-3.859c.02-.14-.08-.24-.2-.24zm-79.54-3.11c-.12 0-.24.1-.26.23l-.44 3.87c-.01.13.08.24.2.24s.24-.11.26-.24l.44-3.87c.01-.13-.08-.23-.2-.23zm80.42-4.62c-.12 0-.24.11-.26.24l-.44 3.86c-.02.14.08.24.2.24s.24-.1.26-.24l.44-3.86c.01-.13-.08-.24-.2-.24zm-79.54-3.11c-.12 0-.24.1-.26.23l-.44 3.87c-.01.13.08.24.2.24s.24-.11.26-.24l.44-3.87c.01-.13-.08-.23-.2-.23zm80.42-4.62c-.12 0-.24.11-.26.24l-.44 3.86c-.02.14.08.24.2.24s.24-.1.26-.24l.44-3.86c.01-.13-.08-.24-.2-.24zm-79.54-3.11c-.12 0-.24.1-.26.24l-.44 3.86c-.01.13.08.24.2.24s.24-.11.26-.24l.44-3.86c.02-.14-.08-.24-.2-.24zm80.42-4.62c-.12 0-.24.11-.26.24l-.44 3.87c-.01.13.08.23.2.23s.24-.1.26-.23l.44-3.87c.01-.13-.08-.24-.2-.24zm-79.54-3.11c-.12 0-.24.1-.26.24l-.44 3.86c-.01.13.08.24.2.24s.24-.11.26-.24l.44-3.86c.02-.14-.08-.24-.2-.24zm80.42-4.62c-.12 0-.24.11-.26.24l-.44 3.87c-.01.13.08.23.2.23s.24-.1.26-.23l.44-3.87c.01-.13-.08-.24-.2-.24zm-79.54-3.11c-.12 0-.24.1-.26.24l-.44 3.86c-.02.14.08.24.2.24s.24-.1.26-.24l.44-3.86c.02-.14-.08-.24-.2-.24zm80.42-4.61c-.12 0-.24.1-.25.23l-.44 3.87c-.01.13.08.24.2.24s.24-.11.26-.24l.44-3.87c.01-.13-.08-.23-.2-.23m-79.54-3.12c-.12 0-.24.1-.26.24l-.44 3.86c-.02.14.08.24.2.24s.24-.1.26-.24l.44-3.86c.02-.14-.08-.24-.2-.24zm80.29-1.49l-.23.01c-.08 0-.15 0-.23-.01l-.11.99c-.01.13.08.24.2.24s.24-.11.26-.24l.11-.99zm-76.48-2.67h-1.06c0 .08 0 .16-.02.24s-.02.16-.04.24h1.06c.12 0 .24-.11.26-.24s-.08-.24-.2-.24zm7.25 0h-3.63c-.12 0-.23.11-.25.24s.07.24.19.24h3.63c.12 0 .24-.11.26-.24s-.08-.24-.2-.24zm7.25 0h-3.63c-.12 0-.23.11-.25.24s.07.24.19.24h3.63c.12 0 .24-.11.26-.24s-.08-.24-.2-.24zm7.25 0h-3.63c-.12 0-.24.11-.26.24s.08.24.2.24h3.63c.12 0 .23-.11.25-.24s-.07-.24-.19-.24zm7.25 0h-3.63c-.12 0-.24.11-.26.24s.08.24.2.24h3.63c.12 0 .23-.11.25-.24s-.07-.24-.19-.24zm7.24 0h-3.62c-.12 0-.24.11-.26.24s.08.24.2.24h3.62c.13 0 .24-.11.26-.24s-.07-.24-.2-.24zm7.25 0h-3.62c-.12 0-.24.11-.26.24s.08.24.2.24h3.62c.13 0 .24-.11.26-.24s-.07-.24-.2-.24zm7.25 0h-3.62c-.13 0-.24.11-.26.24s.07.24.2.24h3.62c.13 0 .24-.11.26-.24s-.07-.24-.2-.24zm7.25 0h-3.62c-.13 0-.24.11-.26.24s.07.24.2.24h3.62c.12 0 .24-.11.26-.24s-.08-.24-.2-.24zm7.25 0h-3.62c-.13 0-.24.11-.26.24s.07.24.2.24h3.62c.12 0 .24-.11.26-.24s-.08-.24-.2-.24zm7.25 0h-3.63c-.12 0-.23.11-.25.24s.07.24.19.24h3.63c.12 0 .24-.11.26-.24s-.08-.24-.2-.24z"
              class="B F"/>
        <use xlink:href="#b" class="C"/>
        <path d="M246.125 139.341c-1.01 0-1.74-.88-1.62-1.96s1.05-1.96 2.07-1.96 1.73.89 1.61 1.96-1.05 1.96-2.06 1.96zm.5-4.4c-1.19 0-2.28.97-2.53 2.2-.02.08-.03.16-.04.24l-.02.24c-.02 1.23.84 2.2 2.03 2.2 1.26 0 2.42-1.1 2.57-2.44s-.75-2.44-2.02-2.44"
              class="B"/>
        <use xlink:href="#c" class="C"/>
        <path d="M255.765 54.201c-1.01 0-1.74-.89-1.62-1.96s1.05-1.96 2.06-1.96 1.74.88 1.61 1.96-1.05 1.96-2.06 1.96m.5-4.41c-1.26 0-2.42 1.1-2.57 2.44-.14 1.27.64 2.31 1.79 2.43l.23.01.23-.01c1.17-.12 2.2-1.17 2.34-2.43.15-1.35-.75-2.44-2.02-2.44z"
              class="B"/>
        <use xlink:href="#b" x="-79.89" class="C"/>
        <path d="M166.225 139.341c-1.01 0-1.74-.88-1.62-1.96s1.05-1.96 2.07-1.96 1.73.89 1.61 1.96-1.05 1.96-2.06 1.96zm.5-4.4l-.23.01c-1.17.12-2.2 1.17-2.34 2.43-.15 1.35.75 2.44 2.02 2.44s2.42-1.1 2.57-2.44c.14-1.27-.64-2.31-1.79-2.43-.07 0-.15-.01-.23-.01z"
              class="B"/>
        <use xlink:href="#c" x="-79.89" class="C"/>
        <path d="M175.865 54.201c-1.01 0-1.74-.89-1.62-1.96s1.05-1.96 2.06-1.96 1.74.88 1.61 1.96-1.05 1.96-2.06 1.96m.5-4.41c-1.26 0-2.42 1.1-2.57 2.44s.75 2.44 2.02 2.44c1.19 0 2.28-.97 2.53-2.2.02-.08.03-.16.04-.24l.02-.24c.02-1.23-.84-2.2-2.03-2.2"
              class="B"/>
    </g>
    <mask id="K" maskUnits="userSpaceOnUse" x="166" y="0" width="109" height="36">
        <path d="M166.155 35.64l3.95-34.87h104.48l-3.95 34.87h-104.48z" class="D"/>
    </mask>
    <g mask="url(#K)">
        <path d="M267.785 1.74h-91.1c-3.19 0-6.1 2.76-6.48 6.17l-2.33 20.59c-.39 3.41 1.89 6.17 5.08 6.17h91.1c3.2 0 6.1-2.76 6.48-6.17l2.33-20.59c.39-3.41-1.89-6.17-5.08-6.17z"
              fill="url(#T)"/>
        <path d="M172.956 34.68c-3.19 0-5.471-2.76-5.081-6.17l2.331-20.59c.39-3.41 3.289-6.17 6.479-6.17h91.1c3.2 0 5.47 2.76 5.08 6.17l-2.33 20.59c-.39 3.41-3.28 6.17-6.48 6.17h-91.099zM267.895.77h-91.1c-3.69 0-7.05 3.2-7.5 7.14l-2.33 20.59c-.45 3.94 2.19 7.14 5.88 7.14h91.1c3.69 0 7.05-3.2 7.5-7.14l2.33-20.59c.45-3.94-2.19-7.14-5.88-7.14z"
              fill="url(#U)" class="G"/>
    </g>
    <mask id="L" maskUnits="userSpaceOnUse" x="110" y="15" width="47" height="129">
        <path d="M110.965 143.06l14.4-127.21h31.61l-14.4 127.21h-31.61z" class="D"/>
    </mask>
    <g mask="url(#L)">
        <path d="M149.335 16.811h-16.54c-3.66 0-6.99 3.16-7.43 7.07l-12.59 111.14c-.44 3.9 2.17 7.07 5.83 7.07h16.54c3.65 0 6.98-3.16 7.42-7.07l12.59-111.14c.44-3.9-2.17-7.07-5.82-7.07z"
              fill="url(#V)"/>
        <path d="M118.605 142.09c-3.66 0-6.27-3.16-5.83-7.07l12.59-111.14c.44-3.9 3.77-7.07 7.43-7.07h16.54c3.65 0 6.26 3.16 5.82 7.07l-12.59 111.14c-.44 3.9-3.77 7.07-7.42 7.07h-16.54zm30.84-126.24h-16.54c-4.15 0-7.94 3.6-8.45 8.03l-12.59 111.14c-.5 4.42 2.48 8.03 6.63 8.03h16.54c4.15 0 7.94-3.61 8.44-8.03l12.59-111.14c.5-4.43-2.47-8.03-6.62-8.03z"
              fill="url(#W)" class="G"/>
    </g>
    <mask id="M" maskUnits="userSpaceOnUse" x="270" y="15" width="47" height="128">
        <path d="M270.445 142.78l14.4-127.21h31.61l-14.4 127.21h-31.61z" class="D"/>
    </mask>
    <g mask="url(#M)">
        <path d="M308.815 16.531h-16.54c-3.66 0-6.99 3.16-7.43 7.06l-12.59 111.15c-.44 3.9 2.17 7.07 5.83 7.07h16.54c3.65 0 6.98-3.16 7.42-7.07l12.59-111.15c.44-3.89-2.17-7.06-5.82-7.06z"
              fill="url(#X)"/>
        <path d="M278.085 141.81c-3.66 0-6.27-3.16-5.83-7.07l12.59-111.15c.44-3.89 3.77-7.06 7.43-7.06h16.54c3.65 0 6.26 3.16 5.82 7.06l-12.59 111.15c-.44 3.9-3.77 7.07-7.42 7.07h-16.54zm30.84-126.24h-16.54c-4.16 0-7.94 3.6-8.45 8.02l-12.59 111.15c-.5 4.42 2.47 8.03 6.63 8.03h16.54c4.15 0 7.94-3.61 8.44-8.03l12.59-111.15c.5-4.42-2.47-8.02-6.62-8.02z"
              fill="url(#Y)" class="G"/>
    </g>
    <mask id="N" maskUnits="userSpaceOnUse" x="119" y="21" width="33" height="92">
        <path d="M119.495 112.7l10.33-91.22h21.21l-10.33 91.22h-21.21z" class="D"/>
    </mask>
    <g mask="url(#N)" class="B">
        <use xlink:href="#d" class="F"/>
        <use xlink:href="#e" class="E"/>
        <use xlink:href="#f" class="E"/>
        <use xlink:href="#g" class="E"/>
        <use xlink:href="#d" x="-3.08" y="27.199" class="E"/>
        <use xlink:href="#e" x="-3.08" y="27.199" class="E"/>
        <use xlink:href="#f" x="-3.08" y="27.211" class="E"/>
        <use xlink:href="#g" x="-3.08" y="27.211" class="E"/>
        <path d="M130.915 75.871h-5.47c-.98 0-1.87.85-1.99 1.9l-.66 5.83c-.12 1.05.58 1.9 1.56 1.9h5.47c.99 0 1.88-.85 2-1.9l.66-5.83c.12-1.04-.58-1.9-1.57-1.9zm12.19 0h-5.47c-.99 0-1.87.85-1.99 1.9l-.66 5.83c-.12 1.05.58 1.9 1.56 1.9h5.47c.98 0 1.87-.85 1.99-1.9l.66-5.83c.12-1.04-.58-1.9-1.56-1.9z"
              class="E"/>
        <use xlink:href="#d" x="-7.7" y="68" class="E"/>
        <use xlink:href="#e" x="-7.7" y="68" class="E"/>
        <use xlink:href="#f" x="-7.7" y="68" class="E"/>
    </g>
    <mask id="O" maskUnits="userSpaceOnUse" x="255" y="61" width="17" height="65">
        <path d="M255.625 125.26l7.25-64.02h9.03l-7.25 64.02h-9.03z" class="D"/>
    </mask>
    <g mask="url(#O)" class="B">
        <path d="M270.125 61.24h-5.47c-.98 0-1.87.85-1.99 1.9l-.66 5.83c-.12 1.05.58 1.9 1.56 1.9h5.47c.99 0 1.87-.85 1.99-1.9l.66-5.83c.12-1.04-.58-1.9-1.56-1.9z"
              class="E"/>
        <use xlink:href="#h" class="F"/>
        <path d="M267.045 88.44h-5.47c-.98 0-1.87.85-1.99 1.9l-.66 5.83c-.12 1.05.58 1.9 1.56 1.9h5.47c.99 0 1.87-.84 1.99-1.9l.66-5.83c.12-1.04-.58-1.9-1.56-1.9zm-1.54 13.589h-5.47c-.98 0-1.87.85-1.99 1.9l-.66 5.82c-.12 1.05.58 1.9 1.56 1.9h5.47c.99 0 1.87-.85 1.99-1.9l.66-5.82c.12-1.05-.58-1.9-1.56-1.9z"
              class="E"/>
        <use xlink:href="#h" x="-4.62" y="40.801" class="E"/>
    </g>
    <mask id="P" maskUnits="userSpaceOnUse" x="276" y="21" width="36" height="106">
        <path d="M276.865 126.25l11.87-104.82h22.82l-11.87 104.82h-22.82z" class="D"/>
    </mask>
    <g mask="url(#P)" class="B">
        <path d="M298.735 89.43h-12.59c-2.32 0-4.44 2.01-4.72 4.49l-1.61 14.24c-.28 2.48 1.38 4.49 3.7 4.49h12.59c2.32 0 4.44-2.02 4.72-4.49l1.61-14.24c.28-2.49-1.38-4.49-3.7-4.49z"
              class="E"/>
        <path opacity=".3"
              d="M307.935 21.43h-15.59c-1.49 0-2.85 1.3-3.04 2.89l-.44 3.84c-.18 1.59.89 2.89 2.38 2.89h15.59c1.49 0 2.85-1.3 3.03-2.89l.44-3.84c.18-1.6-.89-2.89-2.38-2.89"/>
        <path d="M289.676 58.251c-2.32 0-3.98-2.01-3.7-4.49l1.61-14.24c.28-2.48 2.39-4.49 4.72-4.49h12.59c2.32 0 3.98 2.02 3.7 4.49l-1.61 14.24c-.28 2.49-2.39 4.49-4.72 4.49h-12.59zm15.33-24.19h-12.59c-2.82 0-5.39 2.45-5.73 5.46l-1.61 14.24c-.34 3.02 1.67 5.46 4.5 5.46h12.59c2.82 0 5.4-2.44 5.74-5.46l1.61-14.24c.34-3.01-1.68-5.46-4.5-5.46"
              class="E"/>
        <use xlink:href="#i" opacity=".3"/>
        <use xlink:href="#i" x="-4.621" y="40.799" class="E"/>
    </g>
    <mask id="Q" maskUnits="userSpaceOnUse" x="172" y="6" width="97" height="24">
        <path d="M172.285 29.11l2.57-22.68h93.32l-2.56 22.68h-93.33z" class="D"/>
    </mask>
    <g mask="url(#Q)">
        <path d="M202.065 17.909l1.13-2.76.52 2.76h-1.66m1.9-3.77h-1.31l-.06.07c-.05.34-.1.44-.14.55l-2.62 5.89.05.1h.95l.11-.08.7-1.66h2.26l.36 1.68.09.06h1.05l.07-.1-1.45-6.46-.06-.06m4.49 5.681c-.76 0-1.32-.45-1.2-1.55.11-.98.8-1.56 1.65-1.56.16 0 .32.03.43.07l-.33 2.96c-.18.06-.37.08-.56.08m2.34-6.22h-1.03l-.06.07-.23 2.07c-.16-.02-.27-.03-.4-.03-1.66 0-2.82 1.17-2.98 2.63-.19 1.69.77 2.53 2.14 2.53.56 0 1.18-.1 1.82-.39l.08-.09.03-.64.69-6.09-.04-.06m2.53 6.23c-.72 0-1.07-.64-.96-1.56s.63-1.56 1.27-1.56c.8 0 1.06.74.96 1.57-.12 1.03-.68 1.55-1.27 1.55zm.47-4.14c-1.41 0-2.42 1.16-2.59 2.59-.14 1.28.41 2.57 1.98 2.57 1.33 0 2.39-1.04 2.56-2.6.16-1.38-.5-2.56-1.96-2.56m4.26 4.14c-.15 0-.3 0-.43-.04l.33-2.95c.16-.06.35-.1.67-.1.75 0 1.21.5 1.1 1.46-.13 1.11-.9 1.63-1.68 1.63m.18-6.24h-1l-.07.07-.78 6.89.06.09c.44.15.91.22 1.39.22 1.39 0 2.86-.92 3.07-2.78.15-1.35-.6-2.38-1.96-2.38-.32 0-.62.05-.88.15l.24-2.16-.07-.09m4.55 4.09c.14-.5.49-1.03 1.14-1.03.72 0 .84.64.81.93v.08c-.05.02-.17.02-.53.02h-1.41m1.29-2c-1.43 0-2.36 1.24-2.52 2.64-.14 1.23.33 2.52 2.05 2.52.64 0 1.07-.1 1.45-.29l.07-.11.09-.83-.05-.04c-.38.17-.78.24-1.2.24-.96 0-1.33-.57-1.28-1.27h1.93l.97-.03.08-.08c.04-.1.08-.34.11-.62.11-.96-.3-2.13-1.7-2.13zm6.05.109h-1l-.08.07-.54 4.8.08.1h.97l.1-.08.55-4.82-.07-.07m-.26-2.06c-.38 0-.68.28-.72.69s.17.7.56.7.68-.28.73-.7-.16-.69-.57-.69zm2.82-.149h-.98l-.09.09-.67 5.89c-.12 1.06.34 1.3.95 1.3.27 0 .44-.03.55-.08l.07-.11.08-.75-.03-.06h-.19c-.22 0-.31-.1-.28-.42l.65-5.77-.07-.09m2.51 0h-.97l-.09.09-.67 5.89c-.12 1.06.34 1.3.95 1.3.26 0 .44-.03.55-.08l.07-.11.08-.75-.03-.06h-.18c-.22 0-.31-.1-.28-.42l.65-5.77-.08-.09zm5 2.209h-.99l-.09.07-.4 3.57c-.26.23-.54.37-.9.37-.56 0-.78-.38-.71-1.01l.33-2.93-.06-.07h-.99l-.09.07-.35 3.07c-.16 1.41.48 1.92 1.37 1.92.42 0 .92-.1 1.37-.51 0 .1 0 .25.02.36l.09.06h.86l.08-.07c0-.22 0-.51.06-1.04l.43-3.78-.06-.07m2.86-.109c-1.17 0-1.84.72-1.93 1.49-.08.72.23 1.17 1.22 1.57.56.25.72.42.69.67s-.29.44-.78.44c-.42 0-.93-.12-1.31-.41l-.08.05-.11.96.05.11c.27.17.74.28 1.3.28 1.17 0 1.93-.59 2.04-1.54.08-.71-.24-1.16-1.27-1.59-.57-.25-.7-.4-.67-.63.02-.21.22-.43.72-.43.42 0 .88.12 1.15.29l.09-.06.1-.89-.04-.12c-.21-.11-.61-.2-1.17-.2m3.82-1.362l-.97.14-.08.09c-.08.25-.19.89-.24 1.24h-.6l-.08.08-.1.85.06.09h.6l-.3 2.64c-.11 1 .31 1.4 1.08 1.4.31 0 .55-.03.82-.14l.07-.12.08-.72-.05-.06c-.13.03-.24.04-.36.04-.41 0-.51-.22-.46-.66l.27-2.38h.92l.08-.07.1-.88-.07-.07h-.91l.21-1.42-.06-.05m4.21 1.372c-.65 0-1.23.37-1.6.79.02-.23 0-.48-.03-.61l-.1-.08h-.89l-.06.06c0 .33-.06.91-.11 1.35l-.39 3.48.08.08h.98l.1-.08.37-3.24c.24-.29.8-.54 1.44-.54h.07l.09-.07.12-1.07-.07-.07zm1.88 4.2c-.68 0-.89-.32-.84-.69.05-.43.41-.7 1.16-.7.22 0 .37 0 .52.03l-.14 1.24c-.22.09-.45.11-.69.11m.38-4.21c-.51 0-1.05.1-1.47.3l-.07.1-.1.87.07.06a2.89 2.89 0 0 1 1.27-.28c.83 0 .9.52.87.76v.12c-.1-.02-.31-.03-.6-.03-1.23 0-2.19.54-2.31 1.61-.13 1.13.64 1.64 1.67 1.64.64 0 1.2-.1 2.02-.45l.02-.03c0-.22.03-.42.06-.63l.23-2.04c.13-1.12-.34-2-1.65-2m4.39-1.352l-.97.14-.08.09c-.08.25-.19.89-.24 1.24h-.6l-.08.08-.1.85.06.09h.6l-.3 2.64c-.11 1 .31 1.4 1.08 1.4.31 0 .55-.03.82-.14l.07-.12.08-.72-.05-.06c-.13.03-.24.04-.36.04-.41 0-.51-.22-.46-.66l.27-2.38h.93l.07-.07.1-.88-.06-.07h-.92l.21-1.42-.06-.05m3.11 5.502c-.72 0-1.08-.64-.97-1.56s.63-1.56 1.27-1.56c.8 0 1.06.74.96 1.57-.12 1.03-.68 1.55-1.26 1.55zm.47-4.14c-1.42 0-2.43 1.16-2.59 2.59-.14 1.28.41 2.57 1.98 2.57 1.34 0 2.39-1.04 2.56-2.6.16-1.38-.5-2.56-1.95-2.56zm5.74.01c-.65 0-1.23.37-1.61.79.02-.23.01-.48-.02-.61l-.1-.08h-.89l-.06.06c0 .33-.05.91-.1 1.35l-.39 3.48.08.08h.98l.09-.08.37-3.24c.25-.29.8-.54 1.45-.54h.07l.09-.07.12-1.07-.07-.07"
              class="B"/>
        <path opacity=".75"
              d="M182.865 14.019h-.02l-.45 1.25-.58 1.43-.55 1.36h2.31l-.13-.7-.15-.83-.16-.89-.15-.87-.12-.76m4.74 8.43c-.09 0-.13-.06-.12-.16l.84-7.46c.01-.1.06-.14.14-.14h1.8c.08 0 .11.05.1.14l-.84 7.46c-.01.11-.05.16-.13.16h-1.79zm-9.93 0c-.11 0-.12-.06-.09-.17l3.95-8.98.13-.32a4.7 4.7 0 0 0 .13-.63l.09-.1h2.36l.11.08 2.19 9.98c.02.1-.02.16-.11.16h-1.9l-.14-.1-.48-2.3h-3.39l-.95 2.27c-.03.09-.1.14-.17.14h-.02-1.7m11.76-8.55c-.29 0-.55-.13-.74-.34-.18-.24-.25-.57-.21-.9.03-.33.18-.63.42-.86.25-.23.55-.34.85-.34.36 0 .62.11.79.34a1.15 1.15 0 0 1 .2.86 1.51 1.51 0 0 1-.42.9c-.22.21-.52.34-.82.34h-.06-.03m3.39-7.47h-14.09c-2.14 0-4.08 1.84-4.33 4.12l-1.64 14.44c-.26 2.28 1.26 4.12 3.4 4.12h14.09c2.14 0 4.08-1.84 4.33-4.12l1.64-14.44c.26-2.28-1.26-4.12-3.4-4.12z"
              fill="#ff9a00"/>
    </g>
    <defs>
        <filter id="R" x="-14.532" y="3.029" width="354.474" height="303.311" filterUnits="userSpaceOnUse"
                color-interpolation-filters="sRGB">
            <feFlood flood-opacity="0" result="A"/>
            <feColorMatrix in="SourceAlpha" values="0 0 0 0 0 0 0 0 0 0 0 0 0 0 0 0 0 0 127 0"/>
            <feOffset dx="-4" dy="6"/>
            <feGaussianBlur stdDeviation="8"/>
            <feColorMatrix values="0 0 0 0 0.258824 0 0 0 0 0.392157 0 0 0 0 0.658824 0 0 0 0.1 0"/>
            <feBlend in2="A" result="C"/>
            <feColorMatrix in="SourceAlpha" values="0 0 0 0 0 0 0 0 0 0 0 0 0 0 0 0 0 0 127 0"/>
            <feOffset dx="-17" dy="24"/>
            <feGaussianBlur stdDeviation="14.5"/>
            <feColorMatrix values="0 0 0 0 0.258824 0 0 0 0 0.392157 0 0 0 0 0.658824 0 0 0 0.09 0"/>
            <feBlend in2="C" result="D"/>
            <feColorMatrix in="SourceAlpha" values="0 0 0 0 0 0 0 0 0 0 0 0 0 0 0 0 0 0 127 0"/>
            <feOffset dx="-38" dy="54"/>
            <feGaussianBlur stdDeviation="20"/>
            <feColorMatrix values="0 0 0 0 0.258824 0 0 0 0 0.392157 0 0 0 0 0.658824 0 0 0 0.05 0"/>
            <feBlend in2="D" result="E"/>
            <feColorMatrix in="SourceAlpha" values="0 0 0 0 0 0 0 0 0 0 0 0 0 0 0 0 0 0 127 0"/>
            <feOffset dx="-67" dy="96"/>
            <feGaussianBlur stdDeviation="23.5"/>
            <feColorMatrix values="0 0 0 0 0.258824 0 0 0 0 0.392157 0 0 0 0 0.658824 0 0 0 0.01 0"/>
            <feBlend in2="E"/>
            <feBlend in="SourceGraphic"/>
        </filter>
        <linearGradient id="S" x1="323.868" y1="14.959" x2="190.766" y2="218.386" xlink:href="#j">
            <stop stop-color="#000714" stop-opacity=".25"/>
            <stop offset="1" stop-color="#000714"/>
        </linearGradient>
        <linearGradient id="T" x1="272.998" y1="1.74" x2="254.09" y2="61.817" xlink:href="#j">
            <stop stop-color="#000714" stop-opacity=".25"/>
            <stop offset="1" stop-color="#000714"/>
        </linearGradient>
        <linearGradient id="U" x1="166.916" y1="35.64" x2="187.598" y2="-27.503" xlink:href="#j">
            <stop stop-color="#4264a8" stop-opacity=".25"/>
            <stop offset="1" stop-color="#4264a8"/>
        </linearGradient>
        <linearGradient id="V" x1="155.24" y1="16.811" x2="79.108" y2="42.515" xlink:href="#j">
            <stop stop-color="#000714" stop-opacity=".25"/>
            <stop offset="1" stop-color="#000714"/>
        </linearGradient>
        <linearGradient id="W" x1="111.811" y1="143.05" x2="190.779" y2="115.657" xlink:href="#j">
            <stop stop-color="#4264a8" stop-opacity=".25"/>
            <stop offset="1" stop-color="#4264a8"/>
        </linearGradient>
        <linearGradient id="X" x1="314.72" y1="16.531" x2="238.588" y2="42.235" xlink:href="#j">
            <stop stop-color="#000714" stop-opacity=".25"/>
            <stop offset="1" stop-color="#000714"/>
        </linearGradient>
        <linearGradient id="Y" x1="271.291" y1="142.77" x2="350.259" y2="115.378" xlink:href="#j">
            <stop stop-color="#4264a8" stop-opacity=".25"/>
            <stop offset="1" stop-color="#4264a8"/>
        </linearGradient>
        <path id="Z" d="M112.355 159.85l2.45 1.55c-1.96 0-3.75-.55-5.29-1.53l-2.45-1.55c1.54.98 3.34 1.53 5.29 1.53z"/>
        <path id="a"
              d="M322.485 32.738l2.45 1.55c1.01 2.46 1.42 5.39 1.06 8.53l-2.45-1.55c.36-3.14-.06-6.07-1.06-8.53z"/>
        <path id="b"
              d="M246.565 135.422c-1.01 0-1.94.89-2.07 1.96s.61 1.96 1.62 1.96 1.93-.88 2.06-1.96-.6-1.96-1.61-1.96z"/>
        <path id="c"
              d="M256.205 50.281c-1.01 0-1.94.88-2.06 1.96s.61 1.96 1.62 1.96 1.94-.89 2.06-1.96-.6-1.96-1.61-1.96"/>
        <path id="d"
              d="M137.075 21.481h-5.47c-.98 0-1.87.84-1.99 1.9l-.66 5.83c-.12 1.04.58 1.9 1.56 1.9h5.47c.99 0 1.88-.85 2-1.9l.66-5.83c.12-1.05-.58-1.9-1.57-1.9z"/>
        <path id="e"
              d="M149.265 21.481h-5.47c-.99 0-1.87.84-1.99 1.9l-.66 5.83c-.12 1.04.58 1.9 1.56 1.9h5.47c.98 0 1.87-.85 1.99-1.9l.66-5.83c.12-1.05-.58-1.9-1.56-1.9z"/>
        <path id="f"
              d="M135.535 35.07h-5.47c-.98 0-1.87.85-1.99 1.9l-.66 5.83c-.12 1.05.58 1.9 1.56 1.9h5.47c.99 0 1.88-.84 2-1.9l.66-5.83c.12-1.04-.58-1.9-1.57-1.9z"/>
        <path id="g"
              d="M147.725 35.07h-5.47c-.99 0-1.87.85-1.99 1.9l-.66 5.83c-.12 1.05.58 1.9 1.56 1.9h5.47c.98 0 1.87-.84 1.99-1.9l.66-5.83c.12-1.04-.58-1.9-1.56-1.9z"/>
        <path id="h"
              d="M268.585 74.84h-5.47c-.98 0-1.87.84-1.99 1.9l-.66 5.83c-.12 1.04.58 1.9 1.56 1.9h5.47c.99 0 1.87-.85 1.99-1.9l.66-5.83c.12-1.05-.58-1.9-1.56-1.9z"/>
        <path id="i"
              d="M301.776 75.83h-15.59c-1.49 0-2.85 1.3-3.03 2.89l-.44 3.84c-.18 1.6.89 2.89 2.38 2.89h15.59c1.49 0 2.85-1.3 3.04-2.89l.44-3.84c.18-1.59-.89-2.89-2.38-2.89"/>
        <linearGradient id="j" gradientUnits="userSpaceOnUse"/>
    </defs>
</svg>