<svg width="440" height="367" viewBox="0 0 440 367" fill="none" xmlns="http://www.w3.org/2000/svg">
<g filter="url(#filter0_dddd_965_140799)">
<mask id="mask0_965_140799" style="mask-type:luminance" maskUnits="userSpaceOnUse" x="288" y="55" width="22" height="21">
<path d="M288.209 57.05L290.249 55.76C299.719 55.76 308.329 63.95 309.469 74.04L307.429 75.33C306.289 65.24 297.679 57.05 288.209 57.05Z" fill="white"/>
</mask>
<g mask="url(#mask0_965_140799)">
<path d="M288.209 57.05L290.249 55.76C290.479 55.76 290.709 55.76 290.939 55.77L288.899 57.06C288.669 57.06 288.439 57.05 288.209 57.05Z" fill="#4264A8"/>
<path d="M288.899 57.07L290.939 55.78C291.759 55.81 292.559 55.91 293.359 56.06L291.319 57.35C290.519 57.2 289.719 57.1 288.899 57.07Z" fill="#4264A8"/>
<path d="M291.319 57.3501L293.359 56.0601C294.189 56.2201 295.009 56.4401 295.809 56.7101L293.769 58.0001C292.969 57.7301 292.149 57.5101 291.319 57.3501Z" fill="#4264A8"/>
<path d="M293.769 58L295.809 56.71C296.749 57.03 297.659 57.43 298.539 57.9L296.499 59.19C295.619 58.72 294.709 58.32 293.769 58Z" fill="#4264A8"/>
<path d="M296.499 59.1899L298.539 57.8999C299.929 58.6399 301.249 59.5599 302.449 60.6299L300.409 61.9199C299.209 60.8499 297.899 59.9399 296.499 59.1899Z" fill="#4264A8"/>
<path d="M300.409 61.9201L302.449 60.6301C303.969 61.9801 305.309 63.5601 306.399 65.3101L304.359 66.6001C303.259 64.8501 301.919 63.2601 300.409 61.9201Z" fill="#4264A8"/>
<path d="M304.359 66.6001L306.399 65.3101C307.249 66.6601 307.949 68.1201 308.479 69.6601L306.439 70.9501C305.909 69.4201 305.209 67.9601 304.359 66.6001Z" fill="#4264A8"/>
<path d="M306.439 70.9499L308.479 69.6599C308.809 70.6199 309.079 71.6199 309.259 72.6299L307.219 73.9199C307.029 72.8999 306.769 71.9099 306.439 70.9499Z" fill="#4264A8"/>
<path d="M307.219 73.9201L309.259 72.6301C309.349 73.1001 309.419 73.5701 309.469 74.0501L307.429 75.3401C307.379 74.8601 307.309 74.3901 307.219 73.9201Z" fill="#4264A8"/>
</g>
<path d="M307.43 75.34L309.48 74.04L326.74 226.53L324.7 227.83L307.43 75.34Z" fill="#4264A8"/>
<mask id="mask1_965_140799" style="mask-type:luminance" maskUnits="userSpaceOnUse" x="317" y="226" width="10" height="18">
<path d="M319.71 242.53L317.67 243.82C322.59 240.7 325.48 234.7 324.7 227.82L326.74 226.53C327.52 233.41 324.63 239.41 319.71 242.53Z" fill="white"/>
</mask>
<g mask="url(#mask1_965_140799)">
<path d="M324.7 227.83L326.74 226.54C326.79 226.96 326.82 227.38 326.84 227.79L324.8 229.08C324.78 228.67 324.75 228.25 324.7 227.83Z" fill="#4264A8"/>
<path d="M324.8 229.07L326.84 227.78C326.88 228.64 326.87 229.49 326.8 230.31L324.76 231.6C324.83 230.78 324.84 229.93 324.8 229.07Z" fill="#4264A8"/>
<path d="M324.76 231.6L326.8 230.31C326.73 231.19 326.59 232.04 326.4 232.87L324.36 234.16C324.55 233.33 324.69 232.48 324.76 231.6Z" fill="#4264A8"/>
<path d="M324.36 234.17L326.4 232.88C326.17 233.88 325.85 234.83 325.46 235.74L323.42 237.03C323.81 236.12 324.13 235.17 324.36 234.17Z" fill="#4264A8"/>
<path d="M323.42 237.02L325.46 235.73C324.22 238.57 322.24 240.93 319.71 242.53L317.67 243.82C320.19 242.22 322.18 239.87 323.42 237.02Z" fill="#4264A8"/>
</g>
<mask id="mask2_965_140799" style="mask-type:luminance" maskUnits="userSpaceOnUse" x="309" y="242" width="11" height="5">
<path d="M311.659 244.81C314.669 244.81 317.409 243.98 319.709 242.53L317.669 243.82C315.369 245.28 312.639 246.1 309.619 246.1C310.229 245.71 311.049 245.19 311.659 244.81Z" fill="white"/>
</mask>
<g mask="url(#mask2_965_140799)">
<path d="M309.619 246.11L311.659 244.82C312.289 244.82 312.899 244.78 313.509 244.71L311.469 246C310.869 246.07 310.249 246.11 309.619 246.11Z" fill="#000714" fill-opacity="0.8"/>
<path d="M311.469 246L313.509 244.71C314.499 244.6 315.449 244.39 316.359 244.1L314.319 245.39C313.409 245.68 312.459 245.89 311.469 246Z" fill="#000714" fill-opacity="0.8"/>
<path d="M314.31 245.39L316.35 244.1C317.55 243.72 318.67 243.19 319.71 242.53L317.67 243.82C316.64 244.48 315.51 245 314.31 245.39Z" fill="#000714" fill-opacity="0.8"/>
</g>
<mask id="mask3_965_140799" style="mask-type:luminance" maskUnits="userSpaceOnUse" x="309" y="244" width="12" height="5">
<path d="M320.77 244.22L318.73 245.51C316.19 247.12 313.17 248.04 309.84 248.04L311.88 246.75C315.21 246.75 318.23 245.83 320.77 244.22Z" fill="white"/>
</mask>
<g mask="url(#mask3_965_140799)">
<path d="M309.84 248.04L311.88 246.75C312.57 246.75 313.25 246.71 313.92 246.63L311.88 247.92C311.22 248 310.54 248.04 309.84 248.04Z" fill="#4264A8"/>
<path d="M311.87 247.92L313.91 246.63C315 246.5 316.05 246.28 317.05 245.95L315.01 247.24C314.01 247.56 312.96 247.79 311.87 247.92Z" fill="#4264A8"/>
<path d="M315.01 247.25L317.05 245.96C318.37 245.54 319.62 244.95 320.76 244.23L318.72 245.52C317.58 246.25 316.33 246.83 315.01 247.25Z" fill="#4264A8"/>
</g>
<path d="M38.6992 57.05L40.7392 55.76H290.249L288.209 57.05H38.6992Z" fill="#4264A8"/>
<mask id="mask4_965_140799" style="mask-type:luminance" maskUnits="userSpaceOnUse" x="30" y="55" width="11" height="5">
<path d="M30.6494 59.34L32.6894 58.05C34.9894 56.59 37.7294 55.76 40.7394 55.76L38.6994 57.05C35.6894 57.05 32.9494 57.88 30.6494 59.34Z" fill="white"/>
</mask>
<g mask="url(#mask4_965_140799)">
<path d="M30.6494 59.34L32.6894 58.05C33.7194 57.39 34.8494 56.87 36.0494 56.48L34.0094 57.77C32.8094 58.15 31.6894 58.68 30.6494 59.34Z" fill="#4264A8"/>
<path d="M34.0098 57.7701L36.0498 56.4801C36.9598 56.1901 37.9098 55.9801 38.8998 55.8701L36.8598 57.1601C35.8698 57.2701 34.9198 57.4801 34.0098 57.7701Z" fill="#4264A8"/>
<path d="M36.8594 57.16L38.8994 55.87C39.4994 55.8 40.1194 55.76 40.7494 55.76L38.7094 57.05C38.0794 57.05 37.4694 57.09 36.8594 57.16Z" fill="#4264A8"/>
</g>
<mask id="mask5_965_140799" style="mask-type:luminance" maskUnits="userSpaceOnUse" x="23" y="58" width="10" height="18">
<path d="M30.6495 59.34L32.6895 58.05C27.7695 61.17 24.8795 67.17 25.6595 74.05L23.6195 75.34C22.8395 68.46 25.7295 62.46 30.6495 59.34Z" fill="white"/>
</mask>
<g mask="url(#mask5_965_140799)">
<path d="M30.6494 59.34L32.6894 58.05C30.1694 59.65 28.1794 62.0001 26.9394 64.8501L24.8994 66.1401C26.1294 63.3001 28.1194 60.94 30.6494 59.34Z" fill="#000714" fill-opacity="0.8"/>
<path d="M24.9097 66.1401L26.9497 64.8501C26.5597 65.7601 26.2397 66.7101 26.0097 67.7101L23.9697 69.0001C24.1997 68.0001 24.5197 67.0501 24.9097 66.1401Z" fill="#000714" fill-opacity="0.8"/>
<path d="M23.9596 68.99L25.9996 67.7C25.8096 68.53 25.6696 69.3799 25.5996 70.2599L23.5596 71.5499C23.6296 70.6699 23.7696 69.82 23.9596 68.99Z" fill="#000714" fill-opacity="0.8"/>
<path d="M23.5595 71.56L25.5995 70.27C25.5295 71.09 25.5195 71.94 25.5595 72.8L23.5195 74.09C23.4795 73.23 23.4895 72.38 23.5595 71.56Z" fill="#000714" fill-opacity="0.8"/>
<path d="M23.5195 74.09L25.5595 72.8C25.5795 73.21 25.6095 73.63 25.6595 74.05L23.6195 75.34C23.5695 74.92 23.5395 74.5 23.5195 74.09Z" fill="#000714" fill-opacity="0.8"/>
</g>
<mask id="mask6_965_140799" style="mask-type:luminance" maskUnits="userSpaceOnUse" x="21" y="56" width="11" height="20">
<path d="M29.5994 57.6501L31.6394 56.3601C26.1994 59.8101 22.9894 66.4501 23.8494 74.0501L21.8094 75.3401C20.9494 67.7401 24.1594 61.1001 29.5994 57.6501Z" fill="white"/>
</mask>
<g mask="url(#mask6_965_140799)">
<path d="M29.5993 57.6501L31.6393 56.3601C28.8493 58.1301 26.6393 60.7401 25.2793 63.8901L23.2393 65.1801C24.6093 62.0301 26.8093 59.4201 29.5993 57.6501Z" fill="#4264A8"/>
<path d="M23.2295 65.1801L25.2695 63.8901C24.8295 64.8901 24.4795 65.9501 24.2295 67.0501L22.1895 68.3401C22.4495 67.2401 22.7995 66.1801 23.2295 65.1801Z" fill="#4264A8"/>
<path d="M22.1893 68.34L24.2293 67.05C24.0193 67.96 23.8693 68.9101 23.7793 69.8801L21.7393 71.1701C21.8193 70.2001 21.9693 69.25 22.1893 68.34Z" fill="#4264A8"/>
<path d="M21.7391 71.1701L23.7791 69.8801C23.6991 70.7901 23.6891 71.7201 23.7291 72.6701L21.6991 73.9601C21.6491 73.0101 21.6691 72.0801 21.7491 71.1701" fill="#4264A8"/>
<path d="M21.6992 73.9602L23.7392 72.6702C23.7592 73.1202 23.7992 73.5802 23.8492 74.0502L21.8092 75.3402C21.7592 74.8802 21.7192 74.4202 21.6992 73.9602Z" fill="#4264A8"/>
</g>
<path d="M60.1094 246.11L62.1494 244.81H311.659L309.619 246.11H60.1094Z" fill="#000714" fill-opacity="0.8"/>
<path d="M60.3291 248.04L62.3691 246.74H311.879L309.839 248.04H60.3291Z" fill="#4264A8"/>
<path d="M23.6191 75.34L25.6591 74.04L42.9291 226.53L40.8891 227.83L23.6191 75.34Z" fill="#000714" fill-opacity="0.8"/>
<path d="M21.8096 75.34L23.8496 74.04L41.1196 226.53L39.0796 227.83L21.8096 75.34Z" fill="#4264A8"/>
<g filter="url(#filter1_b_965_140799)">
<path d="M311.66 244.81H62.1497C52.6797 244.81 44.0697 236.62 42.9297 226.53L25.6597 74.04C24.5197 63.95 31.2697 55.76 40.7397 55.76H290.25C299.72 55.76 308.33 63.95 309.47 74.04L326.74 226.53C327.88 236.62 321.13 244.81 311.66 244.81Z" fill="#000714" fill-opacity="0.8"/>
</g>
<mask id="mask7_965_140799" style="mask-type:luminance" maskUnits="userSpaceOnUse" x="40" y="226" width="23" height="21">
<path d="M40.8896 227.83L42.9296 226.54C44.0696 236.63 52.6796 244.82 62.1496 244.82L60.1096 246.11C50.6396 246.11 42.0296 237.92 40.8896 227.83Z" fill="white"/>
</mask>
<g mask="url(#mask7_965_140799)">
<path d="M40.8896 227.83L42.9296 226.54C42.9796 227.02 43.0496 227.49 43.1396 227.96L41.0996 229.25C41.0096 228.78 40.9396 228.31 40.8896 227.83Z" fill="#000714" fill-opacity="0.8"/>
<path d="M41.0996 229.24L43.1396 227.95C43.3296 228.97 43.5896 229.96 43.9196 230.92L41.8796 232.21C41.5496 231.25 41.2796 230.25 41.0996 229.24Z" fill="#000714" fill-opacity="0.8"/>
<path d="M41.8799 232.22L43.9199 230.93C44.4499 232.46 45.1499 233.92 45.9999 235.28L43.9599 236.57C43.1099 235.22 42.4099 233.76 41.8799 232.22Z" fill="#000714" fill-opacity="0.8"/>
<path d="M43.96 236.56L46 235.27C47.1 237.02 48.44 238.61 49.95 239.95L47.91 241.24C46.39 239.89 45.05 238.31 43.96 236.56Z" fill="#000714" fill-opacity="0.8"/>
<path d="M47.9092 241.24L49.9492 239.95C51.1492 241.02 52.4592 241.93 53.8592 242.68L51.8192 243.97C50.4292 243.23 49.1092 242.31 47.9092 241.24Z" fill="#000714" fill-opacity="0.8"/>
<path d="M51.8193 243.97L53.8593 242.68C54.7393 243.15 55.6493 243.55 56.5893 243.87L54.5493 245.16C53.6093 244.84 52.6993 244.44 51.8193 243.97Z" fill="#000714" fill-opacity="0.8"/>
<path d="M54.5498 245.16L56.5898 243.87C57.3898 244.14 58.2098 244.36 59.0398 244.52L56.9998 245.81C56.1698 245.65 55.3498 245.43 54.5498 245.16Z" fill="#000714" fill-opacity="0.8"/>
<path d="M57 245.81L59.04 244.52C59.84 244.67 60.65 244.77 61.46 244.8L59.42 246.09C58.6 246.06 57.8 245.96 57 245.81Z" fill="#000714" fill-opacity="0.8"/>
<path d="M59.4199 246.09L61.4599 244.8C61.6899 244.8 61.9199 244.81 62.1499 244.81L60.1099 246.1C59.8799 246.1 59.6499 246.1 59.4199 246.09Z" fill="#000714" fill-opacity="0.8"/>
</g>
<path d="M311.879 246.74H62.3694C51.9094 246.74 42.3794 237.67 41.1194 226.53L23.8494 74.0401C22.5894 62.9001 30.0694 53.8301 40.5294 53.8301H290.039C300.499 53.8301 310.029 62.9001 311.289 74.0401L328.559 226.53C329.819 237.67 322.339 246.74 311.879 246.74ZM309.479 74.0401C308.339 63.9501 299.729 55.7601 290.259 55.7601H40.7394C31.2694 55.7601 24.5094 63.9501 25.6594 74.0401L42.9294 226.53C44.0694 236.62 52.6794 244.81 62.1494 244.81H311.659C321.129 244.81 327.889 236.62 326.739 226.53L309.469 74.0401" fill="#4264A8"/>
<mask id="mask8_965_140799" style="mask-type:luminance" maskUnits="userSpaceOnUse" x="39" y="226" width="24" height="23">
<path d="M39.0791 227.83L41.1191 226.54C42.3791 237.68 51.9191 246.75 62.3691 246.75L60.3291 248.04C49.8691 248.04 40.3391 238.97 39.0791 227.83Z" fill="white"/>
</mask>
<g mask="url(#mask8_965_140799)">
<path d="M39.0791 227.83L41.1191 226.54C41.1791 227.07 41.2591 227.59 41.3491 228.1L39.3091 229.39C39.2091 228.87 39.1391 228.35 39.0791 227.83Z" fill="#4264A8"/>
<path d="M39.3096 229.39L41.3496 228.1C41.5596 229.22 41.8496 230.32 42.2096 231.38L40.1696 232.67C39.7996 231.61 39.5096 230.51 39.3096 229.39Z" fill="#4264A8"/>
<path d="M40.1689 232.67L42.2089 231.38C42.7889 233.07 43.5689 234.69 44.5089 236.18L42.4689 237.47C41.5289 235.97 40.7589 234.36 40.1689 232.67Z" fill="#4264A8"/>
<path d="M42.4688 237.47L44.5088 236.18C45.7188 238.12 47.2088 239.88 48.8888 241.37L46.8488 242.66C45.1688 241.17 43.6788 239.42 42.4688 237.47Z" fill="#4264A8"/>
<path d="M46.8486 242.66L48.8886 241.37C50.2186 242.55 51.6686 243.57 53.2186 244.39L51.1786 245.68C49.6386 244.86 48.1786 243.84 46.8486 242.66Z" fill="#4264A8"/>
<path d="M51.1787 245.68L53.2187 244.39C54.1887 244.91 55.1987 245.35 56.2387 245.71L54.1987 247C53.1587 246.64 52.1487 246.2 51.1787 245.68Z" fill="#4264A8"/>
<path d="M54.1992 247L56.2392 245.71C57.1192 246.01 58.0192 246.25 58.9392 246.43L56.8992 247.72C55.9792 247.55 55.0792 247.31 54.1992 247Z" fill="#4264A8"/>
<path d="M56.8994 247.71L58.9394 246.42C59.8194 246.59 60.7094 246.69 61.6094 246.73L59.5694 248.02C58.6694 247.98 57.7794 247.88 56.8994 247.71Z" fill="#4264A8"/>
<path d="M59.5693 248.02L61.6093 246.73C61.8593 246.74 62.1193 246.75 62.3693 246.75L60.3293 248.04C60.0793 248.04 59.8193 248.04 59.5693 248.02Z" fill="#4264A8"/>
</g>
</g>
<path opacity="0.75" d="M417.8 78.07C422.53 79.56 425.77 81.96 426.06 84.49C426.35 87.02 423.66 89.41 419.3 90.9C420.92 95.84 420.91 99.78 419 101.04C418.55 101.34 418.01 101.47 417.39 101.47C415.38 101.47 412.58 99.97 409.62 97.32C407.26 99.97 404.8 101.5 402.78 101.5C402.17 101.5 401.6 101.36 401.09 101.07C398.88 99.81 397.97 95.86 398.46 90.91C393.72 89.42 390.48 87.02 390.2 84.49C389.92 81.96 392.6 79.57 396.98 78.07C395.36 73.13 395.37 69.19 397.28 67.93C397.73 67.63 398.27 67.49 398.89 67.49C400.9 67.49 403.7 69 406.66 71.64C409.02 68.99 411.48 67.46 413.49 67.46C414.09 67.46 414.66 67.61 415.17 67.9C417.37 69.16 418.29 73.11 417.8 78.06V78.07ZM401.55 84.51C402.13 85.55 402.76 86.6 403.43 87.61C404.12 88.65 404.82 89.64 405.54 90.57C406.63 90.66 407.73 90.72 408.84 90.72C409.95 90.72 411.05 90.66 412.13 90.56C412.63 89.63 413.1 88.63 413.55 87.58C413.98 86.56 414.37 85.52 414.72 84.48C414.14 83.44 413.51 82.4 412.84 81.38C412.15 80.34 411.45 79.35 410.74 78.42C409.65 78.32 408.54 78.26 407.44 78.26C406.34 78.26 405.24 78.31 404.15 78.42C403.65 79.35 403.18 80.34 402.72 81.39C402.29 82.42 401.89 83.46 401.56 84.5M398.68 89.21C398.92 87.7 399.28 86.12 399.77 84.49C398.9 82.86 398.17 81.27 397.58 79.74C396.9 79.98 396.24 80.24 395.65 80.53C393.2 81.69 391.69 83.25 391.83 84.48C391.97 85.71 393.82 87.24 396.54 88.42C397.21 88.71 397.92 88.98 398.68 89.21ZM420.63 88.42C423.09 87.25 424.59 85.7 424.46 84.48C424.32 83.25 422.47 81.71 419.75 80.53C419.07 80.24 418.36 79.97 417.6 79.74C417.36 81.25 417 82.83 416.52 84.45C417.38 86.08 418.11 87.68 418.7 89.2C419.38 88.97 420.04 88.7 420.63 88.42ZM413.7 69.2C412.17 69.2 410.09 70.49 407.98 72.85C409.14 73.99 410.31 75.3 411.46 76.74C413.12 76.92 414.72 77.21 416.2 77.59C416.27 76.8 416.32 76.03 416.32 75.29C416.32 72.31 415.62 70 414.56 69.39C414.32 69.26 414.04 69.19 413.71 69.19M402.6 99.76C404.13 99.76 406.21 98.46 408.33 96.11C407.17 94.96 406 93.65 404.85 92.22C403.18 92.03 401.58 91.74 400.1 91.37C400.03 92.16 399.98 92.93 399.98 93.67C399.98 96.64 400.68 98.96 401.74 99.56C401.97 99.69 402.26 99.76 402.59 99.77M418.01 99.53C418.93 98.91 419.09 96.6 418.41 93.63C418.25 92.91 418.03 92.15 417.78 91.36C416.39 91.74 414.86 92.04 413.22 92.22C412.41 93.66 411.54 94.96 410.64 96.11C413.3 98.46 415.68 99.74 417.19 99.74C417.52 99.74 417.8 99.68 418.01 99.53ZM398.29 69.44C397.37 70.06 397.21 72.37 397.89 75.34C398.06 76.07 398.27 76.82 398.52 77.6C399.91 77.22 401.45 76.93 403.08 76.75C403.89 75.31 404.76 74 405.66 72.86C403.01 70.52 400.62 69.23 399.11 69.23C398.87 69.23 398.56 69.3 398.29 69.44ZM415.08 88.45C414.82 89.08 414.53 89.69 414.24 90.29C415.27 90.13 416.25 89.92 417.19 89.66C416.8 88.65 416.34 87.61 415.83 86.57C415.6 87.19 415.36 87.82 415.09 88.45M399.13 79.29C399.52 80.31 399.97 81.34 400.49 82.39C400.71 81.76 400.96 81.14 401.22 80.52C401.48 79.89 401.77 79.27 402.06 78.67C401.03 78.84 400.05 79.04 399.12 79.29M414.17 80.5C414.59 81.13 414.97 81.75 415.34 82.37C415.6 81.34 415.82 80.3 415.98 79.29C414.99 79.04 413.96 78.84 412.91 78.67C413.34 79.26 413.76 79.87 414.17 80.5ZM402.13 88.47C401.72 87.85 401.33 87.23 400.96 86.6C400.69 87.63 400.48 88.68 400.32 89.68C401.3 89.93 402.33 90.13 403.38 90.3C402.95 89.71 402.53 89.1 402.12 88.47M409.26 76.58C408.49 75.67 407.72 74.83 406.95 74.08C406.37 74.83 405.78 75.66 405.23 76.58C405.89 76.55 406.57 76.53 407.26 76.53C407.95 76.53 408.62 76.55 409.27 76.58M409.35 94.89C409.93 94.14 410.52 93.31 411.07 92.39C410.41 92.43 409.73 92.45 409.05 92.45C408.37 92.45 407.69 92.42 407.04 92.39C407.81 93.3 408.59 94.14 409.35 94.89Z" fill="#5FD6F6"/>
<path opacity="0.75" d="M408.519 88.0499C407.629 88.0499 406.739 87.6799 406.039 87.0099C405.339 86.3399 404.879 85.4399 404.779 84.4999C404.679 83.5599 404.929 82.6499 405.469 81.9799C406.019 81.3099 406.829 80.9399 407.719 80.9399C408.609 80.9399 409.499 81.3099 410.199 81.9799C410.899 82.6499 411.359 83.5499 411.459 84.4999C411.559 85.4499 411.309 86.3399 410.769 87.0099C410.219 87.6799 409.409 88.0499 408.519 88.0499Z" fill="#5FD6F6"/>
<g opacity="0.75">
<path d="M369.94 213.44C372.7 213.39 373.8 212.7 373.6 211.14C373.48 210.24 373.06 209.58 368.69 209.2C365.04 208.89 362.71 208.08 362.32 205.02C361.95 202.19 363.97 200.48 367.71 200.41C371.92 200.34 374.21 201.85 374.91 205.18C374.94 205.29 374.91 205.41 374.85 205.49C374.79 205.57 374.7 205.62 374.59 205.62L372.89 205.65C372.71 205.65 372.54 205.52 372.48 205.34C371.81 203.41 370.74 202.81 368.04 202.86C365.02 202.91 364.82 204.04 364.93 204.88C365.06 205.89 365.52 206.18 369.67 206.68C373.78 207.18 375.8 207.95 376.2 210.97C376.6 213.99 374.45 215.81 370.28 215.87C364.53 215.97 362.96 213.19 362.65 210.83C362.62 210.61 362.77 210.43 362.98 210.42L364.68 210.39C364.87 210.39 365.05 210.53 365.1 210.72C365.6 212.56 366.49 213.48 369.97 213.42L369.94 213.44Z" fill="#329632"/>
<path d="M378.3 197.13C379.22 197.64 379.87 198.61 380.01 199.66L382.12 215.79C382.26 216.84 381.86 217.83 381.08 218.36L369 226.67C368.62 226.93 368.15 227.08 367.66 227.08C367.17 227.08 366.69 226.96 366.24 226.71L361.49 224.02C360.78 223.64 361.09 223.51 361.29 223.41C362.12 223.07 362.29 222.99 363.15 222.42C363.19 222.39 363.23 222.38 363.28 222.38C363.35 222.38 363.42 222.4 363.48 222.44L367.13 224.51C367.2 224.54 367.27 224.56 367.34 224.56C367.41 224.56 367.48 224.54 367.53 224.5L379.62 216.2C379.73 216.12 379.79 215.97 379.77 215.81L377.66 199.68C377.64 199.52 377.54 199.38 377.41 199.3L363.22 191.46C363.15 191.43 363.08 191.41 363.01 191.41C362.94 191.41 362.87 191.43 362.81 191.47L350.74 199.77C350.62 199.85 350.56 200 350.58 200.16L352.69 216.29C352.71 216.45 352.81 216.59 352.95 216.66L356.84 218.81C357.39 219.08 357.87 219.19 358.28 219.18C359.4 219.16 359.92 218.25 359.81 217.34L357.73 201.42C357.7 201.19 357.85 201.01 358.06 201.01L359.72 200.98C359.93 200.98 360.13 201.16 360.16 201.38L362.24 217.3C362.6 220.08 361.39 221.69 358.92 221.73C358.16 221.74 357.57 221.75 355.78 220.91L352.05 218.86C351.13 218.35 350.48 217.38 350.34 216.33L348.23 200.2C348.09 199.15 348.49 198.16 349.27 197.63L361.35 189.32C361.73 189.06 362.2 188.93 362.69 188.92C363.18 188.91 363.67 189.03 364.12 189.27L378.32 197.12L378.3 197.13Z" fill="#329632"/>
</g>
<path opacity="0.75" d="M395.57 128.15H431.44L435.77 166.37H399.9L395.57 128.15ZM431.9 159.78C431.93 159.64 432.13 158.66 431.72 157.15L431.8 157.25C431.34 155.51 430.11 154.04 426.8 152.68C425.64 152.13 424.37 151.75 423.91 150.86C423.71 150.34 423.66 150.05 423.71 149.74C423.8 148.95 424.47 148.59 425.19 148.59C425.41 148.59 425.64 148.62 425.86 148.69C426.46 148.88 427.05 149.36 427.48 150.12C428.427 149.4 429.234 148.803 429.9 148.33C429.42 147.66 429.19 147.37 428.89 147.09C427.86 146.02 426.61 145.44 424.71 145.44C424.63 145.44 424.54 145.44 424.46 145.44L423.42 145.58C422.44 145.84 421.55 146.41 421.05 147.18C419.58 149.24 420.47 152.82 422.7 154.3C424.92 155.93 427.95 156.28 428.51 157.81C429.01 159.44 427.86 160.1 426.46 160.1C426.25 160.1 426.04 160.09 425.82 160.06C424.57 159.77 423.83 159.13 422.95 157.94L420.41 159.61C420.81 160.37 421.2 160.71 421.82 161.37C423.1 162.6 425.06 163.26 426.92 163.26C429.31 163.26 431.53 162.17 431.91 159.77M418.2 160.97C418.79 159.49 418.42 157.68 418.2 155.64C417.85 152.37 417.46 149.1 417.09 145.8V145.71H413.72C414.07 148.8 414.41 151.86 414.76 154.96C414.98 156.92 415.28 158.72 415.04 159.27C414.81 159.97 414.2 160.17 413.64 160.17C413.32 160.17 413.01 160.11 412.8 160.04C412.17 159.73 411.82 159.3 411.41 158.68C411.29 158.51 411.2 158.37 411.18 158.37L408.66 160.16C409.23 161.16 409.99 162.03 410.91 162.58C411.84 163.13 412.95 163.43 414.11 163.43C414.66 163.43 415.22 163.36 415.78 163.23C416.91 162.87 417.83 162.13 418.23 160.98" fill="#F2DB1D"/>
<path opacity="0.75" d="M369.99 81.7101C370.26 82.7601 370.31 83.0801 370.47 84.4901C370.63 85.9001 370.65 86.2301 370.62 87.2801C370.54 90.8901 369.46 94.2701 367.51 97.0401C366.59 98.3501 365.39 99.6001 364.21 100.49L364.08 100.59L360.71 96.0101C357.92 92.2001 355.13 88.3901 352.34 84.5901C349.59 80.8301 347.29 77.7001 347.23 77.6401C347.02 77.4201 346.89 77.4001 346.18 77.4001C345.57 77.4001 345.51 77.4001 345.38 77.4801C345.3 77.5301 345.19 77.6401 345.15 77.7101L345.06 77.8501L345.89 85.3401L346.73 92.8301L346.82 93.0001C346.89 93.1101 346.98 93.2101 347.09 93.2801L347.26 93.3801H347.86C348.39 93.3801 348.49 93.3801 348.59 93.3101C348.73 93.2301 348.79 93.1501 348.86 92.9701C348.91 92.8401 348.89 92.6201 348.28 87.2401C347.94 84.1601 347.67 81.6501 347.69 81.6501C347.69 81.6501 349.62 84.2001 351.95 87.3201L356.19 92.9901L359.52 97.1101C361.36 99.3901 362.89 101.27 362.91 101.28C362.96 101.32 362.91 101.37 362.61 101.53C360.73 102.63 358.76 103.26 356.38 103.55C356.11 103.58 355.39 103.6 354.67 103.6C353.95 103.6 353.22 103.58 352.94 103.55C351.53 103.38 350.27 103.12 349.06 102.72C342.31 100.49 336.83 94.4501 335.04 87.2801C334.77 86.2301 334.72 85.9201 334.56 84.4901C334.4 83.0601 334.38 82.7601 334.41 81.7101C334.48 78.7001 335.23 75.8701 336.63 73.3601C339.15 68.8601 343.59 65.9301 348.62 65.4401C348.84 65.4201 349.08 65.4001 349.16 65.3901C349.23 65.3901 349.43 65.3901 349.69 65.3901C350.48 65.3901 351.85 65.4201 352.11 65.4401C353.49 65.6101 354.75 65.8801 355.93 66.2701C362.68 68.5001 368.16 74.5401 369.95 81.7101H369.99ZM359.05 84.2501C358.53 79.5601 358.28 77.4901 358.25 77.3901C358.18 77.2101 358.02 77.0401 357.85 76.9501C357.72 76.8901 357.63 76.8801 357.12 76.8801C356.57 76.8801 356.52 76.8801 356.38 76.9701C356.23 77.0701 356.12 77.2301 356.09 77.4401C356.08 77.5301 356.26 79.3001 356.62 82.4601L357.17 87.3501L358.49 89.1601L359.8 90.9801L359.05 84.2701" fill="#FAFAFA"/>
<path opacity="0.75" d="M374.03 128.15C374.96 128.15 375.8 128.95 375.91 129.94L379.83 164.58C379.94 165.57 379.28 166.37 378.35 166.37H345.85C344.92 166.37 344.08 165.57 343.97 164.58L340.05 129.94C339.94 128.95 340.6 128.15 341.53 128.15H374.03ZM361.36 147.43L360.97 143.98H346.68L347.07 147.43H352.18L353.92 162.79H357.97L356.23 147.43H361.36ZM375.69 160.12C375.98 159.42 376.06 158.53 375.95 157.49C375.86 156.72 375.68 156.06 375.41 155.49C375.13 154.92 374.77 154.41 374.32 153.97C373.87 153.53 373.34 153.13 372.75 152.77C372.15 152.42 371.48 152.08 370.74 151.77C370.2 151.54 369.71 151.33 369.28 151.11C368.85 150.89 368.48 150.68 368.17 150.46C367.86 150.23 367.61 150 367.43 149.75C367.25 149.51 367.13 149.22 367.1 148.91C367.07 148.64 367.11 148.36 367.22 148.14C367.33 147.91 367.51 147.71 367.74 147.54C368 147.36 368.31 147.23 368.63 147.16C368.99 147.06 369.39 147.02 369.84 147.02C370.56 147.02 371.29 147.13 372.01 147.34C372.39 147.44 372.76 147.58 373.13 147.75C373.48 147.92 373.82 148.11 374.15 148.32L373.71 144.41C373.05 144.16 372.38 143.98 371.7 143.87C370.98 143.75 370.16 143.7 369.25 143.7C369.22 143.7 369.18 143.7 369.15 143.7C368.3 143.7 367.45 143.8 366.65 144.01C365.89 144.2 365.18 144.54 364.56 145.02C363.98 145.47 363.55 146.05 363.25 146.75C362.96 147.45 362.88 148.29 362.99 149.27C363.13 150.51 363.59 151.58 364.36 152.46C365.13 153.35 366.24 154.09 367.68 154.7C368.21 154.92 368.73 155.15 369.26 155.4C369.71 155.6 370.13 155.83 370.55 156.1C370.88 156.31 371.18 156.58 371.45 156.89C371.64 157.14 371.78 157.44 371.83 157.74C371.89 158.05 371.86 158.36 371.75 158.63C371.65 158.86 371.49 159.06 371.26 159.24C371.03 159.41 370.73 159.54 370.37 159.63C370.01 159.73 369.58 159.78 369.08 159.78C367.3 159.78 365.51 159.09 364.03 157.87L364.5 162.06C365.25 162.43 366.05 162.7 366.85 162.84C367.73 163.01 368.62 163.1 369.5 163.1C369.54 163.1 369.58 163.1 369.63 163.1C370.57 163.1 371.45 163 372.27 162.81C373.04 162.65 373.76 162.32 374.38 161.86C374.97 161.43 375.41 160.83 375.7 160.13" fill="#3076C2"/>
<path opacity="0.75" d="M435.33 203.42C437.15 203.42 438.66 202.4 439.86 200.36C439.25 205.45 436.54 208 431.76 208C427.31 208 425.03 205.8 423.06 203.9C421.85 202.73 420.75 201.68 419.35 201.32C418.86 201.19 418.39 201.13 417.93 201.13C416.11 201.13 414.6 202.15 413.4 204.19C414.01 199.09 416.72 196.54 421.5 196.54C425.95 196.54 428.23 198.74 430.2 200.64C431.41 201.81 432.5 202.87 433.91 203.23C434.4 203.36 434.87 203.42 435.33 203.42Z" fill="#06B3D0"/>
<path opacity="0.75" d="M427.66 214.89C429.48 214.89 430.99 213.87 432.19 211.83C431.57 216.92 428.87 219.47 424.09 219.47C419.64 219.47 417.36 217.27 415.39 215.37C414.17 214.21 413.08 213.15 411.68 212.79C411.19 212.66 410.72 212.6 410.26 212.6C408.44 212.6 406.93 213.62 405.72 215.66C406.34 210.56 409.04 208.01 413.83 208.01C418.28 208.01 420.56 210.22 422.52 212.11C423.74 213.28 424.83 214.34 426.24 214.7C426.73 214.83 427.2 214.89 427.66 214.89Z" fill="#06B3D0"/>
<g filter="url(#filter2_b_965_140799)">
<path d="M249.819 130.44H80.0792C73.6392 130.44 67.7892 124.88 67.0092 118.01L55.2592 14.2601C54.4792 7.39008 59.0692 1.83008 65.5192 1.83008H235.259C241.699 1.83008 247.549 7.39008 248.329 14.2601L260.079 118.01C260.859 124.88 256.269 130.44 249.819 130.44Z" fill="url(#paint0_linear_965_140799)"/>
</g>
<path d="M249.969 131.75H80.2295C73.1195 131.75 66.6395 125.59 65.7795 118.01L54.0295 14.26C53.1695 6.68002 58.2495 0.52002 65.3695 0.52002H235.109C242.219 0.52002 248.699 6.68002 249.559 14.26L261.309 118.01C262.169 125.59 257.079 131.75 249.969 131.75ZM248.329 14.26C247.549 7.39002 241.699 1.83002 235.259 1.83002H65.5095C59.0695 1.83002 54.4795 7.39002 55.2495 14.26L66.9995 118.01C67.7795 124.88 73.6295 130.44 80.0695 130.44H249.809C256.249 130.44 260.839 124.88 260.069 118.01L248.319 14.26" fill="url(#paint1_linear_965_140799)" fill-opacity="0.75"/>
<g filter="url(#filter3_b_965_140799)">
<path d="M231.61 21.2201H72.2497C71.0497 21.2201 69.9697 20.1901 69.8297 18.9201C69.6897 17.6501 70.5297 16.6201 71.7297 16.6201H231.09C232.29 16.6201 233.37 17.6501 233.51 18.9201C233.65 20.1901 232.81 21.2201 231.61 21.2201Z" fill="#4264A8" fill-opacity="0.6"/>
</g>
<g filter="url(#filter4_b_965_140799)">
<path d="M139.23 31.56H73.3998C72.2098 31.56 71.1298 30.53 70.9898 29.26C70.8498 27.99 71.6898 26.96 72.8798 26.96H138.71C139.91 26.96 140.99 27.99 141.13 29.26C141.27 30.53 140.43 31.56 139.23 31.56Z" fill="#4264A8" fill-opacity="0.3"/>
</g>
<g filter="url(#filter5_b_965_140799)">
<path d="M127.66 64.12H77.0699C75.8799 64.12 74.7899 63.09 74.6499 61.82C74.5099 60.55 75.3599 59.52 76.5499 59.52H127.14C128.33 59.52 129.42 60.55 129.56 61.82C129.7 63.09 128.85 64.12 127.66 64.12Z" fill="#4264A8" fill-opacity="0.6"/>
</g>
<g filter="url(#filter6_b_965_140799)">
<path d="M109.77 74.7599H78.2797C77.0897 74.7599 76.0097 73.7299 75.8697 72.4599C75.7297 71.1899 76.5697 70.1599 77.7597 70.1599H109.25C110.44 70.1599 111.53 71.1899 111.67 72.4599C111.81 73.7299 110.96 74.7599 109.77 74.7599Z" fill="#4264A8" fill-opacity="0.3"/>
</g>
<g filter="url(#filter7_b_965_140799)">
<path d="M117.41 101.82H85.3197C81.8797 101.82 78.7497 98.85 78.3397 95.19C77.9297 91.53 80.3797 88.55 83.8197 88.55H115.91C119.35 88.55 122.47 91.52 122.89 95.19C123.31 98.86 120.86 101.82 117.42 101.82H117.41Z" fill="#4264A8" fill-opacity="0.6"/>
</g>
<g filter="url(#filter8_b_965_140799)">
<path d="M171.04 42.4999H74.6704C73.4804 42.4999 72.4004 41.4699 72.2604 40.1999C72.1204 38.9299 72.9604 37.8999 74.1504 37.8999H170.51C171.7 37.8999 172.79 38.9299 172.93 40.1999C173.07 41.4699 172.22 42.4999 171.03 42.4999H171.04Z" fill="#4264A8" fill-opacity="0.3"/>
</g>
<g filter="url(#filter9_b_965_140799)">
<path d="M236.57 114.54H159.24C155.27 114.54 151.66 111.11 151.18 106.87L146.57 66.15C146.09 61.92 148.92 58.48 152.9 58.48H230.23C234.2 58.48 237.81 61.91 238.29 66.15L242.9 106.87C243.38 111.1 240.55 114.54 236.57 114.54Z" fill="#4264A8" fill-opacity="0.15"/>
</g>
<g filter="url(#filter10_b_965_140799)">
<path d="M351.12 204.47H85.8998C81.3598 204.47 77.2398 200.55 76.6898 195.72L73.7298 169.56C73.1798 164.73 76.4198 160.81 80.9498 160.81H346.17C350.71 160.81 354.83 164.73 355.38 169.56L358.34 195.72C358.89 200.55 355.65 204.47 351.12 204.47Z" fill="url(#paint2_linear_965_140799)"/>
</g>
<path d="M351.27 205.78H86.0502C80.8402 205.78 76.0902 201.27 75.4602 195.71L72.5002 169.55C71.8702 163.99 75.5902 159.48 80.8102 159.48H346.03C351.24 159.48 355.99 163.99 356.62 169.55L359.58 195.71C360.21 201.27 356.49 205.78 351.27 205.78ZM355.38 169.56C354.83 164.73 350.71 160.81 346.17 160.81H80.9602C76.4202 160.81 73.1902 164.73 73.7402 169.56L76.7002 195.72C77.2502 200.55 81.3702 204.47 85.9102 204.47H351.13C355.67 204.47 358.9 200.55 358.35 195.72L355.39 169.56" fill="url(#paint3_linear_965_140799)" fill-opacity="0.75"/>
<g filter="url(#filter11_b_965_140799)">
<path d="M344.22 130.44H295.38C291.73 130.44 288.41 127.28 287.97 123.39L275 8.88008C274.56 4.99008 277.16 1.83008 280.82 1.83008H329.66C333.31 1.83008 336.63 4.99008 337.07 8.88008L350.04 123.39C350.48 127.28 347.88 130.44 344.22 130.44Z" fill="url(#paint4_linear_965_140799)"/>
</g>
<path d="M344.37 131.75H295.53C291.2 131.75 287.26 128 286.74 123.39L273.77 8.88002C273.25 4.27002 276.34 0.52002 280.67 0.52002H329.51C333.84 0.52002 337.78 4.27002 338.3 8.88002L351.27 123.39C351.79 128.01 348.7 131.75 344.37 131.75ZM337.07 8.88002C336.63 4.99002 333.31 1.83002 329.66 1.83002H280.82C277.17 1.83002 274.56 4.99002 275 8.88002L287.97 123.39C288.41 127.28 291.73 130.44 295.38 130.44H344.22C347.87 130.44 350.48 127.28 350.04 123.39L337.07 8.88002Z" fill="url(#paint5_linear_965_140799)" fill-opacity="0.75"/>
<g filter="url(#filter12_b_965_140799)">
<path d="M330.89 95.9501H301.71C298.19 95.9501 294.99 92.9101 294.56 89.1501L291.33 60.6201C290.9 56.8601 293.42 53.8201 296.94 53.8201H326.12C329.64 53.8201 332.85 56.8601 333.28 60.6201L336.51 89.1501C336.94 92.9101 334.42 95.9501 330.89 95.9501Z" fill="#4264A8" fill-opacity="0.15"/>
</g>
<g filter="url(#filter13_b_965_140799)">
<path d="M326.469 21.2201H289.039C287.849 21.2201 286.769 20.1901 286.629 18.9201C286.489 17.6501 287.33 16.6201 288.52 16.6201H325.95C327.139 16.6201 328.22 17.6501 328.36 18.9201C328.5 20.1901 327.659 21.2201 326.469 21.2201Z" fill="#4264A8" fill-opacity="0.6"/>
</g>
<g filter="url(#filter14_b_965_140799)">
<path d="M303.91 31.56H290.34C289.15 31.56 288.06 30.53 287.92 29.26C287.78 27.99 288.63 26.96 289.82 26.96H303.39C304.58 26.96 305.66 27.99 305.8 29.26C305.94 30.53 305.1 31.56 303.91 31.56Z" fill="#4264A8" fill-opacity="0.3"/>
</g>
<g filter="url(#filter15_b_965_140799)">
<path d="M312.79 42.4999H291.44C290.24 42.4999 289.16 41.4699 289.02 40.1999C288.88 38.9299 289.72 37.8999 290.92 37.8999H312.27C313.46 37.8999 314.55 38.9299 314.69 40.1999C314.83 41.4699 313.98 42.4999 312.79 42.4999Z" fill="#4264A8" fill-opacity="0.3"/>
</g>
<g filter="url(#filter16_b_965_140799)">
<path d="M335.37 118.79H302.85C300.23 118.79 297.85 116.52 297.54 113.73C297.23 110.94 299.09 108.67 301.71 108.67H334.23C336.85 108.67 339.23 110.94 339.55 113.73C339.87 116.52 337.99 118.79 335.38 118.79H335.37Z" fill="#4264A8" fill-opacity="0.6"/>
</g>
<g filter="url(#filter17_b_965_140799)">
<path d="M268.859 179.35H90.0995C88.9295 179.35 87.8695 178.34 87.7195 176.99C87.5795 175.75 88.4095 174.75 89.5795 174.75H268.339C269.509 174.75 270.57 175.75 270.719 177.1C270.859 178.34 270.029 179.35 268.859 179.35Z" fill="#4264A8" fill-opacity="0.6"/>
</g>
<g filter="url(#filter18_b_965_140799)">
<path d="M220.61 189.69H91.3696C90.1796 189.69 89.0996 188.66 88.9596 187.39C88.8196 186.12 89.6596 185.09 90.8496 185.09H220.09C221.29 185.09 222.37 186.12 222.51 187.39C222.65 188.66 221.81 189.69 220.61 189.69Z" fill="#4264A8" fill-opacity="0.3"/>
</g>
<g filter="url(#filter19_b_965_140799)">
<path d="M343.55 193.69H311.17C308.58 193.69 306.24 191.46 305.92 188.7L304.4 175.24C304.09 172.48 305.93 170.25 308.52 170.25H340.9C343.49 170.25 345.83 172.48 346.15 175.24L347.67 188.7C347.98 191.46 346.14 193.69 343.55 193.69Z" fill="#4264A8" fill-opacity="0.15"/>
</g>
<defs>
<filter id="filter0_dddd_965_140799" x="-73.3281" y="45.8301" width="412.026" height="320.21" filterUnits="userSpaceOnUse" color-interpolation-filters="sRGB">
<feFlood flood-opacity="0" result="BackgroundImageFix"/>
<feColorMatrix in="SourceAlpha" type="matrix" values="0 0 0 0 0 0 0 0 0 0 0 0 0 0 0 0 0 0 127 0" result="hardAlpha"/>
<feOffset dx="-3" dy="5"/>
<feGaussianBlur stdDeviation="6.5"/>
<feColorMatrix type="matrix" values="0 0 0 0 0.258824 0 0 0 0 0.392157 0 0 0 0 0.658824 0 0 0 0.1 0"/>
<feBlend mode="normal" in2="BackgroundImageFix" result="effect1_dropShadow_965_140799"/>
<feColorMatrix in="SourceAlpha" type="matrix" values="0 0 0 0 0 0 0 0 0 0 0 0 0 0 0 0 0 0 127 0" result="hardAlpha"/>
<feOffset dx="-14" dy="20"/>
<feGaussianBlur stdDeviation="12"/>
<feColorMatrix type="matrix" values="0 0 0 0 0.258824 0 0 0 0 0.392157 0 0 0 0 0.658824 0 0 0 0.09 0"/>
<feBlend mode="normal" in2="effect1_dropShadow_965_140799" result="effect2_dropShadow_965_140799"/>
<feColorMatrix in="SourceAlpha" type="matrix" values="0 0 0 0 0 0 0 0 0 0 0 0 0 0 0 0 0 0 127 0" result="hardAlpha"/>
<feOffset dx="-31" dy="45"/>
<feGaussianBlur stdDeviation="16.5"/>
<feColorMatrix type="matrix" values="0 0 0 0 0.258824 0 0 0 0 0.392157 0 0 0 0 0.658824 0 0 0 0.05 0"/>
<feBlend mode="normal" in2="effect2_dropShadow_965_140799" result="effect3_dropShadow_965_140799"/>
<feColorMatrix in="SourceAlpha" type="matrix" values="0 0 0 0 0 0 0 0 0 0 0 0 0 0 0 0 0 0 127 0" result="hardAlpha"/>
<feOffset dx="-56" dy="79"/>
<feGaussianBlur stdDeviation="19.5"/>
<feColorMatrix type="matrix" values="0 0 0 0 0.258824 0 0 0 0 0.392157 0 0 0 0 0.658824 0 0 0 0.01 0"/>
<feBlend mode="normal" in2="effect3_dropShadow_965_140799" result="effect4_dropShadow_965_140799"/>
<feBlend mode="normal" in="SourceGraphic" in2="effect4_dropShadow_965_140799" result="shape"/>
</filter>
<filter id="filter1_b_965_140799" x="15.5342" y="45.76" width="321.331" height="209.05" filterUnits="userSpaceOnUse" color-interpolation-filters="sRGB">
<feFlood flood-opacity="0" result="BackgroundImageFix"/>
<feGaussianBlur in="BackgroundImageFix" stdDeviation="5"/>
<feComposite in2="SourceAlpha" operator="in" result="effect1_backgroundBlur_965_140799"/>
<feBlend mode="normal" in="SourceGraphic" in2="effect1_backgroundBlur_965_140799" result="shape"/>
</filter>
<filter id="filter2_b_965_140799" x="45.1729" y="-8.16992" width="224.993" height="148.61" filterUnits="userSpaceOnUse" color-interpolation-filters="sRGB">
<feFlood flood-opacity="0" result="BackgroundImageFix"/>
<feGaussianBlur in="BackgroundImageFix" stdDeviation="5"/>
<feComposite in2="SourceAlpha" operator="in" result="effect1_backgroundBlur_965_140799"/>
<feBlend mode="normal" in="SourceGraphic" in2="effect1_backgroundBlur_965_140799" result="shape"/>
</filter>
<filter id="filter3_b_965_140799" x="59.8145" y="6.62012" width="183.711" height="24.6001" filterUnits="userSpaceOnUse" color-interpolation-filters="sRGB">
<feFlood flood-opacity="0" result="BackgroundImageFix"/>
<feGaussianBlur in="BackgroundImageFix" stdDeviation="5"/>
<feComposite in2="SourceAlpha" operator="in" result="effect1_backgroundBlur_965_140799"/>
<feBlend mode="normal" in="SourceGraphic" in2="effect1_backgroundBlur_965_140799" result="shape"/>
</filter>
<filter id="filter4_b_965_140799" x="60.9746" y="16.96" width="90.1709" height="24.6001" filterUnits="userSpaceOnUse" color-interpolation-filters="sRGB">
<feFlood flood-opacity="0" result="BackgroundImageFix"/>
<feGaussianBlur in="BackgroundImageFix" stdDeviation="5"/>
<feComposite in2="SourceAlpha" operator="in" result="effect1_backgroundBlur_965_140799"/>
<feBlend mode="normal" in="SourceGraphic" in2="effect1_backgroundBlur_965_140799" result="shape"/>
</filter>
<filter id="filter5_b_965_140799" x="64.6348" y="49.52" width="74.9404" height="24.6001" filterUnits="userSpaceOnUse" color-interpolation-filters="sRGB">
<feFlood flood-opacity="0" result="BackgroundImageFix"/>
<feGaussianBlur in="BackgroundImageFix" stdDeviation="5"/>
<feComposite in2="SourceAlpha" operator="in" result="effect1_backgroundBlur_965_140799"/>
<feBlend mode="normal" in="SourceGraphic" in2="effect1_backgroundBlur_965_140799" result="shape"/>
</filter>
<filter id="filter6_b_965_140799" x="65.8545" y="60.1599" width="55.8301" height="24.6001" filterUnits="userSpaceOnUse" color-interpolation-filters="sRGB">
<feFlood flood-opacity="0" result="BackgroundImageFix"/>
<feGaussianBlur in="BackgroundImageFix" stdDeviation="5"/>
<feComposite in2="SourceAlpha" operator="in" result="effect1_backgroundBlur_965_140799"/>
<feBlend mode="normal" in="SourceGraphic" in2="effect1_backgroundBlur_965_140799" result="shape"/>
</filter>
<filter id="filter7_b_965_140799" x="68.2949" y="78.55" width="64.6416" height="33.27" filterUnits="userSpaceOnUse" color-interpolation-filters="sRGB">
<feFlood flood-opacity="0" result="BackgroundImageFix"/>
<feGaussianBlur in="BackgroundImageFix" stdDeviation="5"/>
<feComposite in2="SourceAlpha" operator="in" result="effect1_backgroundBlur_965_140799"/>
<feBlend mode="normal" in="SourceGraphic" in2="effect1_backgroundBlur_965_140799" result="shape"/>
</filter>
<filter id="filter8_b_965_140799" x="62.2451" y="27.8999" width="120.7" height="24.6001" filterUnits="userSpaceOnUse" color-interpolation-filters="sRGB">
<feFlood flood-opacity="0" result="BackgroundImageFix"/>
<feGaussianBlur in="BackgroundImageFix" stdDeviation="5"/>
<feComposite in2="SourceAlpha" operator="in" result="effect1_backgroundBlur_965_140799"/>
<feBlend mode="normal" in="SourceGraphic" in2="effect1_backgroundBlur_965_140799" result="shape"/>
</filter>
<filter id="filter9_b_965_140799" x="136.517" y="48.48" width="116.437" height="76.0601" filterUnits="userSpaceOnUse" color-interpolation-filters="sRGB">
<feFlood flood-opacity="0" result="BackgroundImageFix"/>
<feGaussianBlur in="BackgroundImageFix" stdDeviation="5"/>
<feComposite in2="SourceAlpha" operator="in" result="effect1_backgroundBlur_965_140799"/>
<feBlend mode="normal" in="SourceGraphic" in2="effect1_backgroundBlur_965_140799" result="shape"/>
</filter>
<filter id="filter10_b_965_140799" x="63.6689" y="150.81" width="304.731" height="63.6599" filterUnits="userSpaceOnUse" color-interpolation-filters="sRGB">
<feFlood flood-opacity="0" result="BackgroundImageFix"/>
<feGaussianBlur in="BackgroundImageFix" stdDeviation="5"/>
<feComposite in2="SourceAlpha" operator="in" result="effect1_backgroundBlur_965_140799"/>
<feBlend mode="normal" in="SourceGraphic" in2="effect1_backgroundBlur_965_140799" result="shape"/>
</filter>
<filter id="filter11_b_965_140799" x="264.951" y="-8.16992" width="95.1367" height="148.61" filterUnits="userSpaceOnUse" color-interpolation-filters="sRGB">
<feFlood flood-opacity="0" result="BackgroundImageFix"/>
<feGaussianBlur in="BackgroundImageFix" stdDeviation="5"/>
<feComposite in2="SourceAlpha" operator="in" result="effect1_backgroundBlur_965_140799"/>
<feBlend mode="normal" in="SourceGraphic" in2="effect1_backgroundBlur_965_140799" result="shape"/>
</filter>
<filter id="filter12_b_965_140799" x="281.282" y="43.8201" width="65.2754" height="62.1299" filterUnits="userSpaceOnUse" color-interpolation-filters="sRGB">
<feFlood flood-opacity="0" result="BackgroundImageFix"/>
<feGaussianBlur in="BackgroundImageFix" stdDeviation="5"/>
<feComposite in2="SourceAlpha" operator="in" result="effect1_backgroundBlur_965_140799"/>
<feBlend mode="normal" in="SourceGraphic" in2="effect1_backgroundBlur_965_140799" result="shape"/>
</filter>
<filter id="filter13_b_965_140799" x="276.614" y="6.62012" width="61.7607" height="24.6001" filterUnits="userSpaceOnUse" color-interpolation-filters="sRGB">
<feFlood flood-opacity="0" result="BackgroundImageFix"/>
<feGaussianBlur in="BackgroundImageFix" stdDeviation="5"/>
<feComposite in2="SourceAlpha" operator="in" result="effect1_backgroundBlur_965_140799"/>
<feBlend mode="normal" in="SourceGraphic" in2="effect1_backgroundBlur_965_140799" result="shape"/>
</filter>
<filter id="filter14_b_965_140799" x="277.905" y="16.96" width="37.9102" height="24.6001" filterUnits="userSpaceOnUse" color-interpolation-filters="sRGB">
<feFlood flood-opacity="0" result="BackgroundImageFix"/>
<feGaussianBlur in="BackgroundImageFix" stdDeviation="5"/>
<feComposite in2="SourceAlpha" operator="in" result="effect1_backgroundBlur_965_140799"/>
<feBlend mode="normal" in="SourceGraphic" in2="effect1_backgroundBlur_965_140799" result="shape"/>
</filter>
<filter id="filter15_b_965_140799" x="279.005" y="27.8999" width="45.7002" height="24.6001" filterUnits="userSpaceOnUse" color-interpolation-filters="sRGB">
<feFlood flood-opacity="0" result="BackgroundImageFix"/>
<feGaussianBlur in="BackgroundImageFix" stdDeviation="5"/>
<feComposite in2="SourceAlpha" operator="in" result="effect1_backgroundBlur_965_140799"/>
<feBlend mode="normal" in="SourceGraphic" in2="effect1_backgroundBlur_965_140799" result="shape"/>
</filter>
<filter id="filter16_b_965_140799" x="287.506" y="98.6699" width="62.0791" height="30.1201" filterUnits="userSpaceOnUse" color-interpolation-filters="sRGB">
<feFlood flood-opacity="0" result="BackgroundImageFix"/>
<feGaussianBlur in="BackgroundImageFix" stdDeviation="5"/>
<feComposite in2="SourceAlpha" operator="in" result="effect1_backgroundBlur_965_140799"/>
<feBlend mode="normal" in="SourceGraphic" in2="effect1_backgroundBlur_965_140799" result="shape"/>
</filter>
<filter id="filter17_b_965_140799" x="77.7041" y="164.75" width="203.031" height="24.6001" filterUnits="userSpaceOnUse" color-interpolation-filters="sRGB">
<feFlood flood-opacity="0" result="BackgroundImageFix"/>
<feGaussianBlur in="BackgroundImageFix" stdDeviation="5"/>
<feComposite in2="SourceAlpha" operator="in" result="effect1_backgroundBlur_965_140799"/>
<feBlend mode="normal" in="SourceGraphic" in2="effect1_backgroundBlur_965_140799" result="shape"/>
</filter>
<filter id="filter18_b_965_140799" x="78.9443" y="175.09" width="153.58" height="24.6001" filterUnits="userSpaceOnUse" color-interpolation-filters="sRGB">
<feFlood flood-opacity="0" result="BackgroundImageFix"/>
<feGaussianBlur in="BackgroundImageFix" stdDeviation="5"/>
<feComposite in2="SourceAlpha" operator="in" result="effect1_backgroundBlur_965_140799"/>
<feBlend mode="normal" in="SourceGraphic" in2="effect1_backgroundBlur_965_140799" result="shape"/>
</filter>
<filter id="filter19_b_965_140799" x="294.366" y="160.25" width="63.3379" height="43.4399" filterUnits="userSpaceOnUse" color-interpolation-filters="sRGB">
<feFlood flood-opacity="0" result="BackgroundImageFix"/>
<feGaussianBlur in="BackgroundImageFix" stdDeviation="5"/>
<feComposite in2="SourceAlpha" operator="in" result="effect1_backgroundBlur_965_140799"/>
<feBlend mode="normal" in="SourceGraphic" in2="effect1_backgroundBlur_965_140799" result="shape"/>
</filter>
<linearGradient id="paint0_linear_965_140799" x1="55.1729" y1="1.83008" x2="171.477" y2="186.427" gradientUnits="userSpaceOnUse">
<stop stop-color="#000714"/>
<stop offset="1" stop-color="#000714" stop-opacity="0.25"/>
</linearGradient>
<linearGradient id="paint1_linear_965_140799" x1="53.9346" y1="0.52002" x2="173.023" y2="188.001" gradientUnits="userSpaceOnUse">
<stop stop-color="#4264A8" stop-opacity="0.1"/>
<stop offset="1" stop-color="#4264A8"/>
</linearGradient>
<linearGradient id="paint2_linear_965_140799" x1="73.6689" y1="160.81" x2="86.837" y2="246.324" gradientUnits="userSpaceOnUse">
<stop stop-color="#000714"/>
<stop offset="1" stop-color="#000714" stop-opacity="0.25"/>
</linearGradient>
<linearGradient id="paint3_linear_965_140799" x1="72.4307" y1="159.48" x2="87.0754" y2="249.945" gradientUnits="userSpaceOnUse">
<stop stop-color="#4264A8" stop-opacity="0.1"/>
<stop offset="1" stop-color="#4264A8"/>
</linearGradient>
<linearGradient id="paint4_linear_965_140799" x1="274.951" y1="1.83008" x2="387.037" y2="67.0372" gradientUnits="userSpaceOnUse">
<stop stop-color="#000714"/>
<stop offset="1" stop-color="#000714" stop-opacity="0.25"/>
</linearGradient>
<linearGradient id="paint5_linear_965_140799" x1="273.713" y1="0.52002" x2="388.771" y2="68.2828" gradientUnits="userSpaceOnUse">
<stop stop-color="#4264A8" stop-opacity="0.1"/>
<stop offset="1" stop-color="#4264A8"/>
</linearGradient>
</defs>
</svg>
