<svg xmlns:xlink="http://www.w3.org/1999/xlink" xmlns="http://www.w3.org/2000/svg" width="529" height="371" fill="none">
    <style>
        <![CDATA[.B{fill:#4264a8}.C{fill:#fff}.D{fill:#000714}.E{fill-opacity:.75}.F{opacity:.3}.G{opacity:.15}.H{fill-opacity:.9}.I{opacity:.6}.J{fill-opacity:.6}.K{color-interpolation-filters:sRGB}.L{flood-opacity:0}]]></style>
    <g filter="url(#c)">
        <mask id="A" maskUnits="userSpaceOnUse" x="231" y="17" width="9" height="13">
            <path d="M231.515 17.58l3.27 2.07c3.17 2.01 5.04 5.88 4.54 10.32l-3.27-2.07c.5-4.44-1.37-8.3-4.54-10.32z"
                  class="C"/>
        </mask>
        <g mask="url(#A)" class="B">
            <path d="M231.515 17.58l3.27 2.07c3.17 2.01 5.04 5.88 4.54 10.32l-3.27-2.07c.5-4.44-1.37-8.3-4.54-10.32z"/>
        </g>
        <mask id="B" maskUnits="userSpaceOnUse" x="119" y="246" width="9" height="4">
            <path d="M122.915 248.31l-3.27-2.07c1.39.88 3.05 1.38 4.87 1.38l3.27 2.07c-1.82 0-3.48-.5-4.87-1.38z"
                  class="C"/>
        </mask>
        <g mask="url(#B)" class="D">
            <path d="M124.515 247.62l3.27 2.07c-1.82 0-3.48-.5-4.87-1.38l-3.27-2.07c1.39.88 3.05 1.38 4.87 1.38z"/>
        </g>
        <mask id="C" maskUnits="userSpaceOnUse" x="119" y="246" width="9" height="5">
            <path d="M122.515 248.939l-3.27-2.07c1.48.94 3.25 1.47 5.19 1.47l3.27 2.07c-1.94 0-3.71-.54-5.19-1.47z"
                  class="C"/>
        </mask>
        <g mask="url(#C)" class="B">
            <path d="M124.435 248.339l3.27 2.07c-1.94 0-3.71-.54-5.19-1.47l-3.27-2.07c1.48.94 3.25 1.47 5.19 1.47z"/>
        </g>
        <path d="M200.125 247.619l3.27 2.07h-75.61l-3.27-2.07h75.61z" class="D"/>
        <path d="M200.045 248.34l3.26 2.07h-75.6l-3.27-2.07h75.61z" class="B"/>
        <path d="M235.385 27.898l3.26 2.07-23.63 208.67-3.26-2.08 23.63-208.66z" class="D"/>
        <mask id="D" maskUnits="userSpaceOnUse" x="200" y="245" width="10" height="5">
            <path d="M209.195 247.939c-1.74 1.11-3.74 1.75-5.8 1.75l-3.27-2.07c2.06 0 4.06-.64 5.8-1.75l3.27 2.07z"
                  class="C"/>
        </mask>
        <g mask="url(#D)" class="D">
            <use xlink:href="#s"/>
        </g>
        <path d="M236.055 27.898l3.27 2.07-23.63 208.67-3.27-2.08 23.63-208.66z" class="B"/>
        <mask id="E" maskUnits="userSpaceOnUse" x="205" y="236" width="11" height="12">
            <path d="M209.195 247.94l-3.27-2.07c3.09-1.97 5.38-5.4 5.82-9.3l3.27 2.07c-.44 3.9-2.73 7.34-5.82 9.3z"
                  class="C"/>
        </mask>
        <g mask="url(#E)" class="D">
            <use xlink:href="#s" y="0.002"/>
        </g>
        <path d="M226.345 16.109c6.09 0 10.45 5.29 9.72 11.79l-23.63 208.67c-.74 6.49-6.29 11.78-12.39 11.78h-75.61c-6.1 0-10.46-5.29-9.73-11.78l23.64-208.67c.74-6.5 6.29-11.79 12.4-11.79h75.61-.01zm-14.59 220.45l23.63-208.67c.69-6.11-3.4-11.06-9.12-11.06h-75.61c-5.73 0-10.94 4.95-11.63 11.06l-23.63 208.67c-.69 6.1 3.39 11.06 9.12 11.06h75.61c5.73 0 10.94-4.96 11.63-11.06z"
              class="B"/>
        <path d="M226.254 16.84c5.73 0 9.82 4.95 9.12 11.06l-23.63 208.67c-.69 6.1-5.9 11.06-11.63 11.06h-75.6c-5.73 0-9.81-4.96-9.12-11.06l23.63-208.67c.69-6.11 5.89-11.06 11.63-11.06h75.61-.01z"
              fill="url(#f)"/>
        <mask id="F" maskUnits="userSpaceOnUse" x="200" y="236" width="16" height="15">
            <path d="M212.425 236.559l3.27 2.07c-.74 6.49-6.29 11.78-12.39 11.78l-3.27-2.07c6.09 0 11.65-5.29 12.39-11.78z"
                  class="C"/>
        </mask>
        <g mask="url(#F)" class="B">
            <path d="M212.425 236.559l3.27 2.07c-.74 6.49-6.29 11.78-12.39 11.78l-3.27-2.07c6.09 0 11.65-5.29 12.39-11.78z"/>
        </g>
    </g>
    <g filter="url(#d)">
        <mask id="G" maskUnits="userSpaceOnUse" x="235" y="246" width="8" height="5">
            <path d="M238.385 248.82l-3.27-2.07c1.26.8 2.76 1.25 4.41 1.25l3.27 2.07c-1.65 0-3.16-.45-4.41-1.25z"
                  class="C"/>
        </mask>
        <g mask="url(#G)" class="D">
            <path d="M239.535 248l3.27 2.07c-1.65 0-3.16-.45-4.41-1.25l-3.27-2.07c1.26.8 2.76 1.25 4.41 1.25z"/>
        </g>
        <mask id="H" maskUnits="userSpaceOnUse" x="234" y="247" width="9" height="4">
            <path d="M237.995 249.449l-3.27-2.07c1.35.86 2.96 1.34 4.73 1.34l3.27 2.07a8.81 8.81 0 0 1-4.73-1.34z"
                  class="C"/>
        </mask>
        <g mask="url(#H)" class="B">
            <path d="M239.455 248.719l3.27 2.07a8.81 8.81 0 0 1-4.73-1.34l-3.27-2.07c1.35.86 2.96 1.34 4.73 1.34z"/>
        </g>
        <mask id="I" maskUnits="userSpaceOnUse" x="491" y="170" width="7" height="5">
            <path d="M495.165 172.58a8.02 8.02 0 0 1 1.9 1.68l-3.27-2.07a8.02 8.02 0 0 0-1.9-1.68l3.27 2.07z"
                  class="C"/>
        </mask>
        <g mask="url(#I)" class="D">
            <use xlink:href="#t"/>
        </g>
        <mask id="J" maskUnits="userSpaceOnUse" x="493" y="172" width="7" height="10">
            <path d="M497.065 174.259c1.5 1.81 2.27 4.32 1.95 7.08l-3.27-2.07c.31-2.76-.46-5.27-1.95-7.08l3.27 2.07z"
                  class="C"/>
        </mask>
        <g mask="url(#J)" class="D">
            <use xlink:href="#t" x="0.001"/>
        </g>
        <mask id="K" maskUnits="userSpaceOnUse" x="492" y="169" width="8" height="13">
            <path d="M492.295 169.879l3.27 2.07c2.89 1.83 4.59 5.36 4.14 9.39l-3.27-2.07c.46-4.04-1.24-7.56-4.14-9.39z"
                  class="C"/>
        </mask>
        <g mask="url(#K)" class="B">
            <path d="M492.295 169.879l3.27 2.07c2.89 1.83 4.59 5.36 4.14 9.39l-3.27-2.07c.46-4.04-1.24-7.56-4.14-9.39z"/>
        </g>
        <path d="M478.565 248l3.27 2.07h-239.04l-3.26-2.07h239.03z" class="D"/>
        <path d="M478.485 248.719l3.27 2.07h-239.04l-3.26-2.07h239.03z" class="B"/>
        <path d="M495.754 179.27l3.271 2.07-6.65 58.72-3.271-2.07 6.65-58.72z" class="D"/>
        <path d="M496.435 179.27l3.26 2.07-6.65 58.72-3.26-2.07 6.65-58.72z" class="B"/>
        <path d="M487.485 169.26c5.2 0 8.9 4.49 8.27 10.01l-6.65 58.71c-.63 5.53-5.34 10.01-10.54 10.01h-239.03c-5.2 0-8.89-4.49-8.26-10.01l6.65-58.71c.63-5.53 5.33-10.01 10.53-10.01h239.03z"
              fill="url(#g)"/>
        <mask id="L" maskUnits="userSpaceOnUse" x="478" y="237" width="15" height="14">
            <path d="M489.104 237.99l3.27 2.07c-.63 5.53-5.34 10.01-10.54 10.01l-3.27-2.07c5.2 0 9.91-4.49 10.54-10.01z"
                  class="C"/>
        </mask>
        <g mask="url(#L)" class="D">
            <path d="M489.104 237.99l3.27 2.07c-.63 5.53-5.34 10.01-10.54 10.01l-3.27-2.07c5.2 0 9.91-4.49 10.54-10.01z"/>
        </g>
        <mask id="M" maskUnits="userSpaceOnUse" x="478" y="237" width="16" height="14">
            <path d="M489.785 237.99l3.27 2.07c-.67 5.92-5.73 10.74-11.3 10.74l-3.27-2.07c5.56 0 10.63-4.82 11.3-10.74z"
                  class="C"/>
        </mask>
        <g mask="url(#M)" class="B">
            <path d="M489.785 237.99l3.27 2.07c-.67 5.92-5.73 10.74-11.3 10.74l-3.27-2.07c5.56 0 10.63-4.82 11.3-10.74z"/>
        </g>
        <path d="M487.565 168.529c5.56 0 9.54 4.82 8.87 10.74l-6.65 58.71c-.67 5.92-5.73 10.74-11.3 10.74h-239.03c-5.55 0-9.54-4.82-8.87-10.74l6.65-58.71c.67-5.92 5.74-10.74 11.3-10.74h239.03zm1.54 69.45l6.65-58.71c.63-5.53-3.07-10.01-8.27-10.01h-239.03c-5.2 0-9.9 4.49-10.53 10.01l-6.65 58.71c-.63 5.53 3.07 10.01 8.26 10.01h239.03c5.2 0 9.91-4.49 10.54-10.01z"
              class="B"/>
    </g>
    <g filter="url(#e)">
        <mask id="N" maskUnits="userSpaceOnUse" x="248" y="147" width="11" height="5">
            <path d="M251.815 149.82l-3.27-2.07c1.8 1.14 3.95 1.79 6.31 1.79l3.27 2.07c-2.36 0-4.51-.65-6.31-1.79z"
                  class="C"/>
        </mask>
        <g mask="url(#N)" class="D">
            <path d="M254.855 149.54l3.27 2.07c-2.36 0-4.51-.65-6.31-1.79l-3.27-2.07c1.8 1.14 3.95 1.79 6.31 1.79z"/>
        </g>
        <mask id="O" maskUnits="userSpaceOnUse" x="248" y="148" width="11" height="5">
            <path d="M251.425 150.451l-3.27-2.07c1.89 1.2 4.14 1.88 6.61 1.88l3.27 2.07c-2.47 0-4.73-.68-6.61-1.88z"
                  class="C"/>
        </mask>
        <g mask="url(#O)" class="B">
            <path d="M254.775 150.261l3.27 2.07c-2.47 0-4.73-.68-6.61-1.88l-3.27-2.07c1.89 1.2 4.14 1.88 6.61 1.88z"/>
        </g>
        <mask id="P" maskUnits="userSpaceOnUse" x="507" y="17" width="10" height="17">
            <path d="M507.795 17.861l3.27 2.07c4.05 2.57 6.43 7.5 5.79 13.16l-3.27-2.07c.64-5.66-1.74-10.59-5.79-13.16z"
                  class="C"/>
        </mask>
        <g mask="url(#P)" class="B">
            <path d="M507.795 17.861l3.27 2.07c4.05 2.57 6.43 7.5 5.79 13.16l-3.27-2.07c.64-5.66-1.74-10.59-5.79-13.16z"/>
        </g>
        <path d="M486.065 149.541l3.26 2.07h-231.2l-3.27-2.07h231.21z" class="D"/>
        <path d="M485.975 150.26l3.27 2.07h-231.2l-3.27-2.07h231.2z" class="B"/>
        <path d="M512.915 31.02l3.27 2.07-11.8 104.2-3.27-2.07 11.8-104.2z" class="D"/>
        <path d="M513.595 31.01l3.26 2.08-11.8 104.2-3.26-2.07 11.8-104.21z" class="B"/>
        <path d="M501.105 16.699c7.41 0 12.71 6.42 11.81 14.32l-11.8 104.21c-.9 7.91-7.64 14.32-15.06 14.32h-231.2c-7.42 0-12.71-6.41-11.81-14.32l11.8-104.21c.89-7.9 7.63-14.32 15.06-14.32h231.2z"
              fill="url(#h)"/>
        <mask id="Q" maskUnits="userSpaceOnUse" x="486" y="135" width="19" height="17">
            <path d="M501.115 135.221l3.27 2.07c-.9 7.91-7.64 14.32-15.06 14.32l-3.27-2.07c7.41 0 14.16-6.41 15.06-14.32z"
                  class="C"/>
        </mask>
        <g mask="url(#Q)" class="D">
            <path d="M501.115 135.221l3.27 2.07c-.9 7.91-7.64 14.32-15.06 14.32l-3.27-2.07c7.41 0 14.16-6.41 15.06-14.32z"/>
        </g>
        <mask id="R" maskUnits="userSpaceOnUse" x="485" y="135" width="21" height="18">
            <path d="M501.795 135.221l3.27 2.07c-.94 8.29-8.03 15.04-15.81 15.04l-3.27-2.07c7.78 0 14.88-6.75 15.81-15.04z"
                  class="C"/>
        </mask>
        <g mask="url(#R)" class="B">
            <path d="M501.795 135.221l3.27 2.07c-.94 8.29-8.03 15.04-15.81 15.04l-3.27-2.07c7.78 0 14.88-6.75 15.81-15.04z"/>
        </g>
        <path d="M501.185 15.981c7.78 0 13.35 6.75 12.41 15.04l-11.8 104.209c-.94 8.29-8.03 15.04-15.81 15.04h-231.2c-7.78 0-13.35-6.75-12.41-15.04l11.8-104.209c.94-8.29 8.03-15.04 15.81-15.04h231.2zm-.07 119.249l11.8-104.209c.89-7.9-4.4-14.32-11.81-14.32h-231.2c-7.42 0-14.16 6.42-15.06 14.32l-11.8 104.209c-.9 7.91 4.39 14.32 11.81 14.32h231.2c7.41 0 14.16-6.41 15.06-14.32z"
              class="B"/>
    </g>
    <mask id="S" maskUnits="userSpaceOnUse" x="262" y="0" width="172" height="131">
        <path d="M262.385 130.74L277.095.84h156.49l-14.71 129.9h-156.49z" class="C"/>
    </mask>
    <g mask="url(#S)">
        <path d="M426.735 1.801h-143.01c-3.22 0-6.15 2.78-6.54 6.22l-12.93 114.22c-.47 4.16 2.32 7.54 6.23 7.54h141.76c3.22 0 6.15-2.78 6.54-6.22l13.08-115.54c.39-3.43-1.91-6.22-5.13-6.22z"
              class="D H"/>
        <path d="M270.475 129.78c-3.91 0-6.7-3.37-6.23-7.54l12.93-114.22c.39-3.43 3.31-6.22 6.54-6.22h143.01c3.22 0 5.52 2.78 5.13 6.22l-13.08 115.54c-.39 3.43-3.31 6.22-6.54 6.22h-141.76zM426.845.84h-143.01c-3.71 0-7.1 3.22-7.55 7.18l-12.93 114.22c-.53 4.69 2.62 8.5 7.02 8.5h141.76c3.72 0 7.1-3.22 7.55-7.18l13.08-115.54c.45-3.96-2.2-7.18-5.92-7.18z"
              fill="url(#i)" class="E"/>
    </g>
    <mask id="T" maskUnits="userSpaceOnUse" x="434" y="0" width="64" height="131">
        <path d="M434.695 130.74L449.405.84h48.2l-14.71 129.9h-48.2z" class="C"/>
    </mask>
    <g mask="url(#T)">
        <path d="M489.565 1.801h-33.16c-3.43 0-6.53 2.96-6.95 6.61l-7.67 67.72c-.41 3.65 2.03 6.61 5.45 6.61h33.16c3.43 0 6.53-2.96 6.95-6.61l7.67-67.72c.41-3.65-2.03-6.61-5.45-6.61z"
              class="D H"/>
        <path d="M447.235 82.74c-3.43 0-5.86-2.96-5.45-6.61l7.67-67.72c.41-3.65 3.52-6.61 6.95-6.61h33.16c3.43 0 5.86 2.96 5.45 6.61l-7.67 67.72c-.41 3.65-3.52 6.61-6.95 6.61h-33.16zm42.43-81.9h-33.16c-3.92 0-7.49 3.39-7.96 7.57l-7.67 67.72c-.47 4.18 2.33 7.57 6.25 7.57h33.16c3.92 0 7.49-3.39 7.96-7.57l7.67-67.72c.48-4.18-2.32-7.57-6.25-7.57z"
              fill="url(#j)" class="E"/>
        <path d="M480.165 97.539h-34.38c-3.08 0-5.89 2.66-6.26 5.95l-2.3 20.33c-.37 3.29 1.83 5.95 4.91 5.95h34.38c3.09 0 5.89-2.66 6.26-5.95l2.3-20.33c.37-3.29-1.82-5.95-4.91-5.95z"
              class="D H"/>
        <path d="M442.135 129.78c-3.08 0-5.29-2.66-4.91-5.95l2.3-20.33c.37-3.29 3.18-5.95 6.26-5.95h34.38c3.09 0 5.29 2.66 4.91 5.95l-2.3 20.33c-.37 3.29-3.17 5.95-6.26 5.95h-34.38zm38.14-33.21h-34.38c-3.58 0-6.84 3.1-7.28 6.92l-2.3 20.33c-.43 3.82 2.13 6.92 5.71 6.92h34.38c3.58 0 6.84-3.1 7.28-6.92l2.3-20.33c.43-3.82-2.13-6.92-5.71-6.92z"
              fill="url(#k)" class="E"/>
    </g>
    <mask id="U" maskUnits="userSpaceOnUse" x="453" y="12" width="30" height="59">
        <path d="M453.705 70.499l6.58-58.12h21.75l-6.58 58.12h-21.75z" class="C"/>
    </mask>
    <g mask="url(#U)">
        <path d="M474.604 22.179c-.47 0-.92.27-1.2.73-.14.23-.22.45-.28.7h1.92.51l.21-.08v-.1c.03-.13.02-.24 0-.36-.1-.52-.51-.89-1.03-.89h-.05-.08zm-8.15-2.22h-.02l-.45 1.24-.58 1.43a16.37 16.37 0 0 1-.55 1.35h2.31l-.13-.7-.15-.83-.16-.89-.15-.86-.12-.76m7.87 8.56h-.11c-.69 0-1.26-.12-1.71-.34-.42-.21-.77-.52-1.04-.92-.24-.37-.41-.8-.49-1.26-.07-.46-.08-.93-.03-1.42a5.58 5.58 0 0 1 .4-1.53c.2-.49.48-.93.83-1.33.35-.38.75-.7 1.2-.91.45-.23.96-.3 1.54-.3h.06a2.93 2.93 0 0 1 1.31.3c.36.17.65.43.87.77a3.11 3.11 0 0 1 .42 1.1c.07.39.08.78.04 1.18l-.09.62c-.05.18-.07.32-.09.41l-.14.12c-.06 0-.16 0-.3.02-.15.03-.32.03-.53.03s-.43-.04-.66-.04h-2.88c0 .3.06.6.19.86s.34.46.59.58c.32.16.69.24 1.08.24h.05c.32-.02.64-.04.96-.11a3.09 3.09 0 0 0 .83-.22c.01-.01.03-.02.03-.02.02 0 .03.03.02.09l-.17 1.48-.03.11-.07.07c-.3.13-.61.23-.94.29-.4.08-.79.12-1.19.12m-13.05-.2c-.11 0-.12-.05-.09-.17l3.93-8.91.12-.3a4.4 4.4 0 0 0 .13-.63l.09-.1h2.35l.11.08 2.19 9.9c.01.1-.02.15-.11.15h-1.89l-.14-.1-.48-2.31h-3.37l-.94 2.28-.19.13h-1.7m16.9-15.93h-14.05c-2.13 0-4.06 1.83-4.31 4.1l-1.63 14.4c-.26 2.27 1.26 4.1 3.39 4.1h14.05c2.13 0 4.06-1.83 4.31-4.1l1.63-14.4c.26-2.27-1.26-4.1-3.39-4.1zm-14.87 43.171l-.72.02-.37 3.25.35.02h.48c.35 0 .72-.06 1.06-.17.3-.09.57-.27.8-.51.22-.24.34-.57.39-.99.06-.3.02-.61-.1-.86a1.26 1.26 0 0 0-.58-.56c-.29-.12-.61-.19-.94-.19h-.11-.27m7.12 1.63c.32-.34.68-.62 1.07-.83.45-.25.94-.37 1.42-.37l.12.1v.03l-.22 1.89c0 .08-.06.1-.16.1h-.11a3.97 3.97 0 0 0-1.67.37c-.19.09-.37.2-.51.36l-.56 4.92c-.01.1-.06.14-.14.14h-1.78-.06l-.04-.03-.03-.04v-.04l.6-5.39.07-.73.06-.75c.03-.23.03-.43.04-.66l.02-.07.05-.03h1.62c.09 0 .16.07.16.16.05.29.06.58.01.89m-10.65 6.7l-.09-.13 1.13-9.94.1-.1h.51l.69-.03.79-.02h.82c.74 0 1.35.09 1.83.3.44.17.82.43 1.13.79.25.3.44.69.54 1.1.09.41.12.83.07 1.26-.09.83-.36 1.51-.78 2.06a3.71 3.71 0 0 1-1.59 1.17c-.65.24-1.33.33-2.08.33h-.46l-.38-.02-.35 3.09v.05l-.04.04-.04.03-.05.02h-1.75zm14.44-15.98h-14.05c-1.02 0-2.05.43-2.85 1.2s-1.34 1.82-1.46 2.9l-1.63 14.4c-.26 2.27 1.26 4.1 3.39 4.1h14.05c2.13 0 4.06-1.83 4.31-4.1l1.63-14.4c.26-2.27-1.26-4.1-3.39-4.1z"
              fill="#99f"/>
    </g>
    <mask id="V" maskUnits="userSpaceOnUse" x="246" y="178" width="235" height="62">
        <path d="M246.465 239.731l6.9-60.92h227.32l-6.9 60.92h-227.32z" class="C"/>
    </mask>
    <g mask="url(#V)">
        <path d="M277.154 184.861h-20.86c-1.5 0-2.86 1.3-3.05 2.9l-.63 5.6c-.18 1.61.89 2.9 2.39 2.9h20.86c1.51 0 2.87-1.3 3.05-2.9l.63-5.6c.18-1.6-.89-2.9-2.4-2.9"
              class="B F"/>
        <path d="M351.245 184.861h-60.65c-1.79 0-3.43 1.56-3.65 3.48l-.51 4.46c-.22 1.91 1.07 3.47 2.86 3.47h60.65l1.29-11.41m12.63 0h-11.73l-1.29 11.41h11.73c1.79 0 3.43-1.56 3.65-3.47l.51-4.46c.22-1.92-1.07-3.48-2.86-3.48"
              class="B I"/>
        <use xlink:href="#u" class="B F"/>
        <path d="M419.824 184.861h-23.94c-1.53 0-2.91 1.32-3.1 2.95l-.62 5.51c-.18 1.63.91 2.95 2.43 2.95h23.94c1.53 0 2.91-1.32 3.09-2.95l.62-5.51c.18-1.63-.9-2.95-2.42-2.95zm57.01 0h-42.27c-1.75 0-3.34 1.51-3.55 3.38l-.53 4.65c-.21 1.86 1.04 3.37 2.78 3.37h42.27c1.75 0 3.34-1.51 3.55-3.37l.53-4.65c.21-1.87-1.04-3.38-2.78-3.38z"
              class="B F"/>
        <path d="M284.685 222.131h-32.45c-1.59 0-3.03 1.37-3.22 3.06l-.6 5.29c-.19 1.69.93 3.06 2.52 3.06h32.45c1.58 0 3.03-1.37 3.22-3.06l.6-5.29c.19-1.69-.94-3.06-2.52-3.06z"
              class="D J"/>
        <path d="M250.945 233.54c-1.59 0-2.72-1.37-2.52-3.06l.6-5.29c.19-1.69 1.63-3.06 3.22-3.06h32.45c1.58 0 2.72 1.37 2.52 3.06l-.6 5.29c-.19 1.69-1.64 3.06-3.22 3.06h-32.45zm33.82-12.13h-32.45c-1.96 0-3.75 1.7-3.98 3.78l-.6 5.29c-.24 2.09 1.17 3.78 3.13 3.78h32.45c1.96 0 3.74-1.7 3.98-3.78l.6-5.29c.24-2.09-1.16-3.78-3.12-3.78"
              fill="url(#l)" class="E F"/>
        <use xlink:href="#u" x="-78.51" y="37.27" class="D J"/>
        <path d="M297.244 233.54c-1.36 0-2.33-1.17-2.17-2.63l.7-6.15c.16-1.45 1.4-2.63 2.76-2.63h5.7c1.36 0 2.33 1.17 2.17 2.63l-.7 6.15c-.16 1.45-1.4 2.63-2.76 2.63h-5.7zm7.07-12.13h-5.7c-1.74 0-3.31 1.5-3.52 3.35l-.7 6.15c-.21 1.85 1.02 3.35 2.76 3.35h5.7c1.73 0 3.31-1.5 3.52-3.35l.7-6.15c.21-1.84-1.03-3.35-2.76-3.35z"
              fill="url(#m)" class="E F"/>
        <path d="M326.155 222.131h-10.02c-1.4 0-2.68 1.22-2.85 2.72l-.68 5.96c-.17 1.5.83 2.72 2.24 2.72h10.02c1.4 0 2.68-1.22 2.85-2.72l.68-5.96c.17-1.5-.83-2.72-2.24-2.72z"
              class="D J"/>
        <path d="M314.855 233.54c-1.4 0-2.41-1.22-2.24-2.72l.68-5.96c.17-1.5 1.45-2.72 2.85-2.72h10.02c1.4 0 2.41 1.22 2.24 2.72l-.68 5.96c-.17 1.5-1.45 2.72-2.85 2.72h-10.02zm11.39-12.13h-10.02c-1.78 0-3.4 1.54-3.62 3.44l-.68 5.96c-.22 1.9 1.06 3.44 2.84 3.44h10.02c1.78 0 3.4-1.54 3.61-3.44l.68-5.96c.22-1.9-1.05-3.44-2.83-3.44z"
              fill="url(#n)" class="E F"/>
        <path d="M347.024 222.131h-8.59c-1.62 0-3.1 1.41-3.3 3.15l-.58 5.11c-.2 1.74.97 3.15 2.59 3.15h8.59l1.29-11.41zm31.02 0h-30.11l-1.29 11.41h30.11c1.63 0 3.111-1.41 3.311-3.15l.579-5.11c.2-1.74-.97-3.15-2.6-3.15z"
              class="D H"/>
        <path d="M347.105 221.41h-8.59c-2 0-3.83 1.73-4.07 3.87l-.58 5.11c-.24 2.14 1.19 3.87 3.19 3.87h8.59l.08-.72h-8.59c-1.62 0-2.79-1.41-2.59-3.15l.58-5.11c.2-1.74 1.68-3.15 3.3-3.15h8.59l.08-.72m31.02 0h-30.11l-.08.72h30.11c1.63 0 2.79 1.41 2.6 3.15l-.58 5.11c-.2 1.74-1.68 3.15-3.31 3.15h-30.11l-.08.72h30.11c2.01 0 3.83-1.73 4.07-3.87l.58-5.11c.24-2.14-1.19-3.87-3.19-3.87"
              fill="url(#o)" class="E"/>
        <path d="M431.835 222.131h-39.98c-1.63 0-3.11 1.41-3.31 3.15l-.58 5.11c-.2 1.74.97 3.15 2.6 3.15h39.98c1.63 0 3.11-1.41 3.31-3.15l.58-5.11c.2-1.74-.97-3.15-2.6-3.15z"
              class="D J"/>
        <path d="M390.565 233.54c-1.63 0-2.79-1.41-2.6-3.15l.58-5.11c.2-1.74 1.68-3.15 3.31-3.15h39.98c1.63 0 2.79 1.41 2.6 3.15l-.58 5.11c-.2 1.74-1.68 3.15-3.31 3.15h-39.98zm41.36-12.13h-39.98c-2 0-3.83 1.74-4.07 3.87l-.58 5.11c-.24 2.13 1.19 3.87 3.19 3.87h39.98c2.01 0 3.83-1.74 4.07-3.87l.58-5.11c.24-2.13-1.19-3.87-3.19-3.87z"
              fill="url(#p)" class="E F"/>
        <path d="M253.285 214.901c-1.71 0-2.93-1.48-2.73-3.3l.54-4.8c.21-1.83 1.76-3.3 3.47-3.3h54.76c1.71 0 2.93 1.48 2.73 3.3l-.54 4.8c-.21 1.83-1.76 3.3-3.47 3.3h-54.76zm56.16-12.37h-54.76c-2.21 0-4.22 1.91-4.49 4.27l-.54 4.8c-.27 2.36 1.31 4.27 3.52 4.27h54.76c2.21 0 4.22-1.91 4.49-4.27l.54-4.8c.27-2.36-1.31-4.27-3.52-4.27z"
              class="B G"/>
        <path d="M349.245 202.531h-25.06c-2.19 0-4.18 1.9-4.44 4.22l-.55 4.89c-.26 2.33 1.3 4.22 3.49 4.22h25.06l.11-.96h-25.06c-1.69 0-2.89-1.46-2.69-3.26l.55-4.89c.2-1.8 1.74-3.26 3.43-3.26h25.06l.11-.96m25.66 0h-24.76l-.11.96h24.76c1.69 0 2.89 1.46 2.69 3.26l-.55 4.89c-.2 1.8-1.74 3.26-3.43 3.26h-24.76l-.11.96h24.76c2.19 0 4.18-1.9 4.44-4.22l.55-4.89c.26-2.33-1.3-4.22-3.49-4.22"
              class="B I"/>
        <path d="M387.065 214.901c-1.73 0-2.97-1.5-2.76-3.35l.53-4.71c.21-1.84 1.79-3.35 3.52-3.35h59.13c1.73 0 2.96 1.5 2.75 3.35l-.53 4.71c-.21 1.85-1.78 3.35-3.51 3.35h-59.13zm60.53-12.37h-59.13c-2.23 0-4.27 1.94-4.53 4.31l-.53 4.71c-.27 2.38 1.33 4.31 3.56 4.31h59.13c2.23 0 4.26-1.93 4.53-4.31l.53-4.71c.27-2.37-1.32-4.31-3.55-4.31m11.809 12.37c-1.71 0-2.93-1.48-2.73-3.3l.54-4.8c.21-1.82 1.76-3.3 3.47-3.3h12.77c1.71 0 2.93 1.49 2.73 3.3l-.54 4.8c-.21 1.83-1.76 3.3-3.47 3.3h-12.77zm14.17-12.37h-12.77c-2.21 0-4.22 1.92-4.49 4.27l-.54 4.8c-.27 2.36 1.31 4.27 3.52 4.27h12.77c2.21 0 4.22-1.91 4.49-4.27l.54-4.8c.27-2.35-1.31-4.27-3.52-4.27z"
              class="B G"/>
        <path d="M352.375 178.811c-.24 0-.47.22-.5.49l-.63 5.56-1.29 11.41-.71 6.27-.11.96-1.29 11.41-.11.96-.63 5.55-.08.72-1.29 11.41-.08.72-.57 4.99c-.03.26.15.48.39.48s.48-.22.51-.48l.57-4.99.08-.72 1.29-11.41.08-.72.63-5.55.11-.96 1.29-11.41.11-.96.71-6.27 1.29-11.41.63-5.56c.03-.27-.15-.49-.4-.49z"
              class="B"/>
    </g>
    <mask id="W" maskUnits="userSpaceOnUse" x="105" y="1" width="120" height="156">
        <path d="M105.705 156.659l17.59-155.37h101.56l-17.6 155.37h-101.55z" class="C"/>
    </mask>
    <g mask="url(#W)">
        <path d="M214.374 2.25h-80.83c-5.22 0-9.96 4.51-10.59 10.08l-15.09 133.28c-.63 5.56 3.09 10.08 8.31 10.08h80.83c5.23 0 9.97-4.51 10.6-10.08l15.09-133.28c.63-5.56-3.09-10.08-8.32-10.08z"
              class="D H"/>
        <path d="M116.175 155.679c-5.22 0-8.94-4.51-8.31-10.08l15.09-133.27c.63-5.56 5.37-10.08 10.59-10.08h80.83c5.23 0 8.95 4.51 8.32 10.08l-15.09 133.28c-.63 5.56-5.37 10.08-10.6 10.08h-80.83m98.31-154.4h-80.83c-5.72 0-10.92 4.96-11.61 11.04l-15.09 133.28c-.69 6.09 3.39 11.05 9.11 11.05h80.83c5.72 0 10.93-4.96 11.62-11.05l15.08-133.28c.69-6.09-3.4-11.04-9.12-11.04"
              fill="url(#q)" class="E"/>
    </g>
    <mask id="X" maskUnits="userSpaceOnUse" x="97" y="170" width="110" height="63">
        <path d="M97.175 232.069l6.97-61.54h101.9l-6.97 61.54h-101.9z" class="C"/>
    </mask>
    <g mask="url(#X)">
        <path d="M197.585 171.49h-85.2c-4.11 0-7.85 3.56-8.35 7.94l-4.95 43.74c-.5 4.38 2.44 7.94 6.55 7.94h85.2c4.11 0 7.85-3.56 8.35-7.94l4.95-43.74c.5-4.38-2.44-7.94-6.55-7.94z"
              class="D H"/>
        <path d="M105.635 231.1c-4.11 0-7.04-3.56-6.55-7.94l4.95-43.74c.5-4.38 4.23-7.94 8.35-7.94h85.2c4.11 0 7.04 3.56 6.55 7.94l-4.95 43.74c-.5 4.38-4.23 7.94-8.35 7.94h-85.2zm92.06-60.58h-85.2c-4.61 0-8.8 3.99-9.36 8.9l-4.95 43.74c-.56 4.9 2.74 8.9 7.34 8.9h85.2c4.61 0 8.81-4 9.36-8.9l4.95-43.74c.56-4.91-2.74-8.9-7.34-8.9z"
              fill="url(#r)" class="E"/>
    </g>
    <mask id="Y" maskUnits="userSpaceOnUse" x="117" y="12" width="96" height="134">
        <path d="M117.045 145.879l15.1-133.34h80.78l-15.1 133.34h-80.78z" class="C"/>
    </mask>
    <g mask="url(#Y)" class="B">
        <path d="M207.485 12.539h-69.9c-3 0-5.73 2.6-6.1 5.8v.13c-.38 3.21 1.77 5.8 4.77 5.8h69.9c3 0 5.73-2.59 6.1-5.8v-.13c.38-3.2-1.77-5.8-4.77-5.8z"
              class="F"/>
        <use xlink:href="#v" class="I"/>
        <path d="M200.225 70.44h-23.96c-3.39 0-6.47 2.93-6.88 6.55l-2.29 20.21c-.41 3.62 2.01 6.549 5.4 6.549h23.96c3.39 0 6.47-2.93 6.88-6.549l2.29-20.21c.41-3.62-2.01-6.55-5.4-6.55z"
              class="G"/>
        <use xlink:href="#v" x="-4.75" y="41.939" class="G"/>
        <path d="M195.475 112.379h-23.96c-3.39 0-6.47 2.93-6.88 6.55l-2.29 20.21c-.41 3.62 2.01 6.55 5.4 6.55h23.96c3.39 0 6.47-2.93 6.88-6.55l2.29-20.21c.41-3.62-2.01-6.55-5.4-6.55zm-10.28-65.33h-52.2c-2.63 0-5.01 2.27-5.33 5.07l-.18 1.59c-.32 2.8 1.55 5.07 4.18 5.07h52.2c2.63 0 5.01-2.27 5.33-5.07l.18-1.59c.32-2.8-1.55-5.07-4.18-5.07z"
              class="G"/>
    </g>
    <mask id="Z" maskUnits="userSpaceOnUse" x="107" y="179" width="90" height="53">
        <path d="M107.135 231.24l5.89-52h82.98l-5.89 52h-82.98z" class="C"/>
    </mask>
    <g mask="url(#Z)" class="B">
        <path d="M143.905 179.24h-24.54c-3.5 0-6.69 3.03-7.11 6.76l-2.38 21.06c-.42 3.74 2.08 6.76 5.58 6.76h24.54c3.51 0 6.69-3.03 7.11-6.76l2.38-21.06c.42-3.73-2.07-6.76-5.58-6.76z"
              class="G"/>
        <path d="M189.685 179.43h-24.61c-3.48 0-6.65 3.01-7.07 6.73l-2.35 20.75c-.42 3.71 2.06 6.72 5.54 6.72h24.61c3.48 0 6.65-3.01 7.07-6.72l2.35-20.75c.42-3.72-2.06-6.73-5.54-6.73z"
              class="F"/>
        <path d="M139.025 222.301h-24.54c-3.51 0-6.68 3.03-7.1 6.76l-.25 2.17h37.22l.25-2.17c.42-3.73-2.07-6.76-5.58-6.76zm45.78.189h-24.61c-3.48 0-6.65 3.02-7.07 6.73l-.23 2.02h37.22l.23-2.02c.42-3.71-2.06-6.73-5.54-6.73z"
              class="G"/>
    </g>
    <mask id="a" maskUnits="userSpaceOnUse" x="273" y="11" width="150" height="107">
        <path d="M273.835 117.561l12-106h136.29l-12 106.001h-136.29z" class="C"/>
    </mask>
    <g mask="url(#a)" class="B">
        <path d="M414.435 11.561h-120.91c-4.25 0-8.11 3.68-8.62 8.21l-7.4 65.3c-.51 4.53 2.51 8.2 6.76 8.2h120.91c4.25 0 8.11-3.67 8.62-8.2l7.4-65.3c.51-4.53-2.51-8.21-6.76-8.21z"
              class="F"/>
        <path d="M361.115 105.83h-80.45c-3.04 0-5.8 2.63-6.17 5.87s1.8 5.86 4.84 5.86h80.45c3.04 0 5.8-2.63 6.17-5.86s-1.8-5.87-4.84-5.87z"
              class="G"/>
        <path d="M405.955 105.83h-21.17c-3.03 0-5.79 2.63-6.16 5.87s1.8 5.86 4.83 5.86h21.17c3.03 0 5.8-2.63 6.16-5.86s-1.8-5.87-4.83-5.87z"
              class="I"/>
    </g>
    <mask id="b" maskUnits="userSpaceOnUse" x="443" y="106" width="35" height="16">
        <path d="M443.095 121.581l1.71-15.11h32.72l-1.71 15.11h-32.72z" class="C"/>
    </mask>
    <g mask="url(#b)" class="B">
        <path d="M455.415 106.65c-.3 0-.63.08-.94.26l-9.41 5.42c-1.32.76-1.53 2.64-.38 3.4l8.18 5.41c.28.18.58.27.89.27.96 0 1.93-.82 2.06-1.96l1.23-10.82c.13-1.15-.66-1.97-1.62-1.97m11.01-.189c-.84 0-1.7.72-1.81 1.72l-1.32 11.66c-.11 1 .58 1.72 1.42 1.72.27 0 .55-.07.83-.24l10.13-5.82c1.15-.66 1.34-2.32.34-2.98l-8.81-5.82c-.24-.16-.51-.24-.78-.24z"
              class="I"/>
    </g>
    <defs>
        <filter id="c" x=".625" y="6.109" width="250.78" height="387.301" filterUnits="userSpaceOnUse" class="K">
            <feFlood result="A" class="L"/>
            <feColorMatrix in="SourceAlpha" values="0 0 0 0 0 0 0 0 0 0 0 0 0 0 0 0 0 0 127 0"/>
            <feOffset dx="-4" dy="6"/>
            <feGaussianBlur stdDeviation="8"/>
            <feColorMatrix values="0 0 0 0 0.258824 0 0 0 0 0.392157 0 0 0 0 0.658824 0 0 0 0.1 0"/>
            <feBlend in2="A" result="C"/>
            <feColorMatrix in="SourceAlpha" values="0 0 0 0 0 0 0 0 0 0 0 0 0 0 0 0 0 0 127 0"/>
            <feOffset dx="-17" dy="24"/>
            <feGaussianBlur stdDeviation="14.5"/>
            <feColorMatrix values="0 0 0 0 0.258824 0 0 0 0 0.392157 0 0 0 0 0.658824 0 0 0 0.09 0"/>
            <feBlend in2="C" result="D"/>
            <feColorMatrix in="SourceAlpha" values="0 0 0 0 0 0 0 0 0 0 0 0 0 0 0 0 0 0 127 0"/>
            <feOffset dx="-38" dy="54"/>
            <feGaussianBlur stdDeviation="20"/>
            <feColorMatrix values="0 0 0 0 0.258824 0 0 0 0 0.392157 0 0 0 0 0.658824 0 0 0 0.05 0"/>
            <feBlend in2="D" result="E"/>
            <feColorMatrix in="SourceAlpha" values="0 0 0 0 0 0 0 0 0 0 0 0 0 0 0 0 0 0 127 0"/>
            <feOffset dx="-67" dy="96"/>
            <feGaussianBlur stdDeviation="23.5"/>
            <feColorMatrix values="0 0 0 0 0.258824 0 0 0 0 0.392157 0 0 0 0 0.658824 0 0 0 0.01 0"/>
            <feBlend in2="E"/>
            <feBlend in="SourceGraphic"/>
        </filter>
        <filter id="d" x="116.511" y="158.529" width="395.266" height="235.271" filterUnits="userSpaceOnUse" class="K">
            <feFlood result="A" class="L"/>
            <feColorMatrix in="SourceAlpha" values="0 0 0 0 0 0 0 0 0 0 0 0 0 0 0 0 0 0 127 0"/>
            <feOffset dx="-4" dy="6"/>
            <feGaussianBlur stdDeviation="8"/>
            <feColorMatrix values="0 0 0 0 0.258824 0 0 0 0 0.392157 0 0 0 0 0.658824 0 0 0 0.1 0"/>
            <feBlend in2="A" result="C"/>
            <feColorMatrix in="SourceAlpha" values="0 0 0 0 0 0 0 0 0 0 0 0 0 0 0 0 0 0 127 0"/>
            <feOffset dx="-17" dy="24"/>
            <feGaussianBlur stdDeviation="14.5"/>
            <feColorMatrix values="0 0 0 0 0.258824 0 0 0 0 0.392157 0 0 0 0 0.658824 0 0 0 0.09 0"/>
            <feBlend in2="C" result="D"/>
            <feColorMatrix in="SourceAlpha" values="0 0 0 0 0 0 0 0 0 0 0 0 0 0 0 0 0 0 127 0"/>
            <feOffset dx="-38" dy="54"/>
            <feGaussianBlur stdDeviation="20"/>
            <feColorMatrix values="0 0 0 0 0.258824 0 0 0 0 0.392157 0 0 0 0 0.658824 0 0 0 0.05 0"/>
            <feBlend in2="D" result="E"/>
            <feColorMatrix in="SourceAlpha" values="0 0 0 0 0 0 0 0 0 0 0 0 0 0 0 0 0 0 127 0"/>
            <feOffset dx="-67" dy="96"/>
            <feGaussianBlur stdDeviation="23.5"/>
            <feColorMatrix values="0 0 0 0 0.258824 0 0 0 0 0.392157 0 0 0 0 0.658824 0 0 0 0.01 0"/>
            <feBlend in2="E"/>
            <feBlend in="SourceGraphic"/>
        </filter>
        <filter id="e" x="128.271" y="5.98" width="400.687" height="289.35" filterUnits="userSpaceOnUse" class="K">
            <feFlood result="A" class="L"/>
            <feColorMatrix in="SourceAlpha" values="0 0 0 0 0 0 0 0 0 0 0 0 0 0 0 0 0 0 127 0"/>
            <feOffset dx="-4" dy="6"/>
            <feGaussianBlur stdDeviation="8"/>
            <feColorMatrix values="0 0 0 0 0.258824 0 0 0 0 0.392157 0 0 0 0 0.658824 0 0 0 0.1 0"/>
            <feBlend in2="A" result="C"/>
            <feColorMatrix in="SourceAlpha" values="0 0 0 0 0 0 0 0 0 0 0 0 0 0 0 0 0 0 127 0"/>
            <feOffset dx="-17" dy="24"/>
            <feGaussianBlur stdDeviation="14.5"/>
            <feColorMatrix values="0 0 0 0 0.258824 0 0 0 0 0.392157 0 0 0 0 0.658824 0 0 0 0.09 0"/>
            <feBlend in2="C" result="D"/>
            <feColorMatrix in="SourceAlpha" values="0 0 0 0 0 0 0 0 0 0 0 0 0 0 0 0 0 0 127 0"/>
            <feOffset dx="-38" dy="54"/>
            <feGaussianBlur stdDeviation="20"/>
            <feColorMatrix values="0 0 0 0 0.258824 0 0 0 0 0.392157 0 0 0 0 0.658824 0 0 0 0.05 0"/>
            <feBlend in2="D" result="E"/>
            <feColorMatrix in="SourceAlpha" values="0 0 0 0 0 0 0 0 0 0 0 0 0 0 0 0 0 0 127 0"/>
            <feOffset dx="-67" dy="96"/>
            <feGaussianBlur stdDeviation="23.5"/>
            <feColorMatrix values="0 0 0 0 0.258824 0 0 0 0 0.392157 0 0 0 0 0.658824 0 0 0 0.01 0"/>
            <feBlend in2="E"/>
            <feBlend in="SourceGraphic"/>
        </filter>
        <linearGradient id="f" x1="235.554" y1="16.84" x2="46.488" y2="114.84" xlink:href="#w">
            <stop stop-color="#000714" stop-opacity=".25"/>
            <stop offset="1" stop-color="#000714"/>
        </linearGradient>
        <linearGradient id="g" x1="496.048" y1="169.26" x2="452.748" y2="314.183" xlink:href="#w">
            <stop stop-color="#000714" stop-opacity=".25"/>
            <stop offset="1" stop-color="#000714"/>
        </linearGradient>
        <linearGradient id="h" x1="513.243" y1="16.699" x2="407.467" y2="230.822" xlink:href="#w">
            <stop stop-color="#000714" stop-opacity=".25"/>
            <stop offset="1" stop-color="#000714"/>
        </linearGradient>
        <linearGradient id="i" x1="263.296" y1="130.74" x2="389.182" y2="-32.847" xlink:href="#w">
            <stop stop-color="#4264a8" stop-opacity=".25"/>
            <stop offset="1" stop-color="#4264a8"/>
        </linearGradient>
        <linearGradient id="j" x1="440.823" y1="83.7" x2="517.327" y2="32.999" xlink:href="#w">
            <stop stop-color="#4264a8" stop-opacity=".25"/>
            <stop offset="1" stop-color="#4264a8"/>
        </linearGradient>
        <linearGradient id="k" x1="436.268" y1="130.74" x2="468.287" y2="84.305" xlink:href="#w">
            <stop stop-color="#4264a8" stop-opacity=".25"/>
            <stop offset="1" stop-color="#4264a8"/>
        </linearGradient>
        <linearGradient id="l" x1="247.708" y1="234.26" x2="255.204" y2="210.9" xlink:href="#w">
            <stop stop-color="#4264a8" stop-opacity=".25"/>
            <stop offset="1" stop-color="#4264a8"/>
        </linearGradient>
        <linearGradient id="m" x1="294.371" y1="234.26" x2="307.252" y2="221.556" xlink:href="#w">
            <stop stop-color="#4264a8" stop-opacity=".25"/>
            <stop offset="1" stop-color="#4264a8"/>
        </linearGradient>
        <linearGradient id="n" x1="311.9" y1="234.25" x2="324.256" y2="217.768" xlink:href="#w">
            <stop stop-color="#4264a8" stop-opacity=".25"/>
            <stop offset="1" stop-color="#4264a8"/>
        </linearGradient>
        <linearGradient id="o" x1="333.838" y1="234.26" x2="340.357" y2="210.266" xlink:href="#w">
            <stop stop-color="#4264a8" stop-opacity=".25"/>
            <stop offset="1" stop-color="#4264a8"/>
        </linearGradient>
        <linearGradient id="p" x1="387.269" y1="234.26" x2="393.743" y2="210.24" xlink:href="#w">
            <stop stop-color="#4264a8" stop-opacity=".25"/>
            <stop offset="1" stop-color="#4264a8"/>
        </linearGradient>
        <linearGradient id="q" x1="106.878" y1="156.659" x2="256.33" y2="44.789" xlink:href="#w">
            <stop stop-color="#4264a8" stop-opacity=".25"/>
            <stop offset="1" stop-color="#4264a8"/>
        </linearGradient>
        <linearGradient id="r" x1="98.123" y1="232.06" x2="151.571" y2="139.544" xlink:href="#w">
            <stop stop-color="#4264a8" stop-opacity=".25"/>
            <stop offset="1" stop-color="#4264a8"/>
        </linearGradient>
        <path id="s"
              d="M211.755 236.559l3.27 2.07c-.69 6.1-5.9 11.06-11.63 11.06l-3.27-2.07c5.73 0 10.94-4.96 11.63-11.06z"/>
        <path id="t"
              d="M491.904 170.51l3.27 2.07c2.7 1.71 4.28 4.99 3.85 8.76l-3.27-2.07c.43-3.77-1.16-7.05-3.85-8.76z"/>
        <path id="u"
              d="M382.755 184.861h-5.7c-1.36 0-2.6 1.17-2.76 2.63l-.7 6.15c-.16 1.45.8 2.63 2.17 2.63h5.7c1.36 0 2.6-1.17 2.76-2.63l.7-6.15c.16-1.45-.8-2.63-2.17-2.63z"/>
        <path id="v"
              d="M155.685 70.26h-23.89c-3.42 0-6.52 2.95-6.93 6.58l-2.32 20.51c-.41 3.64 2.02 6.59 5.44 6.59h23.89c3.42 0 6.52-2.95 6.93-6.59l2.32-20.51c.41-3.63-2.02-6.58-5.44-6.58z"/>
        <linearGradient id="w" gradientUnits="userSpaceOnUse"/>
    </defs>
</svg>