<svg xmlns:xlink="http://www.w3.org/1999/xlink" xmlns="http://www.w3.org/2000/svg" width="318" height="201" fill="none">
    <style>
        <![CDATA[.B{fill:#B4C4E4}.C{fill:#ffffff}.D{fill:#fff}.E{opacity:.3}.F{fill-opacity:.75}.G{opacity:.15}.H{color-interpolation-filters:sRGB}.I{flood-opacity:0}]]></style>
    <g filter="url(#Z)">
        <mask id="A" maskUnits="userSpaceOnUse" x="63" y="167" width="6" height="2">
            <path d="M68.41 167.457l-3.68.56-.25.03-.25.02h-.25-.25l3.68-.56h.25.25c.08 0 .17-.01.25-.02l.24-.03h.01z"
                  class="D"/>
        </mask>
        <g mask="url(#A)" class="B">
            <path d="M63.73 168.068l3.68-.56h.04.04.04.04l-3.68.56h-.04-.04-.04-.04z"/>
            <path d="M63.88 168.077l3.68-.56h.21l.21-.01.21-.02.21-.03-3.68.56-.21.03-.21.02c-.07.01-.14 0-.21.01s-.14 0-.22 0"/>
        </g>
        <mask id="B" maskUnits="userSpaceOnUse" x="63" y="33" width="6" height="1">
            <path d="M64.73 33.187l3.68.56-.24-.03-.25-.02h-.25-.25l-3.68-.56h.25.25c.08 0 .17.01.25.02l.25.03h-.01z"
                  class="D"/>
        </mask>
        <g mask="url(#B)" class="B">
            <path d="M64.73 33.187l3.68.56-.24-.03-.25-.02h-.25-.25l-3.68-.56h.25.25c.08 0 .17.01.25.02l.25.03"/>
        </g>
        <mask id="C" maskUnits="userSpaceOnUse" x="64" y="160" width="10" height="9">
            <path d="M68.41 167.456l-3.68.56a5.43 5.43 0 0 0 1.99-.73 5.92 5.92 0 0 0 1.6-1.44c.45-.58.81-1.26 1.06-2a7.5 7.5 0 0 0 .39-2.4l3.65-.51c0 .84-.14 1.64-.38 2.38s-.61 1.4-1.06 1.98-.98 1.06-1.59 1.43a5.38 5.38 0 0 1-1.98.73z"
                  class="D"/>
        </mask>
        <g mask="url(#C)" class="C">
            <path d="M69.77 161.446l3.65-.51v.06.06.06.06l-3.65.51v-.06-.06-.06-.06z"/>
            <path d="M69.76 161.666l3.65-.51c0 .1 0 .21-.02.31s-.02.2-.03.3l-.04.3-.05.3-3.65.52.05-.3.04-.3.03-.31.02-.31z"/>
            <path d="M69.63 162.885l3.65-.52-.06.27-.07.26c-.03.08-.05.17-.07.26s-.05.17-.08.25l-3.65.53.08-.25.07-.26.07-.26.06-.27"/>
            <path d="M69.35 163.936l3.65-.53-.09.25-.1.25c-.03.08-.07.16-.11.24l-.12.24-3.65.53.12-.24.11-.24.1-.25.1-.26"/>
            <path d="M68.92 164.915l3.65-.53-.15.27-.16.26c-.05.09-.11.17-.17.25l-.19.24-3.65.54.19-.24.18-.25c.06-.08.11-.17.17-.26s.1-.18.15-.27"/>
            <path d="M68.23 165.946l3.65-.54a5.76 5.76 0 0 1-.73.75 6.03 6.03 0 0 1-.83.6c-.29.17-.6.32-.92.44s-.65.2-1 .25l-3.68.56a4.74 4.74 0 0 0 1-.26c.32-.12.63-.27.93-.44a5 5 0 0 0 .84-.61c.26-.23.51-.48.73-.76"/>
        </g>
        <path d="M69.77 39.756l3.64.5v120.68l-3.64.51V39.756z" class="C"/>
        <mask id="D" maskUnits="userSpaceOnUse" x="64" y="33" width="10" height="8">
            <path d="M64.73 33.186l3.68.56a5.38 5.38 0 0 1 1.98.73c.61.37 1.14.85 1.59 1.43a6.85 6.85 0 0 1 1.06 1.98c.25.73.38 1.54.38 2.38l-3.65-.51a7.5 7.5 0 0 0-.39-2.4c-.25-.74-.61-1.42-1.06-2a5.92 5.92 0 0 0-1.6-1.44 5.43 5.43 0 0 0-1.99-.73z"
                  class="D"/>
        </mask>
        <g mask="url(#D)" class="C">
            <path d="M64.73 33.186l3.68.55-3.67-.55h-.01z"/>
            <path d="M64.74 33.186l3.68.56.24.04c.08.01.16.03.24.05l.23.06.23.07-3.67-.56-.23-.08c-.08-.03-.16-.04-.24-.06l-.24-.05-.24-.04"/>
            <path d="M65.68 33.416l3.67.56.23.09c.08.03.15.06.22.1s.15.07.22.11l.21.11-3.66-.55-.21-.12c-.07-.04-.15-.07-.22-.11s-.15-.07-.22-.1l-.23-.09"/>
            <path d="M66.57 33.826l3.66.55.24.14.23.15c.08.05.15.11.22.16s.14.12.21.18l-3.66-.55-.22-.18-.22-.17c-.07-.06-.15-.1-.23-.15l-.24-.14"/>
            <path d="M67.47 34.465l3.66.55.3.27a2.68 2.68 0 0 1 .28.3l.26.32.24.34-3.65-.54-.24-.34a4.03 4.03 0 0 0-.26-.32l-.28-.3-.3-.28"/>
            <path d="M68.56 35.695l3.65.54.34.57.29.61a4.54 4.54 0 0 1 .23.65l.17.68-3.65-.52-.18-.69c-.07-.23-.15-.44-.24-.65l-.29-.61a4.85 4.85 0 0 0-.35-.57"/>
            <path d="M69.61 38.215l3.65.52c.03.12.05.25.07.37l.05.38.03.39c.01.13 0 .26 0 .39l-3.65-.51v-.4c0-.14-.02-.26-.03-.39s-.03-.26-.05-.38l-.07-.37z"/>
        </g>
        <path d="M63.73 33.127a5.26 5.26 0 0 1 2.34.45c.72.32 1.37.8 1.92 1.4s.99 1.32 1.3 2.13.48 1.7.48 2.65v121.69c0 .95-.17 1.84-.48 2.65s-.75 1.53-1.3 2.13-1.2 1.08-1.92 1.4a5.26 5.26 0 0 1-2.34.45l-39.93-1.53c-.79-.03-1.55-.25-2.23-.61s-1.3-.88-1.82-1.5a7.18 7.18 0 0 1-1.23-2.16 7.69 7.69 0 0 1-.45-2.61V41.537c0-.92.16-1.8.45-2.61a7.06 7.06 0 0 1 1.23-2.16c.52-.62 1.14-1.13 1.82-1.5a5.06 5.06 0 0 1 2.23-.61l39.93-1.53z"
              fill="url(#c)"/>
        <mask id="E" maskUnits="userSpaceOnUse" x="64" y="160" width="11" height="9">
            <path d="M68.52 168.165l-3.68.56a5.9 5.9 0 0 0 2.2-.81 6.55 6.55 0 0 0 1.77-1.6 7.68 7.68 0 0 0 1.18-2.21 8.18 8.18 0 0 0 .43-2.65l3.64-.51c0 .93-.15 1.82-.43 2.63s-.67 1.55-1.17 2.19-1.09 1.18-1.76 1.58a6.05 6.05 0 0 1-2.18.81v.01z"
                  class="D"/>
        </mask>
        <g mask="url(#E)" class="B">
            <path d="M70.419 161.465l3.64-.51v.06.06.06.06l-3.64.51v-.06-.06-.06-.06z"/>
            <path d="M70.42 161.715l3.64-.51c0 .11 0 .23-.02.34s-.02.22-.03.34l-.04.33c-.01.11-.03.22-.06.32l-3.64.52.06-.33c.02-.11.03-.22.04-.33l.03-.34.02-.34z"/>
            <path d="M70.27 163.055l3.64-.52-.06.29-.07.29c-.02.1-.05.19-.08.28l-.09.28-3.64.53.09-.28c.03-.09.06-.19.08-.29l.07-.29.06-.3"/>
            <path d="M69.96 164.206l3.64-.53c-.03.09-.07.19-.11.28l-.12.28-.12.27-.13.26-3.65.54.13-.26.13-.27.12-.28.11-.28"/>
            <path d="M69.48 165.306l3.65-.54c-.05.1-.11.2-.17.3l-.18.29c-.06.1-.13.19-.19.28s-.14.18-.21.27l-3.65.55.21-.27.2-.28c.07-.1.12-.19.18-.29l.17-.3"/>
            <path d="M68.72 166.445l3.65-.55c-.25.3-.52.58-.8.84s-.6.48-.92.67-.67.36-1.02.49-.72.22-1.1.28l-3.68.56c.38-.06.75-.15 1.11-.28s.7-.29 1.03-.49.64-.42.93-.68.56-.54.81-.84"/>
        </g>
        <path d="M70.42 39.727l3.64.51v120.72l-3.64.51V39.727z" class="B"/>
        <mask id="F" maskUnits="userSpaceOnUse" x="64" y="32" width="11" height="9">
            <path d="M64.85 32.467l3.68.56c.78.12 1.52.4 2.18.81a6.76 6.76 0 0 1 1.76 1.58c.5.64.9 1.38 1.17 2.19s.43 1.7.43 2.63l-3.64-.51a8.18 8.18 0 0 0-.43-2.65c-.28-.82-.68-1.57-1.18-2.21a6.72 6.72 0 0 0-1.77-1.6 5.9 5.9 0 0 0-2.2-.81v.01z"
                  class="D"/>
        </mask>
        <g mask="url(#F)" class="B">
            <path d="M64.85 32.467l3.68.56c.09.01.18.03.26.05l.26.06.26.07.25.08-3.67-.56-.25-.08-.26-.07-.26-.06-.27-.05z"/>
            <path d="M65.89 32.727l3.67.56.25.09a2.72 2.72 0 0 1 .25.11l.24.12.24.13-3.66-.56-.24-.13-.24-.12-.25-.11-.25-.1"/>
            <path d="M66.87 33.166l3.66.56.26.16.25.17.25.18c.08.06.16.13.24.2l-3.66-.55-.24-.2c-.08-.07-.16-.13-.25-.18s-.17-.12-.26-.17l-.26-.16"/>
            <path d="M67.88 33.877l3.66.55.33.3a3.26 3.26 0 0 1 .31.33l.29.35.27.37-3.65-.54-.27-.38a3.37 3.37 0 0 0-.29-.35l-.31-.33c-.1-.11-.22-.21-.33-.31"/>
            <path d="M69.09 35.246l3.65.54c.14.2.26.41.38.63s.22.44.32.67a8.58 8.58 0 0 1 .26.71c.08.24.14.5.19.75l-3.64-.52c-.05-.26-.12-.51-.19-.76s-.16-.49-.26-.72l-.32-.68c-.11-.22-.25-.43-.38-.63"/>
            <path d="M70.25 38.037l3.64.52c.03.13.05.27.07.41l.05.42.03.42.01.43-3.64-.51-.01-.44-.03-.43-.05-.42-.07-.41"/>
        </g>
        <path d="M63.73 32.396a5.66 5.66 0 0 1 2.59.5 6.45 6.45 0 0 1 2.13 1.55c.61.67 1.1 1.46 1.44 2.36s.53 1.89.53 2.93v121.74c0 1.05-.19 2.04-.53 2.93s-.83 1.69-1.44 2.36a6.45 6.45 0 0 1-2.13 1.55c-.8.36-1.67.53-2.59.5l-39.93-1.55c-.88-.03-1.71-.27-2.47-.68s-1.44-.97-2.01-1.66a8.03 8.03 0 0 1-1.36-2.39 8.54 8.54 0 0 1-.5-2.88v-118.1a8.54 8.54 0 0 1 .5-2.88c.32-.89.78-1.7 1.36-2.39s1.26-1.26 2.01-1.66 1.59-.64 2.47-.68l39.93-1.55zm6.03 129.04V39.756c0-.95-.17-1.84-.48-2.65s-.75-1.53-1.3-2.13-1.2-1.08-1.92-1.4a5.26 5.26 0 0 0-2.34-.45l-39.93 1.53c-.79.03-1.55.25-2.23.61s-1.3.88-1.82 1.5a7.18 7.18 0 0 0-1.23 2.16 7.69 7.69 0 0 0-.45 2.61v118.13c0 .92.16 1.8.45 2.61a7.06 7.06 0 0 0 1.23 2.16c.52.62 1.14 1.13 1.82 1.5a5.06 5.06 0 0 0 2.23.61l39.93 1.53a5.26 5.26 0 0 0 2.34-.45c.72-.32 1.37-.8 1.92-1.4s.99-1.32 1.3-2.13.48-1.7.48-2.65"
              class="B"/>
    </g>
    <mask id="G" maskUnits="userSpaceOnUse" x="4" y="20" width="61" height="142">
        <path d="M4.35 159.266V23.056l59.96-2.3v140.8l-59.96-2.29z" class="D"/>
    </mask>
    <g mask="url(#G)">
        <path d="M57.73 22.025l-46.96 1.77a4.95 4.95 0 0 0-2.08.55 5.93 5.93 0 0 0-1.7 1.34c-.49.55-.87 1.22-1.14 1.94s-.42 1.51-.42 2.34v78.89c0 .82.15 1.61.42 2.33s.66 1.36 1.14 1.91a5.36 5.36 0 0 0 1.7 1.3 4.9 4.9 0 0 0 2.08.5l46.96.62a5.25 5.25 0 0 0 2.2-.45c.68-.3 1.29-.74 1.8-1.29s.93-1.21 1.21-1.94.45-1.54.45-2.39v-81.47c0-.85-.16-1.66-.45-2.38s-.7-1.38-1.21-1.91-1.12-.97-1.8-1.25a5.22 5.22 0 0 0-2.2-.4"
              fill="url(#d)"/>
        <path d="M10.76 114.885c-.74 0-1.44-.19-2.08-.5a5.47 5.47 0 0 1-1.7-1.3c-.49-.55-.87-1.19-1.14-1.91a6.6 6.6 0 0 1-.42-2.33v-78.88a6.74 6.74 0 0 1 .42-2.34c.27-.73.66-1.38 1.14-1.94s1.06-1.02 1.7-1.34a5.1 5.1 0 0 1 2.08-.55l46.96-1.77a5.07 5.07 0 0 1 2.2.4 5.35 5.35 0 0 1 1.8 1.25c.51.54.93 1.19 1.21 1.91s.45 1.53.45 2.38v81.45c0 .85-.16 1.66-.45 2.39s-.7 1.39-1.21 1.94-1.12.99-1.8 1.29a5.25 5.25 0 0 1-2.2.45l-46.96-.62m46.97-93.86l-46.96 1.8c-.86.03-1.68.26-2.42.64s-1.41.92-1.98 1.57-1.02 1.42-1.33 2.26a7.86 7.86 0 0 0-.49 2.72v78.85a7.58 7.58 0 0 0 .49 2.71 7.34 7.34 0 0 0 1.33 2.23c.56.64 1.23 1.16 1.98 1.52s1.56.57 2.42.58l46.96.65c.9.01 1.77-.18 2.56-.53s1.5-.87 2.1-1.51 1.08-1.41 1.42-2.27.52-1.8.52-2.79v-81.49a7.68 7.68 0 0 0-.52-2.78 6.8 6.8 0 0 0-1.42-2.23c-.6-.63-1.31-1.13-2.1-1.46a6.08 6.08 0 0 0-2.56-.47z"
              fill="url(#e)" class="F"/>
        <path d="M58.92 123.996l-49.5-.89a3.8 3.8 0 0 0-1.64.34c-.51.23-.96.56-1.34.98a4.63 4.63 0 0 0-.9 1.48 5.16 5.16 0 0 0-.33 1.82v25.88c0 .65.12 1.27.33 1.84s.52 1.09.9 1.53.83.8 1.34 1.06a3.88 3.88 0 0 0 1.64.43l49.5 1.86a4.01 4.01 0 0 0 1.73-.32c.53-.23 1.01-.56 1.42-.99s.73-.94.96-1.51a5.03 5.03 0 0 0 .35-1.88v-26.73a5.12 5.12 0 0 0-.35-1.89c-.23-.58-.55-1.11-.96-1.56s-.88-.81-1.42-1.06-1.12-.4-1.73-.41"
              fill="url(#f)"/>
        <path d="M9.43 158.465a3.88 3.88 0 0 1-1.64-.43c-.51-.26-.96-.62-1.34-1.06s-.69-.96-.9-1.53-.33-1.19-.33-1.84v-25.88a5.16 5.16 0 0 1 .33-1.82 4.63 4.63 0 0 1 .9-1.48c.38-.42.83-.75 1.34-.98a3.8 3.8 0 0 1 1.64-.34l49.5.89a4.23 4.23 0 0 1 1.73.41c.53.25 1.01.62 1.42 1.06s.73.97.96 1.56a5.16 5.16 0 0 1 .35 1.89v26.73a5.07 5.07 0 0 1-.35 1.88c-.23.58-.55 1.08-.96 1.51s-.88.76-1.42.99a4.04 4.04 0 0 1-1.73.32l-49.5-1.86m49.5-35.5l-49.5-.86c-.7-.01-1.37.14-1.98.41s-1.16.69-1.62 1.19-.83 1.11-1.09 1.79a6.14 6.14 0 0 0-.4 2.2v25.87a6.25 6.25 0 0 0 .4 2.22c.26.68.63 1.32 1.09 1.85a5.4 5.4 0 0 0 1.62 1.28c.61.31 1.28.5 1.98.52l49.5 1.89c.74.03 1.45-.11 2.09-.38a5.07 5.07 0 0 0 1.71-1.19 5.9 5.9 0 0 0 1.16-1.82c.28-.69.42-1.46.42-2.27v-26.74a6.38 6.38 0 0 0-.42-2.29c-.27-.7-.67-1.35-1.16-1.89s-1.07-.98-1.71-1.29-1.35-.49-2.09-.5"
              fill="url(#g)" class="F"/>
    </g>
    <mask id="H" maskUnits="userSpaceOnUse" x="9" y="29" width="50" height="133">
        <path d="M9.97 159.396V30.846l48.61-1.75v132.04l-48.61-1.74z" class="D"/>
    </mask>
    <g mask="url(#H)" class="B">
        <path d="M55.34 29.206l-40.65 1.46c-.43.02-.83.13-1.2.31s-.7.45-.98.77-.5.7-.66 1.12a3.76 3.76 0 0 0-.24 1.35v.08a3.79 3.79 0 0 0 .24 1.33 3.26 3.26 0 0 0 .66 1.07 3.12 3.12 0 0 0 .98.71c.37.17.78.25 1.2.23l40.65-1.3c.45-.01.87-.13 1.26-.32a3.3 3.3 0 0 0 1.03-.79 3.78 3.78 0 0 0 .69-1.14 3.93 3.93 0 0 0 .25-1.38v-.08c0-.49-.09-.95-.25-1.37s-.4-.79-.69-1.1-.64-.55-1.03-.72-.81-.25-1.26-.23z"
              class="E"/>
        <path opacity=".6"
              d="M28.82 64.766l-13.7.23c-.49 0-.95.13-1.37.33s-.8.5-1.11.86a4.17 4.17 0 0 0-.75 1.26c-.18.48-.28.99-.28 1.53v12.19a4.23 4.23 0 0 0 .28 1.52c.18.47.43.89.75 1.24s.7.64 1.11.83a3.27 3.27 0 0 0 1.37.3l13.7-.08c.49 0 .96-.12 1.39-.32a3.62 3.62 0 0 0 1.14-.85c.33-.36.59-.79.77-1.26a4.34 4.34 0 0 0 .28-1.54v-12.33a4.3 4.3 0 0 0-.28-1.54 3.91 3.91 0 0 0-.77-1.25c-.33-.36-.71-.64-1.14-.83a3.27 3.27 0 0 0-1.39-.29z"/>
        <path d="M54.92 64.445l-14.14.24c-.5 0-.97.13-1.4.33a3.54 3.54 0 0 0-1.14.86c-.32.36-.59.79-.77 1.27a4.34 4.34 0 0 0-.28 1.54v12.18c0 .54.1 1.06.28 1.53a3.91 3.91 0 0 0 .77 1.25c.33.36.71.64 1.14.84s.9.31 1.4.3l14.14-.08a3.43 3.43 0 0 0 1.42-.32c.44-.2.83-.5 1.16-.86a3.92 3.92 0 0 0 .78-1.27 4.4 4.4 0 0 0 .29-1.55v-12.32a4.19 4.19 0 0 0-.29-1.55 3.89 3.89 0 0 0-.78-1.25 3.83 3.83 0 0 0-1.16-.84c-.43-.2-.92-.3-1.42-.29m-26.1 25.471l-13.7.04c-.49 0-.95.11-1.37.31s-.8.48-1.11.84-.57.77-.75 1.24a4.23 4.23 0 0 0-.28 1.52v12.19a4.19 4.19 0 0 0 .28 1.52c.18.46.43.89.75 1.25a3.62 3.62 0 0 0 1.11.85c.41.2.88.32 1.37.32l13.7.11c.49 0 .96-.1 1.39-.3s.81-.48 1.14-.84a3.91 3.91 0 0 0 .77-1.25 4.3 4.3 0 0 0 .28-1.54v-12.33a4.3 4.3 0 0 0-.28-1.54c-.18-.47-.44-.9-.77-1.25s-.71-.64-1.14-.84-.9-.31-1.39-.31m26.1.041l-14.14.04c-.5 0-.97.11-1.4.31a3.51 3.51 0 0 0-1.14.85c-.32.36-.59.78-.77 1.25s-.28.99-.28 1.53v12.18a4.3 4.3 0 0 0 .28 1.54c.18.47.44.9.77 1.26a3.62 3.62 0 0 0 1.14.85c.43.2.9.32 1.4.32l14.14.12c.5 0 .98-.1 1.42-.3a3.71 3.71 0 0 0 1.16-.84 3.77 3.77 0 0 0 .78-1.26 4.4 4.4 0 0 0 .29-1.55v-12.32a4.19 4.19 0 0 0-.29-1.55 4.1 4.1 0 0 0-.78-1.27 3.7 3.7 0 0 0-1.16-.85c-.43-.2-.92-.31-1.42-.31zm-10.44-39.48l-30.16.74c-.37 0-.73.1-1.05.26s-.61.39-.86.67-.44.61-.58.97-.21.76-.21 1.18v.94c0 .42.08.81.21 1.17s.33.68.58.95.54.48.86.63.68.22 1.05.22l30.16-.62c.39 0 .75-.1 1.09-.26s.64-.39.89-.68a3.32 3.32 0 0 0 .6-.99 3.41 3.41 0 0 0 .22-1.2v-.96c0-.42-.08-.83-.22-1.19s-.35-.69-.6-.96-.56-.49-.89-.64a2.47 2.47 0 0 0-1.09-.21m-16.87 78.368l-14.05-.26c-.5 0-.97.09-1.4.29a3.48 3.48 0 0 0-1.14.84c-.32.36-.59.79-.77 1.26s-.28 1-.28 1.55v12.5c0 .56.1 1.09.28 1.57s.44.93.77 1.3a3.75 3.75 0 0 0 1.14.89c.43.21.9.34 1.4.36l14.05.42c.5.02.99-.08 1.42-.28s.83-.48 1.16-.83a4.01 4.01 0 0 0 .79-1.27c.19-.48.29-1.01.29-1.57v-12.64a4.31 4.31 0 0 0-.29-1.58c-.19-.48-.45-.93-.79-1.31s-.73-.68-1.16-.89a3.42 3.42 0 0 0-1.42-.35z"
              class="G"/>
        <path d="M54.42 129.487l-14.5-.27c-.51 0-1 .09-1.44.29a3.63 3.63 0 0 0-1.17.85c-.33.36-.6.79-.79 1.27s-.29 1.01-.29 1.57v12.5c0 .56.1 1.09.29 1.58s.46.93.79 1.31.73.68 1.17.9a3.37 3.37 0 0 0 1.44.36l14.5.44c.52.02 1.01-.08 1.46-.28a3.68 3.68 0 0 0 1.19-.84c.34-.36.62-.79.81-1.28s.3-1.02.3-1.59v-12.65a4.42 4.42 0 0 0-.3-1.6c-.19-.49-.47-.94-.81-1.32a3.86 3.86 0 0 0-1.19-.9 3.45 3.45 0 0 0-1.46-.35"
              class="E"/>
        <path d="M27.6 154.675l-14.04-.46a3.13 3.13 0 0 0-1.4.27c-.43.19-.82.47-1.14.82a3.98 3.98 0 0 0-.77 1.25c-.18.47-.28 1-.28 1.55v1.29l21.3.77v-1.3a4.4 4.4 0 0 0-.29-1.59c-.19-.49-.45-.94-.79-1.32s-.73-.69-1.17-.91-.92-.35-1.43-.37m26.83 1.001l-14.51-.48a3.26 3.26 0 0 0-1.43.27 3.43 3.43 0 0 0-1.17.83c-.33.36-.6.78-.79 1.26s-.29 1.01-.29 1.57v1.22l21.94.79v-1.23a4.42 4.42 0 0 0-.3-1.6c-.19-.49-.47-.95-.81-1.33a4.09 4.09 0 0 0-1.19-.92c-.45-.23-.94-.35-1.46-.37"
              class="G"/>
    </g>
    <g filter="url(#a)">
        <mask id="I" maskUnits="userSpaceOnUse" x="88" y="120" width="5" height="1">
            <path d="M88.6 120.275l3.53-.17h.08.08.08.08l-3.52.17h-.08-.08-.08-.08-.01z" class="D"/>
        </mask>
        <g mask="url(#I)" class="B">
            <path d="M88.6 120.275l3.53-.17h.04.04.04.04l-3.52.17h-.04-.12"/>
            <path d="M88.77 120.275l3.52-.17h.04.04.04.04l-3.52.17h-.04-.04-.04-.04z"/>
        </g>
        <mask id="J" maskUnits="userSpaceOnUse" x="88" y="120" width="5" height="2">
            <path d="M88.63 121.025l3.53-.17h.07.07.07.07l-3.52.17h-.07-.07-.07-.07-.01z" class="D"/>
        </mask>
        <g mask="url(#J)" class="C">
            <path d="M88.63 121.025l3.53-.17h.04.04.04.04l-3.52.17h-.04-.12"/>
            <path d="M88.78 121.016l3.52-.17h.03.03.03.03l-3.52.17h-.03-.03-.03-.03z"/>
        </g>
        <path d="M88.91 120.265l3.53-.16 123.39 1.35-2.65.18-124.27-1.37z" class="B"/>
        <path d="M88.91 121.016l3.53-.17 123.39 1.4-2.65.19-124.27-1.42z" class="C"/>
        <mask id="K" maskUnits="userSpaceOnUse" x="214" y="165" width="8" height="8">
            <path d="M217.39 171.586l-2.64.64c.64-.16 1.25-.42 1.79-.78a5.98 5.98 0 0 0 1.42-1.33c.4-.52.72-1.12.94-1.76s.34-1.35.34-2.08l2.6-.59a6.31 6.31 0 0 1-.34 2.06 6.38 6.38 0 0 1-.93 1.75 5.71 5.71 0 0 1-1.41 1.32c-.54.36-1.14.62-1.77.78v-.01z"
                  class="D"/>
        </mask>
        <g mask="url(#K)" class="C">
            <path d="M219.24 166.266l2.6-.59v.05.05.05.05l-2.6.59v-.05-.05-.05-.05z"/>
            <path d="M219.24 166.477l2.6-.59c0 .1 0 .19-.02.28s-.02.19-.03.28l-.04.28-.05.27-2.61.6.05-.27.04-.28.03-.28.02-.29"/>
            <path d="M219.11 167.606l2.61-.6-.06.25a1.68 1.68 0 0 1-.07.24 2.17 2.17 0 0 0-.07.24c-.02.08-.05.16-.08.23l-2.61.61.08-.23.07-.24.07-.24.06-.25"/>
            <path d="M218.83 168.565l2.61-.61-.09.23-.1.23c-.03.08-.07.15-.11.22l-.12.22-2.61.62.12-.22c.04-.07.08-.15.11-.23s.07-.15.1-.23l.1-.24"/>
            <path d="M218.39 169.475l2.61-.62-.15.25-.16.24a1.3 1.3 0 0 1-.18.23c-.07.07-.12.15-.19.22l-2.62.63.19-.22.18-.23.17-.24c.06-.08.1-.17.15-.25"/>
            <path d="M217.71 170.425l2.62-.63a5.95 5.95 0 0 1-.62.61c-.22.19-.46.36-.7.51a6.21 6.21 0 0 1-.77.4c-.27.12-.55.2-.83.27l-2.64.64a4.87 4.87 0 0 0 .84-.28c.27-.12.53-.25.78-.4s.49-.32.71-.51.43-.39.63-.61"/>
        </g>
        <path d="M219.24 128.846l2.61-.25v37.08l-2.61.59v-37.42z" class="C"/>
        <path d="M213.179 122.436c.83 0 1.63.2 2.35.52s1.38.8 1.93 1.38 1 1.27 1.3 2.03a6.76 6.76 0 0 1 .48 2.48v37.42a6.37 6.37 0 0 1-.48 2.45c-.31.75-.75 1.41-1.3 1.97a5.74 5.74 0 0 1-1.93 1.29c-.73.3-1.52.44-2.35.41l-124.27-4.67a5.04 5.04 0 0 1-2.06-.54c-.64-.32-1.2-.78-1.68-1.33a6.24 6.24 0 0 1-1.13-1.92c-.27-.72-.41-1.5-.41-2.31v-34.77a6.6 6.6 0 0 1 .41-2.29c.26-.7.65-1.33 1.13-1.86s1.04-.95 1.68-1.24 1.33-.45 2.06-.44l124.27 1.42z"
              fill="url(#h)"/>
        <mask id="L" maskUnits="userSpaceOnUse" x="213" y="122" width="9" height="7">
            <path d="M213.18 122.436l2.65-.2a5.52 5.52 0 0 1 2.33.52 6.15 6.15 0 0 1 1.91 1.37c.54.58.99 1.26 1.29 2.01s.48 1.59.48 2.45l-2.6.25a6.6 6.6 0 0 0-.48-2.48c-.31-.77-.75-1.45-1.3-2.03a6.15 6.15 0 0 0-1.93-1.38c-.73-.33-1.52-.51-2.35-.52v.01z"
                  class="D"/>
        </mask>
        <g mask="url(#L)" class="C">
            <path d="M213.18 122.436l2.65-.2h.25c.08 0 .17.01.25.02l.25.03.25.04-2.64.2c-.08-.02-.16-.03-.25-.04l-.25-.03-.25-.02c-.08-.01-.17 0-.26 0z"/>
            <path d="M214.19 122.536l2.64-.2.24.05.24.06.23.07c.07.02.15.05.23.08l-2.64.2-.23-.08-.24-.07-.24-.06-.24-.05"/>
            <path d="M215.14 122.796l2.64-.2.23.09c.08.03.15.06.22.1s.15.07.22.11l.21.12-2.63.2-.22-.12-.22-.11c-.07-.04-.15-.07-.23-.1l-.23-.09"/>
            <path d="M216.03 123.216l2.63-.2.24.14.23.15c.08.05.15.11.22.16l.22.17-2.62.21a1.84 1.84 0 0 0-.22-.17c-.08-.05-.15-.11-.22-.16l-.23-.15-.24-.14"/>
            <path d="M216.939 123.856l2.62-.21.3.27.28.29.26.3.24.32-2.61.22-.25-.32-.26-.31-.28-.29c-.09-.09-.2-.18-.3-.27z"/>
            <path d="M218.04 125.046l2.61-.22c.12.17.24.35.34.54l.29.57a4.04 4.04 0 0 1 .23.61l.17.64-2.61.24c-.05-.22-.11-.43-.18-.64s-.15-.41-.24-.61l-.29-.58c-.1-.19-.22-.37-.35-.54"/>
            <path d="M219.09 127.416l2.61-.24a3.61 3.61 0 0 1 .07.35l.05.35.03.36c.01.12 0 .24 0 .36l-2.6.25v-.37c0-.13-.02-.24-.03-.36s-.03-.24-.05-.35l-.07-.35"/>
        </g>
        <mask id="M" maskUnits="userSpaceOnUse" x="214" y="165" width="9" height="8">
            <path d="M217.6 172.345l-2.64.65a6.58 6.58 0 0 0 2.01-.88 6.51 6.51 0 0 0 1.6-1.5c.45-.59.81-1.25 1.05-1.98s.38-1.51.38-2.33l2.6-.59a7.04 7.04 0 0 1-.38 2.31c-.25.72-.6 1.38-1.05 1.96s-.98 1.08-1.58 1.48-1.27.7-1.99.88z"
                  class="D"/>
        </mask>
        <g mask="url(#M)" class="B">
            <path d="M220 166.295l2.6-.59v.06.06.06.06l-2.6.59v-.06-.06-.06-.06z"/>
            <path d="M220 166.526l2.6-.59c0 .11 0 .21-.02.32s-.02.21-.03.32l-.04.31c-.01.1-.04.2-.06.31l-2.6.61.06-.31a3.77 3.77 0 0 0 .04-.31l.03-.32.02-.32"/>
            <path d="M219.85 167.796l2.6-.61-.06.28c-.02.1-.05.18-.07.27a2.76 2.76 0 0 1-.08.27l-.09.26-2.6.61.09-.26.08-.27.07-.27.06-.28z"/>
            <path d="M219.53 168.876l2.6-.61a2.03 2.03 0 0 1-.11.26l-.12.26c-.04.09-.08.17-.13.25l-.14.25-2.61.62.14-.25.13-.25.12-.26.11-.27"/>
            <path d="M219.04 169.905l2.61-.62-.17.28-.19.27-.2.26-.21.25-2.61.63.21-.25c.07-.08.13-.17.2-.26l.19-.27.17-.28"/>
            <path d="M218.27 170.976l2.61-.63a7.49 7.49 0 0 1-.7.68c-.25.21-.51.4-.79.57a5.46 5.46 0 0 1-.87.44l-.93.31-2.64.65c.32-.08.64-.18.94-.31a7.16 7.16 0 0 0 .87-.45c.28-.17.54-.36.79-.57a6.51 6.51 0 0 0 .7-.69"/>
        </g>
        <path d="M220 128.865l2.6-.26v37.1l-2.6.59v-37.43z" class="B"/>
        <mask id="N" maskUnits="userSpaceOnUse" x="213" y="121" width="10" height="8">
            <path d="M213.18 121.635l2.65-.19c.93.01 1.82.22 2.63.59a6.84 6.84 0 0 1 2.15 1.54c.61.65 1.11 1.42 1.45 2.27a7.41 7.41 0 0 1 .53 2.76l-2.6.25c0-.98-.19-1.92-.54-2.78s-.85-1.63-1.47-2.29-1.35-1.19-2.17-1.56a6.58 6.58 0 0 0-2.65-.59h.02z"
                  class="D"/>
        </mask>
        <g mask="url(#N)" class="B">
            <path d="M213.18 121.635l2.65-.19h.28c.09 0 .19.01.28.02l.28.03c.09.01.18.03.27.05l-2.64.19-.28-.05c-.1-.02-.19-.02-.28-.03l-.28-.02h-.29"/>
            <path d="M214.31 121.745l2.64-.19.27.06.27.07.26.08.26.09-2.63.19-.26-.09-.27-.08a2.68 2.68 0 0 0-.27-.07l-.27-.06z"/>
            <path d="M215.38 122.045l2.63-.19.26.1c.09.03.17.07.25.11l.25.12c.09.04.16.09.24.13l-2.63.2c-.08-.05-.16-.09-.24-.13l-.25-.12-.25-.11-.26-.1"/>
            <path d="M216.38 122.514l2.63-.2.27.16.26.17.25.18.24.19-2.62.2-.24-.2c-.08-.07-.17-.13-.25-.19s-.17-.12-.26-.17l-.27-.16"/>
            <path d="M217.41 123.225l2.62-.2.34.3.32.32c.11.11.2.23.3.34s.19.24.28.36l-2.61.22-.28-.37-.3-.35c-.1-.12-.21-.22-.32-.33s-.22-.21-.34-.3"/>
            <path d="M218.64 124.575l2.61-.22.39.61.33.65c.1.22.19.45.26.69l.2.72-2.6.24a5.44 5.44 0 0 0-.2-.72l-.27-.69-.33-.65a6.33 6.33 0 0 0-.39-.61"/>
            <path d="M219.83 127.256l2.6-.24.07.39.05.4.03.4.01.41-2.6.25-.01-.41-.03-.4-.05-.4-.08-.39"/>
        </g>
        <path d="M213.18 121.636a6.58 6.58 0 0 1 2.65.59c.82.37 1.55.9 2.17 1.56s1.12 1.43 1.47 2.29.54 1.8.54 2.78v37.43c0 .98-.19 1.91-.54 2.76s-.85 1.59-1.47 2.21-1.35 1.12-2.17 1.45-1.71.5-2.65.46l-124.27-4.72c-.82-.03-1.6-.25-2.31-.61s-1.35-.87-1.88-1.49a7.23 7.23 0 0 1-1.27-2.15 7.39 7.39 0 0 1-.46-2.59v-34.76c0-.91.17-1.78.46-2.57a6.34 6.34 0 0 1 1.27-2.09c.54-.59 1.17-1.08 1.88-1.4s1.49-.51 2.31-.5l124.27 1.37v-.02zm6.06 44.63v-37.42a6.6 6.6 0 0 0-.48-2.48c-.31-.77-.75-1.45-1.3-2.03a6.15 6.15 0 0 0-1.93-1.38c-.73-.33-1.52-.51-2.35-.52l-124.27-1.42c-.73 0-1.42.15-2.06.44s-1.2.72-1.68 1.24-.86 1.16-1.13 1.86-.41 1.48-.41 2.29v34.77a6.8 6.8 0 0 0 .41 2.31 6.16 6.16 0 0 0 1.13 1.92c.48.56 1.04 1 1.68 1.33a4.89 4.89 0 0 0 2.06.54l124.27 4.67a5.74 5.74 0 0 0 2.35-.41 5.69 5.69 0 0 0 1.93-1.29c.55-.56 1-1.22 1.3-1.97a6.6 6.6 0 0 0 .48-2.45z"
              class="B"/>
    </g>
    <mask id="O" maskUnits="userSpaceOnUse" x="90" y="126" width="119" height="40">
        <path d="M90.63 161.755l.62-35.64 117.61.86-.66 38.03-117.57-3.25z" class="D"/>
    </mask>
    <g mask="url(#O)">
        <path d="M104.98 129.856l-12.27-.11a1.38 1.38 0 0 0-.6.13c-.19.09-.35.21-.49.37s-.26.34-.34.55-.13.44-.13.68l-.06 3.16c0 .24.03.47.11.68s.18.4.32.56.3.29.48.38a1.47 1.47 0 0 0 .59.15l12.27.16c.21 0 .42-.04.61-.13s.36-.21.5-.37.26-.35.34-.55a1.87 1.87 0 0 0 .13-.68l.06-3.18c0-.24-.04-.48-.11-.69s-.19-.4-.32-.56a1.41 1.41 0 0 0-.49-.38 1.39 1.39 0 0 0-.6-.14"
              class="B G"/>
        <path d="M146.93 130.246l-34.44-.32c-.25 0-.49.05-.71.15s-.42.25-.58.43-.3.4-.4.65-.15.51-.16.79l-.05 2.63c0 .28.04.55.13.8a1.99 1.99 0 0 0 .38.65c.16.18.35.34.57.45a1.54 1.54 0 0 0 .7.17l34.44.45.12-6.85zm7.44.07l-6.76-.06-.12 6.86 6.76.09a1.7 1.7 0 0 0 .74-.16c.23-.11.44-.25.61-.44s.32-.41.42-.66.16-.52.16-.81l.05-2.69a2.21 2.21 0 0 0-.14-.82 2.25 2.25 0 0 0-.4-.67c-.17-.19-.37-.35-.6-.46a1.71 1.71 0 0 0-.74-.17"
              class="B E"/>
        <path d="M165.48 130.426l-3.37-.03a1.39 1.39 0 0 0-.57.12 1.54 1.54 0 0 0-.47.33 1.53 1.53 0 0 0-.32.5c-.08.19-.12.4-.12.62l-.07 3.72c0 .22.03.43.1.62s.17.36.3.51.28.27.45.35.36.13.56.13l3.37.04a1.39 1.39 0 0 0 .57-.12 1.32 1.32 0 0 0 .47-.34c.13-.15.25-.31.32-.5s.12-.4.13-.62l.07-3.74c0-.22-.03-.43-.1-.62a1.66 1.66 0 0 0-.31-.51c-.13-.15-.29-.26-.46-.34a1.36 1.36 0 0 0-.57-.13m22.23.21l-14.4-.13c-.23 0-.45.05-.65.13s-.38.22-.53.38-.28.35-.36.57a2.03 2.03 0 0 0-.14.7l-.06 3.35a1.98 1.98 0 0 0 .12.7c.08.21.2.41.34.58s.32.3.52.39.41.15.64.15l14.4.19c.23 0 .45-.04.66-.13a1.6 1.6 0 0 0 .54-.38 2 2 0 0 0 .37-.57c.09-.21.14-.45.14-.7l.06-3.39c0-.25-.04-.49-.12-.71a1.8 1.8 0 0 0-.35-.58 1.55 1.55 0 0 0-.53-.39c-.2-.09-.42-.15-.65-.15m19.75.179l-11.49-.11a1.31 1.31 0 0 0-.52.11c-.16.07-.31.17-.43.3a1.51 1.51 0 0 0-.29.45c-.07.17-.11.36-.12.56l-.07 4.16c0 .2.03.39.1.56s.16.33.28.46.26.24.42.31.33.12.51.12l11.49.15a1.32 1.32 0 0 0 .53-.11c.16-.07.31-.18.44-.31a1.31 1.31 0 0 0 .3-.46 1.75 1.75 0 0 0 .12-.56l.07-4.19c0-.2-.03-.39-.1-.56s-.16-.33-.28-.46-.27-.24-.43-.31-.34-.12-.53-.12"
              class="B G"/>
        <path d="M111.17 151.876l-17.91-.39c-.22 0-.42.04-.61.13s-.36.21-.5.37-.26.35-.34.56-.13.45-.13.69l-.05 3.08a2.28 2.28 0 0 0 .11.7c.07.22.19.41.32.57s.3.3.49.39.39.15.61.16l17.91.46c.22 0 .43-.04.63-.13s.37-.21.51-.37.27-.35.35-.56.13-.45.14-.7l.05-3.12c0-.25-.04-.49-.11-.71s-.19-.42-.33-.58-.31-.3-.5-.4a1.46 1.46 0 0 0-.62-.16"
              fill="url(#i)" class="E"/>
        <path d="M93.14 158.136a1.29 1.29 0 0 1-.61-.16 1.69 1.69 0 0 1-.49-.39 1.68 1.68 0 0 1-.32-.57c-.07-.21-.11-.45-.11-.7l.05-3.08c0-.25.05-.48.13-.69s.2-.4.34-.56a1.39 1.39 0 0 1 .5-.37 1.59 1.59 0 0 1 .61-.13l17.91.39a1.33 1.33 0 0 1 .62.16c.19.1.36.23.5.4a1.75 1.75 0 0 1 .33.58c.07.22.12.46.11.71l-.05 3.12c0 .25-.05.49-.14.7s-.2.4-.35.56-.32.29-.51.37a1.61 1.61 0 0 1-.63.13l-17.91-.46m18.04-6.75l-17.91-.38a1.88 1.88 0 0 0-.78.16c-.24.11-.46.27-.64.47a2.43 2.43 0 0 0-.44.71c-.11.27-.17.57-.17.88l-.05 3.08c0 .31.05.61.14.88a2.21 2.21 0 0 0 .42.73c.18.21.39.38.62.5s.5.19.77.2l17.91.46c.28 0 .55-.05.79-.16s.47-.27.66-.48a2.43 2.43 0 0 0 .45-.72c.11-.27.17-.57.18-.89l.05-3.12c0-.32-.05-.62-.15-.9s-.24-.53-.43-.74a2.18 2.18 0 0 0-.64-.5c-.24-.12-.51-.19-.79-.2"
              fill="url(#j)" class="E F"/>
        <path d="M122.14 152.105l-3.21-.07a1.41 1.41 0 0 0-.54.11c-.17.07-.32.19-.45.32a1.52 1.52 0 0 0-.31.49 1.53 1.53 0 0 0-.12.6l-.06 3.64c0 .21.03.42.1.61a1.64 1.64 0 0 0 .29.5c.12.14.27.26.44.34a1.44 1.44 0 0 0 .54.14l3.21.08c.19 0 .38-.03.54-.11s.32-.18.45-.32.23-.3.31-.49a1.53 1.53 0 0 0 .12-.6l.06-3.65c0-.22-.03-.42-.1-.61a1.64 1.64 0 0 0-.29-.5c-.12-.14-.27-.26-.44-.34s-.35-.13-.54-.13"
              fill="url(#k)" class="E"/>
        <path d="M118.81 158.785c-.19 0-.37-.05-.54-.14a1.62 1.62 0 0 1-.44-.34 1.46 1.46 0 0 1-.29-.5c-.07-.19-.1-.39-.1-.61l.06-3.64c0-.21.05-.42.12-.6a1.57 1.57 0 0 1 .31-.49 1.28 1.28 0 0 1 .45-.32c.17-.07.35-.12.54-.11l3.21.07c.19 0 .37.05.54.13s.31.2.44.34a1.46 1.46 0 0 1 .29.5c.07.19.1.39.1.61l-.06 3.65c0 .22-.05.42-.12.6a1.57 1.57 0 0 1-.31.49 1.28 1.28 0 0 1-.45.32 1.41 1.41 0 0 1-.54.11l-3.21-.08m3.34-7.17l-3.21-.07a1.87 1.87 0 0 0-.71.14c-.22.09-.42.24-.59.42a2.1 2.1 0 0 0-.4.64 2.27 2.27 0 0 0-.16.79l-.06 3.64c0 .28.04.55.13.8a2.15 2.15 0 0 0 .38.66c.16.19.35.34.57.45s.46.17.71.18l3.21.08a1.7 1.7 0 0 0 .71-.14c.22-.1.42-.24.59-.43s.31-.4.41-.64a2.27 2.27 0 0 0 .16-.79l.06-3.65c0-.28-.04-.56-.13-.8s-.22-.47-.38-.66-.36-.34-.58-.45-.46-.17-.71-.18"
              fill="url(#l)" class="E F"/>
        <path d="M134.59 152.386l-5.7-.12a1.39 1.39 0 0 0-.57.12c-.18.08-.33.19-.47.34a1.69 1.69 0 0 0-.32.51c-.08.19-.12.4-.12.63l-.06 3.55a1.85 1.85 0 0 0 .1.63c.07.19.17.37.3.52a1.47 1.47 0 0 0 .46.36c.18.09.36.14.56.14l5.7.15c.2 0 .4-.04.57-.11s.34-.19.47-.33a1.64 1.64 0 0 0 .32-.51 1.86 1.86 0 0 0 .13-.63l.06-3.57a1.85 1.85 0 0 0-.1-.63c-.07-.19-.17-.37-.3-.52s-.29-.27-.46-.36a1.23 1.23 0 0 0-.57-.14"
              fill="url(#m)" class="E"/>
        <path d="M128.77 159.046c-.2 0-.39-.06-.56-.14a1.44 1.44 0 0 1-.46-.36c-.13-.15-.23-.33-.3-.52s-.11-.41-.1-.63l.06-3.55c0-.22.05-.43.12-.63s.19-.36.32-.51a1.32 1.32 0 0 1 .47-.34 1.39 1.39 0 0 1 .57-.12l5.7.12a1.23 1.23 0 0 1 .57.14c.17.09.33.21.46.36s.23.33.3.52.11.41.1.63l-.06 3.57a1.65 1.65 0 0 1-.13.63 1.91 1.91 0 0 1-.32.51c-.13.15-.29.26-.47.33a1.38 1.38 0 0 1-.57.11l-5.7-.15m5.83-7.15l-5.7-.12c-.26 0-.51.05-.74.15s-.44.25-.61.44-.32.41-.42.66a2.22 2.22 0 0 0-.16.82l-.06 3.55a2.21 2.21 0 0 0 .14.82c.1.25.23.49.4.68a2.12 2.12 0 0 0 .6.47c.23.12.47.18.74.18l5.7.15c.26 0 .52-.05.74-.15s.44-.25.61-.44.32-.41.42-.66a2.22 2.22 0 0 0 .16-.82l.06-3.57c0-.29-.04-.57-.14-.83s-.23-.49-.4-.68a2.12 2.12 0 0 0-.6-.47c-.23-.12-.48-.18-.74-.18z"
              fill="url(#n)" class="E F"/>
        <path d="M146.54 152.635l-4.89-.11a1.62 1.62 0 0 0-.66.13 1.73 1.73 0 0 0-.55.39 1.9 1.9 0 0 0-.37.59c-.09.22-.14.47-.15.73l-.05 3.06a2.25 2.25 0 0 0 .12.74 1.94 1.94 0 0 0 .35.61c.15.18.33.32.53.42a1.46 1.46 0 0 0 .66.16l4.89.12.12-6.85m18.26.4l-17.58-.38-.12 6.86 17.58.45c.24 0 .47-.04.68-.13a1.82 1.82 0 0 0 .56-.39c.16-.16.29-.37.39-.6s.15-.48.15-.74l.05-3.11a2.31 2.31 0 0 0-.12-.75c-.08-.23-.21-.44-.36-.62s-.34-.32-.55-.42a1.58 1.58 0 0 0-.68-.16"
              fill="url(#o)"/>
        <path d="M146.55 152.145l-4.89-.1c-.3 0-.58.05-.84.17a2.23 2.23 0 0 0-.69.49c-.2.21-.36.46-.48.74s-.18.59-.19.92l-.05 3.06c0 .33.05.64.15.93s.26.55.45.77.42.4.68.53a2 2 0 0 0 .83.21l4.89.13v-.5l-4.88-.12c-.23 0-.46-.06-.66-.16s-.38-.24-.53-.42a1.94 1.94 0 0 1-.35-.61c-.08-.23-.13-.48-.12-.74l.05-3.06a1.94 1.94 0 0 1 .15-.73c.09-.22.22-.42.37-.59s.34-.3.55-.39.43-.14.66-.13l4.89.11v-.49m18.26.39l-17.58-.38v.49l17.57.38a1.58 1.58 0 0 1 .68.16c.21.1.39.24.55.42s.28.38.36.62a2.07 2.07 0 0 1 .12.75l-.05 3.11c0 .26-.06.51-.15.74a1.73 1.73 0 0 1-.39.6 1.77 1.77 0 0 1-.56.39c-.21.09-.44.14-.68.13l-17.58-.45v.5l17.57.45c.3 0 .59-.05.86-.17a2.23 2.23 0 0 0 .71-.5c.2-.21.37-.47.49-.76s.18-.6.19-.94l.05-3.11c0-.33-.05-.65-.16-.94a2.55 2.55 0 0 0-.46-.78 2.2 2.2 0 0 0-.69-.53 2.05 2.05 0 0 0-.85-.21"
              fill="url(#p)" class="F"/>
        <path d="M197.19 153.745l-24.19-.53c-.24 0-.48.04-.69.14a2.03 2.03 0 0 0-.57.4c-.17.17-.29.38-.39.6s-.15.48-.15.74l-.05 3.11c0 .26.04.52.13.75s.21.44.37.62.34.32.55.42a1.75 1.75 0 0 0 .68.17l24.18.62c.25 0 .49-.04.71-.13s.42-.23.58-.4a2.15 2.15 0 0 0 .4-.61 2.05 2.05 0 0 0 .16-.75l.06-3.16c0-.27-.04-.53-.13-.76a2.12 2.12 0 0 0-.38-.63c-.16-.18-.35-.33-.57-.43a1.85 1.85 0 0 0-.71-.17"
              class="C E"/>
        <path d="M172.88 160.165a1.59 1.59 0 0 1-.68-.17 1.75 1.75 0 0 1-.55-.42c-.15-.17-.28-.39-.37-.62a2.04 2.04 0 0 1-.13-.75l.05-3.11c0-.26.06-.52.15-.74s.23-.43.39-.6.35-.31.57-.4a1.77 1.77 0 0 1 .69-.14l24.19.53c.25 0 .49.07.71.17s.41.25.57.43a2 2 0 0 1 .38.63 2.13 2.13 0 0 1 .13.76l-.06 3.16c0 .27-.06.52-.16.75s-.23.44-.4.61-.37.31-.58.4-.46.14-.71.13l-24.18-.62m24.32-6.94l-24.19-.52c-.31 0-.6.06-.87.17s-.51.29-.72.5-.37.47-.49.76-.19.61-.19.94l-.05 3.11c0 .33.05.66.16.95s.27.56.47.78.44.41.7.54.56.2.86.21l24.18.62c.32 0 .62-.05.9-.17a2.23 2.23 0 0 0 .74-.51 2.72 2.72 0 0 0 .51-.77c.13-.29.19-.61.2-.95l.06-3.16c0-.34-.05-.67-.16-.96s-.27-.57-.48-.79a2.52 2.52 0 0 0-.72-.54c-.27-.13-.57-.21-.89-.21"
              fill="url(#q)" class="E F"/>
        <path d="M93.45 147.265c-.23 0-.46-.06-.66-.16a1.79 1.79 0 0 1-.53-.42c-.15-.17-.27-.39-.35-.62a2.31 2.31 0 0 1-.12-.75l.05-2.79c0-.27.06-.52.14-.75s.22-.43.37-.61.34-.31.54-.4.43-.15.66-.14l30.45.47a1.58 1.58 0 0 1 .68.16c.21.1.4.25.55.43a2.18 2.18 0 0 1 .37.63c.09.24.13.5.12.77l-.05 2.84a2.1 2.1 0 0 1-.54 1.38c-.16.18-.35.31-.57.41s-.44.15-.69.14l-30.44-.59m30.58-6.92l-30.45-.46c-.32 0-.63.06-.91.19a2.27 2.27 0 0 0-.75.56c-.21.24-.39.52-.52.83s-.2.66-.2 1.03l-.05 2.79c0 .37.05.72.17 1.04s.28.61.49.85a2.4 2.4 0 0 0 .73.58c.28.14.58.22.9.23l30.44.6a2.29 2.29 0 0 0 .94-.19c.29-.13.56-.32.78-.56s.41-.53.53-.85a3.27 3.27 0 0 0 .21-1.05l.05-2.85a3.1 3.1 0 0 0-.17-1.06 2.87 2.87 0 0 0-.5-.87c-.21-.25-.47-.45-.76-.59s-.6-.22-.94-.23"
              class="B G"/>
        <path d="M146.75 140.697l-14.34-.22a2.3 2.3 0 0 0-.94.2c-.29.13-.55.32-.78.56a2.72 2.72 0 0 0-.53.84 2.92 2.92 0 0 0-.21 1.04l-.05 2.9c0 .37.05.72.17 1.05s.29.62.5.86.47.45.76.59a2.28 2.28 0 0 0 .93.23l14.34.28v-.75l-14.33-.28a1.46 1.46 0 0 1-.68-.17c-.21-.11-.39-.25-.55-.43s-.28-.39-.36-.62a2.09 2.09 0 0 1-.12-.76l.05-2.91c0-.27.06-.52.15-.75a1.77 1.77 0 0 1 .39-.61 2.02 2.02 0 0 1 .56-.41c.21-.1.44-.15.68-.14l14.34.22v-.75m15.1.23l-14.41-.22v.75l14.4.22a1.54 1.54 0 0 1 .7.17c.22.11.41.25.57.43a2.05 2.05 0 0 1 .38.64c.09.24.13.5.13.77l-.05 2.96a2 2 0 0 1-.16.77c-.1.24-.23.45-.4.62s-.36.32-.58.41-.46.15-.7.14l-14.41-.28v.75l14.4.28a2.28 2.28 0 0 0 .97-.2 2.66 2.66 0 0 0 .8-.57 2.64 2.64 0 0 0 .55-.86c.13-.33.21-.68.22-1.06l.05-2.96a3.12 3.12 0 0 0-.18-1.07 2.77 2.77 0 0 0-.52-.88 2.51 2.51 0 0 0-.78-.6c-.29-.14-.62-.22-.97-.23"
              class="B E"/>
        <path d="M169.73 148.745c-.26 0-.5-.07-.72-.17s-.42-.26-.58-.45a2.25 2.25 0 0 1-.39-.65 2.05 2.05 0 0 1-.13-.79l.05-2.88c0-.28.06-.55.16-.79s.24-.46.41-.64.37-.33.6-.43a1.8 1.8 0 0 1 .73-.15l35.87.56c.27 0 .52.07.75.17s.44.26.61.45a2.06 2.06 0 0 1 .4.67c.09.25.14.52.14.81l-.05 2.94a1.91 1.91 0 0 1-.17.8 2.23 2.23 0 0 1-.43.65 2.03 2.03 0 0 1-.62.43 1.91 1.91 0 0 1-.76.15l-35.87-.69m36.01-7.15l-35.87-.54c-.35 0-.69.07-1 .2s-.59.34-.82.58-.43.55-.56.88-.21.7-.22 1.08l-.05 2.87a3.28 3.28 0 0 0 .18 1.09 2.71 2.71 0 0 0 .53.9c.23.26.5.47.8.61a2.53 2.53 0 0 0 .99.24l35.87.71a2.75 2.75 0 0 0 1.04-.2c.32-.13.61-.34.86-.59s.45-.56.59-.89.22-.71.23-1.1l.05-2.94a3.12 3.12 0 0 0-.19-1.11 2.83 2.83 0 0 0-.56-.91c-.24-.26-.52-.47-.84-.62a2.59 2.59 0 0 0-1.03-.24"
              class="B G"/>
        <path d="M147.34 126.526s-.09.01-.13.03-.08.05-.11.08a.36.36 0 0 0-.08.12c-.02.05-.03.09-.03.15l-.06 3.35-.12 6.85-.06 3.6v.75l-.13 6.85v.75l-.07 3.1v.49l-.13 6.85v.5l-.06 2.93c0 .05 0 .1.02.15s.04.09.07.12.07.06.11.08.09.03.13.03.09 0 .13-.02.08-.04.11-.08.06-.07.07-.12.03-.09.03-.14l.05-2.93v-.5l.13-6.86v-.49l.06-3.1v-.75l.13-6.86v-.75l.08-3.6.12-6.86.06-3.35c0-.05 0-.1-.02-.15s-.04-.09-.07-.12-.06-.06-.1-.08-.08-.03-.13-.03"
              class="B"/>
    </g>
    <g filter="url(#b)">
        <path d="M89.899 111.868l3.52-.1 119.97.75-2.67.11-120.82-.76z" class="B"/>
        <mask id="P" maskUnits="userSpaceOnUse" x="210" y="112" width="4" height="1">
            <path d="M213.77 112.506l-2.67.11h-.1-.1-.1-.1l2.67-.11h.1.1.1.1z" class="D"/>
        </mask>
        <g mask="url(#P)" class="B">
            <path d="M210.72 112.626l2.67-.11h.05.05.05.05l-2.67.11h-.05-.05-.05-.05z"/>
            <path d="M210.93 112.626l2.67-.11h.04.04.04.04l-2.67.11h-.04-.04-.04-.04z"/>
        </g>
        <mask id="Q" maskUnits="userSpaceOnUse" x="211" y="103" width="11" height="10">
            <path d="M213.77 112.507l-2.67.11c1.13-.05 2.2-.32 3.17-.79s1.85-1.12 2.59-1.92 1.33-1.74 1.74-2.78a9.25 9.25 0 0 0 .64-3.39l2.6-.03c0 1.19-.22 2.32-.63 3.36a8.83 8.83 0 0 1-1.73 2.76 8.42 8.42 0 0 1-2.57 1.9 8.17 8.17 0 0 1-3.15.78h.01z"
                  class="D"/>
        </mask>
        <g mask="url(#Q)" class="C">
            <path d="M219.24 103.747l2.6-.03v.07.07.07.07l-2.6.03v-.07-.07-.07-.07z"/>
            <path d="M219.24 104.036l2.6-.03c0 .13-.01.27-.02.4l-.04.4-.05.39-.07.39-2.61.05.07-.39.06-.4.04-.4.02-.41z"/>
            <path d="M219.05 105.636l2.61-.05c-.02.12-.05.23-.08.35l-.09.34-.1.34c-.03.11-.08.22-.12.33l-2.61.06.12-.33.11-.34c.04-.11.06-.23.09-.35l.08-.35"/>
            <path d="M218.66 107.007l2.61-.06-.13.33c-.04.11-.1.22-.15.33l-.16.32-.17.31-2.61.07.17-.31.16-.32.15-.33c.05-.11.09-.22.13-.34z"/>
            <path d="M218.04 108.306l2.61-.07-.22.36-.23.34-.25.33-.26.32-2.62.08.26-.32.25-.34.23-.35.22-.36"/>
            <path d="M217.08 109.678l2.62-.08a8.99 8.99 0 0 1-1.22 1.17c-.44.35-.92.65-1.42.9a8.58 8.58 0 0 1-1.58.6 7.43 7.43 0 0 1-1.71.25l-2.67.11c.59-.02 1.17-.11 1.72-.26a9.06 9.06 0 0 0 1.6-.6c.51-.25.99-.56 1.43-.91a9.14 9.14 0 0 0 1.23-1.18z"/>
        </g>
        <path d="M219.24 37.076l2.61.57v66.07l-2.61.03v-66.67z" class="C"/>
        <mask id="R" maskUnits="userSpaceOnUse" x="212" y="28" width="10" height="10">
            <path d="M212.93 28.688l2.65.65a7.99 7.99 0 0 1 2.5 1.09c.76.5 1.43 1.13 1.99 1.86s1.01 1.56 1.31 2.46a9.18 9.18 0 0 1 .47 2.9l-2.6-.57a9.09 9.09 0 0 0-.48-2.93c-.31-.91-.76-1.75-1.32-2.48a8.26 8.26 0 0 0-2-1.87 8.02 8.02 0 0 0-2.52-1.1v-.01z"
                  class="D"/>
        </mask>
        <g mask="url(#R)" class="C">
            <path d="M212.93 28.688l2.65.65.14.03c.05.01.09.02.14.04s.09.03.14.04.09.03.13.04l-2.65-.64-.14-.04c-.05-.01-.09-.03-.14-.04s-.09-.03-.14-.04-.09-.02-.14-.04"/>
            <path d="M213.48 28.848l2.65.64c.11.03.21.07.32.11l.31.12.31.14.3.15-2.64-.64-.3-.15-.31-.14c-.1-.05-.21-.09-.32-.12s-.21-.08-.32-.11z"/>
            <path d="M214.73 29.367l2.64.64.33.18c.11.06.22.13.32.2l.31.21.3.23-2.63-.63-.3-.23-.32-.22-.33-.2-.33-.19"/>
            <path d="M216.01 30.197l2.63.63.42.36.39.38.37.41a7.35 7.35 0 0 1 .34.44l-2.62-.62-.35-.44-.37-.41-.4-.39-.42-.36"/>
            <path d="M217.55 31.797l2.62.62.48.74.41.79.33.84c.1.29.18.58.25.88l-2.61-.59-.25-.89-.33-.85c-.12-.28-.26-.54-.41-.8a7.29 7.29 0 0 0-.49-.74z"/>
            <path d="M219.03 35.078l2.61.59a4.05 4.05 0 0 1 .09.48l.07.49.04.5.01.51-2.6-.57-.01-.51-.04-.51-.07-.5-.09-.49"/>
        </g>
        <path d="M210.72 28.466c1.17-.04 2.29.16 3.31.58a8.16 8.16 0 0 1 2.71 1.81c.77.78 1.4 1.72 1.83 2.77s.67 2.22.67 3.45v66.67c0 1.23-.24 2.41-.67 3.47s-1.06 2.03-1.83 2.83a8.57 8.57 0 0 1-2.71 1.9c-1.02.45-2.14.69-3.31.68l-120.82-.76c-1.03 0-2.01-.25-2.89-.67s-1.69-1.04-2.36-1.79-1.21-1.65-1.59-2.65-.58-2.09-.58-3.23v-61.91c0-1.15.21-2.24.58-3.25a8.79 8.79 0 0 1 1.59-2.7c.67-.78 1.47-1.41 2.36-1.87a6.86 6.86 0 0 1 2.89-.76l120.82-4.57z"
              fill="url(#r)"/>
        <mask id="S" maskUnits="userSpaceOnUse" x="211" y="103" width="12" height="11">
            <path d="M213.83 113.287l-2.67.11a8.86 8.86 0 0 0 3.44-.86c1.05-.5 2.01-1.22 2.81-2.09s1.45-1.89 1.89-3.03a10.2 10.2 0 0 0 .69-3.68l2.6-.03c0 1.29-.24 2.52-.69 3.65s-1.08 2.14-1.88 3-1.74 1.57-2.79 2.07a8.94 8.94 0 0 1-3.42.86h.02z"
                  class="D"/>
        </mask>
        <g mask="url(#S)" class="B">
            <path d="M220 103.747l2.6-.03v.08.08.08.08l-2.6.03v-.08-.08-.08-.08z"/>
            <path d="M220 104.067l2.6-.03-.02.44-.04.43-.06.43c-.02.15-.05.28-.08.42l-2.6.05.08-.42c.03-.14.04-.29.06-.43a5.99 5.99 0 0 0 .04-.44l.02-.44"/>
            <path d="M219.79 105.796l2.6-.05-.09.38-.1.37-.11.37-.13.36-2.6.06.13-.36.11-.37.1-.38.09-.38z"/>
            <path d="M219.36 107.287l2.6-.06-.15.36-.16.36-.17.35-.19.34-2.61.07.19-.34.17-.35.16-.36.15-.37"/>
            <path d="M218.69 108.707l2.61-.07-.24.39-.25.38c-.08.13-.18.24-.27.36l-.28.35-2.62.09.29-.35c.1-.12.18-.24.27-.37l.25-.38.24-.39"/>
            <path d="M217.64 110.197l2.62-.09a9.32 9.32 0 0 1-1.32 1.27c-.48.38-.99.71-1.54.98a9.37 9.37 0 0 1-1.72.65c-.6.16-1.22.25-1.85.28l-2.67.11c.64-.03 1.27-.12 1.87-.28a8.82 8.82 0 0 0 1.73-.66 9.27 9.27 0 0 0 1.55-.99 9.46 9.46 0 0 0 1.33-1.28"/>
        </g>
        <path d="M220 37.057l2.6.57v66.09l-2.6.03v-66.69z" class="B"/>
        <mask id="T" maskUnits="userSpaceOnUse" x="213" y="27" width="10" height="11">
            <path d="M213.14 27.926l2.65.65c.98.24 1.89.65 2.71 1.19s1.55 1.23 2.16 2.02 1.09 1.7 1.43 2.68.51 2.04.51 3.15l-2.6-.57a9.77 9.77 0 0 0-.52-3.18c-.34-.99-.82-1.9-1.44-2.7s-1.35-1.49-2.17-2.04a8.58 8.58 0 0 0-2.73-1.2z"
                  class="D"/>
        </mask>
        <g mask="url(#T)" class="B">
            <path d="M213.14 27.926l2.65.65s.1.02.14.04.09.03.14.04.09.03.14.04.09.03.14.04l-2.65-.65-.14-.04c-.05-.01-.09-.03-.14-.04s-.1-.03-.14-.04-.1-.02-.14-.04z"/>
            <path d="M213.709 28.086l2.65.65.35.12.34.13c.11.04.22.1.34.15s.22.11.33.16l-2.64-.65-.33-.16-.34-.15-.34-.14c-.11-.05-.23-.08-.35-.12"/>
            <path d="M215.08 28.656l2.64.65.36.2.35.22.34.23.33.25-2.63-.64-.33-.25-.34-.24c-.11-.08-.23-.15-.35-.22l-.36-.2"/>
            <path d="M216.47 29.566l2.63.64c.16.12.31.25.46.39l.43.42.4.45.37.48-2.61-.62-.38-.48c-.13-.16-.27-.31-.41-.45l-.43-.42-.46-.39"/>
            <path d="M218.149 31.305l2.61.62.53.8.45.86a7.82 7.82 0 0 1 .36.91l.27.96-2.6-.59c-.07-.33-.16-.66-.27-.97l-.36-.92a8.93 8.93 0 0 0-.45-.87 8.67 8.67 0 0 0-.53-.81"/>
            <path d="M219.77 34.876l2.6.59.1.52.07.53.04.54.02.55-2.6-.57-.02-.56-.05-.55-.07-.54-.1-.53"/>
        </g>
        <path d="M210.72 27.677c1.27-.05 2.49.18 3.6.63a8.78 8.78 0 0 1 2.95 1.97c.84.85 1.53 1.87 2 3.02s.73 2.42.73 3.76v66.69a10.06 10.06 0 0 1-.73 3.78 9.52 9.52 0 0 1-2 3.08c-.85.87-1.84 1.58-2.95 2.07a8.69 8.69 0 0 1-3.6.74l-120.82-.81a7.32 7.32 0 0 1-3.15-.73c-.97-.46-1.83-1.13-2.56-1.95s-1.32-1.8-1.73-2.88-.63-2.27-.63-3.51v-61.9c0-1.24.23-2.44.63-3.53a9.46 9.46 0 0 1 1.73-2.93c.73-.84 1.6-1.54 2.56-2.04s2.03-.79 3.15-.83l120.82-4.62v-.01zm8.53 76.06v-66.66c0-1.23-.24-2.4-.67-3.45s-1.06-1.99-1.83-2.77a8.01 8.01 0 0 0-2.71-1.81 8.11 8.11 0 0 0-3.31-.58l-120.82 4.57a6.93 6.93 0 0 0-2.89.76 7.84 7.84 0 0 0-2.36 1.87c-.67.78-1.21 1.69-1.59 2.7s-.58 2.1-.58 3.25v61.91c0 1.15.21 2.24.58 3.23s.92 1.89 1.59 2.65 1.47 1.37 2.36 1.79 1.87.67 2.89.67l120.82.76c1.17 0 2.29-.23 3.31-.68s1.94-1.09 2.71-1.9 1.4-1.76 1.83-2.83a9.28 9.28 0 0 0 .67-3.47"
              class="B"/>
    </g>
    <mask id="U" maskUnits="userSpaceOnUse" x="75" y="17" width="100" height="87">
        <path d="M76.98 102.576l-1.41-80.66 97.17-3.92 1.49 85.11-97.25-.53z" class="D"/>
    </mask>
    <g mask="url(#U)">
        <path d="M164.99 19.336l-82.37 3.28a5.64 5.64 0 0 0-2.4.64c-.73.38-1.39.92-1.94 1.57s-.98 1.42-1.28 2.26-.45 1.77-.44 2.73l1.12 64.01a8.83 8.83 0 0 0 .59 3.03 8.04 8.04 0 0 0 1.52 2.48c.64.71 1.39 1.28 2.23 1.68s1.75.62 2.71.63l81.7.4c.94 0 1.83-.2 2.64-.56s1.53-.9 2.14-1.56 1.09-1.45 1.42-2.33a7.68 7.68 0 0 0 .49-2.86l-1.19-68.33c-.02-1.01-.23-1.97-.59-2.84a7.12 7.12 0 0 0-1.5-2.28 6.48 6.48 0 0 0-2.19-1.48c-.82-.33-1.72-.51-2.66-.47z"
              fill="url(#s)"/>
        <path d="M84.73 101.646c-.96 0-1.87-.23-2.71-.63a7.13 7.13 0 0 1-2.23-1.68 8.04 8.04 0 0 1-1.52-2.48c-.36-.93-.58-1.96-.59-3.03l-1.12-64.01c-.02-.96.14-1.88.44-2.73a7.37 7.37 0 0 1 1.28-2.26c.54-.65 1.2-1.19 1.94-1.57a5.64 5.64 0 0 1 2.4-.64l82.37-3.28c.94-.04 1.83.13 2.66.47s1.56.85 2.19 1.48 1.14 1.41 1.5 2.28.57 1.82.59 2.84l1.19 68.33c.02 1.01-.16 1.98-.49 2.86s-.82 1.67-1.42 2.33-1.33 1.19-2.14 1.56-1.7.57-2.64.56l-81.7-.4zm80.25-83.34l-82.37 3.32c-.97.04-1.89.3-2.73.74a7.33 7.33 0 0 0-2.21 1.8c-.63.75-1.12 1.62-1.46 2.58s-.52 2.01-.5 3.11l1.12 63.97a9.81 9.81 0 0 0 .67 3.41 9.31 9.31 0 0 0 1.71 2.79c.71.8 1.57 1.44 2.5 1.89s1.97.7 3.04.71l81.7.44c1.07 0 2.08-.22 3-.64s1.75-1.03 2.44-1.78 1.25-1.65 1.62-2.65a8.92 8.92 0 0 0 .56-3.25l-1.19-68.37c-.02-1.15-.26-2.25-.67-3.23s-1-1.87-1.72-2.6-1.57-1.31-2.5-1.7-1.96-.58-3.03-.54"
              fill="url(#t)" class="F"/>
    </g>
    <mask id="V" maskUnits="userSpaceOnUse" x="181" y="16" width="32" height="87">
        <path d="M183.38 102.746l-1.5-85.47 28.74-1.19 1.52 86.84-28.76-.18z" class="D"/>
    </mask>
    <g mask="url(#V)">
        <path d="M205.59 17.297l-19.25.78a3.26 3.26 0 0 0-1.38.37c-.42.22-.8.52-1.11.89s-.57.8-.74 1.28-.26 1-.25 1.54l.71 40.43c0 .54.12 1.06.3 1.53s.45.89.78 1.24.71.63 1.14.83.9.3 1.39.29l19.26-.27a3.21 3.21 0 0 0 1.41-.33 3.72 3.72 0 0 0 1.14-.87 4.1 4.1 0 0 0 .76-1.28c.18-.48.27-1.01.26-1.56l-.72-41.02c0-.55-.12-1.07-.31-1.54s-.47-.89-.8-1.24-.73-.63-1.17-.81-.92-.28-1.42-.26z"
              fill="url(#u)"/>
        <path d="M187.19 66.487c-.49 0-.96-.1-1.39-.29a3.45 3.45 0 0 1-1.14-.83c-.32-.35-.59-.77-.78-1.24a4.09 4.09 0 0 1-.3-1.53l-.71-40.43c0-.54.08-1.06.25-1.54s.42-.91.74-1.28a3.79 3.79 0 0 1 1.11-.89 3.26 3.26 0 0 1 1.38-.37l19.25-.78c.5-.02.98.07 1.42.26s.84.46 1.17.81.61.77.8 1.24.3.99.31 1.54l.72 41.02c0 .55-.08 1.08-.26 1.56a4.1 4.1 0 0 1-.76 1.28 3.72 3.72 0 0 1-1.14.87 3.21 3.21 0 0 1-1.41.33l-19.26.27zm18.38-50.19l-19.25.79a4.23 4.23 0 0 0-1.72.46c-.53.27-1 .65-1.39 1.12s-.71 1.01-.92 1.61-.33 1.25-.32 1.93l.71 40.41a5.46 5.46 0 0 0 .38 1.91 4.87 4.87 0 0 0 .98 1.55 4.42 4.42 0 0 0 1.43 1.04 4.24 4.24 0 0 0 1.74.37l19.26-.26c.63 0 1.22-.16 1.76-.42s1.03-.63 1.43-1.09.73-1 .95-1.6.34-1.26.33-1.95l-.72-41.04c-.01-.69-.15-1.34-.39-1.93s-.59-1.12-1.01-1.55a4.49 4.49 0 0 0-1.47-1.01c-.55-.23-1.15-.35-1.78-.32"
              fill="url(#v)" class="F"/>
        <path d="M207.29 79.497l-19.52.13a3.02 3.02 0 0 0-1.33.31c-.41.2-.77.48-1.08.82a3.53 3.53 0 0 0-.71 1.22c-.16.46-.25.96-.24 1.49l.25 14.49c0 .52.11 1.03.3 1.48s.44.87.76 1.21.69.63 1.11.82.87.3 1.34.31l19.52.11c.48 0 .95-.1 1.36-.3s.79-.47 1.11-.82.56-.76.73-1.22a4.11 4.11 0 0 0 .25-1.5l-.26-14.71c0-.53-.12-1.04-.3-1.51a3.74 3.74 0 0 0-.78-1.23c-.33-.35-.71-.63-1.13-.82a3.18 3.18 0 0 0-1.37-.29"
              fill="url(#w)"/>
        <path d="M188.16 101.786c-.47 0-.93-.11-1.34-.31s-.79-.48-1.11-.82-.57-.76-.76-1.21-.29-.96-.3-1.48l-.25-14.49a4.52 4.52 0 0 1 .24-1.49 3.8 3.8 0 0 1 .71-1.22c.3-.35.67-.63 1.08-.82s.86-.31 1.33-.31l19.52-.13c.48 0 .95.1 1.37.29s.81.47 1.13.82.59.76.78 1.23a4.19 4.19 0 0 1 .3 1.51l.26 14.71c0 .53-.08 1.04-.25 1.5s-.42.88-.73 1.22-.69.63-1.11.82-.88.3-1.36.3l-19.52-.11m19.11-23.29l-19.52.14a3.84 3.84 0 0 0-1.68.39c-.52.25-.97.6-1.36 1.04s-.69.96-.9 1.53a5.21 5.21 0 0 0-.31 1.87l.25 14.48a5.28 5.28 0 0 0 .37 1.87c.23.58.55 1.09.95 1.53s.87.79 1.39 1.04a3.88 3.88 0 0 0 1.69.39l19.52.12a4.15 4.15 0 0 0 1.72-.37c.53-.24 1-.6 1.39-1.04s.71-.96.93-1.54a5.11 5.11 0 0 0 .32-1.89l-.26-14.71a5.45 5.45 0 0 0-.38-1.9c-.23-.59-.57-1.11-.98-1.54s-.89-.79-1.43-1.04a3.93 3.93 0 0 0-1.73-.37"
              fill="url(#x)" class="F"/>
    </g>
    <mask id="W" maskUnits="userSpaceOnUse" x="190" y="23" width="13" height="36">
        <path d="M190.33 58.876v-34.84l12.63-.12v35.08l-12.63-.12z" class="D"/>
    </mask>
    <g mask="url(#W)">
        <path opacity=".75"
              d="M199.28 29.856c-.07 0-.13.01-.2.03s-.13.05-.18.09-.11.08-.15.14-.09.12-.12.19c-.02.03-.03.07-.04.1s-.03.07-.04.1l-.03.1c-.01.03-.01.07-.02.11h1.11.1.08.07.05l.12-.06v-.05l-.03-.22a.51.51 0 0 0-.1-.21c-.05-.06-.09-.12-.15-.17s-.12-.08-.19-.11a.54.54 0 0 0-.22-.04h-.02m-4.9-1.31c-.01.06-.02.13-.04.19s-.03.13-.04.19-.03.12-.05.19l-.05.18-.06.21-.06.22-.06.22-.06.22c-.02.07-.03.15-.05.22l-.06.21-.06.2-.06.19h1.33l-.03-.1-.03-.1a1.64 1.64 0 0 1-.03-.11c-.01-.04-.02-.07-.04-.11-.01-.04-.02-.08-.04-.12s-.02-.08-.04-.12-.02-.08-.03-.13l-.03-.13c-.01-.04-.03-.09-.04-.13s-.03-.09-.04-.13-.03-.09-.04-.13-.02-.09-.04-.13c-.01-.04-.03-.09-.04-.13s-.02-.09-.04-.13-.02-.08-.03-.13-.02-.08-.04-.12l-.03-.12-.03-.12-.03-.11-.03-.11m5.17 5.12h-.02-.02-.02-.02c-.1 0-.2 0-.29-.01l-.26-.04-.24-.06a.85.85 0 0 1-.22-.09 1.14 1.14 0 0 1-.19-.1c-.06-.04-.12-.08-.17-.13l-.16-.15a1.15 1.15 0 0 1-.14-.17l-.12-.17a1.62 1.62 0 0 1-.1-.18 1.54 1.54 0 0 1-.08-.19c-.02-.06-.05-.13-.06-.2a1.6 1.6 0 0 0-.05-.21c-.02-.07-.02-.14-.03-.21l-.02-.21v-.22-.23c0-.08.01-.15.02-.23l.04-.23.06-.23.07-.22.09-.21c.03-.07.07-.13.11-.2s.08-.13.13-.19c.04-.06.09-.11.14-.17s.1-.1.15-.15a1.09 1.09 0 0 1 .17-.13l.18-.11.2-.09c.07-.03.14-.04.21-.06s.15-.02.23-.03.16-.01.24-.01h.03l.21.01.19.03c.06.01.13.03.19.06s.13.05.19.08l.16.09a1.43 1.43 0 0 1 .15.11.8.8 0 0 1 .13.13l.12.14.09.15.09.16.08.17c.03.06.04.12.06.18s.03.12.04.18l.03.18c.01.06.01.12.02.18s0 .12 0 .18v.1.1.09.08.08.07.06.04l-.07.08h-.03-.04-.05-.06-.06-.07-.08-.09-.09-.09-.1-.1-1.68a.59.59 0 0 0 .02.14l.03.13c.01.04.03.09.05.13l.06.12c.02.04.05.07.08.11a.9.9 0 0 0 .09.1.7.7 0 0 0 .1.08c.03.02.07.05.11.06.05.02.11.05.16.06l.17.04.17.03c.05.01.12 0 .17 0h.14c.05 0 .09 0 .14-.01s.09-.01.14-.02.09-.02.14-.02c.04 0 .08-.02.12-.02s.08-.02.12-.03.08-.02.12-.04.08-.03.11-.04l.04.04v.96l-.05.05-.13.06c-.04.02-.09.03-.13.05s-.09.03-.13.04l-.13.03-.17.03c-.06.01-.11.02-.16.02s-.11.01-.16.02-.11 0-.16 0m-7.62-.09l-.06-.1 1.69-5.36.05-.18s.01-.06.02-.09 0-.06.01-.09 0-.06 0-.09v-.09l.04-.06h1.36l.07.03 1.92 5.94-.05.1h-1.1l-.08-.06-.43-1.39h-1.95l-.41 1.38-.1.08h-.98m8.77-9.64l-8.16.08c-.31 0-.6.07-.87.2s-.51.31-.71.53a2.61 2.61 0 0 0-.48.79c-.12.3-.17.62-.17.96v8.63a2.77 2.77 0 0 0 .17.96 2.38 2.38 0 0 0 .48.78 2.14 2.14 0 0 0 .71.52c.27.12.56.19.87.19l8.16-.02c.31 0 .61-.07.88-.2s.51-.31.71-.53.37-.49.48-.79.18-.62.18-.97v-8.69c0-.34-.06-.67-.18-.96s-.28-.56-.48-.78-.45-.4-.71-.52-.57-.19-.88-.19m-5.92 25.929h-.1-.1-.1-.1v1.95h.2l.28.01h.16c.05 0 .1-.01.15-.02l.15-.03c.05-.01.1-.03.15-.04a.61.61 0 0 0 .12-.05c.04-.02.08-.04.11-.07s.07-.06.1-.09l.1-.11c.03-.04.05-.08.07-.12a.58.58 0 0 0 .05-.14l.03-.16c.01-.06.01-.12.01-.18v-.13c0-.04-.01-.09-.02-.13s-.02-.09-.04-.13l-.06-.12c-.02-.04-.05-.07-.07-.11s-.06-.06-.09-.09-.06-.05-.1-.08-.07-.04-.11-.06c-.05-.02-.09-.04-.14-.05s-.09-.03-.14-.04-.09-.02-.14-.02h-.14-.02-.04-.02-.04-.04-.04-.04m4.26 1l.12-.14.14-.13.15-.12c.05-.04.11-.07.16-.1a1.62 1.62 0 0 1 .18-.1c.06-.03.12-.05.19-.07s.13-.03.19-.04.13-.01.2-.01h.02l.09.06v1.15l-.09.06h-.02-.02l-.24.01-.24.04-.24.07-.23.09c-.02.01-.05.03-.07.04s-.05.03-.07.05l-.06.06-.06.06v2.97l-.07.08h-1.04-.03-.02l-.02-.04v-.04-3.24-.43l-.02-.45v-.1-.1-.1-.1-.04l.04-.02h.94l.1.1.03.13c.01.04.02.09.02.13s.01.09.01.13v.14m-5.75 3.99l-.07-.07v-5.97l.06-.06h.29l.4-.02.46-.02h.48l.31.01.28.03c.09.01.18.03.26.06l.23.08c.07.03.13.05.19.09l.18.11c.06.04.12.08.17.13l.16.15.12.14c.04.05.07.1.1.16l.09.17c.03.06.05.12.07.18s.04.12.05.18l.04.19.02.19v.19c0 .06 0 .25-.02.36l-.06.33c-.03.11-.06.2-.1.29l-.13.26a1.95 1.95 0 0 1-.17.23c-.06.07-.13.13-.2.19s-.15.11-.23.16a1.15 1.15 0 0 1-.25.12 1.31 1.31 0 0 1-.28.09l-.29.06c-.1.02-.2.03-.3.03h-.32-.26l-.23-.01v1.89.03l-.02.02h-.02-1.02m7.34-9.57l-8.16-.02a2.2 2.2 0 0 0-.44.05c-.15.03-.28.08-.42.14s-.26.14-.38.22-.23.19-.34.3a2 2 0 0 0-.28.37c-.08.13-.15.27-.21.42s-.1.3-.13.46-.04.32-.04.48v8.63a2.77 2.77 0 0 0 .17.96c.11.3.28.56.48.79s.44.41.71.53.56.2.87.2l8.16.08a2.02 2.02 0 0 0 .88-.19c.27-.13.51-.3.71-.52a2.49 2.49 0 0 0 .48-.78 2.73 2.73 0 0 0 .18-.96v-8.69c0-.34-.06-.67-.18-.97a2.74 2.74 0 0 0-.48-.79c-.2-.23-.45-.41-.71-.53s-.57-.19-.88-.2"
              fill="#99f"/>
    </g>
    <mask id="X" maskUnits="userSpaceOnUse" x="82" y="27" width="85" height="68">
        <path d="M84.07 94.125l-1.12-64.01 81.98-2.91 1.17 66.97-82.03-.05z" class="D"/>
    </mask>
    <g mask="url(#X)" class="B">
        <path d="M160.09 27.375l-72.71 2.58a4.07 4.07 0 0 0-1.72.45c-.53.27-1 .65-1.39 1.12a5.17 5.17 0 0 0-.92 1.62c-.21.61-.33 1.26-.31 1.95l.69 39.76c.01.69.15 1.34.38 1.94a5.01 5.01 0 0 0 .98 1.58 4.48 4.48 0 0 0 1.43 1.06c.54.25 1.12.38 1.73.38l72.75-.54c.67 0 1.3-.16 1.87-.42s1.09-.65 1.52-1.13a5.33 5.33 0 0 0 1.01-1.67c.24-.63.36-1.31.35-2.03l-.73-41.61a5.4 5.4 0 0 0-.42-2.02c-.26-.62-.62-1.17-1.07-1.62s-.97-.82-1.56-1.06-1.22-.37-1.89-.34"
              class="E"/>
        <path d="M134.8 86.805l-47.69.16c-.44 0-.85.1-1.23.29s-.71.45-.99.77-.5.71-.66 1.14-.23.9-.22 1.39a4.24 4.24 0 0 0 .27 1.39c.16.43.41.81.7 1.14a3.16 3.16 0 0 0 1.02.77 2.89 2.89 0 0 0 1.24.28l47.7.03c.46 0 .9-.1 1.3-.29s.76-.46 1.05-.79a3.72 3.72 0 0 0 .7-1.17 3.94 3.94 0 0 0 .24-1.43c-.01-.51-.11-.99-.29-1.43a3.82 3.82 0 0 0-.74-1.17c-.31-.33-.68-.6-1.08-.79s-.85-.29-1.31-.28"
              class="G"/>
        <path opacity=".6"
              d="M162.51 86.715l-13.19.05a3.08 3.08 0 0 0-1.32.3 3.45 3.45 0 0 0-1.07.8 3.61 3.61 0 0 0-.71 1.18c-.17.45-.25.93-.24 1.44s.11 1 .29 1.44a4.02 4.02 0 0 0 .75 1.18c.31.34.68.61 1.09.79a3.31 3.31 0 0 0 1.33.29h13.19c.48 0 .93-.1 1.34-.28s.78-.46 1.09-.8a3.68 3.68 0 0 0 .72-1.19 3.88 3.88 0 0 0 .25-1.45c-.01-.51-.11-1.01-.3-1.45s-.44-.85-.76-1.19-.7-.61-1.11-.8-.87-.29-1.35-.29"/>
    </g>
    <mask id="Y" maskUnits="userSpaceOnUse" x="188" y="86" width="20" height="10">
        <path d="M188.63 95.506v-9.04l18.54-.04v9.13l-18.54-.05z" class="D"/>
    </mask>
    <g mask="url(#Y)" class="B">
        <path opacity=".6"
              d="M194.77 86.555s-.09 0-.13.01l-.13.03c-.04.01-.09.03-.13.05s-.09.04-.13.07l-5.07 3.25c-.18.11-.31.27-.4.45s-.13.37-.13.57.04.39.13.57a1.06 1.06 0 0 0 .4.44l5.07 3.25.13.07c.04.02.09.04.13.05l.13.03c.04.01.09 0 .13 0 .14 0 .28-.03.4-.09s.24-.14.34-.24.18-.23.24-.37a1.21 1.21 0 0 0 .09-.48v-6.5c0-.17-.03-.33-.09-.47s-.14-.27-.24-.37-.21-.19-.34-.24-.26-.09-.4-.09"/>
        <path d="M201.16 86.436c-.12 0-.24.03-.35.08s-.21.12-.3.22-.16.2-.21.33a1.16 1.16 0 0 0-.08.42v7.02a1.16 1.16 0 0 0 .08.42c.05.13.12.24.21.33s.19.17.3.22.23.08.35.08h.12c.04 0 .08-.01.12-.03s.08-.03.12-.04.08-.04.11-.06l5.55-3.51c.16-.1.27-.24.35-.39s.12-.33.12-.51-.04-.35-.12-.51a1.01 1.01 0 0 0-.35-.39l-5.55-3.51s-.08-.05-.12-.06-.08-.03-.12-.04l-.12-.03c-.04-.01-.08 0-.12 0"
              class="E"/>
    </g>
    <defs>
        <filter id="Z" x="12.46" y="5.391" width="156.6" height="190.43" filterUnits="userSpaceOnUse" class="H">
            <feFlood result="A" class="I"/>
            <feColorMatrix in="SourceAlpha" values="0 0 0 0 0 0 0 0 0 0 0 0 0 0 0 0 0 0 127 0"/>
            <feOffset dx="4"/>
            <feGaussianBlur stdDeviation="4.5"/>
            <feColorMatrix values="0 0 0 0 0.258824 0 0 0 0 0.392157 0 0 0 0 0.658824 0 0 0 0.1 0"/>
            <feBlend in2="A" result="C"/>
            <feColorMatrix in="SourceAlpha" values="0 0 0 0 0 0 0 0 0 0 0 0 0 0 0 0 0 0 127 0"/>
            <feOffset dx="17"/>
            <feGaussianBlur stdDeviation="8.5"/>
            <feColorMatrix values="0 0 0 0 0.258824 0 0 0 0 0.392157 0 0 0 0 0.658824 0 0 0 0.09 0"/>
            <feBlend in2="C" result="D"/>
            <feColorMatrix in="SourceAlpha" values="0 0 0 0 0 0 0 0 0 0 0 0 0 0 0 0 0 0 127 0"/>
            <feOffset dx="38"/>
            <feGaussianBlur stdDeviation="11.5"/>
            <feColorMatrix values="0 0 0 0 0.258824 0 0 0 0 0.392157 0 0 0 0 0.658824 0 0 0 0.05 0"/>
            <feBlend in2="D" result="E"/>
            <feColorMatrix in="SourceAlpha" values="0 0 0 0 0 0 0 0 0 0 0 0 0 0 0 0 0 0 127 0"/>
            <feOffset dx="68"/>
            <feGaussianBlur stdDeviation="13.5"/>
            <feColorMatrix values="0 0 0 0 0.258824 0 0 0 0 0.392157 0 0 0 0 0.658824 0 0 0 0.01 0"/>
            <feBlend in2="E"/>
            <feBlend in="SourceGraphic"/>
        </filter>
        <filter id="a" x="77.99" y="93.106" width="239.61" height="107.066" filterUnits="userSpaceOnUse" class="H">
            <feFlood result="A" class="I"/>
            <feColorMatrix in="SourceAlpha" values="0 0 0 0 0 0 0 0 0 0 0 0 0 0 0 0 0 0 127 0"/>
            <feOffset dx="4"/>
            <feGaussianBlur stdDeviation="4.5"/>
            <feColorMatrix values="0 0 0 0 0.258824 0 0 0 0 0.392157 0 0 0 0 0.658824 0 0 0 0.1 0"/>
            <feBlend in2="A" result="C"/>
            <feColorMatrix in="SourceAlpha" values="0 0 0 0 0 0 0 0 0 0 0 0 0 0 0 0 0 0 127 0"/>
            <feOffset dx="17"/>
            <feGaussianBlur stdDeviation="8.5"/>
            <feColorMatrix values="0 0 0 0 0.258824 0 0 0 0 0.392157 0 0 0 0 0.658824 0 0 0 0.09 0"/>
            <feBlend in2="C" result="D"/>
            <feColorMatrix in="SourceAlpha" values="0 0 0 0 0 0 0 0 0 0 0 0 0 0 0 0 0 0 127 0"/>
            <feOffset dx="38"/>
            <feGaussianBlur stdDeviation="11.5"/>
            <feColorMatrix values="0 0 0 0 0.258824 0 0 0 0 0.392157 0 0 0 0 0.658824 0 0 0 0.05 0"/>
            <feBlend in2="D" result="E"/>
            <feColorMatrix in="SourceAlpha" values="0 0 0 0 0 0 0 0 0 0 0 0 0 0 0 0 0 0 127 0"/>
            <feOffset dx="68"/>
            <feGaussianBlur stdDeviation="13.5"/>
            <feColorMatrix values="0 0 0 0 0.258824 0 0 0 0 0.392157 0 0 0 0 0.658824 0 0 0 0.01 0"/>
            <feBlend in2="E"/>
            <feBlend in="SourceGraphic"/>
        </filter>
        <filter id="b" x="76.83" y=".67" width="240.77" height="139.746" filterUnits="userSpaceOnUse" class="H">
            <feFlood result="A" class="I"/>
            <feColorMatrix in="SourceAlpha" values="0 0 0 0 0 0 0 0 0 0 0 0 0 0 0 0 0 0 127 0"/>
            <feOffset dx="4"/>
            <feGaussianBlur stdDeviation="4.5"/>
            <feColorMatrix values="0 0 0 0 0.258824 0 0 0 0 0.392157 0 0 0 0 0.658824 0 0 0 0.1 0"/>
            <feBlend in2="A" result="C"/>
            <feColorMatrix in="SourceAlpha" values="0 0 0 0 0 0 0 0 0 0 0 0 0 0 0 0 0 0 127 0"/>
            <feOffset dx="17"/>
            <feGaussianBlur stdDeviation="8.5"/>
            <feColorMatrix values="0 0 0 0 0.258824 0 0 0 0 0.392157 0 0 0 0 0.658824 0 0 0 0.09 0"/>
            <feBlend in2="C" result="D"/>
            <feColorMatrix in="SourceAlpha" values="0 0 0 0 0 0 0 0 0 0 0 0 0 0 0 0 0 0 127 0"/>
            <feOffset dx="38"/>
            <feGaussianBlur stdDeviation="11.5"/>
            <feColorMatrix values="0 0 0 0 0.258824 0 0 0 0 0.392157 0 0 0 0 0.658824 0 0 0 0.05 0"/>
            <feBlend in2="D" result="E"/>
            <feColorMatrix in="SourceAlpha" values="0 0 0 0 0 0 0 0 0 0 0 0 0 0 0 0 0 0 127 0"/>
            <feOffset dx="68"/>
            <feGaussianBlur stdDeviation="13.5"/>
            <feColorMatrix values="0 0 0 0 0.258824 0 0 0 0 0.392157 0 0 0 0 0.658824 0 0 0 0.01 0"/>
            <feBlend in2="E"/>
            <feBlend in="SourceGraphic"/>
        </filter>
        <linearGradient id="c" x1="69.77" y1="33.123" x2="-20.342" y2="67.498" xlink:href="#y">
            <stop stop-color="#ffffff"/>
            <stop offset="1" stop-color="#ffffff" stop-opacity=".25"/>
        </linearGradient>
        <linearGradient id="d" x1="63.39" y1="22.025" x2="-20.401" y2="73.753" xlink:href="#y">
            <stop stop-color="#ffffff"/>
            <stop offset="1" stop-color="#ffffff" stop-opacity=".25"/>
        </linearGradient>
        <linearGradient id="e" x1="64.33" y1="21.002" x2="-21.647" y2="74.575" xlink:href="#y">
            <stop stop-color="#B4C4E4" stop-opacity=".1"/>
            <stop offset="1" stop-color="#B4C4E4"/>
        </linearGradient>
        <linearGradient id="f" x1="63.38" y1="123.105" x2="29.436" y2="175.928" xlink:href="#y">
            <stop stop-color="#ffffff"/>
            <stop offset="1" stop-color="#ffffff" stop-opacity=".25"/>
        </linearGradient>
        <linearGradient id="g" x1="64.31" y1="122.125" x2="28.221" y2="177.069" xlink:href="#y">
            <stop stop-color="#B4C4E4" stop-opacity=".1"/>
            <stop offset="1" stop-color="#B4C4E4"/>
        </linearGradient>
        <linearGradient id="h" x1="219.239" y1="121.016" x2="185.005" y2="211.001" xlink:href="#y">
            <stop stop-color="#ffffff"/>
            <stop offset="1" stop-color="#ffffff" stop-opacity=".25"/>
        </linearGradient>
        <linearGradient id="i" x1="112.75" y1="151.486" x2="108.425" y2="164.28" xlink:href="#y">
            <stop stop-color="#ffffff"/>
            <stop offset="1" stop-color="#ffffff" stop-opacity=".25"/>
        </linearGradient>
        <linearGradient id="j" x1="113.16" y1="151.016" x2="107.91" y2="165.262" xlink:href="#y">
            <stop stop-color="#B4C4E4" stop-opacity=".1"/>
            <stop offset="1" stop-color="#B4C4E4"/>
        </linearGradient>
        <linearGradient id="k" x1="123.51" y1="152.035" x2="116.715" y2="158.039" xlink:href="#y">
            <stop stop-color="#ffffff"/>
            <stop offset="1" stop-color="#ffffff" stop-opacity=".25"/>
        </linearGradient>
        <linearGradient id="l" x1="123.95" y1="151.535" x2="116.188" y2="158.402" xlink:href="#y">
            <stop stop-color="#B4C4E4" stop-opacity=".1"/>
            <stop offset="1" stop-color="#B4C4E4"/>
        </linearGradient>
        <linearGradient id="m" x1="136.02" y1="152.266" x2="129.213" y2="160.721" xlink:href="#y">
            <stop stop-color="#ffffff"/>
            <stop offset="1" stop-color="#ffffff" stop-opacity=".25"/>
        </linearGradient>
        <linearGradient id="n" x1="136.48" y1="151.746" x2="128.674" y2="161.139" xlink:href="#y">
            <stop stop-color="#B4C4E4" stop-opacity=".1"/>
            <stop offset="1" stop-color="#B4C4E4"/>
        </linearGradient>
        <linearGradient id="o" x1="166.51" y1="152.525" x2="162.641" y2="166.339" xlink:href="#y">
            <stop stop-color="#ffffff"/>
            <stop offset="1" stop-color="#ffffff" stop-opacity=".25"/>
        </linearGradient>
        <linearGradient id="p" x1="166.96" y1="152.045" x2="162.224" y2="167.474" xlink:href="#y">
            <stop stop-color="#B4C4E4" stop-opacity=".1"/>
            <stop offset="1" stop-color="#B4C4E4"/>
        </linearGradient>
        <linearGradient id="q" x1="199.48" y1="152.705" x2="194.753" y2="168.494" xlink:href="#y">
            <stop stop-color="#B4C4E4" stop-opacity=".1"/>
            <stop offset="1" stop-color="#B4C4E4"/>
        </linearGradient>
        <linearGradient id="r" x1="219.24" y1="28.461" x2="143.769" y2="150.576" xlink:href="#y">
            <stop stop-color="#ffffff"/>
            <stop offset="1" stop-color="#ffffff" stop-opacity=".25"/>
        </linearGradient>
        <linearGradient id="s" x1="173.122" y1="19.33" x2="91.127" y2="114.647" xlink:href="#y">
            <stop stop-color="#ffffff"/>
            <stop offset="1" stop-color="#ffffff" stop-opacity=".25"/>
        </linearGradient>
        <linearGradient id="t" x1="174.071" y1="18.301" x2="89.971" y2="115.481" xlink:href="#y">
            <stop stop-color="#B4C4E4" stop-opacity=".1"/>
            <stop offset="1" stop-color="#B4C4E4"/>
        </linearGradient>
        <linearGradient id="u" x1="210.01" y1="17.295" x2="168.379" y2="40.18" xlink:href="#y">
            <stop stop-color="#ffffff"/>
            <stop offset="1" stop-color="#ffffff" stop-opacity=".25"/>
        </linearGradient>
        <linearGradient id="v" x1="210.94" y1="16.297" x2="167.039" y2="41.038" xlink:href="#y">
            <stop stop-color="#B4C4E4" stop-opacity=".1"/>
            <stop offset="1" stop-color="#B4C4E4"/>
        </linearGradient>
        <linearGradient id="w" x1="211.141" y1="79.486" x2="189.013" y2="105.78" xlink:href="#y">
            <stop stop-color="#ffffff"/>
            <stop offset="1" stop-color="#ffffff" stop-opacity=".25"/>
        </linearGradient>
        <linearGradient id="x" x1="212.02" y1="78.506" x2="187.838" y2="106.662" xlink:href="#y">
            <stop stop-color="#B4C4E4" stop-opacity=".1"/>
            <stop offset="1" stop-color="#B4C4E4"/>
        </linearGradient>
        <linearGradient id="y" gradientUnits="userSpaceOnUse"/>
    </defs>
</svg>