<svg xmlns:xlink="http://www.w3.org/1999/xlink" xmlns="http://www.w3.org/2000/svg" width="212" height="135" fill="none">
    <style>
        <![CDATA[.B{fill:#B4C4E4}.C{fill:#fff}.D{opacity:.5}.E{opacity:.75}.F{fill:#ffffff}.G{fill-opacity:.75}]]></style>
    <g filter="url(#M)">
        <mask id="A" maskUnits="userSpaceOnUse" x="146" y="28" width="4" height="1">
            <path d="M147.825 28.78l1.51.17c-.07 0-.14-.02-.22-.02s-.15-.01-.22-.01h-.22-.22l-1.51-.17h.22.22l.22.01c.07.01.15.01.22.02z"
                  class="C"/>
        </mask>
        <g mask="url(#A)" class="B">
            <path d="M147.825 28.78l1.51.17c-.07 0-.14-.02-.22-.02s-.15-.01-.22-.01h-.22-.22l-1.51-.17h.22.22l.22.01c.07.01.15.01.22.02z"/>
        </g>
        <mask id="B" maskUnits="userSpaceOnUse" x="146" y="106" width="4" height="1">
            <path d="M149.335 106.602l-1.51.17c-.07 0-.14.02-.22.02l-.22.01h-.22-.22l1.51-.17h.22.22l.22-.01c.07-.01.14-.01.22-.02z"
                  class="C"/>
        </mask>
        <g mask="url(#B)" class="B">
            <path d="M146.945 106.811l1.51-.17h.22.22l.22-.01c.07-.01.14-.01.22-.02l-1.51.17c-.07 0-.14.02-.22.02l-.22.01h-.22-.22z"/>
        </g>
        <mask id="C" maskUnits="userSpaceOnUse" x="147" y="99" width="9" height="8">
            <path d="M149.335 106.6l-1.51.17c.87-.1 1.69-.37 2.43-.78a6.93 6.93 0 0 0 1.96-1.62c.55-.66 1-1.42 1.31-2.27a7.91 7.91 0 0 0 .48-2.729l1.49-.14a7.8 7.8 0 0 1-.48 2.709c-.31.84-.75 1.6-1.31 2.26s-1.21 1.2-1.95 1.61-1.56.68-2.42.77v.02z"
                  class="C"/>
        </mask>
        <g mask="url(#C)" class="F">
            <path d="M154.005 99.38l1.49-.14a7.8 7.8 0 0 1-.48 2.71c-.31.84-.75 1.6-1.31 2.26s-1.21 1.2-1.95 1.61-1.56.68-2.42.77l-1.51.17c.87-.1 1.69-.37 2.43-.78a6.93 6.93 0 0 0 1.96-1.62c.55-.66 1-1.42 1.31-2.27a7.91 7.91 0 0 0 .48-2.73"/>
        </g>
        <path d="M154.005 36.182l1.49.14v62.92l-1.49.14v-63.2z" class="F"/>
        <mask id="D" maskUnits="userSpaceOnUse" x="147" y="28" width="9" height="9">
            <path d="M147.825 28.782l1.51.17a6.73 6.73 0 0 1 2.42.77 6.69 6.69 0 0 1 1.95 1.61 7.69 7.69 0 0 1 1.31 2.26c.31.84.48 1.76.48 2.72l-1.49-.14a7.87 7.87 0 0 0-.48-2.73c-.31-.84-.75-1.61-1.31-2.27a7.07 7.07 0 0 0-1.96-1.62c-.74-.41-1.56-.68-2.43-.78v.01z"
                  class="C"/>
        </mask>
        <g mask="url(#D)" class="F">
            <path d="M147.825 28.782l1.51.17a6.73 6.73 0 0 1 2.42.77 6.69 6.69 0 0 1 1.95 1.61 7.69 7.69 0 0 1 1.31 2.26c.31.84.48 1.76.48 2.72l-1.49-.14a7.87 7.87 0 0 0-.48-2.73c-.31-.84-.75-1.61-1.31-2.27a7.07 7.07 0 0 0-1.96-1.62c-.74-.41-1.56-.68-2.43-.78"/>
        </g>
        <path d="M146.945 28.742a6.45 6.45 0 0 1 2.74.54c.84.37 1.6.9 2.24 1.58s1.16 1.48 1.52 2.38a7.89 7.89 0 0 1 .56 2.94v63.21a7.84 7.84 0 0 1-.56 2.93 7.68 7.68 0 0 1-1.52 2.38c-.64.68-1.4 1.21-2.24 1.58a6.45 6.45 0 0 1-2.74.54l-96.88-2.03c-.87-.02-1.7-.24-2.45-.61s-1.43-.91-2-1.57a7.49 7.49 0 0 1-1.35-2.29 7.97 7.97 0 0 1-.49-2.78v-59.5a8.26 8.26 0 0 1 .49-2.79c.31-.86.78-1.64 1.35-2.3s1.25-1.19 2-1.57 1.58-.6 2.45-.61l96.88-2.03z"
              fill="url(#N)"/>
        <mask id="E" maskUnits="userSpaceOnUse" x="147" y="99" width="10" height="9">
            <path d="M149.485 107.612l-1.51.18c.98-.11 1.91-.42 2.75-.89s1.59-1.09 2.22-1.84 1.14-1.62 1.48-2.57a9.2 9.2 0 0 0 .54-3.09l1.49-.14a8.9 8.9 0 0 1-.54 3.08c-.35.95-.85 1.82-1.48 2.56s-1.38 1.36-2.21 1.83-1.76.77-2.74.88z"
                  class="C"/>
        </mask>
        <g mask="url(#E)" class="B">
            <path d="M154.965 99.402l1.49-.14a8.9 8.9 0 0 1-.54 3.08c-.35.95-.85 1.82-1.48 2.56s-1.38 1.36-2.21 1.83-1.76.77-2.74.88l-1.51.18c.98-.11 1.91-.42 2.75-.89s1.59-1.09 2.22-1.84 1.14-1.62 1.48-2.57a9.2 9.2 0 0 0 .54-3.09z"/>
        </g>
        <path d="M154.965 36.16l1.49.14v62.96l-1.49.14V36.16z" class="B"/>
        <mask id="F" maskUnits="userSpaceOnUse" x="147" y="27" width="10" height="10">
            <path d="M147.975 27.76l1.51.18c.98.11 1.9.42 2.74.88s1.59 1.09 2.21 1.83 1.13 1.61 1.48 2.56a8.9 8.9 0 0 1 .54 3.08l-1.49-.14c0-1.09-.19-2.14-.54-3.1s-.85-1.83-1.48-2.57a8.17 8.17 0 0 0-2.22-1.84c-.84-.47-1.77-.77-2.75-.89v.01z"
                  class="C"/>
        </mask>
        <g mask="url(#F)" class="B">
            <path d="M147.975 27.76l1.51.18c.98.11 1.9.42 2.74.88s1.59 1.09 2.21 1.83 1.13 1.61 1.48 2.56a8.9 8.9 0 0 1 .54 3.08l-1.49-.14c0-1.09-.19-2.14-.54-3.1s-.85-1.83-1.48-2.57a8.17 8.17 0 0 0-2.22-1.84c-.84-.47-1.77-.77-2.75-.89"/>
        </g>
        <path d="M146.945 27.721c1.1-.02 2.15.19 3.11.61a7.96 7.96 0 0 1 2.55 1.79 8.25 8.25 0 0 1 1.72 2.7c.4 1.02.63 2.15.63 3.34v63.24a9.09 9.09 0 0 1-.63 3.33c-.4 1.02-1 1.94-1.72 2.7s-1.59 1.38-2.55 1.79a7.54 7.54 0 0 1-3.11.61l-96.88-2.09c-.99-.02-1.93-.27-2.79-.7s-1.62-1.04-2.27-1.79a8.46 8.46 0 0 1-1.53-2.6c-.36-.97-.56-2.04-.56-3.16v-59.43c0-1.12.2-2.19.56-3.16s.88-1.86 1.53-2.61 1.42-1.36 2.27-1.79a6.47 6.47 0 0 1 2.79-.7l96.88-2.09v.01zm7.06 71.67v-63.21a7.89 7.89 0 0 0-.56-2.94c-.36-.9-.88-1.71-1.52-2.38s-1.4-1.21-2.24-1.58a6.45 6.45 0 0 0-2.74-.54l-96.88 2.03c-.87.02-1.7.24-2.45.61s-1.43.91-2 1.57a7.54 7.54 0 0 0-1.35 2.3c-.32.86-.49 1.8-.49 2.79v59.48c0 .98.18 1.92.49 2.78s.78 1.64 1.35 2.29 1.25 1.19 2 1.57 1.58.6 2.45.61l96.88 2.03a6.45 6.45 0 0 0 2.74-.54c.84-.37 1.6-.9 2.24-1.58s1.16-1.48 1.52-2.38.56-1.89.56-2.93"
              class="B"/>
    </g>
    <g class="E">
        <mask id="G" maskUnits="userSpaceOnUse" x="1" y="37" width="35" height="64">
            <path d="M1.935 100.33V37.59l33.5-.59v63.92l-33.5-.59z" class="C"/>
        </mask>
        <g mask="url(#G)">
            <mask id="H" maskUnits="userSpaceOnUse" x="21" y="37" width="15" height="16">
                <path d="M21.345 37.25l14.09-.25v15.51l-14.09.13V37.25z" class="C"/>
            </mask>
            <g mask="url(#H)">
                <path d="M28.365 43.411c-.09 0-.17.01-.26.03s-.17.05-.25.09a1.09 1.09 0 0 0-.23.14c-.07.06-.14.11-.2.18s-.12.14-.16.22-.09.16-.12.25-.06.18-.07.27l-.02.28c0 .1 0 .19.02.29a2.13 2.13 0 0 0 .07.27 1.15 1.15 0 0 0 .12.25 1.77 1.77 0 0 0 .16.22c.06.07.13.13.2.18a1.71 1.71 0 0 0 .23.13c.08.04.16.06.25.08a1.14 1.14 0 0 0 .26.02c.09 0 .17-.01.26-.03s.16-.05.24-.08.15-.08.22-.13.14-.11.2-.18a1.84 1.84 0 0 0 .17-.22 1.15 1.15 0 0 0 .12-.25l.08-.27c.02-.09.03-.19.03-.29s0-.19-.03-.28-.04-.18-.08-.27-.07-.17-.12-.25a1.18 1.18 0 0 0-.17-.22c-.07-.07-.13-.13-.2-.18s-.15-.1-.22-.13a1.69 1.69 0 0 0-.24-.08c-.08-.02-.17-.03-.26-.02m0 4.66h.2.2.2.19l-.19.27a2.56 2.56 0 0 1-.2.26l-.2.25-.2.23a2.2 2.2 0 0 1-.2-.23c-.06-.08-.13-.16-.2-.24s-.13-.17-.2-.26l-.2-.27h.19.2.2.2m-2.86 2.99h-.09c-.03 0-.06 0-.08-.01s-.05-.01-.08-.02-.05-.02-.07-.03c-.1-.06-.18-.16-.25-.3s-.12-.32-.16-.53-.06-.44-.06-.71l.04-.85c0-.07.02-.15.03-.22l.03-.23.04-.23c.01-.07.03-.16.05-.24.14.04.28.07.43.1l.45.09.46.07.48.06.29.42.29.4c.09.13.2.26.3.38l.3.36c-.23.24-.46.46-.68.64s-.44.34-.64.47-.4.22-.58.29-.35.1-.5.1m5.73-.07c-.15 0-.32-.03-.5-.09a3.05 3.05 0 0 1-.58-.28c-.2-.12-.42-.28-.65-.46s-.45-.39-.69-.62l.3-.36.3-.38.3-.41.29-.43.48-.07.47-.08.45-.1.43-.12.05.24c.02.08.03.16.04.23l.03.23.03.22a6.43 6.43 0 0 1 .05.85 3.84 3.84 0 0 1-.06.71c-.04.21-.09.39-.16.53s-.15.25-.25.31c-.02.02-.04.03-.07.04l-.08.03c-.03.01-.06.01-.09.02s-.06 0-.1 0m-5-3.76c-.1-.01-.2-.03-.3-.05l-.3-.06-.29-.06-.29-.07.08-.3.09-.31.1-.31.11-.31.09.19.09.19c.03.06.06.13.1.19s.07.13.1.19l.1.18.1.18.1.18.1.18m4.25-.05c.04-.06.07-.12.11-.19l.11-.19.11-.19c.04-.06.07-.13.1-.2l.1-.19.09-.19.09-.19.09-.19.11.31.1.31.09.31.09.31-.29.08c-.1.03-.2.05-.29.07l-.3.06-.31.06m-6.05-.36l-.21-.07a1.19 1.19 0 0 1-.2-.08c-.06-.03-.13-.05-.2-.08l-.19-.08c-.25-.11-.49-.24-.69-.37s-.38-.26-.52-.4-.26-.27-.33-.41-.12-.27-.12-.39.04-.25.12-.39a2.02 2.02 0 0 1 .33-.42c.14-.14.32-.28.52-.42s.43-.27.69-.39l.18-.09a1.54 1.54 0 0 1 .19-.08c.06-.02.13-.05.2-.08l.21-.08.13.46.15.47.17.48.19.49-.19.49-.17.48-.15.48-.13.47m7.86-.1l-.13-.47c-.04-.16-.1-.31-.15-.47l-.17-.48-.19-.49.19-.49.17-.48.15-.48.13-.47.21.07c.07.03.14.05.21.07s.13.05.2.08.13.06.2.08l.69.37c.2.13.38.27.53.4s.26.27.34.41.12.26.12.39a.83.83 0 0 1-.12.4c-.08.14-.19.28-.34.42s-.33.28-.53.42-.44.27-.7.39l-.19.09a1.19 1.19 0 0 1-.2.08c-.07.02-.13.05-.2.08s-.14.05-.21.07m-6.86-2.66l-.11-.32-.1-.31-.09-.31-.08-.31.29-.07.29-.07.3-.06.31-.06-.11.18c-.04.06-.07.12-.11.19l-.1.19c-.03.07-.07.13-.1.19l-.1.19-.09.19-.09.19-.09.19m5.84-.09l-.09-.19-.09-.19c-.03-.06-.06-.13-.1-.19s-.07-.13-.1-.19l-.1-.19-.1-.18-.1-.18a1.74 1.74 0 0 0-.11-.18c.1.01.2.03.3.05l.3.05.29.06.29.07-.09.31-.09.31-.1.32c-.03.11-.07.21-.11.32zm-2.92 3.42h-.33-.32c-.1 0-.21 0-.32-.02s-.21-.01-.32-.02l-.17-.28-.17-.29c-.05-.1-.12-.2-.17-.3l-.17-.31-.16-.31-.15-.31-.14-.31-.14-.32.14-.32.15-.32.15-.32.16-.32.17-.32.17-.31.17-.3c.05-.1.12-.19.18-.29l.32-.03.32-.02a3.23 3.23 0 0 0 .32-.02c.1-.01.22 0 .33 0h.33.32l.32.01.32.02.18.29.18.29.17.3.17.31.16.31.15.31.15.31c.05.1.09.21.14.32l-.14.32-.15.32-.15.32c-.05.11-.1.21-.16.31l-.17.32-.17.31-.18.3-.18.29-.32.03-.32.02c-.11 0-.22.01-.33.02s-.22 0-.33 0m-.8-5.71l.2-.27c.07-.08.13-.18.2-.26l.2-.25.2-.23c.07.07.13.15.2.23l.2.24.2.25c.07.08.13.18.2.27h-.2-.2-.2-.2-.2-.2-.2l-.2.01m-2.67.46l-.05-.23a1.57 1.57 0 0 1-.04-.23l-.03-.22-.03-.22c-.03-.3-.05-.58-.04-.84l.06-.7c.04-.2.09-.39.16-.53s.15-.25.25-.31c.03-.01.05-.03.08-.04l.08-.03c.02-.01.06-.01.08-.02s.05 0 .08 0c.15 0 .31.03.49.09s.37.15.58.27a4.71 4.71 0 0 1 .64.45l.69.62-.3.36-.3.39-.29.41-.29.43-.48.07-.46.09-.45.1-.43.11m6.94-.1c-.14-.04-.29-.07-.44-.1l-.45-.09-.46-.07-.48-.06-.29-.42c-.09-.14-.2-.27-.3-.4l-.3-.38-.3-.35c.23-.24.46-.46.69-.64l.64-.47c.2-.13.4-.23.58-.29s.35-.1.5-.11h.09c.03 0 .06 0 .09.01s.05.01.08.02.05.02.07.03c.1.06.18.16.25.3s.12.32.16.53.06.44.06.71l-.04.84c0 .07-.01.15-.02.23l-.03.23-.04.24-.04.24m-.61-4.1c-.2 0-.41.05-.64.12s-.46.19-.71.34a5.85 5.85 0 0 0-.75.54c-.25.21-.52.46-.78.73l-.77-.7c-.25-.2-.51-.38-.75-.52a3.57 3.57 0 0 0-.7-.32 1.8 1.8 0 0 0-.63-.1c-.06 0-.12 0-.18.01s-.11.02-.17.04l-.16.06c-.05.02-.1.05-.15.08-.2.13-.36.33-.49.58s-.21.56-.26.92-.06.76-.03 1.19.1.91.2 1.41c-.45.16-.85.34-1.21.53s-.67.41-.92.63-.46.46-.59.71-.21.49-.21.75.07.51.21.75a2.68 2.68 0 0 0 .59.69 5.35 5.35 0 0 0 .93.61c.36.19.77.35 1.21.5-.1.5-.17.98-.2 1.42a5.86 5.86 0 0 0 .03 1.2c.05.36.13.66.26.91s.29.44.49.57c.05.03.1.05.15.08s.1.04.16.06a.51.51 0 0 0 .17.03c.06 0 .12.01.18.01.2 0 .41-.04.63-.12s.46-.19.7-.34.49-.33.75-.54a8.52 8.52 0 0 0 .78-.72 8.2 8.2 0 0 0 .78.7c.26.2.51.38.75.52a3.57 3.57 0 0 0 .7.32c.22.07.44.11.63.11.06 0 .12 0 .18-.01l.17-.03a.44.44 0 0 0 .16-.06c.05-.03.1-.05.15-.08a1.41 1.41 0 0 0 .49-.58c.12-.25.21-.56.26-.92a5.86 5.86 0 0 0 .03-1.2 11.1 11.1 0 0 0-.2-1.41c.45-.16.86-.34 1.22-.53s.68-.41.93-.64.46-.47.6-.71.21-.5.21-.76-.07-.51-.21-.75-.34-.48-.6-.7-.58-.42-.94-.61-.77-.35-1.22-.5c.1-.5.17-.98.2-1.42a5.84 5.84 0 0 0-.03-1.2c-.05-.35-.13-.67-.26-.92s-.29-.44-.49-.57c-.05-.03-.1-.05-.15-.08s-.1-.04-.16-.05-.11-.03-.17-.03h-.18"
                      fill="#61dafb"/>
            </g>
            <path d="M9.375 89.799c-.36 0-.68.03-.97.11s-.53.2-.72.35a1.53 1.53 0 0 0-.45.56 1.81 1.81 0 0 0-.16.76c0 .31.05.56.15.77a1.25 1.25 0 0 0 .44.5c.19.13.43.23.7.31s.59.13.93.17l.98.16c.25.05.42.12.54.19s.19.14.23.22.05.16.05.25c0 .16-.03.29-.09.4a.7.7 0 0 1-.27.27c-.12.07-.28.12-.47.15s-.42.04-.69.04a3.72 3.72 0 0 1-.82-.08c-.22-.05-.38-.12-.51-.21s-.21-.21-.28-.35a1.41 1.41 0 0 1-.12-.48l-.15-.15h-.65-.06c-.02 0-.03.02-.05.03s-.02.03-.03.05-.01.04-.01.06a2.25 2.25 0 0 0 .11.72c.08.24.2.47.4.67s.46.38.81.5.8.2 1.35.21c.4 0 .76-.03 1.07-.11s.58-.2.79-.36.38-.36.49-.6.17-.51.17-.81a1.91 1.91 0 0 0-.14-.76c-.09-.21-.23-.37-.42-.5s-.43-.24-.71-.32-.62-.15-1.01-.22l-.93-.17c-.23-.06-.4-.1-.52-.16s-.19-.12-.22-.19a.67.67 0 0 1-.05-.26c0-.09 0-.18.04-.27s.08-.18.17-.25.21-.14.39-.19.4-.07.69-.07c.26 0 .48.02.66.06s.34.1.46.18.22.19.29.32.13.3.17.49l.14.13h.66l.11-.04.03-.13a2.32 2.32 0 0 0-.21-.87c-.12-.25-.27-.45-.48-.62s-.46-.29-.77-.37-.66-.13-1.07-.13m-1.35-4.64h-.14c-.05 0-.09.01-.14.03s-.09.03-.13.04-.09.04-.13.06l-5.02 3.18c-.08.05-.16.11-.22.18s-.12.15-.17.24a.94.94 0 0 0-.1.28c-.02.1-.04.2-.04.31v6.44a1.1 1.1 0 0 0 .04.31c.03.1.06.19.1.28s.1.17.17.24.14.14.22.19l1.31.86.41.21c.12.05.21.09.3.11s.16.04.24.04h.21c.24 0 .45-.03.63-.11s.34-.19.47-.33.22-.33.29-.55a2.41 2.41 0 0 0 .1-.74v-6.37s0-.04-.01-.06-.02-.04-.03-.05-.03-.03-.05-.03-.04-.01-.06-.01h-.64-.06c-.02 0-.03.02-.05.03s-.02.03-.03.05-.01.04-.01.07v6.36c0 .09-.02.18-.05.27s-.07.16-.13.23-.13.12-.21.16-.18.06-.29.06c-.04 0-.08 0-.12-.01l-.13-.03c-.05-.01-.09-.03-.14-.05s-.09-.04-.14-.07l-1.38-.9-.08-.15v-6.44l.08-.15 5.03-3.17h.15l5.05 3.29.08.15v6.48l-.08.15-5.05 3.15h-.16l-1.29-.87h-.13c-.09.04-.16.09-.22.12l-.16.09c-.05.03-.1.05-.16.07l-.21.08c-.02 0-.04.02-.06.03s-.03.03-.04.05 0 .04.02.07.06.06.12.1l1.68 1.13.12.07c.04.02.09.04.13.05s.09.03.13.03.09.01.14.01h.14c.05 0 .09-.02.14-.03s.09-.03.13-.05l.13-.07 5.06-3.15c.08-.05.16-.11.22-.18s.12-.15.17-.24a1.36 1.36 0 0 0 .11-.28c.03-.1.04-.2.04-.31v-6.48c0-.11-.01-.21-.04-.31s-.06-.2-.11-.28-.1-.17-.17-.25a.97.97 0 0 0-.22-.19l-5.06-3.29-.12-.07c-.04-.02-.09-.03-.13-.05s-.09-.02-.14-.03-.09-.01-.14-.01"
                  fill="#393"/>
            <path d="M26.985 74.569c.06 0 .11 0 .17-.02s.11-.03.16-.06.1-.06.14-.11.08-.11.11-.18c.03-.05.05-.14.07-.25s.02-.25.02-.4v-.51-.58-.93-.93-.93-.93h1.32v.04 1 1 .99.99.6l-.01.56a2.96 2.96 0 0 1-.07.52c-.04.17-.09.32-.17.47a1.29 1.29 0 0 1-.19.32c-.08.1-.16.18-.25.25s-.19.14-.3.19l-.33.14c-.06.01-.11.03-.17.04l-.17.03-.17.02c-.06.01-.11 0-.16 0-.11 0-.22 0-.33-.02l-.31-.07a2.49 2.49 0 0 1-.29-.11 1.82 1.82 0 0 1-.27-.15l-.23-.19-.21-.23c-.07-.08-.12-.17-.18-.26s-.11-.19-.15-.29l1.07-.72.07.13c.03.06.07.12.1.17s.07.1.11.15a.68.68 0 0 0 .12.12 1.95 1.95 0 0 0 .15.1c.02 0 .04.01.07.02s.05.01.08.02.06 0 .09.01.06 0 .09 0m5.05-.01a1.6 1.6 0 0 0 .39-.05.76.76 0 0 0 .31-.16.67.67 0 0 0 .19-.29c.04-.12.04-.26.01-.42-.04-.15-.14-.28-.28-.39s-.33-.21-.54-.31l-.66-.32c-.23-.12-.45-.25-.65-.42a1.67 1.67 0 0 1-.49-.59 2.29 2.29 0 0 1-.23-.77c-.03-.27-.02-.55.04-.81a1.91 1.91 0 0 1 .34-.72c.06-.08.12-.15.2-.22s.16-.13.24-.18a2.29 2.29 0 0 1 .27-.14c.09-.04.19-.07.29-.1l.41-.06h.04.02a2.9 2.9 0 0 1 .54.04c.16.03.3.07.43.13a1.71 1.71 0 0 1 .35.21c.1.08.2.18.29.29.02.03.05.06.07.09s.05.06.08.1l.09.13c.04.05.07.11.11.18l-.25.17-.19.13-.23.16-.36.26c-.03-.08-.07-.15-.11-.21a1.15 1.15 0 0 0-.14-.17.79.79 0 0 0-.15-.12c-.05-.03-.11-.06-.17-.08-.02 0-.04-.01-.06-.02s-.04 0-.07-.01-.04 0-.07 0h-.07c-.07 0-.14 0-.21.03s-.13.05-.19.09-.11.09-.15.15-.07.13-.09.21c0 .03-.01.06-.02.1s0 .07 0 .1 0 .07.01.12l.03.14c.04.09.1.17.17.24a1 1 0 0 0 .26.18l.31.16.33.16c.31.14.57.28.79.43s.39.29.53.45.24.31.31.48.12.33.15.51l-.02-.05c.02.15.03.29.03.41s0 .23-.02.32l-.04.22c-.01.05-.02.09-.03.1a1.69 1.69 0 0 1-.31.63 1.91 1.91 0 0 1-.5.44c-.19.12-.4.2-.63.26a2.71 2.71 0 0 1-.69.08 3.19 3.19 0 0 1-.54-.05c-.17-.03-.35-.08-.52-.15s-.32-.15-.47-.24-.27-.2-.38-.33a1.43 1.43 0 0 0-.15-.18c-.05-.05-.09-.11-.13-.16s-.07-.11-.11-.17-.07-.13-.1-.2l1.07-.68c.07.12.14.23.22.32l.23.25a1.27 1.27 0 0 0 .27.18c.1.05.2.09.32.12h.06.06.06.06m3.4-12.95l-14.08.06v15.39l14.08.06v-15.51z"
                  fill="#f7df1e"/>
            <path d="M11.315 47.66l-.43-.72-.43-.72v-1.95-.84-.62-.39-.15l.13-.19s.03-.02.04-.02.03 0 .05-.01.04 0 .08 0h.13.12.08.05c.02 0 .02 0 .03.02l.14.18v.18.5.85 1.21 2.69m-2.77-10.19h-.07-.06-.05-.03-.03-.05-.06-.07a6.36 6.36 0 0 0-1.43.35c-.46.17-.91.4-1.33.68a7.31 7.31 0 0 0-1.18.98c-.36.37-.69.79-.98 1.24a7.44 7.44 0 0 0-.44.78l-.35.82-.26.86c-.07.29-.12.59-.16.89l-.03.27c0 .08-.01.15-.02.23s0 .16 0 .26v.35.36.26c0 .08.01.15.02.23l.03.27a7.99 7.99 0 0 0 .54 2.03c.26.63.6 1.23 1.01 1.76s.88 1 1.41 1.39a6.69 6.69 0 0 0 1.73.92l.34.11.35.09c.12.03.24.05.37.07l.39.06h.11.16.19.21.21.19.16.11l.67-.12.63-.17c.21-.06.4-.15.6-.23s.39-.19.59-.3c.03-.02.05-.03.07-.05s.03-.02.04-.03l.02-.02s-.04-.05-.1-.14l-.24-.36-.35-.53-.43-.64-1.11-1.64-1.38-2.25-.54-.88-.44-.71-.3-.48-.11-.18v.18.48.71.86 1.26.67.28c0 .05 0 .06-.01.08l-.12.14s-.02.01-.03.02-.03 0-.05 0h-.08-.12-.23l-.06-.03-.09-.12-.03-.06V45.5v-2.99l.04-.06.1-.09s.03-.01.04-.02.03 0 .05-.01.05 0 .08 0h.14.17c.05 0 .08 0 .11.01s.05.02.07.03a.12.12 0 0 1 .05.05l.14.23.36.59.53.87.64 1.06.68 1.14.68 1.14.68 1.14.68 1.14 1.1 1.82.05-.04.37-.3.37-.34.36-.37.33-.39a8.54 8.54 0 0 0 .6-.88c.18-.3.34-.63.47-.96l.35-1.02a6.53 6.53 0 0 0 .21-1.07l.03-.27.02-.23c.01-.08 0-.16 0-.26v-.36-.35-.26c0-.08 0-.15-.02-.23s-.02-.17-.03-.27c-.1-.72-.28-1.41-.55-2.05s-.61-1.24-1.02-1.77a7.19 7.19 0 0 0-1.42-1.39c-.53-.39-1.12-.7-1.74-.91-.11-.04-.22-.07-.34-.1l-.35-.09c-.12-.03-.24-.05-.37-.07l-.38-.05h-.14-.78"
                  fill="#000000"/>
            <path d="M3.865 69.42v-1.37h5.48v1.38h-1.98v6.14h-1.55v-6.13h-1.95m7.91 4.94h.14c.04 0 .09 0 .13-.01s.08-.01.12-.02l.11-.03c.04 0 .07-.02.1-.03s.06-.02.09-.04.06-.03.08-.04.05-.03.08-.05c.02-.02.05-.04.07-.06l.06-.06c.02-.02.03-.04.05-.06s.03-.04.04-.07l.03-.09c.01-.03.02-.06.02-.09s0-.06.01-.09 0-.06 0-.09 0-.06-.01-.09-.01-.06-.02-.09l-.03-.08c-.01-.02-.03-.05-.04-.08-.02-.03-.05-.06-.07-.09s-.05-.06-.08-.08-.05-.05-.08-.07-.06-.05-.09-.07c-.04-.03-.07-.06-.11-.08s-.08-.05-.11-.07-.08-.05-.12-.07l-.12-.06c-.05-.02-.1-.05-.15-.07s-.1-.05-.15-.07-.1-.05-.15-.07-.1-.05-.15-.07l-.37-.19c-.12-.06-.22-.14-.32-.22s-.19-.15-.27-.24l-.22-.25-.17-.28a1.66 1.66 0 0 1-.12-.31c-.03-.11-.06-.22-.07-.33l-.02-.36.01-.28.04-.26.07-.24.09-.22.12-.2c.04-.06.09-.12.14-.18s.1-.11.15-.16a2.59 2.59 0 0 1 .17-.15c.06-.05.13-.09.2-.13l.21-.11.21-.09c.07-.03.15-.05.22-.07l.25-.06c.08-.02.17-.03.26-.04l.26-.03c.09-.01.17 0 .26 0h.26l.24.01.23.02.21.03c.06.01.13.02.19.04s.13.03.19.05l.19.06.18.07v1.57l-.09-.06-.09-.06c-.03-.02-.06-.04-.1-.05s-.06-.03-.1-.05c-.03-.02-.07-.03-.1-.05s-.07-.03-.1-.04-.07-.03-.1-.04-.07-.02-.11-.04c-.07-.02-.13-.04-.2-.05s-.14-.03-.2-.04a1.36 1.36 0 0 0-.21-.02h-.21-.13c-.05 0-.08 0-.12.01s-.08.01-.12.02-.07.01-.11.02c-.03 0-.06.02-.1.03s-.06.02-.09.03-.06.03-.09.04-.06.03-.09.05c-.02.02-.05.04-.07.05s-.04.04-.06.06-.04.04-.05.06-.03.04-.05.07c-.01.02-.02.05-.03.07s-.02.05-.03.08-.01.05-.02.08 0 .06 0 .09v.09c0 .03 0 .06.02.09s.02.05.03.08a.3.3 0 0 0 .04.08c.02.02.03.05.05.07s.04.05.06.07.04.05.07.07.05.05.08.07a.55.55 0 0 1 .09.07c.03.03.06.04.1.07s.07.04.1.06.07.04.11.06.08.04.12.07.09.04.13.07.09.04.14.07.09.04.14.07c.07.03.14.06.2.1s.13.07.19.1l.18.1c.06.03.11.07.16.1.05.04.11.07.16.11l.15.12c.05.04.09.08.13.12l.12.13c.04.04.07.09.11.14s.07.1.09.15.06.1.08.16.05.11.07.17a1.21 1.21 0 0 1 .05.18l.04.19a1.36 1.36 0 0 1 .02.21v.22l-.01.3-.04.28c-.02.09-.04.17-.07.25s-.06.16-.1.23c-.03.07-.07.14-.12.2s-.09.13-.14.18l-.16.16-.17.14c-.06.05-.13.09-.2.13l-.21.11c-.07.04-.14.06-.22.08l-.22.06-.25.05-.26.04-.26.02h-.27-.27c-.09 0-.18 0-.27-.02s-.18-.02-.26-.03a2.38 2.38 0 0 1-.26-.05c-.07-.02-.15-.03-.22-.06s-.15-.05-.22-.07-.14-.06-.21-.09l-.21-.1v-1.68a4.23 4.23 0 0 0 .41.33c.14.1.3.18.46.24s.32.12.49.15a4.26 4.26 0 0 0 .5.06m3.29-12.67l-12.48.05a.54.54 0 0 0-.25.06.62.62 0 0 0-.2.15c-.05.06-.11.14-.14.23s-.05.18-.05.28v13.8c0 .1.02.19.05.28s.08.16.14.23.13.12.2.15.16.06.25.06l12.48.06c.09 0 .18-.02.26-.06a.8.8 0 0 0 .21-.15c.06-.06.11-.14.14-.23s.05-.18.05-.28v-13.9a.82.82 0 0 0-.05-.28.79.79 0 0 0-.14-.23.51.51 0 0 0-.21-.15.75.75 0 0 0-.26-.05"
                  fill="#3178c6"/>
            <path d="M24.845 93.02c-.47 0-.89.05-1.27.18a3.12 3.12 0 0 0-1.01.56c-.3.25-.54.57-.74.95s-.36.83-.48 1.34c.14-.2.29-.38.43-.53s.3-.28.46-.38.32-.18.49-.22.34-.07.52-.07h.13c.04 0 .09 0 .14.02s.09.02.14.03.09.02.14.04c.13.04.26.09.38.16s.23.15.34.24.21.2.32.31l.31.34.55.59c.2.19.42.38.67.54s.54.3.87.4.71.16 1.14.17c.47 0 .9-.05 1.28-.17s.72-.31 1.01-.56a3.43 3.43 0 0 0 .75-.95c.21-.38.37-.83.49-1.35a4.9 4.9 0 0 1-.44.54c-.15.16-.31.28-.47.38s-.33.17-.5.22-.34.07-.52.07h-.13c-.04 0-.09 0-.14-.02s-.09-.02-.14-.03-.09-.02-.14-.04c-.13-.04-.26-.09-.38-.16a1.98 1.98 0 0 1-.34-.25l-.32-.31-.32-.35-.55-.59a3.96 3.96 0 0 0-.67-.54c-.25-.16-.54-.3-.87-.4s-.71-.16-1.14-.17m3.51-4.59c-.47 0-.9.05-1.28.18s-.72.31-1.01.57-.54.57-.75.95a4.91 4.91 0 0 0-.48 1.34c.14-.2.29-.38.44-.53a2.7 2.7 0 0 1 .47-.38 1.98 1.98 0 0 1 .49-.23c.17-.05.34-.07.52-.07h.13c.04 0 .09 0 .13.02s.09.02.14.03l.14.03a1.84 1.84 0 0 1 .38.17 1.98 1.98 0 0 1 .34.25l.32.31.32.34.55.59c.2.19.42.38.67.54s.54.3.87.4.71.16 1.15.17c.47 0 .9-.05 1.28-.18s.72-.31 1.02-.57a3.14 3.14 0 0 0 .75-.96 5.76 5.76 0 0 0 .49-1.35c-.14.21-.29.38-.44.54s-.31.28-.47.38-.33.18-.5.23-.34.07-.52.07h-.13c-.04 0-.09 0-.14-.02s-.09-.02-.14-.03l-.14-.03c-.13-.04-.26-.09-.38-.16a1.98 1.98 0 0 1-.34-.25l-.32-.31-.32-.35-.55-.59c-.2-.19-.42-.38-.67-.54s-.54-.3-.87-.4a3.94 3.94 0 0 0-1.15-.16z"
                  fill="#06b6d4"/>
        </g>
    </g>
    <mask id="I" maskUnits="userSpaceOnUse" x="50" y="14" width="112" height="84">
        <path d="M50.925 94.94V16.46L161.285 14v83.4l-110.36-2.46z" class="C"/>
    </mask>
    <g mask="url(#I)">
        <path d="M120.326 15.421l-64.69 1.43a3.82 3.82 0 0 0-1.67.42c-.51.26-.97.62-1.36 1.07s-.7.98-.92 1.56a5.33 5.33 0 0 0-.34 1.89v40.48a5.33 5.33 0 0 0 .34 1.89c.22.58.53 1.11.92 1.55a4.44 4.44 0 0 0 1.36 1.05c.51.25 1.08.39 1.67.39l64.69.42a4.37 4.37 0 0 0 1.8-.38 4.56 4.56 0 0 0 1.47-1.07 4.95 4.95 0 0 0 .99-1.6c.23-.6.36-1.27.36-1.97v-42.18a5.46 5.46 0 0 0-.36-1.96c-.23-.6-.57-1.14-.99-1.58a4.61 4.61 0 0 0-1.47-1.05 4.32 4.32 0 0 0-1.8-.36z"
              fill="url(#O)" class="D"/>
        <path d="M55.625 67.15c-.59 0-1.16-.14-1.67-.39a4.44 4.44 0 0 1-1.36-1.05c-.39-.44-.7-.97-.92-1.55a5.33 5.33 0 0 1-.34-1.89V21.79a5.33 5.33 0 0 1 .34-1.89c.22-.58.53-1.11.92-1.56s.85-.81 1.36-1.07a3.82 3.82 0 0 1 1.67-.42l64.69-1.43a4.2 4.2 0 0 1 1.8.36 4.5 4.5 0 0 1 1.47 1.05 4.97 4.97 0 0 1 .99 1.58c.23.59.36 1.26.36 1.96v42.18a5.56 5.56 0 0 1-.36 1.97c-.23.61-.57 1.15-.99 1.6a4.67 4.67 0 0 1-1.47 1.07c-.55.25-1.16.39-1.8.38l-64.69-.42zm64.7-52.24l-64.69 1.44c-.65.01-1.27.18-1.83.46s-1.07.69-1.5 1.18-.77 1.08-1.01 1.72a5.95 5.95 0 0 0-.37 2.08v40.47c0 .74.13 1.44.37 2.08s.58 1.22 1.01 1.7a4.96 4.96 0 0 0 1.5 1.16c.57.28 1.18.43 1.83.43l64.69.44a4.8 4.8 0 0 0 1.97-.42 5.04 5.04 0 0 0 1.62-1.18c.46-.5.83-1.1 1.09-1.76s.4-1.39.4-2.16V20.36a5.87 5.87 0 0 0-.4-2.15c-.26-.66-.63-1.25-1.09-1.74a5.02 5.02 0 0 0-1.62-1.16c-.61-.27-1.28-.41-1.97-.39"
              fill="url(#P)" class="G"/>
        <path d="M157.416 78.741l-103.06-1.27c-.42 0-.81.09-1.17.25s-.68.41-.96.72-.49.67-.64 1.08a3.83 3.83 0 0 0-.24 1.33v10.21c0 .47.08.92.24 1.33s.37.78.64 1.1.6.57.96.75.76.29 1.17.29l103.06 2.27c.47.01.91-.08 1.32-.26a3.38 3.38 0 0 0 1.08-.75 3.65 3.65 0 0 0 1-2.55v-10.85c0-.5-.09-.98-.27-1.42s-.42-.83-.73-1.16a3.5 3.5 0 0 0-1.08-.79c-.41-.19-.85-.3-1.32-.3"
              fill="url(#Q)" class="D"/>
        <path d="M54.356 94.54c-.42 0-.81-.11-1.17-.29a3.29 3.29 0 0 1-.96-.75c-.28-.31-.49-.69-.64-1.1s-.24-.86-.24-1.33V80.86c0-.47.08-.92.24-1.33s.37-.77.64-1.08.6-.55.96-.72.76-.26 1.17-.25l103.06 1.27c.47 0 .91.11 1.32.3a3.5 3.5 0 0 1 1.08.79c.31.33.55.73.73 1.16s.27.92.27 1.42v10.85a3.65 3.65 0 0 1-1 2.55 3.23 3.23 0 0 1-1.08.75 3.24 3.24 0 0 1-1.32.26l-103.06-2.27m103.06-16.31L54.356 77c-.47 0-.93.1-1.34.29s-.78.47-1.09.82-.56.77-.74 1.23-.27.97-.27 1.51v10.21c0 .54.1 1.05.27 1.52s.42.89.74 1.25.68.65 1.09.86.86.33 1.34.34l103.06 2.3c.53.01 1.04-.09 1.51-.29s.88-.49 1.23-.86.63-.81.83-1.3.3-1.03.3-1.6V82.43c0-.57-.11-1.12-.3-1.61a4.26 4.26 0 0 0-.83-1.33 3.87 3.87 0 0 0-1.23-.9 3.63 3.63 0 0 0-1.51-.34z"
              fill="url(#R)" class="G"/>
        <path d="M156.705 14.62l-17.18.38c-.56.01-1.08.15-1.56.38a4.1 4.1 0 0 0-1.27.96 4.44 4.44 0 0 0-.86 1.4 4.74 4.74 0 0 0-.31 1.69v43.92a4.7 4.7 0 0 0 .31 1.69c.2.52.5.99.86 1.38a4.01 4.01 0 0 0 1.27.93c.48.22 1.01.35 1.56.35l17.18.11a4.04 4.04 0 0 0 1.59-.33c.49-.21.93-.54 1.3-.93s.67-.87.88-1.39.32-1.1.32-1.71V18.92c0-.61-.11-1.18-.32-1.7s-.51-.99-.88-1.38a3.92 3.92 0 0 0-1.3-.91c-.49-.21-1.03-.32-1.59-.31z"
              fill="url(#S)" class="D"/>
        <path d="M139.526 67.7c-.56 0-1.08-.13-1.56-.35a4.01 4.01 0 0 1-1.27-.93c-.36-.39-.66-.86-.86-1.38a4.7 4.7 0 0 1-.31-1.69V19.42a4.7 4.7 0 0 1 .31-1.69c.2-.52.5-1 .86-1.4a4.1 4.1 0 0 1 1.27-.96c.48-.23 1.01-.36 1.56-.38l17.18-.38c.56-.01 1.1.1 1.59.31a3.92 3.92 0 0 1 1.3.91c.37.39.67.86.88 1.38a4.55 4.55 0 0 1 .32 1.7v44.53c0 .61-.11 1.19-.32 1.71s-.51 1-.88 1.39a4.13 4.13 0 0 1-1.3.93c-.49.22-1.03.34-1.59.33l-17.18-.11m17.18-53.59l-17.18.38a4.09 4.09 0 0 0-1.74.42c-.53.26-1.02.62-1.42 1.07a5.29 5.29 0 0 0-.96 1.56 5.12 5.12 0 0 0-.35 1.89v43.91a5.12 5.12 0 0 0 .35 1.89c.23.58.55 1.1.96 1.55a4.52 4.52 0 0 0 1.42 1.05 4.07 4.07 0 0 0 1.74.39l17.18.12a4.43 4.43 0 0 0 1.78-.37c.55-.24 1.04-.6 1.46-1.04s.75-.97.98-1.55.36-1.23.36-1.91V18.91a5.14 5.14 0 0 0-.36-1.9c-.23-.58-.57-1.1-.98-1.54s-.91-.79-1.46-1.02-1.15-.36-1.78-.35z"
              fill="url(#T)" class="G"/>
    </g>
    <mask id="J" maskUnits="userSpaceOnUse" x="56" y="22" width="65" height="40">
        <path d="M56.715 60.511v-37.77l63.58-.68v39.13l-63.58-.68z" class="C"/>
    </mask>
    <g mask="url(#J)" class="B">
        <path d="M119.425 22.07l-61.9.66c-.11 0-.22.03-.32.07a.7.7 0 0 0-.26.2c-.08.09-.13.18-.17.29s-.06.23-.06.36a.99.99 0 0 0 .06.35c.04.11.1.2.17.29s.16.15.26.19.2.07.32.07l61.9-.59c.12 0 .23-.03.34-.08a.95.95 0 0 0 .28-.2c.08-.08.14-.19.19-.3s.07-.23.07-.36-.02-.25-.07-.37-.11-.21-.19-.3a.8.8 0 0 0-.28-.2c-.11-.05-.22-.07-.34-.07"
              class="E"/>
        <path d="M82.585 26.471l-25.06.21c-.11 0-.22.03-.32.07a.7.7 0 0 0-.26.2c-.08.09-.13.18-.17.29a1.03 1.03 0 0 0-.06.35.99.99 0 0 0 .06.35c.04.1.1.21.17.29a.7.7 0 0 0 .26.19c.1.04.2.07.32.07l25.06-.18c.11 0 .22-.03.32-.07s.19-.12.26-.2a.89.89 0 0 0 .18-.3c.04-.12.07-.23.07-.36s-.02-.25-.07-.35-.1-.21-.18-.29-.16-.15-.26-.19-.21-.07-.32-.07"
              class="D"/>
        <path d="M76.715 39.08l-19.19.03c-.11 0-.22.03-.32.07a.7.7 0 0 0-.26.2c-.08.09-.13.18-.17.29s-.06.23-.06.36a.99.99 0 0 0 .06.35c.04.11.1.21.17.29a.7.7 0 0 0 .26.19c.1.04.2.07.32.07h19.19a.72.72 0 0 0 .32-.08c.1-.05.19-.11.26-.2s.14-.18.18-.29a1.04 1.04 0 0 0 .07-.35.89.89 0 0 0-.07-.36c-.05-.11-.1-.21-.18-.29s-.16-.15-.26-.2a.71.71 0 0 0-.32-.07"
              class="E"/>
        <path d="M69.425 43.18h-11.9a.59.59 0 0 0-.32.06c-.1.05-.18.11-.26.19s-.13.18-.17.29a1.03 1.03 0 0 0-.06.35 1.03 1.03 0 0 0 .06.35c.04.11.1.21.17.29a.7.7 0 0 0 .26.19c.1.04.2.07.32.07l11.9.02c.11 0 .22-.03.32-.07a.7.7 0 0 0 .26-.19 1.19 1.19 0 0 0 .18-.29c.05-.11.06-.23.06-.35a1.09 1.09 0 0 0-.06-.36.79.79 0 0 0-.18-.29c-.08-.08-.16-.15-.26-.2a.71.71 0 0 0-.32-.07"
              class="D"/>
        <path d="M71.205 50.191l-12.14-.06a2.16 2.16 0 0 0-.91.2c-.28.13-.53.32-.74.56s-.38.52-.5.83a2.84 2.84 0 0 0-.18 1.02c0 .36.07.7.18 1.02s.29.6.5.84a2.41 2.41 0 0 0 .74.57c.28.14.59.21.91.21l12.14.09a2.25 2.25 0 0 0 .93-.2c.29-.13.54-.32.76-.56a2.56 2.56 0 0 0 .51-.84 2.9 2.9 0 0 0 .19-1.03 2.86 2.86 0 0 0-.19-1.03 3.05 3.05 0 0 0-.51-.85c-.21-.25-.47-.44-.76-.57a2.26 2.26 0 0 0-.93-.21"
              class="E"/>
        <path d="M94.445 30.631l-36.92.22c-.11 0-.22.03-.32.07a.7.7 0 0 0-.26.2c-.08.09-.13.18-.17.29s-.06.23-.06.36a.95.95 0 0 0 .06.35c.04.1.1.21.17.29a.7.7 0 0 0 .26.19c.1.04.2.07.32.07l36.92-.19c.12 0 .23-.03.33-.07s.19-.12.27-.2a.83.83 0 0 0 .18-.3c.04-.11.07-.23.07-.36s-.02-.25-.07-.36-.1-.21-.18-.29a1.05 1.05 0 0 0-.27-.2c-.1-.05-.21-.07-.33-.07z"
              class="D"/>
        <path opacity=".25"
              d="M117.405 38.26l-30.5.06c-.38 0-.75.09-1.08.24s-.63.38-.88.66a3.35 3.35 0 0 0-.6.98c-.15.37-.22.77-.22 1.2v16.34a3.41 3.41 0 0 0 .22 1.2c.14.37.34.7.6.99s.55.51.88.67a2.48 2.48 0 0 0 1.08.25l30.5.32c.4 0 .78-.08 1.12-.24s.66-.38.92-.66.47-.62.62-.99a3.27 3.27 0 0 0 .23-1.22V41.4a3.27 3.27 0 0 0-.23-1.22c-.15-.37-.36-.71-.62-.99s-.57-.51-.92-.67a2.65 2.65 0 0 0-1.12-.24"/>
    </g>
    <mask id="K" maskUnits="userSpaceOnUse" x="140" y="20" width="17" height="41">
        <path d="M140.405 59.85v-39.6l16.31-.17v39.95l-16.31-.18z" class="C"/>
    </mask>
    <g mask="url(#K)" class="B">
        <path opacity=".25"
              d="M154.195 34.34l-11.33.04a2.25 2.25 0 0 0-.96.22 2.37 2.37 0 0 0-.78.59 2.94 2.94 0 0 0-.53.87 2.85 2.85 0 0 0-.19 1.06v11.41a3.11 3.11 0 0 0 .19 1.06c.12.33.3.62.53.87s.49.45.78.59.62.22.96.22l11.33.07c.34 0 .67-.07.97-.21a2.41 2.41 0 0 0 .79-.59c.22-.25.41-.54.54-.87a2.91 2.91 0 0 0 .2-1.07V37.08a2.91 2.91 0 0 0-.2-1.07 2.77 2.77 0 0 0-.54-.87c-.23-.25-.5-.45-.79-.59s-.63-.21-.97-.21z"/>
        <path d="M155.775 20.09l-14.53.16a.69.69 0 0 0-.32.08.86.86 0 0 0-.26.2.89.89 0 0 0-.18.3c-.04.12-.07.23-.07.36s.02.25.07.36.1.21.18.29a.91.91 0 0 0 .26.19c.09.04.21.07.32.07l14.53-.14a.73.73 0 0 0 .33-.08 1.05 1.05 0 0 0 .27-.2.83.83 0 0 0 .18-.3c.04-.11.07-.23.07-.36s-.02-.25-.07-.36-.1-.21-.18-.29a1.05 1.05 0 0 0-.27-.2c-.1-.05-.21-.07-.33-.07"
              class="E"/>
        <path d="M146.475 24.199l-5.24.05a.69.69 0 0 0-.32.08.86.86 0 0 0-.26.2c-.07.08-.14.18-.18.29s-.07.23-.07.36.02.25.07.36.1.21.18.29.17.15.26.2.21.07.32.07l5.24-.04a.73.73 0 0 0 .33-.08 1.05 1.05 0 0 0 .27-.2c.08-.08.14-.18.18-.3s.07-.23.07-.36-.02-.25-.07-.36-.1-.21-.18-.29a1.05 1.05 0 0 0-.27-.2c-.1-.05-.21-.07-.33-.07zm3.03 4.221l-8.27.05c-.12 0-.22.03-.32.07s-.19.12-.26.2-.14.18-.18.29-.07.23-.07.36.02.25.07.36.1.21.18.29.17.15.26.2.21.07.32.07l8.27-.04c.12 0 .23-.03.33-.07s.19-.12.27-.2.14-.18.18-.3.07-.23.07-.36-.02-.25-.07-.36-.1-.21-.18-.29a1.05 1.05 0 0 0-.27-.2c-.1-.05-.21-.07-.33-.07z"
              class="D"/>
        <path d="M154.855 55.921l-12.63-.11c-.25 0-.49.05-.71.15s-.42.25-.58.43-.3.4-.39.64-.14.51-.14.78.05.55.14.79a2.25 2.25 0 0 0 .39.65c.16.19.36.34.58.44s.46.16.71.17l12.63.14a1.72 1.72 0 0 0 .72-.15c.22-.1.42-.25.59-.43s.3-.4.4-.65.15-.51.15-.79-.05-.55-.15-.79-.23-.47-.4-.65-.37-.34-.59-.44a1.77 1.77 0 0 0-.72-.17"
              class="E"/>
    </g>
    <mask id="L" maskUnits="userSpaceOnUse" x="57" y="80" width="97" height="12">
        <path d="M57.925 90.07l.16-9.17 95.35 1.42-.17 9.66-95.34-1.91z" class="C"/>
    </mask>
    <g mask="url(#L)" class="B">
        <path d="M127.345 83.561l-68.51-1.08c-.11 0-.21.02-.31.06s-.18.11-.25.18a.78.78 0 0 0-.17.28c-.04.11-.07.22-.07.34v.04c0 .12.02.24.05.35s.09.2.16.28.15.15.25.19a.82.82 0 0 0 .3.07l68.51 1.15c.12 0 .23-.02.33-.07s.19-.11.27-.19a.79.79 0 0 0 .18-.29c.04-.11.07-.23.07-.36v-.05c0-.13-.02-.25-.06-.36s-.1-.21-.17-.29a.86.86 0 0 0-.26-.2.72.72 0 0 0-.32-.08"
              class="E"/>
        <path d="M107.795 87.28l-49.01-.88c-.11 0-.22.02-.31.07s-.18.11-.26.19-.13.18-.18.28-.07.23-.07.35a1.03 1.03 0 0 0 .06.35c.04.11.1.21.17.29a.96.96 0 0 0 .25.2.79.79 0 0 0 .31.08l49.01.93c.11 0 .22-.02.33-.07s.19-.11.27-.19a.79.79 0 0 0 .18-.29c.04-.11.07-.23.07-.36s-.02-.25-.06-.36a1.11 1.11 0 0 0-.17-.3c-.07-.09-.16-.15-.26-.2a.72.72 0 0 0-.32-.08"
              class="D"/>
        <path opacity=".25"
              d="M151.515 82.29l-13.14-.2c-.26 0-.51.05-.74.15s-.43.24-.61.43a2.09 2.09 0 0 0-.42.64c-.1.24-.16.51-.16.79l-.1 5.5c0 .28.04.55.13.8s.23.47.39.66.37.34.59.45.47.17.73.18l13.13.26c.26 0 .52-.05.75-.15a2.03 2.03 0 0 0 .62-.43 1.92 1.92 0 0 0 .42-.65c.1-.25.16-.51.16-.8l.1-5.55c0-.28-.04-.56-.14-.8a2.33 2.33 0 0 0-.4-.66c-.17-.19-.37-.34-.6-.45a1.71 1.71 0 0 0-.74-.17"/>
    </g>
    <defs>
        <filter id="M" x="37.915" y=".711" width="213.54" height="134.121" filterUnits="userSpaceOnUse"
                color-interpolation-filters="sRGB">
            <feFlood flood-opacity="0" result="A"/>
            <feColorMatrix in="SourceAlpha" values="0 0 0 0 0 0 0 0 0 0 0 0 0 0 0 0 0 0 127 0"/>
            <feOffset dx="4"/>
            <feGaussianBlur stdDeviation="4.5"/>
            <feColorMatrix values="0 0 0 0 0.258824 0 0 0 0 0.392157 0 0 0 0 0.658824 0 0 0 0.1 0"/>
            <feBlend in2="A" result="C"/>
            <feColorMatrix in="SourceAlpha" values="0 0 0 0 0 0 0 0 0 0 0 0 0 0 0 0 0 0 127 0"/>
            <feOffset dx="17"/>
            <feGaussianBlur stdDeviation="8.5"/>
            <feColorMatrix values="0 0 0 0 0.258824 0 0 0 0 0.392157 0 0 0 0 0.658824 0 0 0 0.09 0"/>
            <feBlend in2="C" result="D"/>
            <feColorMatrix in="SourceAlpha" values="0 0 0 0 0 0 0 0 0 0 0 0 0 0 0 0 0 0 127 0"/>
            <feOffset dx="38"/>
            <feGaussianBlur stdDeviation="11.5"/>
            <feColorMatrix values="0 0 0 0 0.258824 0 0 0 0 0.392157 0 0 0 0 0.658824 0 0 0 0.05 0"/>
            <feBlend in2="D" result="E"/>
            <feColorMatrix in="SourceAlpha" values="0 0 0 0 0 0 0 0 0 0 0 0 0 0 0 0 0 0 127 0"/>
            <feOffset dx="68"/>
            <feGaussianBlur stdDeviation="13.5"/>
            <feColorMatrix values="0 0 0 0 0.258824 0 0 0 0 0.392157 0 0 0 0 0.658824 0 0 0 0.01 0"/>
            <feBlend in2="E"/>
            <feBlend in="SourceGraphic"/>
        </filter>
        <linearGradient id="N" x1="154.005" y1="28.74" x2="80.055" y2="132.697" xlink:href="#U">
            <stop stop-color="#ffffff"/>
            <stop offset="1" stop-color="#ffffff" stop-opacity=".25"/>
        </linearGradient>
        <linearGradient id="O" x1="124.946" y1="15.42" x2="75.55" y2="84.838" xlink:href="#U">
            <stop stop-color="#ffffff"/>
            <stop offset="1" stop-color="#ffffff" stop-opacity=".25"/>
        </linearGradient>
        <linearGradient id="P" x1="125.405" y1="14.91" x2="74.934" y2="85.324" xlink:href="#U">
            <stop stop-color="#B4C4E4" stop-opacity=".1"/>
            <stop offset="1" stop-color="#B4C4E4"/>
        </linearGradient>
        <linearGradient id="Q" x1="160.816" y1="77.471" x2="154.152" y2="115.049" xlink:href="#U">
            <stop stop-color="#ffffff"/>
            <stop offset="1" stop-color="#ffffff" stop-opacity=".25"/>
        </linearGradient>
        <linearGradient id="R" x1="161.285" y1="77" x2="153.994" y2="116.416" xlink:href="#U">
            <stop stop-color="#B4C4E4" stop-opacity=".1"/>
            <stop offset="1" stop-color="#B4C4E4"/>
        </linearGradient>
        <linearGradient id="S" x1="160.795" y1="14.619" x2="119.568" y2="34.123" xlink:href="#U">
            <stop stop-color="#ffffff"/>
            <stop offset="1" stop-color="#ffffff" stop-opacity=".25"/>
        </linearGradient>
        <linearGradient id="T" x1="161.286" y1="14.1" x2="118.775" y2="34.574" xlink:href="#U">
            <stop stop-color="#B4C4E4" stop-opacity=".1"/>
            <stop offset="1" stop-color="#B4C4E4"/>
        </linearGradient>
        <linearGradient id="U" gradientUnits="userSpaceOnUse"/>
    </defs>
</svg>