<svg xmlns:xlink="http://www.w3.org/1999/xlink" xmlns="http://www.w3.org/2000/svg" width="275" height="250" fill="none">
    <style>
        <![CDATA[.B{fill:#B4C4E4}.C{fill:#ffffff}.D{opacity:.75}.E{fill:#fff}.F{opacity:.5}.G{fill-opacity:.75}]]></style>
    <g filter="url(#J)">
        <mask id="A" maskUnits="userSpaceOnUse" x="250" y="126" width="5" height="3">
            <path d="M253.265 127.179c.28-.13.55-.28.81-.45l-2.45 1.55-.81.45 2.45-1.55z" class="E"/>
        </mask>
        <g mask="url(#A)" class="C">
            <path d="M247.395 129.479l2.45-1.55c1.58 0 3.02-.44 4.23-1.2l-2.45 1.55a7.87 7.87 0 0 1-4.23 1.2z"/>
        </g>
        <mask id="B" maskUnits="userSpaceOnUse" x="247" y="127" width="7" height="3">
            <path d="M249.845 127.93c1.24 0 2.39-.27 3.41-.75l-2.45 1.55c-1.02.48-2.17.75-3.41.75.73-.47 1.61-1.31 2.45-1.55z"
                  class="E"/>
        </mask>
        <g mask="url(#B)" class="C">
            <path d="M247.395 129.48l2.45-1.55c1.58 0 3.02-.44 4.23-1.2l-2.45 1.55a7.87 7.87 0 0 1-4.23 1.2z"/>
        </g>
        <mask id="C" maskUnits="userSpaceOnUse" x="247" y="128" width="9" height="4">
            <path d="M255.125 128.43l-2.45 1.55c-1.45.92-3.17 1.44-5.06 1.44l2.45-1.55c1.89 0 3.61-.52 5.06-1.44z"
                  class="E"/>
        </mask>
        <g mask="url(#C)" class="B">
            <path d="M247.615 131.42l2.45-1.55c1.89 0 3.61-.52 5.06-1.44l-2.45 1.55c-1.45.92-3.17 1.44-5.06 1.44z"/>
        </g>
        <mask id="D" maskUnits="userSpaceOnUse" x="101" y="28" width="7" height="4">
            <path d="M101.115 31.549l2.45-1.55c1.2-.76 2.64-1.2 4.22-1.2l-2.45 1.55c-1.58 0-3.01.43-4.22 1.2z"
                  class="E"/>
        </mask>
        <g mask="url(#D)" class="B">
            <path d="M101.115 31.549l2.45-1.55c1.2-.76 2.64-1.2 4.22-1.2l-2.45 1.55c-1.58 0-3.01.43-4.22 1.2z"/>
        </g>
        <mask id="E" maskUnits="userSpaceOnUse" x="97" y="30" width="7" height="7">
            <path d="M103.565 30c-1.63 1.04-2.84 2.68-3.4 4.66l-2.45 1.55c.56-1.98 1.77-3.62 3.4-4.66l2.45-1.55z"
                  class="E"/>
        </mask>
        <g mask="url(#E)" class="C">
            <path d="M101.115 31.55l2.45-1.55-.09.06-2.45 1.55.09-.06z"/>
            <path d="M101.025 31.611l2.45-1.55c-.45.3-.87.64-1.25 1.02l-2.45 1.55c.38-.38.8-.72 1.25-1.02z"/>
            <path d="M99.775 32.63l2.45-1.55a8.04 8.04 0 0 0-1.06 1.33l-2.45 1.55a8.04 8.04 0 0 1 1.06-1.33z"/>
            <path d="M98.715 33.96l2.45-1.55a8.75 8.75 0 0 0-.94 2.03l-2.45 1.55c.23-.73.54-1.41.94-2.03z"/>
            <path d="M97.775 35.999l2.45-1.55c-.37 1.2-.51 2.54-.35 3.95l-2.45 1.55c-.16-1.41-.03-2.74.35-3.95z"/>
        </g>
        <mask id="F" maskUnits="userSpaceOnUse" x="97" y="34" width="4" height="6">
            <path d="M100.165 34.658c-.32 1.15-.43 2.41-.28 3.73l-2.45 1.55c-.15-1.32-.04-2.58.28-3.73l2.45-1.55z"
                  class="E"/>
        </mask>
        <g mask="url(#F)" class="C">
            <path d="M97.775 35.997l2.45-1.55c-.37 1.2-.51 2.54-.35 3.95l-2.45 1.55c-.16-1.41-.03-2.74.35-3.95z"/>
        </g>
        <mask id="G" maskUnits="userSpaceOnUse" x="95" y="28" width="8" height="12">
            <path d="M100.055 29.859l2.45-1.55c-3.1 1.97-4.93 5.75-4.44 10.08l-2.45 1.55c-.49-4.33 1.34-8.11 4.44-10.08z"
                  class="E"/>
        </mask>
        <g mask="url(#G)" class="B">
            <path d="M100.055 29.859l2.45-1.55-.11.07-2.45 1.55.11-.07z"/>
            <path d="M99.945 29.939l2.45-1.55c-.54.36-1.05.77-1.5 1.23l-2.45 1.55a9.82 9.82 0 0 1 1.5-1.23z"/>
            <path d="M98.435 31.169l2.45-1.55a9.15 9.15 0 0 0-1.28 1.61l-2.45 1.55a9.95 9.95 0 0 1 1.28-1.61z"/>
            <path d="M97.155 32.769l2.45-1.55a10.73 10.73 0 0 0-1.13 2.45l-2.45 1.55c.27-.88.65-1.7 1.13-2.45z"/>
            <path d="M96.035 35.218l2.45-1.55c-.45 1.44-.61 3.04-.42 4.72l-2.45 1.55c-.19-1.68-.03-3.28.42-4.72z"/>
        </g>
        <path d="M116.565 129.48l2.45-1.55h130.83l-2.45 1.55h-130.83z" class="C"/>
        <path d="M116.785 131.419l2.45-1.55h130.83l-2.45 1.55h-130.83z" class="B"/>
        <path d="M97.435 39.939l2.45-1.55 9.05 79.96-2.45 1.55-9.05-79.96z" class="C"/>
        <path d="M95.615 39.939l2.45-1.55 9.05 79.96-2.45 1.55-9.05-79.96z" class="B"/>
        <mask id="H" maskUnits="userSpaceOnUse" x="106" y="118" width="14" height="12">
            <path d="M106.485 119.9l2.45-1.55c.6 5.29 5.11 9.58 10.07 9.58l-2.45 1.55c-4.97 0-9.47-4.29-10.07-9.58z"
                  class="E"/>
        </mask>
        <g mask="url(#H)" class="C">
            <path d="M106.485 119.9l2.45-1.55c.06.54.16 1.08.31 1.6l-2.45 1.55a11.91 11.91 0 0 1-.31-1.6z"/>
            <path d="M106.795 121.499l2.45-1.55c.21.79.51 1.55.89 2.26l-2.45 1.55c-.37-.71-.67-1.47-.89-2.26z"/>
            <path d="M107.685 123.759l2.45-1.55c.3.56.64 1.1 1.02 1.6l-2.45 1.55c-.38-.5-.73-1.04-1.02-1.6z"/>
            <path d="M108.705 125.361l2.45-1.55c.37.49.78.94 1.23 1.36l-2.45 1.55c-.44-.42-.85-.87-1.23-1.36z"/>
            <path d="M109.935 126.72l2.45-1.55a11.14 11.14 0 0 0 1.6 1.25l-2.45 1.55c-.57-.36-1.11-.78-1.6-1.25z"/>
            <path d="M111.535 127.97l2.45-1.55c1.51.96 3.24 1.51 5.03 1.51l-2.45 1.55c-1.79 0-3.52-.56-5.03-1.51z"/>
        </g>
        <path d="M249.845 127.929h-130.83c-4.97 0-9.47-4.29-10.07-9.58l-9.06-79.96c-.6-5.29 2.94-9.59 7.9-9.59h130.83c4.97 0 9.48 4.29 10.08 9.59l9.05 79.96c.6 5.29-2.94 9.58-7.91 9.58h.01z"
              fill="url(#K)"/>
        <mask id="I" maskUnits="userSpaceOnUse" x="104" y="118" width="16" height="14">
            <path d="M104.665 119.9l2.45-1.55c.72 6.35 6.16 11.52 12.11 11.52l-2.45 1.55c-5.95 0-11.39-5.17-12.11-11.52z"
                  class="E"/>
        </mask>
        <g mask="url(#I)" class="B">
            <path d="M104.665 119.9l2.45-1.55c.07.65.2 1.29.36 1.91l-2.45 1.55c-.17-.62-.29-1.26-.36-1.91z"/>
            <path d="M105.035 121.81l2.45-1.55a13.53 13.53 0 0 0 1.07 2.71l-2.45 1.55c-.45-.85-.81-1.76-1.07-2.71z"/>
            <path d="M106.095 124.519l2.45-1.55c.36.68.77 1.33 1.23 1.93l-2.45 1.55c-.46-.6-.88-1.25-1.23-1.93z"/>
            <path d="M107.335 126.45l2.45-1.55c.45.59.95 1.14 1.48 1.64l-2.45 1.55c-.53-.5-1.03-1.05-1.48-1.64z"/>
            <path d="M108.815 128.089l2.45-1.55a12.79 12.79 0 0 0 1.94 1.51l-2.45 1.55a12.79 12.79 0 0 1-1.94-1.51z"/>
            <path d="M110.755 129.599l2.45-1.55c1.81 1.15 3.89 1.82 6.03 1.82l-2.45 1.55c-2.14 0-4.22-.67-6.03-1.82z"/>
        </g>
        <path d="M250.065 129.869h-130.83c-5.95 0-11.39-5.17-12.11-11.52l-9.06-79.96c-.72-6.35 3.55-11.52 9.5-11.52h130.83c5.95 0 11.39 5.16 12.11 11.52l9.05 79.96c.72 6.35-3.55 11.52-9.5 11.52h.01zm-1.36-91.48c-.6-5.29-5.12-9.59-10.08-9.59h-130.84c-4.97 0-8.5 4.29-7.9 9.59l9.05 79.96c.6 5.29 5.11 9.58 10.07 9.58h130.83c4.97 0 8.51-4.29 7.91-9.58l-9.05-79.96"
              class="B"/>
    </g>
    <g fill="#5fd6f6" class="D">
        <path d="M152.135 148.111c2.48.78 4.18 2.04 4.33 3.37s-1.26 2.58-3.55 3.36c.86 2.59.85 4.66-.16 5.32-.24.16-.52.23-.84.23-1.06 0-2.53-.79-4.08-2.17-1.24 1.39-2.53 2.19-3.58 2.19-.33 0-.62-.07-.89-.23-1.16-.66-1.64-2.73-1.38-5.33-2.48-.78-4.19-2.03-4.34-3.36s1.27-2.58 3.56-3.36c-.85-2.59-.84-4.65.16-5.32a1.53 1.53 0 0 1 .84-.23c1.05 0 2.52.79 4.07 2.17 1.24-1.39 2.53-2.19 3.59-2.19.32 0 .61.08.88.23 1.15.66 1.63 2.73 1.38 5.32h.01zm-8.52 3.38l.98 1.63 1.11 1.56 1.73.08c.58 0 1.16-.03 1.73-.09l.75-1.56.61-1.63-.98-1.63-1.1-1.55-1.74-.08-1.72.08-.75 1.56-.61 1.63m10 2.05c1.29-.61 2.07-1.43 2.01-2.06-.07-.64-1.05-1.45-2.47-2.07a10.73 10.73 0 0 0-1.12-.42 17.64 17.64 0 0 1-.58 2.48c.46.85.84 1.69 1.15 2.49l1.01-.42zm-11.51.42c.13-.79.31-1.63.58-2.47-.46-.86-.84-1.69-1.15-2.49l-1.01.42c-1.29.61-2.07 1.43-2 2.07s1.04 1.45 2.47 2.06a9.27 9.27 0 0 0 1.12.42m2.05 5.54c.79 0 1.89-.68 3-1.92-.61-.6-1.22-1.29-1.82-2.04-.88-.1-1.71-.24-2.49-.44l-.06 1.21c0 1.56.37 2.77.92 3.09a1.03 1.03 0 0 0 .45.11m5.82-16.03c-.79 0-1.89.68-3 1.91a24.99 24.99 0 0 1 1.83 2.04c.87.1 1.71.25 2.48.45l.06-1.21c0-1.56-.36-2.77-.92-3.09-.13-.07-.27-.1-.45-.1zm-8.08.12c-.49.32-.57 1.54-.21 3.09l.34 1.19c.73-.2 1.53-.36 2.39-.45a15.22 15.22 0 0 1 1.35-2.03c-1.4-1.23-2.65-1.91-3.44-1.91-.13 0-.29.04-.43.11zm10.34 15.78c.48-.32.56-1.53.2-3.09-.08-.38-.19-.77-.33-1.19-.73.2-1.53.36-2.39.45a17.18 17.18 0 0 1-1.35 2.04c1.39 1.23 2.64 1.9 3.44 1.9.17 0 .32-.03.43-.11zm-9.91-10.61l.71 1.63.39-.97.44-.97-1.55.32m8.37 4.81l-.45.96a14.14 14.14 0 0 0 1.55-.32l-.71-1.63-.39.98m-6.79 0l-.62-.98-.33 1.62a18.34 18.34 0 0 0 1.61.32l-.66-.96zm6.31-4.18l.62.98.33-1.62a18.86 18.86 0 0 0-1.6-.32l.65.95m-2.57-2.05c-.4-.48-.81-.92-1.21-1.31a12.03 12.03 0 0 0-.9 1.31c.34-.03.7-.03 1.06-.03l1.06.03m.04 9.6c.31-.39.62-.83.9-1.3l-1.06.03c-.36 0-.71 0-1.06-.03a15.32 15.32 0 0 0 1.21 1.3"/>
        <path d="M147.275 153.351c-.46 0-.94-.2-1.3-.55-.37-.36-.61-.83-.66-1.32s.08-.97.36-1.32.71-.55 1.18-.55.93.2 1.3.55a2.2 2.2 0 0 1 .66 1.32c.06.49-.07.96-.36 1.32-.3.35-.71.55-1.18.55z"/>
    </g>
    <g fill="#329632">
        <path d="M236.135 154.32c1.45-.03 2.02-.38 1.91-1.21-.06-.47-.28-.82-2.57-1.02-1.91-.16-3.13-.59-3.34-2.18-.19-1.48.86-2.39 2.83-2.42 2.2-.04 3.4.76 3.77 2.51l-.03.17-.14.06-.9.02c-.09 0-.18-.07-.21-.16-.35-1.01-.92-1.32-2.33-1.3-1.59.03-1.69.62-1.64 1.05.07.54.31.69 2.49.95 2.16.27 3.22.67 3.43 2.25s-.93 2.53-3.11 2.57c-3.02.05-3.85-1.4-4.01-2.64-.01-.11.06-.21.18-.21l.89-.02c.1 0 .19.07.22.18.26.96.73 1.44 2.55 1.41l.01-.01z"/>
        <path d="M240.505 145.78a1.79 1.79 0 0 1 .9 1.32l1.11 8.46c.07.55-.14 1.06-.55 1.35l-6.33 4.34c-.2.14-.45.22-.7.22a1.48 1.48 0 0 1-.75-.2l-2.49-1.4c-.37-.2-.21-.27-.11-.32a4.06 4.06 0 0 0 .98-.52h.17l1.92 1.09h.21l6.34-4.36.08-.19-1.11-8.46-.14-.21-7.44-4.1h-.21l-6.33 4.35-.09.21 1.11 8.46.14.19 2.04 1.13c.29.14.54.2.75.19.59-.01.86-.49.8-.97l-1.09-8.35a.18.18 0 0 1 .18-.22l.87-.02c.11 0 .22.09.23.21l1.09 8.35c.19 1.46-.45 2.3-1.75 2.33-.39 0-.71.01-1.64-.43l-1.95-1.07c-.48-.27-.82-.78-.89-1.32l-1.11-8.46c-.07-.56.13-1.07.54-1.35l6.34-4.36a1.4 1.4 0 0 1 .7-.21c.25-.01.52.06.75.18l7.44 4.12-.01.02z"
              class="D"/>
    </g>
    <path d="M194.235 141.461h18.81l2.27 20.04h-18.81l-2.27-20.04zm19.05 16.58c.02-.07.12-.58-.1-1.37l.05.05c-.24-.91-.88-1.68-2.63-2.4-.6-.29-1.27-.49-1.51-.95-.1-.28-.13-.43-.11-.59.05-.41.39-.6.77-.6.12 0 .24.02.36.06.31.1.63.35.85.75l1.26-.94c-.25-.35-.38-.5-.53-.65-.54-.57-1.2-.86-2.19-.86h-.13l-.55.07c-.51.14-.99.44-1.24.84-.78 1.08-.3 2.96.86 3.73 1.16.85 2.75 1.04 3.05 1.84.26.86-.34 1.2-1.08 1.2-.11 0-.22 0-.33-.02-.65-.16-1.04-.5-1.51-1.12l-1.34.88c.22.4.42.57.74.93.67.64 1.69.99 2.67.99 1.25 0 2.42-.57 2.62-1.83m-7.19.63c.31-.78.12-1.73 0-2.8l-.58-5.16v-.05h-1.77l.54 4.85c.12 1.03.27 1.97.15 2.26-.12.37-.44.48-.74.48a1.35 1.35 0 0 1-.44-.07c-.33-.17-.51-.39-.73-.72-.06-.09-.11-.16-.12-.16l-1.32.94c.3.52.7.97 1.18 1.26.49.29 1.07.45 1.68.45.29 0 .58-.03.87-.11.6-.18 1.09-.57 1.29-1.17"
          fill="#f2db1d" class="D"/>
    <path d="M127.365 150.019c.14.55.16.71.25 1.46s.09.9.08 1.46c-.05 1.89-.61 3.66-1.64 5.12a8.5 8.5 0 0 1-1.72 1.81l-.08.05-1.76-2.41-4.39-5.99-2.68-3.64c-.11-.11-.18-.12-.55-.12-.32 0-.34 0-.42.03l-.12.12-.05.08.44 3.93.44 3.93.04.09.14.14.1.06h.32c.28 0 .33 0 .38-.03.08-.04.1-.09.14-.18.02-.07.02-.18-.3-3l-.32-2.93 2.24 2.96 2.22 2.97 1.75 2.16 1.78 2.19c.03.02 0 .04-.16.13-.99.57-2.02.9-3.27 1.05-.14.02-.52.03-.9.03s-.76 0-.9-.03a11.02 11.02 0 0 1-2.03-.43c-3.54-1.17-6.41-4.34-7.35-8.09-.14-.56-.16-.72-.25-1.46s-.1-.91-.08-1.46c.03-1.58.43-3.07 1.16-4.38 1.32-2.36 3.65-3.89 6.29-4.16a1.47 1.47 0 0 0 .28-.03h.28c.42 0 1.14.02 1.27.03.73.09 1.38.23 2.01.43 3.54 1.17 6.41 4.34 7.35 8.1l.01.01zm-5.74 1.33l-.42-3.6a.47.47 0 0 0-.21-.23c-.07-.03-.12-.03-.39-.03-.29 0-.32 0-.39.04-.08.05-.14.14-.15.24-.01.05.09.98.28 2.63l.29 2.56.69.95.7.96-.4-3.52z"
          fill="#000000" class="D"/>
    <path d="M183.305 141.461c.49 0 .93.42.99.94l2.06 18.16c.06.52-.29.94-.77.94h-17.05c-.48 0-.93-.42-.99-.94l-2.06-18.16c-.06-.52.29-.94.77-.94h17.05zm-6.65 10.1l-.2-1.81h-7.49l.2 1.81h2.68l.91 8.06h2.13l-.91-8.06h2.68zm7.52 6.66c.15-.37.2-.83.14-1.38-.05-.4-.14-.75-.29-1.04a2.66 2.66 0 0 0-.57-.8c-.23-.23-.51-.44-.82-.63-.32-.19-.67-.37-1.06-.53a8 8 0 0 1-.77-.35c-.22-.11-.42-.23-.58-.34-.16-.12-.29-.24-.38-.37-.1-.13-.15-.28-.17-.44-.02-.14 0-.29.06-.41a.8.8 0 0 1 .27-.31 1.31 1.31 0 0 1 .47-.2 2.96 2.96 0 0 1 .63-.07c.38 0 .77.06 1.14.17.2.06.4.13.59.22s.37.18.54.3l-.23-2.05c-.34-.14-.7-.23-1.05-.29a8.25 8.25 0 0 0-1.29-.1c-.48 0-.92.05-1.37.17-.4.1-.77.28-1.09.52-.31.23-.53.54-.68.91s-.2.81-.14 1.32c.07.65.32 1.21.72 1.67s.99.85 1.74 1.17l.83.37c.23.1.46.23.68.37.17.11.33.25.46.42.1.13.18.29.21.44.03.17.01.32-.05.46-.05.12-.14.23-.25.32-.13.09-.28.16-.47.21a2.7 2.7 0 0 1-.68.08c-.93 0-1.87-.37-2.65-1.01l.25 2.2c.4.2.81.34 1.23.41.48.1.98.14 1.46.14s.96-.05 1.39-.15c.41-.09.78-.26 1.11-.5a2.2 2.2 0 0 0 .69-.9"
          fill="#3076c2" class="D"/>
    <g fill="#06b3d0">
        <path d="M265.025 155.081c.95 0 1.75-.53 2.38-1.6-.33 2.67-1.74 4.01-4.24 4.01-2.33 0-3.53-1.16-4.57-2.15-.63-.62-1.21-1.16-1.95-1.36a2.87 2.87 0 0 0-.75-.1c-.95 0-1.74.54-2.37 1.61.32-2.68 1.74-4.02 4.24-4.02 2.33 0 3.53 1.16 4.57 2.16.63.61 1.21 1.16 1.95 1.36.26.07.5.1.74.1v-.01zm4.03-6.012c.95 0 1.74-.54 2.37-1.61-.32 2.68-1.74 4.01-4.24 4.01-2.33 0-3.52-1.15-4.56-2.15-.64-.62-1.21-1.16-1.95-1.36a2.85 2.85 0 0 0-.74-.1c-.95 0-1.75.53-2.38 1.6.32-2.68 1.74-4.01 4.25-4.01 2.33 0 3.52 1.16 4.56 2.15.64.62 1.21 1.16 1.95 1.36a2.87 2.87 0 0 0 .75.1l-.01.01z"
              class="D"/>
    </g>
    <path d="M216.735 68.401h-89.01c-3.38 0-6.45-2.92-6.86-6.52l-6.15-54.39c-.41-3.6 2-6.52 5.38-6.52h89.01c3.38 0 6.45 2.92 6.86 6.52l6.16 54.39c.41 3.6-2 6.52-5.38 6.52h-.01z"
          fill="url(#L)"/>
    <path d="M216.845 69.36h-89.01c-3.87 0-7.4-3.36-7.87-7.48l-6.16-54.39c-.47-4.13 2.3-7.49 6.18-7.49h89.01c3.87 0 7.4 3.36 7.87 7.49l6.16 54.39c.47 4.13-2.31 7.48-6.18 7.48zm-.89-61.88c-.41-3.6-3.48-6.52-6.86-6.52h-89.01c-3.38 0-5.79 2.92-5.38 6.52l6.16 54.39c.41 3.6 3.48 6.52 6.86 6.52h89.01c3.38 0 5.79-2.92 5.38-6.52l-6.16-54.39z"
          fill="url(#M)" class="G"/>
    <g class="D B">
        <path d="M207.185 11.131h-83.57c-.63 0-1.19-.54-1.27-1.2s.37-1.21 1-1.21h83.57c.62 0 1.19.54 1.26 1.21s-.37 1.2-.99 1.2z"/>
    </g>
    <g class="F B">
        <path d="M158.745 16.551h-34.52c-.63 0-1.19-.54-1.27-1.21s.37-1.2 1-1.2h34.52c.62 0 1.19.54 1.26 1.2s-.37 1.21-.99 1.21z"/>
    </g>
    <g class="D B">
        <path d="M152.675 33.631h-26.53c-.63 0-1.19-.54-1.27-1.21s.37-1.21 1-1.21h26.53c.62 0 1.19.54 1.27 1.21s-.38 1.21-1 1.21z"/>
    </g>
    <g class="F B">
        <path d="M143.295 39.209h-16.52c-.62 0-1.19-.54-1.27-1.21s.38-1.21 1-1.21h16.52c.63 0 1.19.54 1.27 1.21s-.37 1.21-1 1.21z"/>
    </g>
    <g class="D B">
        <path d="M147.295 53.39h-16.83c-1.8 0-3.44-1.56-3.66-3.49s1.07-3.48 2.87-3.48h16.83c1.8 0 3.44 1.56 3.66 3.48s-1.07 3.49-2.87 3.49z"/>
    </g>
    <g class="F B">
        <path d="M175.425 22.291h-50.53c-.63 0-1.19-.54-1.27-1.2s.37-1.21 1-1.21h50.53c.62 0 1.19.54 1.26 1.21s-.37 1.2-.99 1.2z"/>
    </g>
    <g opacity=".25" class="B">
        <path d="M209.785 60.06h-40.56c-2.08 0-3.97-1.8-4.22-4.03l-2.42-21.35c-.25-2.22 1.23-4.02 3.31-4.02h40.56c2.08 0 3.97 1.8 4.22 4.02l2.42 21.35c.25 2.23-1.23 4.03-3.31 4.03z"/>
    </g>
    <path d="M269.845 107.22h-139.07c-2.38 0-4.54-2.06-4.83-4.59l-1.55-13.72c-.29-2.54 1.41-4.59 3.79-4.59h139.06c2.38 0 4.54 2.05 4.83 4.59l1.55 13.72c.29 2.53-1.41 4.59-3.79 4.59h.01z"
          fill="url(#N)"/>
    <path d="M269.955 108.18h-139.07c-2.88 0-5.49-2.49-5.84-5.56l-1.55-13.72c-.35-3.06 1.7-5.56 4.58-5.56h139.06c2.88 0 5.49 2.5 5.84 5.56l1.55 13.72c.35 3.06-1.7 5.56-4.58 5.56h.01zm2.12-19.27c-.29-2.54-2.44-4.59-4.83-4.59h-139.06c-2.38 0-4.07 2.05-3.79 4.59l1.55 13.72c.29 2.53 2.44 4.59 4.83 4.59h139.06c2.38 0 4.07-2.06 3.79-4.59l-1.55-13.72z"
          fill="url(#O)" class="G"/>
    <path d="M266.236 68.401h-25.61c-1.92 0-3.65-1.65-3.89-3.69l-6.8-60.04c-.23-2.04 1.13-3.69 3.05-3.69h25.61c1.92 0 3.65 1.65 3.89 3.69l6.8 60.04c.23 2.04-1.13 3.69-3.05 3.69z"
          fill="url(#P)"/>
    <path d="M266.345 69.36h-25.61c-2.41 0-4.61-2.09-4.9-4.66l-6.8-60.04c-.3-2.57 1.43-4.66 3.84-4.66h25.61c2.41 0 4.61 2.09 4.9 4.66l6.8 60.04c.29 2.57-1.43 4.66-3.84 4.66zm-3.86-64.7c-.23-2.04-1.97-3.69-3.89-3.69h-25.61c-1.92 0-3.28 1.65-3.05 3.69l6.8 60.04c.23 2.04 1.97 3.69 3.89 3.69h25.61c1.92 0 3.28-1.65 3.05-3.69l-6.8-60.04z"
          fill="url(#Q)" class="G"/>
    <g opacity=".25" class="B">
        <path d="M259.245 50.32h-15.29c-1.85 0-3.53-1.59-3.76-3.56l-1.69-14.96c-.22-1.96 1.1-3.56 2.95-3.56h15.29c1.85 0 3.53 1.6 3.76 3.56l1.69 14.96c.22 1.97-1.1 3.56-2.95 3.56z"/>
    </g>
    <g class="D B">
        <path d="M256.925 11.131h-19.63c-.63 0-1.19-.54-1.27-1.2s.37-1.21 1-1.21h19.63c.63 0 1.19.54 1.27 1.21s-.37 1.2-1 1.2z"/>
    </g>
    <g class="F B">
        <path d="M245.095 16.551h-7.12c-.62 0-1.19-.54-1.27-1.21s.38-1.2 1-1.2h7.12c.62 0 1.19.54 1.26 1.2s-.37 1.21-.99 1.21z"/>
    </g>
    <g class="F B">
        <path d="M249.755 22.291h-11.2c-.63 0-1.19-.54-1.27-1.2s.37-1.21 1-1.21h11.2c.63 0 1.19.54 1.27 1.21s-.37 1.2-1 1.2z"/>
    </g>
    <g class="D B">
        <path d="M261.595 62.29h-17.06c-1.37 0-2.62-1.19-2.79-2.65s.82-2.65 2.19-2.65h17.06c1.37 0 2.62 1.18 2.79 2.65s-.82 2.65-2.19 2.65z"/>
    </g>
    <g class="D B">
        <path d="M226.715 94.041h-93.73c-.61 0-1.17-.53-1.25-1.23-.07-.65.36-1.17.98-1.17h93.73c.61 0 1.17.52 1.25 1.23.07.64-.36 1.17-.98 1.17z"/>
    </g>
    <g class="F B">
        <path d="M201.415 99.471h-67.77c-.63 0-1.19-.54-1.27-1.21s.37-1.21 1-1.21h67.77c.63 0 1.19.54 1.27 1.21s-.37 1.21-1 1.21z"/>
    </g>
    <g opacity=".25" class="B">
        <path d="M265.875 101.56h-16.98c-1.35 0-2.59-1.17-2.75-2.621l-.8-7.05c-.16-1.45.8-2.62 2.16-2.62h16.98c1.35 0 2.59 1.16 2.75 2.62l.8 7.05c.16 1.441-.8 2.621-2.16 2.621z"/>
    </g>
    <defs>
        <filter id="J" x=".537" y="18.869" width="269.098" height="230.551" filterUnits="userSpaceOnUse"
                color-interpolation-filters="sRGB">
            <feFlood flood-opacity="0" result="A"/>
            <feColorMatrix in="SourceAlpha" values="0 0 0 0 0 0 0 0 0 0 0 0 0 0 0 0 0 0 127 0"/>
            <feOffset dx="-3" dy="5"/>
            <feGaussianBlur stdDeviation="6.5"/>
            <feColorMatrix values="0 0 0 0 0.258824 0 0 0 0 0.392157 0 0 0 0 0.658824 0 0 0 0.1 0"/>
            <feBlend in2="A" result="C"/>
            <feColorMatrix in="SourceAlpha" values="0 0 0 0 0 0 0 0 0 0 0 0 0 0 0 0 0 0 127 0"/>
            <feOffset dx="-14" dy="20"/>
            <feGaussianBlur stdDeviation="12"/>
            <feColorMatrix values="0 0 0 0 0.258824 0 0 0 0 0.392157 0 0 0 0 0.658824 0 0 0 0.09 0"/>
            <feBlend in2="C" result="D"/>
            <feColorMatrix in="SourceAlpha" values="0 0 0 0 0 0 0 0 0 0 0 0 0 0 0 0 0 0 127 0"/>
            <feOffset dx="-31" dy="45"/>
            <feGaussianBlur stdDeviation="16.5"/>
            <feColorMatrix values="0 0 0 0 0.258824 0 0 0 0 0.392157 0 0 0 0 0.658824 0 0 0 0.05 0"/>
            <feBlend in2="D" result="E"/>
            <feColorMatrix in="SourceAlpha" values="0 0 0 0 0 0 0 0 0 0 0 0 0 0 0 0 0 0 127 0"/>
            <feOffset dx="-56" dy="79"/>
            <feGaussianBlur stdDeviation="19.5"/>
            <feColorMatrix values="0 0 0 0 0.258824 0 0 0 0 0.392157 0 0 0 0 0.658824 0 0 0 0.01 0"/>
            <feBlend in2="E"/>
            <feBlend in="SourceGraphic"/>
        </filter>
        <linearGradient id="K" x1="99.818" y1="28.799" x2="189.466" y2="171.076" xlink:href="#R">
            <stop stop-color="#ffffff"/>
            <stop offset="1" stop-color="#ffffff" stop-opacity=".25"/>
        </linearGradient>
        <linearGradient id="L" x1="114.67" y1=".971" x2="175.642" y2="97.767" xlink:href="#R">
            <stop stop-color="#ffffff"/>
            <stop offset="1" stop-color="#ffffff" stop-opacity=".25"/>
        </linearGradient>
        <linearGradient id="M" x1="113.753" y1="0" x2="176.777" y2="98.918" xlink:href="#R">
            <stop stop-color="#B4C4E4" stop-opacity=".1"/>
            <stop offset="1" stop-color="#B4C4E4"/>
        </linearGradient>
        <linearGradient id="N" x1="124.363" y1="84.32" x2="131.272" y2="129.172" xlink:href="#R">
            <stop stop-color="#ffffff"/>
            <stop offset="1" stop-color="#ffffff" stop-opacity=".25"/>
        </linearGradient>
        <linearGradient id="O" x1="123.456" y1="83.34" x2="131.46" y2="131.825" xlink:href="#R">
            <stop stop-color="#B4C4E4" stop-opacity=".1"/>
            <stop offset="1" stop-color="#B4C4E4"/>
        </linearGradient>
        <linearGradient id="P" x1="229.91" y1=".98" x2="288.677" y2="35.179" xlink:href="#R">
            <stop stop-color="#ffffff"/>
            <stop offset="1" stop-color="#ffffff" stop-opacity=".25"/>
        </linearGradient>
        <linearGradient id="Q" x1="229.001" y1="0" x2="289.953" y2="36.066" xlink:href="#R">
            <stop stop-color="#B4C4E4" stop-opacity=".1"/>
            <stop offset="1" stop-color="#B4C4E4"/>
        </linearGradient>
        <linearGradient id="R" gradientUnits="userSpaceOnUse"/>
    </defs>
</svg>